<?xml version="1.0" encoding="UTF-8" standalone="no"?>
<svg
   version="1.1"
   id="Layer_1"
   x="0px"
   y="0px"
   width="775"
   viewBox="0 0 775 450"
   enable-background="new 0 0 1920 1334"
   xml:space="preserve"
   sodipodi:docname="file.svg"
   height="450"
   inkscape:version="1.4.2 (f4327f4, 2025-05-13)"
   xmlns:inkscape="http://www.inkscape.org/namespaces/inkscape"
   xmlns:sodipodi="http://sodipodi.sourceforge.net/DTD/sodipodi-0.dtd"
   xmlns="http://www.w3.org/2000/svg"
   xmlns:svg="http://www.w3.org/2000/svg"><defs
   id="defs64" /><sodipodi:namedview
   id="namedview64"
   pagecolor="#ffffff"
   bordercolor="#000000"
   borderopacity="0.25"
   inkscape:showpageshadow="2"
   inkscape:pageopacity="0.0"
   inkscape:pagecheckerboard="0"
   inkscape:deskcolor="#d1d1d1"
   inkscape:zoom="0.45464768"
   inkscape:cx="914.99423"
   inkscape:cy="1188.8326"
   inkscape:window-width="2560"
   inkscape:window-height="1494"
   inkscape:window-x="-11"
   inkscape:window-y="-11"
   inkscape:window-maximized="1"
   inkscape:current-layer="Layer_1" />

<path
   fill="#986b63"
   opacity="1"
   stroke="none"
   d="m 420.90924,13.652451 c 14.9989,0.906616 29.99634,1.838378 44.99732,2.708984 7.27697,0.422302 14.57727,0.533966 21.83642,1.147186 6.71155,0.566986 13.39087,1.552857 20.06909,2.466614 10.75257,1.471161 21.49768,2.999725 32.23487,4.578949 3.56421,0.524261 7.13208,1.122314 10.63293,1.959686 8.3158,1.989197 16.64282,3.963043 24.87317,6.271546 11.18872,3.138366 22.49194,6.039001 33.37549,10.047851 11.07055,4.07782 22.08874,8.653076 32.41101,14.319824 13.66357,7.501008 27.18909,15.514435 39.71155,24.748383 9.51147,7.013733 18.0813,15.665833 25.76953,24.696286 8.99707,10.56781 17.3872,21.85254 24.53906,33.73035 6.28296,10.43469 11.04712,21.90418 15.43921,33.31793 3.38904,8.80744 5.63293,18.14331 7.47412,27.42511 1.07507,5.41937 0.61304,11.20435 0.39124,16.80707 -0.40345,10.19617 0.0286,20.61761 -1.98829,30.51721 -4.08801,20.06574 -12.74914,38.42291 -23.35327,56.00232 -8.18347,13.56622 -17.45605,26.2591 -28.50366,37.41852 -12.73071,12.85944 -26.72058,24.46094 -42.81433,33.05102 -11.68152,6.23511 -23.52039,12.22223 -35.55823,17.73206 -17.35815,7.94513 -35.5924,13.45398 -54.13647,17.89551 -10.06616,2.41089 -20.11926,4.98645 -30.30542,6.75433 -10.35413,1.79706 -20.86194,2.71539 -31.30738,3.97699 -12.05603,1.45612 -24.08569,3.30548 -36.18505,4.17609 -12.58204,0.90527 -25.23474,0.80511 -37.85389,1.22674 -5.61438,0.18756 -11.22192,0.57636 -17.67651,0.6568 -8.62805,-0.42163 -16.41284,-0.79382 -24.19665,-0.77502 -5.60816,0.0136 -11.21509,0.54785 -16.82258,0.84985 -11.94116,-0.32788 -23.88348,-0.62115 -35.82312,-0.99792 -6.12274,-0.19324 -12.25268,-0.37866 -18.35833,-0.84394 -11.83655,-0.90197 -23.68067,-1.79266 -35.47992,-3.07238 -12.33252,-1.33753 -24.6214,-3.0868 -36.91937,-4.73066 -12.46674,-1.66644 -24.99836,-3.0036 -37.35737,-5.27087 -10.47381,-1.92139 -20.85022,-4.59576 -31.07489,-7.60004 -14.26348,-4.19098 -28.60247,-8.34411 -42.41827,-13.76464 C 126.67163,387.21184 117.3324,381.74968 108.2843,376.1527 98.509339,370.106 88.72638,363.78673 80.074586,356.28563 70.271912,347.78661 61.34668,338.17296 52.762391,328.40874 47.369141,322.27422 43.046815,315.13243 38.696168,308.16039 29.288636,293.08452 23.695008,276.541 19.786256,259.23918 c -4.488404,-19.86761 -2.356629,-39.93481 -2.679139,-59.91192 -0.103759,-6.43006 2.01233,-12.91205 3.247132,-19.34455 3.353332,-17.46911 10.163574,-33.57977 19.375732,-48.72357 8.140381,-13.38196 17.389038,-25.95917 29.12732,-36.379639 9.286682,-8.244079 18.603576,-16.716247 29.001953,-23.378235 12.372986,-7.927093 25.702026,-14.48117 39.022526,-20.770965 9.99304,-4.718628 20.41461,-8.823273 31.02935,-11.858093 13.4704,-3.851319 27.31067,-6.429993 41.02808,-9.387909 7.5293,-1.623505 15.09143,-3.203461 22.71393,-4.260956 12.19171,-1.691315 24.44836,-2.911255 36.67297,-4.368622 11.44257,-1.364105 22.87543,-2.810059 34.3216,-4.142425 2.30273,-0.268036 4.64648,-0.176972 6.97058,-0.269745 16.56268,-0.661103 33.1264,-1.299073 49.68646,-2.020081 2.6112,-0.113678 5.20575,-0.610077 8.63281,-0.707397 16.25031,0.424469 31.67554,0.661102 47.10169,0.786377 1.95422,0.0159 3.9132,-0.551728 5.86999,-0.848999 M 84.592164,318.5468 c 0.182129,0.21179 0.392883,0.38971 0.978393,1.12122 4.333252,5.3673 8.637757,10.7583 13.033448,16.07391 0.594543,0.71905 1.649845,1.05432 2.485655,1.57709 1.93762,1.21185 4.01495,2.25134 5.78418,3.67346 13.107,10.5357 27.04468,19.70288 43.15912,26.62726 26.67419,13.01226 55.12915,20.18493 84.23901,24.63958 22.42096,3.43103 44.99097,6.11377 67.58362,8.13495 22.49469,2.01239 45.08588,3.32257 67.66199,3.93256 18.28583,0.49414 36.63641,-0.0323 54.91424,-0.96826 22.01941,-1.12757 44.03357,-2.74567 65.97596,-4.90448 38.03625,-3.74219 75.00561,-12.28034 109.98779,-27.93567 12.21289,-5.46558 23.58911,-12.80072 35.93957,-19.57953 4.95227,-3.72028 9.90442,-7.44055 15.44532,-11.44904 1.32983,-1.12964 2.65966,-2.25933 4.29126,-3.58972 0.18969,-0.15674 0.33972,-0.34515 0.979,-1.00519 1.2627,-1.06298 2.6991,-1.97705 3.75916,-3.21368 5.74511,-6.70166 14.60607,-10.7525 17.13256,-20.17548 0,0 0.0399,0.0526 0.70813,-0.0974 16.00928,-19.74615 27.85877,-41.84338 33.11719,-66.63946 7.60816,-35.87598 -0.45129,-69.18769 -20.3407,-100.54499 -7.6261,-10.20923 -14.53564,-21.06176 -23.01391,-30.50604 C 643.89117,86.402145 612.43121,69.79509 578.31097,57.765518 545.60504,46.234543 511.64374,40.271072 477.30841,36.791275 454.54388,34.484177 431.61664,33.11412 408.7403,32.767166 c -23.24231,-0.352539 -46.53193,0.659302 -69.76276,1.82959 -20.50714,1.033112 -40.96729,3.042511 -61.43836,4.738495 -28.12652,2.33017 -55.94805,6.714538 -83.20648,14.023468 -24.81433,6.653564 -48.53344,16.106964 -70.69598,30.698944 -3.43347,2.534912 -6.86701,5.069824 -10.94055,7.876465 -3.65406,3.113586 -7.30811,6.227234 -11.57367,9.617432 -3.809511,3.90796 -7.61902,7.81592 -11.992311,12.07642 -3.10553,3.92163 -6.21106,7.84326 -9.893128,12.10168 -2.335144,3.3537 -4.670288,6.7074 -7.447021,10.57703 -3.458985,6.42004 -6.665222,12.99591 -10.48584,19.19299 -1.850708,3.00177 -5.928467,4.90887 -7.037903,8.01233 -1.148376,3.2121 0.602905,7.3371 0.162293,10.95007 -1.158997,9.50373 -2.702332,18.96729 -4.387085,28.39417 -0.309388,1.7315 -1.686158,3.63434 -3.125611,4.72571 -2.923767,2.21661 -3.048523,4.49414 -0.318725,6.7409 1.364196,1.1228 2.66333,3.03406 2.864929,4.72333 0.549682,4.604 0.51178,9.2793 0.685058,13.92706 0.91626,24.5755 7.951844,47.19995 21.77472,68.38678 2.280456,3.10211 4.560974,6.20429 7.056518,9.91223 0.931397,1.12915 1.862793,2.2583 2.983643,3.99854 0.796448,0.97943 1.592956,1.95892 2.630127,3.276 z"
   id="path2" />
<path
   fill="#bb947c"
   opacity="1"
   stroke="none"
   d="m 420.44415,13.603683 c -1.4917,0.346039 -3.45068,0.913666 -5.4049,0.897767 -15.42615,-0.125275 -30.85138,-0.361908 -46.65961,-0.704956 16.9447,-0.174317 34.27203,-0.207947 52.06451,-0.192811 z"
   id="path3" />
<path
   fill="#ab8471"
   opacity="1"
   stroke="none"
   d="m 374.42719,427.41814 c 5.14282,-0.3595 10.74975,-0.8938 16.35791,-0.90735 7.78381,-0.0188 15.5686,0.35339 23.73498,0.70361 -12.95483,0.18414 -26.29156,0.22272 -40.09289,0.20374 z"
   id="path4" />
<path
   fill="#f0cfb5"
   opacity="1"
   stroke="none"
   d="m 149.47199,367.25304 c -15.55347,-6.55768 -29.49115,-15.72486 -42.59815,-26.26056 -1.76923,-1.42212 -3.84656,-2.46161 -5.78418,-3.67346 -0.83581,-0.52277 -1.891112,-0.85804 -2.485655,-1.57709 -4.395691,-5.31561 -8.700196,-10.70661 -12.993592,-16.55249 0.180725,-0.60309 0.321595,-0.7276 0.760987,-0.7063 3.026672,3.5993 5.75476,7.05286 8.48291,10.50635 0.640137,-0.42023 1.280334,-0.84046 1.920471,-1.26074 4.008669,-10.10828 11.291499,-16.84198 21.675719,-18.80347 7.42865,-1.40326 13.60993,-3.0838 15.45642,-11.4292 0.0967,-0.4372 0.58643,-0.79266 0.90766,-1.17401 7.47076,-8.86762 17.24371,-11.9007 28.86724,-11.18427 5.68,1.7027 10.96924,3.35791 16.38758,5.33991 3.3695,3.40503 7.15997,6.0899 9.71368,9.65948 3.33264,4.65827 4.69934,11.10279 8.73639,14.77094 4.06891,3.69708 10.48608,4.70636 15.6712,7.29956 11.42963,5.71643 14.91455,20.60492 11.38056,30.10901 -1.27197,3.4209 -3.2265,6.63623 -4.12628,10.13653 -1.60407,6.23969 -1.35144,6.20288 -7.86505,5.12702 -22.13398,-3.65564 -44.2721,-7.28839 -66.42902,-10.80158 -4.44672,-0.70514 -8.98279,-0.84656 -13.47772,-1.24792 -0.11328,0.44647 -0.22657,0.89288 -0.33985,1.33935 5.56714,3.16138 11.13422,6.32276 16.55976,9.70819 -0.23474,0.37427 -0.32788,0.52448 -0.42108,0.67475 m -10.08948,-49.97815 c -10.95911,-3.64545 -21.02564,-2.18512 -29.71631,5.65729 -6.37915,5.75646 -6.02753,12.77026 0.57672,18.03613 1.56183,1.24524 3.22266,2.37427 4.72021,3.69067 3.65308,3.21118 7.35376,5.6275 12.33631,2.46381 0.87262,-0.55402 2.28558,-0.47913 3.41717,-0.36859 11.24555,1.09814 22.54493,1.8565 33.71039,3.51147 15.28205,2.26514 30.45478,5.26251 45.69379,7.83099 1.4602,0.24616 4.19824,0.0616 4.4093,-0.56958 1.607,-4.80682 4.00726,-9.84796 3.72919,-14.67602 -0.49799,-8.64667 -8.63538,-16.32044 -17.12342,-17.74146 -0.98547,-0.16497 -2.59393,0.94019 -3.25329,1.90686 -0.79791,1.16968 -0.52588,3.0987 -1.36756,4.20307 -1.79101,2.34979 -4.00268,4.3789 -6.04187,6.53949 -0.64935,-2.87305 -2.20275,-5.87995 -1.80053,-8.59729 2.52209,-17.03876 -5.74164,-30.21106 -22.39057,-34.92566 -11.76263,-3.33093 -24.08819,2.32568 -27.53674,12.81305 2.39301,1.32159 5.03888,2.38873 7.19782,4.07818 2.51873,1.97113 2.7727,7.19739 0.62048,9.02503 -3.33618,2.83301 -4.98798,0.0457 -7.18109,-2.87744 z"
   id="path5" />
<path
   fill="#f0cfb5"
   opacity="1"
   stroke="none"
   d="m 124.25568,83.787155 c 21.54358,-14.321472 45.26269,-23.774872 70.07702,-30.428436 27.25843,-7.30893 55.07996,-11.693298 83.20648,-14.023468 20.47107,-1.695984 40.93122,-3.705383 61.43836,-4.738495 23.23083,-1.170288 46.52045,-2.182129 69.76276,-1.82959 22.87634,0.346954 45.80358,1.717011 68.56811,4.024109 34.33533,3.479797 68.29663,9.443268 101.00256,20.974243 34.12024,12.029572 65.5802,28.636627 90.10218,55.952362 8.47827,9.44428 15.38781,20.29681 22.8977,31.04913 -0.26294,0.67957 -0.40967,0.81604 -0.94653,1.02851 -1.53479,0.28186 -2.67456,0.63238 -3.82507,0.6726 -25.5979,0.89576 -51.19495,1.83686 -76.79944,2.47785 -2.08985,0.0523 -4.95349,-1.4444 -6.22827,-3.14356 -6.43091,-8.57189 -4.38123,-22.45556 4.44323,-28.36834 5.38404,-3.60742 9.61402,-7.34839 11.63965,-13.90137 2.27136,-7.347779 7.66223,-12.558411 16.63574,-15.697876 -8.60974,-4.923401 -15.62158,-9.346558 -22.98608,-13.072266 -30.85913,-15.611755 -63.60718,-25.536499 -97.73584,-30.468536 -24.4939,-3.539673 -49.1156,-6.802643 -73.79456,-8.2836 -24.37963,-1.463013 -48.91088,-0.970856 -73.36047,-0.518616 -21.09985,0.39032 -42.24243,1.228302 -63.24994,3.14328 -24.98022,2.27713 -49.89355,5.517212 -74.73089,9.072846 -26.97767,3.862091 -53.08167,11.216003 -77.85175,22.74823 -9.33478,4.345947 -18.31989,9.443237 -27.66406,13.980773 -0.33338,-0.361389 -0.4671,-0.505554 -0.60089,-0.64978 m 546.09777,34.818905 c -6.4353,-6.25073 -12.96301,-12.40991 -19.27185,-18.785885 -3.92712,-3.969055 -7.73742,-5.415771 -13.51416,-3.291443 -5.66845,2.084534 -8.53698,5.647828 -9.99328,9.746458 2.9862,3.20618 5.6355,5.53253 7.53198,8.36328 0.67883,1.01319 0.026,3.67475 -0.9408,4.77131 -0.65564,0.74371 -2.92114,0.1206 -4.46093,0.0208 -2.66736,-0.17298 -5.63477,-1.25745 -7.92444,-0.43097 -3.49939,1.2633 -6.67468,3.63006 -9.72473,5.88379 -4.29395,3.17297 -4.50855,8.09796 -2.62622,12.1372 0.84033,1.80323 5.31359,2.70008 8.125,2.67249 20.93957,-0.20557 41.87609,-0.73615 62.81262,-1.20886 1.19128,-0.0269 2.37402,-0.44074 4.74585,-0.9079 -5.17883,-6.69128 -9.72888,-12.57007 -14.75904,-18.97022 z"
   id="path6" />
<path
   fill="#f0cfb5"
   opacity="1"
   stroke="none"
   d="m 678.00006,311.53722 c -2.58411,9.39154 -11.44507,13.44238 -17.19018,20.14404 -1.06006,1.23663 -2.49646,2.1507 -4.19825,3.19928 -0.557,-0.16968 -0.67492,-0.32495 -0.64477,-0.77692 3.67883,-4.02313 7.20971,-7.74963 10.74048,-11.47607 -2.37549,-1.10486 -4.01514,-1.13257 -5.65357,-1.10059 -17.24109,0.33667 -34.48157,0.90668 -51.72302,0.93866 -9.61194,0.0178 -17.61536,-8.73047 -11.21668,-18.50653 3.05982,-4.67456 6.3949,-9.169 9.84058,-13.97973 2.33362,-1.4607 4.43213,-2.68665 6.94348,-3.87751 4.54541,-0.25036 8.68689,-0.84472 12.80725,-0.7232 3.25428,0.0959 5.15039,-0.62439 6.57288,-3.84021 1.08899,-2.46179 3.11841,-4.87757 5.3512,-6.40509 18.16626,-12.42859 38.55175,-15.83167 59.96106,-13.31507 4.47204,0.52564 5.52929,-1.01165 6.69421,-4.21527 5.84643,-16.07599 7.2345,-32.76922 6.05151,-49.61871 -1.04675,-14.90863 -5.54272,-29.05011 -11.9519,-42.54523 -3.13818,-6.60724 -6.41553,-13.14844 -9.62988,-19.71948 0.14672,-0.13654 0.29345,-0.27301 0.66223,-0.61285 19.89978,30.47448 27.95923,63.78619 20.35107,99.66217 -5.25842,24.79608 -17.10791,46.89331 -33.48401,66.3493 0.39405,-1.74799 1.08179,-3.24957 1.92713,-4.65655 5.90686,-9.83307 11.95288,-19.58448 17.7279,-29.49396 2.66065,-4.56562 1.3888,-7.07147 -3.72192,-7.34632 -16.43909,-0.88433 -32.19031,1.80451 -46.69751,9.98664 -1.83557,1.03521 -3.41956,2.63049 -4.87634,4.19348 -1.67542,1.79742 -1.61939,3.41595 0.87524,4.74701 2.33166,1.24414 4.86523,2.52484 6.52978,4.46039 1.13367,1.31817 0.92371,3.79174 1.31446,5.74871 -1.92627,0.29566 -3.89075,0.95832 -5.76612,0.76355 -1.34875,-0.14001 -2.53515,-1.51031 -3.86853,-2.18402 -10.87793,-5.49585 -27.39929,-7.28363 -34.01232,6.65143 -1.22962,2.59107 -2.021,5.3902 -3.01453,8.09332 2.94372,0.73786 5.88989,2.11847 8.83093,2.1081 17.64392,-0.0623 35.28943,-0.34253 52.92786,-0.79895 3.86023,-0.0999 7.69421,-1.20929 11.54028,-1.85382 z"
   id="path7" />
<path
   fill="#f0cfb5"
   opacity="1"
   stroke="none"
   d="M 71.721375,300.70036 C 58.099,280.1732 51.063416,257.54875 50.147156,232.97325 c -0.173278,-4.64776 -0.135376,-9.32306 -0.685058,-13.92706 -0.201599,-1.68927 -1.500733,-3.60053 -2.864929,-4.72333 -2.729798,-2.24676 -2.605042,-4.52429 0.318725,-6.7409 1.439453,-1.09137 2.816223,-2.99421 3.125611,-4.72571 1.684753,-9.42688 3.228088,-18.89044 4.387085,-28.39417 0.440612,-3.61297 -1.310669,-7.73797 -0.162293,-10.95007 1.109436,-3.10346 5.187195,-5.01056 7.037903,-8.01233 3.820618,-6.19708 7.026855,-12.77295 10.924072,-19.24158 0.58374,0.0903 0.729309,0.22925 0.770569,0.70423 -3.118957,6.08307 -6.137329,11.82818 -9.146606,17.57806 -1.690308,3.22961 -0.997559,4.76721 2.775329,6.10516 5.382508,1.90863 10.673157,4.48584 15.406311,7.66578 2.938477,1.97412 5.320191,2.96966 8.976013,2.84198 16.840572,-0.58838 32.370482,6.90557 29.912602,28.5357 -0.68244,6.00525 -5.53101,12.37799 -10.13892,12.73786 -5.63458,0.44006 -11.277527,0.83001 -16.924316,1.04608 -12.142151,0.46466 -24.287049,0.93237 -36.43512,1.12335 -4.113708,0.0648 -5.797363,1.59985 -5.471436,5.66028 0.398621,4.96563 0.888245,9.94226 0.915284,14.91644 0.11737,21.57599 6.782104,41.20898 17.261474,59.78351 0.937073,1.66101 1.216675,3.69287 1.749207,5.60028 -0.05243,0.0479 -0.157288,0.14355 -0.157288,0.14355 M 63.421937,169.33012 c -0.662354,0.95441 -1.163574,2.54706 -2.012818,2.76154 -6.39624,1.61554 -6.076294,7.22369 -6.882385,11.80554 -0.975281,5.54358 -1.0625,11.23963 -1.626343,16.86048 -0.429504,4.28228 1.287659,6.09375 5.683106,5.85772 15.440735,-0.8291 30.89917,-1.34924 46.332093,-2.29406 6.92316,-0.42383 8.12958,-2.17054 8.03857,-9.2096 -0.10486,-8.11041 -4.30053,-13.13873 -12.57696,-15.07294 -6.206301,-1.45037 -7.480776,-0.1936 -6.101565,5.9928 0.216065,0.969 0.775696,2.13867 0.444092,2.89411 -0.670837,1.52819 -1.577575,3.46478 -2.898987,4.02478 -0.963073,0.40802 -3.154113,-0.77881 -4.06427,-1.86768 -1.234619,-1.47723 -1.682067,-3.58612 -2.61737,-5.34418 -4.597595,-8.6416 -10.218811,-16.03161 -21.717163,-16.40851 z"
   id="path8" />
<path
   fill="#f0cfb5"
   opacity="1"
   stroke="none"
   d="m 635.74286,351.23637 c -11.75818,6.48133 -23.1344,13.81647 -35.34729,19.28205 -34.98218,15.65533 -71.95154,24.19348 -109.98779,27.93567 -21.94239,2.15881 -43.95655,3.77691 -65.97596,4.90448 -18.27783,0.93591 -36.62841,1.4624 -54.91424,0.96826 -22.57611,-0.60999 -45.1673,-1.92017 -67.66199,-3.93256 -22.59265,-2.02118 -45.16266,-4.70392 -67.58362,-8.13495 -29.10986,-4.45465 -57.56482,-11.62732 -84.51947,-24.82293 -0.18731,-0.33362 -0.0942,-0.48383 0.50403,-0.79316 7.92511,2.77448 15.26148,5.94495 22.78027,8.59882 25.84809,9.12329 52.49854,14.94592 79.71625,17.77551 31.09131,3.23224 62.20551,6.7334 93.40125,8.32459 27.38818,1.39715 54.90326,0.4115 82.36151,0.30334 26.68774,-0.1051 53.12378,-3.21826 79.47314,-7.16754 25.57483,-3.83319 50.57459,-9.93048 74.92408,-18.72796 18.24084,-6.59046 35.38684,-15.32862 52.10803,-25.22413 0.40051,0.39515 0.56115,0.55286 0.7218,0.71051 z"
   id="path9" />
<path
   fill="#f0cfb5"
   opacity="1"
   stroke="none"
   d="m 651.19183,339.77812 c -4.95227,3.72022 -9.90442,7.44049 -15.15283,11.30951 -0.45679,-0.009 -0.61743,-0.16662 -0.7865,-0.79791 5.08533,-4.0625 10.17932,-7.65143 15.43982,-11.05817 0.16651,0.18219 0.49951,0.54657 0.49951,0.54657 z"
   id="path10" />
<path
   fill="#f0cfb5"
   opacity="1"
   stroke="none"
   d="m 89.693909,113.27544 c 3.809571,-3.90796 7.61908,-7.81592 11.778441,-11.81482 0.34985,-0.0909 0.43799,0.004 0.39209,0.34594 -4.015074,4.1167 -7.98419,7.8913 -12.007567,11.61664 -0.05432,-0.0493 -0.162903,-0.14776 -0.162964,-0.14776 z"
   id="path11" />
<path
   fill="#f0cfb5"
   opacity="1"
   stroke="none"
   d="m 79.813599,125.39293 c 3.10553,-3.92169 6.21106,-7.84332 9.59845,-11.94122 0.281921,-0.17627 0.390503,-0.0778 0.436035,0.3291 -3.283386,4.16778 -6.612304,7.92877 -9.964538,11.67035 -0.02332,-0.0194 -0.06995,-0.0582 -0.06995,-0.0582 z"
   id="path12" />
<path
   fill="#f0cfb5"
   opacity="1"
   stroke="none"
   d="m 101.77814,101.32231 c 3.60992,-3.160948 7.26397,-6.274596 11.41656,-9.278319 0.61811,0.273132 0.73773,0.436463 0.65143,0.85791 -4.11591,3.026184 -8.02582,5.794373 -11.93579,8.562499 0,0 -0.0881,-0.0947 -0.1322,-0.14209 z"
   id="path13" />
<path
   fill="#f0cfb5"
   opacity="1"
   stroke="none"
   d="m 113.51471,91.908066 c 3.255,-2.780579 6.68854,-5.315491 10.43152,-7.985657 0.44324,0.009 0.57696,0.153137 0.71155,0.779297 -3.53461,2.968689 -7.07019,5.455383 -10.60578,7.942139 -0.11957,-0.163391 -0.23919,-0.326722 -0.53729,-0.735779 z"
   id="path14" />
<path
   fill="#f0cfb5"
   opacity="1"
   stroke="none"
   d="m 78.763306,310.66643 c -2.280456,-3.10211 -4.560974,-6.20429 -6.941711,-9.63623 -0.10022,-0.32984 0.0046,-0.42554 0.401367,-0.43616 2.491516,3.30542 4.586243,6.62158 6.645874,9.97144 -0.03509,0.0337 -0.10553,0.10095 -0.10553,0.10095 z"
   id="path15" />
<path
   fill="#f0cfb5"
   opacity="1"
   stroke="none"
   d="m 72.449036,136.00011 c 2.117737,-3.56305 4.452881,-6.91675 7.076294,-10.43878 0.288269,-0.1684 0.3349,-0.12958 0.385865,0.25537 -2.235291,3.85992 -4.521607,7.33484 -6.807984,10.80969 -0.14563,-0.13904 -0.291199,-0.27802 -0.654175,-0.62628 z"
   id="path16" />
<path
   fill="#f0cfb5"
   opacity="1"
   stroke="none"
   d="m 655.76996,336.10088 c -1.32984,1.12964 -2.65967,2.25933 -4.28381,3.53308 -0.29432,0.14416 -0.62732,-0.22022 -0.61499,-0.65052 1.33337,-1.48901 2.65417,-2.54766 4.20507,-3.42431 0.38465,0.30188 0.53919,0.42175 0.69373,0.54175 z"
   id="path17" />
<path
   fill="#f0cfb5"
   opacity="1"
   stroke="none"
   d="m 81.772584,314.65965 c -0.931397,-1.12909 -1.862793,-2.25824 -2.901734,-3.6903 -0.107544,-0.30292 -0.03711,-0.37018 0.339783,-0.35718 1.149536,1.31585 1.922241,2.61877 2.661743,3.95318 -0.0332,0.0315 -0.09979,0.0943 -0.09979,0.0943 z"
   id="path18" />
<path
   fill="#f0cfb5"
   opacity="1"
   stroke="none"
   d="m 84.351441,318.20915 c -0.796448,-0.97943 -1.592956,-1.95892 -2.484131,-3.24389 -0.09473,-0.30561 -0.02814,-0.36841 0.335327,-0.38489 1.212281,0.91839 2.061097,1.85327 2.718811,2.99756 -0.317504,0.35003 -0.443786,0.49066 -0.570007,0.63122 z"
   id="path19" />
<path
   fill="#f0cfb5"
   opacity="1"
   stroke="none"
   d="m 656.34711,335.10051 c 0.0643,0.45447 -0.0857,0.64288 -0.42627,0.89996 -0.30542,-0.0196 -0.45996,-0.13946 -0.70838,-0.62841 0.10852,-0.60608 0.34192,-0.80701 0.60645,-0.97175 0.1178,0.15528 0.23572,0.31055 0.5282,0.7002 z"
   id="path20" />
<path
   fill="#f0cfb5"
   opacity="1"
   stroke="none"
   d="m 85.437318,318.89568 c -0.452271,0.0408 -0.663025,-0.13709 -0.965516,-0.5177 0.0059,-0.30939 0.132142,-0.45002 0.633118,-0.66321 0.60791,0.12878 0.805725,0.36053 0.967957,0.62262 -0.140869,0.12445 -0.281739,0.24896 -0.635559,0.55829 z"
   id="path21" />
<path
   fill="#c9a185"
   opacity="1"
   stroke="none"
   d="m 86.3714,318.48314 c -0.460755,-0.40784 -0.65857,-0.63959 -1.075379,-0.97778 -1.032287,-1.07172 -1.881103,-2.0066 -3.060241,-2.95649 -1.102906,-1.31793 -1.875611,-2.62085 -2.990052,-3.97045 -2.436523,-3.3628 -4.53125,-6.67896 -6.970276,-10.03223 -0.929321,-1.89679 -1.208923,-3.92865 -2.145996,-5.58966 -10.47937,-18.57453 -17.144104,-38.20752 -17.261474,-59.78351 -0.02704,-4.97418 -0.516663,-9.95081 -0.915284,-14.91644 -0.325927,-4.06043 1.357728,-5.59552 5.471436,-5.66028 12.148071,-0.19098 24.292969,-0.65869 36.43512,-1.12335 5.646789,-0.21607 11.289736,-0.60602 16.924316,-1.04608 4.60791,-0.35987 9.45648,-6.73261 10.13892,-12.73786 2.45788,-21.63013 -13.07203,-29.12408 -29.912602,-28.5357 -3.655822,0.12768 -6.037536,-0.86786 -8.976013,-2.84198 -4.733154,-3.17994 -10.023803,-5.75715 -15.406311,-7.66578 -3.772888,-1.33795 -4.465637,-2.87555 -2.775329,-6.10516 3.009277,-5.74988 6.027649,-11.49499 9.146606,-17.57806 2.390747,-3.81079 4.677063,-7.28571 6.935669,-11.12622 3.30127,-4.12653 6.630188,-7.88752 9.967834,-12.00611 3.977906,-4.13214 7.947022,-7.90674 11.962096,-12.02344 3.95587,-3.110286 7.86578,-5.878475 11.98169,-8.904659 3.74146,-2.744812 7.27704,-5.231506 11.01135,-7.982971 9.34326,-5.019531 18.32837,-10.116821 27.66315,-14.462768 24.77008,-11.532227 50.87408,-18.886139 77.85175,-22.74823 24.83734,-3.555634 49.75067,-6.795716 74.73089,-9.072846 21.00751,-1.914978 42.15009,-2.75296 63.24994,-3.14328 24.44959,-0.45224 48.98084,-0.944397 73.36047,0.518616 24.67896,1.480957 49.30066,4.743927 73.79456,8.2836 34.12866,4.932037 66.87671,14.856781 97.73584,30.468536 7.3645,3.725708 14.37634,8.148865 22.98608,13.072266 -8.97351,3.139465 -14.36438,8.350097 -16.63574,15.697876 -2.02563,6.55298 -6.25561,10.29395 -11.63965,13.90137 -8.82446,5.91278 -10.87414,19.79645 -4.44323,28.36834 1.27478,1.69916 4.13842,3.19587 6.22827,3.14356 25.60449,-0.64099 51.20154,-1.58209 76.79944,-2.47785 1.15051,-0.0402 2.29028,-0.39074 3.82507,-0.6726 3.60449,6.49511 6.88184,13.03631 10.02002,19.64355 6.40918,13.49512 10.90515,27.6366 11.9519,42.54523 1.18299,16.84949 -0.20508,33.54272 -6.05151,49.61871 -1.16492,3.20362 -2.22217,4.74091 -6.69421,4.21527 -21.40931,-2.5166 -41.7948,0.88648 -59.96106,13.31507 -2.23279,1.52752 -4.26221,3.9433 -5.3512,6.40509 -1.42249,3.21582 -3.3186,3.93615 -6.57288,3.84021 -4.12036,-0.12152 -8.26184,0.47284 -12.80713,0.35077 -0.0336,-1.50812 0.26868,-2.64258 0.73743,-3.70362 2.66956,-6.04193 3.8728,-11.94244 -0.1095,-18.07568 -0.90527,-1.39429 -0.56225,-3.87732 -0.20983,-5.74927 0.64404,-3.42016 -0.41236,-5.87018 -3.78382,-6.38482 -6.81836,-1.04059 -13.69165,-1.97278 -20.56946,-2.23377 -2.36657,-0.0898 -5.37597,1.38507 -7.12597,3.11945 -7.12085,7.05749 -11.16773,15.7268 -11.20569,25.86871 -0.0281,7.49298 2.63611,10.80804 9.96826,12.05609 8.34277,1.41998 16.79456,2.44159 25.11963,-0.41247 -3.21033,4.57605 -6.54541,9.07049 -9.60523,13.74505 -6.39868,9.77606 1.60474,18.52435 11.21668,18.50653 17.24145,-0.032 34.48193,-0.60199 51.72302,-0.93866 1.63843,-0.032 3.27808,-0.004 5.65357,1.10059 -3.53077,3.72644 -7.06165,7.45294 -10.74048,11.47607 -0.41248,0.46143 -0.64588,0.66236 -0.98438,1.08643 -1.45715,1.24573 -2.77795,2.30438 -4.27783,3.61114 -5.27283,3.8371 -10.36682,7.42603 -15.69214,11.2511 -16.71264,10.36908 -33.85864,19.10724 -52.09948,25.6977 -24.34949,8.79748 -49.34925,14.89477 -74.92408,18.72796 -26.34936,3.94928 -52.7854,7.06244 -79.47314,7.16754 -27.45825,0.10816 -54.97333,1.09381 -82.36151,-0.30334 -31.19574,-1.59119 -62.30994,-5.09235 -93.40125,-8.32459 -27.21771,-2.82959 -53.86816,-8.65222 -79.71625,-17.77551 -7.51879,-2.65387 -14.85516,-5.82434 -22.63867,-8.82294 -5.9306,-3.22625 -11.49768,-6.38763 -17.06482,-9.54901 0.11328,-0.44647 0.22657,-0.89288 0.33985,-1.33935 4.49493,0.40136 9.031,0.54278 13.47772,1.24792 22.15692,3.51319 44.29504,7.14594 66.42902,10.80158 6.51361,1.07586 6.26098,1.11267 7.86505,-5.12702 0.89978,-3.5003 2.85431,-6.71563 4.12628,-10.13653 3.53399,-9.50409 0.0491,-24.39258 -11.38056,-30.10901 -5.18512,-2.5932 -11.60229,-3.60248 -15.6712,-7.29956 -4.03705,-3.66815 -5.40375,-10.11267 -8.73639,-14.77094 -2.55371,-3.56958 -6.34418,-6.25445 -9.39099,-9.89123 2.16956,-0.56635 4.17157,-0.78778 6.11749,-0.54993 27.90735,3.41138 52.39209,-4.36011 73.65332,-22.54834 7.95966,-6.80926 13.88477,-15.23981 18.25159,-24.69751 1.69275,-3.66608 1.80518,-8.11566 -1.62817,-10.54968 -2.05042,-1.45368 -5.86603,-1.32782 -8.62049,-0.71289 -9.5429,2.13049 -15.65063,9.73712 -23.104,15.2323 -10.01941,7.38702 -19.93659,14.98742 -30.48212,21.55816 -6.36011,3.96277 -14.03448,5.50293 -21.67645,3.79432 -13.30005,-2.97364 -22.71704,-14.65748 -22.18213,-28.28498 0.26404,-6.72888 1.50897,-13.59741 3.47406,-20.04815 6.11957,-20.08808 15.69269,-38.57404 28.4314,-55.24292 7.78039,-10.18079 16.20202,-19.98896 28.29596,-25.47809 7.97064,-3.61762 12.63165,-0.71265 14.04516,7.83404 0.39368,2.38062 2.36072,5.97284 4.17584,6.36383 4.95173,1.06678 10.35615,1.599 15.31373,0.76105 12.01007,-2.03015 17.02496,-14.70056 9.29565,-23.1853 -3.03448,-3.33106 -7.07574,-6.55939 -11.26727,-7.83637 -6.73694,-2.05255 -13.95911,-2.60577 -21.0127,-3.5072 -16.34668,-2.08917 -31.14691,2.1673 -44.14001,12.04437 -13.12177,9.9748 -23.6145,22.41956 -32.27454,36.4455 -12.68103,20.53827 -23.29254,41.8847 -27.19696,66.05243 -2.94342,18.21887 4.18756,33.80914 19.99426,43.23041 1.94812,1.16113 3.63001,2.76867 5.43531,4.16931 -11.23273,-0.66895 -21.00568,2.36413 -28.47644,11.23175 -0.32123,0.38135 -0.81098,0.73681 -0.90766,1.17401 -1.84649,8.3454 -8.02777,10.02594 -15.45642,11.4292 -10.38422,1.96149 -17.66705,8.69519 -21.675719,18.80347 -0.640137,0.42028 -1.280334,0.84051 -1.920471,1.26074 -2.72815,-3.45349 -5.456238,-6.90705 -8.48291,-10.50635 M 565.87347,174.56432 c 0,0 0.002,0.0794 -0.23413,-0.58094 -1.67505,-3.29358 -4.33874,-3.80334 -8.43884,-2.53772 -1.44983,-0.0339 -2.89954,-0.0679 -4.98743,-0.4469 -3.55627,-0.74774 -7.08227,-1.83703 -10.67663,-2.15564 -4.36731,-0.38702 -5.26245,-2.13525 -3.96314,-6.16271 3.46204,-10.73279 6.7146,-21.53461 9.90869,-32.35083 0.53846,-1.82319 0.37012,-3.85499 0.4972,-6.49079 0.104,-0.45379 0.20801,-0.90765 0.58618,-1.58307 -0.0778,-0.57739 -0.15552,-1.15472 -0.43933,-2.40259 -0.0382,-0.46484 -0.0764,-0.92968 -0.02,-1.93518 -2.47461,-1.46209 -4.79004,-3.50494 -7.46448,-4.23822 -3.27808,-0.89862 -6.99744,-0.18347 -10.27856,-1.07586 -9.51355,-2.58747 -14.84937,0.006 -18.30115,10.00982 -0.13269,0.30646 -0.26538,0.61292 -0.85278,1.33789 -0.38685,0.73114 -0.77381,1.46222 -1.04798,2.65754 -0.004,0.32849 -0.0976,0.62921 -0.81787,1.37201 -0.13867,4.50372 -0.27734,9.00744 -0.40747,14.20513 -0.11951,0.44477 -0.23901,0.88953 -0.6665,1.55286 -0.15918,0.55975 -0.31849,1.11951 -0.45423,2.32465 -0.26245,0.80902 -0.52478,1.6181 -1.24536,2.70349 -0.2052,0.91345 -0.4104,1.8269 -0.6427,3.43646 -0.13794,0.44171 -0.27588,0.88348 -0.90967,1.6955 -0.72802,2.51452 -1.45593,5.02905 -2.1997,8.19226 -0.29383,0.80352 -0.58765,1.60705 -1.44825,2.7937 -1.2843,2.83258 -2.93908,5.56219 -3.76208,8.52295 -1.10974,3.99218 -3.14624,6.79309 -7.00354,8.4273 -3.8197,1.61817 -7.50305,3.5553 -11.27783,5.28327 -3.21472,1.47162 -5.63379,1.15222 -8.2179,-1.95691 -1.81665,-2.18597 -5.12671,-3.87451 -7.98596,-4.28662 -5.02527,-0.72418 -10.21741,-0.40906 -15.33655,-0.32758 -5.05249,0.0803 -9.03711,1.97992 -10.66614,7.13111 0,0 0.0834,0.0241 -0.89343,-0.054 -7.28625,-0.37048 -14.5697,-0.96728 -21.85937,-1.05481 -9.33582,-0.112 -20.87726,7.39282 -23.68042,15.2865 -0.19471,0.28027 -0.44587,0.49414 -1.39533,0.87091 -2.07745,2.78076 -4.15497,5.56146 -6.21795,8.58051 0,0 -0.13892,0.19427 -0.73163,0.50702 -1.4292,2.38604 -2.8584,4.77203 -4.30005,7.44885 0,0 -0.15497,0.24646 -0.66181,0.65869 -0.43615,0.75073 -0.87231,1.50146 -1.09271,2.37884 0,0 0.009,0.25007 -0.8576,0.22535 -1.14124,-0.0117 -2.28254,-0.0233 -3.32593,-0.82477 0.44586,-4.21387 0.89172,-8.4278 1.3042,-13.27106 0.0444,-0.62823 0.0889,-1.25641 0.49994,-2.41089 -0.1225,-1.18512 -0.24494,-2.37018 -0.43683,-4.1878 0.006,-0.63562 0.0111,-1.2713 0.15155,-2.72101 -1.495,-2.79926 -2.30597,-6.76459 -4.63989,-8.13361 -3.81934,-2.24035 -8.56366,-3.46264 -13.03687,-3.90204 -7.19867,-0.70721 -14.49426,-0.42724 -21.71802,-1.19488 0.0586,-0.41657 0.11725,-0.83319 0.6391,-1.7204 0.56677,-1.18487 1.41541,-2.31518 1.65711,-3.56305 2.79528,-14.43329 5.55279,-28.87439 8.19903,-43.33563 1.01599,-5.55219 -0.20263,-10.48193 -4.03253,-14.38336 15.10571,-0.818 30.20575,-2.16931 45.31854,-2.33161 23.92047,-0.25683 47.84955,0.33075 71.77545,0.37751 1.60755,0.003 4.19288,-1.164 4.66846,-2.41571 3.01929,-7.94562 5.17969,-16.08258 4.48499,-24.797917 -1.10645,-13.882629 -10.48047,-21.992371 -24.20679,-19.902222 -4.25317,0.647644 -6.21509,-0.552368 -8.38708,-3.968445 -6.45289,-10.148986 -15.22962,-18.335357 -27.02222,-20.868499 -23.43286,-5.0336 -44.11456,1.186004 -61.39722,18.142547 -1.91626,1.880066 -4.40857,3.49762 -6.93323,4.376892 -11.15857,3.886353 -21.31353,9.511963 -30.03808,17.417908 -12.06122,10.929321 -9.45191,27.448976 4.84949,34.833926 -3.48908,3.94592 -4.69922,8.58508 -4.82129,13.80231 -0.1084,4.63146 -0.74964,9.27423 -1.47205,13.86224 -1.23798,7.86157 -2.72278,15.6842 -4.12305,24.04236 -0.0667,0.33947 -0.13336,0.67895 -0.64319,1.63757 -4.75201,18.64996 -9.51428,37.29742 -14.21838,55.95941 -0.18628,0.73908 0.18048,1.61756 0.23743,3.07092 -0.0684,0.42231 -0.13678,0.84467 -0.67603,1.74885 -2.04339,12.04852 -4.43951,24.05303 -5.94989,36.16796 -0.573,4.59662 3.62384,7.86249 8.90851,8.24439 4.30493,0.31109 8.64142,0.31909 12.9613,0.2619 8.60993,-0.11389 13.12293,-4.01971 15.51752,-12.20862 2.13971,-7.31738 4.9046,-14.4519 7.39356,-21.66711 0.56799,0.18622 1.13592,0.3725 1.70391,0.55871 -0.42913,1.69373 -0.94635,3.37067 -1.27233,5.08405 -1.51752,7.97467 -3.67933,15.90649 -4.29023,23.95386 -0.77368,10.1914 3.93409,14.50628 14.1117,15.16497 8.05102,0.52106 15.87732,-0.16729 23.32129,-2.3739 -1.54444,4.89905 -2.99573,9.83069 -4.69495,14.67548 -0.45715,1.30359 -1.41998,2.77588 -2.57172,3.43524 -9.21197,5.27393 -12.53472,13.89514 -13.53558,23.72034 -1.17334,11.51874 6.58869,20.63183 18.01782,21.41882 2.81873,0.19403 5.65985,0.0994 8.4903,0.0817 34.14062,-0.21405 68.28113,-0.50605 102.422,-0.57117 4.07446,-0.008 8.51257,0.40326 12.14306,2.03888 5.61756,2.53082 7.25818,2.74426 10.34204,-2.92139 5.99854,-11.02032 9.18372,-22.53302 4.26966,-34.90722 -1.40515,-3.53858 -3.22364,-6.91303 -4.06751,-10.26752 5.7594,3.39752 11.54138,3.24377 16.73877,-0.81427 4.82337,-3.76624 9.86597,-7.58869 13.61133,-12.33411 10.19421,-12.91656 19.8811,-26.2428 29.47339,-39.61877 2.37231,-3.30829 4.11792,-7.28809 5.18469,-11.22144 0.57837,-2.13263 -0.88086,-4.81787 -1.82703,-7.50311 -0.2528,-0.20654 -0.4342,-0.46344 -0.828,-1.42456 -1.43445,-1.01251 -2.77502,-2.71839 -4.31824,-2.927 -11.37414,-1.5376 -22.02368,-0.8006 -29.02722,10.31537 -1.50378,2.3869 -3.68835,4.34484 -5.5592,6.50042 -0.54004,-0.22259 -1.08008,-0.44519 -1.62012,-0.66778 0.22302,-2.32221 0.11694,-4.73426 0.72278,-6.95191 3.63379,-13.30261 7.45166,-26.55481 11.16089,-39.83703 1.04724,-3.75037 3.37866,-5.94324 7.19897,-6.7273 7.63648,-1.5672 15.37036,-2.82886 22.83008,-5.01538 3.5791,-1.04907 6.62537,-3.91638 10.1438,-6.4024 0.20019,-0.27662 0.45654,-0.48371 1.32336,-1.00361 2.40345,-2.77044 3.63025,-5.42883 -0.64087,-7.55828 z"
   id="path22" />
<path
   fill="#744f4b"
   opacity="1"
   stroke="none"
   d="m 163.68182,285.1378 c -2.1961,-1.44812 -3.87799,-3.05566 -5.82611,-4.21679 -15.8067,-9.42127 -22.93768,-25.01154 -19.99426,-43.23041 3.90442,-24.16773 14.51593,-45.51416 27.19696,-66.05243 8.66004,-14.02594 19.15277,-26.4707 32.27454,-36.4455 12.9931,-9.87707 27.79333,-14.13354 44.14001,-12.04437 7.05359,0.90143 14.27576,1.45465 21.0127,3.5072 4.19153,1.27698 8.23279,4.50531 11.26727,7.83637 7.72931,8.48474 2.71442,21.15515 -9.29565,23.1853 -4.95758,0.83795 -10.362,0.30573 -15.31373,-0.76105 -1.81512,-0.39099 -3.78216,-3.98321 -4.17584,-6.36383 -1.41351,-8.54669 -6.07452,-11.45166 -14.04516,-7.83404 -12.09394,5.48913 -20.51557,15.2973 -28.29596,25.47809 -12.73871,16.66888 -22.31183,35.15484 -28.4314,55.24292 -1.96509,6.45074 -3.21002,13.31927 -3.47406,20.04815 -0.53491,13.6275 8.88208,25.31134 22.18213,28.28498 7.64197,1.70861 15.31634,0.16845 21.67645,-3.79432 10.54553,-6.57074 20.46271,-14.17114 30.48212,-21.55816 7.45337,-5.49518 13.5611,-13.10181 23.104,-15.2323 2.75446,-0.61493 6.57007,-0.74079 8.62049,0.71289 3.43335,2.43402 3.32092,6.8836 1.62817,10.54968 -4.36682,9.4577 -10.29193,17.88825 -18.25159,24.69751 -21.26123,18.18823 -45.74597,25.95972 -73.65332,22.54834 -1.94592,-0.23785 -3.94793,-0.0164 -6.24658,0.22321 -5.61194,-1.42353 -10.90118,-3.07874 -16.58118,-4.78144 z"
   id="path23" />
<path
   fill="#fefefe"
   opacity="1"
   stroke="none"
   d="m 139.63184,317.56639 c 1.94378,2.63165 3.59558,5.41895 6.93176,2.58594 2.15222,-1.82764 1.89825,-7.0539 -0.62048,-9.02503 -2.15894,-1.68945 -4.80481,-2.75659 -7.19782,-4.07818 3.44855,-10.48737 15.77411,-16.14398 27.53674,-12.81305 16.64893,4.7146 24.91266,17.8869 22.39057,34.92566 -0.40222,2.71734 1.15118,5.72424 1.80053,8.59729 2.03919,-2.16059 4.25086,-4.1897 6.04187,-6.53949 0.84168,-1.10437 0.56965,-3.03339 1.36756,-4.20307 0.65936,-0.96667 2.26782,-2.07183 3.25329,-1.90686 8.48804,1.42102 16.62543,9.09479 17.12342,17.74146 0.27807,4.82806 -2.12219,9.8692 -3.72919,14.67602 -0.21106,0.63117 -2.9491,0.81574 -4.4093,0.56958 -15.23901,-2.56848 -30.41174,-5.56585 -45.69379,-7.83099 -11.16546,-1.65497 -22.46484,-2.41333 -33.71039,-3.51147 -1.13159,-0.11054 -2.54455,-0.18543 -3.41717,0.36859 -4.98255,3.16369 -8.68323,0.74737 -12.33631,-2.46381 -1.49755,-1.3164 -3.15838,-2.44543 -4.72021,-3.69067 -6.60425,-5.26587 -6.95587,-12.27967 -0.57672,-18.03613 8.69067,-7.84241 18.7572,-9.30274 29.96564,-5.36579 z"
   id="path24" />
<path
   fill="#fefdfd"
   opacity="1"
   stroke="none"
   d="m 670.59357,118.86675 c 4.79004,6.13946 9.34009,12.01825 14.51892,18.70953 -2.37183,0.46716 -3.55457,0.88104 -4.74585,0.9079 -20.93653,0.47271 -41.87305,1.00329 -62.81262,1.20886 -2.81141,0.0276 -7.28467,-0.86926 -8.125,-2.67249 -1.88233,-4.03924 -1.66773,-8.96423 2.62622,-12.1372 3.05005,-2.25373 6.22534,-4.62049 9.72473,-5.88379 2.28967,-0.82648 5.25708,0.25799 7.92444,0.43097 1.53979,0.0998 3.80529,0.72296 4.46093,-0.0208 0.9668,-1.09656 1.61963,-3.75812 0.9408,-4.77131 -1.89648,-2.83075 -4.54578,-5.1571 -7.53198,-8.36328 1.4563,-4.09863 4.32483,-7.661924 9.99328,-9.746458 5.77674,-2.124328 9.58704,-0.677612 13.51416,3.291443 6.30884,6.375975 12.83655,12.535155 19.51197,19.046575 z"
   id="path25" />
<path
   fill="#fefdfd"
   opacity="1"
   stroke="none"
   d="m 677.97125,311.52153 c -3.81726,0.66022 -7.65124,1.76965 -11.51147,1.86951 -17.63843,0.45642 -35.28394,0.73663 -52.92786,0.79895 -2.94104,0.0104 -5.88721,-1.37024 -8.83093,-2.1081 0.99353,-2.70312 1.78491,-5.50225 3.01453,-8.09332 6.61303,-13.93506 23.13439,-12.14728 34.01232,-6.65143 1.33338,0.67371 2.51978,2.04401 3.86853,2.18402 1.87537,0.19477 3.83985,-0.46789 5.76612,-0.76355 -0.39075,-1.95697 -0.18079,-4.43054 -1.31446,-5.74871 -1.66455,-1.93555 -4.19812,-3.21625 -6.52978,-4.46039 -2.49463,-1.33106 -2.55066,-2.94959 -0.87524,-4.74701 1.45678,-1.56299 3.04077,-3.15827 4.87634,-4.19348 14.5072,-8.18213 30.25842,-10.87097 46.69751,-9.98664 5.11072,0.27485 6.38257,2.7807 3.72192,7.34632 -5.77502,9.90948 -11.82104,19.66089 -17.7279,29.49396 -0.84534,1.40698 -1.53308,2.90856 -2.26111,4.7315 0.0326,0.36524 -0.007,0.31262 0.0215,0.32837 z"
   id="path26" />
<path
   fill="#744f4b"
   opacity="1"
   stroke="none"
   d="m 607.95465,289.97929 c -8.56042,3.08881 -17.01221,2.0672 -25.35498,0.64722 -7.33215,-1.24805 -9.99634,-4.56311 -9.96826,-12.05609 0.038,-10.14191 4.08484,-18.81122 11.20569,-25.86871 1.75,-1.73438 4.7594,-3.20923 7.12597,-3.11945 6.87781,0.26099 13.7511,1.19318 20.56946,2.23377 3.37146,0.51464 4.42786,2.96466 3.78382,6.38482 -0.35242,1.87195 -0.69544,4.35498 0.20983,5.74927 3.9823,6.13324 2.77906,12.03375 0.1095,18.07568 -0.46875,1.06104 -0.77099,2.1955 -1.15027,3.66852 -2.09863,1.59839 -4.19714,2.82434 -6.53076,4.28497 z"
   id="path27" />
<path
   fill="#fefdfd"
   opacity="1"
   stroke="none"
   d="m 63.730897,169.13762 c 11.189392,0.5694 16.810608,7.95941 21.408203,16.60101 0.935303,1.75806 1.382751,3.86695 2.61737,5.34418 0.910157,1.08887 3.101197,2.2757 4.06427,1.86768 1.321412,-0.56 2.22815,-2.49659 2.898987,-4.02478 0.331604,-0.75544 -0.228027,-1.92511 -0.444092,-2.89411 -1.379211,-6.1864 -0.104736,-7.44317 6.101565,-5.9928 8.27643,1.93421 12.4721,6.96253 12.57696,15.07294 0.091,7.03906 -1.11541,8.78577 -8.03857,9.2096 -15.432923,0.94482 -30.891358,1.46496 -46.332093,2.29406 -4.395447,0.23603 -6.11261,-1.57544 -5.683106,-5.85772 0.563843,-5.62085 0.651062,-11.3169 1.626343,-16.86048 0.806091,-4.58185 0.486145,-10.19 6.882385,-11.80554 0.849244,-0.21448 1.350464,-1.80713 2.321778,-2.95404 z"
   id="path28" />
<path
   fill="#744e4a"
   opacity="1"
   stroke="none"
   d="m 511.66376,123.53307 c 0.13269,-0.30646 0.26538,-0.61292 0.71399,-1.35395 4.35144,-4.05316 7.89087,-8.76538 14.281,-7.68512 7.13697,1.20661 14.2367,2.63355 21.35254,3.9646 0.0383,0.46485 0.0765,0.92969 0.14844,2.05194 0.0662,1.09394 0.0987,1.53034 0.13135,1.9668 -0.10388,0.4538 -0.20789,0.90766 -0.49781,2.00635 -4.62646,14.57287 -9.03283,28.51196 -13.53698,42.41937 -0.88367,2.72833 -0.30945,4.26727 2.69909,4.31818 5.29786,0.0895 10.59705,0.0867 15.89576,0.1225 1.44982,0.034 2.89953,0.068 5.04724,0.24591 3.12414,1.11401 5.55053,2.08404 7.9768,3.05407 0,0 -0.002,-0.0794 0.0389,0.27014 0.0424,2.76337 0.0442,5.17719 0.0459,7.59095 -0.3125,0.13769 -0.56885,0.34478 -1.26465,0.89319 -7.29284,1.77648 -14.10083,3.23449 -20.88354,4.80297 -4.20838,0.97315 -8.37329,2.13404 -12.56702,3.1731 -3.71985,0.92169 -6.09887,3.15778 -7.11096,6.88867 -4.87512,17.97266 -9.81128,35.92883 -14.60376,53.92334 -0.4541,1.70508 -0.0605,3.63593 -0.0605,5.46192 0.46473,0.16674 0.92957,0.33355 1.39429,0.5003 3.01599,-4.0658 6.07459,-8.10077 9.03992,-12.20306 9.07007,-12.54749 17.76074,-14.98096 34.0393,-10.45227 0.10999,0.30737 0.29139,0.56427 0.76722,1.33252 1.14343,5.88848 -0.9281,10.37115 -3.83619,14.56781 -3.03234,4.37597 -6.0548,8.76721 -9.28588,12.99578 -8.47828,11.09613 -16.77063,22.35596 -25.72535,33.05835 -5.3081,6.344 -12.90393,8.78589 -21.17578,7.65577 -5.6643,-0.77393 -11.2312,-2.26178 -17.00268,-3.62769 -0.41126,-0.42596 -0.6615,-0.65472 -0.93286,-1.25623 -3.36548,-6.89178 -3.18933,-13.87121 -2.68433,-20.88739 0.21521,-2.98944 0.32983,-5.99865 0.77148,-8.95684 1.59546,-10.68555 2.92359,-21.43305 5.10144,-32.00287 1.77613,-8.62018 4.5647,-17.0365 7.02503,-25.50824 0.87805,-3.02393 0.0619,-4.31238 -3.15503,-4.5058 -4.9823,-0.29956 -9.97583,-0.70844 -14.90833,-1.44678 -3.80761,-0.56994 -6.40051,0.4812 -8.26953,3.89612 -2.71875,4.96735 -5.66955,9.80743 -8.49377,14.71771 -4.04724,7.03681 -6.50549,14.55847 -7.03101,22.70294 -0.2539,3.93573 0.77845,6.46497 5.34607,6.53394 1.95044,0.0294 4.13587,0.4093 5.77136,1.37817 2.07776,1.23078 5.40052,3.53296 5.16443,4.81824 -0.45373,2.47064 -2.6361,5.13013 -4.83667,6.63995 -2.51379,1.72474 -5.82861,2.28193 -9.12817,3.28138 -1.01013,-0.0783 -1.68726,-0.0916 -2.79761,-0.26599 -4.93823,-0.98462 -9.4154,-2.20673 -13.95593,-2.52326 -4.89099,-0.34106 -9.84119,0.16638 -14.99878,0.40869 -0.39673,0.15363 -0.5603,0.20221 -1.10071,0.1695 -9.6643,3.85138 -19.34961,3.70135 -29.16815,3.01288 -11.28412,-0.79108 -16.0863,-5.95954 -16.60156,-17.43213 -0.51019,-11.36054 3.68432,-21.44623 7.49432,-31.69818 0,0 -0.009,-0.25007 0.17468,-0.48706 0.59455,-1.00934 1.00495,-1.78168 1.41541,-2.55408 0,0 0.15497,-0.24646 0.44391,-0.60449 1.72723,-2.70655 3.16559,-5.05506 4.60382,-7.40357 0,0 0.13892,-0.19427 0.44434,-0.49097 2.3883,-3.03546 4.47131,-5.77429 6.55432,-8.51318 0.30767,-0.1474 0.55883,-0.36127 1.17077,-0.99609 1.67987,-1.41901 3.00733,-2.41602 4.19458,-3.55878 7.48963,-7.20856 16.16468,-10.60907 26.68152,-8.8493 3.72839,0.62378 7.56702,0.82092 11.34876,0.76519 1.30175,-0.0192 2.58361,-1.39831 3.87451,-2.15618 0,0 -0.0834,-0.0241 0.22925,-0.11139 4.80163,-4.2453 9.93994,-5.61341 15.98425,-4.24146 2.21118,0.50195 4.76782,-0.42407 6.93335,0.16296 3.5498,0.96216 8.25964,1.69178 10.01745,4.22706 2.37378,3.42358 4.45777,3.37548 7.40406,2.45636 11.84057,-3.69397 22.55151,-8.58374 23.55053,-23.28418 0.0553,-0.81354 0.40284,-1.60718 0.61438,-2.4101 0.29395,-0.80353 0.58777,-1.60706 1.10975,-3.00861 0.9746,-3.05346 1.72106,-5.50897 2.4674,-7.96447 0.13794,-0.44178 0.27588,-0.88355 0.62158,-1.93567 0.43628,-1.44104 0.66468,-2.27173 0.89307,-3.10242 0.26245,-0.80902 0.52478,-1.6181 0.95874,-2.9436 0.31128,-1.0199 0.45093,-1.52332 0.5907,-2.02674 0.11951,-0.44476 0.23901,-0.88952 0.57397,-1.9685 0.38672,-5.10303 0.55811,-9.5719 0.7295,-14.04071 0.18274,-0.27301 0.27624,-0.57373 0.49292,-1.31574 0.57165,-1.16314 0.9309,-1.91284 1.29016,-2.66253 M 405.0025,243.69865 c 6.16309,-9.97247 12.36914,-19.91918 18.40967,-29.96539 0.49585,-0.82452 -0.13428,-2.32605 -0.24121,-3.513 -1.22314,0.20715 -2.87402,-0.0242 -3.60413,0.68817 -8.75171,8.53888 -14.65332,18.74262 -17.12097,30.77643 -0.12842,0.62616 1.33594,1.57898 2.55664,2.01379 z"
   id="path29" />
<path
   fill="#734e4a"
   opacity="1"
   stroke="none"
   d="m 334.40302,184.63078 c -0.0586,0.41657 -0.11725,0.83319 -0.38074,1.82618 -1.36945,3.27624 -0.57178,4.20166 2.40021,3.93066 6.21411,-0.56659 12.44732,-1.14215 18.67981,-1.23401 8.16894,-0.12042 15.17486,2.20746 18.38482,10.77155 -0.006,0.63562 -0.0112,1.2713 -0.10193,2.49975 -0.005,1.76898 0.0751,2.94507 0.1554,4.12122 -0.0444,0.62823 -0.0889,1.25641 -0.3324,2.49322 -1.62237,7.57337 -3.04565,14.53821 -4.58862,21.80933 -0.54944,1.77673 -0.97919,3.24713 -1.62744,5.00763 -2.58173,7.56311 -5.22028,14.76178 -7.20911,22.13568 -1.27997,4.74585 -1.6051,9.74915 -2.41186,15.01001 -0.0522,1.37476 -0.0508,2.37671 -0.0443,3.73437 1.27784,3.2873 3.89948,5.94007 1.65656,9.54657 -2.92761,4.70716 -12.2945,6.57172 -16.98016,3.58973 -1.2522,-0.79688 -3.39289,-1.1781 -4.73542,-0.68592 -6.40844,2.34986 -11.57019,-0.24286 -12.20324,-7.03802 -0.41114,-4.41284 -0.40912,-9.10144 0.63385,-13.36664 2.76098,-11.29095 6.21972,-22.41034 9.32196,-33.61981 0.55334,-1.99945 0.72869,-4.1034 1.07861,-6.15912 -0.48462,-0.1145 -0.96918,-0.229 -1.4538,-0.34351 -1.87396,3.66114 -4.05127,7.20166 -5.56311,11.00672 -3.98596,10.03247 -7.9599,20.08691 -11.38904,30.31677 -1.99877,5.96295 -5.9544,9.09235 -11.6715,10.16864 -1.79407,0.33777 -5.2071,-0.38873 -5.61005,-1.47205 -1.97772,-5.31738 -4.64301,-3.35516 -7.60004,-1.35022 -4.9527,3.35798 -8.77752,1.59473 -8.92871,-4.45208 -0.0988,-3.95288 0.52619,-7.94745 1.07935,-11.888 1.10644,-7.88129 2.38617,-15.73816 3.59436,-23.60517 0.0684,-0.4223 0.13684,-0.84466 0.4447,-1.88556 0.60443,-1.54541 1.06696,-2.44641 1.31976,-3.40289 4.07367,-15.41632 8.20728,-30.81787 12.09882,-46.28027 0.75268,-2.99073 0.5357,-6.22553 0.76599,-9.34772 0.0667,-0.33948 0.13336,-0.67896 0.44238,-1.54248 0.5868,-1.276 1.10523,-1.99603 1.24982,-2.78461 2.30133,-12.55298 4.75867,-25.08288 6.72925,-37.6886 0.9209,-5.89111 1.96173,-7.80725 7.8703,-8.15734 5.2699,-0.3122 10.61328,-0.30256 15.86285,0.20294 5.82996,0.56134 7.89868,3.34649 7.07978,9.07544 -1.54963,10.84082 -3.32477,21.65008 -5.07825,32.46081 -0.89948,5.54529 -1.95435,11.06531 -2.93884,16.5968 z"
   id="path30" />
<path
   fill="#f2d2b7"
   opacity="1"
   stroke="none"
   d="m 314.1098,123.2086 c -14.60901,-6.85107 -17.21832,-23.370725 -5.1571,-34.300046 8.72455,-7.905945 18.87951,-13.531555 30.03808,-17.417908 2.52466,-0.879272 5.01697,-2.496826 6.93323,-4.376892 17.28266,-16.956543 37.96436,-23.176147 61.39722,-18.142547 11.7926,2.533142 20.56933,10.719513 27.02222,20.868499 2.17199,3.416077 4.13391,4.616089 8.38708,3.968445 13.72632,-2.090149 23.10034,6.019593 24.20679,19.902222 0.6947,8.715337 -1.4657,16.852297 -4.48499,24.797917 -0.47558,1.25171 -3.06091,2.41888 -4.66846,2.41571 -23.9259,-0.0468 -47.85498,-0.63434 -71.77545,-0.37751 -15.11279,0.1623 -30.21283,1.51361 -46.23065,2.41205 -9.16412,0.1369 -17.41601,0.19348 -25.66797,0.25006 M 457.86749,90.411301 c -4.151,-9.607239 -12.5404,-11.799866 -20.85669,-5.387818 -1.97277,1.520996 -3.62011,3.508789 -5.70678,4.821289 -1.32813,0.835328 -3.19019,0.821717 -4.81275,1.188782 -0.29419,-1.703735 -0.95801,-3.450134 -0.76782,-5.097961 0.15808,-1.368592 1.71216,-2.554139 1.94983,-3.94043 0.38696,-2.257813 1.13098,-5.182556 0.1145,-6.83667 -7.54321,-12.276245 -18.29724,-19.760284 -33.14715,-19.544189 -6.10236,0.08881 -12.37769,0.738769 -18.23249,2.364349 -7.95794,2.209473 -15.28845,6.081848 -19.94433,11.050262 1.70642,5.348511 3.33972,9.336487 4.08355,13.484009 0.22528,1.255676 -2.01135,2.952881 -3.12036,4.447876 -1.3034,-1.128357 -3.29187,-2.017334 -3.78497,-3.428772 -1.63666,-4.684021 -4.77753,-5.460693 -9.07184,-4.550842 -12.10205,2.564331 -22.11096,8.877747 -30.95459,17.243652 -3.77124,3.567383 -4.68524,8.124942 -3.01721,12.853702 1.72851,4.90039 6.08435,5.68811 10.67755,5.52545 20.61432,-0.72998 41.22302,-1.7406 61.84363,-2.13959 23.27331,-0.45038 46.55786,-0.31201 69.83545,-0.60724 1.33752,-0.017 3.68982,-1.50763 3.81164,-2.52343 0.72119,-6.00733 0.92237,-12.077031 1.10083,-18.922429 z"
   id="path31" />
<path
   fill="#f2d2b8"
   opacity="1"
   stroke="none"
   d="m 476.77252,300.59209 c 0.25037,0.2287 0.50061,0.45746 0.99536,1.22101 1.71656,1.53558 3.07178,2.83355 4.68763,3.46948 2.5979,1.02252 5.36804,1.60773 8.06543,2.37768 1.62902,3.44971 3.44751,6.82416 4.85266,10.36274 4.91406,12.3742 1.72888,23.8869 -4.26966,34.90722 -3.08386,5.66565 -4.72448,5.45221 -10.34204,2.92139 -3.63049,-1.63562 -8.0686,-2.04663 -12.14306,-2.03888 -34.14087,0.0651 -68.28138,0.35712 -102.422,0.57117 -2.83045,0.0178 -5.67157,0.11236 -8.4903,-0.0817 -11.42913,-0.78699 -19.19116,-9.90008 -18.01782,-21.41882 1.00086,-9.8252 4.32361,-18.44641 13.53558,-23.72034 1.15174,-0.65936 2.11457,-2.13165 2.57172,-3.43524 1.69922,-4.84479 3.15051,-9.77643 4.84515,-15.23108 0.15015,-0.55554 0.31861,-0.96558 0.59675,-1.15527 4.77246,-5.70063 9.26684,-11.21161 14.16864,-16.78174 3.82196,0.72839 7.23645,1.51593 10.43927,2.54523 -10.3346,7.17852 -17.54065,16.16278 -20.71528,27.66894 5.79645,1.02203 10.8238,1.63147 15.6944,2.86151 3.43036,0.86627 5.29376,3.67578 4.73206,7.24542 -0.27063,1.71961 -1.39392,3.86591 -2.78711,4.64332 -0.87354,0.48742 -3.02497,-1.1092 -4.49634,-1.95618 -1.50769,-0.8681 -2.77814,-2.59491 -4.33636,-2.8584 -13.83191,-2.33868 -26.07929,8.25269 -26.04773,22.07135 0.012,5.23285 2.55462,8.25653 7.31219,9.23041 4.37659,0.89599 8.89496,1.51379 13.35345,1.52984 34.31885,0.12391 68.63843,0.0614 102.95777,0.0991 1.97986,0.002 3.9884,0.22309 5.93359,0.60059 7.66626,1.48785 7.66016,1.52661 10.14588,-5.96594 0.26208,-0.78998 0.51318,-1.58454 0.73974,-2.38538 5.92664,-20.96149 -15.74035,-43.41992 -37.06897,-38.77289 -9.0802,1.9784 -15.88745,7.19635 -22.64209,12.97107 -1.65063,1.41114 -4.24707,1.71595 -6.40869,2.52942 0.30078,-2.41492 -0.10669,-5.24505 1.02393,-7.17346 5.09924,-8.6969 13.41711,-13.08728 22.80017,-15.74854 5.77807,-1.63885 6.5155,-3.07348 2.54077,-7.59686 -3.46021,-3.93774 -7.73279,-7.1618 -11.32959,-10.9107 2.81543,-0.94385 5.31384,-1.67817 7.81238,-2.41254 0.67724,0.0132 1.35437,0.0265 2.52331,0.37921 5.77674,4.79498 10.13452,9.90064 12.20862,16.67767 0.26648,0.87067 0.96094,2.19178 1.59705,2.27857 6.91223,0.94354 11.89746,4.57941 15.38354,10.48163 z"
   id="path32" />
<path
   fill="#ab8471"
   opacity="1"
   stroke="none"
   d="m 360.95978,289.53117 c 0,0 -0.16846,0.41004 -0.25647,0.61329 -7.65631,3.1145 -15.48261,3.80285 -23.53363,3.28179 -10.17761,-0.65869 -14.88538,-4.97357 -14.1117,-15.16497 0.6109,-8.04737 2.77271,-15.97919 4.29023,-23.95386 0.32598,-1.71338 0.8432,-3.39032 1.27233,-5.08405 -0.56799,-0.18621 -1.13592,-0.37249 -1.70391,-0.55871 -2.48896,7.21521 -5.25385,14.34973 -7.39356,21.66711 -2.39459,8.18891 -6.90759,12.09473 -15.51752,12.20862 -4.31988,0.0572 -8.65637,0.0492 -12.9613,-0.2619 -5.28467,-0.3819 -9.48151,-3.64777 -8.90851,-8.24439 1.51038,-12.11493 3.9065,-24.11944 6.18524,-36.40893 -0.97271,7.6261 -2.25244,15.48297 -3.35888,23.36426 -0.55316,3.94055 -1.17816,7.93512 -1.07935,11.888 0.15119,6.04681 3.97601,7.81006 8.92871,4.45208 2.95703,-2.00494 5.62232,-3.96716 7.60004,1.35022 0.40295,1.08332 3.81598,1.80982 5.61005,1.47205 5.7171,-1.07629 9.67273,-4.20569 11.6715,-10.16864 3.42914,-10.22986 7.40308,-20.2843 11.38904,-30.31677 1.51184,-3.80506 3.68915,-7.34558 5.56311,-11.00672 0.48462,0.11451 0.96918,0.22901 1.4538,0.34351 -0.34992,2.05572 -0.52527,4.15967 -1.07861,6.15912 -3.10224,11.20947 -6.56098,22.32886 -9.32196,33.61981 -1.04297,4.2652 -1.04499,8.9538 -0.63385,13.36664 0.63305,6.79516 5.7948,9.38788 12.20324,7.03802 1.34253,-0.49218 3.48322,-0.11096 4.73542,0.68592 4.68566,2.98199 14.05255,1.11743 16.98016,-3.58973 2.24292,-3.6065 -0.37872,-6.25927 -1.37195,-9.38787 5.74579,3.01806 3.63495,8.04516 3.34833,12.6361 z"
   id="path33" />
<path
   fill="#c59e83"
   opacity="1"
   stroke="none"
   d="m 553.80109,235.16606 c -16.1366,-4.20178 -24.82727,-1.76831 -33.89734,10.77918 -2.96533,4.10229 -6.02393,8.13726 -9.03992,12.20306 -0.46472,-0.16675 -0.92956,-0.33356 -1.39429,-0.5003 0,-1.82599 -0.39355,-3.75684 0.0605,-5.46192 4.79248,-17.99451 9.72864,-35.95068 14.60376,-53.92334 1.01209,-3.73089 3.39111,-5.96698 7.11096,-6.88867 4.19373,-1.03906 8.35864,-2.19995 12.56702,-3.1731 6.78271,-1.56848 13.5907,-3.02649 20.76819,-4.58191 -2.90747,1.99317 -5.95374,4.86048 -9.53284,5.90955 -7.45972,2.18652 -15.1936,3.44818 -22.83008,5.01538 -3.82031,0.78406 -6.15173,2.97693 -7.19897,6.7273 -3.70923,13.28222 -7.5271,26.53442 -11.16089,39.83703 -0.60584,2.21765 -0.49976,4.6297 -0.72278,6.95191 0.54004,0.22259 1.08008,0.44519 1.62012,0.66778 1.87085,-2.15558 4.05542,-4.11352 5.5592,-6.50042 7.00354,-11.11597 17.65308,-11.85297 29.02722,-10.31537 1.54322,0.20861 2.88379,1.91449 4.46009,3.25384 z"
   id="path34" />
<path
   fill="#ab8471"
   opacity="1"
   stroke="none"
   d="m 313.95599,123.47551 c 8.40577,-0.32349 16.65766,-0.38007 25.36591,-0.37231 5.19788,3.67633 6.4165,8.60607 5.40051,14.15826 -2.64624,14.46124 -5.40375,28.90234 -8.19903,43.33563 -0.2417,1.24787 -1.09034,2.37818 -1.8888,3.79834 0.75293,-5.29614 1.8078,-10.81616 2.70728,-16.36145 1.75348,-10.81073 3.52862,-21.61999 5.07825,-32.46081 0.8189,-5.72895 -1.24982,-8.5141 -7.07978,-9.07544 -5.24957,-0.5055 -10.59295,-0.51514 -15.86285,-0.20294 -5.90857,0.35009 -6.9494,2.26623 -7.8703,8.15734 -1.97058,12.60572 -4.42792,25.13562 -6.72925,37.6886 -0.14459,0.78858 -0.66302,1.50861 -1.24023,2.52497 1.14837,-7.57447 2.63317,-15.3971 3.87115,-23.25867 0.72241,-4.58801 1.36365,-9.23078 1.47205,-13.86224 0.12207,-5.21723 1.33221,-9.85639 4.97509,-14.06928 z"
   id="path35" />
<path
   fill="#c59e83"
   opacity="1"
   stroke="none"
   d="m 490.91351,307.70787 c -3.08996,-0.81756 -5.8601,-1.40277 -8.458,-2.42529 -1.61585,-0.63593 -2.97107,-1.9339 -4.52662,-3.27228 5.52698,0.83112 11.09388,2.31897 16.75818,3.0929 8.27185,1.13012 15.86768,-1.31177 21.17578,-7.65577 8.95472,-10.70239 17.24707,-21.96222 25.72535,-33.05835 3.23108,-4.22857 6.25354,-8.61981 9.28588,-12.99578 2.90809,-4.19666 4.97962,-8.67933 4.03931,-14.44318 0.52002,1.9989 1.97925,4.68414 1.40088,6.81677 -1.06677,3.93335 -2.81238,7.91315 -5.18469,11.22144 -9.59229,13.37597 -19.27918,26.70221 -29.47339,39.61877 -3.74536,4.74542 -8.78796,8.56787 -13.61133,12.33411 -5.19739,4.05804 -10.97937,4.21179 -17.13135,0.76666 z"
   id="path36" />
<path
   fill="#c59e83"
   opacity="1"
   stroke="none"
   d="m 386.05756,274.86321 c -3.41455,-0.78754 -6.82904,-1.57508 -10.84839,-2.58472 -4.80176,-4.3598 -7.88379,-8.98255 -8.48926,-15.138 -0.13013,-1.32324 -2.45288,-2.43073 -3.69031,-4.01386 1.44385,-6.10431 2.81244,-11.83233 4.18103,-17.56042 0.42975,-1.4704 0.8595,-2.9408 1.63159,-5.00147 1.28254,-3.08453 2.22278,-5.57879 3.16297,-8.07312 1.14129,0.0117 2.28259,0.0233 3.85736,0.0474 -3.37647,10.26428 -7.57098,20.34997 -7.06079,31.71051 0.51526,11.47259 5.31744,16.64105 16.60156,17.43213 9.81854,0.68847 19.50385,0.8385 29.03449,-2.70697 -1.5221,1.20684 -3.31653,1.96942 -5.04737,2.85638 -7.42114,3.80286 -15.52344,2.27539 -23.33288,3.03217 z"
   id="path37" />
<path
   fill="#c59e83"
   opacity="1"
   stroke="none"
   d="m 501.65265,164.69365 c 0.0718,0.61133 -0.27576,1.40497 -0.33106,2.21851 -0.99902,14.70044 -11.70996,19.59021 -23.55053,23.28418 -2.94629,0.91912 -5.03028,0.96722 -7.40406,-2.45636 -1.75781,-2.53528 -6.46765,-3.2649 -10.01745,-4.22706 -2.16553,-0.58703 -4.72217,0.33899 -6.93335,-0.16296 -6.04431,-1.37195 -11.18262,-0.004 -15.99487,4.28351 1.32702,-5.10596 5.31164,-7.00556 10.36413,-7.08588 5.11914,-0.0815 10.31128,-0.3966 15.33655,0.32758 2.85925,0.41211 6.16931,2.10065 7.98596,4.28662 2.58411,3.10913 5.00318,3.42853 8.2179,1.95691 3.77478,-1.72797 7.45813,-3.6651 11.27783,-5.28327 3.8573,-1.63421 5.8938,-4.43512 7.00354,-8.4273 0.823,-2.96076 2.47778,-5.69037 4.04541,-8.71448 z"
   id="path38" />
<path
   fill="#c59e83"
   opacity="1"
   stroke="none"
   d="m 552.53204,171.17125 c -4.97961,0.13666 -10.2788,0.13953 -15.57666,0.05 -3.00854,-0.0509 -3.58276,-1.58985 -2.69909,-4.31818 4.50415,-13.90741 8.91052,-27.8465 13.55261,-42.06921 0.0432,1.64074 0.21155,3.67254 -0.32691,5.49573 -3.19409,10.81622 -6.44665,21.61804 -9.90869,32.35083 -1.29931,4.02746 -0.40417,5.77569 3.96314,6.16271 3.59436,0.31861 7.12036,1.4079 10.9956,2.32813 z"
   id="path39" />
<path
   fill="#ab8471"
   opacity="1"
   stroke="none"
   d="m 302.96417,176.77739 c -0.009,2.81262 0.20825,6.04742 -0.54443,9.03815 -3.89154,15.4624 -8.02515,30.86395 -12.09882,46.28027 -0.2528,0.95648 -0.71533,1.85748 -1.29376,3.08301 -0.32245,-0.51489 -0.68921,-1.39337 -0.50293,-2.13245 4.7041,-18.66199 9.46637,-37.30945 14.43994,-56.26898 z"
   id="path40" />
<path
   fill="#ab8471"
   opacity="1"
   stroke="none"
   d="m 373.5545,199.51811 c -3.27734,-8.15704 -10.28326,-10.48492 -18.4522,-10.3645 -6.23249,0.0919 -12.4657,0.66742 -18.67981,1.23401 -2.97199,0.271 -3.76966,-0.65442 -2.41565,-3.61542 7.44409,-0.12402 14.73968,-0.40399 21.93835,0.30322 4.47321,0.4394 9.21753,1.66169 13.03687,3.90204 2.33392,1.36902 3.14489,5.33435 4.57244,8.54065 z"
   id="path41" />
<path
   fill="#c59e83"
   opacity="1"
   stroke="none"
   d="m 436.71429,187.66374 c -0.80249,0.79694 -2.08435,2.17609 -3.3861,2.19525 -3.78174,0.0557 -7.62037,-0.14141 -11.34876,-0.76519 -10.51684,-1.75977 -19.19189,1.64074 -26.68152,8.8493 -1.18725,1.14276 -2.51471,2.13977 -4.08282,3.33557 2.27417,-7.31592 13.81561,-14.82074 23.15143,-14.70874 7.28967,0.0875 14.57312,0.68433 22.34777,1.09381 z"
   id="path42" />
<path
   fill="#c59e83"
   opacity="1"
   stroke="none"
   d="m 548.05866,118.18828 c -7.16321,-1.06073 -14.26294,-2.48767 -21.39991,-3.69428 -6.39013,-1.08026 -9.92956,3.63196 -14.28003,7.4328 3.13489,-9.31695 8.47071,-11.9104 17.98426,-9.32293 3.28112,0.89239 7.00048,0.17724 10.27856,1.07586 2.67444,0.73328 4.98987,2.77613 7.41712,4.50855 z"
   id="path43" />
<path
   fill="#ab8471"
   opacity="1"
   stroke="none"
   d="m 372.05414,222.09673 c -0.98914,2.88922 -1.92938,5.38348 -3.09216,8.16168 1.20056,-6.68085 2.62384,-13.64569 4.26281,-20.90436 -0.22998,3.91998 -0.67584,8.13391 -1.17065,12.74268 z"
   id="path44" />
<path
   fill="#c59e83"
   opacity="1"
   stroke="none"
   d="m 509.61188,127.74626 c 0.0974,4.23389 -0.074,8.70276 -0.46509,13.4588 -0.0809,-4.21649 0.0577,-8.72021 0.46509,-13.4588 z"
   id="path45" />
<path
   fill="#c59e83"
   opacity="1"
   stroke="none"
   d="m 389.61163,202.61272 c -1.76208,2.62414 -3.84509,5.36297 -6.24066,8.27929 1.76483,-2.60321 3.84235,-5.38391 6.24066,-8.27929 z"
   id="path46" />
<path
   fill="#c59e83"
   opacity="1"
   stroke="none"
   d="m 565.75726,174.31352 c -2.30835,-0.63983 -4.73474,-1.60986 -7.42859,-2.80066 2.97193,-1.33282 5.63562,-0.82306 7.42859,2.80066 z"
   id="path47" />
<path
   fill="#c59e83"
   opacity="1"
   stroke="none"
   d="m 566.23712,182.31371 c -0.27881,-2.22266 -0.28064,-4.63648 -0.36279,-7.39838 4.27026,1.77844 3.04346,4.43683 0.36279,7.39838 z"
   id="path48" />
<path
   fill="#c59e83"
   opacity="1"
   stroke="none"
   d="m 505.2652,153.7141 c -0.49842,2.27038 -1.24488,4.72589 -2.21167,7.45501 0.50781,-2.24084 1.23572,-4.75537 2.21167,-7.45501 z"
   id="path49" />
<path
   fill="#c59e83"
   opacity="1"
   stroke="none"
   d="m 382.63757,211.65849 c -1.1419,2.19214 -2.58026,4.54065 -4.30127,7.10181 1.14649,-2.1734 2.57569,-4.55939 4.30127,-7.10181 z"
   id="path50" />
<path
   fill="#ab8471"
   opacity="1"
   stroke="none"
   d="m 373.72388,206.28301 c -0.26355,-0.91303 -0.34375,-2.08912 -0.30402,-3.54187 0.24243,0.90856 0.36487,2.09362 0.30402,3.54187 z"
   id="path51" />
<path
   fill="#c59e83"
   opacity="1"
   stroke="none"
   d="m 506.79865,148.62907 c 7.3e-4,0.69251 -0.22767,1.5232 -0.6504,2.61622 0.011,-0.65113 0.21619,-1.56458 0.6504,-2.61622 z"
   id="path52" />
<path
   fill="#c59e83"
   opacity="1"
   stroke="none"
   d="m 508.42316,143.62981 c 0.0143,0.39416 -0.12537,0.89758 -0.44849,1.59472 -0.0239,-0.3659 0.13538,-0.92566 0.44849,-1.59472 z"
   id="path53" />
<path
   fill="#c59e83"
   opacity="1"
   stroke="none"
   d="m 377.63275,219.71629 c -0.15704,0.56629 -0.56744,1.33863 -1.2699,2.28467 0.14417,-0.57709 0.58033,-1.32782 1.2699,-2.28467 z"
   id="path54" />
<path
   fill="#c59e83"
   opacity="1"
   stroke="none"
   d="m 511.43634,123.74236 c -0.13184,0.5404 -0.49109,1.2901 -1.11914,2.22119 0.11804,-0.54975 0.505,-1.28083 1.11914,-2.22119 z"
   id="path55" />
<path
   fill="#c59e83"
   opacity="1"
   stroke="none"
   d="m 548.42828,122.3665 c -0.1698,-0.32562 -0.20239,-0.76202 -0.16552,-1.52069 0.14709,0.25519 0.22485,0.83252 0.16552,1.52069 z"
   id="path56" />
<path
   fill="#fefefe"
   opacity="1"
   stroke="none"
   d="m 385.84583,275.10497 c 8.02117,-0.99854 16.12347,0.52893 23.54461,-3.27393 1.73084,-0.88696 3.52527,-1.64954 5.42432,-2.77515 0.29712,-0.35443 0.46069,-0.40301 1.24048,-0.44891 6.03637,1.13824 11.45642,2.27386 17.07861,3.565 0.70435,0.24048 1.20667,0.32544 1.94092,0.57355 0.77331,0.32593 1.3147,0.48871 1.85596,0.65149 3.91369,3.53943 8.18627,6.76349 11.64648,10.70123 3.97473,4.52338 3.2373,5.95801 -2.54077,7.59686 -9.38306,2.66126 -17.70093,7.05164 -22.80017,15.74854 -1.13062,1.92841 -0.72315,4.75854 -1.02393,7.17346 2.16162,-0.81347 4.75806,-1.11828 6.40869,-2.52942 6.75464,-5.77472 13.56189,-10.99267 22.64209,-12.97107 21.32862,-4.64703 42.99561,17.8114 37.06897,38.77289 -0.22656,0.80084 -0.47766,1.5954 -0.73974,2.38538 -2.48572,7.49255 -2.47962,7.45379 -10.14588,5.96594 -1.94519,-0.3775 -3.95373,-0.59839 -5.93359,-0.60059 -34.31934,-0.0376 -68.63892,0.0249 -102.95777,-0.0991 -4.45849,-0.0161 -8.97686,-0.63385 -13.35345,-1.52984 -4.75757,-0.97388 -7.30023,-3.99756 -7.31219,-9.23041 -0.0316,-13.81866 12.21582,-24.41003 26.04773,-22.07135 1.55822,0.26349 2.82867,1.9903 4.33636,2.8584 1.47137,0.84698 3.6228,2.4436 4.49634,1.95618 1.39319,-0.77741 2.51648,-2.92371 2.78711,-4.64332 0.5617,-3.56964 -1.3017,-6.37915 -4.73206,-7.24542 -4.8706,-1.23004 -9.89795,-1.83948 -15.6944,-2.86151 3.17463,-11.50616 10.38068,-20.49042 20.71528,-27.66894 z"
   id="path57" />
<path
   fill="#c59e83"
   opacity="1"
   stroke="none"
   d="m 476.75153,300.21928 c -3.46509,-5.52941 -8.45032,-9.16528 -15.36255,-10.10882 -0.63611,-0.0868 -1.33057,-1.4079 -1.59705,-2.27857 -2.0741,-6.77703 -6.43188,-11.88269 -11.87585,-16.61261 2.80798,-1.33892 6.1228,-1.89611 8.63659,-3.62085 2.20057,-1.50982 4.38294,-4.16931 4.83667,-6.63995 0.23609,-1.28528 -3.08667,-3.58746 -5.16443,-4.81824 -1.63549,-0.96887 -3.82092,-1.34875 -5.77136,-1.37817 -4.56762,-0.069 -5.59997,-2.59821 -5.34607,-6.53394 0.52552,-8.14447 2.98377,-15.66613 7.03101,-22.70294 2.82422,-4.91028 5.77502,-9.75036 8.49377,-14.71771 1.86902,-3.41492 4.46192,-4.46606 8.26953,-3.89612 4.9325,0.73834 9.92603,1.14722 14.90833,1.44678 3.21692,0.19342 4.03308,1.48187 3.15503,4.5058 -2.46033,8.47174 -5.2489,16.88806 -7.02503,25.50824 -2.17785,10.56982 -3.50598,21.31732 -5.10144,32.00287 -0.44165,2.95819 -0.55627,5.9674 -0.77148,8.95684 -0.505,7.01618 -0.68115,13.99561 2.68433,20.88739 z"
   id="path58" />
<path
   fill="#bb947c"
   opacity="1"
   stroke="none"
   d="m 404.75348,243.88164 c -0.97168,-0.6178 -2.43604,-1.57062 -2.30762,-2.19678 2.46765,-12.03381 8.36926,-22.23755 17.12097,-30.77643 0.73011,-0.7124 2.38099,-0.48102 3.60413,-0.68817 0.10693,1.18695 0.73706,2.68848 0.24121,3.513 -6.04053,10.04621 -12.24658,19.99292 -18.65869,30.14838 z"
   id="path59" />
<path
   fill="#c59e83"
   opacity="1"
   stroke="none"
   d="m 437.24762,273.18755 c -0.85815,0.0467 -1.39954,-0.11609 -2.37317,-0.60682 -0.93579,-0.40673 -1.43921,-0.48547 -1.94263,-0.5642 -5.42016,-1.13569 -10.84021,-2.27131 -16.64343,-3.51465 4.54138,-0.24494 9.49158,-0.75238 14.38257,-0.41132 4.54053,0.31653 9.0177,1.53864 13.95593,2.52326 -2.06543,0.89556 -4.56384,1.62988 -7.37927,2.57373 z"
   id="path60" />
<path
   fill="#c9a185"
   opacity="1"
   stroke="none"
   d="m 362.95428,253.50285 c 1.31275,1.20691 3.6355,2.3144 3.76563,3.63764 0.60547,6.15545 3.6875,10.7782 8.08185,15.1972 -4.297,5.79218 -8.79138,11.30316 -13.56384,17.00379 0.008,-4.40125 2.11932,-9.42835 -3.63154,-12.80225 -0.28601,-1.16052 -0.28741,-2.16247 -0.0193,-3.80298 1.96875,-6.83691 3.66797,-13.03515 5.36718,-19.2334 z"
   id="path61" />
<path
   fill="#ab8471"
   opacity="1"
   stroke="none"
   d="m 363.02954,253.12663 c -1.77447,6.57447 -3.47369,12.77271 -5.38885,19.2367 0.53723,-4.62219 0.86236,-9.62549 2.14233,-14.37134 1.98883,-7.3739 4.62738,-14.57257 7.20911,-22.13568 -1.15009,5.43799 -2.51868,11.16601 -3.96259,17.27032 z"
   id="path62" />
<path
   fill="#fefefe"
   opacity="1"
   stroke="none"
   d="m 457.96637,90.809616 c -0.27734,6.447083 -0.47852,12.516784 -1.19971,18.524114 -0.12182,1.0158 -2.47412,2.50647 -3.81164,2.52343 -23.27759,0.29523 -46.56214,0.15686 -69.83545,0.60724 -20.62061,0.39899 -41.22931,1.40961 -61.84363,2.13959 -4.5932,0.16266 -8.94904,-0.62506 -10.67755,-5.52545 -1.66803,-4.72876 -0.75403,-9.286319 3.01721,-12.853702 8.84363,-8.365905 18.85254,-14.679321 30.95459,-17.243652 4.29431,-0.909851 7.43518,-0.133179 9.07184,4.550842 0.4931,1.411438 2.48157,2.300415 3.78497,3.428772 1.10901,-1.494995 3.34564,-3.1922 3.12036,-4.447876 -0.74383,-4.147522 -2.37713,-8.135498 -4.08355,-13.484009 4.65588,-4.968414 11.98639,-8.840789 19.94433,-11.050262 5.8548,-1.62558 12.13013,-2.275543 18.23249,-2.364349 14.84991,-0.216095 25.60394,7.267944 33.14715,19.544189 1.01648,1.654114 0.27246,4.578857 -0.1145,6.83667 -0.23767,1.386291 -1.79175,2.571838 -1.94983,3.94043 -0.19019,1.647827 0.47363,3.394226 0.76782,5.097961 1.62256,-0.367065 3.48462,-0.353454 4.81275,-1.188782 2.08667,-1.3125 3.73401,-3.300293 5.70678,-4.821289 8.31629,-6.412048 16.70569,-4.219421 20.95557,5.786133 z"
   id="path63" />
<path
   fill="#f2d2b8"
   opacity="1"
   stroke="none"
   d="m 433.13385,272.17198 c 0.30139,-0.0767 0.80481,0.002 1.50855,0.24567 -0.30188,0.0798 -0.8042,-0.005 -1.50855,-0.24567 z"
   id="path64" />
</svg>
