<?xml version="1.0" encoding="UTF-8" standalone="no"?>
<svg
   version="1.1"
   width="790"
   height="470"
   id="svg83"
   sodipodi:docname="ClearChat.svg"
   inkscape:version="1.4.2 (f4327f4, 2025-05-13)"
   xmlns:inkscape="http://www.inkscape.org/namespaces/inkscape"
   xmlns:sodipodi="http://sodipodi.sourceforge.net/DTD/sodipodi-0.dtd"
   xmlns="http://www.w3.org/2000/svg"
   xmlns:svg="http://www.w3.org/2000/svg">
  <defs
     id="defs83" />
  <sodipodi:namedview
     id="namedview83"
     pagecolor="#ffffff"
     bordercolor="#000000"
     borderopacity="0.25"
     inkscape:showpageshadow="2"
     inkscape:pageopacity="0.0"
     inkscape:pagecheckerboard="0"
     inkscape:deskcolor="#d1d1d1"
     inkscape:zoom="0.16074223"
     inkscape:cx="3241.2143"
     inkscape:cy="1309.5501"
     inkscape:window-width="2560"
     inkscape:window-height="1494"
     inkscape:window-x="-11"
     inkscape:window-y="-11"
     inkscape:window-maximized="1"
     inkscape:current-layer="svg83" />
  <path
     d="m 371.96692,30.681126 c 2.39532,-0.0039 4.79063,-0.0082 7.18595,-0.01299 4.9867,-0.0074 9.97334,-0.0072 14.96005,-0.0019 5.0359,0.0046 10.07155,-0.0023 15.10742,-0.02051 26.73655,-0.09613 53.2231,-0.05553 79.81278,2.979279 4.3344,0.470864 8.67433,0.816985 13.02145,1.146621 9.75665,0.742296 19.30978,2.044386 28.93042,3.80745 2.81321,0.485644 5.63444,0.899008 8.4585,1.316894 7.13427,1.087108 14.187,2.485501 21.25,3.960938 1.27713,0.26611 2.55427,0.532221 3.87011,0.806396 8.67975,1.830901 17.23648,3.835306 25.75489,6.318604 1.29788,0.359131 2.59607,0.717151 3.89453,1.074218 16.48761,4.606373 32.76243,10.302153 48.10547,17.925782 1.28232,0.622855 2.56489,1.245223 3.84765,1.867187 34.65734,16.928583 68.9194,41.833105 88.15235,76.132815 0,0.66 0,1.32 0,2 0.66,0 1.32,0 2,0 4.18885,5.54956 7.19906,12.13888 10.375,18.3125 0.35787,0.68127 0.71575,1.36254 1.08447,2.06445 1.85353,3.67634 3.00519,6.4811 2.54053,10.62305 0.66,0 1.32,0 2,0 2.17211,5.27726 4.13904,10.60533 6,16 0.38357,1.08426 0.38357,1.08426 0.7749,2.19043 8.21542,24.27062 7.12884,55.64074 -0.7749,79.80957 -0.32227,1.06605 -0.64454,2.13211 -0.97657,3.23047 -2.40099,7.23429 -5.84647,14.1113 -9.15625,20.96777 -0.78923,1.6398 -1.56342,3.28682 -2.33593,4.93457 -13.79501,28.7396 -36.84387,56.39788 -63.59375,73.86719 -2.15353,1.46623 -4.06019,2.90478 -6.02735,4.58594 -2.46828,2.04751 -4.65316,3.56013 -7.47265,5.03906 -1.40959,0.74443 -1.40959,0.74443 -2.84766,1.5039 -0.54801,0.28505 -1.09603,0.57009 -1.66064,0.86377 -2.31454,1.20853 -4.61961,2.43436 -6.9253,3.65967 -18.28965,9.69 -18.28965,9.69 -27.0039,13.34766 -0.83274,0.35449 -1.66547,0.70898 -2.52344,1.07422 -4.75535,1.96798 -9.51784,3.59331 -14.46094,5.01562 -3.953,1.19307 -7.85448,2.52491 -11.76562,3.84766 -17.5764,5.89496 -35.27178,10.3484 -53.61792,13.02368 -3.63505,0.53453 -7.19813,1.14655 -10.77271,1.99976 -6.44307,1.4729 -12.99423,2.22647 -19.54687,3.03906 -1.03573,0.13023 -1.03573,0.13023 -2.09238,0.26309 -13.88055,1.73077 -27.75752,2.75836 -41.72525,3.50327 -2.93222,0.19602 -5.84764,0.44748 -8.77295,0.72363 -19.36005,1.78652 -38.82235,1.6703 -58.24634,1.64038 -3.72749,-0.006 -7.45492,-0.002 -11.18241,0.003 -20.64389,0.027 -41.2958,-0.0451 -61.85567,-2.13381 -6.23482,-0.59317 -12.4296,-1.07178 -18.69043,-1.2417 -12.26153,-0.34766 -24.38404,-1.721 -36.55957,-3.1333 -0.91898,-0.10519 -1.83797,-0.21038 -2.78479,-0.31876 -10.61923,-1.22381 -21.14054,-2.67001 -31.64759,-4.64462 -3.91637,-0.69003 -7.80609,-1.19796 -11.75512,-1.66162 -12.15316,-1.46222 -23.93538,-3.48473 -35.67188,-7.03516 -3.25892,-0.94478 -6.51084,-1.69321 -9.82812,-2.40234 -5.83345,-1.30027 -11.3301,-3.17313 -16.91797,-5.28125 -2.76738,-0.98986 -5.48732,-1.84025 -8.3086,-2.64453 -5.68201,-1.68099 -11.04412,-3.93636 -16.46093,-6.32422 -1.00596,-0.44135 -2.01191,-0.88269 -3.04834,-1.3374 -17.46403,-7.75465 -33.68281,-17.19022 -48.764164,-28.9751 -0.922969,-0.71672 -1.845938,-1.43344 -2.796875,-2.17188 -4.336167,-3.41248 -8.324717,-6.89642 -12.203125,-10.82812 -0.876563,-0.83016 -1.753125,-1.66031 -2.65625,-2.51563 -18.929361,-18.20131 -34.303355,-41.38088 -42.34375,-66.48437 -0.336446,-1.01321 -0.672891,-2.02641 -1.019531,-3.07031 -4.105123,-12.76125 -6.447033,-24.88234 -6.449219,-38.30469 -0.0071,-1.33977 -0.01485,-2.67953 -0.02307,-4.01929 -0.01332,-2.79004 -0.01507,-5.57981 -0.0092,-8.36987 0.0047,-2.81001 -0.009,-5.61889 -0.04102,-8.42871 -0.220458,-19.6027 0.326341,-38.64814 8.541992,-56.80713 0.417371,-1.30581 0.816418,-2.61779 1.1875,-3.9375 3.736594,-11.44454 10.140905,-22.12542 16.8125,-32.0625 0.560742,-0.88172 1.121484,-1.76344 1.699219,-2.67188 0.532382,-0.83015 1.064765,-1.66031 1.613281,-2.51562 0.470508,-0.73606 0.941015,-1.47211 1.425781,-2.23047 0.416367,-0.52207 0.832734,-1.04414 1.261719,-1.58203 0.66,0 1.32,0 2,0 0.268125,-0.80438 0.53625,-1.60875 0.8125,-2.4375 0.391875,-0.84563 0.78375,-1.69125 1.1875,-2.5625 0.99,-0.33 1.98,-0.66 3,-1 1.166666,-1.91667 1.166666,-1.91667 2,-4 0.33,-0.66 0.66,-1.32 1,-2 0.66,0 1.32,0 2,0 0.66,-1.32 1.32,-2.64 2,-4 0.66,0 1.32,0 2,0 0.328711,-0.82951 0.328711,-0.82951 0.664062,-1.67578 1.753158,-3.05009 4.11843,-5.18987 6.710938,-7.51172 0.533833,-0.48195 1.067666,-0.9639 1.617676,-1.46045 16.359155,-14.563347 35.712236,-26.594046 55.757326,-35.363771 1.40122,-0.615469 2.798,-1.241293 4.1875,-1.882813 38.15209,-17.511213 79.91849,-24.640493 121.31787,-29.761718 2.08233,-0.260802 4.16314,-0.53381 6.24316,-0.8125 10.48077,-1.376065 20.9601,-2.268236 31.50147,-3.03125 2.36676,-0.174373 4.73343,-0.349861 7.10003,-0.526439 1.64377,-0.122172 3.28763,-0.243137 4.9316,-0.362475 4.44618,-0.327543 8.8858,-0.68894 13.32374,-1.114306 14.78937,-1.392465 29.44439,-1.807907 44.29306,-1.797562 z"
     fill="#b4cad3"
     id="path2" />
  <path
     d="m 371.96692,30.681126 c 2.39532,-0.0039 4.79063,-0.0082 7.18595,-0.01299 4.9867,-0.0074 9.97334,-0.0072 14.96005,-0.0019 5.0359,0.0046 10.07155,-0.0023 15.10742,-0.02051 26.73655,-0.09613 53.2231,-0.05553 79.81278,2.979279 4.3344,0.470864 8.67433,0.816985 13.02145,1.146621 9.75665,0.742296 19.30978,2.044386 28.93042,3.80745 2.81321,0.485644 5.63444,0.899008 8.4585,1.316894 7.13427,1.087108 14.187,2.485501 21.25,3.960938 1.27713,0.26611 2.55427,0.532221 3.87011,0.806396 8.67975,1.830901 17.23648,3.835306 25.75489,6.318604 1.29788,0.359131 2.59607,0.717151 3.89453,1.074218 16.48761,4.606373 32.76243,10.302153 48.10547,17.925782 1.28232,0.622855 2.56489,1.245223 3.84765,1.867187 34.65734,16.928583 68.9194,41.833105 88.15235,76.132815 0,0.66 0,1.32 0,2 0.66,0 1.32,0 2,0 4.18885,5.54956 7.19906,12.13888 10.375,18.3125 0.35787,0.68127 0.71575,1.36254 1.08447,2.06445 1.85353,3.67634 3.00519,6.4811 2.54053,10.62305 0.66,0 1.32,0 2,0 2.17211,5.27726 4.13904,10.60533 6,16 0.38357,1.08426 0.38357,1.08426 0.7749,2.19043 8.21542,24.27062 7.12884,55.64074 -0.7749,79.80957 -0.32227,1.06605 -0.64454,2.13211 -0.97657,3.23047 -2.40099,7.23429 -5.84647,14.1113 -9.15625,20.96777 -0.78923,1.6398 -1.56342,3.28682 -2.33593,4.93457 -13.79501,28.7396 -36.84387,56.39788 -63.59375,73.86719 -2.15353,1.46623 -4.06019,2.90478 -6.02735,4.58594 -2.46828,2.04751 -4.65316,3.56013 -7.47265,5.03906 -1.40959,0.74443 -1.40959,0.74443 -2.84766,1.5039 -0.54801,0.28505 -1.09603,0.57009 -1.66064,0.86377 -2.31454,1.20853 -4.61961,2.43436 -6.9253,3.65967 -18.28965,9.69 -18.28965,9.69 -27.0039,13.34766 -0.83274,0.35449 -1.66547,0.70898 -2.52344,1.07422 -4.75535,1.96798 -9.51784,3.59331 -14.46094,5.01562 -3.953,1.19307 -7.85448,2.52491 -11.76562,3.84766 -17.5764,5.89496 -35.27178,10.3484 -53.61792,13.02368 -3.63505,0.53453 -7.19813,1.14655 -10.77271,1.99976 -6.44307,1.4729 -12.99423,2.22647 -19.54687,3.03906 -1.03573,0.13023 -1.03573,0.13023 -2.09238,0.26309 -13.88055,1.73077 -27.75752,2.75836 -41.72525,3.50327 -2.93222,0.19602 -5.84764,0.44748 -8.77295,0.72363 -19.36005,1.78652 -38.82235,1.6703 -58.24634,1.64038 -3.72749,-0.006 -7.45492,-0.002 -11.18241,0.003 -20.64389,0.027 -41.2958,-0.0451 -61.85567,-2.13381 -6.23482,-0.59317 -12.4296,-1.07178 -18.69043,-1.2417 -12.26153,-0.34766 -24.38404,-1.721 -36.55957,-3.1333 -0.91898,-0.10519 -1.83797,-0.21038 -2.78479,-0.31876 -10.61923,-1.22381 -21.14054,-2.67001 -31.64759,-4.64462 -3.91637,-0.69003 -7.80609,-1.19796 -11.75512,-1.66162 -12.15316,-1.46222 -23.93538,-3.48473 -35.67188,-7.03516 -3.25892,-0.94478 -6.51084,-1.69321 -9.82812,-2.40234 -5.83345,-1.30027 -11.3301,-3.17313 -16.91797,-5.28125 -2.76738,-0.98986 -5.48732,-1.84025 -8.3086,-2.64453 -5.68201,-1.68099 -11.04412,-3.93636 -16.46093,-6.32422 -1.00596,-0.44135 -2.01191,-0.88269 -3.04834,-1.3374 -17.46403,-7.75465 -33.68281,-17.19022 -48.764164,-28.9751 -0.922969,-0.71672 -1.845938,-1.43344 -2.796875,-2.17188 -4.336167,-3.41248 -8.324717,-6.89642 -12.203125,-10.82812 -0.876563,-0.83016 -1.753125,-1.66031 -2.65625,-2.51563 -18.929361,-18.20131 -34.303355,-41.38088 -42.34375,-66.48437 -0.336446,-1.01321 -0.672891,-2.02641 -1.019531,-3.07031 -4.105123,-12.76125 -6.447033,-24.88234 -6.449219,-38.30469 -0.0071,-1.33977 -0.01485,-2.67953 -0.02307,-4.01929 -0.01332,-2.79004 -0.01507,-5.57981 -0.0092,-8.36987 0.0047,-2.81001 -0.009,-5.61889 -0.04102,-8.42871 -0.220458,-19.6027 0.326341,-38.64814 8.541992,-56.80713 0.417371,-1.30581 0.816418,-2.61779 1.1875,-3.9375 3.736594,-11.44454 10.140905,-22.12542 16.8125,-32.0625 0.560742,-0.88172 1.121484,-1.76344 1.699219,-2.67188 0.532382,-0.83015 1.064765,-1.66031 1.613281,-2.51562 0.470508,-0.73606 0.941015,-1.47211 1.425781,-2.23047 0.416367,-0.52207 0.832734,-1.04414 1.261719,-1.58203 0.66,0 1.32,0 2,0 0.268125,-0.80438 0.53625,-1.60875 0.8125,-2.4375 0.391875,-0.84563 0.78375,-1.69125 1.1875,-2.5625 0.99,-0.33 1.98,-0.66 3,-1 1.166666,-1.91667 1.166666,-1.91667 2,-4 0.33,-0.66 0.66,-1.32 1,-2 0.66,0 1.32,0 2,0 0.66,-1.32 1.32,-2.64 2,-4 0.66,0 1.32,0 2,0 0.328711,-0.82951 0.328711,-0.82951 0.664062,-1.67578 1.753158,-3.05009 4.11843,-5.18987 6.710938,-7.51172 0.533833,-0.48195 1.067666,-0.9639 1.617676,-1.46045 16.359155,-14.563347 35.712236,-26.594046 55.757326,-35.363771 1.40122,-0.615469 2.798,-1.241293 4.1875,-1.882813 38.15209,-17.511213 79.91849,-24.640493 121.31787,-29.761718 2.08233,-0.260802 4.16314,-0.53381 6.24316,-0.8125 10.48077,-1.376065 20.9601,-2.268236 31.50147,-3.03125 2.36676,-0.174373 4.73343,-0.349861 7.10003,-0.526439 1.64377,-0.122172 3.28763,-0.243137 4.9316,-0.362475 4.44618,-0.327543 8.8858,-0.68894 13.32374,-1.114306 14.78937,-1.392465 29.44439,-1.807907 44.29306,-1.797562 z m -82.0675,15.614182 c -5.37401,0.670831 -10.75229,1.237445 -16.14343,1.7491 -23.80595,2.016769 -23.80595,2.016769 -47.28125,6.195312 -2.93421,0.689975 -5.87153,1.246338 -8.84009,1.765625 -9.21238,1.616404 -18.17338,3.955538 -27.19361,6.409668 -2.84177,0.758984 -5.69949,1.445102 -8.56005,2.129395 -8.94665,2.230431 -17.40839,5.208428 -25.7461,9.140625 -4.06864,1.873493 -8.22349,3.52311 -12.38281,5.183593 -2.54689,0.993999 -2.54689,0.993999 -4.43359,3.113282 -1.03125,0.268125 -2.0625,0.53625 -3.125,0.8125 -2.90121,0.767559 -5.11368,1.830576 -7.62891,3.464843 -2.69487,1.728639 -5.39699,3.431747 -8.14063,5.082032 -8.24753,5.011255 -15.75969,10.353807 -23.105464,16.640627 -0.901055,0.7064 -1.80211,1.41281 -2.730469,2.14062 -9.813073,7.69544 -24.267286,19.85264 -28.269531,31.85938 -0.78375,0.7425 -1.5675,1.485 -2.375,2.25 -2.296282,2.40563 -3.140188,3.56621 -4.3125,6.5 -1.3125,3.25 -1.3125,3.25 -3.3125,4.25 -0.717621,1.6061 -1.42572,3.21711 -2.085938,4.84765 -1.019043,2.39955 -2.16982,4.70374 -3.351562,7.02735 -11.450242,22.83171 -13.957609,47.12347 -13.875,72.375 0.0025,0.88191 0.0051,1.76382 0.0077,2.67245 -0.187002,19.14182 -0.187002,19.14182 3.304779,37.82755 0.350625,1.17047 0.70125,2.34094 1.0625,3.54687 0.677551,2.58864 0.677551,2.58864 1.9375,3.70313 0.413157,2.33033 0.805186,4.66441 1.1875,7 1.079581,5.98008 2.694285,10.20333 6.410156,15.10937 1.579882,2.12998 2.526955,4.35007 3.5,6.8086 3.32487,7.67167 7.276493,14.89359 12.902344,21.08203 1.831995,2.40274 3.645301,4.8183 5.449219,7.24219 0.511757,0.58007 1.023515,1.16015 1.550781,1.75781 0.66,0 1.32,0 2,0 0.08766,0.59039 0.175312,1.18078 0.265625,1.78906 0.931715,2.80506 2.191849,3.75019 4.484375,5.58594 2.960271,2.46428 5.315416,4.91552 7.703125,7.94922 3.718683,4.02857 8.238599,7.30492 12.54688,10.67578 0.73089,0.58394 1.46179,1.16789 2.21484,1.76953 1.69825,1.41964 1.69825,1.41964 3.78516,1.23047 0,0.66 0,1.32 0,2 1.63324,1.0537 3.31243,2.03568 5,3 0.55043,0.41121 1.10086,0.82242 1.66796,1.24609 7.94626,5.85263 17.23411,9.11598 26.33204,12.75391 1.00031,0.40347 2.00062,0.80695 3.03125,1.22265 1.54918,0.62119 3.09986,1.23867 4.65234,1.85157 2.78459,1.11289 5.5501,2.2682 8.31641,3.42578 1.00289,0.41636 2.00578,0.83273 3.03906,1.26172 1.9171,0.80174 3.829,1.61607 5.73437,2.44531 4.57737,1.94504 8.14416,3.32796 13.22657,2.79297 0,1.32 0,2.64 0,4 7.58443,3.31819 15.94201,4.68824 24,6.4375 1.00804,0.21954 2.01609,0.43908 3.05468,0.66528 7.16788,1.54746 14.34821,2.9529 21.57032,4.22144 3.375,0.67578 3.375,0.67578 6.85546,1.73047 3.71358,0.99742 6.99418,1.25129 10.83204,1.38281 5.87203,0.26965 11.53126,0.94653 17.3125,2 8.63947,1.5578 17.27183,2.36776 26.01562,3.09375 4.00958,0.33579 7.99421,0.76902 11.98633,1.26758 9.37402,1.1642 18.72487,1.58447 28.16504,1.85961 1.57249,0.0473 1.57249,0.0473 3.17676,0.0955 0.92232,0.0239 1.84464,0.0479 2.79492,0.0725 2.63016,0.14108 5.19559,0.38334 7.81056,0.67635 5.17214,0.52254 10.27925,0.63869 15.47435,0.62663 0.94939,0.002 1.89879,0.004 2.87695,0.005 3.10687,0.004 6.21369,0.002 9.32056,-0.002 2.17896,6.7e-4 4.35792,0.002 6.53688,0.003 4.55485,0.001 9.10969,-6.5e-4 13.66454,-0.005 5.8144,-0.006 11.62876,-0.002 17.44317,0.004 4.49635,0.004 8.99268,0.002 13.48903,-1.3e-4 2.14284,-6.6e-4 4.28568,1.4e-4 6.42851,0.002 3.00463,0.003 6.00918,-10e-4 9.0138,-0.007 0.87046,0.002 1.74093,0.004 2.63777,0.006 5.43583,-0.0184 10.78,-0.36199 16.18877,-0.90593 2.6356,-0.25735 5.25501,-0.38299 7.90222,-0.44054 11.92749,-0.33629 23.53325,-1.27785 35.33203,-3.05078 3.09726,-0.4643 6.17648,-0.86563 9.29687,-1.13281 14.25293,-1.2235 28.15641,-4.40578 42.12236,-7.39515 3.71774,-0.79535 7.43885,-1.56188 11.17061,-2.28845 25.73583,-5.07201 25.73583,-5.07201 49.36328,-15.77734 2.79518,-1.47831 5.62106,-2.23209 8.66407,-3.08203 5.14296,-1.48389 8.89217,-3.35945 13.19531,-6.48828 4.46932,-3.05278 9.4372,-5.23226 14.30469,-7.57422 1.83552,-0.89133 3.66903,-1.78685 5.5,-2.6875 1.16015,-0.56268 1.16015,-0.56268 2.34375,-1.13672 2.2493,-1.22652 4.2142,-2.50297 6.15625,-4.17578 0,-0.66 0,-1.32 0,-2 0.99,0 1.98,0 3,0 0,-0.66 0,-1.32 0,-2 0.7425,-0.26813 1.485,-0.53625 2.25,-0.8125 2.64062,-1.14027 4.60552,-2.28131 6.75,-4.1875 0,-0.66 0,-1.32 0,-2 0.83531,-0.0928 0.83531,-0.0928 1.6875,-0.1875 3.27739,-1.15152 4.93207,-3.31596 7.3125,-5.8125 0.80437,-0.61875 1.60875,-1.2375 2.4375,-1.875 2.72031,-2.25587 4.83023,-4.67925 7.07812,-7.39063 1.48438,-1.73437 1.48438,-1.73437 4.23438,-4.42187 2.30188,-2.13202 2.30188,-2.13202 3.375,-4.5625 0.875,-1.75 0.875,-1.75 3.875,-2.75 1.76822,-2.41341 1.76822,-2.41341 3.4375,-5.3125 1.69959,-2.84786 3.2081,-5.3338 5.55859,-7.67969 5.50839,-5.51912 9.44575,-13.39018 11.00391,-21.00781 0.66,0 1.32,0 2,0 3.13099,-5.27011 5.39765,-10.04844 7,-16 0.48138,-0.78327 0.96276,-1.56654 1.45874,-2.37354 1.56419,-2.66555 2.33055,-4.91267 3.07641,-7.8999 0.25201,-0.99 0.50403,-1.98 0.76367,-3 0.25202,-1.02352 0.50403,-2.04703 0.76368,-3.10156 0.51106,-2.02881 1.02276,-4.05746 1.53515,-6.08594 0.2218,-0.89509 0.4436,-1.79019 0.67212,-2.7124 0.53631,-2.07601 1.14717,-4.13312 1.79907,-6.17578 1.00182,-3.92793 1.23721,-7.58093 1.23194,-11.60401 0.004,-0.74087 0.009,-1.48173 0.013,-2.24505 0.006,-1.55975 0.006,-3.11952 0.002,-4.67926 -0.003,-2.35253 0.0203,-4.70378 0.0457,-7.05616 0.0312,-7.61591 -0.21683,-14.49571 -2.63061,-21.8081 -0.76636,-2.36846 -1.20953,-4.67815 -1.60571,-7.1333 -1.35762,-7.13033 -3.86778,-14.43189 -7.66016,-20.63672 -1.46484,-2.48828 -1.46484,-2.48828 -2.41406,-5.33984 -1.24485,-3.72992 -2.9891,-7.08313 -4.86328,-10.52344 -0.53404,-0.99073 -0.53404,-0.99073 -1.07886,-2.00147 -2.53098,-4.65818 -5.22172,-9.177 -8.10864,-13.62353 -0.80438,-1.36125 -0.80438,-1.36125 -1.625,-2.75 -1.35016,-2.20935 -2.69502,-4.27784 -4.375,-6.25 -0.66,0 -1.32,0 -2,0 -0.2475,-0.72188 -0.495,-1.44375 -0.75,-2.1875 -1.3727,-3.08857 -2.97354,-5.32262 -5.25,-7.8125 -0.66,0 -1.32,0 -2,0 -0.0967,-0.58781 -0.19336,-1.17563 -0.29297,-1.78125 -0.85286,-2.67636 -1.98614,-3.80292 -4.01953,-5.71875 -0.62907,-0.59942 -1.25813,-1.19883 -1.90625,-1.81641 -0.58782,-0.55558 -1.17563,-1.11117 -1.78125,-1.68359 -0.76313,-0.80438 -1.52625,-1.60875 -2.3125,-2.4375 -1.54879,-1.78897 -1.54879,-1.78897 -3.6875,-1.5625 -0.24106,-0.5775 -0.48211,-1.155 -0.73047,-1.75 -1.51184,-2.67944 -3.25332,-4.24613 -5.58203,-6.25 -1.20463,-1.03834 -1.20463,-1.03834 -2.4336,-2.09766 -0.74379,-0.62777 -1.48758,-1.25555 -2.2539,-1.90234 -0.94875,-0.80438 -1.8975,-1.60875 -2.875,-2.4375 -2.13258,-1.7357 -2.13258,-1.7357 -5.125,-2.5625 -1.01372,-0.9861 -2.01239,-1.987764 -3,-3.000002 -1.32831,-0.933757 -2.68405,-1.829509 -4.0625,-2.6875 -0.69223,-0.436993 -1.38446,-0.873985 -2.09766,-1.324219 -1.78542,-1.146017 -1.78542,-1.146017 -3.83984,-0.988281 0,-0.66 0,-1.32 0,-2 -1.95586,-1.004842 -3.91477,-2.003738 -5.875,-3 -1.63582,-0.835313 -1.63582,-0.835313 -3.30469,-1.6875 -2.60407,-1.453141 -2.60407,-1.453141 -4.82031,-1.3125 0,-0.66 0,-1.32 0,-2 -0.59168,-0.253946 -1.18336,-0.507891 -1.79297,-0.769532 -0.7902,-0.344179 -1.58039,-0.688359 -2.39453,-1.042968 -0.77731,-0.336446 -1.55461,-0.672891 -2.35547,-1.019532 -2.45703,-1.167968 -2.45703,-1.167968 -4.8125,-2.636718 -3.15522,-1.826948 -6.33346,-3.004086 -9.76953,-4.21875 -1.21946,-0.436993 -2.43891,-0.873985 -3.69532,-1.324219 -3.1022,-1.136684 -3.1022,-1.136684 -6.17968,-0.988281 0,-0.66 0,-1.32 0,-2 -0.83532,-0.272637 -0.83532,-0.272637 -1.6875,-0.550782 -0.76313,-0.251367 -1.52625,-0.502734 -2.3125,-0.761718 -0.7425,-0.243633 -1.485,-0.487266 -2.25,-0.738282 -1.52207,-0.525372 -3.04042,-1.06403 -4.53785,-1.656005 -4.94572,-1.948315 -9.81994,-3.187194 -15.02465,-4.230713 -6.06725,-1.274617 -11.70995,-2.868471 -17.4961,-5.121094 -8.56521,-2.995961 -17.69302,-4.155729 -26.65234,-5.347656 -3.02182,-0.422291 -6.01587,-0.942432 -9.01563,-1.5 -14.54864,-2.696695 -29.08636,-4.405308 -43.81811,-5.768311 -2.3667,-0.240293 -4.72913,-0.52358 -7.08814,-0.830322 -4.09327,-0.519081 -8.18947,-0.809705 -12.30859,-1.030274 -0.79296,-0.04316 -1.58592,-0.08632 -2.40291,-0.130783 -57.41319,-3.014296 -115.71737,-3.153103 -172.82475,3.97934 z"
     fill="#74524f"
     id="path3" />
  <path
     d="m 494.84681,45.638158 c 4.12371,0.573508 8.26537,0.947684 12.40918,1.34375 8.07657,0.805207 16.00191,2.106487 23.97412,3.613281 2.09555,0.388048 4.19394,0.750922 6.29541,1.105469 7.48757,1.266223 14.93375,2.67084 22.35547,4.28125 0.72566,0.153962 1.45132,0.307924 2.19897,0.466552 4.25566,0.94652 8.20543,2.228534 12.2627,3.815186 3.2162,1.169168 6.51907,1.894884 9.85083,2.655762 5.56011,1.321375 10.77484,2.895735 16.01171,5.230468 2.34702,0.924055 4.63231,1.40188 7.11329,1.832032 0,0.66 0,1.32 0,2 1.27875,0.2475 2.5575,0.495 3.875,0.75 7.88219,1.762633 14.46206,4.707092 21.125,9.25 3.22492,1.243241 3.22492,1.243241 6,2 0,0.66 0,1.32 0,2 0.825,0.2475 1.65,0.495 2.5,0.75 4.02373,1.437048 7.71979,3.273545 11.5,5.25 0,0.66 0,1.32 0,2 0.86625,0.2475 1.7325,0.495 2.625,0.75 4.05469,1.501739 8.36423,3.228466 10.375,7.250002 1.66094,1.00948 3.3288,2.00758 5,3 1.89966,1.46864 3.77411,2.97034 5.625,4.5 1.41152,1.16015 1.41152,1.16015 2.85156,2.34375 4.06771,3.47582 4.06771,3.47582 5.52344,5.15625 0,0.66 0,1.32 0,2 0.68062,0.165 1.36125,0.33 2.0625,0.5 4.351,2.22179 6.86292,5.78263 9.9375,9.5 0.66,0.66 1.32,1.32 2,2 0,0.99 0,1.98 0,3 0.86625,0.30937 0.86625,0.30937 1.75,0.625 3.09477,1.89125 4.44187,4.27536 6.25,7.375 0,0.66 0,1.32 0,2 0.99,0.33 1.98,0.66 3,1 3.51508,3.63225 5.46973,7.81271 7.64062,12.30859 1.81975,3.6029 3.91572,7.00864 6.01563,10.45313 2.8977,4.8267 5.11541,9.936 7.37109,15.08203 0.78753,1.74585 1.65043,3.45758 2.53516,5.15625 1.86437,3.89086 3.1151,7.89865 4.4375,12 0.35179,1.05719 0.35179,1.05719 0.71069,2.13574 3.91406,12.19593 4.80298,24.09197 4.85181,36.80176 0.008,0.74095 0.017,1.4819 0.0257,2.2453 0.0846,10.37422 -1.3551,18.90826 -4.58822,28.8172 -0.35853,1.55691 -0.69849,3.11855 -1,4.6875 -1.34293,6.3909 -3.36839,12.86507 -7,18.3125 -0.28875,0.88687 -0.5775,1.77375 -0.875,2.6875 -1.35196,3.98077 -3.18076,7.5939 -5.125,11.3125 -0.66,0 -1.32,0 -2,0 -0.33,1.21687 -0.66,2.43375 -1,3.6875 -2.55486,7.72599 -7.17962,15.61562 -13,21.3125 -1.84375,2.60752 -3.61015,5.25912 -5.37891,7.91797 -0.53496,0.68707 -1.06992,1.37414 -1.62109,2.08203 -0.66,0 -1.32,0 -2,0 -0.22688,0.55687 -0.45375,1.11375 -0.6875,1.6875 -1.68617,2.97087 -3.86638,4.92073 -6.3125,7.3125 -1.1311,1.32816 -2.25571,2.66187 -3.375,4 -2.28239,2.65115 -4.48714,4.77602 -7.375,6.75 -2.88206,1.99527 -4.2263,3.51799 -6.25,6.25 -0.99,0 -1.98,0 -3,0 -0.33,0.99 -0.66,1.98 -1,3 -5.37143,4 -5.37143,4 -8,4 0,0.66 0,1.32 0,2 -0.99,0 -1.98,0 -3,0 0,0.66 0,1.32 0,2 -1.79297,1.4375 -1.79297,1.4375 -4.1875,3 -0.77731,0.51562 -1.55461,1.03125 -2.35547,1.5625 -2.44156,1.42845 -4.82982,2.3974 -7.45703,3.4375 -2.49706,1.26634 -4.97111,2.55205 -7.4375,3.875 -0.6426,0.33902 -1.2852,0.67804 -1.94727,1.02734 -3.03356,1.61995 -5.86099,3.26825 -8.69336,5.23438 -3.94535,2.51595 -7.92187,3.45368 -12.41016,4.64062 -2.92578,1.01865 -5.13679,2.08924 -7.78125,3.63281 -4.84616,2.78112 -9.7727,4.47705 -15.10546,6.08985 -0.96696,0.29769 -1.93392,0.59538 -2.93018,0.9021 -2.8939,0.88146 -5.79293,1.74317 -8.69482,2.5979 -0.77602,0.23219 -1.55204,0.46438 -2.35157,0.70361 -12.15302,3.59091 -24.54878,5.90481 -37.00537,8.15405 -6.37135,1.15126 -12.71539,2.35498 -19.0376,3.75562 -5.32673,1.16088 -10.55284,1.98334 -15.98046,2.44922 -1.63948,0.15465 -3.2788,0.31092 -4.91797,0.46875 -0.79713,0.076 -1.59425,0.15211 -2.41553,0.23047 -3.33854,0.34715 -6.65572,0.83145 -9.979,1.30078 -7.85966,1.01619 -15.70789,1.34277 -23.62574,1.59594 -0.96526,0.0315 -1.93053,0.063 -2.92505,0.0955 -0.84602,0.0239 -1.69205,0.0479 -2.56372,0.0725 -2.77085,0.1504 -5.50169,0.39901 -8.26175,0.67635 -5.386,0.49325 -10.70856,0.6392 -16.11422,0.62663 -1.42672,0.003 -1.42672,0.003 -2.88227,0.005 -3.10624,0.004 -6.21242,0.002 -9.31866,-0.002 -2.17993,6.7e-4 -4.35985,0.002 -6.53978,0.003 -4.55307,0.001 -9.10613,-6.5e-4 -13.6592,-0.005 -5.81559,-0.006 -11.63115,-0.002 -17.44674,0.004 -4.49631,0.004 -8.9926,0.002 -13.48891,-1.3e-4 -2.14366,-6.6e-4 -4.28732,1.4e-4 -6.43099,0.002 -3.00232,0.003 -6.00457,-10e-4 -9.00689,-0.007 -1.30873,0.003 -1.30873,0.003 -2.64391,0.006 -5.13484,-0.0174 -10.16174,-0.33382 -15.26525,-0.90593 -2.64279,-0.28362 -5.2678,-0.38738 -7.92458,-0.44054 -13.17906,-0.34301 -26.07387,-1.32755 -39.14453,-3.03125 -5.97,-0.77236 -11.94739,-1.31801 -17.94531,-1.82031 -6.2448,-0.52815 -12.30425,-1.22661 -18.44532,-2.51172 -3.46678,-0.55085 -6.92836,-0.65707 -10.42968,-0.80078 -6.80915,-0.31112 -12.9054,-1.67232 -19.46875,-3.58203 -3.91008,-1.07851 -7.79323,-1.88831 -11.78125,-2.60547 -0.66427,-0.12045 -1.32854,-0.2409 -2.01294,-0.36499 -1.33483,-0.24053 -2.66988,-0.47987 -4.00513,-0.71802 -10.23753,-1.8311 -20.10494,-4.07326 -29.98193,-7.35449 0,-1.32 0,-2.64 0,-4 -0.85981,0.0464 -1.71961,0.0928 -2.60547,0.14062 -3.72118,-0.15415 -6.26566,-0.99558 -9.70703,-2.39062 -1.14469,-0.46149 -2.28938,-0.92297 -3.46875,-1.39844 -4.10315,-1.72292 -8.16601,-3.51391 -12.21875,-5.35156 -2.58113,-1.15116 -5.1638,-2.29788 -7.75,-3.4375 -0.68949,-0.30462 -1.37898,-0.60925 -2.08936,-0.9231 -4.31754,-1.88899 -8.66703,-3.59153 -13.09814,-5.2019 -5.637,-2.1165 -10.19958,-4.93943 -15.0625,-8.4375 -1.01063,-0.5775 -2.02125,-1.155 -3.0625,-1.75 -0.63938,-0.4125 -1.27875,-0.825 -1.9375,-1.25 0,-0.66 0,-1.32 0,-2 -0.72317,-0.24106 -1.44633,-0.48211 -2.19141,-0.73047 -3.1934,-1.44347 -5.197316,-3.18626 -7.746094,-5.58203 -4.105937,-3.81244 -4.105937,-3.81244 -8.375,-7.4375 -2.730015,-2.2856 -5.202797,-4.70159 -7.6875,-7.25 -0.928125,-0.86625 -1.85625,-1.7325 -2.8125,-2.625 -2.1875,-2.375 -2.1875,-2.375 -2.1875,-5.375 -0.99,-0.33 -1.98,-0.66 -3,-1 -1.324219,-1.46094 -1.324219,-1.46094 -2.6875,-3.375 -0.519492,-0.72317 -1.038985,-1.44633 -1.574219,-2.19141 -0.573633,-0.80308 -1.147266,-1.60617 -1.738281,-2.43359 -0.645821,-0.85465 -1.291641,-1.7093 -1.957031,-2.58985 -5.457747,-7.27351 -10.202185,-14.78986 -13.667969,-23.22265 -1.258454,-3.2372 -1.258454,-3.2372 -3.363281,-5.92578 -2.243869,-3.63812 -2.885871,-6.43736 -3.574219,-10.63672 -0.97219,-5.52005 -2.308185,-10.44058 -4.4375,-15.625 -4.368153,-12.37644 -3.276305,-26.75679 -3.3125,-39.75 -0.0026,-0.90264 -0.0052,-1.80527 -0.0079,-2.73526 -0.0046,-14.84103 0.931913,-29.008 4.320435,-43.51474 0.170801,-0.73686 0.341601,-1.47372 0.517578,-2.23291 2.306964,-9.57843 6.086056,-18.12298 10.544922,-26.84912 0.920679,-1.88356 1.717384,-3.78616 2.5,-5.73047 1.311653,-2.90845 2.223936,-4.07018 4.4375,-6.1875 0.433125,-1.17563 0.433125,-1.17563 0.875,-2.375 1.423521,-3.32155 3.551696,-5.11446 6.125,-7.625 1.001641,-1.66568 2.001436,-3.33247 3,-5 2.880751,-3.7658 5.939688,-7.37928 9,-11 0.727031,-0.86496 1.454062,-1.72992 2.203125,-2.6211 5.397847,-6.22305 11.298369,-11.33696 17.796875,-16.3789 1.045014,-0.83371 2.089259,-1.66837 3.132809,-2.50391 7.30084,-5.792879 14.83766,-10.747667 22.86719,-15.496092 0.93328,-0.580079 1.86656,-1.160157 2.82812,-1.757813 4.35226,-2.697357 8.2688,-4.709975 13.17188,-6.242187 1.53004,-0.752388 3.04981,-1.525805 4.5625,-2.3125 4.96459,-2.538289 10.04721,-4.542254 15.26562,-6.496094 3.54953,-1.333258 7.05749,-2.753723 10.5625,-4.199219 7.38114,-2.806596 14.76964,-4.821719 22.48439,-6.492187 8.51616,-1.87215 8.51616,-1.87215 16.9375,-4.125 7.27307,-2.051678 14.73537,-3.185051 22.1875,-4.375 0.79696,-0.129068 1.59392,-0.258135 2.41503,-0.391114 11.13864,-1.778566 22.23075,-2.961618 33.47973,-3.76709 11.72324,-0.882539 23.35332,-2.422959 35.00757,-3.939453 61.57505,-7.896703 130.1683,-8.389738 191.62598,0.753907 z m -159.74952,0.967773 c -4.59898,0.622249 -9.21789,0.986304 -13.8413,1.375977 -7.08995,0.624108 -14.00738,1.634239 -20.99634,2.967041 -4.16209,0.776048 -8.21496,1.254784 -12.44116,1.470459 -7.82419,0.433673 -15.47232,1.764115 -23.19507,3.054931 -5.78699,0.962839 -11.53167,1.791065 -17.36743,2.382569 -16.42212,1.960336 -32.48345,6.981418 -48.0376,12.460937 -2.76688,0.967091 -5.55227,1.876136 -8.3374,2.789063 -4.64567,1.548553 -9.25317,3.184811 -13.84766,4.878906 -1.81575,0.666211 -3.63618,1.319806 -5.46094,1.960937 -9.16334,3.236413 -17.87636,7.266161 -26.53515,11.664063 -1.99138,1.00427 -3.99292,1.988455 -6,2.960937 -8.14537,3.973568 -16.35311,8.087809 -23.71875,13.410159 0,0.66 0,1.32 0,2 -1.05381,0.36158 -1.05381,0.36158 -2.12891,0.73047 -5.5414,2.45027 -10.11769,6.56174 -14.871094,10.26953 -0.697383,0.53883 -1.394766,1.07765 -2.113281,1.63281 -1.340391,1.06847 -2.623133,2.2089 -3.886719,3.36719 0,0.66 0,1.32 0,2 -1.98,0.99 -1.98,0.99 -4,2 0,0.66 0,1.32 0,2 -0.66,0 -1.32,0 -2,0 -1.35374,1.50904 -2.634434,3.08412 -3.875,4.6875 -0.678047,0.87011 -1.356094,1.74023 -2.054688,2.63672 -1.024804,1.32451 -1.024804,1.32451 -2.070312,2.67578 -0.683203,0.76054 -1.366406,1.52109 -2.070313,2.30469 -2.507772,3.50275 -3.639521,7.05319 -4.929687,11.13281 -1.744225,5.48664 -3.66374,9.79443 -7,14.5625 -0.527288,1.81255 -1.042019,3.6316 -1.441406,5.47656 -0.732073,3.30713 -1.616965,6.56491 -2.496094,9.83594 -0.493707,1.8489 -0.987385,3.69781 -1.480469,5.54687 -0.424224,1.56024 -0.860814,3.11712 -1.304687,4.67188 -1.854911,6.56713 -3.257027,13.11845 -4.402344,19.84375 -0.168867,0.93844 -0.337735,1.87687 -0.511719,2.84375 -2.065975,11.94036 -2.528039,23.80674 -2.488281,35.90625 -0.0039,1.18465 -0.0077,2.36929 -0.01172,3.58984 -0.672853,13.43223 -0.672853,13.43223 4.136719,25.28516 0.672607,2.052 0.672607,2.052 1.105469,4.23828 0.174829,0.81348 0.349658,1.62696 0.529785,2.46509 0.182241,0.86101 0.364482,1.72202 0.552246,2.60913 2.352336,10.26041 5.93841,21.26768 13.8125,28.6875 0.906811,1.26953 1.779095,2.56409 2.625,3.875 2.61805,3.99252 5.287912,7.94588 8,11.875 0.734765,1.06734 1.469531,2.13469 2.226562,3.23437 4.171724,5.85559 8.614705,10.90418 14.148438,15.51563 3.576265,2.98021 6.802605,6.18673 9.937505,9.625 2.01902,2.01652 2.01902,2.01652 4.8125,3.1875 2.90061,1.50608 4.59057,2.81145 6.9375,5 9.76235,8.78427 24.81449,15.41766 37.625,18.1875 0.55687,0.165 1.11375,0.33 1.6875,0.5 0.33,0.66 0.66,1.32 1,2 1.65224,0.50579 3.30842,1.00161 4.98046,1.4375 2.01983,0.56258 3.93825,1.24728 5.89454,2 1.37451,0.5221 2.74957,1.04279 4.125,1.5625 0.96728,0.37318 0.96728,0.37318 1.9541,0.7539 6.23112,2.25513 12.35276,3.10694 18.9209,3.8086 6.92473,0.77186 13.75032,1.68709 20.59716,2.98462 3.54261,0.63468 7.07274,1.01671 10.65284,1.39038 6.5564,0.71867 13.00248,1.75011 19.48535,2.95459 5.7904,1.05413 11.58784,1.76702 17.43652,2.40869 4.73582,0.52816 9.3653,1.29238 14.03906,2.20312 4.9447,0.8418 9.93453,1.31914 14.92188,1.83594 2.79164,0.32376 5.50121,0.7627 8.2583,1.31812 13.96059,2.78068 28.05348,3.56121 42.23888,4.40329 2.14246,0.12758 4.28471,0.25829 6.42695,0.38952 21.97384,1.33736 43.86868,2.15224 65.88428,1.60318 2.26544,-0.056 4.53095,-0.10532 6.79657,-0.15356 13.87734,-0.30276 27.75716,-0.67028 41.60864,-1.60425 4.49695,-0.28858 8.9029,-0.20623 13.40357,-0.0461 10.07369,0.0802 19.63493,-2.33565 29.4082,-4.57862 5.25495,-1.18919 10.53739,-2.24676 15.81567,-3.32666 3.29471,-0.68827 6.50241,-1.44564 9.74097,-2.37597 3.45996,-0.9829 6.8684,-1.65915 10.41016,-2.28125 9.78783,-1.77099 19.48979,-3.9212 29.20068,-6.06885 2.61596,-0.57813 5.23286,-1.15181 7.8501,-1.72412 8.35177,-1.83267 16.67021,-3.75173 24.94922,-5.89453 0,-0.66 0,-1.32 0,-2 1.25812,-0.20625 2.51625,-0.4125 3.8125,-0.625 5.06838,-1.10946 9.11929,-3.33849 13.58984,-5.91016 3.12216,-1.76062 6.27346,-3.13516 9.59766,-4.46484 0,-0.66 0,-1.32 0,-2 1.42312,-0.46406 1.42312,-0.46406 2.875,-0.9375 2.9858,-0.93645 2.9858,-0.93645 5.125,-2.0625 0,-0.66 0,-1.32 0,-2 2.31,-0.66 4.62,-1.32 7,-2 0,-0.66 0,-1.32 0,-2 0.78375,-0.30938 1.5675,-0.61875 2.375,-0.9375 2.5483,-0.99125 2.5483,-0.99125 4.625,-2.0625 0,-0.66 0,-1.32 0,-2 0.88687,-0.22688 1.77375,-0.45375 2.6875,-0.6875 3.86467,-1.53129 5.48491,-3.28294 8.3125,-6.3125 3.41711,-3.11028 6.87613,-6.15025 10.5625,-8.9375 3.55184,-3.00541 6.4329,-6.52092 9.4375,-10.0625 1.24619,-1.46159 2.49608,-2.92004 3.75,-4.375 0.55171,-0.64711 1.10343,-1.29422 1.67187,-1.96094 1.57813,-1.66406 1.57813,-1.66406 4.57813,-3.66406 1.12224,-1.88013 1.12224,-1.88013 2.125,-4.0625 2.02565,-3.83581 4.30593,-6.56463 7.4375,-9.5625 4.76653,-4.56827 8.0054,-8.24231 8.9375,-15 0.58827,-3.97082 1.9098,-5.39235 4.5,-8.375 0.68387,-1.65968 1.34938,-3.327 2,-5 0.74385,-1.33678 1.49426,-2.66991 2.25,-4 9.1059,-18.59236 9.53152,-36.621 8.75,-57 -0.0592,-2.05077 -0.11789,-4.10155 -0.17579,-6.15235 -0.0627,-1.78268 -0.12878,-3.56525 -0.19921,-5.34765 -0.0304,-0.7877 -0.0607,-1.5754 -0.092,-2.38697 -0.23411,-4.34521 -0.95406,-8.05669 -2.53295,-12.11303 -0.66,0 -1.32,0 -2,0 0.0412,-1.03125 0.0825,-2.0625 0.125,-3.125 -0.12076,-3.7433 -0.77372,-6.41235 -2.125,-9.875 -0.66,0 -1.32,0 -2,0 -0.15469,-1.60875 -0.15469,-1.60875 -0.3125,-3.25 -0.6828,-3.72434 -1.30045,-4.98102 -3.6875,-7.75 -0.69581,-1.31837 -1.37225,-2.64791 -2,-4 -0.66,0 -1.32,0 -2,0 -0.2475,-0.66 -0.495,-1.32 -0.75,-2 -3.20459,-7.69101 -6.86746,-13.74357 -12.87891,-19.58203 -1.37109,-1.41797 -1.37109,-1.41797 -2.24609,-3.29297 -2.10389,-3.974 -4.86933,-6.70645 -9.125,-8.125 0,-0.99 0,-1.98 0,-3 -1.97134,-1.37536 -3.97682,-2.70211 -6,-4 -1.68712,-1.64597 -3.35457,-3.31237 -5,-5 -0.825,-0.63938 -1.65,-1.27875 -2.5,-1.9375 -2.5,-2.0625 -2.5,-2.0625 -5,-5.125 -2.44736,-2.87565 -4.27531,-4.09482 -7.5,-5.9375 -1.05588,-0.90027 -2.09607,-1.81906 -3.125,-2.75 -3.80289,-3.35992 -7.98614,-5.92517 -12.32422,-8.53906 -2.55078,-1.71094 -2.55078,-1.71094 -4.63282,-3.92188 -1.96832,-2.2438 -1.96832,-2.2438 -5.91796,-1.789062 0,-0.66 0,-1.32 0,-2 -3.55761,-2.615885 -6.64478,-3.493578 -11,-4 0,-0.66 0,-1.32 0,-2 -0.99,-0.391875 -1.98,-0.78375 -3,-1.1875 -3.70135,-1.567982 -6.96106,-3.599923 -10.30079,-5.824219 -1.65974,-1.155868 -1.65974,-1.155868 -3.69921,-0.988281 0,-0.66 0,-1.32 0,-2 -3.95974,-2.343517 -7.81139,-4.413815 -12.07813,-6.160157 -2.22087,-0.970503 -4.33809,-2.089096 -6.48437,-3.214843 -8.71753,-4.405346 -17.95758,-7.375527 -27.4375,-9.625 -1.31613,-0.447811 -2.62838,-0.907102 -3.9375,-1.375 -20.244,-6.816505 -42.10291,-9.400349 -63.28614,-11.355469 -3.20751,-0.311387 -6.40924,-0.665292 -9.6123,-1.019531 -15.54398,-1.672786 -30.92733,-2.587555 -46.55274,-2.904297 -8.24474,-0.17426 -16.40183,-0.595062 -24.61132,-1.408203 -26.21984,-2.434907 -53.17077,-2.120467 -79.2212,1.686523 z"
     fill="#eed0b8"
     id="path4" />
  <path
     d="m 224.31849,179.98191 c 0,0.99 0,1.98 0,3 0.55687,-0.35063 1.11375,-0.70125 1.6875,-1.0625 2.86294,-1.16065 4.36364,-0.63682 7.3125,0.0625 0.18219,10.08169 0.27298,20.04023 -0.9375,30.0625 -1.85617,15.54457 -1.74815,31.30144 -2.0625,46.9375 2.31,-1.32 4.62,-2.64 7,-4 -0.4834,-1.28198 -0.4834,-1.28198 -0.97657,-2.58985 -3.38326,-11.27322 -0.65727,-22.93834 4.36719,-33.26953 3.39262,-6.03528 6.79998,-10.56376 13.35547,-13.27734 3.66592,-0.97259 6.54117,-0.95923 10.31641,-0.67578 1.18722,0.0761 2.37445,0.15211 3.59765,0.23047 4.46483,0.77808 7.16335,2.40553 10.33985,5.58203 0.5652,2.65537 0.73788,5.29144 1,8 0.70576,-0.92233 0.70576,-0.92233 1.42578,-1.86328 0.62261,-0.80825 1.24523,-1.61649 1.88672,-2.44922 0.61488,-0.80051 1.22976,-1.60102 1.86328,-2.42578 4.59393,-5.6957 4.59393,-5.6957 8.82422,-6.26172 2.16824,0.011 4.33684,0.10116 6.5,0.25 1.12406,0.067 2.24812,0.13406 3.40625,0.20312 3.30375,0.584 4.53828,1.4928 7.09375,3.54688 2.05361,0.49218 2.05361,0.49218 4.125,0.5625 3.875,0.4375 3.875,0.4375 5.875,2.4375 0.9157,6.50504 -0.44611,11.04092 -3,17 -1.20277,8.38851 1.17573,16.85594 3,25 1.98,0.66 3.96,1.32 6,2 0.6875,2.3125 0.6875,2.3125 1,5 -0.99219,1.64062 -0.99219,1.64062 -3,3 -2.70403,0.32731 -5.1125,0.46442 -7.8125,0.4375 -0.69932,0.02 -1.39864,0.04 -2.11914,0.0605 -5.09621,-0.005 -8.12128,-1.03498 -12.06836,-4.49804 -0.45762,-1.05832 -0.91524,-2.11664 -1.38672,-3.20703 -0.53239,-0.92168 -1.06477,-1.84336 -1.61328,-2.79297 -2.85062,-0.55645 -4.96891,-0.75195 -7.8125,-0.6875 -7.09779,0.0458 -11.61221,-1.07311 -17.0625,-5.8125 -2.79388,-3.63204 -2.69491,-7.21771 -2.5,-11.66406 0.55222,-4.1762 1.76513,-7.95501 3.375,-11.83594 -0.72188,0.7425 -1.44375,1.485 -2.1875,2.25 -5.73304,5.60563 -10.52751,9.75 -18.8125,9.75 0.495,4.95 0.495,4.95 1,10 5.28,0.66 10.56,1.32 16,2 0,1.65 0,3.3 0,5 -4.75525,4.50496 -7.97373,5.16125 -14.3125,5.125 -1.31614,0.003 -2.63227,0.005 -3.98829,0.008 -3.05842,-0.10981 -5.73835,-0.41121 -8.69921,-1.13281 -0.18563,1.82531 -0.18563,1.82531 -0.375,3.6875 -0.89235,6.6057 -2.82329,10.61734 -8.00391,14.98047 -5.21778,2.65165 -11.10593,1.77506 -16.62109,0.33203 -3.53008,-2.29743 -4.77952,-3.11805 -5.8125,-7.25 -0.0619,-0.9075 -0.12375,-1.815 -0.1875,-2.75 -0.66,0 -1.32,0 -2,0 -0.20606,-23.10076 0.1225,-46.20763 2.13241,-69.23169 0.11944,-1.38003 0.23297,-2.76059 0.34039,-4.1416 0.15223,-1.91499 0.33316,-3.82763 0.51548,-5.73999 0.0984,-1.09095 0.19674,-2.1819 0.29809,-3.30591 0.71363,-2.58081 0.71363,-2.58081 2.60498,-3.94092 2.45873,-0.74613 4.55309,-0.78187 7.10865,-0.63989 z"
     fill="#724f4d"
     id="path5" />
  <path
     d="m 585.31849,187.98191 c 0,0.99 0,1.98 0,3 0.55687,-0.35063 1.11375,-0.70125 1.6875,-1.0625 2.86294,-1.16065 4.36364,-0.63682 7.3125,0.0625 0.12867,8.0635 -0.20319,15.97497 -1,24 0.7483,-0.54141 0.7483,-0.54141 1.51171,-1.09375 6.60632,-4.2698 12.71352,-4.96594 20.48829,-3.90625 2,2 2,2 2.01953,4.32422 -1.43633,3.76966 -4.0767,5.364 -7.33203,7.48828 -0.58202,0.4067 -1.16403,0.8134 -1.76368,1.23242 -3.33473,2.24708 -4.79327,2.95508 -8.92382,2.95508 0,0.66 0,1.32 0,2 -1.65,0.66 -3.3,1.32 -5,2 -0.0273,2.97923 -0.047,5.9582 -0.0625,8.9375 -0.008,0.8308 -0.0168,1.6616 -0.0254,2.51758 -0.0163,4.19341 0.0688,8.36348 0.40039,12.54492 0.0851,1.08088 0.0851,1.08088 0.17187,2.18359 0.42265,2.23261 0.42265,2.23261 3.57813,3.87891 1.45406,0.46406 1.45406,0.46406 2.9375,0.9375 -0.30106,4.21472 -1.21096,7.64074 -4.07422,10.86719 -4.85971,2.85865 -11.90868,1.90402 -17.1875,0.55468 -2.77377,-2.26888 -3.22639,-5.31765 -3.98828,-8.67187 -0.16984,-0.70641 -0.33967,-1.41281 -0.51465,-2.14063 -1.53292,-6.9089 -1.63288,-13.54226 -1.23535,-20.60937 -0.9784,0.10828 -0.9784,0.10828 -1.97657,0.21875 -0.87398,0.0928 -1.74797,0.18562 -2.64843,0.28125 -0.85852,0.0928 -1.71704,0.18562 -2.60157,0.28125 -2.93545,0.23153 -5.83008,0.25327 -8.77343,0.21875 0.55718,4.84815 1.25808,9.4268 3,14 2.88483,2.07916 5.52648,2.5364 9,3 1,1 1,1 1.4375,3.75 -0.4375,3.25 -0.4375,3.25 -2.5,6.125 -4.45935,3.30163 -10.08466,2.73574 -15.37891,2.78906 -4.35478,-0.81264 -5.69035,-2.39478 -8.55859,-5.66406 -2.62767,-0.9622 -2.62767,-0.9622 -5,-1 -0.33,0.33 -0.66,0.66 -1,1 -2.88983,0.18173 -5.73285,0.27834 -8.625,0.3125 -1.19303,0.0435 -1.19303,0.0435 -2.41016,0.0879 -5.80566,0.062 -9.28133,-0.89083 -13.96484,-4.40039 -0.91407,-1.96875 -0.91407,-1.96875 -1,-4 -0.0902,-0.71156 -0.18047,-1.42313 -0.27344,-2.15625 -0.47097,-10.86857 4.9489,-21.22217 11.27344,-29.84375 3.50222,-3.66651 6.71879,-6.72171 11.98046,-7.16797 5.35479,-0.0474 9.87595,0.67165 15.01954,2.16797 0,3.63 0,7.26 0,11 0.99,-0.66 1.98,-1.32 3,-2 1.32,0 2.64,0 4,0 0,0.66 0,1.32 0,2 1.37581,-0.6023 2.7506,-1.20695 4.125,-1.8125 0.7657,-0.33645 1.5314,-0.67289 2.32031,-1.01953 2.88799,-1.32036 5.71735,-2.74248 8.55469,-4.16797 0.0198,-0.91814 0.0396,-1.83627 0.0601,-2.78223 0.0782,-3.41449 0.16491,-6.82855 0.25733,-10.24267 0.0382,-1.47616 0.0731,-2.9524 0.10449,-4.42872 0.0458,-2.12516 0.10376,-4.24971 0.16406,-6.37451 0.0314,-1.27778 0.0629,-2.55556 0.0952,-3.87207 0.29445,-3.04736 0.54435,-4.83386 2.31885,-7.2998 3.1964,-1.06547 5.65747,-1.07428 9,-1 z"
     fill="#724f4d"
     id="path6" />
  <path
     d="m 489.56849,186.10691 c 1.55461,0.15855 1.55461,0.15855 3.14062,0.32031 2.60938,0.55469 2.60938,0.55469 4.60938,2.55469 0.0117,2.87109 0.0117,2.87109 -0.3125,6.4375 -0.10829,1.2491 -0.21657,2.4982 -0.32813,3.78515 -0.11859,1.24653 -0.23719,2.49305 -0.35937,3.77735 -0.098,1.11246 -0.19594,2.22492 -0.29688,3.37109 -0.22495,2.54398 -0.45928,5.08668 -0.70312,7.62891 0.89203,0.0374 1.78406,0.0748 2.70312,0.11328 1.17047,0.0657 2.34094,0.13148 3.54688,0.19922 1.16015,0.058 2.32031,0.11601 3.51562,0.17578 3.4915,0.5524 4.75908,1.05232 7.23438,3.51172 0.46997,2.52441 0.46997,2.52441 0.42578,5.51562 -0.0126,1.63002 -0.0126,1.63002 -0.0254,3.29297 -0.029,1.13567 -0.058,2.27133 -0.0879,3.44141 -0.0145,1.68029 -0.0145,1.68029 -0.0293,3.39453 -0.0754,5.55238 -0.38597,10.88025 -1.2832,16.35547 -0.12843,1.7264 -0.21698,3.45664 -0.25,5.1875 -0.0387,1.22783 -0.0387,1.22783 -0.0781,2.48047 0.40032,2.84514 1.54516,4.13037 3.32813,6.33203 -0.0845,2.78891 -0.69883,3.71388 -2.71875,5.63281 -2.886,1.72962 -4.40799,1.57 -7.71875,1.17969 -0.92684,-0.0967 -1.85368,-0.19336 -2.8086,-0.29297 -3.53924,-0.66769 -6.79144,-1.28208 -9.0664,-4.20703 -0.93532,-3.14607 -0.81292,-6.05175 -0.6875,-9.3125 -1.94907,0.30937 -1.94907,0.30937 -3.9375,0.625 -4.9397,0.78408 -9.2894,-0.42375 -14.0625,-1.625 -0.32676,-15.24506 -0.13768,-29.97073 2.28906,-45.03906 0.51337,-3.26149 0.82719,-6.43404 0.92187,-9.73438 0.032,-1.10843 0.032,-1.10843 0.0647,-2.23926 0.0342,-1.95642 0.0312,-3.9134 0.0251,-5.87011 0.69922,-3.11719 0.69922,-3.11719 3.35156,-5.55469 3.68768,-1.72121 5.598,-1.90982 9.59766,-1.4375 z"
     fill="#724f4d"
     id="path7" />
  <path
     d="m 204.15052,181.86081 c 2.28022,1.11341 4.35727,2.31041 6.16797,4.1211 0.4375,2.75 0.4375,2.75 0,6 -3.02127,3.73683 -3.02127,3.73683 -6,5 -4.44269,0.21965 -8.58227,-0.55893 -12.8125,-1.875 -0.72188,-0.0412 -1.44375,-0.0825 -2.1875,-0.125 -7.69707,6.8895 -13.50925,16.30345 -17,26 -0.29778,0.79277 -0.59555,1.58554 -0.90235,2.40234 -1.9007,5.82473 -2.40248,11.39054 -2.47265,17.47266 -0.0139,0.72574 -0.0277,1.45148 -0.042,2.19922 0.04,4.53421 0.83797,7.22781 3.417,10.92578 0,0.66 0,1.32 0,2 5.54548,-1.54547 9.79038,-3.37917 14.5625,-6.625 4.74324,-3.13346 7.74293,-4.47152 13.4375,-4.375 3.5,0.9375 3.5,0.9375 6,2 -0.4354,4.93446 -2.63297,7.47991 -6,11 -4.3,3 -4.3,3 -7,3 0,0.66 0,1.32 0,2 -7.12633,3.25575 -13.50362,4.39044 -21.25,4 -0.74363,-0.0296 -1.48726,-0.0591 -2.25342,-0.0896 -6.58847,-0.48043 -12.10254,-2.57936 -16.87158,-7.2229 -5.87064,-9.70914 -4.3877,-22.49786 -2.5,-33.27344 3.12236,-12.1828 9.36514,-22.45913 16.875,-32.41406 0.5414,-0.7786 1.08281,-1.55719 1.64062,-2.35938 0.67289,-0.81211 0.67289,-0.81211 1.35938,-1.64062 0.66,0 1.32,0 2,0 0.33,-0.99 0.66,-1.98 1,-3 8.49666,-7.156 20.38563,-8.36308 30.83203,-5.1211 z"
     fill="#72504e"
     id="path8" />
  <path
     d="m 473.31849,342.98191 c 13.2,0 26.4,0 40,0 0,6.78791 -0.10955,8.00287 -3.5,13.25 -2.79228,4.05989 -2.79228,4.05989 -3.5,8.75 4.95,1.32 9.9,2.64 15,4 -1.12431,7.87012 -1.12431,7.87012 -3.33594,10.2539 -0.72256,0.80583 -0.72256,0.80583 -1.45972,1.62793 -0.52118,0.55462 -1.04237,1.10924 -1.57934,1.68067 -1.1003,1.22288 -2.1979,2.44821 -3.29297,3.67578 -0.55736,0.62084 -1.11472,1.24169 -1.68897,1.88135 -2.57276,2.94434 -4.94879,6.03112 -7.33056,9.13037 -9.24362,11.91506 -9.24362,11.91506 -14.3125,16.75 -0.66,0 -1.32,0 -2,0 -1.63495,-10.30925 2.80424,-18.32843 7.26562,-27.29517 0.86625,-1.70159 0.86625,-1.70159 0.73438,-3.70483 -0.90879,-0.18176 -1.81758,-0.36352 -2.75391,-0.55078 -1.94411,-0.38883 -3.88817,-0.77795 -5.83081,-1.17408 -3.553,-0.72107 -7.1052,-1.40245 -10.68091,-2.0017 -0.67861,-0.11948 -1.35722,-0.23896 -2.0564,-0.36207 -1.90768,-0.33436 -3.81818,-0.65254 -5.72876,-0.96997 -2.94921,-0.9414 -2.94921,-0.9414 -4.39453,-2.79687 -1.9452,-7.52054 3.37055,-15.32685 6.78907,-21.71484 2.0095,-3.91196 2.0095,-3.91196 3.65625,-10.42969 z"
     fill="#f1d08d"
     id="path9" />
  <path
     d="m 450.69349,178.60691 c 0.7425,-0.0245 1.485,-0.049 2.25,-0.0742 5.25054,-0.0278 8.22276,0.97438 12.375,4.44922 2.56687,3.85031 1.83288,5.5857 1,10 -4.63646,0.92729 -7.79259,0.83891 -12.4375,-0.125 -2.83422,-0.4177 -2.83422,-0.4177 -5.5625,0.125 -3.65204,3.08728 -5.72141,6.83995 -8,11 -0.602,0.97711 -1.20399,1.95422 -1.82422,2.96094 -4.95998,8.99501 -5.74538,18.95722 -4.17578,29.03906 1.24916,4.14354 3.15967,7.65293 6.0625,10.875 0.5066,0.57492 1.0132,1.14984 1.53515,1.74219 2.35242,2.31965 3.43898,2.38414 6.83985,2.50781 3.42583,-0.0312 6.78129,-0.32969 10.1875,-0.6875 3.99973,-0.40053 7.42953,-0.39721 11.375,0.5625 0.25,2.25 0.25,2.25 0,5 -2.76348,3.45435 -5.75945,5.7212 -10.20728,6.27466 -2.61925,0.0286 -5.23577,0.0538 -7.85522,0.0378 -0.9465,-0.006 -1.89299,-0.0113 -2.86817,-0.0171 -10.71962,-0.18622 -19.84384,-1.96363 -28.06933,-9.29541 -8.15224,-9.62722 -7.81167,-22.07 -7,-34 1.91769,-13.91754 11.50147,-27.35358 21.75,-36.4375 4.87114,-3.38274 8.71081,-3.92734 14.625,-3.9375 z"
     fill="#73514f"
     id="path10" />
  <path
     d="m 615.31849,304.98191 c 1.34222,3.6468 0.63574,5.52509 -0.9375,9 -1.56425,3.47845 -2.0625,5.06311 -2.0625,9 0.81984,0.26554 1.63968,0.53109 2.48437,0.80469 1.07766,0.3532 2.15531,0.7064 3.26563,1.07031 1.06734,0.34804 2.13468,0.69609 3.23437,1.05469 2.47112,0.87705 4.71299,1.82957 7.01563,3.07031 -0.46832,4.62566 -2.13398,6.62526 -5.4375,9.8125 -0.80309,0.79019 -1.60618,1.58039 -2.4336,2.39453 -2.1289,1.79297 -2.1289,1.79297 -4.1289,1.79297 0,0.66 0,1.32 0,2 -1.53907,1.55078 -1.53907,1.55078 -3.625,3.3125 -0.72832,0.61617 -1.45664,1.23234 -2.20704,1.86719 -0.71543,0.6007 -1.43085,1.2014 -2.16796,1.82031 -0.87205,0.7773 -0.87205,0.7773 -1.76172,1.57031 -3.89025,3.42969 -3.89025,3.42969 -7.23828,3.42969 -0.32045,-5.34083 0.46579,-8.33707 3,-13 0.69907,-2.73573 0.69907,-2.73573 1,-5 -0.98227,-0.12375 -1.96454,-0.2475 -2.97657,-0.375 -4.2066,-0.60185 -8.28311,-1.57912 -12.39843,-2.625 -0.72317,-0.17789 -1.44633,-0.35578 -2.19141,-0.53906 -5.30683,-1.33418 -5.30683,-1.33418 -6.43359,-2.46094 -0.32222,-6.01465 0.50996,-11.19087 2,-17 0.28617,-1.16209 0.28617,-1.16209 0.57812,-2.34766 0.46572,-1.88617 0.94262,-3.76957 1.42188,-5.65234 10.3305,-3.26227 21.23244,-3.22802 32,-3 z"
     fill="#c5a188"
     id="path11" />
  <path
     d="m 263.31849,93.981908 c 0.495,0.495 0.495,0.495 1,1 -0.3428,6.398942 -2.15922,11.292012 -5,17.000002 0.718,0.13535 1.43601,0.2707 2.17578,0.41015 2.71594,0.56723 5.34894,1.24987 8.01172,2.02735 0.8598,0.24621 1.71961,0.49242 2.60546,0.74609 2.20704,0.81641 2.20704,0.81641 4.20704,2.81641 -0.29096,3.6309 -1.9677,5.27839 -4.57032,7.67969 -0.73218,0.68191 -1.46437,1.36382 -2.21875,2.0664 -0.77086,0.70254 -1.54172,1.40508 -2.33593,2.12891 -0.74766,0.6948 -1.49532,1.38961 -2.26563,2.10547 -2.1879,2.02399 -4.39475,4.02485 -6.60937,6.01953 -0.66355,0.60876 -1.32709,1.21752 -2.01075,1.84472 -0.61262,0.54882 -1.22525,1.09764 -1.85644,1.66309 -0.5348,0.48356 -1.0696,0.96712 -1.62061,1.46533 -1.5122,1.02686 -1.5122,1.02686 -4.5122,1.02686 -0.19953,-4.28991 0.33383,-7.0796 2,-11 0.35814,-1.99571 0.69438,-3.99558 1,-6 -1.16918,-0.26555 -2.33836,-0.5311 -3.54297,-0.80469 -1.54823,-0.35656 -3.0964,-0.71334 -4.64453,-1.07031 -1.15339,-0.26104 -1.15339,-0.26104 -2.33008,-0.52735 -10.26341,-2.37864 -10.26341,-2.37864 -12.48242,-4.59765 -0.31044,-4.58237 0.46824,-8.21389 1.875,-12.5625 0.34804,-1.09442 0.69609,-2.18883 1.05468,-3.31641 0.94245,-2.74822 1.9606,-5.43679 3.07032,-8.121092 21.61368,-2.663073 21.61368,-2.663073 29,-2 z"
     fill="#c5a188"
     id="path12" />
  <path
     d="m 362.36951,100.86838 c 1.34889,1.6e-4 2.69778,0.006 4.04663,0.0159 1.06329,0.002 1.06329,0.002 2.14806,0.004 2.2723,0.006 4.54451,0.0182 6.81679,0.0309 1.5371,0.005 3.07421,0.01 4.61132,0.0137 3.77543,0.011 7.55079,0.0283 11.32618,0.0488 -1.8462,5.80196 -4.55766,10.64018 -7.63672,15.8789 -1.49369,3.41964 -1.70788,4.68621 -0.36328,8.1211 1.99277,2.56727 4.2798,3.80515 7.1875,5.1875 0.71543,0.34418 1.43086,0.68836 2.16796,1.04297 0.81405,0.38091 0.81405,0.38091 1.64454,0.76953 0,0.66 0,1.32 0,2 -4.35295,4 -4.35295,4 -8,4 0,0.66 0,1.32 0,2 -1.78367,1.31991 -3.62989,2.55572 -5.5,3.75 -4.98919,3.23942 -9.8026,6.6026 -14.5,10.25 -0.66,-0.33 -1.32,-0.66 -2,-1 0.34933,-1.08539 0.69867,-2.17078 1.05859,-3.28906 0.45985,-1.44525 0.91947,-2.89057 1.37891,-4.33594 0.23009,-0.71285 0.46019,-1.42571 0.69726,-2.16016 1.28397,-4.0566 2.2847,-7.98424 2.86524,-12.21484 -0.78375,-0.10313 -1.5675,-0.20625 -2.375,-0.3125 -6.11327,-1.15942 -12.11268,-2.75352 -17.625,-5.6875 0.45415,-5.35903 1.07207,-8.44545 4,-13 1.10073,-2.61067 2.12261,-5.24374 3.13281,-7.89063 1.26915,-3.08712 1.26915,-3.08712 4.91821,-3.2229 z"
     fill="#f4d289"
     id="path13" />
  <path
     d="m 296.31849,311.98191 c 1.08754,3.34965 1.08735,4.77613 -0.21485,8.11328 -0.56847,1.05574 -1.13695,2.11148 -1.72265,3.19922 -0.5659,1.06863 -1.1318,2.13726 -1.71485,3.23828 -0.44472,0.80824 -0.88945,1.61648 -1.34765,2.44922 1.21687,-0.0206 2.43375,-0.0413 3.6875,-0.0625 3.23227,-0.006 6.16184,0.27483 9.3125,1.0625 0,7.61983 -4.49087,12.19809 -9,18 -1.42405,1.93208 -2.84096,3.86945 -4.25,5.8125 -0.98807,1.34965 -0.98807,1.34965 -1.9961,2.72656 -1.43585,2.01468 -2.76785,4.04507 -4.0664,6.14844 -0.55688,0.76312 -1.11375,1.52625 -1.6875,2.3125 -0.99,0 -1.98,0 -3,0 0.2644,-8.4344 1.29911,-15.37446 5,-23 -0.79922,-0.049 -1.59844,-0.098 -2.42188,-0.14844 -7.62777,-0.51926 -15.06194,-1.45667 -22.57812,-2.85156 -0.27325,-4.77456 0.56031,-8.0944 2.375,-12.5 1.68321,-4.13421 3.2554,-8.25043 4.625,-12.5 9.72911,-1.3988 19.14183,-2.30385 29,-2 z"
     fill="#f1d08d"
     id="path14" />
  <path
     d="m 361.13099,207.98191 c 0.72187,0.66 1.44375,1.32 2.1875,2 -0.3125,2.375 -0.3125,2.375 -1,5 -2.90093,1.93395 -3.89675,2.30132 -7.1875,2.625 -1.25813,0.12375 -2.51625,0.2475 -3.8125,0.375 -3.12117,7.644 -3.30562,14.18242 -3.0625,22.375 0.0598,2.32009 0.11104,4.64043 0.15234,6.96094 0.0296,1.01626 0.0591,2.03252 0.0896,3.07958 -0.17944,2.58448 -0.17944,2.58448 -2.17944,5.58448 -0.66,0 -1.32,0 -2,0 0,0.66 0,1.32 0,2 -1.93785,-0.14121 -3.87527,-0.28813 -5.8125,-0.4375 -1.07895,-0.0812 -2.15789,-0.16242 -3.26954,-0.2461 -2.91796,-0.3164 -2.91796,-0.3164 -5.91796,-1.3164 -3.83755,-8.52788 -3.18215,-18.71514 -3.1875,-27.875 -0.0122,-1.12664 -0.0245,-2.25328 -0.0371,-3.41406 -0.002,-1.07766 -0.004,-2.15532 -0.006,-3.26563 -0.004,-0.97437 -0.008,-1.94874 -0.0124,-2.95264 0.24292,-2.49267 0.24292,-2.49267 2.24292,-5.49267 1.80468,-0.84375 1.80468,-0.84375 3.875,-1.5 3.20774,-1.10013 5.44811,-2.39673 8.125,-4.5 6.1637,-2.0405 15.28014,-2.75457 20.8125,1 z"
     fill="#72504d"
     id="path15" />
  <path
     d="m 150.31849,292.98191 c 24.44785,-0.27608 24.44785,-0.27608 29,2 -0.77514,4.03793 -2.6984,6.68944 -5.03907,10 -1.1824,1.97673 -1.1824,1.97673 -0.60937,4.25 0.21398,0.5775 0.42797,1.155 0.64844,1.75 1.32,0.33 2.64,0.66 4,1 0,0.66 0,1.32 0,2 1.98,0.66 3.96,1.32 6,2 0.495,2.475 0.495,2.475 1,5 -3.40824,2.44077 -6.81862,4.87836 -10.23438,7.30859 -2.27508,1.62022 -4.53265,3.25674 -6.78125,4.91406 -0.86109,0.62778 -1.72219,1.25555 -2.60937,1.90235 -0.75539,0.55945 -1.51079,1.1189 -2.28907,1.69531 -2.08593,1.17969 -2.08593,1.17969 -6.08593,1.17969 0.62816,-3.9495 1.86455,-7.19892 3.5625,-10.8125 0.68255,-1.46373 0.68255,-1.46373 1.3789,-2.95703 0.34934,-0.73606 0.69867,-1.47211 1.0586,-2.23047 -1.08282,-0.18949 -1.08282,-0.18949 -2.1875,-0.38281 -6.29651,-1.38174 -12.45125,-4.04303 -17.8125,-7.61719 0.36969,-5.66865 2.14519,-9.68663 4.84375,-14.66797 1.05706,-2.13199 1.68647,-4.00985 2.15625,-6.33203 z"
     fill="#c4a189"
     id="path16" />
  <path
     d="m 661.35633,175.94431 c 0.87825,0.0408 1.75651,0.0815 2.66137,0.12354 0.96229,0.0438 1.92457,0.0876 2.91602,0.13281 1.52077,0.0773 1.52077,0.0773 3.07227,0.15625 1.49176,0.0657 1.49176,0.0657 3.01367,0.13281 4.83592,0.23166 9.54003,0.53556 14.29883,1.49219 0,0.99 0,1.98 0,3 -0.66,0 -1.32,0 -2,0 -0.26813,0.72187 -0.53625,1.44375 -0.8125,2.1875 -1.18652,2.81016 -2.46236,5.29666 -4.1875,7.8125 -0.66,0 -1.32,0 -2,0 -1.02525,3.24997 -1.02525,3.24997 -1,7 2.38886,2.55505 2.38886,2.55505 4.26171,3.76172 2.15292,1.53364 3.90474,3.34081 5.73829,5.23828 -2.37823,1.42693 -4.75672,2.85338 -7.13672,4.27734 -1.84154,1.10794 -3.67795,2.22445 -5.50782,3.35156 -4.68202,2.86963 -9.2391,5.36904 -14.35546,7.3711 0.51835,-4.45787 1.64098,-7.22558 4,-11 1.51114,-3.90346 1.51114,-3.90346 2,-8 -0.825,-0.0825 -1.65,-0.165 -2.5,-0.25 -5.43197,-1.16399 -9.90248,-3.68499 -14.5,-6.75 5.4843,-19.91669 5.4843,-19.91669 12.03784,-20.0376 z"
     fill="#f4d28a"
     id="path17" />
  <path
     d="m 84.002324,203.86838 c 1.16781,0.005 2.33562,0.0105 3.538818,0.0159 1.260059,0.003 2.520117,0.006 3.818359,0.01 1.340496,0.008 2.680991,0.0168 4.021485,0.0254 1.344399,0.005 2.6888,0.01 4.033203,0.0137 3.301481,0.0118 6.602861,0.0283 9.904301,0.0488 -2.01856,4.86584 -4.26039,9.29278 -7.01172,13.78906 -1.14555,2.56277 -1.16855,4.43391 -0.98828,7.21094 1.09312,0.61875 2.18625,1.2375 3.3125,1.875 2.30372,1.30399 4.47912,2.65274 6.6875,4.125 0,0.66 0,1.32 0,2 -1.65,0.66 -3.3,1.32 -5,2 0,0.66 0,1.32 0,2 -1.90994,1.40178 -3.87954,2.7229 -5.875,4 -4.296556,2.70989 -4.296556,2.70989 -8.125004,6 -0.99,0 -1.98,0 -3,0 0,0.66 0,1.32 0,2 -1.485,0.495 -1.485,0.495 -3,1 0.642684,-4.45144 1.706666,-8.58882 3.0625,-12.875 0.362226,-1.15242 0.724453,-2.30485 1.097656,-3.49219 0.277148,-0.86883 0.554297,-1.73766 0.839844,-2.63281 -0.545274,-0.098 -1.090547,-0.19594 -1.652344,-0.29688 -5.865747,-1.16312 -10.97884,-3.08852 -16.347656,-5.70312 0.698103,-4.50277 2.286755,-8.55578 4,-12.75 0.409922,-1.02674 0.409922,-1.02674 0.828125,-2.07422 2.483,-6.14664 2.483,-6.14664 5.855713,-6.28931 z"
     fill="#f4d28a"
     id="path18" />
  <path
     d="m 497.31849,79.981908 c 13.86,0.495 13.86,0.495 28,1 -1.69805,4.245107 -3.44215,7.336084 -5.97657,11.035156 -1.33141,2.186875 -1.33141,2.186875 -1.02343,5.964844 4.62,1.32 9.24,2.640002 14,4.000002 -0.825,0.94875 -1.65,1.8975 -2.5,2.875 -4.66863,5.44855 -9.16935,11.04178 -13.4961,16.76562 -0.62004,0.81985 -1.24008,1.63969 -1.8789,2.48438 -0.5543,0.74508 -1.1086,1.49015 -1.67969,2.25781 -0.47695,0.53367 -0.95391,1.06734 -1.44531,1.61719 -0.66,0 -1.32,0 -2,0 0.56022,-4.34176 2.24111,-7.83969 4.16015,-11.71875 0.9439,-2.56388 0.98779,-4.57052 0.83985,-7.28125 -2.85268,-0.81807 -5.70696,-1.62958 -8.5625,-2.4375 -0.79987,-0.2301 -1.59973,-0.4602 -2.42383,-0.69727 -4.67065,-1.31541 -9.19295,-2.30227 -14.01367,-2.86523 0.15614,-9.056418 3.79161,-15.11885 8,-23.000002 z"
     fill="#f2d18d"
     id="path19" />
  <path
     d="m 473.31849,342.98191 c 13.2,0 26.4,0 40,0 0,6.78791 -0.10955,8.00287 -3.5,13.25 -2.79228,4.05989 -2.79228,4.05989 -3.5,8.75 4.95,1.32 9.9,2.64 15,4 -1.12431,7.87012 -1.12431,7.87012 -3.33594,10.2539 -0.72256,0.80583 -0.72256,0.80583 -1.45972,1.62793 -0.52118,0.55462 -1.04237,1.10924 -1.57934,1.68067 -1.1003,1.22288 -2.1979,2.44821 -3.29297,3.67578 -0.55736,0.62084 -1.11472,1.24169 -1.68897,1.88135 -2.57276,2.94434 -4.94879,6.03112 -7.33056,9.13037 -9.24362,11.91506 -9.24362,11.91506 -14.3125,16.75 -0.66,0 -1.32,0 -2,0 -1.63495,-10.30925 2.80424,-18.32843 7.26562,-27.29517 0.86625,-1.70159 0.86625,-1.70159 0.73438,-3.70483 -0.90879,-0.18176 -1.81758,-0.36352 -2.75391,-0.55078 -1.94411,-0.38883 -3.88817,-0.77795 -5.83081,-1.17408 -3.553,-0.72107 -7.1052,-1.40245 -10.68091,-2.0017 -0.67861,-0.11948 -1.35722,-0.23896 -2.0564,-0.36207 -1.90768,-0.33436 -3.81818,-0.65254 -5.72876,-0.96997 -2.94921,-0.9414 -2.94921,-0.9414 -4.39453,-2.79687 -1.9452,-7.52054 3.37055,-15.32685 6.78907,-21.71484 2.0095,-3.91196 2.0095,-3.91196 3.65625,-10.42969 z m 3,4 c -1.98,4.29 -3.96,8.58 -6,13 -2.4375,5.0625 -2.4375,5.0625 -3.4336,7.09765 -0.693,2.32752 -0.22057,3.60397 0.4336,5.90235 12.9664,3.77304 12.9664,3.77304 26.15234,6.64062 1.84766,0.35938 1.84766,0.35938 4.84766,1.35938 -1.40409,5.61633 -3.5358,10.74404 -5.87891,16.03515 -1.1351,3.00189 -1.70131,5.79053 -2.12109,8.96485 2.85758,-2.77485 5.4329,-5.65411 7.9375,-8.75 0.77343,-0.95391 1.54687,-1.90781 2.34375,-2.89063 0.42668,-0.52787 0.85336,-1.05574 1.29296,-1.59961 1.60545,-1.98151 3.21838,-3.9568 4.83204,-5.93164 1.17715,-1.44265 2.35423,-2.88536 3.53125,-4.32812 0.56775,-0.69448 1.1355,-1.38897 1.72045,-2.10449 0.5344,-0.65646 1.0688,-1.31291 1.61939,-1.98926 0.47687,-0.58459 0.95374,-1.16918 1.44507,-1.77149 1.16516,-1.4909 2.22798,-3.06036 3.27759,-4.63476 -5.94,-1.65 -11.88,-3.3 -18,-5 1.25355,-3.13389 2.28829,-5.68842 3.94531,-8.51563 0.35449,-0.61101 0.70898,-1.22203 1.07422,-1.85156 0.3648,-0.62133 0.72961,-1.24266 1.10547,-1.88281 2.58714,-3.71303 2.58714,-3.71303 3.875,-7.75 -11.22,0 -22.44,0 -34,0 z"
     fill="#7f5f5a"
     id="path20" />
  <path
     d="m 611.31849,308.98191 c -0.43313,1.08668 -0.43313,1.08668 -0.875,2.19531 -0.37125,0.9668 -0.7425,1.93359 -1.125,2.92969 -0.37125,0.95133 -0.7425,1.90265 -1.125,2.88281 -1.15568,3.43241 -1.15568,3.43241 -0.875,8.99219 4.62,1.65 9.24,3.3 14,5 0,3 0,3 -1.50391,4.61328 -0.67934,0.56074 -1.35867,1.12148 -2.05859,1.69922 -0.72317,0.60586 -1.44633,1.21172 -2.19141,1.83594 -0.74121,0.61101 -1.48242,1.22203 -2.24609,1.85156 -1.33551,1.14329 -2.66905,2.2889 -4,3.4375 -1.485,1.26844 -1.485,1.26844 -3,2.5625 0.66,-3.63 1.32,-7.26 2,-11 -1.13438,-0.25395 -2.26875,-0.50789 -3.4375,-0.76953 -1.5209,-0.34737 -3.04173,-0.69504 -4.5625,-1.04297 -0.74379,-0.16565 -1.48758,-0.33129 -2.25391,-0.50196 -5.10941,-1.17738 -9.87116,-2.75219 -14.74609,-4.68554 0.68412,-3.61141 1.53253,-7.14175 2.5,-10.6875 0.25781,-0.95262 0.51562,-1.90524 0.78125,-2.88672 0.71875,-2.42578 0.71875,-2.42578 1.71875,-4.42578 2.74864,-0.48243 5.41727,-0.84407 8.1875,-1.125 0.75603,-0.0864 1.51207,-0.17274 2.29101,-0.26172 4.19403,-0.45832 8.29595,-0.70763 12.52149,-0.61328 z"
     fill="#724d4a"
     id="path21" />
  <path
     d="m 495.31849,76.981908 c 10.89,0 21.78,0 33,0 1,5 1,5 -0.4336,7.789062 -0.66129,0.935859 -1.32258,1.871719 -2.0039,2.835938 -2.88231,3.824569 -2.88231,3.824569 -3.5625,8.375 0.77086,0.121171 1.54171,0.242343 2.33593,0.367187 1.00289,0.167578 2.00578,0.335156 3.03907,0.507813 0.99773,0.162421 1.99546,0.324843 3.02343,0.492187 2.60157,0.632813 2.60157,0.632813 4.60157,2.632813 0,5.302172 -3.63544,8.444772 -7,12.125002 -1.18872,1.33355 -2.37621,2.66819 -3.5625,4.0039 -0.58524,0.65501 -1.17047,1.31001 -1.77344,1.98487 -2.29098,2.59684 -4.48097,5.26042 -6.66406,7.94873 -1.05575,1.29551 -1.05575,1.29551 -2.13282,2.61719 -1.15301,1.43282 -2.29589,2.87396 -3.42187,4.32812 -1.08627,1.38194 -2.25596,2.69789 -3.44531,3.99219 -0.99,0 -1.98,0 -3,0 -0.3964,-6.41435 0.67901,-10.62051 3.4375,-16.375 0.32548,-0.71028 0.65097,-1.42055 0.98632,-2.15235 1.15481,-2.50962 2.34069,-5.00169 3.57618,-7.47265 -7.71648,-1.99272 -15.45145,-3.7639 -23.26172,-5.35156 -2.73828,-0.64844 -2.73828,-0.64844 -3.73828,-1.64844 -0.61552,-6.163035 1.02607,-9.938176 3.875,-15.187502 0.3648,-0.698028 0.72961,-1.396055 1.10546,-2.115235 0.67956,-1.298575 1.36488,-2.594167 2.05811,-3.885498 1.01918,-1.920596 1.98907,-3.86705 2.96143,-5.811767 z m 2,3 c -1.32,2.68125 -2.64,5.3625 -4,8.125 -0.41766,0.832895 -0.83532,1.665791 -1.26563,2.523925 -2.06274,4.28817 -3.2326,7.477846 -2.73437,12.351077 0.96679,0.18176 1.93359,0.36351 2.92968,0.55078 7.49718,1.43772 14.81108,3.04086 22.07032,5.44922 -0.44838,5.26842 -1.82947,9.24005 -4.16016,13.98437 -1.03215,2.11323 -1.03215,2.11323 -0.83984,5.01563 0.66,0 1.32,0 2,0 1.41706,-1.54889 2.75809,-3.16762 4.0625,-4.8125 0.79793,-0.99774 1.59586,-1.99547 2.41796,-3.02344 0.41428,-0.52175 0.82855,-1.0435 1.25538,-1.58105 2.01951,-2.52888 4.08197,-5.02226 6.13916,-7.52051 2.44962,-2.98082 4.80836,-5.97366 7.125,-9.0625 -4.62,-1.32 -9.24,-2.640002 -14,-4.000002 0.90084,-4.504245 1.68496,-6.472243 4.0625,-10.1875 2.2376,-3.173041 2.2376,-3.173041 2.9375,-6.8125 -13.86,-0.495 -13.86,-0.495 -28,-1 z"
     fill="#82635d"
     id="path22" />
  <path
     d="m 355.31849,97.981908 c 13.2,0 26.4,0 40,0 0.495,1.485 0.495,1.485 1,3.000002 -0.66,0 -1.32,0 -2,0 -0.10313,0.88687 -0.20625,1.77375 -0.3125,2.6875 -0.72798,3.50754 -1.74489,5.3292 -3.6875,8.3125 -0.93275,1.53199 -1.84828,3.07454 -2.75,4.625 -0.4486,0.75539 -0.89719,1.51078 -1.35938,2.28906 -1.21712,2.21203 -1.21712,2.21203 0.10938,5.08594 1.98708,1.38822 1.98708,1.38822 4.375,2.5625 2.66151,1.39144 5.11876,2.76668 7.625,4.4375 -0.34022,3.17538 -1.02467,4.02277 -3.4375,6.25 -2.5625,1.75 -2.5625,1.75 -4.5625,1.75 -0.33,0.99 -0.66,1.98 -1,3 -2.4336,1.7539 -2.4336,1.7539 -5.4375,3.5625 -4.02378,2.4094 -4.02378,2.4094 -7.5625,5.4375 -0.99,0 -1.98,0 -3,0 0,0.66 0,1.32 0,2 -2.97,1.65 -5.94,3.3 -9,5 -2.26783,-3.40174 -2.08753,-4.75134 -1.49219,-8.67188 0.72943,-3.45033 1.77234,-6.78008 2.87109,-10.1289 0.75699,-2.29953 0.75699,-2.29953 0.6211,-5.19922 -1.03641,-0.33774 -2.07282,-0.67547 -3.14063,-1.02344 -1.36984,-0.45036 -2.73963,-0.90089 -4.10937,-1.35156 -1.02288,-0.33258 -1.02288,-0.33258 -2.06641,-0.67188 -3.3592,-1.10886 -6.58101,-2.2419 -9.68359,-3.95312 -0.42573,-5.93697 0.85938,-9.75996 3.4375,-15.0625 0.65108,-1.36277 1.29576,-2.72863 1.93359,-4.09766 0.28802,-0.59434 0.57605,-1.18868 0.8728,-1.80102 1.04903,-2.63187 1.04903,-2.63187 1.75611,-8.038822 z m 4,3.000002 c -3.22312,5.46436 -3.22312,5.46436 -5.625,11.0625 -0.2359,0.66515 -0.4718,1.33031 -0.71485,2.01562 -0.21785,0.63422 -0.4357,1.26844 -0.66015,1.92188 -0.39188,1.09312 -0.78375,2.18625 -1.1875,3.3125 -0.9572,2.69816 -0.9572,2.69816 -0.8125,5.6875 9.60083,4.53424 9.60083,4.53424 20,6 -1.61089,7.78593 -3.76544,15.37428 -6,23 4.30068,-1.46255 7.42428,-3.65994 11,-6.4375 2.90691,-2.25064 5.69025,-4.38364 8.875,-6.22266 0.70125,-0.44215 1.4025,-0.8843 2.125,-1.33984 0,-0.66 0,-1.32 0,-2 0.86625,-0.15469 0.86625,-0.15469 1.75,-0.3125 2.60661,-0.79647 4.22353,-1.87816 6.25,-3.6875 0,-0.66 0,-1.32 0,-2 -0.61489,-0.32614 -1.22977,-0.65227 -1.86329,-0.98828 -0.80824,-0.437 -1.61648,-0.87399 -2.44921,-1.32422 -0.80051,-0.42926 -1.60102,-0.85852 -2.42579,-1.30078 -3.94034,-2.41593 -3.94034,-2.41593 -5.26171,-4.38672 0.16111,-4.82673 1.96489,-8.03647 4.5,-12.0625 2.50008,-3.98066 3.55342,-6.20462 4.5,-10.9375 -10.56,0 -21.12,0 -32,0 z"
     fill="#f8f9f8"
     id="path23" />
  <path
     d="m 251.19349,98.919408 c 1.03253,0.0068 1.03253,0.0068 2.08593,0.01367 1.67973,0.01166 3.35941,0.0296 5.03907,0.04883 -0.86719,5.750002 -0.86719,5.750002 -2.0625,8.000002 -1.27244,2.71454 -1.07191,5.04316 -0.9375,8 1.19625,0.26812 2.3925,0.53625 3.625,0.8125 3.75355,0.92837 6.97588,2.31799 10.375,4.1875 -1.42354,3.33136 -3.13354,5.27665 -5.875,7.625 -0.67805,0.59039 -1.3561,1.18078 -2.05469,1.78906 -1.95698,1.49912 -3.8308,2.57163 -6.07031,3.58594 0.33,-2.64 0.66,-5.28 1,-8 -2.5205,-0.79276 -5.04138,-1.58424 -7.5625,-2.375 -1.05671,-0.33258 -1.05671,-0.33258 -2.13477,-0.67188 -4.41715,-1.38417 -8.84659,-2.70001 -13.30273,-3.95312 0.51085,-6.43681 1.72942,-11.95943 4,-18.000002 4.65537,-0.920923 9.14685,-1.12206 13.875,-1.0625 z"
     fill="#724d49"
     id="path24" />
  <path
     d="m 629.31849,246.98191 c 3.85283,1.47508 7.11609,3.23219 9,7 0.38112,4.0399 0.42406,6.29322 -1.6875,9.8125 -3.26647,3.0899 -5.89237,4.13357 -10.39844,4.30469 -6.67723,-0.49168 -11.49848,-1.0555 -16.91406,-5.11719 -1.60087,-3.20173 -1.49918,-6.52577 -1,-10 5.01862,-7.86252 12.53321,-6.80139 21,-6 z"
     fill="#745351"
     id="path25" />
  <path
     d="m 153.31849,296.98191 c 2.39591,-0.0271 4.79151,-0.0469 7.1875,-0.0625 0.67353,-0.008 1.34707,-0.0168 2.04101,-0.0254 3.72583,-0.0182 7.15029,0.19489 10.77149,1.08789 -0.34934,0.67547 -0.69868,1.35094 -1.0586,2.04687 -0.45504,0.89203 -0.91008,1.78407 -1.3789,2.70313 -0.45247,0.88172 -0.90493,1.76344 -1.3711,2.67187 -1.02596,2.22011 -1.70649,4.19257 -2.1914,6.57813 0.66,0.2475 1.32,0.495 2,0.75 3.7636,1.56817 7.37114,3.39505 11,5.25 0,0.66 0,1.32 0,2 -1.88682,1.40414 -3.8363,2.72473 -5.8125,4 -1.07895,0.70125 -2.15789,1.4025 -3.26954,2.125 -0.96293,0.61875 -1.92585,1.2375 -2.91796,1.875 -0.99,0.66 -1.98,1.32 -3,2 0.33,-0.7425 0.66,-1.485 1,-2.25 1.22782,-2.88884 1.22782,-2.88884 1,-6.75 -1.1086,-0.48211 -2.21719,-0.96422 -3.35938,-1.46094 -1.46357,-0.63796 -2.92711,-1.27599 -4.39062,-1.91406 -0.72961,-0.31711 -1.45922,-0.63422 -2.21094,-0.96094 -0.70899,-0.30937 -1.41797,-0.61875 -2.14844,-0.9375 -0.97405,-0.42418 -0.97405,-0.42418 -1.96777,-0.85693 -2.00219,-0.90551 -3.96371,-1.87482 -5.92285,-2.86963 0.43143,-1.37692 0.87051,-2.75144 1.3125,-4.125 0.24363,-0.76571 0.48726,-1.53141 0.73828,-2.32031 1.10498,-2.97391 2.49233,-5.73885 3.94922,-8.55469 z"
     fill="#724d4a"
     id="path26" />
  <path
     d="m 296.31849,311.98191 c 1.08754,3.34965 1.08735,4.77613 -0.21485,8.11328 -0.56847,1.05574 -1.13695,2.11148 -1.72265,3.19922 -0.5659,1.06863 -1.1318,2.13726 -1.71485,3.23828 -0.44472,0.80824 -0.88945,1.61648 -1.34765,2.44922 1.21687,-0.0206 2.43375,-0.0413 3.6875,-0.0625 3.23227,-0.006 6.16184,0.27483 9.3125,1.0625 0,7.61983 -4.49087,12.19809 -9,18 -1.42405,1.93208 -2.84096,3.86945 -4.25,5.8125 -0.98807,1.34965 -0.98807,1.34965 -1.9961,2.72656 -1.43585,2.01468 -2.76785,4.04507 -4.0664,6.14844 -0.55688,0.76312 -1.11375,1.52625 -1.6875,2.3125 -0.99,0 -1.98,0 -3,0 0.2644,-8.4344 1.29911,-15.37446 5,-23 -0.79922,-0.049 -1.59844,-0.098 -2.42188,-0.14844 -7.62777,-0.51926 -15.06194,-1.45667 -22.57812,-2.85156 -0.27325,-4.77456 0.56031,-8.0944 2.375,-12.5 1.68321,-4.13421 3.2554,-8.25043 4.625,-12.5 9.72911,-1.3988 19.14183,-2.30385 29,-2 z m -19,4 c -1.16209,0.14308 -1.16209,0.14308 -2.34766,0.28906 -1.88465,0.23267 -3.76858,0.47119 -5.65234,0.71094 -0.41573,1.15629 -0.41573,1.15629 -0.83985,2.33594 -0.36222,1.00289 -0.72445,2.00578 -1.09765,3.03906 -0.53948,1.4966 -0.53948,1.4966 -1.08985,3.02344 -0.97265,2.60156 -0.97265,2.60156 -1.97265,4.60156 -0.0402,2.33298 -0.0432,4.66706 0,7 2.60086,0.86695 4.47182,1.19784 7.16015,1.39453 0.79342,0.069 1.58684,0.13793 2.4043,0.20898 1.66831,0.13957 3.33767,0.26714 5.00781,0.38282 0.79213,0.0728 1.58426,0.14566 2.40039,0.2207 1.0868,0.0847 1.0868,0.0847 2.19556,0.17114 1.83179,0.62183 1.83179,0.62183 3.12817,2.4895 1.05255,3.18977 -0.0397,5.11582 -1.23388,8.19483 -1.89167,4.41127 -1.89167,4.41127 -1.0625,8.9375 1.91799,-2.70739 3.83415,-5.41609 5.75,-8.125 0.53882,-0.76055 1.07765,-1.5211 1.63281,-2.30469 1.54519,-2.18588 3.08327,-4.37651 4.61719,-6.57031 0.42345,-0.60167 0.84691,-1.20334 1.2832,-1.82324 2.09482,-2.825 2.09482,-2.825 2.7168,-6.17676 0.66,-0.33 1.32,-0.66 2,-1 -4.29,-0.99 -8.58,-1.98 -13,-3 1.11874,-6.71244 1.11874,-6.71244 3.0625,-9.75 2.10818,-2.9057 2.10818,-2.9057 1.9375,-5.25 -5.76472,-0.10482 -11.28528,0.26709 -17,1 z"
     fill="#82635d"
     id="path27" />
  <path
     d="m 656.31849,172.98191 c 7.62999,-0.19585 14.9944,0.57021 22.5625,1.5 1.19947,0.14308 2.39894,0.28617 3.63476,0.43359 2.93484,0.35078 5.86902,0.70636 8.80274,1.06641 -1.03019,4.95743 -3.94707,8.6706 -6.76172,12.77929 -2.2563,3.38445 -3.80512,6.14432 -4.23828,10.22071 0.53625,0.2475 1.0725,0.495 1.625,0.75 2.93924,1.54697 5.63254,3.38014 8.375,5.25 -0.33,1.32 -0.66,2.64 -1,4 -0.66,0 -1.32,0 -2,0 0,0.66 0,1.32 0,2 -0.48727,0.26812 -0.97454,0.53625 -1.47657,0.8125 -5.02711,2.77862 -10.03103,5.5971 -15.02343,8.4375 -0.62343,0.3532 -1.24685,0.7064 -1.88916,1.07031 -2.98274,1.5942 -2.98274,1.5942 -5.61084,3.67969 -1.66618,0.0406 -3.33389,0.0427 -5,0 1.74259,-13.63326 1.74259,-13.63326 5,-20 -0.55688,-0.17016 -1.11375,-0.34031 -1.6875,-0.51563 -5.40841,-1.71753 -10.29313,-3.83779 -15.3125,-6.48437 1.02862,-5.44568 2.24614,-10.11817 5,-15 0.66,0 1.32,0 2,0 0.12375,-0.53625 0.2475,-1.0725 0.375,-1.625 0.74706,-2.83883 1.67803,-5.59723 2.625,-8.375 z m 3,3 c -2.7879,4.37442 -5.50173,8.72412 -7.8125,13.375 -0.41895,0.83273 -0.83789,1.66547 -1.26954,2.52344 -1.05139,2.0248 -1.05139,2.0248 -0.91796,4.10156 4.72532,4.3473 10.73523,6.236 17,7 -0.6494,2.76456 -1.44779,5.40103 -2.4375,8.0625 -0.24622,0.6716 -0.49243,1.3432 -0.7461,2.03515 -0.8164,1.90235 -0.8164,1.90235 -2.8164,4.90235 0.3084,2.15275 0.3084,2.15275 1,4 13.97191,-6.66477 13.97191,-6.66477 26,-16 -0.63809,-0.47051 -1.27618,-0.94102 -1.9336,-1.42578 -0.82629,-0.62262 -1.65258,-1.24524 -2.5039,-1.88672 -0.82372,-0.61489 -1.64743,-1.22977 -2.4961,-1.86328 -2.0664,-1.82422 -2.0664,-1.82422 -3.0664,-4.82422 0.4375,-2.6875 0.4375,-2.6875 1,-5 0.66,0 1.32,0 2,0 1.36637,-1.71802 1.36637,-1.71802 2.625,-3.875 0.44601,-0.7193 0.89203,-1.4386 1.35156,-2.17969 1.17864,-1.87396 1.17864,-1.87396 1.02344,-3.94531 0.66,0 1.32,0 2,0 0,-0.99 0,-1.98 0,-3 -5.761,-1.1699 -11.51906,-1.33204 -17.375,-1.5625 -1.02223,-0.0432 -2.04446,-0.0864 -3.09766,-0.13086 -2.509,-0.10552 -5.01808,-0.20763 -7.52734,-0.30664 z"
     fill="#f7f8f6"
     id="path28" />
  <path
     d="m 79.318486,201.98191 c 10.89,0 21.780004,0 33.000004,0 0.495,0.99 0.495,0.99 1,2 -0.66,0 -1.32,0 -2,0 -0.0825,0.84562 -0.165,1.69125 -0.25,2.5625 -1.08619,4.97836 -3.34976,8.69927 -6.5625,12.6875 -0.39188,0.5775 -0.78375,1.155 -1.1875,1.75 1.48923,4.46771 4.81976,5.28388 8.84765,7.40234 0.71028,0.52723 1.42055,1.05445 2.15235,1.59766 0,1.32 0,2.64 0,4 -2.03502,1.76653 -3.95547,3.21114 -6.1875,4.6875 -0.62625,0.42845 -1.25249,0.8569 -1.89771,1.29834 -1.30937,0.89525 -2.62219,1.78547 -3.93823,2.6709 -1.91954,1.3045 -3.810328,2.64177 -5.695314,3.9956 -8.903925,6.34766 -8.903925,6.34766 -12.28125,6.34766 -2.08309,-6.72541 1.537027,-13.73062 4,-20 -0.556875,-0.18176 -1.11375,-0.36352 -1.6875,-0.55078 -10.327337,-3.40174 -10.327337,-3.40174 -15.3125,-5.44922 -1.278072,-2.55615 -0.855157,-3.61512 -0.25,-6.375 0.239765,-1.15629 0.239765,-1.15629 0.484375,-2.33594 0.765625,-2.28906 0.765625,-2.28906 3.765625,-6.28906 1.32,-3.3 2.64,-6.6 4,-10 z m 2,2 c -0.94875,2.04187 -1.8975,4.08375 -2.875,6.1875 -0.533672,1.14855 -1.067344,2.29711 -1.617188,3.48047 -2.636642,5.46025 -2.636642,5.46025 -3.507812,11.33203 5.903776,2.87512 11.532878,4.83806 18,6 -0.433125,0.99 -0.433125,0.99 -0.875,2 -2.069336,5.51823 -3.251486,11.17657 -4.125,17 1.485,-0.495 1.485,-0.495 3,-1 0,-0.66 0,-1.32 0,-2 0.543984,-0.0825 1.087969,-0.165 1.648437,-0.25 3.16144,-1.0083 5.3336,-2.75531 7.976563,-4.75 5.235964,-3.93048 5.235964,-3.93048 7.375004,-5 0,-0.66 0,-1.32 0,-2 1.65,-0.66 3.3,-1.32 5,-2 -0.66572,-3.05862 -0.66572,-3.05862 -2.8125,-4.13281 -0.72188,-0.32743 -1.44375,-0.65485 -2.1875,-0.99219 -3.9404,-1.8154 -3.9404,-1.8154 -5,-2.875 -0.58899,-4.63723 1.0044,-7.1901 3.4375,-11.0625 2.18127,-3.49445 3.55495,-5.90731 4.5625,-9.9375 -9.24,0 -18.480004,0 -28.000004,0 z"
     fill="#f8f8f7"
     id="path29" />
  <path
     d="m 188.31849,409.98191 c 12.38619,0.89143 24.65811,2.37148 36.89062,4.5039 3.60941,0.57588 7.23005,1.0079 10.85938,1.4336 5.44772,0.64388 10.80692,1.49608 16.1875,2.5625 6.3177,1.25092 12.62017,2.09877 19.02099,2.79638 5.73932,0.63472 11.38436,1.55508 17.04151,2.70362 0,0.33 0,0.66 0,1 -8.26999,0.23811 -16.36431,-0.65402 -24.5625,-1.625 -1.10442,-0.12856 -1.10442,-0.12856 -2.23114,-0.25971 -12.49362,-1.47013 -24.81571,-3.52572 -37.14606,-6.00836 -7.83462,-1.56931 -15.61295,-2.75677 -23.54614,-3.66064 -4.26654,-0.54184 -8.34483,-1.40396 -12.51416,-2.44629 0,-0.33 0,-0.66 0,-1 z"
     fill="#cadfe4"
     id="path30" />
  <path
     d="m 231.31849,202.98191 c 0.33,0 0.66,0 1,0 0.0273,2.02075 0.0465,4.04162 0.0625,6.0625 0.0116,1.12535 0.0232,2.2507 0.0352,3.41015 -0.0977,3.52735 -0.0977,3.52735 -0.58398,6.71289 -0.55847,4.14711 -0.73715,8.19523 -0.83008,12.37305 -0.0208,0.78915 -0.0416,1.57831 -0.063,2.39137 -0.0649,2.49577 -0.12408,4.99163 -0.18312,7.48754 -0.0433,1.70248 -0.0869,3.40496 -0.13086,5.10742 -0.10649,4.1516 -0.20794,8.30329 -0.30664,12.45508 2.31,-1.32 4.62,-2.64 7,-4 0,-1.32 0,-2.64 0,-4 0.66,0 1.32,0 2,0 0,1.32 0,2.64 0,4 3.3,0.66 6.6,1.32 10,2 0,0.33 0,0.66 0,1 -1.65,0 -3.3,0 -5,0 0,1.65 0,3.3 0,5 -0.33,-1.32 -0.66,-2.64 -1,-4 -0.99,0 -1.98,0 -3,0 0,0.99 0,1.98 0,3 -0.66,0 -1.32,0 -2,0 -0.66,1.32 -1.32,2.64 -2,4 -0.99,-0.99 -1.98,-1.98 -3,-3 0.66,-1.32 1.32,-2.64 2,-4 -0.66,0 -1.32,0 -2,0 -0.33,0.99 -0.66,1.98 -1,3 -0.99,-0.33 -1.98,-0.66 -3,-1 -0.0504,-5.20629 -0.0862,-10.41242 -0.10987,-15.6189 -0.01,-1.76174 -0.0234,-3.52347 -0.041,-5.28516 -0.12155,-12.50866 0.58313,-24.68389 2.15088,-37.09594 z"
     fill="#826e6e"
     id="path31" />
  <path
     d="m 40.318486,244.98191 c 0.33,0 0.66,0 1,0 0.03738,1.10215 0.07476,2.20429 0.113281,3.33984 0.616416,15.23259 2.613582,29.27897 7.996094,43.58594 0.865535,2.98761 1.036347,4.24484 -0.109375,7.07422 -6.417637,-5.40728 -8.585224,-16.33971 -9.726563,-24.33985 -1.60934,-21.54216 -1.60934,-21.54216 0.726563,-29.66015 z"
     fill="#c4dee6"
     id="path32" />
  <path
     d="m 589.31849,188.98191 c 2.625,0.375 2.625,0.375 5,1 0.12867,8.0635 -0.20319,15.97497 -1,24 0.66,0.33 1.32,0.66 2,1 -1.32,0 -2.64,0 -4,0 0.0348,-0.62649 0.0696,-1.25297 0.10546,-1.89844 0.0271,-0.81727 0.0542,-1.63453 0.082,-2.47656 0.0348,-0.81211 0.0696,-1.62422 0.10546,-2.46094 -0.0967,-0.71414 -0.19335,-1.42828 -0.29296,-2.16406 -0.99,-0.66 -1.98,-1.32 -3,-2 0,1.98 0,3.96 0,6 -2.31,-0.33 -4.62,-0.66 -7,-1 0.66,-3.63 1.32,-7.26 2,-11 3.3,-0.33 6.6,-0.66 10,-1 0,-1.98 0,-3.96 0,-6 -1.98,0 -3.96,0 -6,0 0.66,-0.66 1.32,-1.32 2,-2 z"
     fill="#7a5f5e"
     id="path33" />
  <path
     d="m 300.31849,205.98191 c 0.66,0.66 1.32,1.32 2,2 -2,2 -2,2 -4.625,2.125 -0.78375,-0.0412 -1.5675,-0.0825 -2.375,-0.125 0,-0.66 0,-1.32 0,-2 -4.27917,2.20441 -7.20394,5.09867 -10.44922,8.57422 -1.55078,1.42578 -1.55078,1.42578 -3.55078,1.42578 1.39443,-4.74107 4.09675,-8.04923 8,-11 3.66226,-1.22803 7.15536,-1.21359 11,-1 z"
     fill="#7d6564"
     id="path34" />
  <path
     d="m 513.31849,112.98191 c 1.19894,3.59683 0.74361,4.10428 -0.875,7.375 -1.52054,3.21409 -2.66566,6.06508 -3.125,9.625 -0.99,0 -1.98,0 -3,0 -0.66,0.99 -1.32,1.98 -2,3 0.43789,-6.56841 2.72878,-12.29901 6,-18 0.99,-0.66 1.98,-1.32 3,-2 z"
     fill="#886961"
     id="path35" />
  <path
     d="m 450.94349,178.54441 c 0.75023,-0.007 1.50046,-0.0142 2.27343,-0.0215 4.28884,0.0494 7.0078,0.37341 10.10157,3.45899 -0.99,0.66 -1.98,1.32 -3,2 0,-0.99 0,-1.98 0,-3 -0.99,0.33 -1.98,0.66 -3,1 -1.56119,0.0674 -3.12503,0.0851 -4.6875,0.0625 -1.21237,-0.0135 -1.21237,-0.0135 -2.44922,-0.0274 -0.92233,-0.0174 -0.92233,-0.0174 -1.86328,-0.0351 0,-0.66 0,-1.32 0,-2 -1.04801,0.45052 -1.04801,0.45052 -2.11719,0.91015 -0.91008,0.38028 -1.82016,0.76055 -2.75781,1.15235 -0.90493,0.38285 -1.80985,0.7657 -2.74219,1.16015 -2.38281,0.77735 -2.38281,0.77735 -4.38281,-0.22265 4.93074,-3.95243 8.38595,-4.60539 14.625,-4.4375 z"
     fill="#7c6262"
     id="path36" />
  <path
     d="m 217.31849,177.98191 c 5.78437,-0.20659 10.4455,0.34339 16,2 1,1 1,1 1.09765,4.3789 -0.007,1.39457 -0.0186,2.78912 -0.0352,4.1836 -0.005,0.71092 -0.009,1.42183 -0.0137,2.15429 -0.0118,1.76111 -0.0298,3.52217 -0.0488,5.28321 -0.33,0 -0.66,0 -1,0 -0.33,-4.62 -0.66,-9.24 -1,-14 -2.64,0.33 -5.28,0.66 -8,1 0,-0.99 0,-1.98 0,-3 -2.97,0.66 -5.94,1.32 -9,2 0,-0.66 0,-1.32 0,-2 0.66,0 1.32,0 2,0 0,-0.66 0,-1.32 0,-2 z"
     fill="#b9a293"
     id="path37" />
  <path
     d="m 656.31849,172.98191 c 6.28371,-0.10064 12.3281,0.24058 18.5625,1 1.22686,0.14308 1.22686,0.14308 2.47851,0.28906 1.98687,0.23238 3.97301,0.47099 5.95899,0.71094 -3.8416,2.5678 -7.81392,2.22689 -12.25,2.125 -0.74508,-0.009 -1.49016,-0.018 -2.25782,-0.0274 -1.83086,-0.0235 -3.66157,-0.0593 -5.49218,-0.0976 0,-0.99 0,-1.98 0,-3 -2.31,0 -4.62,0 -7,0 0,-0.33 0,-0.66 0,-1 z"
     fill="#f2f3f1"
     id="path38" />
  <path
     d="m 263.31849,205.98191 c 5.37656,-0.27339 8.56699,-0.38995 13,3 2.42381,2.42381 2.44016,3.52895 2.8125,6.875 0.10957,0.86367 0.21914,1.72734 0.33203,2.61719 -0.17602,3.0541 -1.1298,4.26921 -3.14453,6.50781 -0.33,-0.33 -0.66,-0.66 -1,-1 0.0902,-2.1905 0.24666,-4.37847 0.4375,-6.5625 0.10183,-1.19754 0.20367,-2.39508 0.30859,-3.62891 0.0838,-0.92683 0.16758,-1.85367 0.25391,-2.80859 -0.66,0 -1.32,0 -2,0 0,-0.66 0,-1.32 0,-2 -3.63,-0.66 -7.26,-1.32 -11,-2 0,-0.33 0,-0.66 0,-1 z"
     fill="#877879"
     id="path39" />
  <path
     d="m 489.63099,186.29441 c 1.60295,0.17982 1.60295,0.17982 3.23828,0.36328 1.21236,0.16049 1.21236,0.16049 2.44922,0.32422 -3,2 -3,2 -5,2 -0.33,0.99 -0.66,1.98 -1,3 -0.99,0 -1.98,0 -3,0 0,-0.99 0,-1.98 0,-3 -3.77546,1.09068 -6.47044,1.90831 -9,5 0.1875,-2.3125 0.1875,-2.3125 1,-5 3.89514,-3.04838 6.47919,-3.27175 11.3125,-2.6875 z"
     fill="#7e6665"
     id="path40" />
  <path
     d="m 296.31849,222.98191 c 0.66,0 1.32,0 2,0 -0.11488,1.5841 -0.24235,3.16729 -0.375,4.75 -0.0696,0.88172 -0.13922,1.76344 -0.21094,2.67187 -0.41256,2.56879 -1.12567,4.33654 -2.41406,6.57813 -0.66,0 -1.32,0 -2,0 -0.33,0.99 -0.66,1.98 -1,3 -0.33,0 -0.66,0 -1,0 0.53753,-6.18161 2.54582,-11.32686 5,-17 z"
     fill="#a3abb1"
     id="path41" />
  <path
     d="m 545.68567,218.43503 c 1.88938,0.47067 3.7632,1.00299 5.63282,1.54688 0,4.29 0,8.58 0,13 -0.66,0 -1.32,0 -2,0 0,-3.96 0,-7.92 0,-12 -2.97,0 -5.94,0 -9,0 0,-0.66 0,-1.32 0,-2 -4.455,0.495 -4.455,0.495 -9,1 4.53535,-3.02357 9.10087,-2.55495 14.36718,-1.54688 z"
     fill="#847171"
     id="path42" />
  <path
     d="m 294.31849,328.98191 c 3.3,0.33 6.6,0.66 10,1 -0.33,2.31 -0.66,4.62 -1,7 -1.65,0.66 -3.3,1.32 -5,2 0.66,-1.65 1.32,-3.3 2,-5 -1.98,-0.66 -3.96,-1.32 -6,-2 0,-0.99 0,-1.98 0,-3 z"
     fill="#846862"
     id="path43" />
  <path
     d="m 283.31849,352.98191 c 1,3 1,3 1,5 1.32,-0.66 2.64,-1.32 4,-2 -1.50099,3.11743 -3.02432,6.15502 -5,9 -0.99,0 -1.98,0 -3,0 -0.29545,-5.02255 0.0149,-7.89543 3,-12 z"
     fill="#7b5a57"
     id="path44" />
  <path
     d="m 307.31849,208.98191 c 1.79323,0.28188 3.58457,0.57583 5.375,0.875 0.99773,0.16242 1.99546,0.32484 3.02343,0.49219 2.60157,0.63281 2.60157,0.63281 4.60157,2.63281 0.19531,2.38281 0.19531,2.38281 0.125,5.125 -0.0181,0.91008 -0.0361,1.82015 -0.0547,2.75781 -0.0232,0.69867 -0.0464,1.39734 -0.0703,2.11719 -0.33,0 -0.66,0 -1,0 -0.33,-2.97 -0.66,-5.94 -1,-9 -4.455,0.495 -4.455,0.495 -9,1 0,-0.99 0,-1.98 0,-3 -0.66,0 -1.32,0 -2,0 0,-0.99 0,-1.98 0,-3 z"
     fill="#90888b"
     id="path45" />
  <path
     d="m 237.31849,250.98191 c 0.66,0 1.32,0 2,0 0,1.32 0,2.64 0,4 3.3,0.66 6.6,1.32 10,2 0,0.33 0,0.66 0,1 -1.65,0 -3.3,0 -5,0 0,1.65 0,3.3 0,5 -0.33,-1.32 -0.66,-2.64 -1,-4 -1.98,0 -3.96,0 -6,0 0,-0.66 0,-1.32 0,-2 -0.66,-0.33 -1.32,-0.66 -2,-1 0.66,-0.33 1.32,-0.66 2,-1 0,-1.32 0,-2.64 0,-4 z"
     fill="#7e6666"
     id="path46" />
  <path
     d="m 286.33411,423.57956 c 0.98227,0.19916 0.98227,0.19916 1.98438,0.40235 0,0.33 0,0.66 0,1 -8.77221,0.31899 -17.31825,-0.88363 -26,-2 6.44695,-4.29797 16.74947,-0.80837 24.01562,0.59765 z"
     fill="#d5dcd8"
     id="path47" />
  <path
     d="m 608.88099,208.79441 c 1.15628,-0.0142 2.31257,-0.0284 3.5039,-0.043 2.9336,0.23047 2.9336,0.23047 4.9336,2.23047 -0.375,2.625 -0.375,2.625 -1,5 -0.33,0 -0.66,0 -1,0 0,-1.65 0,-3.3 0,-5 -2.64,0.66 -5.28,1.32 -8,2 0,-0.99 0,-1.98 0,-3 -2.97,0.66 -5.94,1.32 -9,2 2.02049,-4.04099 6.56874,-3.16519 10.5625,-3.1875 z"
     fill="#897a7b"
     id="path48" />
  <path
     d="m 334.31849,211.98191 c 0,0.66 0,1.32 0,2 -1.65,0 -3.3,0 -5,0 -0.91659,3.17053 -1.18832,6.12824 -1.31641,9.42187 -0.0419,1.02481 -0.0838,2.04961 -0.12695,3.10547 -0.0393,1.06348 -0.0786,2.12695 -0.11914,3.22266 -0.0432,1.07894 -0.0864,2.15789 -0.13086,3.26953 -0.10593,2.66003 -0.20801,5.32016 -0.30664,7.98047 -0.33,0 -0.66,0 -1,0 -0.058,-4.10411 -0.0936,-8.20811 -0.125,-12.3125 -0.0168,-1.16725 -0.0335,-2.33449 -0.0508,-3.53711 -0.006,-1.11826 -0.0129,-2.23653 -0.0195,-3.38867 -0.0105,-1.03166 -0.0209,-2.06331 -0.0317,-3.12622 0.22705,-2.6355 0.22705,-2.6355 2.22705,-5.6355 3,-1 3,-1 6,-1 z"
     fill="#816b6b"
     id="path49" />
  <path
     d="m 524.31849,240.98191 c 0.66,0 1.32,0 2,0 -0.44529,5.27315 -1.08374,10.0177 -3,15 -0.99,0 -1.98,0 -3,0 0,-1.32 0,-2.64 0,-4 0.66,0 1.32,0 2,0 0.0606,-0.71028 0.12117,-1.42055 0.18359,-2.15235 0.12568,-1.37865 0.12568,-1.37865 0.25391,-2.78515 0.0812,-0.91653 0.16242,-1.83305 0.24609,-2.77735 0.31641,-2.28515 0.31641,-2.28515 1.31641,-3.28515 z"
     fill="#765856"
     id="path50" />
  <path
     d="m 257.31849,205.98191 c 0,0.66 0,1.32 0,2 -1.65,0 -3.3,0 -5,0 -0.25524,0.59297 -0.51047,1.18594 -0.77344,1.79687 -1.34473,2.41537 -2.71871,3.71524 -4.85156,5.45313 -0.63164,0.52078 -1.26329,1.04156 -1.91407,1.57812 -0.48211,0.38672 -0.96422,0.77344 -1.46093,1.17188 0,-3.60735 1.17586,-4.91605 3.5,-7.57031 3.11872,-2.97254 6.22351,-4.42969 10.5,-4.42969 z"
     fill="#806969"
     id="path51" />
  <path
     d="m 576.31849,188.98191 c 0.99,0 1.98,0 3,0 0,0.66 0,1.32 0,2 -0.99,0.495 -0.99,0.495 -2,1 -0.43401,2.08496 -0.43401,2.08496 -0.5625,4.5625 -0.0722,0.8959 -0.14438,1.79179 -0.21875,2.71484 -0.0722,0.89848 -0.14438,1.79695 -0.21875,2.72266 -0.30765,2.67055 -0.65441,5.334 -1,8 -0.33,0 -0.66,0 -1,0 -0.054,-2.75027 -0.0937,-5.49946 -0.125,-8.25 -0.0168,-0.77731 -0.0335,-1.55461 -0.0508,-2.35547 -0.0608,-7.11884 -0.0608,-7.11884 2.17579,-10.39453 z"
     fill="#857374"
     id="path52" />
  <path
     d="m 493.31849,266.98191 c 1.15628,0.12568 1.15628,0.12568 2.33593,0.2539 1.00289,0.10184 2.00578,0.20368 3.03907,0.3086 0.99773,0.10441 1.99546,0.20883 3.02343,0.3164 2.5856,0.33254 2.5856,0.33254 4.60157,-0.8789 2.008,0.28112 4.01014,0.61068 6,1 -1.16407,1.51172 -1.16407,1.51172 -3,3 -2.52344,0.14453 -2.52344,0.14453 -5.375,-0.1875 -0.93586,-0.0967 -1.87172,-0.19336 -2.83594,-0.29297 -2.80619,-0.52272 -5.18401,-1.36857 -7.78906,-2.51953 0,-0.33 0,-0.66 0,-1 z"
     fill="#826d6d"
     id="path53" />
  <path
     d="m 561.31849,255.98191 c 7.75,0.75 7.75,0.75 10,3 0.125,3.125 0.125,3.125 0,6 -0.33,0 -0.66,0 -1,0 0,-1.65 0,-3.3 0,-5 -2.31,0.33 -4.62,0.66 -7,1 -0.66,-1.65 -1.32,-3.3 -2,-5 z"
     fill="#857374"
     id="path54" />
  <path
     d="m 344.31849,205.98191 c 12.90191,-0.68913 12.90191,-0.68913 16.8125,2 0.72187,0.66 1.44375,1.32 2.1875,2 -0.33,0.99 -0.66,1.98 -1,3 -0.66,-0.99 -1.32,-1.98 -2,-3 -2.74246,-0.70446 -5.34128,-1.24759 -8.125,-1.6875 -0.75411,-0.12955 -1.50821,-0.2591 -2.28516,-0.39258 -1.86136,-0.31808 -3.72539,-0.62051 -5.58984,-0.91992 0,-0.33 0,-0.66 0,-1 z"
     fill="#847171"
     id="path55" />
  <path
     d="m 435.31849,183.98191 c 0.33,0.99 0.66,1.98 1,3 -2.64,2.64 -5.28,5.28 -8,8 -0.99,-0.33 -1.98,-0.66 -3,-1 1.28783,-1.48251 2.58039,-2.96091 3.875,-4.4375 0.71929,-0.82371 1.43859,-1.64742 2.17968,-2.4961 1.94532,-2.0664 1.94532,-2.0664 3.94532,-3.0664 z"
     fill="#7e6666"
     id="path56" />
  <path
     d="m 180.31849,183.98191 c 0,0.66 0,1.32 0,2 -0.96938,0.26812 -1.93875,0.53625 -2.9375,0.8125 -1.01063,0.39187 -2.02125,0.78375 -3.0625,1.1875 -0.33,0.99 -0.66,1.98 -1,3 -0.66,0 -1.32,0 -2,0 -0.10313,0.63937 -0.20625,1.27875 -0.3125,1.9375 -0.22688,0.68062 -0.45375,1.36125 -0.6875,2.0625 -0.99,0.33 -1.98,0.66 -3,1 0,0.66 0,1.32 0,2 -0.66,-0.33 -1.32,-0.66 -2,-1 0.78345,-1.1722 1.57702,-2.33764 2.375,-3.5 0.44086,-0.64969 0.88171,-1.29938 1.33593,-1.96875 0.42539,-0.50531 0.85078,-1.01063 1.28907,-1.53125 0.66,0 1.32,0 2,0 0.33,-0.99 0.66,-1.98 1,-3 4.33333,-3 4.33333,-3 7,-3 z"
     fill="#816c6c"
     id="path57" />
  <path
     d="m 430.31849,201.98191 c 0.99,0.33 1.98,0.66 3,1 -1.14155,1.83601 -2.28835,3.66875 -3.4375,5.5 -0.63809,1.02094 -1.27618,2.04187 -1.9336,3.09375 -0.53754,0.79406 -1.07508,1.58812 -1.6289,2.40625 -0.33,0 -0.66,0 -1,0 0,-1.98 0,-3.96 0,-6 0.66,0 1.32,0 2,0 0.33,-1.32 0.66,-2.64 1,-4 0.66,0 1.32,0 2,0 0,-0.66 0,-1.32 0,-2 z"
     fill="#765755"
     id="path58" />
  <path
     d="m 94.318486,123.98191 c 0.66,0 1.32,0 2,0 -1.477214,3.45201 -3.43794,5.64962 -6.125,8.25 -0.724453,0.7064 -1.448906,1.41281 -2.195313,2.14062 -0.554297,0.5311 -1.108593,1.06219 -1.679687,1.60938 -0.66,-0.33 -1.32,-0.66 -2,-1 0.66,-0.99 1.32,-1.98 2,-3 0.66,0 1.32,0 2,0 0.66,-1.32 1.32,-2.64 2,-4 0.66,0 1.32,0 2,0 0.66,-1.32 1.32,-2.64 2,-4 z"
     fill="#c7cdcb"
     id="path59" />
  <path
     d="m 254.31849,246.98191 c 5.61,0.66 11.22,1.32 17,2 0,1.65 0,3.3 0,5 -0.33,-1.32 -0.66,-2.64 -1,-4 -2.31,0.33 -4.62,0.66 -7,1 0,-0.66 0,-1.32 0,-2 -2.97,0 -5.94,0 -9,0 0,-0.66 0,-1.32 0,-2 z"
     fill="#836f6f"
     id="path60" />
  <path
     d="m 200.50599,245.41941 c 1.35158,0.15275 1.35158,0.15275 2.73046,0.30859 0.68707,0.0838 1.37415,0.16758 2.08204,0.25391 -2.3125,2.0625 -2.3125,2.0625 -5,4 -0.99,-0.33 -1.98,-0.66 -3,-1 -0.33,-0.66 -0.66,-1.32 -1,-2 -2.02464,-0.65214 -2.02464,-0.65214 -4,-1 3.20015,-1.06672 4.88544,-0.94846 8.1875,-0.5625 z"
     fill="#806a6a"
     id="path61" />
  <path
     d="m 515.31849,242.98191 c 0.33,0 0.66,0 1,0 0.36902,9.41002 0.36902,9.41002 -2,14 -0.33,0 -0.66,0 -1,0 -0.0544,-1.58295 -0.093,-3.16644 -0.125,-4.75 -0.0232,-0.88172 -0.0464,-1.76344 -0.0703,-2.67188 0.20392,-2.69171 0.8298,-4.27717 2.19532,-6.57812 z"
     fill="#7f6767"
     id="path62" />
  <path
     d="m 111.31849,230.98191 c 1.32,0 2.64,0 4,0 -1.2379,3.71369 -2.85225,4.77354 -6,7 -0.66,0 -1.32,0 -2,0 -0.33,-0.99 -0.66,-1.98 -1,-3 1.65,-0.66 3.3,-1.32 5,-2 0,-0.66 0,-1.32 0,-2 z"
     fill="#f2f2ed"
     id="path63" />
  <path
     d="m 87.318486,235.98191 c 2,3 2,3 1.875,5.5625 -0.875,2.4375 -0.875,2.4375 -2.9375,3.75 -0.959063,0.34031 -0.959063,0.34031 -1.9375,0.6875 0.609909,-3.5578 1.578368,-6.68286 3,-10 z"
     fill="#f0f2ef"
     id="path64" />
  <path
     d="m 483.31849,185.98191 c 3.96,0.33 7.92,0.66 12,1 -3,2 -3,2 -5,2 0,0.66 0,1.32 0,2 -0.99,0 -1.98,0 -3,0 0,-1.32 0,-2.64 0,-4 -1.32,-0.33 -2.64,-0.66 -4,-1 z"
     fill="#948f93"
     id="path65" />
  <path
     d="m 537.31849,236.98191 c 1,2 1,2 0.29296,4.34765 -0.3648,0.8959 -0.7296,1.7918 -1.10546,2.71485 -0.35707,0.89847 -0.71414,1.79695 -1.08204,2.72265 -1.10546,2.21485 -1.10546,2.21485 -3.10546,3.21485 0.45003,-5.62542 1.68441,-8.61487 5,-13 z"
     fill="#887879"
     id="path66" />
  <path
     d="m 529.31849,219.98191 c 0.66,0 1.32,0 2,0 0,2 0,2 -2.3125,4.4375 -0.88688,0.84562 -1.77375,1.69125 -2.6875,2.5625 -0.59813,0.59812 -1.19625,1.19625 -1.8125,1.8125 -0.39188,0.39187 -0.78375,0.78375 -1.1875,1.1875 -0.66,-0.33 -1.32,-0.66 -2,-1 1.28479,-1.5059 2.57804,-3.00458 3.875,-4.5 1.07894,-1.25297 1.07894,-1.25297 2.17968,-2.53125 0.64196,-0.64969 1.28391,-1.29938 1.94532,-1.96875 z"
     fill="#826e6e"
     id="path67" />
  <path
     d="m 283.31849,346.98191 c 0.99,0.33 1.98,0.66 3,1 -0.33,1.98 -0.66,3.96 -1,6 -1.32,0.33 -2.64,0.66 -4,1 0.52268,-2.76276 1.10869,-5.32609 2,-8 z"
     fill="#8b6f66"
     id="path68" />
  <path
     d="m 268.31849,337.98191 c 3.96,0 7.92,0 12,0 0,0.33 0,0.66 0,1 -1.65,0 -3.3,0 -5,0 0,0.66 0,1.32 0,2 -2.31,-0.33 -4.62,-0.66 -7,-1 0,-0.66 0,-1.32 0,-2 z"
     fill="#87665c"
     id="path69" />
  <path
     d="m 293.31849,205.98191 c 3.375,-0.125 3.375,-0.125 7,0 0.66,0.66 1.32,1.32 2,2 -0.66,0.66 -1.32,1.32 -2,2 -1.32,0 -2.64,0 -4,0 0,-0.66 0,-1.32 0,-2 -0.99,-0.66 -1.98,-1.32 -3,-2 z"
     fill="#8e8486"
     id="path70" />
  <path
     d="m 595.31849,257.98191 c 1.98,0.66 3.96,1.32 6,2 -0.33,1.98 -0.66,3.96 -1,6 -0.33,0 -0.66,0 -1,0 0,-1.65 0,-3.3 0,-5 -1.32,0 -2.64,0 -4,0 0,-0.99 0,-1.98 0,-3 z"
     fill="#826e6e"
     id="path71" />
  <path
     d="m 237.31849,250.98191 c 0.66,0 1.32,0 2,0 0.33,2.64 0.66,5.28 1,8 -0.99,0 -1.98,0 -3,0 0,-0.66 0,-1.32 0,-2 -0.66,-0.33 -1.32,-0.66 -2,-1 0.66,-0.33 1.32,-0.66 2,-1 0,-1.32 0,-2.64 0,-4 z"
     fill="#847171"
     id="path72" />
  <path
     d="m 189.31849,193.98191 c 0.99,0.33 1.98,0.66 3,1 -3.96,3.465 -3.96,3.465 -8,7 -0.66,-0.33 -1.32,-0.66 -2,-1 4.75,-5.875 4.75,-5.875 7,-7 z"
     fill="#a9b6bd"
     id="path73" />
  <path
     d="m 290.31849,325.98191 c 0.33,0.99 0.66,1.98 1,3 0.99,0 1.98,0 3,0 -0.33,0.99 -0.66,1.98 -1,3 -2.475,-0.99 -2.475,-0.99 -5,-2 0,-0.99 0,-1.98 0,-3 0.66,-0.33 1.32,-0.66 2,-1 z"
     fill="#7c5a55"
     id="path74" />
  <path
     d="m 307.31849,208.98191 c 1.98,0.99 1.98,0.99 4,2 0,0.99 0,1.98 0,3 1.32,-0.33 2.64,-0.66 4,-1 -0.33,0.66 -0.66,1.32 -1,2 -1.65,0 -3.3,0 -5,0 0,-0.99 0,-1.98 0,-3 -0.66,0 -1.32,0 -2,0 0,-0.99 0,-1.98 0,-3 z"
     fill="#836f70"
     id="path75" />
  <path
     d="m 108.31849,204.98191 c 0.66,0.99 1.32,1.98 2,3 -0.875,2.6875 -0.875,2.6875 -2,5 -0.99,0 -1.98,0 -3,0 0.30937,-0.76313 0.61875,-1.52625 0.9375,-2.3125 0.74143,-1.8754 1.42478,-3.77435 2.0625,-5.6875 z"
     fill="#f4f2ed"
     id="path76" />
  <path
     d="m 445.31849,178.98191 c 0,0.66 0,1.32 0,2 -2.30369,1.06652 -4.64019,2.06421 -7,3 -0.66,-0.33 -1.32,-0.66 -2,-1 5.625,-4 5.625,-4 9,-4 z"
     fill="#847272"
     id="path77" />
  <path
     d="m 211.31849,259.98191 c 0.10312,0.63937 0.20625,1.27875 0.3125,1.9375 0.22687,0.68062 0.45375,1.36125 0.6875,2.0625 0.99,0.33 1.98,0.66 3,1 -0.33,1.98 -0.66,3.96 -1,6 -0.33,-1.32 -0.66,-2.64 -1,-4 -0.66,0 -1.32,0 -2,0 0,-2.31 0,-4.62 0,-7 z"
     fill="#816c6c"
     id="path78" />
  <path
     d="m 558.31849,228.98191 c 0,0.66 0,1.32 0,2 0.99,0 1.98,0 3,0 0,0.66 0,1.32 0,2 -0.72188,-0.35063 -1.44375,-0.70125 -2.1875,-1.0625 -3.12477,-1.04159 -4.69412,-0.82847 -7.8125,0.0625 2.50044,-3.00053 2.73785,-3 7,-3 z"
     fill="#816b6c"
     id="path79" />
  <path
     d="m 492.31849,397.98191 c 0.66,0.33 1.32,0.66 2,1 -0.56372,3.26954 -1.49963,4.82576 -4,7 0.875,-5.75 0.875,-5.75 2,-8 z"
     fill="#d9b881"
     id="path80" />
  <path
     d="m 48.318486,290.98191 c 1.429449,2.35438 2.086612,3.48032 1.625,6.25 -0.20625,0.5775 -0.4125,1.155 -0.625,1.75 -0.99,-0.99 -1.98,-1.98 -3,-3 1,-3 1,-3 2,-5 z"
     fill="#d1dddc"
     id="path81" />
  <path
     d="m 220.31849,231.98191 c 0.66,0 1.32,0 2,0 0,1.98 0,3.96 0,6 -0.99,0.33 -1.98,0.66 -3,1 0.33,-2.31 0.66,-4.62 1,-7 z"
     fill="#795c5b"
     id="path82" />
  <path
     d="m 492.31849,86.981908 c 0.33,0.99 0.66,1.98 1,3 -1.3125,2.1875 -1.3125,2.1875 -3,4 -0.66,0 -1.32,0 -2,0 1.07401,-2.915173 1.7781,-4.778102 4,-7 z"
     fill="#7b5a56"
     id="path83" />
</svg>
