<?xml version="1.0" encoding="UTF-8"?>
<svg version="1.1" xmlns="http://www.w3.org/2000/svg" width="1640" height="2360">
<path d="M0 0 C541.2 0 1082.4 0 1640 0 C1640 778.8 1640 1557.6 1640 2360 C1098.8 2360 557.6 2360 0 2360 C0 1581.2 0 802.4 0 0 Z " fill="#FEFEFE" transform="translate(0,0)"/>
<path d="M0 0 C12.87 0 25.74 0 39 0 C36.70145603 21.8361677 36.70145603 21.8361677 35.4921875 31.35546875 C35.36184113 32.3939949 35.23149475 33.43252106 35.09719849 34.5025177 C34.69157587 37.73107179 34.28335144 40.95929005 33.875 44.1875 C33.59487713 46.41338945 33.31492821 48.63930079 33.03515625 50.86523438 C32.35876896 56.2437428 31.68026174 61.6219803 31 67 C31.75925781 67.14179687 32.51851562 67.28359375 33.30078125 67.4296875 C47.65816048 70.46322928 59.70849358 82.50802381 68.0234375 93.9375 C70.71872711 98.1136009 72.3974901 102.32262338 74 107 C74.55137775 108.25494575 75.11291086 109.50551072 75.6875 110.75 C80.6235938 122.97270846 79.71611948 142.7904507 75.2578125 155.0390625 C74.29059202 157.1190145 73.18568667 159.0355487 72 161 C71.41992188 162.010625 70.83984375 163.02125 70.2421875 164.0625 C63.94558403 174.72968706 57.05276777 182.76293802 47 190 C48.38404452 196.39583308 51.34129182 201.08644523 54.9375 206.5 C60.98090289 215.66281204 60.98090289 215.66281204 62.62890625 219.71875 C64.07269063 223.17396049 65.85155587 225.94009472 68 229 C70.89732204 233.24344625 73.01665819 237.2572261 75 242 C76.77339491 244.82186857 78.60422688 247.59441004 80.4765625 250.3515625 C81.98910712 252.98106314 82.60123671 255.014664 83 258 C83.66 258 84.32 258 85 258 C85.43570312 258.83402344 85.87140625 259.66804688 86.3203125 260.52734375 C89.5218088 266.57692442 92.83974794 272.38647728 96.734375 278.0234375 C98.54228006 280.84689417 99.68104235 283.92243216 101 287 C101.99832518 288.51507344 103.02099113 290.01428133 104.0625 291.5 C106.69139834 295.30309611 108.04111136 298.49322337 109 303 C109.66 303 110.32 303 111 303 C111.29132813 303.61746094 111.58265625 304.23492188 111.8828125 304.87109375 C114.46251016 310.20084647 117.31221616 315.05987897 120.671875 319.9296875 C122.11511841 322.17944928 123.06078761 324.50046917 124.0234375 326.98828125 C125.92284434 330.90105935 128.56856014 334.38552505 131.0625 337.9375 C133 341 133 341 134.46484375 344.4375 C136.4031516 348.93555792 138.99746495 352.73461809 141.77148438 356.75 C144.44959498 360.75598848 145.89165763 364.30302476 147 369 C147.66 369 148.32 369 149 369 C149.53625 370.134375 150.0725 371.26875 150.625 372.4375 C152.6038966 376.42346255 154.95515603 380.00869375 157.53515625 383.62890625 C160.01511901 387.6431393 161.64604933 392.10702356 163.3815918 396.4855957 C166.31866468 402.82526272 166.31866468 402.82526272 171.90289307 406.70452881 C177.49733425 407.76104826 183.15417595 407.43025223 188.8125 407.1875 C191.35001265 407.13647406 193.88727552 407.10385942 196.42510986 407.07350159 C198.05977121 407.05329003 199.69436419 407.02631852 201.32879639 406.99229431 C207.42701654 406.89516243 213.06421245 407.55498355 219 409 C220.06476563 409.19722656 221.12953125 409.39445312 222.2265625 409.59765625 C223.01804687 409.75105469 223.80953125 409.90445312 224.625 410.0625 C225.44226562 410.21847656 226.25953125 410.37445312 227.1015625 410.53515625 C229 411 229 411 230 412 C230.10025695 414.36761575 230.13618935 416.70607073 230.12939453 419.07421875 C230.13202301 420.18393539 230.13202301 420.18393539 230.13470459 421.31607056 C230.1391231 423.77323723 230.13618513 426.23033253 230.1328125 428.6875 C230.13348554 430.38761407 230.13445557 432.08772805 230.13571167 433.7878418 C230.13718864 437.35564081 230.13503411 440.92341483 230.13037109 444.49121094 C230.1246738 449.07488494 230.12795281 453.65850039 230.13394356 458.24217224 C230.13754919 461.75419561 230.13641057 465.26620498 230.13381577 468.77822876 C230.1331465 470.46880093 230.13397489 472.15937436 230.13629532 473.84994507 C230.13882189 476.20859157 230.13498121 478.56714195 230.12939453 480.92578125 C230.13141876 481.63127106 230.13344299 482.33676086 230.13552856 483.06362915 C230.11426271 487.88573729 230.11426271 487.88573729 229 489 C227.15881971 489.09381302 225.31402359 489.11743954 223.47045898 489.11352539 C221.67384827 489.11334412 221.67384827 489.11334412 219.84094238 489.11315918 C218.57214233 489.10804321 217.30334229 489.10292725 215.99609375 489.09765625 C214.83726685 489.09664917 213.67843994 489.09564209 212.48449707 489.09460449 C208.13548805 489.08935327 203.78649308 489.07539216 199.4375 489.0625 C184.8659375 489.0315625 184.8659375 489.0315625 170 489 C170 522.66 170 556.32 170 591 C172.97 591 175.94 591 179 591 C187.82970243 592.28527029 195.95755233 595.21531875 204 599 C204.98484375 599.45375 205.9696875 599.9075 206.984375 600.375 C213.13712344 603.43474517 217.83467375 606.73612654 221 613 C221 613.99 221 614.98 221 616 C222.05058594 615.95359375 223.10117188 615.9071875 224.18359375 615.859375 C232.28641527 615.61243187 238.87782224 615.56842273 246 620 C246 620.66 246 621.32 246 622 C246.5775 622.226875 247.155 622.45375 247.75 622.6875 C253.34593948 625.95179803 255.93414535 632.09340149 258 638 C261.27410726 653.64768147 258.97041691 669.27773583 251 683 C250.62359375 683.67546875 250.2471875 684.3509375 249.859375 685.046875 C247.62370712 688.77298814 247.62370712 688.77298814 245.25328922 689.63575363 C242.49733361 690.08125651 239.86545949 690.13256148 237.07237244 690.14044189 C235.25317039 690.14900711 235.25317039 690.14900711 233.3972168 690.15774536 C232.05639659 690.15899059 230.71557626 690.16011571 229.37475586 690.16113281 C227.96033092 690.16576288 226.54590723 690.1707878 225.13148499 690.17617798 C221.29280033 690.18928077 217.45413315 690.19574211 213.61542964 690.20018864 C211.21798324 690.20312116 208.82054161 690.20722618 206.42309761 690.21169281 C198.92397456 690.22535856 191.42486242 690.23503125 183.92572778 690.2388947 C175.2644417 690.24338145 166.60331295 690.26096165 157.94207472 690.2898953 C151.2481564 690.31148269 144.55428246 690.32159731 137.86032969 690.32293582 C133.86120557 690.32398543 129.86222954 690.32992692 125.86314201 690.34775543 C122.10466806 690.36418668 118.34645436 690.36641597 114.58795738 690.35761642 C113.20724543 690.35684353 111.82651975 690.36122182 110.44584274 690.37107468 C108.5641519 690.38371784 106.68235731 690.37615359 104.80064392 690.36749268 C103.74669906 690.36895924 102.69275419 690.3704258 101.6068716 690.3719368 C99 690 99 690 97.188241 688.61765671 C96 687 96 687 95.1875 684.75 C94.24670872 682.03279852 94.24670872 682.03279852 92.54296875 680.71875 C89.16843015 677.74725934 87.85137439 675.34682882 87.5390625 670.875 C87.26059469 659.10910796 87.26059469 659.10910796 90 655 C90.309375 654.05125 90.61875 653.1025 90.9375 652.125 C91.98599953 649.04117786 93.230417 646.72243538 95 644 C95.680625 642.906875 96.36125 641.81375 97.0625 640.6875 C97.701875 639.800625 98.34125 638.91375 99 638 C99.66 638 100.32 638 101 638 C101.33 637.01 101.66 636.02 102 635 C104.36328125 633.02734375 104.36328125 633.02734375 107.3125 630.9375 C108.27800781 630.24527344 109.24351562 629.55304687 110.23828125 628.83984375 C114.84088195 625.7736133 117.40020718 624.74546396 123 625 C123.33 622.03 123.66 619.06 124 616 C124.66 616 125.32 616 126 616 C126.0928125 614.948125 126.0928125 614.948125 126.1875 613.875 C128.38509936 606.0988792 136.30714815 600.85424931 143 597 C145.64 596.34 148.28 595.68 151 595 C151 560.02 151 525.04 151 489 C97.87 489 44.74 489 -10 489 C-10 562.92 -10 636.84 -10 713 C0.24996177 709.95566266 0.24996177 709.95566266 10.15625 706.02734375 C21.66728995 700.98167124 33.38023724 699.73353483 45.8125 699.625 C46.75440186 699.61114258 47.69630371 699.59728516 48.66674805 699.58300781 C55.33884704 699.62737561 64.47254744 699.76750598 69.64379883 704.50634766 C70.09134521 704.99925293 70.5388916 705.4921582 71 706 C71.886875 706.515625 72.77375 707.03125 73.6875 707.5625 C76.82879013 710.8735896 76.5976053 713.24075265 76.6640625 717.66015625 C76 720 76 720 73.8359375 721.78515625 C70.67360188 723.13982068 68.42751459 723.33215607 65 723.375 C56.9000464 723.81681565 49.5111832 726.26726402 42.5625 730.4765625 C40 732 40 732 36.5703125 733.44140625 C22.80121491 739.45220487 10.22939913 751.34181162 1 763 C0.49984375 763.60457031 -0.0003125 764.20914063 -0.515625 764.83203125 C-2.24625937 767.3596683 -3.14246222 769.79017404 -4.125 772.6875 C-5.90945674 777.90945674 -5.90945674 777.90945674 -7 779 C-7.82026222 784.81451702 -7.66322166 789.78707551 -4.5625 794.875 C1.45770438 802.69707529 10.06339773 805.37449567 19.58349609 806.74316406 C26.9646303 807.52766125 34.41290445 807.60816261 41.828125 807.7890625 C59.29145833 808.29145833 59.29145833 808.29145833 66 815 C65.8389671 818.0998833 65.40162282 819.57686167 63.25 821.84375 C55.01247947 827.90748039 47.88491865 832.14915114 37.796875 834.32421875 C35.02390747 834.91429205 35.02390747 834.91429205 32.62426758 836.00390625 C24.09177854 839.24258476 13.7643876 838.18632458 4.73022461 838.18530273 C2.56929922 838.18749311 0.40888286 838.20573423 -1.75195312 838.22460938 C-9.9488798 838.25752688 -17.99506989 837.97680777 -26 836 C-26.33 835.67 -26.66 835.34 -27 835 C-30.29123558 834.4605275 -33.59204015 834.0338661 -36.8984375 833.59765625 C-40 833 -40 833 -43 831 C-44.19625 830.731875 -45.3925 830.46375 -46.625 830.1875 C-58.3177174 827.35483804 -68.27757969 818.85510977 -74.61743164 808.8046875 C-79.69843617 799.93872295 -79.99894738 791.99977219 -79 782 C-78.94714844 781.17113281 -78.89429688 780.34226562 -78.83984375 779.48828125 C-77.64447447 770.64928308 -70.84372808 759.62743505 -65 753 C-64.34 753 -63.68 753 -63 753 C-62.731875 752.41605469 -62.46375 751.83210938 -62.1875 751.23046875 C-55.85008233 739.32696385 -41.54980223 727.70617583 -29 723 C-29.16251975 722.36670934 -29.3250395 721.73341867 -29.49248409 721.08093739 C-30.1750303 716.93745713 -30.1341873 712.8973225 -30.12025452 708.70500183 C-30.12153615 707.29589341 -30.12153615 707.29589341 -30.12284368 705.85831815 C-30.12449138 702.70915562 -30.11898869 699.5600463 -30.11352539 696.41088867 C-30.11324334 694.15402223 -30.1134016 691.8971557 -30.1139679 689.64028931 C-30.11425517 683.51060757 -30.10836966 677.38094534 -30.10139394 671.25126815 C-30.09514883 664.84641223 -30.09455568 658.44155588 -30.09336853 652.03669739 C-30.09061212 641.28560992 -30.08436303 630.534531 -30.07543945 619.78344727 C-30.06625831 608.71053096 -30.05919238 597.63761661 -30.05493164 586.56469727 C-30.05466364 585.87502906 -30.05439565 585.18536085 -30.05411953 584.47479361 C-30.05180663 578.47552983 -30.04965386 572.47626599 -30.04751682 566.47700214 C-30.03810973 540.65132802 -30.01818852 514.82567289 -30 489 C-82.8 489 -135.6 489 -190 489 C-190 517.05 -190 545.1 -190 574 C-189.34 574 -188.68 574 -188 574 C-184.49707258 580.25819445 -182.26775275 586.18579155 -180.68359375 593.17578125 C-179.77203229 596.9418323 -178.40682006 600.39120073 -177 604 C-176.31949287 606.32933444 -175.65078865 608.66218841 -175 611 C-174.31075439 611.11480713 -173.62150879 611.22961426 -172.91137695 611.34790039 C-142.29331905 616.58260886 -142.29331905 616.58260886 -133.75 626.3125 C-131.33055776 630.02807202 -130.84234857 631.90088139 -130.8125 636.3125 C-130.79832031 637.25738281 -130.78414062 638.20226563 -130.76953125 639.17578125 C-131.41366657 647.06916836 -136.88096705 651.59890384 -142.43164062 656.66943359 C-146.28731543 659.94051511 -150.61274117 662.51360379 -155 665 C-153.64868864 669.07379173 -153.64868864 669.07379173 -152.25390625 673.1328125 C-147.9766652 685.45706637 -144.31545151 698.22159273 -149 711 C-151 713.5625 -151 713.5625 -153 715 C-153.66 715 -154.32 715 -155 715 C-155 715.66 -155 716.32 -155 717 C-161.80725986 719.26908662 -168.94583427 718.93043707 -175.375 715.75 C-176.93365897 714.86253389 -178.47764687 713.94839593 -180 713 C-181.5778125 712.0409375 -181.5778125 712.0409375 -183.1875 711.0625 C-188.54480358 707.13381071 -193.37713565 702.76295115 -198 698 C-198 698.66 -198 699.32 -198 700 C-200.85762024 702.40659519 -204.03163396 704.4090297 -207.125 706.5 C-208.40890625 707.39138672 -208.40890625 707.39138672 -209.71875 708.30078125 C-214.07975419 711.27297333 -217.8956037 713.49966626 -223 715 C-223.33 715.66 -223.66 716.32 -224 717 C-233.6760591 717.86051909 -233.6760591 717.86051909 -237.5 714.75 C-241.84175902 709.97406507 -242.43459175 706.54464985 -242.32421875 700.2109375 C-241.46785013 691.72979283 -238.43891008 683.73754768 -235 676 C-235 675.01 -235 674.02 -235 673 C-240.07099916 668.51058425 -245.7965994 665.59414934 -252 663 C-257.6828229 659.76839472 -264.01505785 656.0257821 -267 650 C-268.32070134 643.64805544 -267.62087926 638.30945865 -264.5 632.625 C-261.37818899 628.01272815 -257.67506037 624.95057115 -253 622 C-252.01 621.34 -251.02 620.68 -250 620 C-248.2050944 619.40261157 -246.38942603 618.86581595 -244.5625 618.375 C-243.61503906 618.11460937 -242.66757812 617.85421875 -241.69140625 617.5859375 C-239 617 -239 617 -235 617 C-235.04125 615.948125 -235.0825 614.89625 -235.125 613.8125 C-234.961999 608.84096937 -233.8207071 606.21782343 -231.0625 602.125 C-229.29322307 599.44427737 -228.10873292 596.93072444 -226.8984375 593.9765625 C-223.31961069 586.10314353 -218.1315755 578.1315755 -212 572 C-211.87494915 569.41450228 -211.813952 566.85438589 -211.79467773 564.26733398 C-211.78477814 563.4576416 -211.77487854 562.64794922 -211.76467896 561.8137207 C-211.73297013 559.12454195 -211.70826965 556.4353455 -211.68359375 553.74609375 C-211.66303231 551.88663766 -211.64203606 550.02718632 -211.62062073 548.16773987 C-211.56531634 543.26376185 -211.5159441 538.35974107 -211.46777344 533.45568848 C-211.40880774 527.5769506 -211.34253393 521.6982912 -211.27747345 515.81961823 C-211.17935873 506.87979324 -211.09057473 497.93991889 -211 489 C-223.54 489 -236.08 489 -249 489 C-249.639375 485.225625 -250.27875 481.45125 -250.9375 477.5625 C-251.23708618 475.80595093 -251.23708618 475.80595093 -251.54272461 474.01391602 C-253.36830475 463.14596611 -254.21490612 452.53542384 -254.60546875 441.52734375 C-254.80630985 436.32625175 -255.15008167 431.20006668 -255.76855469 426.03222656 C-256.10673564 423.06279807 -256.28189022 420.11167519 -256.375 417.125 C-256.42398438 416.03445313 -256.47296875 414.94390625 -256.5234375 413.8203125 C-256 411 -256 411 -254.1640625 409.1796875 C-245.33223864 405.88683465 -235.09531361 406.87244524 -225.8125 406.9375 C-223.9552832 406.94426758 -223.9552832 406.94426758 -222.06054688 406.95117188 C-219.04031215 406.96283301 -216.02018323 406.97919764 -213 407 C-212.566875 405.7934375 -212.566875 405.7934375 -212.125 404.5625 C-211 402 -211 402 -209 401 C-207.96567096 399.01753602 -206.96761608 397.01586684 -206 395 C-205.34 394.01 -204.68 393.02 -204 392 C-203.34 392 -202.68 392 -202 392 C-201.75894531 391.29230469 -201.51789063 390.58460938 -201.26953125 389.85546875 C-199.80072504 386.55178464 -197.94451962 384.138392 -195.6875 381.3125 C-191.55923891 376.06742201 -187.58233533 370.73313502 -183.6875 365.3125 C-183.14851074 364.56258789 -182.60952148 363.81267578 -182.05419922 363.04003906 C-180.94288722 361.49252646 -179.83205358 359.94467023 -178.72167969 358.39648438 C-176.93659902 355.91174928 -175.14509113 353.43176818 -173.3515625 350.953125 C-172.75899658 350.13416748 -172.16643066 349.31520996 -171.5559082 348.47143555 C-170.41662014 346.89723652 -169.27714259 345.32317461 -168.13745117 343.74926758 C-167.6241626 343.03923584 -167.11087402 342.3292041 -166.58203125 341.59765625 C-165.90491089 340.66191772 -165.90491089 340.66191772 -165.21411133 339.70727539 C-164.11300446 338.15890613 -163.05391339 336.58087009 -162 335 C-161.34 335 -160.68 335 -160 335 C-159.67 333.68 -159.34 332.36 -159 331 C-158.34 331 -157.68 331 -157 331 C-156.75894531 330.29230469 -156.51789063 329.58460938 -156.26953125 328.85546875 C-154.80072504 325.55178464 -152.94451962 323.138392 -150.6875 320.3125 C-146.55923891 315.06742201 -142.58233533 309.73313502 -138.6875 304.3125 C-138.14851074 303.56258789 -137.60952148 302.81267578 -137.05419922 302.04003906 C-135.94288722 300.49252646 -134.83205358 298.94467023 -133.72167969 297.39648438 C-131.93659902 294.91174928 -130.14509113 292.43176818 -128.3515625 289.953125 C-127.46271362 288.72468872 -127.46271362 288.72468872 -126.5559082 287.47143555 C-125.41662014 285.89723652 -124.27714259 284.32317461 -123.13745117 282.74926758 C-122.6241626 282.03923584 -122.11087402 281.3292041 -121.58203125 280.59765625 C-120.90491089 279.66191772 -120.90491089 279.66191772 -120.21411133 278.70727539 C-119.11300446 277.15890613 -118.05391339 275.58087009 -117 274 C-116.34 274 -115.68 274 -115 274 C-114.75894531 273.29230469 -114.51789063 272.58460938 -114.26953125 271.85546875 C-112.80072504 268.55178464 -110.94451962 266.138392 -108.6875 263.3125 C-104.55923736 258.06742004 -100.58238448 252.73310071 -96.6875 247.3125 C-96.14633545 246.5596875 -95.6051709 245.806875 -95.04760742 245.03125 C-93.93406341 243.4808327 -92.82103187 241.9300472 -91.70849609 240.37890625 C-88.81500973 236.35002212 -85.90654058 232.33197094 -83 228.3125 C-81.95809326 226.87126727 -80.91641524 225.42986917 -79.875 223.98828125 C-79.39289063 223.32393066 -78.91078125 222.65958008 -78.4140625 221.97509766 C-77.45588285 220.63675626 -76.51354905 219.28695295 -75.5859375 217.92724609 C-74.43657525 216.25235308 -73.22389134 214.62123107 -72 213 C-71.34 213 -70.68 213 -70 213 C-69.76023437 212.29359375 -69.52046875 211.5871875 -69.2734375 210.859375 C-67.79072165 207.53008664 -65.90315039 205.09584482 -63.625 202.25 C-58.78836366 196.14546366 -54.31275886 189.82716446 -49.93603516 183.38574219 C-49.45183105 182.68481445 -48.96762695 181.98388672 -48.46875 181.26171875 C-48.04013672 180.63225342 -47.61152344 180.00278809 -47.16992188 179.35424805 C-46.78384766 178.90734619 -46.39777344 178.46044434 -46 178 C-45.34 178 -44.68 178 -44 178 C-44.309375 177.236875 -44.61875 176.47375 -44.9375 175.6875 C-45.67893593 173.81210323 -46.36228217 171.91315348 -47 170 C-47.66 170 -48.32 170 -49 170 C-49.25394531 169.33613281 -49.50789062 168.67226563 -49.76953125 167.98828125 C-50.11371094 167.10527344 -50.45789063 166.22226562 -50.8125 165.3125 C-51.14894531 164.44238281 -51.48539063 163.57226562 -51.83203125 162.67578125 C-52.92578592 159.97671095 -52.92578592 159.97671095 -54.53125 157.6171875 C-62.08881091 144.15025716 -60.31878826 124.16155546 -56.375 109.9375 C-56.13982666 109.0813208 -55.90465332 108.2251416 -55.66235352 107.34301758 C-52.96953275 98.51927475 -47.92570875 91.67205356 -41.75 84.9375 C-40.89921875 83.99777344 -40.0484375 83.05804687 -39.171875 82.08984375 C-37 80 -37 80 -35 80 C-35 79.34 -35 78.68 -35 78 C-24.80613341 69.67261603 -14.29769725 63.72034285 -1 64 C-1.00785522 63.17036743 -1.00785522 63.17036743 -1.01586914 62.32397461 C-1.18147912 41.53048814 -0.57939488 20.78579114 0 0 Z " fill="#070707" transform="translate(835,693)"/>
<path d="M0 0 C149.49 0 298.98 0 453 0 C453 33 453 33 452 42 C395.23332815 42.11434246 338.46666773 42.20249651 281.69990344 42.25532665 C275.00428114 42.26158049 268.30865906 42.26804627 261.61303711 42.2746582 C260.61357576 42.2756389 260.61357576 42.2756389 259.59392328 42.2766394 C237.98305069 42.29795975 216.37224332 42.3355264 194.76141027 42.3814861 C171.93126894 42.42995091 149.10115627 42.45997158 126.27096349 42.47044247 C112.58828833 42.47731705 98.90580034 42.49906125 85.22318278 42.53958233 C75.85169328 42.5659291 66.48030112 42.57401935 57.10877725 42.56750689 C51.69473965 42.5642914 46.28103005 42.56936061 40.86705017 42.59602737 C35.91683655 42.62023298 30.96717366 42.62167073 26.0169355 42.60449447 C24.22011314 42.60236945 22.42325739 42.60881928 20.62650146 42.62441591 C18.19514526 42.64430474 15.76581175 42.63378147 13.33449078 42.61523914 C12.27300524 42.63494175 12.27300524 42.63494175 11.19007555 42.65504238 C9.23236054 42.62099248 9.23236054 42.62099248 6 42 C2.88298945 38.2154585 2.47975501 34.75628321 2.05078125 29.94140625 C1.98843796 29.27463364 1.92609467 28.60786102 1.86186218 27.92088318 C1.66700686 25.80229044 1.4898404 23.68262257 1.3125 21.5625 C1.18272961 20.14247819 1.05188028 18.72255453 0.91992188 17.30273438 C0.39581218 11.51035077 0 5.82520466 0 0 Z " fill="#986A62" transform="translate(595,1120)"/>
<path d="M0 0 C3.48129472 0.77032904 5.97907791 2.09204921 9 4 C9.99 4.495 9.99 4.495 11 5 C11.21550992 17.16433762 10.97586117 29.13872492 9.85205078 41.25537109 C8.92607988 51.34155331 8.33761467 61.43988384 7.78564453 71.55200195 C7.35262578 79.16773114 6.75938226 86.74653132 6.03125 94.33984375 C4.81320449 107.18551206 4.15813695 120.05306417 3.5 132.9375 C2.84781565 145.68563795 2.19206418 158.41549701 1.03125 171.12890625 C-0.26615271 186.0637806 -1.0931112 201.03633473 -2 216 C-51.5 216 -101 216 -152 216 C-151.22404875 212.89619499 -150.4731994 210.74997221 -149 208 C-148.34 208 -147.68 208 -147 208 C-146.8453125 207.071875 -146.8453125 207.071875 -146.6875 206.125 C-146 204 -146 204 -143 202 C-141.9756719 200.30155788 -141.9756719 200.30155788 -141.15625 198.33984375 C-139.08141735 193.97699725 -136.46483598 190.35814966 -133.5 186.5625 C-129.23711742 180.9935567 -125.08390794 175.37091804 -121.0625 169.625 C-116.86247612 163.62940889 -112.6113038 157.67519189 -108.3125 151.75 C-99.50286287 140.2777052 -99.50286287 140.2777052 -92 128 C-91.34 128 -90.68 128 -90 128 C-89.505 126.02 -89.505 126.02 -89 124 C-88.34 124 -87.68 124 -87 124 C-86.731875 123.27425781 -86.46375 122.54851562 -86.1875 121.80078125 C-85.01329619 119.03135976 -83.6605676 116.69080566 -82 114.1875 C-81.484375 113.39730469 -80.96875 112.60710937 -80.4375 111.79296875 C-79.963125 111.20128906 -79.48875 110.60960937 -79 110 C-78.34 110 -77.68 110 -77 110 C-76.88624023 109.41621582 -76.77248047 108.83243164 -76.65527344 108.23095703 C-75.94377203 105.80856513 -75.01043444 104.32958992 -73.515625 102.3046875 C-72.9990332 101.59787842 -72.48244141 100.89106934 -71.95019531 100.1628418 C-71.10859863 99.03036011 -71.10859863 99.03036011 -70.25 97.875 C-69.06237667 96.2539966 -67.87488029 94.63290018 -66.6875 93.01171875 C-66.07648438 92.1820459 -65.46546875 91.35237305 -64.8359375 90.49755859 C-61.95315617 86.57590261 -59.10003714 82.63298839 -56.25 78.6875 C-55.71310547 77.94483887 -55.17621094 77.20217773 -54.62304688 76.43701172 C-46.72809225 66.07433606 -46.72809225 66.07433606 -40 55 C-39.34 55 -38.68 55 -38 55 C-37.7628125 54.48953125 -37.525625 53.9790625 -37.28125 53.453125 C-35.53104667 50.10212593 -33.52831476 46.93827751 -31.5 43.75 C-30.89478516 42.77546875 -30.89478516 42.77546875 -30.27734375 41.78125 C-29.23975959 40.15124981 -28.12546338 38.57060934 -27 37 C-26.34 37 -25.68 37 -25 37 C-24.814375 36.1028125 -24.814375 36.1028125 -24.625 35.1875 C-24 33 -24 33 -22 30 C-21.34 30 -20.68 30 -20 30 C-19.7421875 29.27683594 -19.484375 28.55367187 -19.21875 27.80859375 C-17.9391896 24.85986321 -16.42969088 22.62883069 -14.5 20.0625 C-11.11805838 15.51179914 -7.78804342 10.93116613 -4.5 6.3125 C-3.63542736 5.10025279 -2.77084493 3.88801256 -1.90625 2.67578125 C-0.96265625 1.35126953 -0.96265625 1.35126953 0 0 Z " fill="#FBFBFB" transform="translate(808,884)"/>
<path d="M0 0 C6.6 0 13.2 0 20 0 C22.5390625 4.78515625 22.5390625 4.78515625 25.078125 9.5703125 C26.95209859 13.01794195 26.95209859 13.01794195 29.1484375 16.22265625 C30.85242715 18.77864073 31.94719206 21.24179835 33.08203125 24.08203125 C34.19240261 26.40199864 35.58642005 28.3948884 37.0625 30.5 C39.69139834 34.30309611 41.04111136 37.49322337 42 42 C42.66 42 43.32 42 44 42 C44.68835938 43.30324219 44.68835938 43.30324219 45.390625 44.6328125 C46.31101562 46.36144531 46.31101562 46.36144531 47.25 48.125 C47.85328125 49.26195312 48.4565625 50.39890625 49.078125 51.5703125 C50.95324609 55.01998972 50.95324609 55.01998972 53.15625 58.234375 C54.82490357 60.73735535 55.84246731 63.1027532 56.94921875 65.87890625 C58.92081174 69.85873893 61.60433034 73.41321302 64.16015625 77.03515625 C65.98803625 79.98072083 66.93016388 82.72392405 68 86 C68.66 86.33 69.32 86.66 70 87 C70.84845154 88.53240737 71.63076747 90.10185808 72.375 91.6875 C73.83037241 94.70097699 75.26275605 97.39413408 77.125 100.1875 C79 103 79 103 80.33203125 106.23046875 C81.98206715 110.17124597 84.18189927 113.59099239 86.5625 117.125 C90.73947263 123.34659736 90.73947263 123.34659736 91.9765625 126.44921875 C93.46294753 130.15383487 95.65195295 133.34276138 97.8125 136.6875 C101.15067577 141.92734148 104.19506613 147.1394908 106.84765625 152.765625 C108.11685742 155.22658456 109.60077934 157.41966903 111.1875 159.6875 C113.76652275 163.41349174 115.05956302 166.57994622 116 171 C116.66 171 117.32 171 118 171 C123.93892369 181.62855923 123.93892369 181.62855923 125.6875 186 C126.91947661 188.81594654 127.8544121 189.94769853 130 192 C130.66666667 193.66666667 131.33333333 195.33333333 132 197 C133.28132069 199.1085024 134.61526977 201.17279217 135.9765625 203.23046875 C137 205 137 205 137 207 C88.49 207 39.98 207 -10 207 C-8.55263158 149.10526316 -8.55263158 149.10526316 -7 146 C-6.85335811 144.47834128 -6.76398838 142.95098373 -6.7033844 141.42347717 C-6.64255173 139.97595566 -6.64255173 139.97595566 -6.58049011 138.49919128 C-6.54047379 137.43606216 -6.50045746 136.37293304 -6.45922852 135.27758789 C-6.41352722 134.15999084 -6.36782593 133.0423938 -6.32073975 131.89093018 C-6.22161221 129.45253049 -6.12460209 127.01404405 -6.02942085 124.57548714 C-5.87765224 120.69055648 -5.72020626 116.80589275 -5.56126404 112.92124939 C-5.19456238 103.94007267 -4.83697718 94.9585372 -4.47949219 85.97698975 C-4.12802206 77.14896343 -3.77281716 68.32110569 -3.411726 59.49346733 C-3.25857181 55.7128266 -3.11078008 51.93200285 -2.96327209 48.15113831 C-2.31753122 32.06955959 -1.28783211 16.04273286 0 0 Z " fill="#FCFCFC" transform="translate(840,893)"/>
<path d="M0 0 C0 0.66 0 1.32 0 2 C0.598125 2.268125 1.19625 2.53625 1.8125 2.8125 C4.07100952 4.03854802 5.47062652 4.93534581 7 7 C7.37890625 9.37109375 7.37890625 9.37109375 7 12 C4.91796875 13.984375 4.91796875 13.984375 2.1875 15.75 C1.29417969 16.34296875 0.40085937 16.9359375 -0.51953125 17.546875 C-3 19 -3 19 -6 20 C-7.10836423 21.88316159 -7.10836423 21.88316159 -8 24 C-8.66 24.99 -9.32 25.98 -10 27 C-10.66 27 -11.32 27 -12 27 C-13.6389545 31.58907261 -15 36.08823986 -15 41 C-9.69278023 38.64123566 -8.16360269 35.08869684 -6 30 C-5.34 30 -4.68 30 -4 30 C-3.73445313 29.401875 -3.46890625 28.80375 -3.1953125 28.1875 C0.09762917 22.16120151 6.77890934 18.44491423 13 16 C15.9375 15.25 15.9375 15.25 19 15 C19.68964844 14.93683594 20.37929687 14.87367187 21.08984375 14.80859375 C27.88558907 14.44847733 32.34265778 16.25285607 37.7265625 20.296875 C44.49102038 26.76143081 45.06856147 37.86328272 45.375 46.75 C45.09356523 55.35934551 42.45691129 63.64281923 38 71 C37.58844162 71.68611453 37.17688324 72.37222906 36.75285339 73.07913494 C35 75 35 75 32.67817688 75.49498463 C31.29894295 75.4914021 31.29894295 75.4914021 29.8918457 75.48774719 C28.8350209 75.49469101 27.77819611 75.50163483 26.68934631 75.50878906 C24.95013161 75.48957397 24.95013161 75.48957397 23.17578125 75.4699707 C21.95430893 75.4721611 20.73283661 75.4743515 19.47434998 75.47660828 C16.12021478 75.47852658 12.7670606 75.46258921 9.41307068 75.43850732 C5.89616616 75.41720055 2.37926349 75.41780505 -1.13769531 75.41581726 C-7.05266778 75.40936391 -12.96743394 75.3881086 -18.88232422 75.35668945 C-26.44681664 75.31655771 -34.01117394 75.29902235 -41.57575989 75.28938007 C-48.10217134 75.28103366 -54.62855483 75.26380442 -61.15494156 75.24434257 C-62.5494491 75.24030805 -63.94395752 75.23656633 -65.33846664 75.2331202 C-69.93923732 75.22172204 -74.53990102 75.20147179 -79.140625 75.17700195 C-80.28390762 75.17431305 -81.42719025 75.17162415 -82.6051178 75.16885376 C-89.45324204 75.12345709 -96.19147629 74.74046909 -103 74 C-103.33 73.01 -103.66 72.02 -104 71 C-104.66 71 -105.32 71 -106 71 C-106 70.34 -106 69.68 -106 69 C-106.8971875 68.7215625 -106.8971875 68.7215625 -107.8125 68.4375 C-111.03607788 66.31914882 -112.13863576 63.63301207 -113 60 C-113.72334128 51.27058589 -109.04725922 43.88788245 -103.84765625 37.25390625 C-97.50583616 29.95810297 -92.00084365 24.5807268 -82.125 23.625 C-78.62942027 23.67707568 -77.84415911 24.0999734 -74.6875 26.125 C-69.96864097 31.17308175 -68.63527717 35.53212395 -68.3125 42.375 C-68.21388672 44.24285156 -68.21388672 44.24285156 -68.11328125 46.1484375 C-68.05720703 47.55996094 -68.05720703 47.55996094 -68 49 C-64.87802522 47.6910428 -64.87802522 47.6910428 -63 45 C-62.7031009 36.11884422 -64.07876231 28.82514344 -70 22 C-72.30520744 20.22499027 -74.31285556 19.18234355 -77 18 C-76.7288826 11.49318248 -74.42878468 7.71761846 -70 3 C-48.96316343 -15.82708483 -23.32752552 -11.98331791 0 0 Z " fill="#97C6DA" transform="translate(1042,1301)"/>
<path d="M0 0 C1.16354545 1.00059817 2.31057688 2.02082875 3.4375 3.0625 C4.01371094 3.51496094 4.58992187 3.96742188 5.18359375 4.43359375 C9.67290823 8.28300594 12.18320433 12.91951382 14.8125 18.125 C15.33166992 19.15246338 15.33166992 19.15246338 15.86132812 20.20068359 C21.37515352 31.63993758 21.04189992 45.98669264 16.91796875 57.8671875 C14.19573543 63.74261456 10.62360558 69.12483492 6.4375 74.0625 C5.7775 74.0625 5.1175 74.0625 4.4375 74.0625 C4.4375 74.7225 4.4375 75.3825 4.4375 76.0625 C-8.87218719 86.30221555 -21.85745932 89.72992338 -38.5625 88.0625 C-50.66356675 85.67732315 -60.93016897 78.66894944 -68.5625 69.0625 C-73.90829526 60.45358921 -77.95616586 51.49167155 -77.8125 41.25 C-77.80428223 40.54004883 -77.79606445 39.83009766 -77.78759766 39.09863281 C-77.4870099 24.97424053 -72.15907358 13.76434008 -62.3359375 3.54296875 C-44.68175916 -12.2463316 -19.31834633 -13.7828971 0 0 Z " fill="#A5796E" transform="translate(873.5625,784.9375)"/>
<path d="M0 0 C3 1 3 1 4.02734375 2.50390625 C6.57597859 8.2684151 8.0650031 14.06721998 9.49536133 20.17919922 C10.73061578 25.30838845 12.41322522 29.43003122 15 34 C15.495 35.3921875 15.495 35.3921875 16 36.8125 C17.24745706 39.54131232 18.4745971 40.40271555 21 42 C23.39695723 42.6695584 23.39695723 42.6695584 26 42.95703125 C26.96462158 43.09705566 27.92924316 43.23708008 28.9230957 43.38134766 C30.44616333 43.59476807 30.44616333 43.59476807 32 43.8125 C41.49462375 45.28642942 50.91746744 46.91746744 58 54 C58.37332282 56.86058611 58.36390046 58.4218292 56.8125 60.88671875 C52.75365814 64.9193181 48.67303171 67.83294138 43.70996094 70.62011719 C37.22858644 73.98664226 37.22858644 73.98664226 32.828125 79.47265625 C32.73942776 82.27105407 33.1516596 84.33262201 34 87 C34.4021875 88.29550781 34.4021875 88.29550781 34.8125 89.6171875 C35.7966175 92.4465253 36.89780743 95.21472959 38 98 C40.68071635 105.49876059 43.33771979 112.9425715 42 121 C41.34 121.99 40.68 122.98 40 124 C29.20051068 124 21.76119684 116.0702434 14.4609375 108.859375 C12.90639868 106.88087105 12.40287978 105.46083324 12 103 C9.22646933 102.01385576 7.87530514 101.64496232 5 102 C1.01981011 104.25769658 -2.4373772 107.14128251 -6 110 C-22.02872531 122 -22.02872531 122 -27 122 C-26.46596275 116.06551103 -25.18439792 111.09046928 -23 105.5625 C-22.72671875 104.84384766 -22.4534375 104.12519531 -22.171875 103.38476562 C-20.15826613 98.15826613 -20.15826613 98.15826613 -19 97 C-18.43996972 91.58637394 -18.62251743 88.15184459 -22.19921875 83.71875 C-27.5379628 78.62320253 -34.35274171 75.32079194 -40.8125 71.875 C-48.82174888 67.53139013 -48.82174888 67.53139013 -52 64 C-52.34785812 60.73013363 -51.85218152 59.10841177 -49.84375 56.49609375 C-46.06986971 52.80885867 -41.84961929 50.98323089 -37 49 C-27.94324049 45.44857691 -27.94324049 45.44857691 -22.16796875 38.04296875 C-21.70847479 36.5516287 -21.27495024 35.05211866 -20.86328125 33.546875 C-19.45104954 29.38047194 -17.09814059 25.80165305 -14.82421875 22.0546875 C-13.09984809 19.16719745 -11.54318575 16.23707805 -10 13.25 C-7.28952875 8.20266301 -3.97533096 4.10470564 0 0 Z " fill="#F3D187" transform="translate(633,1274)"/>
<path d="M0 0 C0.91330078 0.00902344 1.82660156 0.01804687 2.76757812 0.02734375 C4.99117319 0.05062747 7.21418677 0.0833229 9.4375 0.125 C7.26010919 2.30239081 5.20417157 3.1340054 2.38525391 4.28100586 C-11.23262637 9.8260014 -23.43351736 17.51533239 -34.5625 27.125 C-35.37976563 27.79789063 -36.19703125 28.47078125 -37.0390625 29.1640625 C-48.22823936 38.69045147 -57.56245585 50.8090525 -61.5625 65.125 C-61.87692115 68.84310979 -61.87692115 68.84310979 -61.8125 72.6875 C-61.81765625 73.96753906 -61.8228125 75.24757813 -61.828125 76.56640625 C-61.57726531 79.92718823 -60.90885477 82.08501641 -59.5625 85.125 C-59.5625 86.115 -59.5625 87.105 -59.5625 88.125 C-58.9025 88.125 -58.2425 88.125 -57.5625 88.125 C-57.046875 88.99125 -56.53125 89.8575 -56 90.75 C-51.46642825 97.84311594 -42.44066456 101.93603347 -34.5625 104.125 C-24.00120803 106.0235315 -13.26511235 106.5841765 -2.5625 107.125 C-3.0575 108.61 -3.0575 108.61 -3.5625 110.125 C-5.97117035 110.98611497 -8.20618624 111.62647241 -10.6875 112.1875 C-11.4096167 112.35668945 -12.1317334 112.52587891 -12.87573242 112.70019531 C-20.05874797 114.32724826 -27.21763579 115.51232017 -34.5625 116.125 C-35.24554199 116.18236328 -35.92858398 116.23972656 -36.63232422 116.29882812 C-57.06567181 117.76865235 -84.56391438 113.50857224 -100.625 99.95703125 C-106.52063422 94.38232873 -110.74802263 89.80508499 -110.99462891 81.38989258 C-111.03194211 66.08978221 -105.34806219 54.67715926 -95.5625 43.125 C-94.9025 43.125 -94.2425 43.125 -93.5625 43.125 C-92.9025 41.805 -92.2425 40.485 -91.5625 39.125 C-90.9025 39.125 -90.2425 39.125 -89.5625 39.125 C-89.5625 38.465 -89.5625 37.805 -89.5625 37.125 C-86.09519576 33.88840992 -82.308607 31.03063427 -78.5625 28.125 C-77.78390625 27.52042969 -77.0053125 26.91585938 -76.203125 26.29296875 C-59.38473285 13.91115246 -39.73855094 6.92145383 -19.5625 2.125 C-18.92771729 1.95581055 -18.29293457 1.78662109 -17.63891602 1.61230469 C-11.68941897 0.12378188 -6.11349102 -0.11661832 0 0 Z " fill="#F4F0D7" transform="translate(878.5625,1404.875)"/>
<path d="M0 0 C3.39192363 0.59283621 5.2107757 1.76743189 7.75 4.0625 C8.36359375 4.61035156 8.9771875 5.15820312 9.609375 5.72265625 C10.06828125 6.14417969 10.5271875 6.56570313 11 7 C8.82053239 11.56250487 5.9819377 15.59047068 3.125 19.75 C2.25597046 21.0181958 2.25597046 21.0181958 1.36938477 22.31201172 C-2.79109638 28.34253097 -7.10530359 34.23330799 -11.53735352 40.06591797 C-17.22584239 47.56852278 -22.61142655 55.28061337 -28 63 C-29.16666667 64.66666667 -30.33333333 66.33333333 -31.5 68 C-32.03367187 68.763125 -32.56734375 69.52625 -33.1171875 70.3125 C-41.43716834 82.18832328 -49.85115957 93.99185878 -58.35888672 105.73388672 C-61.61140957 110.22509723 -64.85658319 114.7216267 -68.10058594 119.21899414 C-70.93704974 123.14995363 -73.78127988 127.07498443 -76.63671875 130.9921875 C-77.23097656 131.80945313 -77.82523438 132.62671875 -78.4375 133.46875 C-79.57702836 135.0356015 -80.71884129 136.60079487 -81.86328125 138.1640625 C-82.37632812 138.87046875 -82.889375 139.576875 -83.41796875 140.3046875 C-83.86938232 140.92327637 -84.3207959 141.54186523 -84.78588867 142.17919922 C-86.03682722 144.05522971 -87.03494153 145.96424639 -88 148 C-88.66 148 -89.32 148 -90 148 C-90.33064453 148.99966797 -90.33064453 148.99966797 -90.66796875 150.01953125 C-92.42259775 153.94557795 -94.80052444 157.21125899 -97.3125 160.6875 C-97.84302979 161.43008057 -98.37355957 162.17266113 -98.92016602 162.93774414 C-100.60768916 165.29602249 -102.30301035 167.64852667 -104 170 C-105.0755416 171.49477673 -106.15106276 172.98956816 -107.2265625 174.484375 C-109.93140842 178.23851815 -112.64404421 181.98696864 -115.35888672 185.73388672 C-118.07648167 189.48644791 -120.78799064 193.24340114 -123.5 197 C-126.87702296 201.6771459 -130.25525009 206.35341063 -133.63671875 211.02734375 C-134.52810547 212.26000977 -134.52810547 212.26000977 -135.4375 213.51757812 C-136.57897791 215.09602805 -137.72088482 216.67416785 -138.86328125 218.25195312 C-139.37632812 218.96158203 -139.889375 219.67121094 -140.41796875 220.40234375 C-140.86938232 221.02616943 -141.3207959 221.64999512 -141.78588867 222.29272461 C-142.88699554 223.84109387 -143.94608661 225.41912991 -145 227 C-147.15478516 227.34057617 -147.15478516 227.34057617 -149.7890625 227.29296875 C-150.73007812 227.28330078 -151.67109375 227.27363281 -152.640625 227.26367188 C-153.62546875 227.23853516 -154.6103125 227.21339844 -155.625 227.1875 C-156.61757813 227.17396484 -157.61015625 227.16042969 -158.6328125 227.14648438 C-161.08908072 227.11105743 -163.54427285 227.06166196 -166 227 C-164.25095749 223.37843608 -162.10383852 220.18774973 -159.75 216.9375 C-159.31888916 216.33824707 -158.88777832 215.73899414 -158.44360352 215.12158203 C-150.90220715 204.67070041 -143.24643823 194.29973352 -135.5 184 C-127.04432785 172.75708777 -118.72106371 161.41541919 -110.5 150 C-102.1241334 138.3736061 -93.72574581 126.75698813 -84.9375 115.4375 C-80.52743253 109.74685829 -76.30682181 103.93358862 -72.10620117 98.0871582 C-63.67185177 86.35310869 -55.07508021 74.73841529 -46.38671875 63.19140625 C-41.49743569 56.65369061 -36.67233181 50.06834864 -31.83496094 43.4921875 C-30.04084993 41.05548112 -28.24365822 38.62108226 -26.4453125 36.1875 C-19.97087983 27.42258407 -13.53830405 18.6299104 -7.17358398 9.78491211 C-4.81055343 6.5012693 -2.44766559 3.22149801 0 0 Z " fill="#BB9374" transform="translate(794,873)"/>
<path d="M0 0 C1.27685547 1.72070312 1.27685547 1.72070312 2.3671875 3.78125 C2.77485352 4.53591553 3.18251953 5.29058105 3.60253906 6.06811523 C4.02245117 6.87063721 4.44236328 7.67315918 4.875 8.5 C5.76175096 10.14781941 6.64976307 11.79496081 7.5390625 13.44140625 C7.96348633 14.23305176 8.38791016 15.02469727 8.82519531 15.84033203 C10.22786385 18.41888687 11.71666651 20.93467787 13.25 23.4375 C15.7653252 27.5617902 18.07718422 31.77487186 20.375 36.0234375 C24.75071021 44.03856054 29.30417381 51.93185787 34.125 59.6875 C37.07658692 64.43645404 39.79981603 69.2533341 42.43359375 74.18359375 C44.21005166 77.37767392 46.12387551 80.46432441 48.0625 83.5625 C50.88846887 88.09906483 53.40742973 92.65243397 55.71972656 97.46679688 C56.94805101 99.89721154 58.27965773 102.20042993 59.69921875 104.5234375 C63.28303005 110.44492084 66.73747035 116.43735134 70.1875 122.4375 C71.18684781 124.17292591 72.18619668 125.90835121 73.18574524 127.6436615 C74.17605615 129.36294478 75.16615432 131.08235058 76.15625 132.80175781 C78.65900024 137.14312806 81.17272385 141.47808908 83.6875 145.8125 C86.45092627 150.57547862 89.2010354 155.34535363 91.921875 160.1328125 C97.46183078 169.87971439 103.09765908 179.55249042 108.8996582 189.14599609 C112.04653894 194.36395489 115.06846007 199.6145077 117.9140625 205.00390625 C119.07709476 207.21274452 119.07709476 207.21274452 121 210 C121 210.99 121 211.98 121 213 C115.94909664 213.96977344 110.93257402 214.76027674 106 213 C101.80924667 209.4950063 99.55005809 204.17526072 97.17822266 199.36132812 C95.61408328 196.22656725 93.88787006 193.19526685 92.15991211 190.14868164 C90.87410469 187.87341572 89.6134602 185.58585083 88.359375 183.29296875 C85.36267138 177.82434656 82.25940956 172.41962997 79.15283203 167.01269531 C77.81411832 164.67547468 76.48304641 162.33397832 75.15234375 159.9921875 C68.50424883 148.30332933 68.50424883 148.30332933 61.625 136.75 C56.97828924 129.10728457 52.65346271 121.28736439 48.30004883 113.47509766 C42.97158921 103.92106401 37.50911873 94.45061864 32 85 C30.20601506 81.91800897 28.41446915 78.83461514 26.625 75.75 C25.95065918 74.58803101 25.95065918 74.58803101 25.26269531 73.40258789 C21.64451326 67.15120171 18.10080233 60.85934531 14.5625 54.5625 C9.86249129 46.20195467 5.01207399 37.94804129 0.04516602 29.74365234 C-3.04448514 24.62949542 -6.02490572 19.48011172 -8.81640625 14.1953125 C-9.94850455 12.09551301 -11.17895961 10.08802966 -12.4375 8.0625 C-14 5 -14 5 -13.8671875 2.92578125 C-13 1 -13 1 -11.07421875 -0.1171875 C-9.89279297 -0.49230469 -9.89279297 -0.49230469 -8.6875 -0.875 C-7.90761719 -1.14054688 -7.12773438 -1.40609375 -6.32421875 -1.6796875 C-3.43033146 -2.07850894 -2.45027588 -1.53713516 0 0 Z " fill="#BB9374" transform="translate(878,888)"/>
<path d="M0 0 C3.3 0.33 6.6 0.66 10 1 C10.37377289 19.46319398 9.31162153 37.87521372 8.38476944 56.30740356 C8.2026561 59.94589698 8.02441621 63.58457627 7.84613132 67.22325897 C6.89524424 86.61957131 5.90301705 106.01367182 4.87890625 125.40625 C4.8337299 126.26212708 4.78855354 127.11800415 4.74200821 127.99981689 C4.31004544 136.17693264 3.87556503 144.35389964 3.43144798 152.53036499 C3.23021845 156.23891712 3.03088706 159.94756993 2.83203125 163.65625 C2.79423428 164.35764099 2.7564373 165.05903198 2.71749496 165.78167725 C2.12442078 176.84449822 1.6661454 187.90756769 1.35102844 198.98205566 C1.31857529 200.01471558 1.28612213 201.04737549 1.25268555 202.11132812 C1.22756393 203.0124231 1.20244232 203.91351807 1.17655945 204.84191895 C1 207 1 207 0 209 C-4.95 209 -9.9 209 -15 209 C-13.16335815 173.83026248 -13.16335815 173.83026248 -12 160.75 C-11.1912259 151.65326981 -10.55716542 142.5530248 -10 133.4375 C-9.9376265 132.42127563 -9.9376265 132.42127563 -9.87399292 131.38452148 C-9.50091447 125.29905712 -9.13367073 119.21324121 -8.76611328 113.12744141 C-7.80458414 97.32624484 -6.66423096 81.55622251 -5.30352783 65.78533936 C-4.35966085 54.82205196 -3.57950051 43.85995971 -2.9375 32.875 C-2.29246696 21.86567308 -1.42776602 10.93608012 0 0 Z " fill="#BB9374" transform="translate(825,891)"/>
<path d="M0 0 C8.91 0 17.82 0 27 0 C25.44309451 15.02413799 23.8030443 30.01987801 21.875 45 C21.78891479 45.67475372 21.70282959 46.34950745 21.61413574 47.04470825 C21.36806392 48.96768024 21.11771295 50.89010317 20.8671875 52.8125 C20.72394043 53.91207031 20.58069336 55.01164063 20.43310547 56.14453125 C20 59 20 59 19 63 C12.4 62.67 5.8 62.34 -1 62 C-1.18451025 18.80410023 -1.18451025 18.80410023 0 0 Z " fill="#BA9273" transform="translate(841,695)"/>
<path d="M0 0 C0.33 0 0.66 0 1 0 C1.04345047 0.57834595 1.08690094 1.15669189 1.13166809 1.75256348 C1.59187763 7.85460939 2.0646299 13.95559736 2.54418945 20.05615234 C2.72081258 22.32316399 2.89439607 24.59041484 3.06469727 26.85791016 C3.9332379 38.39600135 4.80864314 49.79666287 7.2253418 61.12695312 C8.34324942 66.71613893 9.13329118 72.36639269 10 78 C21.22 78 32.44 78 44 78 C44 78.33 44 78.66 44 79 C31.46 79 18.92 79 6 79 C5.0409375 73.3384375 5.0409375 73.3384375 4.0625 67.5625 C3.86277588 66.39146729 3.66305176 65.22043457 3.45727539 64.01391602 C1.63169525 53.14596611 0.78509388 42.53542384 0.39453125 31.52734375 C0.19368351 26.32607984 -0.16284795 21.20802394 -0.78613281 16.04101562 C-1.10224759 13.02421251 -1.13214942 10.03135471 -1.125 7 C-1.12757813 5.88625 -1.13015625 4.7725 -1.1328125 3.625 C-1 1 -1 1 0 0 Z " fill="#3E3E3E" transform="translate(580,1103)"/>
<path d="M0 0 C1.16582108 0.00666183 1.16582108 0.00666183 2.35519409 0.01345825 C3.23595612 0.01360931 4.11671814 0.01376038 5.02416992 0.01391602 C6.4523555 0.02939987 6.4523555 0.02939987 7.90939331 0.04519653 C9.37008743 0.04944138 9.37008743 0.04944138 10.86029053 0.05377197 C13.9783443 0.0649899 17.09611349 0.09009734 20.21408081 0.11550903 C22.32475375 0.12553675 24.43543119 0.13466296 26.54611206 0.14285278 C31.72719916 0.16493445 36.90811966 0.19842774 42.08908081 0.24050903 C42.08908081 0.57050903 42.08908081 0.90050903 42.08908081 1.24050903 C41.32877563 1.26556519 40.56847046 1.29062134 39.78512573 1.31643677 C36.28216064 1.43372533 32.77937895 1.5558396 29.27658081 1.67800903 C27.48317261 1.73698364 27.48317261 1.73698364 25.65353394 1.79714966 C12.4331863 1.57289699 12.4331863 1.57289699 0.08908081 5.24050903 C0.06155104 7.21959388 0.04245079 9.19879634 0.02658081 11.17800903 C0.01497925 12.28015747 0.00337769 13.38230591 -0.00857544 14.51785278 C0.06300498 17.24649833 0.2377985 19.79773197 0.56173706 22.49441528 C1.18792197 27.73517805 1.39362763 32.96861585 1.58908081 38.24050903 C1.97652221 47.91558613 2.47944137 57.57707542 3.08908081 67.24050903 C2.75908081 67.24050903 2.42908081 67.24050903 2.08908081 67.24050903 C0.48123647 60.10569979 -0.38438849 53.09155905 -0.91091919 45.80300903 C-1.32958778 40.03080973 -1.82510466 34.39037338 -2.95779419 28.70925903 C-4.0245834 23.16562347 -4.20930939 17.81143535 -4.16091919 12.17800903 C-4.16865356 11.24279419 -4.17638794 10.30757935 -4.18435669 9.34402466 C-4.18177856 8.45263794 -4.17920044 7.56125122 -4.17654419 6.64285278 C-4.17428833 5.84355347 -4.17203247 5.04425415 -4.16970825 4.22073364 C-3.80439624 1.42540752 -2.81641423 0.35447499 0 0 Z " fill="#BFBFBF" transform="translate(579.9109191894531,1098.7594909667969)"/>
<path d="M0 0 C0.33 0 0.66 0 1 0 C1 3.63 1 7.26 1 11 C19.61041494 10.91578428 38.22074078 10.82110679 56.83102989 10.71247292 C65.47164506 10.66229994 74.11225051 10.61585768 82.75292969 10.578125 C90.28204203 10.545237 97.81108003 10.50542368 105.34011042 10.45720994 C109.32857813 10.43191305 113.31699632 10.41014133 117.30552292 10.39665604 C121.05656225 10.38386444 124.80743202 10.3618419 128.55837822 10.33261681 C129.93786859 10.3235182 131.31738629 10.3178455 132.69690514 10.31578636 C134.57486102 10.31248004 136.45277962 10.29585609 138.33065796 10.2784729 C139.38334555 10.27294214 140.43603313 10.26741138 141.52062035 10.26171303 C144.17497904 10.24433643 144.17497904 10.24433643 146 8 C146.33 9.32 146.66 10.64 147 12 C98.49 12 49.98 12 0 12 C0 8.04 0 4.08 0 0 Z " fill="#B0B0B0" transform="translate(830,1088)"/>
<path d="M0 0 C5.79451325 0.09504269 11.58868001 0.20142412 17.3828125 0.31738281 C19.34532286 0.35517267 21.30789082 0.39010245 23.27050781 0.421875 C33.3309002 0.58663066 43.33912796 0.86462775 53.3515625 1.9140625 C54.49581192 2.02818985 54.49581192 2.02818985 55.66317749 2.1446228 C57.45269768 2.35329642 59.22954877 2.66618923 61 3 C62.43872134 5.87744268 62.11937153 8.34565922 62.11352539 11.56103516 C62.11367142 12.23432358 62.11381744 12.907612 62.1139679 13.6013031 C62.11327027 15.83058881 62.10548489 18.05979135 62.09765625 20.2890625 C62.09579154 21.83320063 62.09436789 23.37733934 62.09336853 24.92147827 C62.08954754 28.98870472 62.07972082 33.05589555 62.06866455 37.12310791 C62.05844144 41.2721712 62.05386898 45.42124025 62.04882812 49.5703125 C62.03809819 57.71355803 62.02102677 65.85677458 62 74 C61.67 74 61.34 74 61 74 C60.67 51.89 60.34 29.78 60 7 C49.56826481 4.59267649 40.43081261 2.90626589 29.90625 2.68359375 C28.65805481 2.6524221 28.65805481 2.6524221 27.38464355 2.62062073 C24.75650364 2.55583806 22.12827375 2.49657588 19.5 2.4375 C17.70572029 2.39424678 15.9114493 2.35063046 14.1171875 2.30664062 C9.74488115 2.20023106 5.37248537 2.09876837 1 2 C0.67 1.34 0.34 0.68 0 0 Z " fill="#9C9C9C" transform="translate(1004,1098)"/>
<path d="M0 0 C1.47668858 0.0133035 2.95331108 0.03716415 4.4296875 0.0703125 C5.18378906 0.07933594 5.93789063 0.08835937 6.71484375 0.09765625 C8.57826004 0.1212438 10.44151343 0.15711531 12.3046875 0.1953125 C12.3046875 0.5253125 12.3046875 0.8553125 12.3046875 1.1953125 C11.55703125 1.24429687 10.809375 1.29328125 10.0390625 1.34375 C9.05421875 1.41851563 8.069375 1.49328125 7.0546875 1.5703125 C5.59289062 1.67472656 5.59289062 1.67472656 4.1015625 1.78125 C1.40835561 2.17996499 -0.36494529 2.83038313 -2.6953125 4.1953125 C-2.78829724 10.87988178 -2.79163811 17.41827721 -1.91796875 24.05078125 C-1.53205775 27.76771347 -1.63605287 31.46195593 -1.6953125 35.1953125 C-2.0253125 35.1953125 -2.3553125 35.1953125 -2.6953125 35.1953125 C-2.82808594 34.07511719 -2.96085938 32.95492188 -3.09765625 31.80078125 C-3.27587819 30.32810521 -3.45427261 28.85545003 -3.6328125 27.3828125 C-3.71982422 26.64482422 -3.80683594 25.90683594 -3.89648438 25.14648438 C-4.27747796 22.02798129 -4.69900624 19.18423128 -5.6953125 16.1953125 C-5.81556545 13.84338857 -5.87063585 11.48777719 -5.8828125 9.1328125 C-5.89699219 7.88371094 -5.91117188 6.63460938 -5.92578125 5.34765625 C-5.58280617 0.65645479 -4.6549283 0.24603215 0 0 Z " fill="#828282" transform="translate(582.6953125,1099.8046875)"/>
<path d="M0 0 C0.99 1.98 0.99 1.98 2 4 C-21.43 4 -44.86 4 -69 4 C-69 3.67 -69 3.34 -69 3 C-46.56 2.67 -24.12 2.34 -1 2 C-0.67 1.34 -0.34 0.68 0 0 Z " fill="#BBBBBB" transform="translate(975,1096)"/>
<path d="M0 0 C0.33 0 0.66 0 1 0 C2.98 13.86 4.96 27.72 7 42 C6.01 42.495 6.01 42.495 5 43 C4.35001931 39.18819525 3.70578071 35.37544068 3.0625 31.5625 C2.88009766 30.49322266 2.69769531 29.42394531 2.50976562 28.32226562 C-0.17415672 12.3651273 -0.17415672 12.3651273 -0.0625 4.4375 C-0.05347656 3.59058594 -0.04445313 2.74367188 -0.03515625 1.87109375 C-0.02355469 1.25363281 -0.01195312 0.63617187 0 0 Z " fill="#6E6E6E" transform="translate(581,1139)"/>
<path d="M0 0 C0.66 0.33 1.32 0.66 2 1 C-0.92934474 3.98728097 -3.86980172 6.96337702 -6.8125 9.9375 C-7.64587891 10.78763672 -8.47925781 11.63777344 -9.33789062 12.51367188 C-10.14033203 13.32255859 -10.94277344 14.13144531 -11.76953125 14.96484375 C-12.87711792 16.08814087 -12.87711792 16.08814087 -14.00708008 17.23413086 C-16 19 -16 19 -19 20 C-17.41552047 16.08486162 -14.7233913 13.45666689 -11.75 10.5625 C-11.01172974 9.83389771 -11.01172974 9.83389771 -10.25854492 9.09057617 C-6.97091646 5.87230925 -3.61925268 2.83671156 0 0 Z " fill="#C8C8C8" transform="translate(856,1435)"/>
<path d="M0 0 C0.66 0.33 1.32 0.66 2 1 C0.8758824 2.29243468 -0.24932592 3.58392075 -1.375 4.875 C-2.00148438 5.59429688 -2.62796875 6.31359375 -3.2734375 7.0546875 C-4.47426834 8.4076598 -5.7208345 9.7208345 -7 11 C-7.99 10.67 -8.98 10.34 -10 10 C-6.7 6.7 -3.4 3.4 0 0 Z " fill="#464646" transform="translate(785,1430)"/>
<path d="M0 0 C2.27474277 3.41211416 2.56629644 5.6568529 3.125 9.6875 C3.29257812 10.86699219 3.46015625 12.04648438 3.6328125 13.26171875 C3.75398437 14.16535156 3.87515625 15.06898437 4 16 C3.01 16 2.02 16 1 16 C0.67 10.72 0.34 5.44 0 0 Z " fill="#323232" transform="translate(586,1165)"/>
<path d="M0 0 C2.125 0.375 2.125 0.375 4 1 C-0.625 5.875 -0.625 5.875 -4 7 C-2.92598892 4.08482708 -2.22189824 2.22189824 0 0 Z " fill="#B8B8B8" transform="translate(808,884)"/>
<path d="M0 0 C0.66 0.33 1.32 0.66 2 1 C1.525625 1.763125 1.05125 2.52625 0.5625 3.3125 C-1.10106097 5.96410548 -1.10106097 5.96410548 -2 9 C-2.66 7.02 -3.32 5.04 -4 3 C-2.68 2.01 -1.36 1.02 0 0 Z " fill="#BDBDBD" transform="translate(683,1355)"/>
<path d="M0 0 C0 3 0 3 -2.5 5.6875 C-3.325 6.450625 -4.15 7.21375 -5 8 C-5.99 7.67 -6.98 7.34 -8 7 C-7.01 6.67 -6.02 6.34 -5 6 C-4.67 5.01 -4.34 4.02 -4 3 C-1.9375 1.3125 -1.9375 1.3125 0 0 Z " fill="#373737" transform="translate(941,1325)"/>
</svg>
