<?xml version="1.0" encoding="UTF-8" standalone="no"?>
<svg
   version="1.1"
   width="550"
   height="350"
   id="svg21"
   sodipodi:docname="Login.svg"
   inkscape:version="1.4.2 (f4327f4, 2025-05-13)"
   xmlns:inkscape="http://www.inkscape.org/namespaces/inkscape"
   xmlns:sodipodi="http://sodipodi.sourceforge.net/DTD/sodipodi-0.dtd"
   xmlns="http://www.w3.org/2000/svg"
   xmlns:svg="http://www.w3.org/2000/svg">
  <defs
     id="defs21" />
  <sodipodi:namedview
     id="namedview21"
     pagecolor="#ffffff"
     bordercolor="#000000"
     borderopacity="0.25"
     inkscape:showpageshadow="2"
     inkscape:pageopacity="0.0"
     inkscape:pagecheckerboard="0"
     inkscape:deskcolor="#d1d1d1"
     inkscape:zoom="0.45464768"
     inkscape:cx="556.47486"
     inkscape:cy="810.51772"
     inkscape:window-width="2560"
     inkscape:window-height="1494"
     inkscape:window-x="-11"
     inkscape:window-y="-11"
     inkscape:window-maximized="1"
     inkscape:current-layer="svg21" />
  <path
     d="m 204.70537,107.03984 c 1.98398,0.26605 3.9811,0.42756 5.97657,0.58593 10.77796,1.50934 19.31539,7.28844 26.0625,15.6875 2.85157,4.41931 4.98789,9.14685 7,14 0.32871,-0.53367 0.65742,-1.06734 0.99609,-1.61718 4.07354,-6.38078 8.79616,-11.90048 14.00391,-17.38282 0.70898,-0.75668 1.41796,-1.51336 2.14843,-2.29297 1.85157,-1.70703 1.85157,-1.70703 3.85157,-1.70703 0,-0.66 0,-1.32 0,-2 6.38392,-3.67075 11.78517,-4.55996 19,-3 0.77343,-0.17402 1.54687,-0.34804 2.34375,-0.52734 2.88546,-0.51344 4.64455,-0.23322 7.46875,0.46484 3.32203,0.76511 6.0472,1.10533 9.4375,0.8125 4.40572,0.29372 5.72828,1.16352 8.5625,4.38282 2.00458,3.15195 2.55597,6.20432 3.1875,9.86718 0.17015,-0.73605 0.34031,-1.47211 0.51562,-2.23047 2.61986,-10.54909 2.61986,-10.54909 6.48438,-13.76953 3.44423,-0.78552 6.47898,-1 10,-1 0.33,0.66 0.66,1.32 1,2 0.81984,-0.0348 1.63968,-0.0696 2.48437,-0.10547 1.07766,-0.0271 2.15531,-0.0541 3.26563,-0.082 1.60101,-0.0522 1.60101,-0.0522 3.23437,-0.10547 3.36299,0.32672 4.65204,0.92386 7.01563,3.29297 0.9716,2.91483 1.06953,4.42013 0.91406,7.41797 -0.0433,0.91008 -0.0865,1.82016 -0.13111,2.75781 -0.0782,1.49081 -0.0782,1.49081 -0.15795,3.01172 -0.10195,2.14966 -0.20211,4.29941 -0.30079,6.44922 -0.0805,1.75256 -0.0805,1.75256 -0.16259,3.54053 -0.30042,7.10559 -0.50955,14.21413 -0.72412,21.32275 -0.0441,1.44556 -0.0882,2.89112 -0.13233,4.33667 -0.10303,3.38774 -0.20456,6.77552 -0.30517,10.16333 0.92123,-0.025 0.92123,-0.025 1.86108,-0.0505 1.21152,-0.0195 1.21152,-0.0195 2.44751,-0.0393 0.79978,-0.0167 1.59956,-0.0334 2.42358,-0.0505 2.26783,0.14038 2.26783,0.14038 5.33033,1.57788 2.45864,3.25176 2.65343,5.37116 2.42968,9.37891 -0.78926,3.50155 -2.71834,5.04017 -5.49218,7.18359 -0.63938,0.55688 -1.27875,1.11375 -1.9375,1.6875 -4.8527,3.08808 -9.38692,3.63994 -15.0625,3.3125 -0.66,-0.33 -1.32,-0.66 -2,-1 -1.3737,-0.1026 -2.74912,-0.18288 -4.125,-0.25 -6.73095,-0.71307 -11.47739,-4.1045 -16.25,-8.75 -6.62347,-8.58695 -4.76428,-22.14529 -4.25,-32.3125 0.0584,-1.33784 0.11575,-2.67573 0.17187,-4.01367 0.13972,-3.22529 0.29094,-6.4496 0.45313,-9.67383 -0.36352,1.28584 -0.36352,1.28584 -0.73438,2.59766 -0.33516,1.1434 -0.67031,2.2868 -1.01562,3.46484 -0.32485,1.12535 -0.64969,2.25071 -0.98438,3.41016 -1.26562,3.52734 -1.26562,3.52734 -3.37036,6.65552 -3.05511,5.1493 -2.4788,10.94351 -2.46948,16.75854 -0.0142,1.25223 -0.0283,2.50446 -0.0429,3.79463 -0.0348,3.32812 -0.0532,6.65547 -0.0628,9.98369 -0.0221,5.90736 -0.0885,11.81457 -0.14428,17.72168 -0.0109,1.26929 -0.0218,2.53857 -0.0331,3.84632 -0.32749,32.99632 -1.29377,68.50607 -24.8927,94.14196 -9.80066,9.06318 -23.7556,16.75076 -37.25,17.625 -3.38334,-0.43782 -6.63508,-1.21769 -9.9375,-2.0625 -0.8553,-0.19271 -1.71059,-0.38543 -2.5918,-0.58398 -7.57047,-1.88829 -12.91823,-5.35436 -17.9707,-11.29102 -2.45027,-5.00262 -1.99942,-9.04557 -0.25,-14.1875 1.66522,-4.06441 3.70037,-7.85018 7.75,-9.875 14.46674,-0.49301 14.46674,-0.49301 19.64453,2.5586 2.29024,2.31917 3.90215,4.53477 5.35547,7.4414 9.54828,-4.17737 15.07376,-13.64866 19,-23 5.56958,-16.877 5.91864,-34.40528 6,-52 0.008,-1.34017 0.0168,-2.68034 0.0254,-4.0205 0.0455,-7.9935 0.0347,-15.98611 -0.0254,-23.9795 -1.15629,0.0335 -2.31258,0.067 -3.50391,0.10157 -9.6108,-0.0127 -20.17981,-2.72707 -27.92188,-8.50782 -2.24355,-2.27139 -3.05496,-4.47822 -3.57421,-7.59375 -0.58395,0.74444 -0.58395,0.74444 -1.17969,1.50391 -9.29895,11.29158 -21.81437,17.85946 -35.82031,21.49609 -0.5904,0.19078 -1.18079,0.38157 -1.78907,0.57813 -6.42779,1.2265 -12.39961,0.21915 -18.64843,-1.32813 -1.11424,-0.2707 -1.11424,-0.2707 -2.25098,-0.54687 -7.5331,-1.9006 -14.60713,-4.18275 -20.31152,-9.70313 0,-0.66 0,-1.32 0,-2 -0.99,-0.33 -1.98,-0.66 -3,-1 -5.72505,-10.60192 -3.65119,-23.84616 -0.39844,-35 4.33309,-13.23892 11.87489,-25.12483 23.39844,-33 1.27123,-0.93696 2.54208,-1.87443 3.8125,-2.8125 7.47975,-5.13316 17.47653,-3.6277 26.14843,-2.46093 z m -11.41406,28.27343 c -3.20444,2.51637 -4.64151,5.3775 -6.29687,9 -0.30293,0.62907 -0.60586,1.25813 -0.91797,1.90625 -2.42044,5.07754 -3.50547,8.91021 -3.58203,14.53125 -0.0258,1.13309 -0.0516,2.26618 -0.0781,3.4336 0.35344,3.37033 1.04989,4.6888 3.32813,7.1289 2.97,-0.495 2.97,-0.495 6,-1 0,-0.66 0,-1.32 0,-2 0.68062,-0.0619 1.36125,-0.12375 2.0625,-0.1875 6.01012,-1.66237 10.60538,-5.68605 13.99218,-10.86718 2.60221,-5.35497 2.37517,-10.31635 0.57032,-15.88282 -0.78865,-2.08954 -1.62631,-4.0651 -2.625,-6.0625 -1.09313,0.0206 -2.18625,0.0413 -3.3125,0.0625 -4.72979,-0.72909 -4.72979,-0.72909 -9.14063,-0.0625 z"
     fill="#6e4946"
     id="path1" />
  <path
     d="m 85.681936,18.875773 c 0.893964,0.04963 1.787929,0.09926 2.708984,0.150391 4.394289,0.381686 7.42203,0.704638 10.419922,4.126953 9.950378,16.26234 -0.929035,46.700159 -4.262146,63.8862 -2.201058,11.396722 -3.962702,22.831663 -5.632935,34.316983 -3.716959,25.53519 -8.769284,50.73001 -14.171325,75.95697 1.589511,-0.13956 3.178534,-0.28468 4.767334,-0.43213 0.884936,-0.0802 1.769872,-0.16042 2.681625,-0.24307 3.415305,-0.43483 6.408011,-1.46257 9.613541,-2.6998 1.187226,-0.4473 2.374453,-0.89461 3.597656,-1.35547 1.102148,-0.41894 2.204297,-0.83789 3.339844,-1.26953 2.371464,-0.8181 4.748764,-1.60666 7.136714,-2.375 1.58482,-0.53159 3.13583,-1.16229 4.67579,-1.8125 5.80099,-1.47868 12.47984,-1.71505 18.1875,0.1875 2.79993,0.26566 5.59943,0.44378 8.40625,0.6211 2.59375,0.3789 2.59375,0.3789 5.59375,2.3789 0.99358,2.8279 1.09609,4.57293 0.4375,7.5 -8.6962,15.12382 -36.65148,18.52542 -52.18018,22.91504 -5.130904,1.32962 -9.964241,1.76758 -15.257324,1.77246 -0.698672,0.0123 -1.397344,0.0245 -2.117188,0.0371 -4.142928,0.0117 -7.123464,-0.55588 -10.882812,-2.22461 -1.765536,-0.28502 -3.537176,-0.53418 -5.3125,-0.75 -6.678281,-1.13558 -10.700773,-4.19283 -15.34375,-8.94531 -3.841807,-6.58914 -2.018653,-13.87924 -0.59375,-20.92969 0.187558,-0.97638 0.375117,-1.95277 0.568359,-2.95874 1.21654,-6.27421 2.532814,-12.52572 3.904297,-18.76782 4.602551,-21.60192 8.214006,-43.42399 11.427246,-65.27051 1.898655,-12.896022 4.11506,-25.693213 6.636719,-38.483884 1.917243,-9.750339 2.835896,-18.676317 2.498535,-28.599121 -0.112696,-6.766886 1.44233,-10.636152 5.214844,-16.294922 4.494914,-1.700891 9.254896,-0.837521 13.9375,-0.4375 z"
     fill="#6e4946"
     id="path2" />
  <path
     d="m 423.63506,104.72343 c 0.44859,0.54527 0.89719,1.09055 1.35938,1.65234 0.68835,0.79084 0.68835,0.79084 1.39062,1.59766 4.6357,7.97927 4.78966,15.9092 4.77007,24.88654 -0.005,2.25838 0.01,4.516 0.0284,6.7743 0.0427,5.60191 0.054,11.20379 0.0662,16.80583 0.0115,4.75144 0.0352,9.50251 0.0747,14.2538 0.0135,2.21692 0.009,4.43336 0.005,6.6503 0.009,1.36559 0.0195,2.73118 0.0306,4.09676 0.002,1.18531 0.004,2.37061 0.006,3.59184 0.42613,3.69294 1.46766,6.10961 3.37854,9.28047 1.9437,1.45436 1.9437,1.45436 4.125,2.25 3.79166,1.58334 3.79166,1.58334 4.875,3.75 0.46511,7.32558 0.46511,7.32558 -1.25,9.8125 -0.86625,0.58782 -0.86625,0.58782 -1.75,1.1875 -0.59813,0.51563 -1.19625,1.03125 -1.8125,1.5625 -3.67925,2.41779 -6.76738,3.58543 -11.1875,3.125 -0.99,-0.22687 -1.98,-0.45375 -3,-0.6875 -1.36125,-0.18562 -1.36125,-0.18562 -2.75,-0.375 -7.99242,-1.537 -14.81798,-3.19614 -20.25,-9.625 -4.40806,-6.73303 -5.0392,-13.45063 -5.5625,-21.375 -0.0838,-1.24523 -0.16758,-2.49047 -0.25391,-3.77343 -0.0909,-1.41153 -0.0909,-1.41153 -0.18359,-2.85157 -2.94052,1.35753 -2.94052,1.35753 -5.3125,3.5 -2.54647,2.26353 -5.43196,2.70147 -8.6875,3.5 -0.33,-0.99 -0.66,-1.98 -1,-3 -0.74766,0.0232 -1.49532,0.0464 -2.26563,0.0703 -0.98484,0.018 -1.96969,0.0361 -2.98437,0.0547 -0.97454,0.0232 -1.94907,0.0464 -2.95313,0.0703 -3.53039,-0.24654 -5.59741,-1.39567 -8.48437,-3.32032 -3.24684,-4.63834 -2.5165,-12.672 -2.74219,-18.25 -0.0736,-1.57815 -0.14786,-3.15627 -0.22266,-4.73437 -0.11339,-2.44839 -0.2229,-4.89669 -0.32178,-7.3457 -0.0983,-2.39069 -0.21313,-4.78012 -0.33056,-7.16993 -0.0251,-0.72107 -0.0503,-1.44214 -0.0761,-2.18506 -0.202,-3.83325 -0.78364,-6.90463 -2.24076,-10.47119 -1.57386,-4.24601 -1.57386,-4.24601 -0.12841,-7.59375 0.5775,-1.03125 1.155,-2.0625 1.75,-3.125 0.33,-0.66 0.66,-1.32 1,-2 0.66,0 1.32,0 2,0 0,-0.66 0,-1.32 0,-2 4.30656,-2.15328 6.91071,-1.98838 11.375,-0.625 1.54744,0.52495 3.09128,1.06123 4.625,1.625 0.25652,-0.57621 0.51304,-1.15242 0.77734,-1.74609 2.85691,-5.26658 7.63374,-9.98126 13.16016,-12.37891 8.27631,-2.267677 24.07741,-0.593208 30.95312,4.53516 z"
     fill="#6e4946"
     id="path3" />
  <path
     d="m 491.19756,153.00859 c 2.68623,0.35784 2.68623,0.35784 5.96875,0.42187 10.84561,0.38898 10.84561,0.38898 14.45313,3.25781 2.125,2.625 2.125,2.625 2.125,5.625 0.99,0.33 1.98,0.66 3,1 3.37391,5.99807 3.47499,13.02432 2.1875,19.625 -1.96361,6.54228 -6.39561,9.23658 -12.1875,12.375 -0.67547,0.38285 -1.35094,0.76571 -2.04688,1.16016 -8.24636,3.54593 -18.93842,-0.4983 -26.95312,-3.16016 -0.99,-0.66 -1.98,-1.32 -3,-2 0,-0.66 0,-1.32 0,-2 -0.99,-0.33 -1.98,-0.66 -3,-1 -3.85079,-5.70486 -3.6914,-10.98244 -2.56641,-17.51953 1.58459,-6.40726 4.5457,-11.14935 9.56641,-15.48047 0.66,0 1.32,0 2,0 0.33,-0.66 0.66,-1.32 1,-2 3.19086,-1.40398 6.09307,-0.82259 9.45312,-0.30468 z"
     fill="#6e4946"
     id="path4" />
  <path
     d="m 344.74444,55.313273 c 5.53747,2.991658 10.00828,8.024866 12,14 0.47835,6.936155 -0.0362,13.548842 -4.73438,19.019531 -4.46129,4.106812 -9.23509,7.883515 -15.53906,8.035157 -9.76407,-0.708435 -20.34302,-3.018473 -27.66406,-9.867188 -3.06364,-6.307486 -0.2414,-12.89791 1.79687,-19.15625 2.00052,-5.316449 4.82569,-9.273077 9.14063,-13.03125 7.46684,-2.488949 17.51646,-1.051331 25,1 z"
     fill="#6d4946"
     id="path5" />
  <path
     d="m 80.869436,219.25077 c 0.754101,0.005 1.508203,0.009 2.285156,0.0137 1.863315,0.0118 3.726589,0.0297 5.589844,0.0488 0,0.66 0,1.32 0,2 -3.997959,0.9562 -7.70804,1.10396 -11.8125,1.0625 -1.161446,-0.009 -2.322891,-0.018 -3.519532,-0.0273 -0.880429,-0.0116 -1.760859,-0.0232 -2.667968,-0.0352 0,-0.66 0,-1.32 0,-2 3.188245,-1.59412 6.628966,-1.10174 10.125,-1.0625 z"
     fill="#613a36"
     id="path6" />
  <path
     d="m 390.74444,179.31327 c 0,0.66 0,1.32 0,2 -4.455,1.485 -4.455,1.485 -9,3 -0.33,-0.99 -0.66,-1.98 -1,-3 3.61973,-1.31626 6.09567,-2 10,-2 z"
     fill="#572929"
     id="path7" />
  <path
     d="m 344.74444,191.31327 c 0.66,0.99 1.32,1.98 2,3 -3.375,0.125 -3.375,0.125 -7,0 -0.66,-0.66 -1.32,-1.32 -2,-2 2.53421,-1.26711 4.19438,-1.28056 7,-1 z"
     fill="#5b3431"
     id="path8" />
  <path
     d="m 429.74444,212.31327 c 1.32,0.33 2.64,0.66 4,1 -1.1875,1.5625 -1.1875,1.5625 -3,3 -2.6875,-0.3125 -2.6875,-0.3125 -5,-1 1.32,-0.33 2.64,-0.66 4,-1 0,-0.66 0,-1.32 0,-2 z"
     fill="#583936"
     id="path9" />
  <path
     d="m 185.18194,192.00077 c 2.5625,0.3125 2.5625,0.3125 5.5625,3.3125 -3.3,-0.33 -6.6,-0.66 -10,-1 2,-2 2,-2 4.4375,-2.3125 z"
     fill="#6e2c2c"
     id="path10" />
  <path
     d=""
     fill="#000000"
     id="path11" />
  <path
     d=""
     fill="#000000"
     id="path12" />
  <path
     d=""
     fill="#000000"
     id="path13" />
  <path
     d=""
     fill="#000000"
     id="path14" />
  <path
     d=""
     fill="#000000"
     id="path15" />
  <path
     d=""
     fill="#000000"
     id="path16" />
  <path
     d=""
     fill="#000000"
     id="path17" />
  <path
     d=""
     fill="#000000"
     id="path18" />
  <path
     d=""
     fill="#000000"
     id="path19" />
  <path
     d=""
     fill="#000000"
     id="path20" />
  <path
     d=""
     fill="#000000"
     id="path21" />
</svg>
