<?xml version="1.0" encoding="UTF-8" standalone="no"?>
<svg
   version="1.1"
   width="800"
   height="450"
   id="svg35"
   sodipodi:docname="LoginButton.svg"
   inkscape:version="1.4.2 (f4327f4, 2025-05-13)"
   xmlns:inkscape="http://www.inkscape.org/namespaces/inkscape"
   xmlns:sodipodi="http://sodipodi.sourceforge.net/DTD/sodipodi-0.dtd"
   xmlns="http://www.w3.org/2000/svg"
   xmlns:svg="http://www.w3.org/2000/svg">
  <defs
     id="defs35" />
  <sodipodi:namedview
     id="namedview35"
     pagecolor="#ffffff"
     bordercolor="#000000"
     borderopacity="0.25"
     inkscape:showpageshadow="2"
     inkscape:pageopacity="0.0"
     inkscape:pagecheckerboard="0"
     inkscape:deskcolor="#d1d1d1"
     inkscape:zoom="0.45464768"
     inkscape:cx="1330.7007"
     inkscape:cy="251.84336"
     inkscape:window-width="2560"
     inkscape:window-height="1494"
     inkscape:window-x="-11"
     inkscape:window-y="-11"
     inkscape:window-maximized="1"
     inkscape:current-layer="svg35" />
  <path
     d="m 425.33801,11.500413 c 1.2773,0.01934 2.5546,0.03867 3.8706,0.05859 47.51329,0.814137 95.71735,4.458525 142.1294,14.941406 1.54134,0.330946 3.08297,0.660565 4.625,0.988281 9.17962,2.002172 18.21072,4.587047 27.25,7.136719 1.24475,0.349175 2.4895,0.69835 3.77197,1.058105 1.1658,0.334029 2.33159,0.668057 3.53272,1.012208 1.04913,0.299223 2.09827,0.598447 3.1792,0.906738 2.64111,0.897949 2.64111,0.897949 5.64111,2.897949 1.50661,0.503124 3.03013,0.956857 4.5625,1.375 9.89631,2.874506 19.14917,7.202491 28.4375,11.625 0.59426,0.282788 1.18851,0.565576 1.80078,0.856934 6.70443,3.210447 13.16198,6.551892 19.26563,10.818847 2.12305,1.498121 2.12305,1.498121 5.30859,3.199219 29.84865,16.712495 53.10795,44.729061 69.625,74.125001 0.34901,0.6144 0.69803,1.2288 1.05762,1.86181 10.78673,19.10297 19.98419,41.12198 20.18066,63.31397 0.008,0.88343 0.0161,1.76685 0.0245,2.67705 0.0138,1.87008 0.0245,3.74019 0.0324,5.6103 0.0114,1.87996 0.0318,3.75989 0.0615,5.63965 0.25124,15.90405 -1.76501,29.93486 -7.35669,44.89722 -0.23461,0.65871 -0.46922,1.31742 -0.71094,1.99609 -3.11351,8.58726 -7.0665,16.69773 -11.35156,24.75391 -0.43377,0.82371 -0.86754,1.64742 -1.31445,2.49609 -4.84273,9.15475 -4.84273,9.15475 -6.62305,11.75391 -0.66,0 -1.32,0 -2,0 -0.23848,0.86496 -0.47695,1.72992 -0.72266,2.62109 -1.42328,3.76495 -3.2224,6.28698 -5.71484,9.44141 -0.43957,0.55728 -0.87914,1.11455 -1.33203,1.68872 -1.39786,1.75991 -2.81106,3.50622 -4.23047,5.24878 -0.45649,0.56235 -0.91298,1.12471 -1.3833,1.7041 -9.21622,11.28798 -19.11705,21.29162 -30.6167,30.2959 -0.65356,0.52078 -1.30711,1.04156 -1.98047,1.57812 -48.77234,37.85316 -113.55035,55.08368 -174.01953,61.42188 -0.70115,0.0746 -1.4023,0.14913 -2.1247,0.22595 -91.15795,9.65464 -184.15386,7.94968 -274.721,-6.56775 -3.6035,-0.57671 -7.21237,-1.10275 -10.82618,-1.61133 -25.31263,-3.68233 -50.62829,-10.44785 -74.32812,-20.04687 -0.82871,-0.32855 -1.65741,-0.6571 -2.51123,-0.99561 -20.69242,-8.22797 -40.37037,-18.64332 -57.488774,-33.00439 -2.71754,-2.11698 -5.437693,-4.23034 -8.164063,-6.33594 -0.908789,-0.82371 -0.908789,-0.82371 -1.835937,-1.66406 0,-0.66 0,-1.32 0,-2 -0.55043,-0.2243 -1.10086,-0.4486 -1.667969,-0.67969 -9.12616,-5.1669 -18.140165,-16.29098 -23.332031,-25.32031 -0.886165,-1.17403 -1.783434,-2.3397 -2.6875,-3.5 -6.414952,-8.5164 -11.527125,-17.59673 -16.125,-27.1875 -0.372942,-0.77126 -0.745884,-1.54253 -1.130127,-2.33716 -2.588098,-5.52648 -4.454335,-11.09232 -6.057373,-16.97534 -0.189412,-0.68619 -0.378823,-1.37237 -0.573975,-2.07935 -0.514508,-1.9062 -1.001781,-3.81968 -1.488525,-5.73315 -0.320977,-1.24395 -0.641953,-2.48789 -0.972656,-3.76953 -0.331674,-1.47043 -0.652407,-2.94334 -0.964844,-4.41797 -0.274691,-1.25611 -0.274691,-1.25611 -0.554932,-2.5376 -1.969578,-10.54722 -1.781953,-21.17801 -1.760742,-31.87158 0.0032,-3.31967 -0.02034,-6.63845 -0.04565,-9.95801 -0.03579,-12.24091 0.665994,-23.67318 3.361328,-35.63281 0.33427,-1.59147 0.33427,-1.59147 0.675293,-3.21509 4.978995,-23.04425 16.505587,-44.59781 31.324707,-62.78491 0.53625,-0.76313 1.0725,-1.52625 1.625,-2.3125 0.45375,-0.55688 0.9075,-1.11375 1.375,-1.6875 0.66,0 1.32,0 2,0 0.66,-1.65 1.32,-3.3 2,-5 0.66,0 1.32,0 2,0 0.66,-1.32 1.32,-2.639995 2,-3.999995 0.66,0 1.32,0 2,0 0.26168,-0.59942 0.523359,-1.198834 0.792969,-1.816412 1.279233,-2.314212 2.469535,-3.480188 4.519531,-5.121094 2.156593,-1.774973 4.144383,-3.519383 6.125,-5.5 4.811925,-4.811925 9.64933,-9.16243 15.5625,-12.5625 1.25739,-0.94861 2.50657,-1.908159 3.75,-2.875 3.40717,-2.583879 6.87592,-4.700148 10.64453,-6.710937 2.57543,-1.397763 5.09687,-2.874129 7.62109,-4.361817 17.16579,-10.052246 17.16579,-10.052246 24.98438,-10.052246 0,-0.66 0,-1.32 0,-2 2.35275,-0.899674 4.70714,-1.794689 7.0625,-2.6875 0.63744,-0.244277 1.27488,-0.488555 1.93164,-0.740234 11.88951,-4.49412 23.93496,-8.328193 36.25586,-11.447266 0.98382,-0.249464 0.98382,-0.249464 1.98752,-0.503967 28.72434,-7.198858 58.6736,-11.313271 88.12576,-14.058533 0.6554,-0.06166 1.31079,-0.123314 1.98605,-0.18684 4.9868,-0.468866 9.9747,-0.924956 14.96317,-1.37566 0.73713,-0.06677 1.47427,-0.133544 2.23374,-0.202339 39.08797,-3.530973 78.19764,-5.471841 117.45376,-4.797661 z"
     fill="#c8a084"
     id="path1" />
  <path
     d="m 425.33801,11.500413 c 1.2773,0.01934 2.5546,0.03867 3.8706,0.05859 47.51329,0.814137 95.71735,4.458525 142.1294,14.941406 1.54134,0.330946 3.08297,0.660565 4.625,0.988281 9.17962,2.002172 18.21072,4.587047 27.25,7.136719 1.24475,0.349175 2.4895,0.69835 3.77197,1.058105 1.1658,0.334029 2.33159,0.668057 3.53272,1.012208 1.04913,0.299223 2.09827,0.598447 3.1792,0.906738 2.64111,0.897949 2.64111,0.897949 5.64111,2.897949 1.50661,0.503124 3.03013,0.956857 4.5625,1.375 9.89631,2.874506 19.14917,7.202491 28.4375,11.625 0.59426,0.282788 1.18851,0.565576 1.80078,0.856934 6.70443,3.210447 13.16198,6.551892 19.26563,10.818847 2.12305,1.498121 2.12305,1.498121 5.30859,3.199219 29.84865,16.712495 53.10795,44.729061 69.625,74.125001 0.34901,0.6144 0.69803,1.2288 1.05762,1.86181 10.78673,19.10297 19.98419,41.12198 20.18066,63.31397 0.008,0.88343 0.0161,1.76685 0.0245,2.67705 0.0138,1.87008 0.0245,3.74019 0.0324,5.6103 0.0114,1.87996 0.0318,3.75989 0.0615,5.63965 0.25124,15.90405 -1.76501,29.93486 -7.35669,44.89722 -0.23461,0.65871 -0.46922,1.31742 -0.71094,1.99609 -3.11351,8.58726 -7.0665,16.69773 -11.35156,24.75391 -0.43377,0.82371 -0.86754,1.64742 -1.31445,2.49609 -4.84273,9.15475 -4.84273,9.15475 -6.62305,11.75391 -0.66,0 -1.32,0 -2,0 -0.23848,0.86496 -0.47695,1.72992 -0.72266,2.62109 -1.42328,3.76495 -3.2224,6.28698 -5.71484,9.44141 -0.43957,0.55728 -0.87914,1.11455 -1.33203,1.68872 -1.39786,1.75991 -2.81106,3.50622 -4.23047,5.24878 -0.45649,0.56235 -0.91298,1.12471 -1.3833,1.7041 -9.21622,11.28798 -19.11705,21.29162 -30.6167,30.2959 -0.65356,0.52078 -1.30711,1.04156 -1.98047,1.57812 -48.77234,37.85316 -113.55035,55.08368 -174.01953,61.42188 -0.70115,0.0746 -1.4023,0.14913 -2.1247,0.22595 -91.15795,9.65464 -184.15386,7.94968 -274.721,-6.56775 -3.6035,-0.57671 -7.21237,-1.10275 -10.82618,-1.61133 -25.31263,-3.68233 -50.62829,-10.44785 -74.32812,-20.04687 -0.82871,-0.32855 -1.65741,-0.6571 -2.51123,-0.99561 -20.69242,-8.22797 -40.37037,-18.64332 -57.488774,-33.00439 -2.71754,-2.11698 -5.437693,-4.23034 -8.164063,-6.33594 -0.908789,-0.82371 -0.908789,-0.82371 -1.835937,-1.66406 0,-0.66 0,-1.32 0,-2 -0.55043,-0.2243 -1.10086,-0.4486 -1.667969,-0.67969 -9.12616,-5.1669 -18.140165,-16.29098 -23.332031,-25.32031 -0.886165,-1.17403 -1.783434,-2.3397 -2.6875,-3.5 -6.414952,-8.5164 -11.527125,-17.59673 -16.125,-27.1875 -0.372942,-0.77126 -0.745884,-1.54253 -1.130127,-2.33716 -2.588098,-5.52648 -4.454335,-11.09232 -6.057373,-16.97534 -0.189412,-0.68619 -0.378823,-1.37237 -0.573975,-2.07935 -0.514508,-1.9062 -1.001781,-3.81968 -1.488525,-5.73315 -0.320977,-1.24395 -0.641953,-2.48789 -0.972656,-3.76953 -0.331674,-1.47043 -0.652407,-2.94334 -0.964844,-4.41797 -0.274691,-1.25611 -0.274691,-1.25611 -0.554932,-2.5376 -1.969578,-10.54722 -1.781953,-21.17801 -1.760742,-31.87158 0.0032,-3.31967 -0.02034,-6.63845 -0.04565,-9.95801 -0.03579,-12.24091 0.665994,-23.67318 3.361328,-35.63281 0.33427,-1.59147 0.33427,-1.59147 0.675293,-3.21509 4.978995,-23.04425 16.505587,-44.59781 31.324707,-62.78491 0.53625,-0.76313 1.0725,-1.52625 1.625,-2.3125 0.45375,-0.55688 0.9075,-1.11375 1.375,-1.6875 0.66,0 1.32,0 2,0 0.66,-1.65 1.32,-3.3 2,-5 0.66,0 1.32,0 2,0 0.66,-1.32 1.32,-2.639995 2,-3.999995 0.66,0 1.32,0 2,0 0.26168,-0.59942 0.523359,-1.198834 0.792969,-1.816412 1.279233,-2.314212 2.469535,-3.480188 4.519531,-5.121094 2.156593,-1.774973 4.144383,-3.519383 6.125,-5.5 4.811925,-4.811925 9.64933,-9.16243 15.5625,-12.5625 1.25739,-0.94861 2.50657,-1.908159 3.75,-2.875 3.40717,-2.583879 6.87592,-4.700148 10.64453,-6.710937 2.57543,-1.397763 5.09687,-2.874129 7.62109,-4.361817 17.16579,-10.052246 17.16579,-10.052246 24.98438,-10.052246 0,-0.66 0,-1.32 0,-2 2.35275,-0.899674 4.70714,-1.794689 7.0625,-2.6875 0.63744,-0.244277 1.27488,-0.488555 1.93164,-0.740234 11.88951,-4.49412 23.93496,-8.328193 36.25586,-11.447266 0.98382,-0.249464 0.98382,-0.249464 1.98752,-0.503967 28.72434,-7.198858 58.6736,-11.313271 88.12576,-14.058533 0.6554,-0.06166 1.31079,-0.123314 1.98605,-0.18684 4.9868,-0.468866 9.9747,-0.924956 14.96317,-1.37566 0.73713,-0.06677 1.47427,-0.133544 2.23374,-0.202339 39.08797,-3.530973 78.19764,-5.471841 117.45376,-4.797661 z m -91.44889,15.756556 c -4.1191,0.393072 -8.24448,0.692426 -12.37142,0.989538 -15.6879,1.15803 -31.28165,2.34583 -46.81983,4.878906 -4.31934,0.686377 -8.65348,1.270237 -12.98486,1.875 -7.41052,1.050729 -14.80632,2.175499 -22.19385,3.377197 -4.20994,0.678498 -8.42007,1.295532 -12.6499,1.837647 -9.33705,1.208595 -17.81862,2.542511 -26.53125,6.285156 -1.38987,0.496197 -2.78589,0.975516 -4.1875,1.4375 -0.71672,0.238477 -1.43344,0.476953 -2.17188,0.722656 -2.12817,0.67686 -4.26587,1.32371 -6.40625,1.960938 -6.92345,2.069975 -13.38437,4.205899 -19.77343,7.644531 -2.78038,1.3946 -5.59758,2.429619 -8.52344,3.484375 -17.7,6.689437 -33.39275,17.186166 -47.91016,29.191406 -2.02734,1.558594 -2.02734,1.558594 -5.08984,2.996094 -4.82529,2.56664 -8.233251,6.598747 -11.937504,10.562497 -0.622617,0.65355 -1.245235,1.30711 -1.886719,1.98047 -4.032312,4.39476 -7.175996,9.10107 -10.300781,14.17187 -1.807116,2.8392 -3.739274,5.52467 -5.75,8.22266 -12.493396,16.30739 -12.493396,16.30739 -17.0625,35.625 -0.639133,0.2363 -1.278267,0.4726 -1.936768,0.71606 -2.23603,1.09218 -2.23603,1.09218 -2.776855,3.32764 -0.09837,0.82476 -0.196743,1.64952 -0.298096,2.49927 -0.117949,0.90943 -0.235898,1.81886 -0.357422,2.75586 -0.105058,0.95326 -0.210117,1.90652 -0.318359,2.88867 -0.17499,1.40089 -0.17499,1.40089 -0.353516,2.83008 -0.219586,1.76289 -0.431649,3.52674 -0.633545,5.29174 -0.234418,1.93813 -0.52427,3.86985 -0.848877,5.79493 -0.630394,5.15328 -0.678601,10.24731 -0.714843,15.43481 -0.0081,1.11668 -0.01614,2.23336 -0.02446,3.38388 -0.0138,2.36519 -0.02454,4.7304 -0.03242,7.09561 -0.01144,2.3793 -0.03175,4.75856 -0.06152,7.1377 -0.220067,17.62509 -0.155225,35.54979 7.35669,51.84375 0.502126,1.45059 0.98508,2.90815 1.4375,4.375 4.653422,14.10199 12.270105,27.19281 21.40625,38.84765 2.027253,2.61119 3.865234,5.29179 5.71875,8.02735 9.37535,12.89809 21.748555,23.26232 34.437505,32.75 0.84047,0.69222 1.68094,1.38445 2.54687,2.09765 2.56812,1.99152 5.15901,3.54433 8.01563,5.08985 0.92941,0.50918 1.85883,1.01836 2.81641,1.54297 2.2476,1.08863 4.18383,1.79355 6.62109,2.26953 0,0.66 0,1.32 0,2 7.09941,3.64177 14.13703,7.20761 21.60547,10.04297 2.53454,1.01299 4.94399,2.19343 7.39453,3.39453 5.66855,2.63183 11.50757,4.22838 17.54297,5.77514 3.45174,0.89517 6.58583,1.84357 9.86719,3.27564 4.50368,1.89655 9.0243,2.9843 13.77734,4.07422 0.93038,0.21761 1.86076,0.43522 2.81933,0.65942 5.71383,1.31594 11.42028,2.49013 17.22754,3.32105 2.30025,0.38012 4.52088,0.85376 6.78907,1.38281 5.90316,1.33335 11.86585,2.20047 17.85156,3.07422 1.19093,0.17515 2.38186,0.3503 3.60889,0.53076 8.20124,1.18518 16.40042,2.19243 24.64892,2.97705 3.39704,0.32438 6.77882,0.7312 10.16432,1.15869 81.99145,10.17242 174.99903,12.67392 255.83568,-5.79541 3.30385,-0.7442 6.59097,-1.37406 9.92969,-1.93359 3.28796,-0.57586 6.42182,-1.32763 9.60937,-2.31641 3.44775,-1.05405 6.8997,-2.07733 10.3711,-3.05078 13.90579,-3.90287 27.6024,-8.02617 40.95703,-13.57031 1.33416,-0.53243 2.66885,-1.06357 4.00391,-1.59375 8.31535,-3.3254 16.2524,-6.87364 23.99609,-11.40625 0.98484,-0.55559 1.96969,-1.11117 2.98437,-1.6836 6.61387,-3.76855 12.88701,-7.80541 19.01563,-12.3164 0.60441,-0.43522 1.20882,-0.87044 1.83154,-1.31885 14.8477,-10.72514 28.23262,-22.91102 39.16846,-37.68115 0.49113,-0.61231 0.98226,-1.22461 1.48828,-1.85547 15.1132,-19.10537 26.20158,-43.82954 32.63672,-67.14453 0.875,-3 0.875,-3 1.90869,-4.73291 1.37149,-3.21771 1.26217,-6.04992 1.30225,-9.54053 0.008,-0.71182 0.0168,-1.42364 0.0254,-2.15703 0.0196,-2.31507 0.0196,-4.62939 0.0137,-6.94453 -5.5e-4,-0.78922 -0.001,-1.57844 -0.002,-2.39157 -0.096,-30.23704 -8.22355,-56.72264 -24.37335,-82.23343 -0.5659,-0.91395 -1.1318,-1.82789 -1.71484,-2.76953 -5.80177,-9.28029 -12.42441,-17.71703 -19.28516,-26.23047 -0.66902,-0.86238 -1.33805,-1.72477 -2.02734,-2.61328 -1.70809,-2.06662 -3.33997,-3.70379 -5.41016,-5.38672 -3.02672,-2.52227 -5.77475,-5.21226 -8.5625,-7.999997 -7.16188,-6.689397 -14.33339,-13.149084 -22.96875,-17.878906 -2.62407,-1.448285 -5.19865,-2.975153 -7.78125,-4.496094 -8.91421,-5.193498 -17.84954,-9.996433 -27.25391,-14.25 -2.41456,-1.108116 -4.76874,-2.268501 -7.12109,-3.5 -4.77923,-2.42483 -9.81189,-4.143404 -14.875,-5.875 -0.65291,-0.22615 -1.30582,-0.4523 -1.97852,-0.685303 -5.82343,-1.986492 -11.70446,-3.659884 -17.64648,-5.252197 -1.44959,-0.390223 -1.44959,-0.390223 -2.92847,-0.78833 -1.93199,-0.519924 -3.8642,-1.039069 -5.79663,-1.557373 -2.27682,-0.61588 -4.54836,-1.246516 -6.81787,-1.888672 -7.70442,-2.146997 -15.36816,-3.733376 -23.24609,-5.042969 -4.14826,-0.693787 -8.26979,-1.49851 -12.39502,-2.316894 -15.02969,-2.964483 -29.96394,-4.531761 -45.23291,-5.683594 -0.9697,-0.07332 -1.9394,-0.146631 -2.93848,-0.222168 -1.01452,-0.07639 -2.02904,-0.152774 -3.07431,-0.231476 -2.86697,-0.240553 -5.72068,-0.511105 -8.58093,-0.814117 -13.99246,-1.44767 -27.83238,-1.812448 -41.89163,-1.782532 -2.29001,-0.0014 -4.58001,-0.0033 -6.87002,-0.0058 -4.76235,-0.0029 -9.52462,0.0012 -14.28697,0.01068 -6.03488,0.01139 -12.06959,0.0048 -18.10447,-0.0071 -4.71814,-0.0073 -9.43624,-0.0049 -14.15438,2.55e-4 -2.22223,0.0013 -4.44447,-2.25e-4 -6.6667,-0.005 -14.04579,-0.02337 -27.86262,0.62956 -41.83901,2.029147 z"
     fill="#966961"
     id="path2" />
  <path
     d="m 378.68176,25.199632 c 2.26941,-0.0039 4.53882,-0.0082 6.80823,-0.01299 4.7228,-0.0074 9.44553,-0.0072 14.16833,-0.0019 4.77223,0.0046 9.54421,-0.0023 14.31641,-0.02051 25.02043,-0.09492 49.76733,-0.106347 74.62146,3.019501 3.78844,0.437565 7.55747,0.645561 11.36682,0.816681 16.28081,0.916236 32.29117,4.145399 48.25391,7.316406 4.06175,0.805062 8.1244,1.513631 12.21484,2.15625 5.73121,0.937801 11.25915,2.323128 16.84375,3.902344 1.44028,0.401342 1.44028,0.401342 2.90967,0.810791 10.58054,2.965446 21.01853,6.222712 31.40283,9.814209 0.82838,0.284802 1.65677,0.569605 2.51025,0.863037 8.06156,2.823882 15.73394,6.312865 23.36475,10.136963 1.13695,0.567188 2.27391,1.134375 3.44531,1.71875 2.94427,1.52914 5.82267,3.120602 8.69287,4.78125 1.68805,0.97192 3.39197,1.916107 5.09619,2.859375 10.86765,6.059839 20.55008,13.11026 30.13282,21.0625 1.69229,1.402341 3.40673,2.778326 5.14062,4.128906 2.06221,1.698085 3.69019,3.323815 5.36719,5.386715 1.7744,2.13199 3.53266,4.09516 5.5,6.0625 2.46131,2.46131 4.71079,5.01344 6.95312,7.67187 1.04,1.22909 2.09238,2.44778 3.15625,3.65625 0.52079,0.59297 1.04157,1.18594 1.57813,1.79688 0.46793,0.52851 0.93586,1.05703 1.41797,1.60156 1.68767,2.14623 3.01394,4.41895 4.39453,6.77344 0.9967,1.5438 1.99695,3.08531 3,4.625 11.02357,17.36622 20.14188,34.20841 25,54.375 0.30035,1.20398 0.6007,2.40797 0.91016,3.64844 2.37199,10.78981 2.40946,21.66837 2.46484,32.66406 0.008,0.78515 0.0157,1.5703 0.0238,2.37924 0.0176,2.26593 0.0126,4.5306 -3.6e-4,6.79654 0.006,0.68269 0.0119,1.36538 0.018,2.06876 -0.063,4.35124 -0.95293,6.89104 -3.41641,10.44296 -0.81345,2.67027 -0.81345,2.67027 -1.375,5.5 -1.60431,6.7811 -3.96771,13.06731 -6.625,19.5 -0.49242,1.22461 -0.98484,2.44922 -1.49219,3.71094 -12.81925,31.11227 -34.77713,60.00445 -62.50781,79.28906 -1.0377,0.74765 -2.07539,1.49531 -3.14453,2.26562 -21.01193,14.93956 -44.9618,26.80496 -69.7002,34.08545 -2.31982,0.69847 -4.62427,1.43646 -6.92871,2.18408 -8.137,2.63682 -16.17647,5.09834 -24.5625,6.82422 -2.65319,0.56306 -2.65319,0.56306 -5.00049,1.61817 -2.67984,1.0287 -5.11518,1.56679 -7.94482,2.02246 -0.99999,0.16379 -1.99998,0.32758 -3.03027,0.49634 -1.0522,0.1662 -2.1044,0.33241 -3.18848,0.50366 -1.08571,0.17587 -2.17143,0.35175 -3.29004,0.53296 -3.06902,0.49532 -6.13916,0.98288 -9.20996,1.46704 -1.24266,0.19722 -2.48531,0.39445 -3.76563,0.59765 -1.91477,0.29825 -3.83057,0.59008 -5.74755,0.87378 -2.52488,0.38275 -5.04326,0.78305 -7.5625,1.19947 -13.88186,2.24913 -27.77423,3.54683 -41.79932,4.5166 -1.24188,0.0859 -2.48376,0.17177 -3.76328,0.26025 -61.9713,4.13282 -125.82568,3.84788 -187.39615,-4.77685 -4.72853,-0.65867 -9.46351,-1.15579 -14.21557,-1.6084 -8.03169,-0.80881 -16.01262,-1.89603 -24,-3.0625 -1.15532,-0.16621 -2.31065,-0.33242 -3.50098,-0.50366 -5.57572,-0.83178 -10.86667,-1.83054 -16.24902,-3.49634 -1.59871,-0.32025 -3.20315,-0.61345 -4.8125,-0.875 -11.67825,-2.07221 -22.96605,-4.3513 -33.96094,-8.90235 -4.76938,-1.80728 -9.66675,-2.96041 -14.62109,-4.13281 -3.4478,-1.04218 -6.33163,-2.35483 -9.50562,-4.01294 -3.66523,-1.8797 -7.45243,-3.48857 -11.22485,-5.1394 -5.02192,-2.20076 -9.99354,-4.43439 -14.875,-6.9375 0,-0.66 0,-1.32 0,-2 -0.54914,-0.10571 -1.09828,-0.21141 -1.66406,-0.32031 -15.30654,-4.45375 -29.08014,-18.93906 -40.335944,-29.67969 -0.898477,-0.84563 -1.796953,-1.69125 -2.722656,-2.5625 -5.585791,-5.39202 -10.007737,-10.97641 -14.277344,-17.4375 -1.437352,-2.02094 -2.874863,-4.04177 -4.3125,-6.0625 -7.356339,-10.55765 -14.579439,-21.67994 -18.6875,-33.9375 -0.248789,-0.64969 -0.497578,-1.29938 -0.753906,-1.96875 -2.956811,-8.04996 -4.5856,-16.63237 -6.246094,-25.03125 -0.178696,-0.84079 -0.357393,-1.68158 -0.541504,-2.54785 -0.659403,-4.96484 -0.641607,-9.88999 -0.661621,-14.89356 -0.0057,-1.11809 -0.0114,-2.23619 -0.01727,-3.38817 -0.0094,-2.37117 -0.01598,-4.74235 -0.01984,-7.11354 -0.0096,-3.55501 -0.04058,-7.10942 -0.07227,-10.6643 -0.06106,-13.331 0.625865,-26.15662 2.960571,-39.29197 0.341125,-2.03612 0.586924,-4.06798 0.823609,-6.11843 0.174345,-0.98412 0.348691,-1.96824 0.52832,-2.98218 0.66,-0.30938 1.32,-0.61875 2,-0.9375 0.66,-0.35063 1.32,-0.70125 2,-1.0625 0.21609,-1.92383 0.429776,-3.84798 0.628418,-5.77368 0.612276,-3.66843 2.21281,-6.7102 3.934082,-9.97632 0.353525,-0.68812 0.707051,-1.37624 1.071289,-2.08521 3.83525,-7.31359 8.210254,-14.2856 13.428711,-20.69995 1.831606,-2.33013 3.228741,-4.64153 4.6875,-7.21484 3.484558,-5.53164 7.625812,-10.27005 12.0625,-15.0625 0.976948,-1.07556 0.976948,-1.07556 1.973633,-2.17285 4.262096,-4.505523 8.594526,-7.686283 13.989016,-10.734128 2.51939,-1.45004 4.66172,-3.121185 6.84985,-5.030518 13.87136,-11.357179 30.23204,-19.528226 46.79687,-26.171875 2.20179,-0.920746 4.23877,-1.933517 6.32813,-3.078125 4.46055,-2.309101 9.24327,-3.627695 14.03393,-5.067627 5.53068,-1.674578 10.89037,-3.656433 16.25123,-5.819092 6.68215,-2.509108 13.10902,-3.615671 20.15234,-4.425781 8.96229,-1.091794 17.81256,-2.533976 26.6875,-4.1875 12.13854,-2.24664 24.27304,-3.848112 36.53955,-5.200195 3.28997,-0.381501 6.5604,-0.870101 9.83545,-1.362305 8.35713,-1.143905 16.76544,-1.624989 25.18066,-2.152588 5.52079,-0.350142 11.02736,-0.718587 16.53211,-1.266769 14.155,-1.390786 28.16403,-1.82938 42.38098,-1.818924 z m 23.98266,3.94458 c -9.53923,0.390049 -19.06129,0.42123 -28.60717,0.319092 -1.0688,-0.0084 -2.13759,-0.01676 -3.23877,-0.02539 -0.93949,-0.0116 -1.87897,-0.0232 -2.84693,-0.03516 -2.65362,0.0984 -5.03504,0.575714 -7.63354,1.097656 -1.76839,0.06684 -3.53909,0.08533 -5.30859,0.0625 -0.99452,-0.0077 -1.98903,-0.01547 -3.01368,-0.02344 -2.07291,-0.02599 -4.14583,-0.05204 -6.21875,-0.07813 -4.95785,-0.03851 -9.57801,0.05061 -14.45898,1.039062 -1.99966,0.03703 -4.00057,0.04761 -6,0 0,0.66 0,1.32 0,2 -0.62906,-0.08379 -1.25813,-0.167578 -1.90625,-0.253906 -5.62519,-0.669262 -10.50609,-0.677371 -16.09375,0.253906 0,0.66 0,1.32 0,2 -0.61488,-0.08379 -1.22977,-0.167578 -1.86328,-0.253906 -0.80824,-0.101836 -1.61649,-0.203672 -2.44922,-0.308594 -0.80051,-0.104414 -1.60102,-0.208828 -2.42578,-0.316406 -2.42989,-0.268646 -2.42989,-0.268646 -5.26172,0.878906 0,0.66 0,1.32 0,2 -1.07701,0.07348 -1.07701,0.07348 -2.17578,0.148438 -17.04211,1.230936 -33.93187,3.302119 -50.82422,5.851562 -1.1202,0.163711 -2.24039,0.327422 -3.39453,0.496094 -13.08126,2.022137 -25.85799,5.500804 -38.60547,9.003906 -1.05018,0.28448 -2.10037,0.56896 -3.18237,0.862061 -5.49664,1.535034 -10.62906,3.314198 -15.79761,5.731689 -2.94757,1.322382 -5.99296,2.222765 -9.08252,3.15625 -7.28379,2.295201 -13.91717,5.546185 -20.67188,9.078125 -3.26562,1.671875 -3.26562,1.671875 -6.26562,2.671875 0,0.99 0,1.98 0,3 -0.86625,0.0825 -1.7325,0.165 -2.625,0.25 -3.90432,0.867626 -6.12791,2.44998 -9.375,4.75 -1.98508,1.0293 -3.98114,2.038639 -6,3 0,0.66 0,1.32 0,2 -1.05188,0.340313 -1.05188,0.340313 -2.125,0.6875 -3.49148,1.593938 -5.9608,3.832328 -8.875,6.3125 -0.76313,0.33 -1.52625,0.66 -2.3125,1 -1.98913,0.917618 -1.98913,0.917618 -2.4375,3.625003 -0.0825,0.78375 -0.165,1.567495 -0.25,2.374995 -1.98,0.495 -1.98,0.495 -4,1 0,0.66 0,1.32 0,2 -0.5775,0.2475 -1.155,0.495 -1.75,0.75 -2.5794,1.433 -4.31122,3.03424 -6.250004,5.25 0,0.66 0,1.32 0,2 -0.86625,-0.0206 -1.7325,-0.0413 -2.625,-0.0625 -5.171056,1.62792 -6.744301,5.54594 -9.375,10.0625 -0.66,0.99 -1.32,1.98 -2,3 -0.167136,2.62531 -0.167136,2.62531 0,5 -0.99,0 -1.98,0 -3,0 -0.33,1.65 -0.66,3.3 -1,5 -0.66,0 -1.32,0 -2,0 0,0.99 0,1.98 0,3 -1.98,0.495 -1.98,0.495 -4,1 -0.33,2.31 -0.66,4.62 -1,7 -0.66,0 -1.32,0 -2,0 -0.99,2.97 -1.98,5.94 -3,9 -0.66,0 -1.32,0 -2,0 0,0.66 0,1.32 0,2 9.57,0 19.14,0 29,0 0,1.32 0,2.64 0,4 -0.99,-0.33 -1.98,-0.66 -3,-1 0,0.66 0,1.32 0,2 3.814897,1.46727 6.290116,0.43336 10.000004,-1 0,0.99 0,1.98 0,3 0.66,0 1.32,0 2,0 0,0.99 0,1.98 0,3 -0.66,0.33 -1.32,0.66 -2,1 1.98,1.98 3.96,3.96 6,6 1.98,-0.99 1.98,-0.99 4,-2 0,0.66 0,1.32 0,2 1.65,0 3.3,0 5,0 -0.33,1.32 -0.66,2.64 -1,4 0.99,0 1.98,0 3,0 0,-1.32 0,-2.64 0,-4 2.97,0.33 5.94,0.66 9,1 0,0.99 0,1.98 0,3 0.66,0 1.32,0 2,0 0,0.66 0,1.32 0,2 -0.66,0.33 -1.32,0.66 -2,1 1.485,0.99 1.485,0.99 3,2 0,-0.66 0,-1.32 0,-2 4.875,2.625 4.875,2.625 6,6 0.66,0.33 1.32,0.66 2,1 0,1.98 0,3.96 0,6 -0.66,0.33 -1.32,0.66 -2,1 0,0.99 0,1.98 0,3 0.66,0 1.32,0 2,0 0,-0.66 0,-1.32 0,-2 0.66,0 1.32,0 2,0 -0.14165,2.87526 -0.28819,5.75013 -0.4375,8.625 -0.0393,0.80824 -0.0786,1.61648 -0.11914,2.44922 -0.23132,4.37729 -0.61257,8.61125 -1.44336,12.92578 -0.66,0 -1.32,0 -2,0 -1.25665,2.906 -2,4.79604 -2,8 -0.68772,-0.0303 -1.37543,-0.0606 -2.08399,-0.0918 -18.26509,-0.77043 -36.510309,-1.01826 -54.791014,-1.0332 -1.088855,-0.002 -2.17771,-0.005 -3.299561,-0.008 -3.105908,-0.006 -6.211717,-0.004 -9.317627,-2.4e-4 -0.946524,-0.002 -1.893048,-0.004 -2.868255,-0.006 -1.292804,0.005 -1.292804,0.005 -2.611725,0.009 -1.135488,0.001 -1.135488,0.001 -2.293915,0.002 -1.764099,-0.0607 -1.764099,-0.0607 -2.733917,1.12699 -0.249239,6.70925 0.366164,13.11406 1.3125,19.75 0.136076,0.96575 0.272153,1.9315 0.412353,2.92651 1.543759,10.61768 3.361892,20.67156 8.275147,30.32349 0.66,0 1.32,0 2,0 0.185625,1.39219 0.185625,1.39219 0.375,2.8125 0.440331,3.32675 0.440331,3.32675 2.625,6.1875 0.28875,0.9075 0.5775,1.815 0.875,2.75 1.307256,3.77651 3.071539,6.82756 5.125,10.25 0.66,0 1.32,0 2,0 1.075252,2.65229 2.094561,5.28368 3,8 0.66,0 1.32,0 2,0 0.2475,0.70125 0.495,1.4025 0.75,2.125 1.441567,3.3156 3.027852,6.01795 5.25,8.875 1.156289,0.40412 1.156289,0.40412 2.335937,0.8164 3.585783,1.5931 5.094627,3.83978 7.476567,6.9336 3.4641,4.38165 6.90882,7.98472 11.59375,11.0664 1.59375,1.1836 1.59375,1.1836 3.59375,4.1836 1.65533,1.01866 3.3226,2.01811 5,3 0.45891,0.47695 0.91781,0.9539 1.39062,1.44531 1.83826,1.77579 3.6526,2.76173 5.92188,3.92969 2.93846,1.56908 5.41897,3.12689 7.875,5.375 3.06847,2.45477 4.94415,2.97369 8.8125,3.25 0,0.66 0,1.32 0,2 0.60586,0.30293 1.21172,0.60586 1.83594,0.91797 0.83789,0.41894 1.67578,0.83789 2.53906,1.26953 0.91394,0.45633 1.82789,0.91265 2.76953,1.38281 1.81201,0.90725 3.62214,1.81826 5.42969,2.73438 8.2738,4.18236 16.08608,7.81943 25.14062,9.98437 2.28516,0.71094 2.28516,0.71094 4.28516,2.71094 1.88734,0.57224 1.88734,0.57224 4.05078,0.9375 4.85782,0.99388 9.44375,2.48178 14.13672,4.0625 6.78772,2.21961 13.26076,3.69654 20.375,4.51172 3.79341,0.53883 7.43052,1.4384 11.125,2.42578 12.76646,3.35387 25.7881,5.00677 38.90744,6.27752 5.7503,0.56957 11.4462,1.35283 17.15897,2.21467 10.90774,1.5942 21.82773,2.74308 32.80859,3.69531 0.97507,0.0856 1.95015,0.1712 2.95477,0.2594 21.05622,1.81855 42.08114,2.43013 63.20825,2.59668 2.0598,0.0171 4.11954,0.0406 6.17926,0.0648 8.03407,0.0922 16.06138,0.0464 24.09522,-0.0459 1.63492,-0.0131 3.26985,-0.0258 4.90478,-0.0381 34.25915,-0.28325 68.062,-2.32783 101.8003,-8.55664 3.21103,-0.56705 6.43639,-0.98828 9.66992,-1.40527 11.00035,-1.51961 21.87992,-4.01875 32.44922,-7.41406 3.03288,-0.81676 6.03924,-1.08685 9.16797,-1.27735 2.31649,-0.35604 3.94024,-1.22716 6.00781,-2.30859 1.09312,-0.2475 2.18625,-0.495 3.3125,-0.75 4.86288,-1.12921 9.39507,-3.07688 13.96802,-5.04199 3.37737,-1.41385 6.57303,-2.43407 10.1726,-3.12989 4.78183,-0.99071 8.63199,-2.93933 12.85938,-5.32812 1.48505,-0.81365 2.97073,-1.62614 4.45703,-2.4375 0.71881,-0.39574 1.43763,-0.79149 2.17822,-1.19922 2.81551,-1.52733 5.67805,-2.9501 8.55225,-4.36328 4.92192,-2.43377 9.73162,-5.02865 14.5,-7.75 0,-0.66 0,-1.32 0,-2 0.87527,-0.26168 1.75055,-0.52336 2.65234,-0.79297 3.31655,-1.19582 5.94936,-2.62007 8.91016,-4.51953 0.90879,-0.57363 1.81758,-1.14727 2.75391,-1.73828 2.87306,-2.08684 5.19704,-4.41953 7.68359,-6.94922 1.67216,-1.35252 3.3603,-2.68548 5.0625,-4 11.22836,-9.09467 21.26503,-20.56895 29,-32.75 2.37162,-3.69351 4.98106,-6.07506 8.39844,-8.77735 2.55589,-2.44561 3.35534,-5.17071 4.53906,-8.47265 0.66,-0.99 1.32,-1.98 2,-3 0,-1.32 0,-2.64 0,-4 0.66,0 1.32,0 2,0 2.83443,-5.88689 5.05866,-11.87362 7.125,-18.0625 0.25346,-0.75523 0.50692,-1.51046 0.76807,-2.28858 2.52611,-7.67172 4.35405,-14.80665 4.66943,-22.89892 0.31849,-7.29145 0.31849,-7.29145 0.93799,-9.67847 4.01076,-16.63311 -0.29108,-36.49122 -6.50049,-52.07153 -0.38801,-0.99645 -0.77602,-1.99289 -1.17578,-3.01953 -2.4689,-6.06618 -5.25542,-11.7808 -8.46485,-17.48828 -1.68696,-3.09278 -3.05193,-6.22358 -4.35937,-9.49219 -0.66,0 -1.32,0 -2,0 -0.15469,-1.14469 -0.15469,-1.14469 -0.3125,-2.3125 -0.7691,-3.00649 -1.51623,-3.59974 -3.6875,-5.6875 -1.03292,-1.9832 -2.03375,-3.98348 -3,-6 -0.66,-0.99 -1.32,-1.98 -2,-3 -0.66,0 -1.32,0 -2,0 -0.20625,-0.68063 -0.4125,-1.36125 -0.625,-2.0625 -1.56863,-3.35117 -3.56599,-5.66399 -6.03516,-8.38672 -1.33984,-1.55078 -1.33984,-1.55078 -2.33984,-3.55078 -0.99,0 -1.98,0 -3,0 -0.0619,-1.05188 -0.0619,-1.05188 -0.125,-2.125 -1.0805,-3.5502 -2.7781,-5.02439 -5.5,-7.44531 -1.375,-1.42969 -1.375,-1.42969 -2.375,-4.42969 -1.65,0 -3.3,0 -5,0 -0.2475,-0.63938 -0.495,-1.27875 -0.75,-1.9375 -1.05149,-2.253105 -1.05149,-2.253105 -3.3125,-2.687495 -0.95906,-0.185628 -0.95906,-0.185628 -1.9375,-0.375003 -0.33,-0.66 -0.66,-1.32 -1,-2 -0.99,0 -1.98,0 -3,0 -1.4732,-2.749972 -2.22405,-4.896195 -3,-8 -3.3,-0.66 -6.6,-1.32 -10,-2 0,-0.66 0,-1.32 0,-2 -0.66,0 -1.32,0 -2,0 0,-0.66 0,-1.32 0,-2 -1.63969,-0.61875 -1.63969,-0.61875 -3.3125,-1.25 -2.51674,-0.949714 -3.5292,-1.526461 -5.10938,-3.757812 -1.99249,-2.515272 -3.43723,-2.848748 -6.51562,-3.617188 -2.56695,-0.658191 -4.82777,-1.255265 -7.19141,-2.460937 -1.97328,-1.133533 -1.97328,-1.133533 -4.87109,-0.914063 0,-0.99 0,-1.98 0,-3 -11.5219,-4.828348 -22.69448,-9.239824 -34.85938,-12.171875 -4.29474,-1.132445 -8.46007,-2.574861 -12.64453,-4.058594 -2.53856,-0.916837 -2.53856,-0.916837 -5.49609,-0.769531 0,-0.66 0,-1.32 0,-2 -0.88301,-0.10957 -1.76602,-0.219141 -2.67578,-0.332031 -6.71039,-0.886549 -13.07037,-2.053705 -19.5625,-3.949219 -4.05768,-1.05603 -8.15624,-1.599003 -12.30469,-2.179687 -3.71249,-0.578897 -7.34923,-1.361769 -11.01953,-2.164063 -6.56858,-1.358782 -12.74976,-1.711255 -19.4375,-1.375 0,-0.66 0,-1.32 0,-2 -3.31092,-0.510836 -6.62394,-1.006632 -9.9375,-1.5 -0.92619,-0.143086 -1.85238,-0.286172 -2.80664,-0.433594 -7.43873,-1.096233 -14.87923,-1.970052 -22.25586,-0.06641 0,-0.66 0,-1.32 0,-2 -4.29,0.33 -8.58,0.66 -13,1 0,-0.66 0,-1.32 0,-2 -0.99258,0.0232 -1.98516,0.04641 -3.00781,0.07031 -6.75831,0.107287 -13.2379,0.0359 -19.92969,-1.070313 -13.14029,-2.079439 -26.504,-0.933042 -39.73609,-0.356201 z"
     fill="#eecdb3"
     id="path3" />
  <path
     d="m 362.37707,195.71525 c 6.5251,5.94018 10.14305,13.55903 12.96094,21.78516 0.76183,-1.17756 0.76183,-1.17756 1.53906,-2.37891 15.21635,-23.22345 15.21635,-23.22345 27.46094,-26.62109 3.44909,-0.36535 6.84817,-0.32958 10.3125,-0.25 1.32934,0.008 1.32934,0.008 2.68555,0.0156 18.20632,0.21248 18.20632,0.21248 25.00195,4.23438 3.94854,5.09489 3.68657,10.85004 3,17 -1.24147,6.42514 -2.93132,12.79395 -5,19 -0.66,0 -1.32,0 -2,0 -0.14438,0.5775 -0.28875,1.155 -0.4375,1.75 -0.33148,1.32593 -0.68477,2.64728 -1.08681,3.95355 -0.64608,3.11901 -0.62518,6.10427 -0.64928,9.28961 -0.01,1.04497 -0.01,1.04497 -0.0203,2.11106 -0.014,1.51136 -0.0259,3.02275 -0.036,4.53415 -0.0165,2.40755 -0.0398,4.81494 -0.0649,7.22241 -0.0704,6.84515 -0.13033,13.69038 -0.18212,20.5357 -0.0322,4.19336 -0.0736,8.38655 -0.12019,12.57977 -0.0158,1.58324 -0.0282,3.16653 -0.0369,4.74983 -0.0797,14.33157 -1.30138,28.24575 -4.74109,42.21142 -0.19594,0.854 -0.39188,1.70801 -0.59375,2.58789 -1.40352,5.83172 -3.46064,11.06646 -6.03125,16.47461 -0.56285,1.29151 -1.1254,2.58316 -1.6875,3.875 -4.03184,7.95212 -10.31412,14.70125 -17.3125,20.125 -0.33,0.66 -0.66,1.32 -1,2 -1.65098,0.70461 -3.32155,1.36359 -5,2 -3.03746,1.52277 -6.05003,3.0886 -9.0625,4.66015 -5.91433,2.69763 -11.80073,2.55402 -18.1875,2.58985 -1.35545,0.0309 -1.35545,0.0309 -2.73828,0.0625 -6.87508,0.0396 -13.58244,-0.59055 -19.13281,-4.9961 -0.43442,-0.57878 -0.86883,-1.15757 -1.31641,-1.7539 -0.67869,-0.86432 -0.67869,-0.86432 -1.37109,-1.7461 -3.25707,-4.96569 -4.00524,-8.92107 -3.19141,-14.8164 1.20611,-3.29505 2.72243,-6.11964 5.68359,-8.16016 5.76933,-2.09174 14.1959,-2.29543 19.82032,0.32813 2.90456,2.35882 4.26786,4.13213 5.43359,7.70703 0.0206,0.70125 0.0412,1.4025 0.0625,2.125 8.29347,-3.66456 12.29467,-9.58058 17,-17 0.55687,-0.825 1.11375,-1.65 1.6875,-2.5 3.3172,-6.31848 4.70777,-12.91842 5.9375,-19.875 0.1231,-0.66347 0.24621,-1.32693 0.37305,-2.0105 2.64413,-15.99081 2.22043,-32.64145 2.56445,-48.802 0.0434,-1.93686 0.087,-3.87371 0.13086,-5.81055 0.10519,-4.66726 0.20692,-9.33458 0.30664,-14.00195 -1.03556,0.0314 -1.03556,0.0314 -2.09204,0.0635 -3.15667,0.0836 -6.31311,0.13534 -9.47046,0.18653 -1.08604,0.0335 -2.17207,0.067 -3.29102,0.10156 -6.62482,0.0805 -10.84495,-0.23135 -16.14648,-4.35156 -1.55859,-2 -1.55859,-2 -2.4375,-4 -0.30809,-0.66 -0.61617,-1.32 -0.93359,-2 -0.62891,-2 -0.62891,-2 -0.62891,-6 -0.66,0 -1.32,0 -2,0 -0.26813,0.5775 -0.53625,1.155 -0.8125,1.75 -1.21679,2.3055 -2.49084,4.27056 -4.1875,6.25 -0.66,0 -1.32,0 -2,0 -0.495,1.485 -0.495,1.485 -1,3 -2.3033,1.79657 -4.56061,3.41316 -7,5 -1.01063,0.68062 -2.02125,1.36125 -3.0625,2.0625 -10.26458,5.45514 -20.25195,6.33548 -31.6875,6.4375 -1.72235,0.0275 -1.72235,0.0275 -3.47949,0.0557 -8.61219,-0.0622 -16.10877,-1.60923 -23.14551,-6.80566 -7.52245,-7.88066 -8.22791,-17.16376 -8.03125,-27.60547 0.62198,-11.91322 6.47388,-22.67826 13.40625,-32.14453 0.4473,-0.64196 0.89461,-1.28391 1.35547,-1.94531 4.62126,-6.04424 11.96314,-11.84399 19.36328,-13.75782 16.68767,-1.50983 32.21533,-1.33305 46.32031,8.91797 z"
     fill="#704b48"
     id="path4" />
  <path
     d="m 215.15051,99.312915 c 0.79471,-0.0123 1.58941,-0.0245 2.4082,-0.0371 4.62169,-0.0115 8.50277,0.25335 12.7793,2.224605 2.85047,4.2757 2.34111,7.9661 2.3125,13 -0.005,1.4682 -0.005,1.4682 -0.0105,2.96606 -0.18133,12.40164 -2.07609,24.31127 -5.61841,36.18628 -1.04822,4.3666 -1.44648,8.79729 -1.9187,13.25415 -0.58821,5.42357 -1.4677,10.73822 -2.52099,16.09375 -1.17739,6.02333 -2.188,12.0686 -3.1814,18.12476 -3.21015,19.42891 -6.88072,38.75777 -10.68872,58.07715 -0.22359,1.13946 -0.22359,1.13946 -0.45169,2.30195 -0.27974,1.42558 -0.56087,2.85088 -0.84369,4.27585 -0.82826,4.22919 -1.50187,8.45122 -2.0784,12.72005 7.58957,-1.99253 7.58957,-1.99253 15.0625,-4.375 5.55304,-1.91555 11.23513,-3.39186 16.90649,-4.91162 3.82133,-0.76144 3.82133,-0.76144 7.03101,-2.71338 4.07619,-0.282 8.16522,-0.23187 12.25,-0.25 1.71896,-0.0309 1.71896,-0.0309 3.47266,-0.0625 1.1073,-0.005 2.2146,-0.0103 3.35546,-0.0156 1.01482,-0.009 2.02963,-0.0187 3.0752,-0.0283 3.26637,0.409 5.16562,1.49409 7.84668,3.35645 -0.36908,6.3974 -0.36908,6.3974 -3.17578,9.07812 -7.44754,5.06804 -16.80326,7.3373 -25.3711,9.88282 -2.48248,0.74699 -4.94433,1.519 -7.40625,2.32812 -17.11527,5.60021 -37.31229,9.14819 -55.04687,3.71094 -2.77503,-1.65027 -5.05999,-3.40391 -7,-6 0,-0.66 0,-1.32 0,-2 -0.66,0 -1.32,0 -2,0 -2.56354,-7.69063 -1.45992,-16.19025 0.79687,-23.81641 2.50484,-8.85312 4.14443,-17.82156 5.76563,-26.87109 0.30739,-1.692 0.61493,-3.38398 0.92261,-5.07593 2.05803,-11.38259 3.93006,-22.77794 5.51489,-34.23657 0.94281,-6.59968 1.99011,-13.11552 3.4375,-19.625 1.37003,-6.2131 2.41986,-12.43311 3.36035,-18.72217 0.66642,-4.4135 1.40821,-8.79445 2.28027,-13.17236 2.66844,-13.63062 3.42632,-26.60246 2.92188,-40.48047 0.66,0 1.32,0 2,0 0.26812,-0.63938 0.53625,-1.27875 0.8125,-1.9375 2.54326,-4.417245 8.48285,-3.246385 13,-3.249995 z"
     fill="#704b48"
     id="path5" />
  <path
     d="m 398.21301,49.000413 c 0.70125,0.825 1.4025,1.65 2.125,2.5 0.86625,0.99 1.7325,1.98 2.625,3 4.36964,5.519552 5.78681,9.059405 6.375,16 0.99,-0.495 0.99,-0.495 2,-1 5.02893,-0.424841 9.43165,-0.35786 14,2 0,0.66 0,1.32 0,2 0.61875,0.226875 1.2375,0.45375 1.875,0.6875 2.93787,1.814566 3.28474,2.951484 4.125,6.3125 1.09964,11.034965 -2.31425,19.341692 -9,27.999997 -0.78375,0.76312 -1.5675,1.52625 -2.375,2.3125 -2.08743,1.77726 -2.08743,1.77726 -1.625,5.6875 -5.6954,0.23621 -11.11126,-0.0783 -16.75,-0.9375 -25.98418,-3.92687 -53.23254,-2.79835 -79.25,0.375 -1.51388,0.18333 -1.51388,0.18333 -3.05835,0.37036 -4.90474,0.64007 -9.2447,1.60682 -13.94165,3.19214 -2.8125,-1 -2.8125,-1 -5,-3 -0.6875,-2.9375 -0.6875,-2.9375 -1,-6 -0.49113,-0.9552 -0.49113,-0.9552 -0.99219,-1.92969 -1.76891,-3.6338 -1.62577,-7.12922 -1.00781,-11.070307 2.21098,-5.63708 5.46063,-10.001034 10,-14 0.54785,-0.504023 1.0957,-1.008047 1.66016,-1.527344 4.70338,-4.227876 8.67498,-7.343711 15.21484,-7.660156 1.03125,0.06188 2.0625,0.12375 3.125,0.1875 -0.0812,-0.666445 -0.16242,-1.332891 -0.24609,-2.019531 -0.57889,-8.446989 1.82131,-13.573781 7.24609,-19.980469 17.17713,-17.089793 45.15292,-19.780067 63.875,-3.5 z"
     fill="#fdfdfd"
     id="path6" />
  <path
     d="m 604.52551,300.25041 c 6.86266,5.49013 10.04288,11.66085 11.8125,20.25 0,1.32 0,2.64 0,4 0.98226,-0.0696 0.98226,-0.0696 1.98437,-0.14063 8.13532,-0.32173 15.9736,0.76521 22.88282,5.39063 2.8816,2.86532 3.44403,5.68393 3.57031,9.5625 -0.44387,8.01368 -2.11659,16.29865 -6.4375,23.1875 -7.3359,2.4453 -16.00566,0.8658 -23.59766,0.19531 -1.4749,-0.12518 -1.4749,-0.12518 -2.9796,-0.25288 -2.08646,-0.17753 -4.17277,-0.3569 -6.25892,-0.53798 -3.27101,-0.28332 -6.54251,-0.56019 -9.81421,-0.83536 -8.55528,-0.72117 -17.10993,-1.44455 -25.6582,-2.24487 -19.186,-1.75281 -38.43832,-1.97117 -57.69141,-2.32422 0,1.32 0,2.64 0,4 -3.01489,-0.89632 -4.71802,-1.67913 -6.8125,-4.0625 -2.06292,-5.10301 -1.92072,-9.82412 -0.125,-15 7.29403,-11.0587 17.30714,-17.94454 29.9375,-21.9375 1.41535,-0.23716 2.83198,-0.46686 4.25,-0.6875 4.79031,-1.67661 5.56982,-3.71849 8.06641,-7.9336 3.01996,-4.26718 7.27875,-6.69303 11.68359,-9.3789 0.72187,-0.47438 1.44375,-0.94875 2.1875,-1.4375 13.43963,-8.30095 29.94636,-8.94518 43,0.1875 z"
     fill="#fdfdfc"
     id="path7" />
  <path
     d="m 552.27551,181.68791 c 5.03237,2.97834 7.2503,7.39244 9.0625,12.8125 0.26501,3.17367 0.26501,3.17367 0.28711,6.79053 0.007,0.66248 0.0137,1.32496 0.0207,2.00752 0.0135,1.43168 0.0226,2.86342 0.0277,4.29516 0.008,2.27083 0.0289,4.54126 0.0525,6.81197 0.0481,4.82321 0.0811,9.64647 0.11194,14.46982 0.0358,5.58512 0.0778,11.17005 0.13594,16.75499 0.0199,2.22837 0.0284,4.4566 0.0363,6.68504 0.013,1.37856 0.0265,2.75711 0.0407,4.13565 0.0109,1.79273 0.0109,1.79273 0.0221,3.62168 0.4091,5.29118 1.33849,10.63651 5.26502,14.42764 2.29548,1.18873 4.57227,2.08388 7,3 -0.33,2.97 -0.66,5.94 -1,9 -5.95606,3.09682 -10.90838,3.45929 -17.5625,3.375 -0.91975,0.0116 -1.83949,0.0232 -2.78711,0.0351 -6.18851,-0.0267 -10.79554,-0.66103 -15.44336,-5.13671 -7.68725,-10.46499 -8.29069,-21.56481 -8.76953,-34.21094 -0.0432,-1.06541 -0.0864,-2.13082 -0.13086,-3.22852 -0.10539,-2.61122 -0.20751,-5.22252 -0.30664,-7.83398 -0.0516,0.89203 -0.10313,1.78406 -0.15625,2.70312 -0.89965,9.28276 -0.89965,9.28276 -3.47656,12.05078 -4.69932,2.49709 -9.14428,2.61916 -14.36719,2.2461 -0.66,-1.32 -1.32,-2.64 -2,-4 -0.66,0 -1.32,0 -2,0 0,0.66 0,1.32 0,2 -2.8612,1.4306 -4.84011,1.38692 -8,1 -3.27947,-4.02087 -3.52417,-8.05139 -3.69531,-13.04688 -0.0378,-0.77063 -0.0756,-1.54127 -0.11448,-2.33526 -0.11795,-2.45556 -0.21728,-4.91143 -0.31521,-7.36786 -0.10884,-2.44184 -0.22158,-4.88346 -0.33664,-7.32501 -0.0701,-1.51474 -0.13614,-3.02967 -0.19708,-4.5448 -0.27035,-6.28417 -0.7491,-12.52697 -2.02878,-18.69269 -0.35175,-3.025 -0.11488,-4.25429 1.6875,-6.6875 0.99,-0.33 1.98,-0.66 3,-1 0.33,-0.66 0.66,-1.32 1,-2 0.86883,0.0812 1.73766,0.16242 2.63281,0.24609 6.4862,0.60536 6.4862,0.60536 12.32031,-1.6289 1.44768,-1.79045 1.44768,-1.79045 2.71485,-3.73047 7.66121,-10.85151 25.95123,-9.8018 37.26953,-5.69922 z"
     fill="#704b47"
     id="path8" />
  <path
     d="m 680.69738,122.58635 c 5.86238,4.24935 9.73752,11.03215 11.05469,18.15234 0.19531,1.92057 0.39063,3.84115 0.58594,5.76172 1.21687,0.37125 2.43375,0.7425 3.6875,1.125 4.60891,1.72425 6.57702,3.81322 9.3125,7.875 2.20013,6.87889 1.60253,15.31596 -1,22 -3.49348,5.89007 -6.27175,9.21068 -13,11 -2.74244,0.17373 -5.37788,0.25381 -8.1167,0.22705 -1.18637,4.4e-4 -1.18637,4.4e-4 -2.39671,8.8e-4 -2.59721,-0.001 -5.19412,-0.0169 -7.79128,-0.0326 -1.80746,-0.004 -3.61493,-0.007 -5.42239,-0.009 -4.74454,-0.008 -9.48895,-0.0273 -14.23343,-0.0494 -4.84648,-0.0205 -9.69298,-0.0296 -14.53949,-0.0397 -9.50006,-0.0214 -19.00002,-0.0555 -28.5,-0.0977 0,0.66 0,1.32 0,2 -5.3288,-1.82702 -8.82142,-4.08989 -11.8125,-8.9375 -2.4153,-6.57185 -2.2861,-13.7745 -0.0859,-20.35938 4.41425,-9.48945 9.69428,-14.41236 19.45313,-18.02343 3.32028,-0.9229 6.02412,-0.97719 9.44531,-0.67969 0.495,-1.17563 0.99,-2.35125 1.5,-3.5625 4.69093,-9.34883 14.73608,-15.20706 24.25,-18.75 10.15003,-3.09857 18.2265,-2.78425 27.60937,2.39844 z"
     fill="#fdfdfc"
     id="path9" />
  <path
     d="m 300.77551,317.31291 c 7.38535,6.30456 11.73684,12.44468 12.5625,22.1875 1.54687,-0.0619 1.54687,-0.0619 3.125,-0.125 5.13116,0.16552 8.37889,0.78638 12.25,4.25 2.11974,3.7503 2.4679,6.72763 1.625,10.875 -2.58279,6.8081 -7.23164,12.59221 -13,17 -3.5,1 -3.5,1 -6,1 0,-0.66 0,-1.32 0,-2 -25.52959,-0.5463 -25.52959,-0.5463 -50.94995,1.28857 -8.1704,1.00905 -16.34373,0.81401 -24.56275,0.63721 -1.05928,-0.0168 -2.11857,-0.0335 -3.20996,-0.0508 -1.41938,-0.0348 -1.41938,-0.0348 -2.86743,-0.0703 -2.67358,0.0203 -2.67358,0.0203 -5.40991,2.19531 -3.91593,-1.30531 -4.89496,-2.4432 -7,-6 -0.92239,-6.0156 -0.29444,-10.78381 3,-16 0.66,0 1.32,0 2,0 0,-0.99 0,-1.98 0,-3 1.64453,-1.75391 1.64453,-1.75391 3.8125,-3.5625 0.70769,-0.59942 1.41539,-1.19883 2.14453,-1.81641 3.97022,-3.15036 6.0055,-3.84498 11.04297,-3.62109 -0.0632,-0.88688 -0.12633,-1.77375 -0.19141,-2.6875 0.38846,-6.72267 5.78832,-12.29305 10.62891,-16.6875 14.99258,-11.80126 34.34526,-12.59409 51,-3.8125 z"
     fill="#fdfdfc"
     id="path10" />
  <path
     d="m 96.841912,169.3676 c 1.496094,1.13281 1.496094,1.13281 2.496094,4.13281 1.980454,0.6618 1.980454,0.6618 4.000004,1 1,1 1,1 1.3125,4.25 -0.35896,4.3075 -1.30362,5.74111 -4.3125,8.75 -0.990004,0.495 -0.990004,0.495 -2.000004,1 -0.721594,1.64363 -1.393514,3.3105 -2,5 -0.66,0 -1.32,0 -2,0 0,2.31 0,4.62 0,7 2.31,-0.33 4.62,-0.66 7.000004,-1 0.12375,-1.09313 0.2475,-2.18625 0.375,-3.3125 0.625,-3.6875 0.625,-3.6875 2.625,-6.6875 0.99,0 1.98,0 3,0 0,-0.66 0,-1.32 0,-2 3.63,-0.33 7.26,-0.66 11,-1 0,-0.99 0,-1.98 0,-3 0.66,0 1.32,0 2,0 0,0.66 0,1.32 0,2 1.11375,-0.0412 2.2275,-0.0825 3.375,-0.125 3.625,0.125 3.625,0.125 5.625,2.125 0,0.99 0,1.98 0,3 0.66,0 1.32,0 2,0 2.63365,7.90095 1.60505,18.18485 -1,26 -0.495,0.99 -0.495,0.99 -1,2 -8.18902,0.15448 -16.37811,0.30265 -24.56739,0.44296 -3.80336,0.0654 -7.606669,0.13282 -11.409909,0.20523 -3.676311,0.0699 -7.352682,0.13412 -11.029162,0.1945 -1.396514,0.0239 -2.792996,0.0498 -4.189434,0.0778 -7.371345,0.14657 -14.498231,0.11817 -21.804109,-0.92053 -0.380246,-16.3018 -0.429506,-31.44329 5,-47 0.66,0 1.32,0 2,0 0,-0.66 0,-1.32 0,-2 22.083746,-5.96927 22.083746,-5.96927 33.503906,-0.13281 z"
     fill="#fdfcfc"
     id="path11" />
  <path
     d="m 455.33801,188.50041 c 3.04221,-0.0813 6.08222,-0.14066 9.125,-0.1875 0.85594,-0.0251 1.71187,-0.0503 2.59375,-0.0762 5.2274,-0.0603 8.71406,0.41105 13.28125,3.26367 0.1029,6.67696 0.0179,13.27817 -0.5,19.9375 -0.90844,12.98677 -0.58259,26.05148 -0.5,39.0625 1.25812,-0.0309 2.51625,-0.0619 3.8125,-0.0937 3.864,-0.095 6.04169,0.73439 9.1875,3.09375 -0.34571,8.24504 -0.34571,8.24504 -2.625,10.875 -0.78375,0.37125 -1.5675,0.7425 -2.375,1.125 -0.99,0.55687 -1.98,1.11375 -3,1.6875 -8.27775,3.35346 -19.64059,1.75543 -28,-0.6875 -4.8109,-3.50795 -8.31506,-8.88517 -9.60278,-14.74121 -0.44724,-3.66915 -0.53393,-7.27289 -0.50269,-10.96192 0.004,-0.73559 0.007,-1.47118 0.0112,-2.22906 0.0628,-7.82498 0.29685,-15.64059 0.67412,-23.45648 0.0727,-1.59529 0.13531,-3.19106 0.18848,-4.78711 0.0792,-2.35447 0.1891,-4.70573 0.30591,-7.0586 0.0179,-0.70832 0.0359,-1.41664 0.0544,-2.14642 0.2309,-3.874 0.82187,-5.5584 3.30428,-8.60455 2.56714,-2.01465 2.56714,-2.01465 4.56714,-2.01465 0,-0.66 0,-1.32 0,-2 z"
     fill="#704b48"
     id="path12" />
  <path
     d="m 398.21301,49.000413 c 0.70125,0.825 1.4025,1.65 2.125,2.5 0.86625,0.99 1.7325,1.98 2.625,3 4.36964,5.519552 5.78681,9.059405 6.375,16 0.99,-0.495 0.99,-0.495 2,-1 5.02893,-0.424841 9.43165,-0.35786 14,2 0,0.66 0,1.32 0,2 0.61875,0.226875 1.2375,0.45375 1.875,0.6875 2.93787,1.814566 3.28474,2.951484 4.125,6.3125 1.09964,11.034965 -2.31425,19.341692 -9,27.999997 -0.78375,0.76312 -1.5675,1.52625 -2.375,2.3125 -2.08743,1.77726 -2.08743,1.77726 -1.625,5.6875 -5.6954,0.23621 -11.11126,-0.0783 -16.75,-0.9375 -25.98418,-3.92687 -53.23254,-2.79835 -79.25,0.375 -1.51388,0.18333 -1.51388,0.18333 -3.05835,0.37036 -4.90474,0.64007 -9.2447,1.60682 -13.94165,3.19214 -2.8125,-1 -2.8125,-1 -5,-3 -0.6875,-2.9375 -0.6875,-2.9375 -1,-6 -0.49113,-0.9552 -0.49113,-0.9552 -0.99219,-1.92969 -1.76891,-3.6338 -1.62577,-7.12922 -1.00781,-11.070307 2.21098,-5.63708 5.46063,-10.001034 10,-14 0.54785,-0.504023 1.0957,-1.008047 1.66016,-1.527344 4.70338,-4.227876 8.67498,-7.343711 15.21484,-7.660156 1.03125,0.06188 2.0625,0.12375 3.125,0.1875 -0.0812,-0.666445 -0.16242,-1.332891 -0.24609,-2.019531 -0.57889,-8.446989 1.82131,-13.573781 7.24609,-19.980469 17.17713,-17.089793 45.15292,-19.780067 63.875,-3.5 z m -40.875,-5.5 c 0,0.66 0,1.32 0,2 -1.97747,0.730803 -3.98073,1.394217 -6,2 -0.66,-0.33 -1.32,-0.66 -2,-1 -0.33,0.66 -0.66,1.32 -1,2 -1.33333,0.333333 -2.66667,0.666667 -4,1 -0.33,0.66 -0.66,1.32 -1,2 -0.66,0.33 -1.32,0.66 -2,1 -1.68817,1.644883 -3.35353,3.313375 -5,5 -0.59813,0.474375 -1.19625,0.94875 -1.8125,1.4375 -1.83193,2.410439 -1.38229,4.640607 -1.1875,7.5625 -0.66,0.33 -1.32,0.66 -2,1 0.33,0.66 0.66,1.32 1,2 -0.66,0.33 -1.32,0.66 -2,1 -0.33,0.99 -0.66,1.98 -1,3 0.66,0 1.32,0 2,0 0.33,0.99 0.66,1.98 1,3 0.825,0.33 1.65,0.66 2.5,1 0.825,0.33 1.65,0.66 2.5,1 1,3 1,3 0,6 -0.99,-0.495 -0.99,-0.495 -2,-1 -0.99,0.495 -0.99,0.495 -2,1 0,-0.66 0,-1.32 0,-2 -5.67989,-2.491181 -8.94474,-3.387663 -15,-2 0,0.66 0,1.32 0,2 -2.97,0.495 -2.97,0.495 -6,1 -0.0619,0.5775 -0.12375,1.155 -0.1875,1.75 -1.14219,3.162993 -3.14392,4.264083 -5.8125,6.25 -2.46517,1.848879 -3.78125,3.082614 -4.50391,6.113281 -0.50645,3.916956 -0.63196,7.071586 0.50391,10.886716 0.66,0 1.32,0 2,0 0,0.99 0,1.98 0,3 4.03619,0.69857 7.06457,1.12441 11,0 0.99,0.33 1.98,0.66 3,1 1.485,-0.495 1.485,-0.495 3,-1 0,-0.66 0,-1.32 0,-2 0.66,0 1.32,0 2,0 0,0.66 0,1.32 0,2 2.97,-0.495 2.97,-0.495 6,-1 0,-0.66 0,-1.32 0,-2 1.32,0 2.64,0 4,0 0,0.66 0,1.32 0,2 6.20541,-0.48321 11.99945,-1.33318 18,-3 0,0.66 0,1.32 0,2 4.58983,0.0496 9.1795,0.0858 13.76953,0.10986 1.5596,0.01 3.11918,0.0237 4.67871,0.041 2.24907,0.0244 4.49789,0.0356 6.74707,0.0444 1.0363,0.0155 1.0363,0.0155 2.09354,0.0313 4.28375,9.8e-4 7.72827,-0.66054 11.71115,-2.22659 0,0.66 0,1.32 0,2 1.98,0.33 3.96,0.66 6,1 0,-0.66 0,-1.32 0,-2 0.99,0 1.98,0 3,0 0,0.66 0,1.32 0,2 1.485,0.495 1.485,0.495 3,1 0,-0.66 0,-1.32 0,-2 0.66,0 1.32,0 2,0 0,0.66 0,1.32 0,2 3.98813,0.88334 3.98813,0.88334 8,1 2.37658,-2.28291 2.37658,-2.28291 4,-5 0.99,-0.33 1.98,-0.66 3,-1 0.34342,-1.33077 0.6762,-2.66432 1,-4 0.99,-0.66 1.98,-1.32 3,-2 0.25031,-2.583795 0.25031,-2.583795 0,-4.999997 0.66,-0.33 1.32,-0.66 2,-1 0,-1.32 0,-2.64 0,-4 0.66,-0.33 1.32,-0.66 2,-1 0,-0.66 0,-1.32 0,-2 0,-1.32 0,-2.64 0,-4 -0.66,0 -1.32,0 -2,0 0.33,-0.99 0.66,-1.98 1,-3 -0.66,-0.99 -1.32,-1.98 -2,-3 -0.33,-0.99 -0.66,-1.98 -1,-3 -3.96,-0.33 -7.92,-0.66 -12,-1 -0.66,1.32 -1.32,2.64 -2,4 0.66,0 1.32,0 2,0 0,0.99 0,1.98 0,3 -0.66,0 -1.32,0 -2,0 -0.33,2.64 -0.66,5.28 -1,8 -1.32,0 -2.64,0 -4,0 0,-0.66 0,-1.32 0,-2 0.66,-0.33 1.32,-0.66 2,-1 -0.66,0 -1.32,0 -2,0 0.33,-0.70125 0.66,-1.4025 1,-2.125 1.09044,-3.135031 1.15323,-5.580632 1,-8.875 -0.66,0 -1.32,0 -2,0 0,-0.99 0,-1.98 0,-3 0.99,-0.495 0.99,-0.495 2,-1 -0.495,-0.928125 -0.495,-0.928125 -1,-1.875 -1,-2.125 -1,-2.125 -1,-4.125 -0.66,0 -1.32,0 -2,0 -2,-4.75 -2,-4.75 -2,-7 -0.63938,-0.28875 -1.27875,-0.5775 -1.9375,-0.875 -2.0625,-1.125 -2.0625,-1.125 -3.0625,-3.125 -0.66,0 -1.32,0 -2,0 -0.0735,-0.623906 -0.14695,-1.247812 -0.22266,-1.890625 -0.57543,-2.28784 -0.57543,-2.28784 -2.77343,-3.15625 -0.80567,-0.232031 -1.61133,-0.464062 -2.44141,-0.703125 -0.80309,-0.242344 -1.60617,-0.484687 -2.43359,-0.734375 -2.0878,-0.59409 -2.0878,-0.59409 -4.12891,-0.515625 -0.495,-0.99 -0.495,-0.99 -1,-2 -3.76952,-1.024324 -7.6156,-1.30735 -11.5,-1.625 -1.10344,-0.09539 -2.20688,-0.190781 -3.34375,-0.289062 -2.92965,-0.07977 -5.32541,0.206351 -8.15625,0.914062 z"
     fill="#eed1b9"
     id="path13" />
  <path
     d="m 604.52551,300.25041 c 6.86266,5.49013 10.04288,11.66085 11.8125,20.25 0,1.32 0,2.64 0,4 0.98226,-0.0696 0.98226,-0.0696 1.98437,-0.14063 8.13532,-0.32173 15.9736,0.76521 22.88282,5.39063 2.8816,2.86532 3.44403,5.68393 3.57031,9.5625 -0.44387,8.01368 -2.11659,16.29865 -6.4375,23.1875 -7.3359,2.4453 -16.00566,0.8658 -23.59766,0.19531 -1.4749,-0.12518 -1.4749,-0.12518 -2.9796,-0.25288 -2.08646,-0.17753 -4.17277,-0.3569 -6.25892,-0.53798 -3.27101,-0.28332 -6.54251,-0.56019 -9.81421,-0.83536 -8.55528,-0.72117 -17.10993,-1.44455 -25.6582,-2.24487 -19.186,-1.75281 -38.43832,-1.97117 -57.69141,-2.32422 0,1.32 0,2.64 0,4 -3.01489,-0.89632 -4.71802,-1.67913 -6.8125,-4.0625 -2.06292,-5.10301 -1.92072,-9.82412 -0.125,-15 7.29403,-11.0587 17.30714,-17.94454 29.9375,-21.9375 1.41535,-0.23716 2.83198,-0.46686 4.25,-0.6875 4.79031,-1.67661 5.56982,-3.71849 8.06641,-7.9336 3.01996,-4.26718 7.27875,-6.69303 11.68359,-9.3789 0.72187,-0.47438 1.44375,-0.94875 2.1875,-1.4375 13.43963,-8.30095 29.94636,-8.94518 43,0.1875 z m -34.1875,0.25 c 0,0.66 0,1.32 0,2 -0.9075,-0.0825 -1.815,-0.165 -2.75,-0.25 -3.31629,-0.0667 -3.31629,-0.0667 -5.4375,2.125 -0.59813,0.70125 -1.19625,1.4025 -1.8125,2.125 -3,2 -3,2 -5,3 -0.825,0.825 -1.65,1.65 -2.5,2.5 -2.5,2.5 -2.5,2.5 -4.5,3.5 0.495,2.97 0.495,2.97 1,6 0.99,0 1.98,0 3,0 2.92427,2.40822 4.45926,4.21479 5,8 -0.99,0 -1.98,0 -3,0 0,-0.66 0,-1.32 0,-2 -0.66,0 -1.32,0 -2,0 0,-0.66 0,-1.32 0,-2 -3.15337,-0.70075 -5.72725,-1 -9,-1 -0.66,0 -1.32,0 -2,0 0,-0.66 0,-1.32 0,-2 -0.99,0.33 -1.98,0.66 -3,1 0,0.66 0,1.32 0,2 -0.99,-0.33 -1.98,-0.66 -3,-1 0,0.66 0,1.32 0,2 -1.14469,-0.34031 -1.14469,-0.34031 -2.3125,-0.6875 -0.88688,-0.10313 -1.77375,-0.20625 -2.6875,-0.3125 -1.66667,1.33333 -1.66667,1.33333 -3,3 -0.99,0.33 -1.98,0.66 -3,1 0,0.66 0,1.32 0,2 -1.65,0 -3.3,0 -5,0 -0.33,0.99 -0.66,1.98 -1,3 -0.84563,0.495 -1.69125,0.99 -2.5625,1.5 -0.80438,0.495 -1.60875,0.99 -2.4375,1.5 0,0.99 0,1.98 0,3 -0.99,0 -1.98,0 -3,0 -0.79561,2.915 -1.25323,5.74561 -1.5625,8.75 -0.0838,0.79922 -0.16758,1.59844 -0.25391,2.42187 -0.0606,0.60328 -0.12117,1.20657 -0.18359,1.82813 0.66,0 1.32,0 2,0 0,0.66 0,1.32 0,2 1.98,-0.495 1.98,-0.495 4,-1 0,-0.66 0,-1.32 0,-2 0.92812,0.27844 0.92812,0.27844 1.875,0.5625 2.1666,0.67436 2.1666,0.67436 4.125,-0.5625 1.76874,-0.0968 3.54111,-0.13076 5.3125,-0.13281 1.07637,-10e-4 2.15273,-0.003 3.26172,-0.004 1.13051,0.004 2.26101,0.008 3.42578,0.0117 1.09957,-0.004 2.19914,-0.008 3.33203,-0.0117 6.62714,0.008 13.088,0.38406 19.66797,1.13672 2.37426,0.19664 4.74919,0.38558 7.125,0.5625 1.11633,0.0838 2.23266,0.16758 3.38281,0.2539 0.82242,0.0606 1.64485,0.12118 2.49219,0.1836 0,-0.66 0,-1.32 0,-2 1.32,0 2.64,0 4,0 0,0.66 0,1.32 0,2 1.98,0.33 3.96,0.66 6,1 0,-0.66 0,-1.32 0,-2 0.99,0 1.98,0 3,0 0,0.66 0,1.32 0,2 1.98,0.33 3.96,0.66 6,1 0,-0.66 0,-1.32 0,-2 0.99,0 1.98,0 3,0 0,0.66 0,1.32 0,2 0.60328,-0.0116 1.20656,-0.0232 1.82812,-0.0352 1.19883,-0.0135 1.19883,-0.0135 2.42188,-0.0273 0.78891,-0.0116 1.57781,-0.0232 2.39062,-0.0352 2.28892,0.0947 4.15209,0.52037 6.35938,1.09766 1.74691,0.21439 3.4974,0.40107 5.25,0.5625 0.89203,0.0838 1.78406,0.16758 2.70312,0.2539 0.67547,0.0606 1.35094,0.12118 2.04688,0.1836 0,-0.66 0,-1.32 0,-2 1.32,0 2.64,0 4,0 0,0.66 0,1.32 0,2 2.33774,0.39791 4.64599,0.72888 7,1 1.13502,0.13728 1.13502,0.13728 2.29297,0.27734 4.45448,0.32321 4.45448,0.32321 8.42578,-1.4414 1.66633,-1.68888 1.66633,-1.68888 3.28125,-4.83594 -0.0407,-2.80485 -0.0407,-2.80485 -1,-5 0.66,-0.33 1.32,-0.66 2,-1 1.37334,-3.57069 1.27426,-7.22892 1,-11 -1.39586,-1.81476 -1.39586,-1.81476 -3,-3 0,-0.66 0,-1.32 0,-2 -5.16045,-1.51255 -8.65998,-2.33501 -14,-1 0,-0.66 0,-1.32 0,-2 -2.64,0 -5.28,0 -8,0 -0.12955,0.93972 -0.12955,0.93972 -0.26172,1.89844 -0.42455,2.46939 -0.88101,4.74513 -1.73828,7.10156 -2.625,1.5625 -2.625,1.5625 -5,2 0,-1.98 0,-3.96 0,-6 0.66,-0.33 1.32,-0.66 2,-1 -0.33,-0.66 -0.66,-1.32 -1,-2 0.99,-0.33 1.98,-0.66 3,-1 0,-0.66 0,-1.32 0,-2 -0.66,0 -1.32,0 -2,0 0.33,-2.64 0.66,-5.28 1,-8 -0.66,0 -1.32,0 -2,0 0.495,-1.485 0.495,-1.485 1,-3 -0.87915,-2.65692 -0.87915,-2.65692 -2,-5 -0.66,0 -1.32,0 -2,0 0,-0.66 0,-1.32 0,-2 -0.66,0 -1.32,0 -2,0 -0.99,-1.98 -0.99,-1.98 -2,-4 -0.66,0 -1.32,0 -2,0 -0.495,-1.98 -0.495,-1.98 -1,-4 -1.05188,-0.15469 -1.05188,-0.15469 -2.125,-0.3125 -2.875,-0.6875 -2.875,-0.6875 -5.75,-2.25 -6.40865,-2.94798 -14.85595,-1.57203 -21.125,1.5625 z"
     fill="#eed0b8"
     id="path14" />
  <path
     d="m 626.96301,232.56291 c 0.91523,0.0406 1.83047,0.0812 2.77344,0.12304 6.1208,0.36708 11.02922,1.13966 15.46484,5.75196 0.47824,0.68062 0.95648,1.36125 1.44922,2.0625 0.7367,1.02094 0.7367,1.02094 1.48828,2.0625 2.811,4.54155 2.77761,9.07493 1.73828,14.21875 -1.62173,5.72376 -3.57311,8.44122 -8.53906,11.71875 -5.66998,2.66791 -11.1447,2.48045 -17.3125,2.5625 -1.10279,0.0496 -2.20559,0.0993 -3.3418,0.15039 -5.81565,0.0729 -9.54026,-0.21842 -14.07617,-4.06055 -4.09092,-4.04707 -4.50243,-7.56652 -4.70703,-13.21484 0.0651,-6.98973 1.3887,-12.40754 6.4375,-17.4375 6.02063,-4.28873 11.4412,-4.47323 18.625,-3.9375 z"
     fill="#704b48"
     id="path15" />
  <path
     d="m 680.69738,122.58635 c 5.86238,4.24935 9.73752,11.03215 11.05469,18.15234 0.19531,1.92057 0.39063,3.84115 0.58594,5.76172 1.21687,0.37125 2.43375,0.7425 3.6875,1.125 4.60891,1.72425 6.57702,3.81322 9.3125,7.875 2.20013,6.87889 1.60253,15.31596 -1,22 -3.49348,5.89007 -6.27175,9.21068 -13,11 -2.74244,0.17373 -5.37788,0.25381 -8.1167,0.22705 -1.18637,4.4e-4 -1.18637,4.4e-4 -2.39671,8.8e-4 -2.59721,-0.001 -5.19412,-0.0169 -7.79128,-0.0326 -1.80746,-0.004 -3.61493,-0.007 -5.42239,-0.009 -4.74454,-0.008 -9.48895,-0.0273 -14.23343,-0.0494 -4.84648,-0.0205 -9.69298,-0.0296 -14.53949,-0.0397 -9.50006,-0.0214 -19.00002,-0.0555 -28.5,-0.0977 0,0.66 0,1.32 0,2 -5.3288,-1.82702 -8.82142,-4.08989 -11.8125,-8.9375 -2.4153,-6.57185 -2.2861,-13.7745 -0.0859,-20.35938 4.41425,-9.48945 9.69428,-14.41236 19.45313,-18.02343 3.32028,-0.9229 6.02412,-0.97719 9.44531,-0.67969 0.495,-1.17563 0.99,-2.35125 1.5,-3.5625 4.69093,-9.34883 14.73608,-15.20706 24.25,-18.75 10.15003,-3.09857 18.2265,-2.78425 27.60937,2.39844 z m -22.35937,0.91406 c 0,0.66 0,1.32 0,2 -2.475,-0.495 -2.475,-0.495 -5,-1 0,0.66 0,1.32 0,2 -2.31,0.66 -4.62,1.32 -7,2 0,0.66 0,1.32 0,2 -1.42313,0.12375 -1.42313,0.12375 -2.875,0.25 -3.17773,0.3947 -3.17773,0.3947 -4.375,2.5625 -0.2475,0.72187 -0.495,1.44375 -0.75,2.1875 -0.66667,1.33333 -1.33333,2.66666 -2,4 -0.99,0 -1.98,0 -3,0 -1.79081,1.12359 -1.79081,1.12359 -3,3 -0.2507,2.62571 -0.2507,2.62571 0,5 0.99,-0.33 1.98,-0.66 3,-1 -0.11459,1.43837 -0.24209,2.87571 -0.375,4.3125 -0.0696,0.80051 -0.13922,1.60101 -0.21094,2.42578 -0.41406,2.26172 -0.41406,2.26172 -2.41406,5.26172 0,-1.32 0,-2.64 0,-4 -0.66,0 -1.32,0 -2,0 0.33,-1.32 0.66,-2.64 1,-4 -1.65,-1.32 -3.3,-2.64 -5,-4 0,0.66 0,1.32 0,2 -0.66,0 -1.32,0 -2,0 0,-0.66 0,-1.32 0,-2 -2.31,0.66 -4.62,1.32 -7,2 0,0.66 0,1.32 0,2 -0.66,0 -1.32,0 -2,0 0,0.66 0,1.32 0,2 -1.65,0.33 -3.3,0.66 -5,1 -0.33,1.32 -0.66,2.64 -1,4 -0.66,0 -1.32,0 -2,0 0,0.99 0,1.98 0,3 -0.71736,0.68062 -0.71736,0.68062 -1.44922,1.375 -2.06255,2.16126 -2.10487,3.68175 -2.36328,6.625 -0.0889,0.86625 -0.17789,1.7325 -0.26953,2.625 -0.11693,2.64602 -0.11693,2.64602 2.08203,5.375 -0.99,0.495 -0.99,0.495 -2,1 0.495,0.45375 0.99,0.9075 1.5,1.375 1.5,1.625 1.5,1.625 1.5,3.625 0.99,0 1.98,0 3,0 0.33,0.66 0.66,1.32 1,2 0,-0.66 0,-1.32 0,-2 0.66,0 1.32,0 2,0 0,0.66 0,1.32 0,2 25.41,0 50.82,0 77,0 0,-0.66 0,-1.32 0,-2 1.05187,-0.0619 2.10375,-0.12375 3.1875,-0.1875 4.49684,-0.95834 6.04092,-2.20105 8.8125,-5.8125 0,-1.32 0,-2.64 0,-4 0.66,-0.33 1.32,-0.66 2,-1 0.65555,-2.52733 0.65555,-2.52733 1,-5 -0.66,0 -1.32,0 -2,0 0.33,-2.97 0.66,-5.94 1,-9 -0.66,0 -1.32,0 -2,0 -0.495,-1.98 -0.495,-1.98 -1,-4 -1.32,-0.33 -2.64,-0.66 -4,-1 -0.495,1.485 -0.495,1.485 -1,3 -0.66,0 -1.32,0 -2,0 -0.0735,1.06541 -0.0735,1.06541 -0.14844,2.15234 -0.0748,0.9191 -0.14953,1.8382 -0.22656,2.78516 -0.10442,1.37478 -0.10442,1.37478 -0.21094,2.77734 -0.20496,1.13115 -0.20496,1.13115 -0.41406,2.28516 -0.99,0.495 -0.99,0.495 -2,1 0,0.99 0,1.98 0,3 -2.19956,2.19955 -4.5722,4.05775 -7,6 -0.99,0.99 -0.99,0.99 -2,2 0,-1.32 0,-2.64 0,-4 0.66,0 1.32,0 2,0 0.33,-1.65 0.66,-3.3 1,-5 0.66,0 1.32,0 2,0 -0.495,-1.98 -0.495,-1.98 -1,-4 0.66,0 1.32,0 2,0 1.84533,-5.4706 2.25309,-10.1882 2.125,-15.9375 -0.009,-0.77924 -0.018,-1.55848 -0.0273,-2.36133 -0.0233,-1.90053 -0.0592,-3.80089 -0.0977,-5.70117 -0.66,0 -1.32,0 -2,0 0,-1.65 0,-3.3 0,-5 -0.66,0 -1.32,0 -2,0 0,-1.32 0,-2.64 0,-4 -2.33333,-2.66667 -2.33333,-2.66667 -5,-5 -0.99,-0.99 -0.99,-0.99 -2,-2 -2.6932,-0.30763 -5.29863,-0.51166 -8,-0.625 -0.73734,-0.0387 -1.47469,-0.0774 -2.23438,-0.11719 -2.58905,-0.13229 -5.17275,-0.25781 -7.76562,-0.25781 z"
     fill="#edd0b8"
     id="path16" />
  <path
     d="m 462.33801,133.50041 c 1.0725,0.003 2.145,0.005 3.25,0.008 5.81922,0.0943 9.82506,0.39385 14.3125,4.30469 1.16092,1.21492 2.30893,2.44246 3.4375,3.6875 0.825,0.61875 1.65,1.2375 2.5,1.875 2.48555,3.52119 2.1632,6.97335 1.5,11.125 -1.59424,5.09179 -3.66146,9.71322 -8,13 -5.44259,2.5485 -10.46342,2.36755 -16.375,2.375 -1.01578,0.0245 -2.03156,0.049 -3.07813,0.0742 -7.82205,0.0305 -12.20936,-1.28286 -17.98437,-6.76172 -2.14964,-3.69739 -2.17222,-5.41946 -1.5625,-9.6875 3.82374,-12.28335 8.19727,-21.57198 22,-20 z"
     fill="#714b48"
     id="path17" />
  <path
     d="m 300.77551,317.31291 c 7.38535,6.30456 11.73684,12.44468 12.5625,22.1875 1.54687,-0.0619 1.54687,-0.0619 3.125,-0.125 5.13116,0.16552 8.37889,0.78638 12.25,4.25 2.11974,3.7503 2.4679,6.72763 1.625,10.875 -2.58279,6.8081 -7.23164,12.59221 -13,17 -3.5,1 -3.5,1 -6,1 0,-0.66 0,-1.32 0,-2 -25.52959,-0.5463 -25.52959,-0.5463 -50.94995,1.28857 -8.1704,1.00905 -16.34373,0.81401 -24.56275,0.63721 -1.05928,-0.0168 -2.11857,-0.0335 -3.20996,-0.0508 -1.41938,-0.0348 -1.41938,-0.0348 -2.86743,-0.0703 -2.67358,0.0203 -2.67358,0.0203 -5.40991,2.19531 -3.91593,-1.30531 -4.89496,-2.4432 -7,-6 -0.92239,-6.0156 -0.29444,-10.78381 3,-16 0.66,0 1.32,0 2,0 0,-0.99 0,-1.98 0,-3 1.64453,-1.75391 1.64453,-1.75391 3.8125,-3.5625 0.70769,-0.59942 1.41539,-1.19883 2.14453,-1.81641 3.97022,-3.15036 6.0055,-3.84498 11.04297,-3.62109 -0.0632,-0.88688 -0.12633,-1.77375 -0.19141,-2.6875 0.38846,-6.72267 5.78832,-12.29305 10.62891,-16.6875 14.99258,-11.80126 34.34526,-12.59409 51,-3.8125 z m -32.4375,0.1875 c -1.2375,0.33 -2.475,0.66 -3.75,1 -3.29982,0.73789 -3.29982,0.73789 -5.25,3 -0.61875,0.14437 -1.2375,0.28875 -1.875,0.4375 -3.97203,1.05142 -5.88605,3.20407 -8.125,6.5625 -0.99,0.495 -0.99,0.495 -2,1 -0.65773,3.02934 -0.65773,3.02934 -1,6 -0.99,0 -1.98,0 -3,0 0,1.65 0,3.3 0,5 -0.66,0 -1.32,0 -2,0 0,1.98 0,3.96 0,6 -0.99,0.33 -1.98,0.66 -3,1 0,-0.66 0,-1.32 0,-2 -1.65,0.33 -3.3,0.66 -5,1 0,0.66 0,1.32 0,2 -0.99,0 -1.98,0 -3,0 -0.99,2.475 -0.99,2.475 -2,5 -0.99,0 -1.98,0 -3,0 0,0.66 0,1.32 0,2 -0.66,0 -1.32,0 -2,0 -2.09351,3.40195 -2.17942,6.05272 -2,10 0.66,0 1.32,0 2,0 0,0.99 0,1.98 0,3 0.65597,0 1.31194,0 1.98779,0 7.3374,0 14.67481,0 22.01221,0 2.11812,-0.20955 4.23513,-0.43033 6.35156,-0.65625 19.38795,-2.01396 38.79107,-3.87643 58.2273,-1.3584 2.75071,0.0166 4.13673,-0.48469 6.42114,-1.98535 1.1335,-2.0167 1.1335,-2.0167 2,-4 0.66,-0.33 1.32,-0.66 2,-1 0,-0.99 0,-1.98 0,-3 0.66,0 1.32,0 2,0 1.14353,-2.28706 1.10334,-3.59265 1.0625,-6.125 -0.0206,-1.27875 -0.0412,-2.5575 -0.0625,-3.875 -6.62544,-3.21233 -12.18872,-2.14429 -19,0 -1.66246,0.35371 -3.32774,0.69595 -5,1 -0.33,0.99 -0.66,1.98 -1,3 -1.32,0 -2.64,0 -4,0 -0.33,-0.66 -0.66,-1.32 -1,-2 1.65,-0.66 3.3,-1.32 5,-2 0,-0.66 0,-1.32 0,-2 0.7425,-0.12375 1.485,-0.2475 2.25,-0.375 2.55141,-0.57987 4.47676,-1.36209 6.75,-2.625 -0.43174,-5.09449 -0.754,-8.84512 -4,-13 -0.66,0 -1.32,0 -2,0 0,-1.32 0,-2.64 0,-4 -0.95906,-0.15469 -0.95906,-0.15469 -1.9375,-0.3125 -0.68063,-0.22688 -1.36125,-0.45375 -2.0625,-0.6875 -0.495,-1.485 -0.495,-1.485 -1,-3 -2.15002,-1.21489 -2.15002,-1.21489 -4.75,-2.125 -0.86109,-0.33258 -1.72219,-0.66516 -2.60938,-1.00781 -7.71328,-2.53306 -15.03287,-2.84414 -22.64062,0.13281 z"
     fill="#f2d3ba"
     id="path18" />
  <path
     d="m 328.2716,209.34806 c 1.73444,0.10635 1.73444,0.10635 3.50391,0.21485 1.15371,0.0529 2.30742,0.1057 3.49609,0.16015 3.06641,0.77735 3.06641,0.77735 4.9336,3.16407 1.29215,2.98087 1.82117,5.37222 2.13281,8.61328 0.0761,0.68191 0.15211,1.36383 0.23047,2.0664 0.41325,6.4221 -1.33447,10.8499 -5.23047,15.9336 -4.75521,4.92719 -10.13862,10.29076 -17.0625,11.5625 -2.9375,-0.5625 -2.9375,-0.5625 -5.3125,-2.875 -3.67925,-6.61646 -1.92386,-14.40115 0,-21.3125 2.01104,-6.02594 6.00539,-17.14809 13.30859,-17.52735 z"
     fill="#c69e83"
     id="path19" />
  <path
     d="m 508.33801,251.50041 c 0.165,0.63937 0.33,1.27875 0.5,1.9375 1.28178,2.22369 1.28178,2.22369 3.41406,2.55078 2.02169,0.23932 4.05436,0.38065 6.08594,0.51172 0,0.33 0,0.66 0,1 -5.61,0 -11.22,0 -17,0 -0.33,-0.66 -0.66,-1.32 -1,-2 1.98,-0.33 3.96,-0.66 6,-1 0,-0.66 0,-1.32 0,-2 0.66,-0.33 1.32,-0.66 2,-1 z"
     fill="#ad8672"
     id="path21" />
  <path
     d="m 237.33801,291.50041 c -7.3238,4.9356 -14.30536,5.2288 -23,5 0,-0.33 0,-0.66 0,-1 0.77344,-0.10957 1.54687,-0.21914 2.34375,-0.33203 4.92441,-0.74963 9.58874,-1.46885 14.21875,-3.35547 3.4375,-1.3125 3.4375,-1.3125 6.4375,-0.3125 z"
     fill="#b08973"
     id="path22" />
  <path
     d="m 308.33801,345.50041 c -2,2 -2,2 -4.4375,2.4375 -2.89174,0.63477 -3.57897,1.48881 -5.5625,3.5625 -0.99,0 -1.98,0 -3,0 0,-0.99 0,-1.98 0,-3 1.65,-0.66 3.3,-1.32 5,-2 0,-0.66 0,-1.32 0,-2 3.62327,-1.20776 4.64146,-0.54311 8,1 z"
     fill="#f2dac7"
     id="path23" />
  <path
     d="m 396.33801,192.50041 c 0,3 0,3 -2.625,5.91797 -1.1175,1.09754 -2.24286,2.18711 -3.375,3.26953 -0.57234,0.55881 -1.14469,1.11762 -1.73438,1.69336 -1.41525,1.37987 -2.83959,2.75041 -4.26562,4.11914 -0.66,-0.33 -1.32,-0.66 -2,-1 4.32893,-5.18419 8.76565,-9.72706 14,-14 z"
     fill="#815c53"
     id="path24" />
  <path
     d="m 404.33801,222.50041 c 0.66,0 1.32,0 2,0 -0.11459,1.43837 -0.24209,2.87571 -0.375,4.3125 -0.0696,0.80051 -0.13922,1.60101 -0.21094,2.42578 -0.41406,2.26172 -0.41406,2.26172 -2.41406,5.26172 -0.66,0 -1.32,0 -2,0 0.59924,-4.1947 1.575,-8.01 3,-12 z"
     fill="#a9826f"
     id="path25" />
  <path
     d="m 98.338006,161.50041 c 1.65,0 3.300004,0 5.000004,0 0,0.99 0,1.98 0,3 0.66,0 1.32,0 2,0 0,0.99 0,1.98 0,3 -3.37463,-0.54724 -5.08235,-1.0549 -8.000004,-3 0.33,-0.99 0.66,-1.98 1,-3 z"
     fill="#e4c3a9"
     id="path26" />
  <path
     d="m 360.08801,359.37541 c 0.69738,0.009 1.39476,0.018 2.11328,0.0273 1.71239,0.0235 3.4246,0.0593 5.13672,0.0977 0.33,0.66 0.66,1.32 1,2 -1.03641,-0.0348 -2.07281,-0.0696 -3.14063,-0.10547 -1.36977,-0.0281 -2.73956,-0.0555 -4.10937,-0.082 -0.68192,-0.0251 -1.36383,-0.0503 -2.06641,-0.0762 -4.28992,-0.0625 -6.5044,0.37968 -9.68359,3.26367 -0.66,0 -1.32,0 -2,0 1,-3 1,-3 2.57812,-4.17969 3.38439,-1.14632 6.64583,-1.03196 10.17188,-0.94531 z"
     fill="#916b5e"
     id="path27" />
  <path
     d="m 110.33801,172.50041 c 0.99,0 1.98,0 3,0 0,0.66 0,1.32 0,2 1.65,0 3.3,0 5,0 -0.33,0.99 -0.66,1.98 -1,3 0,-0.66 0,-1.32 0,-2 -1.32,0.33 -2.64,0.66 -4,1 0.33,0.99 0.66,1.98 1,3 -0.66,0 -1.32,0 -2,0 -2,-4.75 -2,-4.75 -2,-7 z"
     fill="#dcbba1"
     id="path28" />
  <path
     d="m 206.33801,99.500415 c 0.33,0.659995 0.66,1.319995 1,1.999995 -0.99,0 -1.98,0 -3,0 -1.96302,3.50538 -2.95903,7.13352 -4,11 -0.33,0 -0.66,0 -1,0 0,-2.64 0,-5.28 0,-8 0.66,0 1.32,0 2,0 0.26812,-0.63938 0.53625,-1.27875 0.8125,-1.9375 1.1875,-2.0625 1.1875,-2.0625 4.1875,-3.062495 z"
     fill="#8e685c"
     id="path29" />
  <path
     d="m 343.33801,265.50041 c -7.05471,4.07877 -7.05471,4.07877 -11,3.75 -0.66,-0.2475 -1.32,-0.495 -2,-0.75 8.42275,-4.36736 8.42275,-4.36736 13,-3 z"
     fill="#b08974"
     id="path30" />
  <path
     d="m 135.33801,182.50041 c 0.99,0.66 1.98,1.32 3,2 0,0.99 0,1.98 0,3 0.66,0.33 1.32,0.66 2,1 -1.32,0.33 -2.64,0.66 -4,1 -0.99,-1.65 -1.98,-3.3 -3,-5 0.66,0 1.32,0 2,0 0,-0.66 0,-1.32 0,-2 z"
     fill="#d9b89e"
     id="path31" />
  <path
     d="m 137.33801,188.50041 c 1.32,0 2.64,0 4,0 0,1.98 0,3.96 0,6 -1.32,-0.33 -2.64,-0.66 -4,-1 0,-1.65 0,-3.3 0,-5 z"
     fill="#e6c4aa"
     id="path32" />
  <path
     d="m 629.33801,150.50041 c 0.33,0.99 0.66,1.98 1,3 0.66,0 1.32,0 2,0 0.33,0.99 0.66,1.98 1,3 -0.99,0.99 -1.98,1.98 -3,3 -0.33,-0.66 -0.66,-1.32 -1,-2 0.33,-0.99 0.66,-1.98 1,-3 -0.66,0 -1.32,0 -2,0 0.33,-1.32 0.66,-2.64 1,-4 z"
     fill="#e3cdbc"
     id="path33" />
  <path
     d="m 1859,213 c 0.99,0 1.98,0 3,0 0,0.66 0,1.32 0,2 -0.99,0 -1.98,0 -3,0 0,-0.66 0,-1.32 0,-2 z"
     fill="#cc9d85"
     id="path35" />
</svg>
