<?xml version="1.0" encoding="UTF-8" standalone="no"?>
<svg
   version="1.1"
   id="Layer_1"
   x="0px"
   y="0px"
   width="785"
   viewBox="0 0 785 475"
   enable-background="new 0 0 1920 1334"
   xml:space="preserve"
   sodipodi:docname="file.svg"
   height="475"
   inkscape:export-filename="file.svg"
   inkscape:export-xdpi="96"
   inkscape:export-ydpi="96"
   inkscape:version="1.4.2 (f4327f4, 2025-05-13)"
   xmlns:inkscape="http://www.inkscape.org/namespaces/inkscape"
   xmlns:sodipodi="http://sodipodi.sourceforge.net/DTD/sodipodi-0.dtd"
   xmlns="http://www.w3.org/2000/svg"
   xmlns:svg="http://www.w3.org/2000/svg"><defs
   id="defs113" /><sodipodi:namedview
   id="namedview113"
   pagecolor="#ffffff"
   bordercolor="#000000"
   borderopacity="0.25"
   inkscape:showpageshadow="2"
   inkscape:pageopacity="0.0"
   inkscape:pagecheckerboard="0"
   inkscape:deskcolor="#d1d1d1"
   inkscape:zoom="0.22732384"
   inkscape:cx="-1073.3586"
   inkscape:cy="956.78483"
   inkscape:window-width="2560"
   inkscape:window-height="1494"
   inkscape:window-x="-11"
   inkscape:window-y="-11"
   inkscape:window-maximized="1"
   inkscape:current-layer="Layer_1" />

<path
   fill="#afc6cf"
   opacity="1"
   stroke="none"
   d="m 603.14515,43.771068 c 12.58985,4.948311 24.91541,9.47274 37.00513,14.55764 21.92957,9.223358 41.92505,21.817352 59.75098,37.455979 16.62659,14.586473 30.47607,31.619403 41.4884,51.009733 8.24866,14.5239 15.08887,29.51143 19.78491,45.5244 3.3877,11.55219 3.25647,23.38107 3.75599,35.25842 1.10046,26.16352 -6.99341,49.70697 -19.30884,72.10694 -5.87464,10.68527 -11.53504,21.75879 -19.14746,31.15329 -10.776,13.29849 -22.33069,26.18658 -36.81055,35.85263 -10.35205,6.91049 -20.36572,14.44317 -31.21545,20.46393 -14.33606,7.95541 -29.29065,14.79733 -45.1698,19.35717 -13.7511,3.94873 -27.29993,8.6958 -41.19129,12.0376 -14.83447,3.56873 -29.89209,6.401 -44.98889,8.63205 -13.87659,2.05063 -27.91321,3.17972 -41.91834,4.15512 -14.859,1.03491 -29.75805,1.64874 -44.65014,2.01825 -22.27112,0.55261 -44.55286,1.06439 -66.82703,0.95508 -15.71203,-0.0771 -31.44995,-0.802 -47.11902,-1.99249 -15.58349,-1.18402 -31.10327,-3.24482 -46.63586,-5.05048 -8.62671,-1.00287 -17.219,-2.2995 -25.83362,-3.41043 -11.64929,-1.50226 -23.34033,-2.72757 -34.94287,-4.52655 -5.38513,-0.83493 -10.53955,-3.08167 -15.91016,-4.10043 -15.52148,-2.94449 -30.39416,-7.92826 -45.18896,-13.33802 -18.75006,-6.85595 -36.57099,-15.66177 -52.85681,-27.0328 C 94.884718,367.64505 85.393568,358.96115 76.593458,349.90015 67.903883,340.95304 59.963637,331.12067 52.764479,320.92154 42.556776,306.46051 36.033705,290.2045 31.645704,272.97464 28.715773,261.47025 27.779249,249.8881 27.845778,238.17579 c 0.08301,-14.62366 -0.216919,-29.32914 1.249817,-43.83738 0.976928,-9.66311 4.338684,-19.1795 7.412048,-28.50483 2.236877,-6.78727 5.376831,-13.35311 8.762024,-19.67054 8.17572,-15.25726 17.864807,-29.46112 30.744568,-41.25117 7.73352,-7.079195 15.023254,-14.728807 23.292114,-21.112001 7.261351,-5.605515 15.490351,-10.01268 23.510801,-14.563354 7.3421,-4.165741 14.77246,-8.301163 22.53424,-11.570725 9.987,-4.206924 20.18103,-8.096313 30.5788,-11.113098 15.41284,-4.471878 30.98205,-8.534432 46.67859,-11.854004 10.61072,-2.243973 21.56457,-2.839401 32.3468,-4.305458 8.27832,-1.125626 16.50403,-2.667923 24.7981,-3.640038 7.88342,-0.924003 15.83313,-1.268417 23.73999,-2.012176 11.02636,-1.037193 22.02392,-2.938049 33.0625,-3.185188 32.24914,-0.722008 64.51184,-0.936402 96.7705,-1.077683 12.76197,-0.0559 25.56494,0.109268 38.28064,1.075935 13.66053,1.038506 27.26563,2.952317 40.84937,4.817254 18.56384,2.548675 37.14795,5.050285 55.59692,8.291793 9.32764,1.638863 18.37061,4.883721 27.55676,7.348915 2.36011,0.633378 4.77454,1.064049 7.53479,1.759026 M 125.07844,89.218936 c -6.80835,5.325776 -13.97583,10.256592 -20.35431,16.055194 -15.904719,14.45871 -28.797542,31.32988 -38.189021,50.72296 -7.599121,15.69205 -12.976441,32.10225 -13.680969,49.66191 -0.447205,11.14719 0.0065,22.32755 -0.228333,33.48703 -0.323486,15.37299 2.843262,30.05972 8.206726,44.34222 7.397461,19.69855 18.276123,37.297 32.476807,52.80225 11.97296,13.07297 25.28009,24.66068 40.80902,33.28766 11.15637,6.19784 22.53528,12.19846 34.35138,16.95422 14.78198,5.94947 29.88159,11.40222 45.26099,15.50818 24.73571,6.60394 50.14074,10.0072 75.63232,12.20911 23.82678,2.05807 47.69165,4.37317 71.57715,4.90945 50.5647,1.13523 101.17334,1.41123 151.43078,-5.83053 16.09864,-2.31977 32.39136,-4.21054 48.06739,-8.31406 20.04858,-5.24814 39.80737,-11.87918 59.24853,-19.10498 26.99854,-10.0347 50.68836,-25.74979 71.00196,-46.15796 18.04199,-18.12582 31.70922,-39.42789 41.02941,-63.17602 4.45972,-11.36359 8.23914,-23.39713 9.71412,-35.44703 3.2749,-26.75528 -2.30872,-52.40786 -14.64551,-76.30882 C 715.5995,143.1458 701.98536,123.21837 683.67372,106.61498 666.334,90.892856 646.87526,78.49509 625.68593,69.153156 600.08217,57.864978 573.38783,49.51015 545.68226,44.859546 c -15.21594,-2.554138 -30.39489,-5.703064 -45.7257,-7.109428 -23.11329,-2.120278 -46.3302,-3.652245 -69.53016,-4.138001 -24.94616,-0.522331 -49.9237,0.445725 -74.88732,0.780174 -3.29383,0.04413 -6.60169,0.01653 -9.87684,0.311829 -20.49951,1.848305 -41.01159,3.587441 -61.47924,5.745758 -15.02039,1.583908 -30.12989,2.979996 -44.92591,5.864105 -17.10742,3.334626 -34.09546,7.599976 -50.80749,12.564774 -22.41583,6.65921 -43.45929,16.582748 -63.37116,30.340179 z"
   id="path2" />
<path
   fill="#c9a288"
   opacity="1"
   stroke="none"
   d="m 125.37575,89.015445 c 19.61456,-13.55394 40.65802,-23.477478 63.07385,-30.136688 16.71203,-4.964798 33.70007,-9.230148 50.80749,-12.564774 14.79602,-2.884109 29.90552,-4.280197 44.92591,-5.864105 20.46765,-2.158317 40.97973,-3.897453 61.47924,-5.745758 3.27515,-0.295303 6.58301,-0.2677 9.87684,-0.311829 24.96362,-0.334449 49.94116,-1.302505 74.88732,-0.780174 23.19996,0.485756 46.41687,2.017723 69.53016,4.138001 15.33081,1.406364 30.50976,4.55529 45.7257,7.109428 27.70557,4.650604 54.39991,13.005432 80.00367,24.29361 21.18933,9.341934 40.64807,21.7397 57.98779,37.461824 18.31164,16.60339 31.92578,36.53082 43.11316,58.20474 12.33679,23.90096 17.92041,49.55354 14.64551,76.30882 -1.47498,12.0499 -5.2544,24.08344 -9.71412,35.44703 -9.32019,23.74813 -22.98742,45.0502 -41.02941,63.17602 -20.3136,20.40817 -44.00342,36.12326 -71.00196,46.15796 -19.44116,7.2258 -39.19995,13.85684 -59.24853,19.10498 -15.67603,4.10352 -31.96875,5.99429 -48.06739,8.31406 -50.25744,7.24176 -100.86608,6.96576 -151.43078,5.83053 -23.8855,-0.53628 -47.75037,-2.85138 -71.57715,-4.90945 -25.49158,-2.20191 -50.89661,-5.60517 -75.63232,-12.20911 -15.3794,-4.10596 -30.47901,-9.55871 -45.26099,-15.50818 C 156.65364,381.77662 145.27473,375.776 134.11836,369.57816 118.58943,360.95118 105.2823,349.36347 93.30934,336.2905 79.108656,320.78525 68.229994,303.1868 60.832533,283.48825 c -5.363464,-14.2825 -8.530212,-28.96923 -8.206726,-44.34222 0.234802,-11.15948 -0.218872,-22.33984 0.228333,-33.48703 0.704528,-17.55966 6.081848,-33.96986 13.680969,-49.66191 9.391479,-19.39308 22.284302,-36.26425 38.189021,-50.72296 6.37848,-5.798602 13.54596,-10.729418 20.65162,-16.258685 M 157.7776,85.922 c -6.19324,3.560959 -13.1029,6.285828 -18.43359,10.853455 -11.83856,10.143785 -23.68128,20.505145 -33.99872,32.130035 -7.943848,8.95055 -13.624024,19.92502 -20.128785,30.11571 -0.673523,1.05519 -0.745483,3.54597 -0.0099,4.27646 4.450012,4.41954 9.203613,8.5348 13.89215,12.71089 0.592225,0.52746 1.351865,0.97836 2.110655,1.19058 11.33185,3.16925 21.92591,17.06888 21.69873,28.53308 -0.15979,8.06781 -2.85412,10.77173 -10.91272,10.76782 -2.82623,-0.001 -5.65362,-0.23059 -8.47827,-0.3941 -9.801268,-0.5672 -19.602965,-1.12909 -29.401244,-1.74423 -2.530029,-0.15882 -4.22052,0.45648 -4.32727,3.39349 -0.729981,20.077 -0.08282,40.15106 7.401977,58.99692 4.809754,12.11017 11.844483,23.32727 17.718933,35.02652 5.985534,11.92035 14.348334,21.81235 24.282414,30.66443 16.89673,15.05636 36.36542,25.77841 57.35095,33.48071 17.11914,6.2832 34.73816,11.31888 52.36084,16.07333 11.02454,2.97434 22.41211,4.77207 33.73389,6.43747 17.23254,2.53495 34.52172,4.75361 51.8385,6.62839 16.17676,1.75137 32.3988,3.45288 48.64319,4.08341 11.06018,0.42926 22.18884,-1.13038 33.29492,-1.61533 32.38476,-1.41412 64.78528,-2.51129 97.15454,-4.21237 11.56128,-0.60755 23.24365,-1.69574 34.52942,-4.14057 19.46008,-4.21557 39.01391,-8.58432 57.86072,-14.88607 20.76074,-6.94178 40.69189,-16.22019 59.41491,-27.91373 11.52588,-7.19855 21.72266,-15.77686 30.64026,-25.92334 3.83167,-4.35965 7.21533,-9.10959 10.92163,-13.58353 17.10608,-20.64883 28.30969,-44.06692 33.44946,-70.41485 0.80872,-4.146 0.31958,-5.94687 -4.57739,-6.22281 -16.10205,-0.9072 -32.17785,-2.30124 -48.25586,-3.60538 -8.2135,-0.66623 -14.56579,-7.6055 -14.83471,-15.94644 -0.37989,-11.77591 10.18945,-22.87534 22.8573,-23.21625 4.75244,-0.12787 7.41174,-1.77386 10.02661,-5.61639 6.98608,-10.26584 17.82507,-13.09183 29.3374,-8.35953 0.97229,0.39963 2.0697,0.49472 4.38013,1.02066 -2.50769,-6.65662 -4.16297,-12.54712 -6.84717,-17.92395 C 699.07367,139.74982 678.15509,119.38802 654.664,101.58794 635.77247,87.273258 613.72706,79.127094 591.66408,70.966022 570.51307,63.142307 548.90907,57.786395 526.72816,53.863559 c -29.84704,-5.27861 -59.83606,-8.613708 -90.08764,-9.303024 -20.81543,-0.474281 -41.67383,-0.576431 -62.47437,0.19725 -27.55481,1.024887 -55.07385,3.03534 -82.60388,4.691239 -8.1012,0.487274 -16.31409,0.52391 -24.25232,1.982589 -11.87439,2.1819 -23.51953,5.58133 -35.31836,8.209961 C 206.42299,65.33794 181.49501,72.794071 157.7776,85.922 m 505.10681,140.75687 c 2.56311,0.5459 5.1034,1.36609 7.69397,1.5813 5.6189,0.46682 11.26831,0.55056 16.89636,0.92434 10.41504,0.69168 20.82642,1.44184 31.23316,2.24665 3.67297,0.28405 5.31714,-1.28974 4.99292,-4.91169 -0.60559,-6.76474 -1.43701,-13.51498 -1.83435,-20.29119 -0.521,-8.88788 -6.55066,-13.12934 -13.66431,-15.97422 -6.88452,-2.75323 -11.06225,2.48896 -15.41223,6.58863 -2.14978,2.02609 -2.15918,3.87313 -0.70911,6.59448 1.21497,2.28033 1.42749,5.30581 1.33948,7.9769 -0.0415,1.26349 -1.82361,2.46963 -2.81702,3.70175 -1.05493,-1.05149 -2.14245,-2.07266 -3.15783,-3.1612 -1.69873,-1.8215 -3.13245,-4.9989 -5.05872,-5.32 -12.78235,-2.13077 -23.57776,4.97 -19.50232,20.04425 M 93.711745,185.24265 c -3.350953,-4.06818 -6.529114,-8.29858 -10.128541,-12.13352 -1.70227,-1.81373 -4.425598,-2.58224 -5.438842,0.87919 -2.564453,8.76022 -4.958618,17.57437 -7.203247,26.42211 -0.822327,3.2414 0.703552,5.01377 4.255493,5.0239 2.984863,0.009 5.967285,0.38892 8.953308,0.56076 8.631531,0.4968 17.261044,1.0896 25.900084,1.3204 1.21857,0.0326 3.36615,-1.583 3.57367,-2.71301 0.79095,-4.30768 -4.95709,-12.83749 -9.55988,-14.55838 -0.14514,2.04654 0.24866,4.27039 -0.56494,5.88629 -0.90136,1.79004 -2.90655,3.0243 -4.431026,4.50058 -1.109925,-1.56524 -2.700257,-2.98581 -3.22461,-4.72735 -0.946838,-3.1445 -1.256347,-6.4809 -2.131469,-10.46097 z"
   id="path3" />
<path
   fill="#f5f1d8"
   opacity="1"
   stroke="none"
   d="m 158.10756,85.753025 c 23.38745,-12.958954 48.31543,-20.415085 73.88403,-26.111451 11.79883,-2.628631 23.44397,-6.028061 35.31836,-8.209961 7.93823,-1.458679 16.15112,-1.495315 24.25232,-1.982589 27.53003,-1.655899 55.04907,-3.666352 82.60388,-4.691239 20.80054,-0.773681 41.65894,-0.671531 62.47437,-0.19725 30.25158,0.689316 60.2406,4.024414 90.08764,9.303024 22.18091,3.922836 43.78491,9.278748 64.93592,17.102463 22.06298,8.161072 44.10839,16.307236 62.99987,30.621918 23.49109,17.80008 44.40967,38.16188 57.8075,64.99855 2.6842,5.37683 4.33948,11.26733 6.84717,17.92395 -2.31043,-0.52594 -3.40784,-0.62103 -4.38013,-1.02066 -11.51233,-4.7323 -22.35132,-1.90631 -29.3374,8.35953 -2.61487,3.84253 -5.27417,5.48852 -10.02661,5.61639 -12.66785,0.34091 -23.23719,11.44034 -22.8573,23.21625 0.26892,8.34094 6.62121,15.28021 14.83471,15.94644 16.07801,1.30414 32.15381,2.69818 48.25586,3.60538 4.89697,0.27594 5.38611,2.07681 4.57739,6.22281 -5.13977,26.34793 -16.34338,49.76602 -33.44946,70.41485 -3.7063,4.47394 -7.08996,9.22388 -10.92163,13.58353 -8.9176,10.14648 -19.11438,18.72479 -30.64026,25.92334 -18.72302,11.69354 -38.65417,20.97195 -59.41491,27.91373 -18.84681,6.30175 -38.40064,10.6705 -57.86072,14.88607 -11.28577,2.44483 -22.96814,3.53302 -34.52942,4.14057 -32.36926,1.70108 -64.76978,2.79825 -97.15454,4.21237 -11.10608,0.48495 -22.23474,2.04459 -33.29492,1.61533 -16.24439,-0.63053 -32.46643,-2.33204 -48.64319,-4.08341 -17.31678,-1.87478 -34.60596,-4.09344 -51.8385,-6.62839 -11.32178,-1.6654 -22.70935,-3.46313 -33.73389,-6.43747 -17.62268,-4.75445 -35.2417,-9.79013 -52.36084,-16.07333 -20.98553,-7.7023 -40.45422,-18.42435 -57.35095,-33.48071 -9.93408,-8.85208 -18.29688,-18.74408 -24.282412,-30.66443 -5.87445,-11.69925 -12.909179,-22.91635 -17.718933,-35.02652 -7.484802,-18.84586 -8.131958,-38.91992 -7.401977,-58.99692 0.10675,-2.93701 1.797241,-3.55231 4.32727,-3.39349 9.798279,0.61514 19.599976,1.17703 29.401242,1.74423 2.82465,0.16351 5.65204,0.39273 8.47827,0.3941 8.0586,0.004 10.75293,-2.70001 10.91272,-10.76782 0.22718,-11.4642 -10.36688,-25.36383 -21.69873,-28.53308 -0.75879,-0.21222 -1.518428,-0.66312 -2.110653,-1.19058 -4.688537,-4.17609 -9.442138,-8.29135 -13.89215,-12.71089 -0.735535,-0.73049 -0.663575,-3.22127 0.0099,-4.27646 6.504761,-10.19069 12.184937,-21.16516 20.128783,-30.11571 10.31744,-11.62489 22.16016,-21.98625 33.99872,-32.130035 5.33069,-4.567627 12.24035,-7.292496 18.76355,-11.02243 m 176.7279,108.592015 c 0,0 0.0735,0.006 0.0284,-0.69782 -2.77563,-4.5228 -7.15783,-5.78235 -12.95434,-6.12402 -2.38257,-0.0103 -4.76514,-0.0205 -7.82849,-0.35752 -6.19531,-1.22793 -11.33801,0.78614 -16.36865,5.24717 -10.00342,9.51507 -13.65699,21.7471 -15.53138,34.43841 -0.2008,-1.13623 -0.43164,-2.26807 -0.59777,-3.40933 -1.30091,-8.93961 -2.49939,-18.2457 -9.67725,-24.47229 -5.48926,-4.76178 -8.63306,-12.49338 -16.49561,-14.215 -4.14819,-0.90829 -8.63574,-0.25961 -12.78796,-1.15695 -6.09155,-1.31644 -10.99048,0.67148 -15.75403,4.00263 -8.72058,6.09829 -13.41052,14.99481 -17.0271,24.5801 -5.82507,15.43845 -7.44775,31.25635 -4.6001,47.53293 -1.82873,-0.52832 -3.65747,-1.05667 -6.32312,-1.95303 -3.03637,0.0642 -6.07263,0.12848 -9.97741,-0.11191 -3.70301,0.29315 -7.40595,0.58633 -11.93103,0.73538 -1.06531,0.25412 -2.13068,0.50824 -3.7074,0.57038 -0.49872,0.17007 -0.9975,0.34015 -2.18164,0.44091 -0.43872,0.12262 -0.8775,0.24527 -2.14673,0.29511 -2.7149,0.20724 -5.42981,0.41449 -8.19458,-0.29746 -0.0296,-4.66848 -0.0592,-9.33697 0.19946,-14.55203 -0.025,-0.81408 -0.0501,-1.6282 0.30823,-3.25531 0.15173,-2.39416 0.30353,-4.78836 0.77399,-7.85788 0.0152,-1.77661 0.0304,-3.55322 0.43878,-6.16672 0.0854,-3.38427 0.17084,-6.76852 0.50067,-10.50933 -0.0496,-0.55219 -0.0992,-1.10434 0.0734,-2.46479 -0.0347,-14.71551 -0.0693,-29.43103 0.11487,-45.03064 -0.11401,-3.7201 -0.22802,-7.44021 -0.16345,-11.8069 -0.0629,-0.43792 -0.12585,-0.87584 0.0163,-1.86203 -0.0876,-1.15469 -0.17511,-2.3094 -0.1015,-4.38931 -0.28504,-5.68489 -0.57007,-11.3698 -0.6106,-17.55328 -0.17993,-0.50876 -0.35986,-1.01752 -0.46173,-2.32947 -0.37872,-2.06424 -0.75739,-4.12848 -1.14887,-6.90163 -3.80651,-4.12898 -16.25116,-6.20459 -20.80139,-3.26616 -1.55114,1.00164 -2.68005,2.65706 -4.56628,4.50908 -0.8335,4.1615 -1.66705,8.323 -2.90997,13.18697 0.1416,9.41508 0.28326,18.83015 0.25189,29.17168 0.14612,5.69589 0.29217,11.39175 0.28186,17.88327 0.0406,1.07815 0.0812,2.15628 -0.0605,4.1054 0.0613,2.36667 0.12262,4.73337 0.0134,7.85309 0.0876,0.75962 0.17517,1.51926 0.005,3.17227 -0.0317,4.03562 -0.0633,8.0712 -0.35797,12.86991 -0.10688,4.74627 -0.21369,9.49255 -0.63874,15.05353 0.0103,1.74304 0.0204,3.48605 -0.39459,5.8486 -0.10248,1.77893 -0.20489,3.55783 -0.62012,6.09466 -0.004,1.08869 -0.007,2.1774 -0.45886,3.89783 -0.0524,2.11484 -0.1048,4.22971 -0.47534,7.18002 0.006,2.37827 0.0117,4.75653 -0.0923,8.00516 0.1493,1.97064 -1.2e-4,4.02188 0.50538,5.89645 1.36889,5.07621 2.48053,10.79654 8.72735,11.97388 4.78156,0.90116 9.77533,0.67658 15.32684,1.17127 0.4394,-0.0815 0.87885,-0.16297 1.94452,-0.16135 0.78089,-0.28839 1.56183,-0.57678 3.12635,-0.74341 3.07489,-0.62961 6.14984,-1.25925 9.70923,-1.67795 0.83795,-0.14187 1.67584,-0.28372 3.2962,-0.36206 0.7453,-0.22284 1.49066,-0.44568 2.82873,-0.42883 0.80628,-0.18518 1.61249,-0.37039 3.26441,-0.46692 1.3797,-0.22745 2.7594,-0.45486 4.66406,-0.56125 0.48285,-0.21359 0.9657,-0.42718 2.24426,-0.4765 2.07703,-0.53632 4.15393,-1.07263 6.76551,-1.53558 0.47192,-0.22953 0.94397,-0.45905 2.13147,-0.6019 0.44555,-0.15619 0.89099,-0.31238 2.02661,-0.39481 3.66589,-1.66913 8.38012,-2.09948 9.2605,-8.27173 -0.19165,-1.05725 -0.3833,-2.1145 -0.3346,-3.75506 0.18701,-0.0961 0.37402,-0.19217 1.16162,-0.0441 4.20569,7.04212 9.18592,13.30109 18.02686,14.267 7.06921,0.77231 14.32532,1.93909 21.28698,1.12381 12.07056,-1.41361 22.08338,-7.10623 27.66749,-18.60346 2.47424,-5.09426 4.47851,-10.41683 6.9154,-16.15191 0.38562,1.71588 0.63648,2.83267 0.55188,4.65249 0.0957,0.75953 0.19141,1.51905 0.1875,2.80814 0.20386,0.49396 0.40784,0.98792 0.49023,2.25595 0.44971,1.74072 0.8993,3.48148 1.31031,5.78922 0.29333,0.46975 0.58667,0.93948 0.80542,2.06683 0.57971,1.15714 1.15942,2.31424 1.87695,4.06842 0.71179,0.69125 1.42346,1.38248 2.40894,2.70081 1.59411,1.14788 3.18811,2.29577 5.15612,4.07998 5.85999,0.92908 11.71997,1.85816 18.39759,3.10379 1.72217,-0.12964 3.44421,-0.25927 5.85705,0.10474 0.78052,2.7666 1.56092,5.53317 2.20154,8.96967 0.0717,0.44744 0.14331,0.89492 -0.0808,2.01284 0.40112,5.10788 0.80225,10.21579 1.03186,15.98645 0.056,0.45029 0.11218,0.90058 -0.20398,1.75968 0.11096,0.86541 0.22205,1.73083 0.16956,3.46295 0.16223,2.03891 0.32446,4.07785 0.28759,6.77573 0.0454,0.45019 0.0907,0.90039 -0.0861,2.2358 0.002,3.03855 0.004,6.07709 -0.47388,9.76578 -0.4469,5.11579 -0.89368,10.23157 -1.62708,15.97602 0.0292,0.45632 0.0584,0.91262 -0.2655,1.88928 -0.0568,0.83038 -0.1134,1.66079 -0.52979,3.24353 -0.36218,2.41577 -0.72436,4.83154 -1.48645,7.78113 -0.41345,1.48809 -0.8269,2.97619 -1.51806,5.18643 -0.38294,1.75171 -0.76587,3.50339 -1.53272,5.66809 -0.14721,0.53433 -0.29455,1.06863 -0.96289,2.09317 -1.20263,2.3212 -2.40515,4.64236 -4.48742,6.86349 -2.04615,0.07 -4.09229,0.1399 -6.9325,-0.0977 -1.39856,-0.0195 -2.79724,-0.0389 -4.79932,-0.38337 -4.80053,-0.26995 -8.84777,1.15638 -10.59838,5.94388 -1.42664,3.9011 1.1344,6.34201 4.46679,8.81836 1.07434,0.50681 2.14868,1.01361 3.71045,2.15384 5.3418,0.71472 10.68347,1.42944 16.67102,2.38721 0.45093,-0.0591 0.90174,-0.11829 1.71045,0.0641 0.5459,-0.0844 1.09192,-0.16874 2.50708,-0.0956 1.70911,-0.31628 3.41834,-0.63256 5.6294,-0.77014 0.48327,-0.17328 0.96655,-0.34656 2.16113,-0.48849 1.11133,-0.40647 2.22278,-0.81293 4.00329,-1.21967 3.70899,-3.89075 7.4181,-7.78149 11.69507,-12.13168 2.07093,-5.55939 4.14197,-11.11878 6.65686,-17.12024 0.16809,-0.80795 0.33631,-1.61591 0.91626,-3.12573 1.00806,-5.43607 2.01599,-10.87213 3.32776,-16.74625 -0.009,-0.51837 -0.0176,-1.03674 0.29883,-2.25763 -0.0626,-0.76004 -0.12524,-1.52008 0.14636,-3.06735 0.18982,-3.74527 0.37976,-7.49051 0.93262,-11.89307 0.07,-1.6951 0.14001,-3.39017 0.52002,-5.6694 -0.21326,-8.22437 -0.42651,-16.44876 -0.35901,-25.31778 -0.11706,-0.44 -0.23413,-0.88001 -0.26269,-2.17185 -0.50245,-5.72589 -1.00501,-11.45175 -1.35999,-17.83319 -0.051,-0.44232 -0.10193,-0.88464 0.16211,-1.75961 -0.11328,-0.85696 -0.22656,-1.71393 -0.19885,-3.24414 -0.0978,-0.44202 -0.19556,-0.88406 -0.18555,-2.02484 -0.34509,-1.0914 -0.69019,-2.18277 -0.83508,-4.07401 -0.0708,-1.07647 -0.1416,-2.15292 -0.11524,-3.98281 -0.0896,-0.75113 -0.17932,-1.50226 -0.11377,-3.12912 0.0406,-2.37241 0.0813,-4.74485 0.58033,-7.58622 0.15209,-0.84472 0.30407,-1.68948 0.88293,-3.11224 0.13306,-0.69699 0.26611,-1.39398 0.81787,-2.59695 0.26428,-1.27524 0.52857,-2.55048 1.23572,-4.45716 0.29101,-1.76504 0.58215,-3.53006 1.23999,-5.83053 -0.0312,-0.85236 -0.0626,-1.70469 0.1687,-3.27222 -0.07,-0.75153 -0.14001,-1.50305 -0.007,-3.10663 -1.65491,-7.38595 -3.30981,-14.77188 -4.86157,-22.78625 -0.38965,-0.45404 -0.7793,-0.90812 -1.47388,-2.01343 -3.79687,-1.16638 -7.59387,-2.33273 -11.4209,-3.43176 M 554.41725,287.78 c 0,0 0.0824,0.0223 0.31311,0.65982 4.33508,4.29666 17.70605,5.93436 24.1593,2.95905 5.2793,-2.43411 6.4989,-5.06726 4.51648,-10.78186 -0.17737,-0.41867 -0.35474,-0.83731 -0.47558,-1.9675 -0.43921,-1.06824 -0.8783,-2.13644 -1.31263,-4.02814 -0.43078,-3.3367 -0.86157,-6.67343 -1.17273,-10.7702 -0.20678,-1.47888 -0.41357,-2.95773 -0.59326,-5.36084 -1.14294,-18.96109 -3.78308,-37.86536 -2.74902,-56.74887 4.64172,-1.1597 6.11743,0.0952 6.05444,4.56607 -0.15918,11.26962 0.12549,22.55206 0.49231,33.82089 0.49805,15.2916 1.78308,30.50092 6.17993,45.99246 1.7544,2.10685 3.11145,5.33899 5.33277,6.12317 8.99963,3.17713 18.22644,4.11762 27.31762,-0.1824 3.61988,-1.71225 4.74598,-5.06122 3.89124,-8.2034 -0.50366,-1.85226 -3.61585,-2.99496 -6.11975,-4.91968 -1.45642,-6.17889 -2.91272,-12.35782 -3.98828,-19.04996 -0.2085,-1.16409 -0.417,-2.32818 -0.76087,-4.27551 -0.2124,-2.40252 -0.4248,-4.80508 -0.25598,-7.72198 -0.20398,-1.16477 -0.40784,-2.32956 -0.77136,-4.32471 -0.15491,-15.02316 -0.30969,-30.04636 0.40747,-45.1239 3.99768,-0.9169 7.99536,-1.8338 12.6333,-2.87216 0.43359,0.013 0.86707,0.0259 1.67249,0.56958 4.06616,2.0809 6.48449,-0.3451 9.31152,-3.46811 0.40491,-0.0999 0.80994,-0.19983 1.74768,-0.297 0.22705,-0.64514 0.45422,-1.29028 0.70142,-2.67148 0.18542,-0.70791 0.37085,-1.41583 1.01355,-2.39486 -0.20228,-1.01328 -0.40455,-2.02652 -0.94141,-3.42383 -0.0806,-0.14945 -0.16113,-0.29892 -0.401,-1.14014 -3.24658,-4.14499 -7.4137,-3.85568 -12.63208,-2.40036 -1.35767,-0.13318 -2.71546,-0.26633 -4.48975,-0.99542 -3.17517,-0.33246 -6.35046,-0.66489 -9.64453,-1.91937 0.26318,-20.3277 0.52637,-40.6554 1.25171,-61.53289 -0.0945,-1.82425 -0.18897,-3.6485 -0.33081,-6.40043 -0.13452,-4.52118 -0.26904,-9.04236 -0.28687,-14.320011 -1.13317,-1.023239 -2.1759,-2.794861 -3.41479,-2.944779 -6.61585,-0.800583 -13.29736,-1.715103 -19.92163,-1.504165 -3.13465,0.09981 -6.80872,2.059616 -6.47791,7.356659 -0.15905,0.398101 -0.31811,0.796218 -1.04748,1.666564 0.0136,7.216482 0.0271,14.432952 0.10522,22.578512 -0.14721,4.32035 -0.29455,8.6407 -1.0376,13.4069 -0.25512,1.77678 -0.72058,3.55225 -0.73144,5.33054 -0.074,11.98796 -0.0482,23.97653 -0.0618,35.9649 -0.007,6.65219 -2.18884,7.99323 -8.62134,5.5907 -1.80822,-0.67541 -3.83178,-0.90308 -5.77832,-1.05258 -3.91418,-0.30069 -7.90271,-0.0465 -11.75146,-0.68213 -4.98316,-0.82297 -7.51489,1.25497 -8.64173,5.85999 0,0 -0.052,0.0355 -0.61315,-0.32947 -0.58143,-0.32913 -1.16272,-0.6583 -2.17249,-1.56546 -5.87976,-3.90604 -12.66431,-2.21262 -19.02478,-2.8566 -5.59473,-0.56638 -9.75537,3.04648 -11.06189,8.56821 -1.08655,4.59207 -1.89783,9.24932 -3.00122,14.72146 -0.88147,-1.7478 -1.51489,-2.69317 -1.85901,-3.73413 -3.29236,-9.96118 -11.34875,-15.16028 -20.11755,-19.1124 -3.36304,-1.51577 -7.79431,-0.46051 -11.62061,-1.19326 -6.91406,-1.32401 -12.23474,1.50448 -16.94763,5.91427 -6.35254,5.94413 -10.2345,13.43781 -12.7334,21.68851 -4.17077,13.76971 -7.40027,27.6691 -5.52099,42.22794 1.37963,10.68765 7.98669,19.58831 16.52771,20.93774 6.36401,1.00546 12.95837,1.35941 19.38537,0.96106 8.37744,-0.51929 16.06641,-3.77997 21.51904,-10.34491 4.17359,-5.02484 7.37732,-10.85513 11.12598,-16.49789 0.53516,2.29959 1.19629,4.82937 1.70642,7.38928 1.8064,9.0632 8.2677,14.50247 17.52332,14.58713 6.27014,0.0573 12.54113,0.0109 19.1615,0.0109 1.25695,5.88181 2.46301,11.52533 3.67028,17.75885 0.44873,0.60599 0.89747,1.21198 1.36292,1.90161 M 382.8639,114.00595 c -1.57373,-7.15666 -5.58837,-12.42205 -12.375,-15.260967 -2.68579,-1.123535 -3.54089,-2.701156 -3.82067,-5.584686 -1.66578,-17.178528 -17.1438,-31.671799 -34.1825,-30.605209 -19.50427,1.220977 -33.18872,12.412063 -42.64929,28.960128 -1.47363,2.577606 -2.67029,3.858383 -5.81348,4.150818 -14.57019,1.355683 -23.23828,9.730426 -24.85852,23.468976 -1.34534,11.40744 4.09876,16.98571 15.13587,15.51638 0.65966,-0.0878 1.3258,-0.14797 1.99072,-0.17127 30.28882,-1.06192 60.49902,0.27783 90.66345,2.987 0.65454,0.0588 1.32446,0.2238 1.93311,0.47196 3.76062,1.5332 6.6007,0.009 8.6582,-2.96532 4.18018,-6.04178 6.75342,-12.60355 5.31811,-20.96781 m 92.92713,181.6233 c -2.44629,-0.42395 -4.88501,-1.16199 -7.33997,-1.22059 -15.33801,-0.36608 -26.36889,7.77628 -34.60205,19.4592 -4.1228,5.84995 -7.77295,10.16986 -14.97192,13.00751 -11.85376,4.67239 -18.50195,15.21207 -22.04163,27.45529 -0.40637,1.40512 -0.72302,2.97272 -1.57373,4.09009 -4.50244,5.91312 -3.36658,9.74731 3.92737,10.90079 6.87671,1.08752 13.88049,1.83078 20.83533,1.8883 31.63476,0.26154 63.27209,0.22705 94.90844,0.30054 4.12537,0.01 8.27918,0.30197 12.35938,-0.12015 1.26746,-0.1311 3.08032,-2.04046 3.34912,-3.393 0.68604,-3.45243 0.34839,-7.09995 0.94177,-10.58054 2.85034,-16.72183 -7.2583,-31.34186 -22.57531,-31.92422 -3.74964,-0.14255 -5.54383,-1.45792 -7.10645,-4.72776 -5.40527,-11.3107 -13.22058,-20.33307 -26.11035,-25.13546 m 199.37268,-6.2649 c 0.91284,-0.40518 1.81311,-0.84225 2.7406,-1.21048 8.0636,-3.20181 12.32043,-9.45175 11.92029,-17.52575 -0.30579,-6.17243 -5.34046,-11.50138 -13.40906,-13.49952 -2.82251,-0.69894 -6.04456,0.1955 -8.8551,-0.52792 -6.91406,-1.7796 -12.46643,0.15708 -17.0398,5.28806 -5.4873,6.15625 -4.55334,13.17321 -2.1073,20.1481 1.52076,4.33591 5.06812,6.65353 9.52405,6.9956 5.45789,0.41907 10.95239,0.35935 17.22632,0.33191 M 495.37758,103.33002 c -0.85694,-1.12537 -1.72791,-3.23653 -2.56848,-3.22453 -8.98365,0.12819 -18.96924,-4.853869 -25.98255,5.63743 -3.29797,4.93329 -8.09619,8.83696 -11.78137,13.54622 -3.31555,4.237 -1.84107,7.27396 3.35217,8.19396 3.20484,0.56775 6.37293,1.3425 10.33777,2.19137 -2.49097,4.2453 -4.71753,7.70476 -6.56433,11.35626 -0.71265,1.40934 -0.56348,3.25455 -0.80701,4.90113 1.66077,-0.23796 3.63574,0.0229 4.93225,-0.79352 9.56409,-6.02144 19.02063,-12.21596 28.43067,-18.47679 1.24963,-0.83142 3.08154,-2.67438 2.82788,-3.4695 -0.46668,-1.46234 -2.07923,-3.0033 -3.57825,-3.60593 -3.94397,-1.58558 -8.08362,-2.68495 -12.53345,-4.10159 4.77173,-4.08899 9.13208,-7.82536 13.9347,-12.15451 M 218.85499,336.55158 c 2.03785,0.36795 4.07569,0.7359 6.51795,1.17685 -1.88574,4.45129 -3.67615,8.36258 -5.15149,12.38931 -0.35376,0.96533 0.0303,2.55682 0.67932,3.3891 0.34375,0.44089 2.31982,0.26364 2.9917,-0.30505 9.00696,-7.62387 17.94018,-15.33612 26.82861,-23.09845 2.51831,-2.19925 1.10156,-4.13285 -1.18359,-4.909 -2.95105,-1.00232 -6.14356,-1.30029 -9.23718,-1.87329 -1.46436,-0.27118 -2.9408,-0.47662 -5.00013,-0.80597 4.07398,-4.30411 7.52161,-7.854 10.85474,-11.50836 1.59448,-1.74805 2.02637,-4.43079 -0.84521,-4.35602 -6.76502,0.17602 -13.50672,1.29446 -20.25025,2.09558 -0.38318,0.0455 -0.76868,0.61746 -1.03479,1.02222 -3.73047,5.6759 -7.68127,11.22818 -11.03772,17.11853 -1.3584,2.38406 -1.40942,5.51312 -2.05542,8.30316 2.34497,0.42554 4.69007,0.85104 7.92346,1.36139 m 380.76233,10.13809 c -4.46875,-1.3262 -8.9375,-2.65243 -14.90722,-4.42413 3.53088,-3.02378 6.63366,-5.47623 9.45752,-8.21607 0.9198,-0.89242 1.11132,-2.53543 1.63598,-3.83514 -1.4768,-0.49277 -2.98877,-1.48526 -4.42383,-1.38446 -4.2904,0.30133 -8.55822,0.98251 -12.81713,1.63141 -0.92139,0.14035 -2.12671,0.5216 -2.59412,1.20633 -3.91663,5.73986 -7.92346,11.44058 -11.43189,17.42917 -2.56579,4.37954 -1.18188,6.22741 3.95765,6.49722 2.65136,0.13919 5.29016,0.5199 8.47546,0.84704 -1.8772,4.20023 -3.49329,7.47336 -4.76611,10.87494 -0.37891,1.01248 0.20568,2.3855 0.34887,3.59336 1.16602,-0.28061 2.63404,-0.20499 3.45093,-0.89743 7.59705,-6.43848 15.11121,-12.97614 22.55664,-19.58954 0.78723,-0.69934 0.97986,-2.06818 1.05725,-3.7327 z"
   id="path4" />
<path
   fill="#b0c8d1"
   opacity="1"
   stroke="none"
   d="m 662.59303,226.36628 c -3.78406,-14.76166 7.01135,-21.86243 19.7937,-19.73166 1.92627,0.3211 3.35999,3.4985 5.05872,5.32 1.01538,1.08854 2.1029,2.10971 3.15783,3.1612 0.99341,-1.23212 2.77552,-2.43826 2.81702,-3.70175 0.088,-2.67109 -0.12451,-5.69657 -1.33948,-7.9769 -1.45007,-2.72135 -1.44067,-4.56839 0.70911,-6.59448 4.34998,-4.09967 8.52771,-9.34186 15.41223,-6.58863 7.11365,2.84488 13.14331,7.08634 13.66431,15.97422 0.39734,6.77621 1.22876,13.52645 1.83435,20.29119 0.32422,3.62195 -1.31995,5.19574 -4.99292,4.91169 -10.40674,-0.80481 -20.81812,-1.55497 -31.23316,-2.24665 -5.62805,-0.37378 -11.27746,-0.45752 -16.89636,-0.92434 -2.59057,-0.21521 -5.13086,-1.0354 -7.98535,-1.89389 z"
   id="path5" />
<path
   fill="#b0c8d1"
   opacity="1"
   stroke="none"
   d="m 93.861464,185.60456 c 0.725403,3.61816 1.034912,6.95456 1.98175,10.09906 0.524353,1.74154 2.114685,3.16211 3.22461,4.72735 1.524476,-1.47628 3.529666,-2.71054 4.431026,-4.50058 0.8136,-1.6159 0.4198,-3.83975 0.56494,-5.88629 4.60279,1.72089 10.35083,10.2507 9.55988,14.55838 -0.20752,1.13001 -2.3551,2.74558 -3.57367,2.71301 -8.63904,-0.2308 -17.268553,-0.8236 -25.900084,-1.3204 -2.986023,-0.17184 -5.968445,-0.55225 -8.953308,-0.56076 -3.551941,-0.0101 -5.07782,-1.7825 -4.255493,-5.0239 2.244629,-8.84774 4.638794,-17.66189 7.203247,-26.42211 1.013244,-3.46143 3.736572,-2.69292 5.438842,-0.87919 3.599427,3.83494 6.777588,8.06534 10.27826,12.49543 z"
   id="path6" />
<path
   fill="#714d4a"
   opacity="1"
   stroke="none"
   d="m 641.50514,187.57956 c -0.18542,0.70795 -0.37085,1.41587 -0.7627,2.7034 -0.48022,1.0828 -0.75402,1.58594 -1.02783,2.08908 -0.4049,0.1 -0.80993,0.19986 -1.86877,0.40491 -3.44568,1.01419 -6.23755,1.92325 -9.02942,2.83234 -0.43359,-0.013 -0.86707,-0.026 -2.04846,-0.0655 -2.52759,0.1733 -4.35926,0.17437 -6.0741,0.62225 -2.27563,0.59439 -4.45996,1.5376 -6.68347,2.33093 0.15491,15.02313 0.30969,30.04633 0.43628,45.75922 0.12048,1.84292 0.26941,2.99612 0.41846,4.14932 0.2124,2.40256 0.4248,4.80512 0.55114,7.86276 0.098,1.81461 0.28199,2.97412 0.46607,4.13364 1.45642,6.17889 2.91272,12.35782 4.76281,19.10431 1.65381,1.73056 4.1023,3.09903 3.94361,4.0166 -0.41724,2.41208 -1.4325,5.92947 -3.18079,6.65002 -3.60095,1.48395 -7.81457,5.64341 -11.72705,1.39643 -2.66223,-2.89011 -5.70862,-3.00696 -7.88171,-1.45706 -4.34632,3.09973 -6.47632,0.0216 -9.15357,-2.10608 -1.00427,-0.7981 -1.90356,-1.72824 -2.85083,-2.59815 -4.36206,-14.77859 -5.64709,-29.98791 -6.14514,-45.27951 -0.36682,-11.26883 -0.65149,-22.55127 -0.49231,-33.82089 0.063,-4.47089 -1.41272,-5.72577 -6.05444,-4.56607 -1.03406,18.88351 1.60608,37.78778 2.55347,57.4053 0.0927,2.25913 0.38098,3.86182 0.66918,5.46448 0.43079,3.3367 0.86158,6.67343 1.09131,10.6759 0.35157,1.80182 0.90442,2.93787 1.45728,4.07392 0.17724,0.41864 0.35461,0.83728 0.28491,1.74798 -2.05994,8.45746 -2.698,8.41931 -10.61645,5.53531 -3.67969,-1.34021 -8.43116,-1.80115 -11.98938,-0.58737 -1.93042,0.65848 -3.77832,1.85391 -6.05359,1.74527 0,0 -0.0824,-0.0223 -0.0195,-0.37247 -0.43372,-0.94729 -0.93042,-1.54434 -1.42713,-2.14142 -1.20593,-5.64349 -2.41199,-11.28701 -3.66894,-17.16882 -6.62037,0 -12.89136,0.0464 -19.1615,-0.0109 -9.25562,-0.0847 -15.71692,-5.52393 -17.52332,-14.58713 -0.51013,-2.55991 -1.17126,-5.08969 -1.70642,-7.38928 -3.74866,5.64276 -6.95239,11.47305 -11.12598,16.49789 -5.45263,6.56494 -13.1416,9.82562 -21.51904,10.34491 -6.427,0.39835 -13.02136,0.0444 -19.38537,-0.96106 -8.54102,-1.34943 -15.14808,-10.25009 -16.52771,-20.93774 -1.87928,-14.55884 1.35022,-28.45823 5.52099,-42.22794 2.4989,-8.2507 6.38086,-15.74438 12.7334,-21.68851 4.71289,-4.40979 10.03357,-7.23828 16.94763,-5.91427 3.8263,0.73275 8.25757,-0.32251 11.62061,1.19326 8.7688,3.95212 16.82519,9.15122 20.11755,19.1124 0.34412,1.04096 0.97754,1.98633 1.85901,3.73413 1.10339,-5.47214 1.91467,-10.12939 3.00122,-14.72146 1.30652,-5.52173 5.46716,-9.13459 11.06189,-8.56821 6.36047,0.64398 13.14502,-1.04944 19.19385,3.56882 -0.31421,4.32159 -0.92444,7.91931 -1.25733,11.54248 -1.07763,11.73077 -2.05371,23.47088 -3.06884,35.20739 0.74658,0.0715 1.49316,0.14307 2.23974,0.21457 0.89881,-6.85751 1.96741,-13.69812 2.65296,-20.57693 0.83459,-8.37296 1.34643,-16.77811 1.99804,-25.16931 0,0 0.052,-0.0355 0.37915,-0.21762 3.88465,-1.2273 7.43433,-3.09531 11.00135,-3.12888 5.64965,-0.0532 11.30297,1.20261 16.96936,1.75531 6.57226,0.64108 8.09985,-0.90286 7.99621,-7.56113 -0.0542,-3.48202 0.0551,-6.96626 0.0424,-10.44932 -0.0391,-10.63042 -0.10144,-21.26074 -0.15466,-31.89112 0.14734,-4.32035 0.29468,-8.6407 0.59741,-13.78507 0.20679,-7.95827 0.25818,-15.09252 0.30957,-22.226751 0.15906,-0.398087 0.31812,-0.796204 0.85339,-1.627518 1.56165,-1.299728 2.65955,-2.744125 3.94678,-2.93927 8.51563,-1.290939 17.09802,-2.813904 25.37463,1.221237 0.13453,4.521182 0.26905,9.042362 0.28663,14.274202 -0.0828,2.55363 -0.0486,4.39659 -0.0144,6.23956 -0.26318,20.3277 -0.52637,40.6554 -0.70752,61.83197 3.38098,1.12137 6.68006,1.39389 9.97913,1.66638 1.35766,0.13321 2.71545,0.26636 4.82239,0.54157 4.51342,1.07806 8.27783,2.01407 12.04211,2.9501 0.0806,0.14945 0.16113,0.29892 0.40039,1.05591 0.21423,1.43414 0.26978,2.26077 0.32544,3.08737 M 481.78671,235.8444 c 1.95447,-9.75097 0.67212,-21.7037 -3.26709,-27.19537 -4.11279,14.29993 -7.91076,28.09366 -4.4403,42.55429 0.78772,0.19052 1.57531,0.38104 2.36303,0.57156 1.69629,-5.0419 3.3927,-10.08377 5.34436,-15.93048 z"
   id="path7" />
<path
   fill="#6f4a47"
   opacity="1"
   stroke="none"
   d="m 292.85377,268.25986 c -1.59411,-1.14789 -3.18811,-2.29578 -4.94531,-4.0921 -0.90332,-1.31543 -1.64355,-1.98242 -2.38379,-2.64942 -0.57959,-1.15713 -1.1593,-2.31423 -1.5404,-3.98056 -0.18934,-1.04766 -0.5774,-1.58615 -0.96534,-2.12466 -0.4497,-1.74072 -0.89929,-3.48148 -1.11889,-5.76996 -0.0536,-1.11108 -0.33716,-1.67441 -0.62085,-2.23773 -0.0956,-0.75955 -0.19129,-1.51907 0.18603,-2.83258 0.74182,-6.09549 1.01075,-11.63699 1.27954,-17.17847 1.31067,-13.23443 4.96424,-25.46646 15.68311,-35.06292 5.92163,-1.66724 11.12781,-3.25312 16.33398,-4.83899 2.38257,0.0102 4.76514,0.0205 7.71119,0.42718 4.52099,2.40811 8.47851,4.4198 12.43591,6.43149 0,0 -0.0735,-0.006 0.0109,0.31311 3.1576,4.08188 7.41407,3.87396 11.64148,3.76382 0.38965,0.45404 0.7793,0.90812 0.8136,1.79383 -1.38476,8.68792 0.83154,16.17904 5.01392,23.2066 0.0701,0.75156 0.14013,1.50308 -0.24329,2.61969 -1.20911,0.79938 -1.96496,1.23364 -2.7207,1.66791 0.87951,0.59152 1.75903,1.1831 2.63855,1.77466 -0.29102,1.76504 -0.58216,3.53006 -1.46607,5.64377 -3.76159,1.43975 -2.95752,2.96716 -1.06152,4.61447 -0.13306,0.69699 -0.26611,1.39398 -0.90308,2.45904 -0.61511,1.31641 -0.72619,2.26477 -0.83728,3.21314 -0.0408,2.3724 -0.0814,4.74484 -0.47693,7.65356 -0.11279,1.47296 0.1294,2.40961 0.37159,3.34625 0.0707,1.07645 0.14148,2.1529 -0.14295,3.79108 -2.47754,2.80307 -0.9945,3.62405 1.08252,4.21106 0.0978,0.44202 0.19556,0.88406 0.0199,1.87494 -0.12976,1.40854 0.0138,2.26822 0.15735,3.1279 0.0509,0.44235 0.1018,0.88467 -0.16016,1.94693 -0.88574,3.69513 -1.41955,6.77817 -2.04126,9.84341 -0.73425,3.62067 -0.0964,6.58899 3.62573,8.22168 0.11707,0.44 0.23414,0.88001 -0.0994,1.74353 -1.28162,2.24063 -2.48047,3.98239 -2.87158,5.88974 -0.98633,4.81046 2.54577,9.60053 -0.25586,14.6872 -1.2948,2.35083 0.22192,4.86383 3.62707,4.90146 -0.0701,1.69509 -0.14013,3.39016 -0.68579,5.54675 -3.25561,4.30884 -4.36828,8.2009 -0.79114,12.21881 0.0626,0.76004 0.12525,1.52008 -0.16613,2.73611 -0.31897,1.05057 -0.28382,1.64515 -0.24866,2.23969 -1.00794,5.43607 -2.01587,10.87213 -3.51892,16.8335 -0.61829,1.36434 -0.7417,2.20343 -0.86511,3.04248 -2.07105,5.55941 -4.14209,11.1188 -6.8158,16.98169 -4.32227,4.14517 -8.04187,7.98681 -11.76147,11.82849 -1.11133,0.40643 -2.22278,0.81289 -3.83887,1.05377 -1.05591,0.0481 -1.60718,0.26172 -2.15833,0.47537 -1.7091,0.31629 -3.41833,0.63257 -5.72986,0.69437 -1.15576,-0.13349 -1.7091,-0.0125 -2.26245,0.10858 -0.45092,0.0591 -0.90173,0.11829 -1.74536,-0.27896 -1.08642,-1.06079 -1.75427,-2.1525 -2.4779,-2.19074 -4.75598,-0.25128 -9.52381,-0.27533 -14.28784,-0.3735 -1.07435,-0.50681 -2.14869,-1.01361 -3.42786,-2.17377 -1.6145,-5.27774 -1.50379,-9.06976 4.33472,-10.52414 1.07251,-0.26724 1.74707,-2.13223 2.60522,-3.25973 1.39856,0.0194 2.79724,0.0389 4.7157,0.45208 2.77734,0.19715 5.03479,5.8e-4 7.29236,-0.19598 1.20251,-2.32117 2.40503,-4.64233 4.1195,-7.26691 0.61951,-0.93649 0.7273,-1.56964 0.83509,-2.20279 0.38281,-1.7517 0.76574,-3.50338 1.5664,-5.73428 0.77845,-2.0665 1.13941,-3.65375 1.50025,-5.24103 0.36218,-2.4158 0.72436,-4.83157 1.52234,-7.73456 0.43957,-1.41702 0.44336,-2.34683 0.44714,-3.27664 -0.0293,-0.45633 -0.0585,-0.91263 0.38525,-1.82153 1.26905,-4.37253 2.21888,-8.27103 2.77039,-12.2251 0.17285,-1.23926 -0.72693,-2.62811 -1.13562,-3.94848 -0.002,-3.03855 -0.005,-6.07709 0.34082,-9.62449 0.21094,-1.13452 0.0742,-1.76022 -0.0624,-2.38592 -0.16223,-2.03891 -0.32446,-4.07785 -0.19726,-6.75836 0.16406,-1.50446 0.0387,-2.36731 -0.0868,-3.23017 -0.056,-0.45028 -0.11218,-0.90057 0.15601,-2.01287 0.80798,-4.57053 0.73132,-8.66233 1.93274,-12.33616 1.20691,-3.69036 -0.60547,-3.59018 -2.99304,-3.65872 -0.0717,-0.44748 -0.14331,-0.89496 0.0991,-1.91504 2.04016,-4.6875 0.24035,-8.94021 -3.2063,-8.89068 -1.72217,0.12964 -3.44421,0.25927 -5.69739,-0.0523 -6.05273,-3.75735 -11.91321,-4.97455 -18.24048,-3.29892 m 21.13465,-46.55188 c -0.85767,5.23374 -1.71546,10.46747 -3.18164,15.95459 -2.22986,2.53702 -3.52601,4.96787 0.9729,7.51837 0.1394,1.02167 0.27868,2.04334 -0.0776,3.44623 -0.083,0.66107 -0.16589,1.32217 -0.2489,1.98325 0.50659,-0.17411 1.01318,-0.34821 2.19397,-0.60031 0.85144,-2.3136 2.40783,-4.6225 2.42346,-6.94175 0.0486,-7.22873 -0.48584,-14.46139 -0.54797,-22.4602 -0.16248,-0.78528 -0.32483,-1.57053 -0.48731,-2.35581 -0.24524,0.016 -0.49036,0.032 -0.73559,0.0479 -0.11841,0.88092 -0.23694,1.76181 -0.31128,3.40768 m 17.20068,70.7926 c -4.95068,0.8917 -3.24561,4.43616 -2.92651,7.40052 0.20214,1.87799 0.24231,3.8287 0.82068,5.59423 0.50085,1.52866 1.65771,2.84241 2.52453,4.25116 1.36035,-0.86438 3.10986,-1.44741 3.98731,-2.66098 1.22766,-1.69775 1.61438,-3.97903 2.70202,-5.8078 1.97376,-3.31921 1.60254,-5.57989 -2.30481,-6.8713 -1.39392,-0.46073 -2.68786,-1.22397 -4.80322,-1.90583 m 7.31848,-6.27893 c -1.36377,-2.78061 -2.72754,-5.56118 -4.09131,-8.34179 -1.53784,2.92172 -2.20715,5.36499 -2.06128,7.75854 0.0916,1.50339 1.40674,2.93213 2.17286,4.39432 1.36828,-1.02405 2.73669,-2.04807 3.97973,-3.81107 m -2.53064,35.67765 c -5.22717,2.33743 -2.60254,6.93612 -3.92883,10.39694 0.56848,0.1719 1.13696,0.34381 1.70532,0.51571 0.94849,-3.55752 1.89697,-7.11502 2.22351,-10.91265 m -1.88293,-6.24326 c 0.0959,1.07062 0.19189,2.14127 0.28784,3.21188 0.63696,-0.26806 1.27392,-0.53616 1.91101,-0.80426 -0.59338,-0.96188 -1.18689,-1.92379 -2.19885,-2.40762 m -2.52002,36.42725 c -0.72571,-0.26566 -1.45154,-0.53131 -2.17725,-0.79697 0.002,0.75552 0.004,1.51102 0.005,2.26654 0.72437,-0.27017 1.44861,-0.54034 2.172,-1.46957 m -3.37427,-77.69898 c 0.39282,-3e-5 0.78564,-6e-5 1.17847,-9e-5 -0.11536,-0.41806 -0.23059,-0.83615 -0.34595,-1.25424 -0.3158,0.26208 -0.63147,0.52414 -0.83252,1.25433 m -32.62549,-28.57568 c 0.20008,-0.1655 0.40015,-0.33097 0.60034,-0.49643 -0.0996,-0.10721 -0.19934,-0.21442 -0.29895,-0.32157 -0.17822,0.18943 -0.35644,0.37885 -0.30139,0.818 m 1.08301,-18.8165 c -0.0212,0.25873 -0.0426,0.51746 -0.0638,0.77618 0.14648,0.004 0.29309,0.007 0.43957,0.0106 -0.01,-0.25961 -0.0201,-0.51925 -0.37573,-0.78683 m 2.74182,-11.78809 c 0.16528,0.20029 0.33069,0.40061 0.49609,0.60086 0.1073,-0.0996 0.21473,-0.19918 0.32203,-0.29879 -0.18946,-0.17841 -0.37879,-0.35684 -0.81812,-0.30207 z"
   id="path8" />
<path
   fill="#734e4b"
   opacity="1"
   stroke="none"
   d="m 282.4629,227.12284 c 0.0131,5.81302 -0.25586,11.35452 -0.82995,17.09851 -0.55615,-0.91434 -0.80701,-2.03113 -1.19263,-3.74701 -2.43689,5.73508 -4.44116,11.05765 -6.9154,16.15191 -5.58411,11.49723 -15.59693,17.18985 -27.66749,18.60346 -6.96166,0.81528 -14.21777,-0.3515 -21.28698,-1.12381 -8.84094,-0.96591 -13.82117,-7.22488 -18.31739,-14.36911 -0.29052,-0.10208 -0.23193,-0.0805 -0.23193,-0.0805 -3.62756,-16.21948 -2.00488,-32.03738 3.82019,-47.47583 3.61658,-9.58529 8.30652,-18.48181 17.0271,-24.5801 4.76355,-3.33115 9.66248,-5.31907 15.75403,-4.00263 4.15222,0.89734 8.63977,0.24866 12.78796,1.15695 7.86255,1.72162 11.00635,9.45322 16.49561,14.215 7.17786,6.22659 8.37634,15.53268 9.67725,24.47229 0.16613,1.14126 0.39697,2.2731 0.87963,3.68091 m -47.55297,14.63513 c 0.65856,5.24615 -0.0414,10.96219 4.72265,14.92996 12.38025,-9.28516 14.59412,-36.62262 3.90357,-50.30105 -5.72144,11.02496 -8.63196,22.34613 -8.62622,35.37109 z"
   id="path9" />
<path
   fill="#6f4a47"
   opacity="1"
   stroke="none"
   d="m 162.9698,170.44014 c 0.0347,14.7155 0.0693,29.43102 -0.19257,44.71181 -0.20483,1.12891 -0.11309,1.69248 -0.0212,2.25604 -0.0854,3.38428 -0.17083,6.76853 -0.71667,10.75565 -0.40595,2.48163 -0.3515,4.36044 -0.297,6.23923 -0.15179,2.39416 -0.30359,4.78836 -0.85425,7.73773 -0.33178,1.45239 -0.2647,2.34952 -0.19763,3.24667 0.0297,4.66849 0.0593,9.33698 0.18775,14.79044 3.04126,0.3851 5.98376,-0.0148 8.92621,-0.41474 0.43872,-0.12262 0.8775,-0.24527 1.80731,-0.16848 1.0614,-0.0165 1.63165,-0.23246 2.20196,-0.44837 1.06531,-0.25409 2.13068,-0.50821 3.93952,-0.46603 4.51434,-0.0449 8.28515,-0.38596 12.05591,-0.72708 3.03637,-0.0642 6.07263,-0.12845 9.65026,0.27517 2.25501,1.05796 3.96863,1.64801 5.68238,2.2381 0.19153,1.05725 0.38318,2.1145 0.0955,3.67288 -3.47657,2.89972 -6.47388,5.29828 -9.4712,7.69681 -0.44555,0.15622 -0.89099,0.31241 -1.85961,0.27982 -1.06299,0.11325 -1.60291,0.41525 -2.14295,0.71728 -2.07703,0.53635 -4.15393,1.07266 -6.78772,1.37198 -1.10864,0.0395 -1.66052,0.31601 -2.21246,0.5925 -1.3797,0.22739 -2.7594,0.4548 -4.75281,0.44626 -1.4903,-0.003 -2.36688,0.23013 -3.24347,0.46323 -0.7453,0.22283 -1.49066,0.44567 -2.84949,0.44488 -1.46472,-0.0241 -2.31598,0.17532 -3.16717,0.37479 -3.07489,0.6296 -6.14984,1.25924 -9.82965,1.64373 -1.45258,0.1384 -2.30011,0.52192 -3.14771,0.9054 -0.43939,0.0815 -0.87884,0.16299 -1.76654,-0.18304 -2.99298,-3.96683 -6.75702,-3.50388 -10.40399,-3.49036 -8.6012,0.0319 -11.34406,-2.68594 -11.88147,-11.2901 -0.0998,-1.5975 -1.12036,-3.13748 -1.71606,-4.70398 -0.006,-2.37827 -0.0117,-4.75653 0.43176,-7.7258 0.4574,-2.80093 0.4657,-5.01083 0.474,-7.22076 0.004,-1.08869 0.007,-2.1774 0.4588,-3.79856 0.49768,-2.41553 0.54761,-4.29861 0.59753,-6.1817 -0.0102,-1.74304 -0.0204,-3.48605 0.44611,-5.82898 0.45941,-5.47214 0.4422,-10.34445 0.42505,-15.21673 0.0316,-4.03562 0.0632,-8.0712 0.48578,-12.65586 0.18536,-1.49145 -0.0201,-2.43387 -0.22553,-3.37628 -0.0613,-2.36667 -0.12262,-4.73337 0.19165,-7.64944 0.19751,-1.81681 0.0194,-3.08423 -0.15875,-4.35163 -0.14606,-5.69589 -0.29211,-11.39175 -0.12116,-17.89084 0.47028,-5.21107 0.81202,-9.62262 0.72693,-14.02589 -0.0969,-5.01886 -0.5744,-10.03037 -0.88653,-15.04508 0.83356,-4.16148 1.66711,-8.32298 3.14136,-12.81721 8.6958,-4.33119 16.72833,-4.2105 24.73968,-0.20126 0.37872,2.06422 0.75739,4.12846 0.927,6.74139 0.003,1.1256 0.21454,1.70248 0.42633,2.27937 0.28504,5.68489 0.57007,11.3698 0.56165,17.76287 -0.13233,1.88191 0.0288,3.05565 0.18994,4.2294 0.0629,0.43792 0.12579,0.87584 -0.14844,1.9609 -0.13086,4.44605 0.0754,8.24495 0.28174,12.04387 m -18.60126,88.9619 c -0.11053,-0.41849 -0.221,-0.83697 -0.33154,-1.2554 -0.27686,0.10266 -0.55377,0.20529 -0.83069,0.30789 0.26825,0.42255 0.5365,0.84506 1.16223,0.94751 z"
   id="path10" />
<path
   fill="#caa58a"
   opacity="1"
   stroke="none"
   d="m 382.92006,114.40569 c 1.37915,7.96452 -1.19409,14.52629 -5.37427,20.56807 -2.0575,2.97398 -4.89758,4.49852 -8.6582,2.96532 -0.60865,-0.24816 -1.27857,-0.41318 -1.93311,-0.47196 -30.16443,-2.70917 -60.37463,-4.04892 -90.66345,-2.987 -0.66492,0.0233 -1.33106,0.0834 -1.99072,0.17127 -11.03711,1.46933 -16.48121,-4.10894 -15.13587,-15.51638 1.62024,-13.73855 10.28833,-22.113293 24.85852,-23.468976 3.14319,-0.292435 4.33985,-1.573212 5.81348,-4.150818 9.46057,-16.548065 23.14502,-27.739151 42.64929,-28.960128 17.0387,-1.06659 32.51672,13.426681 34.1825,30.605209 0.27978,2.88353 1.13488,4.461151 3.82067,5.584686 6.78663,2.838917 10.80127,8.104307 12.43116,15.660707 M 353.865,81.926441 c -6.47924,-9.233689 -15.1643,-13.048615 -26.3457,-10.713089 -10.98645,2.294754 -18.92541,9.296798 -26.26038,17.153137 -5.63586,6.036621 -5.61084,7.545502 -1.79663,14.723331 0.76209,1.43414 0.0825,3.6344 0.0676,5.4814 -1.5332,-0.50832 -3.3634,-0.64392 -4.54883,-1.58861 -5.51172,-4.39209 -11.28052,-4.06876 -17.36633,-1.56436 -6.56873,2.70315 -9.67004,8.0047 -10.55347,14.61821 -0.68213,5.10713 1.62976,6.97706 6.67114,6.49838 4.78724,-0.45459 9.59961,-0.98236 14.39612,-0.93796 15.62036,0.14453 31.23877,0.52481 46.85706,0.85315 1.31824,0.0277 2.62512,0.40587 3.94604,0.51682 9.42041,0.7913 18.83521,1.70173 28.27161,2.20366 1.86499,0.0992 5.2074,-1.07666 5.48047,-2.22985 1.0741,-4.53737 2.46216,-9.64023 1.32324,-13.88679 -1.20764,-4.50324 -5.35864,-7.90613 -11.02588,-7.69651 -3.65625,0.13521 -7.32348,0.20029 -10.97766,0.0703 -1.63061,-0.058 -3.24121,-0.67305 -4.86096,-1.03528 -0.12427,-0.48474 -0.24866,-0.96948 -0.37293,-1.45422 1.88538,-1.40386 3.71424,-2.89298 5.67164,-4.188055 2.0321,-1.344574 5.531,-2.149017 5.97082,-3.824203 0.63367,-2.414978 -0.73962,-5.459397 -1.59973,-8.124375 -0.49634,-1.53804 -1.66773,-2.858184 -2.94727,-4.875106 z"
   id="path11" />
<path
   fill="#caa68b"
   opacity="1"
   stroke="none"
   d="m 476.16371,295.77433 c 12.51709,4.65731 20.3324,13.67968 25.73767,24.99038 1.56262,3.26984 3.35681,4.58521 7.10645,4.72776 15.31701,0.58236 25.42565,15.20239 22.57531,31.92422 -0.59338,3.48059 -0.25573,7.12811 -0.94177,10.58054 -0.2688,1.35254 -2.08166,3.2619 -3.34912,3.393 -4.0802,0.42212 -8.23401,0.12976 -12.35938,0.12015 -31.63635,-0.0735 -63.27368,-0.039 -94.90844,-0.30054 -6.95484,-0.0575 -13.95862,-0.80078 -20.83533,-1.8883 -7.29395,-1.15348 -8.42981,-4.98767 -3.92737,-10.90079 0.85071,-1.11737 1.16736,-2.68497 1.57373,-4.09009 3.53968,-12.24322 10.18787,-22.7829 22.04163,-27.45529 7.19897,-2.83765 10.84912,-7.15756 14.97192,-13.00751 8.23316,-11.68292 19.26404,-19.82528 34.60205,-19.4592 2.45496,0.0586 4.89368,0.79664 7.71265,1.36567 m 9.56897,14.18237 c -6.36511,-6.87076 -14.54163,-10.73724 -23.3606,-7.95438 -16.9978,5.36365 -29.86218,14.98914 -27.21167,36.39301 -1.13574,-0.91608 -1.78015,-1.21607 -2.09265,-1.72141 -3.74719,-6.05728 -7.65539,-7.38394 -15.00781,-1.66308 -6.35864,4.94769 -11.50842,10.99624 -14.00208,18.98221 -2.36816,7.58346 -1.18847,9.47662 6.5918,9.48275 30.8075,0.0243 61.61487,0.0177 92.42236,0.0428 1.99195,0.002 3.99671,0.059 5.97339,0.28433 13.88623,1.58298 15.05323,2.11643 15.70899,-14.0791 0.0201,-0.49722 -0.0142,-1 -0.0636,-1.49619 -0.68848,-6.92178 -4.34644,-11.94668 -10.61121,-14.52368 -6.31628,-2.59814 -12.40027,-1.76983 -17.45251,3.42514 -0.82898,0.85227 -2.04224,1.33063 -3.07776,1.98181 -0.39685,-0.27764 -0.79382,-0.55529 -1.19067,-0.83294 0.80065,-1.80704 1.22424,-3.95264 2.47985,-5.35114 2.66419,-2.96716 2.86524,-6.16186 0.96643,-9.17044 -2.90832,-4.60821 -6.34838,-8.88083 -10.07226,-13.79965 z"
   id="path12" />
<path
   fill="#76524e"
   opacity="1"
   stroke="none"
   d="m 674.76613,289.45169 c -5.87635,-0.0599 -11.37085,-1.8e-4 -16.82874,-0.41925 -4.45593,-0.34207 -8.00329,-2.65969 -9.52405,-6.9956 -2.44604,-6.97489 -3.38,-13.99185 2.1073,-20.1481 4.57337,-5.13098 10.12574,-7.06766 17.0398,-5.28806 2.81054,0.72342 6.03259,-0.17102 8.8551,0.52792 8.0686,1.99814 13.10327,7.32709 13.40906,13.49952 0.40014,8.074 -3.85669,14.32394 -11.92029,17.52575 -0.92749,0.36823 -1.82776,0.8053 -3.13818,1.29782 z"
   id="path13" />
<path
   fill="#7c5852"
   opacity="1"
   stroke="none"
   d="m 495.15639,103.62641 c -4.58143,4.03276 -8.94178,7.76913 -13.71351,11.85812 4.44983,1.41664 8.58948,2.51601 12.53345,4.10159 1.49902,0.60263 3.11157,2.14359 3.57825,3.60593 0.25366,0.79512 -1.57825,2.63808 -2.82788,3.4695 -9.41004,6.26083 -18.86658,12.45535 -28.43067,18.47679 -1.29651,0.81638 -3.27148,0.55556 -4.93213,0.79353 0.24341,-1.64659 0.0942,-3.4918 0.80689,-4.90114 1.8468,-3.6515 4.07336,-7.11096 6.56433,-11.35626 -3.96484,-0.84887 -7.13293,-1.62362 -10.33777,-2.19137 -5.19324,-0.92 -6.66772,-3.95696 -3.35217,-8.19396 3.68518,-4.70926 8.4834,-8.61293 11.78137,-13.54622 7.01331,-10.491299 16.9989,-5.50924 25.98255,-5.63743 0.84057,-0.012 1.71154,2.09916 2.34729,3.52092 m -31.27308,21.20837 c 1.75965,0.47614 3.50025,1.26067 5.28235,1.36991 5.11646,0.31362 4.24048,2.90541 2.49585,5.95887 -1.23657,2.16446 -2.48816,4.32039 -3.73303,6.48011 0.27075,0.16226 0.54138,0.32452 0.81213,0.48678 7.94617,-5.10185 15.89222,-10.20369 23.83838,-15.30554 -3.60779,-2.1973 -6.81958,-2.95708 -9.93774,-3.9969 -2.52625,-0.8424 -4.94007,-2.02153 -7.40381,-3.05127 1.94788,-2.12076 3.71411,-4.45497 5.89038,-6.30742 2.63208,-2.24042 5.61145,-4.07294 8.44043,-6.08196 -0.22241,-0.4132 -0.4447,-0.8264 -0.66711,-1.23959 -4.13599,0 -8.27991,-0.14362 -12.40332,0.0847 -1.29334,0.0716 -2.79908,0.87231 -3.74573,1.80712 -3.18579,3.14592 -6.20398,6.46621 -9.20752,9.79085 -2.14954,2.37932 -4.17285,4.87247 -6.88281,8.05504 3.02002,0.78761 4.73584,1.23509 7.22155,1.94934 z"
   id="path14" />
<path
   fill="#7c5852"
   opacity="1"
   stroke="none"
   d="m 218.41078,336.50919 c -2.78918,-0.46796 -5.13428,-0.89346 -7.47925,-1.319 0.646,-2.79004 0.69702,-5.9191 2.05542,-8.30316 3.35645,-5.89035 7.30725,-11.44263 11.03772,-17.11853 0.26611,-0.40476 0.65161,-0.97675 1.03479,-1.02222 6.74353,-0.80112 13.48523,-1.91956 20.25025,-2.09558 2.87158,-0.0748 2.43969,2.60797 0.84521,4.35602 -3.33313,3.65436 -6.78076,7.20425 -10.85474,11.50836 2.05933,0.32935 3.53577,0.53479 5.00013,0.80597 3.09362,0.573 6.28613,0.87097 9.23718,1.87329 2.28515,0.77615 3.7019,2.70975 1.18359,4.909 -8.88843,7.76233 -17.82165,15.47458 -26.82861,23.09845 -0.67188,0.56869 -2.64795,0.74594 -2.9917,0.30505 -0.64905,-0.83228 -1.03308,-2.42377 -0.67932,-3.3891 1.47534,-4.02673 3.26575,-7.93802 5.15149,-12.38931 -2.44226,-0.44095 -4.4801,-0.8089 -6.96216,-1.21924 m 9.03052,8.80133 c 6.50683,-5.4299 13.01367,-10.85977 19.52038,-16.28964 -0.21936,-0.46103 -0.43884,-0.92203 -0.65832,-1.38306 -3.88037,-0.53128 -7.77454,-0.98089 -11.63404,-1.63537 -1.47705,-0.25049 -2.87439,-0.96943 -4.3081,-1.47489 0.75122,-1.55972 1.16968,-3.44565 2.31738,-4.61676 3.16406,-3.22833 6.63318,-6.15753 9.98157,-9.20508 -2.48706,-0.73282 -4.12305,-0.11789 -5.70581,-0.23275 -6.86267,-0.4979 -11.31287,2.61318 -14.56006,8.49554 -2.40271,4.35242 -5.51599,8.31259 -8.92261,13.34927 5.45447,0.61887 9.36475,1.31421 13.29187,1.42722 3.0553,0.088 3.34876,1.34637 2.55738,3.75635 -0.86683,2.64013 -1.65943,5.30465 -2.78357,7.94641 0.0737,-0.0233 0.14746,-0.0465 0.90393,-0.13724 z"
   id="path15" />
<path
   fill="#7c5852"
   opacity="1"
   stroke="none"
   d="m 599.81288,346.99283 c -0.27295,1.36136 -0.46558,2.7302 -1.25281,3.42954 -7.44543,6.6134 -14.95959,13.15106 -22.55664,19.58954 -0.81689,0.69244 -2.28491,0.61682 -3.45093,0.89743 -0.14319,-1.20786 -0.72778,-2.58088 -0.34887,-3.59336 1.27282,-3.40158 2.88891,-6.67471 4.76611,-10.87494 -3.1853,-0.32714 -5.8241,-0.70785 -8.47546,-0.84704 -5.13953,-0.26981 -6.52344,-2.11768 -3.95765,-6.49722 3.50843,-5.98859 7.51526,-11.68931 11.43189,-17.42917 0.46741,-0.68473 1.67273,-1.06598 2.59412,-1.20633 4.25891,-0.6489 8.52673,-1.33008 12.81713,-1.63141 1.43506,-0.1008 2.94703,0.89169 4.42383,1.38446 -0.52466,1.29971 -0.71618,2.94272 -1.63598,3.83514 -2.82386,2.73984 -5.92664,5.19229 -9.45752,8.21607 5.96972,1.7717 10.43847,3.09793 15.10278,4.72729 m -11.18665,0.047 c -2.43542,-0.39304 -4.87072,-0.78604 -7.7163,-1.24527 0.008,-6.5824 7.67456,-7.66232 9.76171,-13.75198 -4.48681,0.69369 -9.49987,-0.0368 -11.64428,2.10485 -4.89588,4.88999 -8.38721,11.18619 -13.02625,17.72467 4.6023,0.62476 7.84705,1.38666 11.09961,1.42179 3.70361,0.04 3.82532,1.71267 2.76575,4.42761 -0.65174,1.67056 -1.28858,3.34695 -1.93213,5.02072 0.34558,0.17731 0.69104,0.35459 1.03662,0.53189 5.54858,-4.76919 11.09729,-9.53839 17.74963,-15.25616 -3.43847,-0.42908 -5.34033,-0.66638 -8.09436,-0.97812 z"
   id="path16" />
<path
   fill="#d2c6b2"
   opacity="1"
   stroke="none"
   d="m 582.99135,135.51279 c 0.35107,10.40746 0.41345,21.03778 0.45251,31.6682 0.0127,3.48306 -0.0966,6.9673 -0.0424,10.44932 0.10364,6.65827 -1.42395,8.20221 -7.99621,7.56113 -5.66639,-0.5527 -11.31971,-1.8085 -16.96936,-1.75531 -3.56702,0.0336 -7.1167,1.90158 -11.00391,3.09747 0.80225,-4.39148 3.33398,-6.46942 8.31714,-5.64645 3.84875,0.63559 7.83728,0.38144 11.75146,0.68213 1.94654,0.1495 3.9701,0.37717 5.77832,1.05258 6.4325,2.40253 8.6139,1.06149 8.62134,-5.5907 0.0136,-11.98837 -0.0122,-23.97694 0.0618,-35.9649 0.0109,-1.77829 0.47632,-3.55376 1.0293,-5.55347 z"
   id="path17" />
<path
   fill="#a2897e"
   opacity="1"
   stroke="none"
   d="m 554.615,288.12104 c 2.15992,-0.21015 4.00782,-1.40558 5.93824,-2.06406 3.55822,-1.21378 8.30969,-0.75284 11.98938,0.58737 7.91845,2.884 8.55651,2.92215 10.70214,-5.20523 2.1438,4.89249 0.9242,7.52564 -4.3551,9.95975 -6.45325,2.97531 -19.82422,1.33761 -24.27466,-3.27783 z"
   id="path18" />
<path
   fill="#d2c6b2"
   opacity="1"
   stroke="none"
   d="m 546.77479,186.60013 c -0.37097,8.5737 -0.88281,16.97885 -1.7174,25.35181 -0.68555,6.87881 -1.75415,13.71942 -2.65296,20.57693 -0.74658,-0.0715 -1.49316,-0.14303 -2.23974,-0.21457 1.01513,-11.73651 1.99121,-23.47662 3.06884,-35.20739 0.33289,-3.62317 0.94312,-7.22089 1.47144,-11.25345 0.62659,-0.0941 1.20788,0.23508 2.06982,0.74667 z"
   id="path19" />
<path
   fill="#d2c6b2"
   opacity="1"
   stroke="none"
   d="m 589.81215,285.76438 c 0.92993,0.51346 1.82922,1.4436 2.83349,2.2417 2.67725,2.12765 4.80725,5.20581 9.15357,2.10608 2.17309,-1.5499 5.21948,-1.43305 7.88171,1.45706 3.91248,4.24698 8.1261,0.0875 11.72705,-1.39643 1.74829,-0.72055 2.76355,-4.23794 3.18079,-6.65002 0.15869,-0.91757 -2.2898,-2.28604 -3.66126,-3.78513 1.82788,1.12565 4.94007,2.26835 5.44373,4.12061 0.85474,3.14218 -0.27136,6.49115 -3.89124,8.2034 -9.09118,4.30002 -18.31799,3.35953 -27.31762,0.1824 -2.22132,-0.78418 -3.57837,-4.01632 -5.35022,-6.47967 z"
   id="path20" />
<path
   fill="#d2c6b2"
   opacity="1"
   stroke="none"
   d="m 614.42933,95.554264 c -8.33496,-3.656907 -16.91735,-2.133942 -25.43298,-0.843003 -1.28723,0.195145 -2.38513,1.639542 -3.87842,2.624191 -0.77539,-4.548751 2.89868,-6.50856 6.03333,-6.608367 6.62427,-0.210938 13.30578,0.703582 19.92163,1.504165 1.23889,0.149918 2.28162,1.92154 3.35644,3.323014 z"
   id="path21" />
<path
   fill="#76524e"
   opacity="1"
   stroke="none"
   d="m 129.95003,259.84354 c 0.65057,1.13132 1.67114,2.6713 1.77093,4.2688 0.53741,8.60416 3.28027,11.32196 11.88147,11.2901 3.64697,-0.0135 7.41101,-0.47647 10.07788,3.3811 -4.7771,0.0421 -9.77087,0.26667 -14.55243,-0.63449 -6.24682,-1.17734 -7.35846,-6.89767 -8.72735,-11.97388 -0.5055,-1.87457 -0.35608,-3.92581 -0.4505,-6.33163 z"
   id="path22" />
<path
   fill="#734e4b"
   opacity="1"
   stroke="none"
   d="m 350.78639,316.36783 c -3.56006,0.25446 -5.07678,-2.25854 -3.78198,-4.60937 2.80163,-5.08667 -0.73047,-9.87674 0.25586,-14.6872 0.39111,-1.90735 1.58996,-3.64911 2.73132,-5.56741 0.52332,8.12317 0.73657,16.34756 0.7948,24.86398 z"
   id="path23" />
<path
   fill="#734e4b"
   opacity="1"
   stroke="none"
   d="m 296.48817,371.45618 c -0.55639,1.29001 -1.23095,3.155 -2.30346,3.42224 -5.83851,1.45438 -5.94922,5.2464 -4.48829,10.26233 -2.97399,-1.56119 -5.53503,-4.0021 -4.10839,-7.9032 1.75061,-4.7875 5.79785,-6.21383 10.90014,-5.78137 z"
   id="path24" />
<path
   fill="#734e4b"
   opacity="1"
   stroke="none"
   d="m 352.49037,223.00248 c -4.28394,-6.60154 -6.50024,-14.09266 -5.16711,-22.46637 1.95874,7.26849 3.61364,14.65442 5.16711,22.46637 z"
   id="path25" />
<path
   fill="#76524e"
   opacity="1"
   stroke="none"
   d="m 160.72523,125.06787 c -8.005,-3.65477 -16.03753,-3.77546 -24.45117,0.30808 0.96332,-1.27164 2.09223,-2.92706 3.64337,-3.9287 4.55023,-2.93843 16.99488,-0.86282 20.8078,3.62062 z"
   id="path26" />
<path
   fill="#76524e"
   opacity="1"
   stroke="none"
   d="m 132.64589,138.79206 c 0.51678,4.66346 0.99426,9.67497 1.09118,14.69383 0.0851,4.40327 -0.25665,8.81482 -0.64044,13.56267 -0.37219,-9.07511 -0.51385,-18.49018 -0.45074,-28.2565 z"
   id="path27" />
<path
   fill="#734e4b"
   opacity="1"
   stroke="none"
   d="m 350.27553,289.01206 c -3.76648,-1.20676 -4.4043,-4.17508 -3.67005,-7.79575 0.62171,-3.06524 1.15552,-6.14828 1.96753,-9.51562 0.7417,5.43371 1.24426,11.15957 1.70252,17.31137 z"
   id="path28" />
<path
   fill="#734e4b"
   opacity="1"
   stroke="none"
   d="m 293.04066,268.57804 c 6.14038,-1.99381 12.00086,-0.77661 17.64478,2.82245 -5.7378,-0.64615 -11.59778,-1.57523 -17.64478,-2.82245 z"
   id="path29" />
<path
   fill="#d2c6b2"
   opacity="1"
   stroke="none"
   d="m 583.91102,99.514179 c 0.23377,6.898101 0.18238,14.032351 -0.0566,21.526081 -0.20141,-6.857 -0.21496,-14.07347 0.0566,-21.526081 z"
   id="path30" />
<path
   fill="#734e4b"
   opacity="1"
   stroke="none"
   d="m 319.75087,282.75199 c 2.53552,-0.26667 4.3479,-0.36685 3.14099,3.32351 -1.20142,3.67383 -1.12476,7.76563 -1.84705,12.0048 -0.63952,-4.77729 -1.04065,-9.8852 -1.29394,-15.32831 z"
   id="path31" />
<path
   fill="#734e4b"
   opacity="1"
   stroke="none"
   d="m 326.11305,388.08725 c 3.38501,-3.84149 7.10461,-7.68313 11.14294,-11.59857 -3.39025,3.81696 -7.09936,7.7077 -11.14294,11.59857 z"
   id="path32" />
<path
   fill="#734e4b"
   opacity="1"
   stroke="none"
   d="m 320.56849,322.74854 c 0.64893,0.9953 1.54871,2.38415 1.37586,3.62341 -0.55151,3.95407 -1.50134,7.85257 -2.62708,11.91077 0.11719,-4.97754 0.56397,-10.09332 1.25122,-15.53418 z"
   id="path33" />
<path
   fill="#734e4b"
   opacity="1"
   stroke="none"
   d="m 349.32167,334.03186 c -3.74426,-3.62429 -2.63159,-7.51635 0.4425,-11.49655 0.10437,3.61243 -0.0856,7.35767 -0.4425,11.49655 z"
   id="path34" />
<path
   fill="#734e4b"
   opacity="1"
   stroke="none"
   d="m 293.52162,387.89304 c 4.52026,-0.21854 9.28809,-0.19449 14.04407,0.0568 0.72363,0.0382 1.39148,1.12995 2.15503,2.06922 -5.27198,-0.37986 -10.61365,-1.09458 -16.1991,-2.12601 z"
   id="path35" />
<path
   fill="#734e4b"
   opacity="1"
   stroke="none"
   d="m 314.42152,187.32907 c -4.86584,1.74927 -10.07202,3.33515 -15.67505,4.93259 3.99659,-4.30984 9.13929,-6.32391 15.67505,-4.93259 z"
   id="path36" />
<path
   fill="#76524e"
   opacity="1"
   stroke="none"
   d="m 132.70656,213.81736 c 0.14874,4.49075 0.16595,9.36306 -0.1344,14.42785 -0.21076,-4.55374 -0.10395,-9.30002 0.1344,-14.42785 z"
   id="path37" />
<path
   fill="#d2c6b2"
   opacity="1"
   stroke="none"
   d="m 614.44642,198.4697 c 1.78748,-0.76611 3.97181,-1.70932 6.24744,-2.30371 1.71484,-0.44788 3.54651,-0.44895 5.75391,-0.56152 -3.56995,1.00424 -7.56763,1.92114 -12.00135,2.86523 z"
   id="path38" />
<path
   fill="#734e4b"
   opacity="1"
   stroke="none"
   d="m 334.88637,193.99918 c -3.93482,-1.65973 -7.89234,-3.67142 -11.97571,-5.99097 4.79541,-0.14334 9.17761,1.11621 11.97571,5.99097 z"
   id="path39" />
<path
   fill="#734e4b"
   opacity="1"
   stroke="none"
   d="m 346.40883,198.10245 c -4.07495,0.43576 -8.33142,0.64368 -11.47388,-3.47186 3.72754,0.81348 7.52454,1.97983 11.47388,3.47186 z"
   id="path40" />
<path
   fill="#d2c6b2"
   opacity="1"
   stroke="none"
   d="m 640.6996,183.0904 c -3.68457,-0.59015 -7.44898,-1.52616 -11.55249,-2.63004 4.0592,-1.57153 8.22632,-1.86084 11.55249,2.63004 z"
   id="path41" />
<path
   fill="#76524e"
   opacity="1"
   stroke="none"
   d="m 196.11097,271.8729 c 2.65235,-2.43546 5.64966,-4.83402 8.93458,-7.35434 -0.20936,5.29172 -4.92359,5.72207 -8.93458,7.35434 z"
   id="path42" />
<path
   fill="#76524e"
   opacity="1"
   stroke="none"
   d="m 189.37489,257.80069 c -3.33655,0.49344 -7.10736,0.83454 -11.21063,0.95142 3.37048,-0.51737 7.07342,-0.81055 11.21063,-0.95142 z"
   id="path43" />
<path
   fill="#76524e"
   opacity="1"
   stroke="none"
   d="m 163.07924,169.99808 c -0.31574,-3.35686 -0.52204,-7.15576 -0.48047,-11.27853 0.36188,3.39627 0.47589,7.11638 0.48047,11.27853 z"
   id="path44" />
<path
   fill="#d2c6b2"
   opacity="1"
   stroke="none"
   d="m 629.00233,195.87461 c 2.60596,-1.17441 5.39783,-2.08347 8.56116,-2.96265 -1.89075,2.88287 -4.30908,5.30887 -8.56116,2.96265 z"
   id="path45" />
<path
   fill="#734e4b"
   opacity="1"
   stroke="none"
   d="m 317.13698,271.85788 c 3.10131,-0.29635 4.90112,3.95636 2.9309,8.3089 -1.02465,-2.5289 -1.80505,-5.29547 -2.9309,-8.3089 z"
   id="path46" />
<path
   fill="#d2c6b2"
   opacity="1"
   stroke="none"
   d="m 623.70643,179.64667 c -3.09069,0.0255 -6.38977,-0.24707 -9.71142,-0.90744 3.15271,-0.0554 6.328,0.27704 9.71142,0.90744 z"
   id="path47" />
<path
   fill="#76524e"
   opacity="1"
   stroke="none"
   d="m 169.38917,259.72657 c -2.52722,0.43631 -5.46972,0.83624 -8.48608,0.91073 2.64099,-0.53262 5.3559,-0.73987 8.48608,-0.91073 z"
   id="path48" />
<path
   fill="#76524e"
   opacity="1"
   stroke="none"
   d="m 130.68672,244.77768 c 0.21564,1.89405 0.20734,4.10395 -0.091,6.48712 -0.23774,-1.94155 -0.18537,-4.05642 0.091,-6.48712 z"
   id="path49" />
<path
   fill="#734e4b"
   opacity="1"
   stroke="none"
   d="m 308.35805,371.82474 c -1.81763,0.24661 -4.07508,0.44318 -6.45533,0.39978 1.92322,-0.30987 3.96936,-0.37982 6.45533,-0.39978 z"
   id="path50" />
<path
   fill="#76524e"
   opacity="1"
   stroke="none"
   d="m 131.75441,234.79129 c 0.16266,1.57334 0.11273,3.45642 -0.22858,5.49302 -0.18896,-1.62543 -0.0866,-3.40433 0.22858,-5.49302 z"
   id="path51" />
<path
   fill="#734e4b"
   opacity="1"
   stroke="none"
   d="m 349.74513,239.49601 c -2.10535,-1.39432 -2.90942,-2.92173 0.63074,-4.04575 0.10718,1.24228 -0.15711,2.51752 -0.63074,4.04575 z"
   id="path52" />
<path
   fill="#76524e"
   opacity="1"
   stroke="none"
   d="m 161.90162,234.06519 c -0.2138,-1.54111 -0.26825,-3.41992 -0.0588,-5.48312 0.24859,1.59222 0.23339,3.36883 0.0588,5.48312 z"
   id="path53" />
<path
   fill="#d2c6b2"
   opacity="1"
   stroke="none"
   d="m 614.87416,116.17136 c -0.26514,-1.56807 -0.29932,-3.41103 -0.19287,-5.50082 0.2351,1.57743 0.32959,3.40168 0.19287,5.50082 z"
   id="path54" />
<path
   fill="#76524e"
   opacity="1"
   stroke="none"
   d="m 205.26185,260.17459 c -1.83386,-0.2984 -3.54748,-0.88845 -5.38403,-1.76239 1.70593,0.24448 3.53467,0.77283 5.75342,1.27259 0.38989,-0.0285 0.3313,-0.0501 0.32153,-0.0701 -0.19678,0.0761 -0.38379,0.17221 -0.69092,0.5599 z"
   id="path55" />
<path
   fill="#734e4b"
   opacity="1"
   stroke="none"
   d="m 352.24672,229.22306 c -1.06287,-0.32386 -1.94239,-0.91544 -2.8219,-1.50696 0.75574,-0.43427 1.51159,-0.86853 2.58948,-1.3103 0.35327,0.84484 0.38464,1.69717 0.23242,2.81726 z"
   id="path56" />
<path
   fill="#734e4b"
   opacity="1"
   stroke="none"
   d="m 348.68348,264.07376 c -2.13085,-0.23764 -3.61389,-1.05862 -1.23657,-3.46179 0.60034,0.92963 0.94544,2.021 1.23657,3.46179 z"
   id="path57" />
<path
   fill="#a2897e"
   opacity="1"
   stroke="none"
   d="m 580.38539,264.2312 c -0.34802,-1.22262 -0.63635,-2.82531 -0.74268,-4.62231 0.38892,1.28455 0.59571,2.7634 0.74268,4.62231 z"
   id="path58" />
<path
   fill="#734e4b"
   opacity="1"
   stroke="none"
   d="m 316.61928,351.69669 c -0.16089,1.32037 -0.52185,2.90762 -1.16163,4.61304 0.13477,-1.36997 0.54822,-2.85807 1.16163,-4.61304 z"
   id="path59" />
<path
   fill="#d2c6b2"
   opacity="1"
   stroke="none"
   d="m 615.0558,248.14829 c -0.33972,-0.89603 -0.48865,-2.04923 -0.5293,-3.47699 0.31201,0.89026 0.51587,2.05505 0.5293,3.47699 z"
   id="path60" />
<path
   fill="#d2c6b2"
   opacity="1"
   stroke="none"
   d="m 616.07277,260.14524 c -0.37451,-0.9029 -0.55847,-2.06241 -0.58875,-3.48542 0.36218,0.90061 0.57068,2.0647 0.58875,3.48542 z"
   id="path61" />
<path
   fill="#76524e"
   opacity="1"
   stroke="none"
   d="m 162.93898,156.16123 c -0.26361,-0.89961 -0.42475,-2.07335 -0.37299,-3.49266 0.30042,0.90913 0.38794,2.06384 0.37299,3.49266 z"
   id="path62" />
<path
   fill="#a2897e"
   opacity="1"
   stroke="none"
   d="m 582.90223,279.00528 c -0.58093,-0.78027 -1.13378,-1.91632 -1.48779,-3.30639 0.63782,0.81418 1.07691,1.88238 1.48779,3.30639 z"
   id="path63" />
<path
   fill="#76524e"
   opacity="1"
   stroke="none"
   d="m 133.05311,185.80045 c 0.25629,0.86957 0.43445,2.13699 0.32813,3.51831 -0.32507,-0.96423 -0.36566,-2.04236 -0.32813,-3.51831 z"
   id="path64" />
<path
   fill="#734e4b"
   opacity="1"
   stroke="none"
   d="m 320.61708,300.62894 c 0.31152,0.65845 0.43689,1.5213 0.35461,2.59241 -0.31872,-0.65717 -0.42981,-1.52259 -0.35461,-2.59241 z"
   id="path65" />
<path
   fill="#76524e"
   opacity="1"
   stroke="none"
   d="m 133.01307,197.78022 c 0.29078,0.56588 0.49622,1.5083 0.43958,2.55307 -0.34967,-0.65729 -0.43726,-1.41693 -0.43958,-2.55307 z"
   id="path66" />
<path
   fill="#d2c6b2"
   opacity="1"
   stroke="none"
   d="m 641.73378,187.444 c -0.2843,-0.69104 -0.33985,-1.51767 -0.38672,-2.75979 0.21081,0.59775 0.41308,1.61099 0.38672,2.75979 z"
   id="path67" />
<path
   fill="#734e4b"
   opacity="1"
   stroke="none"
   d="m 347.73854,256.04428 c -0.29065,-0.55993 -0.53284,-1.49658 -0.49768,-2.53167 0.36694,0.65268 0.45666,1.40381 0.49768,2.53167 z"
   id="path68" />
<path
   fill="#76524e"
   opacity="1"
   stroke="none"
   d="m 156.08607,279.1174 c 0.53449,-0.42504 1.38202,-0.80856 2.44275,-1.00781 -0.56775,0.4726 -1.34869,0.76099 -2.44275,1.00781 z"
   id="path69" />
<path
   fill="#76524e"
   opacity="1"
   stroke="none"
   d="m 168.99257,276.63218 c 0.60894,-0.30494 1.4602,-0.5044 2.53369,-0.51203 -0.6156,0.33374 -1.45349,0.47559 -2.53369,0.51203 z"
   id="path70" />
<path
   fill="#76524e"
   opacity="1"
   stroke="none"
   d="m 175.06337,275.82688 c 0.5802,-0.35294 1.45678,-0.586 2.52429,-0.62738 -0.61542,0.37683 -1.42163,0.56204 -2.52429,0.62738 z"
   id="path71" />
<path
   fill="#734e4b"
   opacity="1"
   stroke="none"
   d="m 318.6122,340.67875 c 0.17273,0.66964 0.16894,1.59945 -0.0908,2.64032 -0.19922,-0.71937 -0.14258,-1.54978 0.0908,-2.64032 z"
   id="path72" />
<path
   fill="#76524e"
   opacity="1"
   stroke="none"
   d="m 160.83461,245.11399 c -0.21124,-0.62387 -0.27832,-1.521 -0.13819,-2.56687 0.23224,0.66538 0.25733,1.4795 0.13819,2.56687 z"
   id="path73" />
<path
   fill="#734e4b"
   opacity="1"
   stroke="none"
   d="m 348.96437,269.20966 c -0.30103,-0.64337 -0.44458,-1.50305 -0.38526,-2.57498 0.31617,0.64474 0.42945,1.50171 0.38526,2.57498 z"
   id="path74" />
<path
   fill="#734e4b"
   opacity="1"
   stroke="none"
   d="m 348.02455,245.18668 c -0.11804,-0.71387 -0.007,-1.66223 0.39477,-2.68964 0.13843,0.76569 -0.0136,1.61045 -0.39477,2.68964 z"
   id="path75" />
<path
   fill="#734e4b"
   opacity="1"
   stroke="none"
   d="m 285.59364,261.81687 c 0.67127,0.36847 1.4115,1.03546 2.17798,2.03735 -0.68555,-0.35635 -1.39722,-1.04758 -2.17798,-2.03735 z"
   id="path76" />
<path
   fill="#734e4b"
   opacity="1"
   stroke="none"
   d="m 348.89174,339.18225 c -0.18714,-0.37551 -0.22229,-0.97009 -0.0659,-1.6694 0.20019,0.41364 0.20898,0.93201 0.0659,1.6694 z"
   id="path77" />
<path
   fill="#734e4b"
   opacity="1"
   stroke="none"
   d="m 313.56056,362.61161 c 0.0842,0.42663 -0.0236,1.05978 -0.38257,1.75116 -0.104,-0.47605 0.0433,-1.01035 0.38257,-1.75116 z"
   id="path78" />
<path
   fill="#734e4b"
   opacity="1"
   stroke="none"
   d="m 320.03224,389.70594 c 0.30017,-0.30301 0.85144,-0.51667 1.55164,-0.58042 -0.33411,0.32321 -0.81739,0.49649 -1.55164,0.58042 z"
   id="path79" />
<path
   fill="#734e4b"
   opacity="1"
   stroke="none"
   d="m 344.57765,359.05625 c -0.0985,-0.61804 0.0249,-1.45713 0.43726,-2.47055 0.12097,0.6336 -0.0472,1.44156 -0.43726,2.47055 z"
   id="path80" />
<path
   fill="#734e4b"
   opacity="1"
   stroke="none"
   d="m 311.96791,390.54029 c 0.37439,-0.24179 0.92773,-0.36283 1.64892,-0.30808 -0.37817,0.2601 -0.92419,0.34448 -1.64892,0.30808 z"
   id="path81" />
<path
   fill="#734e4b"
   opacity="1"
   stroke="none"
   d="m 320.98768,310.74253 c 0.23609,0.29623 0.37281,0.92193 0.27295,1.61386 -0.28186,-0.38397 -0.32715,-0.83417 -0.27295,-1.61386 z"
   id="path82" />
<path
   fill="#a2897e"
   opacity="1"
   stroke="none"
   d="m 553.0536,285.58338 c 0.4961,0.30206 0.9928,0.89911 1.41821,1.80456 -0.52001,-0.29757 -0.96875,-0.90356 -1.41821,-1.80456 z"
   id="path83" />
<path
   fill="#76524e"
   opacity="1"
   stroke="none"
   d="m 183.02577,274.85807 c 0.28943,-0.33701 0.84131,-0.6135 1.552,-0.73514 -0.32385,0.36844 -0.8067,0.58203 -1.552,0.73514 z"
   id="path84" />
<path
   fill="#76524e"
   opacity="1"
   stroke="none"
   d="m 192.03065,272.86975 c 0.27283,-0.33871 0.81275,-0.64071 1.51807,-0.79733 -0.30676,0.375 -0.77881,0.60452 -1.51807,0.79733 z"
   id="path85" />
<path
   fill="#76524e"
   opacity="1"
   stroke="none"
   d="m 173.558,259.05014 c -0.31464,0.31189 -0.88489,0.52784 -1.60352,0.57901 0.35028,-0.33483 0.84906,-0.50491 1.60352,-0.57901 z"
   id="path86" />
<path
   fill="#734e4b"
   opacity="1"
   stroke="none"
   d="m 282.99965,255.69663 c 0.40722,0.255 0.79528,0.79349 1.02197,1.51236 -0.45471,-0.28937 -0.74805,-0.7591 -1.02197,-1.51236 z"
   id="path87" />
<path
   fill="#734e4b"
   opacity="1"
   stroke="none"
   d="m 281.22938,247.6702 c 0.3335,0.29855 0.61707,0.86188 0.73145,1.58591 -0.37329,-0.33322 -0.57727,-0.82718 -0.73145,-1.58591 z"
   id="path88" />
<path
   fill="#76524e"
   opacity="1"
   stroke="none"
   d="m 162.87819,217.22971 c -0.21405,-0.38528 -0.30579,-0.94885 -0.2121,-1.67361 0.23511,0.39102 0.28473,0.94317 0.2121,1.67361 z"
   id="path89" />
<path
   fill="#d2c6b2"
   opacity="1"
   stroke="none"
   d="m 639.98109,192.37345 c 0.007,-0.50455 0.28113,-1.00769 0.75134,-1.72248 -0.0308,0.43357 -0.25793,1.07871 -0.75134,1.72248 z"
   id="path90" />
<path
   fill="#76524e"
   opacity="1"
   stroke="none"
   d="m 162.20717,134.19381 c -0.33405,-0.3276 -0.54584,-0.90448 -0.58753,-1.62847 0.34992,0.36165 0.52985,0.87041 0.58753,1.62847 z"
   id="path91" />
<path
   fill="#eae4cd"
   opacity="1"
   stroke="none"
   d="m 481.65895,236.24674 c -1.82398,5.4443 -3.52039,10.48617 -5.21668,15.52807 -0.78772,-0.19052 -1.57531,-0.38104 -2.36303,-0.57156 -3.47046,-14.46063 0.32751,-28.25436 4.4403,-42.55429 3.93921,5.49167 5.22156,17.4444 3.13941,27.59778 z"
   id="path92" />
<path
   fill="#734e4b"
   opacity="1"
   stroke="none"
   d="m 331.57704,292.52893 c 1.72742,0.65351 3.02136,1.41675 4.41528,1.87748 3.90735,1.29141 4.27857,3.55209 2.30481,6.8713 -1.08764,1.82877 -1.47436,4.11005 -2.70202,5.8078 -0.87745,1.21357 -2.62696,1.7966 -3.98731,2.66098 -0.86682,-1.40875 -2.02368,-2.7225 -2.52453,-4.25116 -0.57837,-1.76553 -0.61854,-3.71624 -0.82068,-5.59423 -0.3191,-2.96436 -2.02417,-6.50882 3.31445,-7.37217 z"
   id="path93" />
<path
   fill="#eae4cd"
   opacity="1"
   stroke="none"
   d="m 311.41517,237.40915 c 0.85779,-5.2337 1.71558,-10.46743 2.77271,-16.00125 0.46484,-0.10791 0.76111,-0.0186 1.08838,-0.0321 0.30847,7.23114 0.84289,14.4638 0.79431,21.69253 -0.0156,2.31925 -1.57202,4.62815 -2.76355,6.71857 -0.59656,-0.66245 -0.85291,-1.10172 -1.10925,-1.54099 -0.13941,-1.02166 -0.27869,-2.04333 -0.47547,-3.88079 -0.14074,-2.86252 -0.22387,-4.90924 -0.30713,-6.956 z"
   id="path94" />
<path
   fill="#734e4b"
   opacity="1"
   stroke="none"
   d="m 338.5702,286.59113 c -1.30566,1.39352 -2.67407,2.41754 -4.04235,3.44162 -0.76612,-1.46222 -2.0813,-2.89096 -2.17286,-4.39435 -0.14587,-2.39355 0.52344,-4.83682 2.06128,-7.75854 1.36377,2.78061 2.72754,5.56118 4.15393,8.71127 z"
   id="path95" />
<path
   fill="#734e4b"
   opacity="1"
   stroke="none"
   d="m 336.28785,322.01935 c -0.63745,3.67758 -1.58593,7.23508 -2.53442,10.7926 -0.56836,-0.1719 -1.13684,-0.34381 -1.70532,-0.51571 1.32629,-3.46082 -1.29834,-8.05951 4.23974,-10.27689 z"
   id="path96" />
<path
   fill="#734e4b"
   opacity="1"
   stroke="none"
   d="m 311.11097,237.53586 c 0.38746,1.92005 0.47059,3.96677 0.50928,6.45163 -4.33948,-1.35705 -3.04333,-3.7879 -0.50928,-6.45163 z"
   id="path97" />
<path
   fill="#734e4b"
   opacity="1"
   stroke="none"
   d="m 334.30336,315.417 c 0.80261,0.72287 1.39612,1.68478 1.9895,2.64666 -0.63709,0.2681 -1.27405,0.5362 -1.91101,0.80426 -0.0959,-1.07061 -0.1919,-2.14126 -0.0785,-3.45092 z"
   id="path98" />
<path
   fill="#734e4b"
   opacity="1"
   stroke="none"
   d="m 331.57448,352.41282 c -0.72388,0.5997 -1.44812,0.86987 -2.17249,1.14004 -0.002,-0.75552 -0.003,-1.51102 -0.005,-2.26654 0.72571,0.26566 1.45154,0.53131 2.17774,1.1265 z"
   id="path99" />
<path
   fill="#734e4b"
   opacity="1"
   stroke="none"
   d="m 315.39943,220.99198 c -0.45044,0.39734 -0.74671,0.30801 -1.23352,0.0334 -0.10315,-0.96331 0.0154,-1.8442 0.13379,-2.72512 0.24523,-0.016 0.49035,-0.032 0.73559,-0.0479 0.16248,0.78528 0.32483,1.57053 0.36414,2.73963 z"
   id="path100" />
<path
   fill="#734e4b"
   opacity="1"
   stroke="none"
   d="m 328.14235,274.15024 c 0.25842,-0.49612 0.57409,-0.75818 0.88989,-1.02026 0.11536,0.41809 0.23059,0.83618 0.34595,1.25424 -0.39283,3e-5 -0.78565,6e-5 -1.23584,-0.23398 z"
   id="path101" />
<path
   fill="#734e4b"
   opacity="1"
   stroke="none"
   d="m 311.94984,248.43656 c 0.50427,0.24865 0.76062,0.68792 1.02002,1.3894 -0.50354,0.43625 -1.01013,0.61035 -1.51672,0.78446 0.083,-0.66108 0.16589,-1.32218 0.4967,-2.17386 z"
   id="path102" />
<path
   fill="#734e4b"
   opacity="1"
   stroke="none"
   d="m 295.45765,245.68378 c 0.0615,-0.3143 0.23975,-0.50372 0.41797,-0.69318 0.0996,0.10718 0.19934,0.21439 0.29895,0.32157 -0.20019,0.16549 -0.40026,0.33096 -0.71692,0.37161 z"
   id="path103" />
<path
   fill="#734e4b"
   opacity="1"
   stroke="none"
   d="m 296.82997,226.99613 c 0.18286,0.26358 0.19299,0.52322 0.203,0.78283 -0.14648,-0.004 -0.29309,-0.007 -0.43957,-0.0106 0.0212,-0.25872 0.0426,-0.51745 0.23657,-0.77218 z"
   id="path104" />
<path
   fill="#734e4b"
   opacity="1"
   stroke="none"
   d="m 299.52406,215.08744 c 0.31433,0.0618 0.50366,0.24026 0.69312,0.41867 -0.1073,0.0996 -0.21473,0.19919 -0.32203,0.29879 -0.1654,-0.20025 -0.33081,-0.40057 -0.37109,-0.71746 z"
   id="path105" />
<path
   fill="#efead2"
   opacity="1"
   stroke="none"
   d="m 234.91005,241.29691 c -0.006,-12.5639 2.90466,-23.88507 8.6261,-34.91003 10.69055,13.67843 8.47668,41.01589 -3.90357,50.30105 -4.76404,-3.96777 -4.06409,-9.68381 -4.72253,-15.39102 z"
   id="path106" />
<path
   fill="#76524e"
   opacity="1"
   stroke="none"
   d="m 144.18983,259.56208 c -0.44702,-0.26249 -0.71527,-0.685 -0.98352,-1.10752 0.27692,-0.10263 0.55383,-0.20526 0.83069,-0.30792 0.11054,0.41843 0.22101,0.83691 0.15283,1.41544 z"
   id="path107" />
<path
   fill="#b0c8d1"
   opacity="1"
   stroke="none"
   d="m 354.07094,82.225788 c 1.0736,1.717575 2.24499,3.037719 2.74133,4.575759 0.86011,2.664978 2.2334,5.709397 1.59973,8.124375 -0.43982,1.675186 -3.93872,2.479629 -5.97082,3.824203 -1.9574,1.295075 -3.78626,2.784195 -5.67164,4.188055 0.12427,0.48474 0.24866,0.96948 0.37293,1.45422 1.61975,0.36223 3.23035,0.97728 4.86096,1.03528 3.65418,0.12997 7.32141,0.0649 10.97766,-0.0703 5.66724,-0.20962 9.81824,3.19327 11.02588,7.69651 1.13892,4.24656 -0.24914,9.34942 -1.32324,13.88679 -0.27307,1.15319 -3.61548,2.32903 -5.48047,2.22985 -9.4364,-0.50193 -18.8512,-1.41236 -28.27161,-2.20366 -1.32092,-0.11095 -2.6278,-0.48911 -3.94604,-0.51682 -15.61829,-0.32834 -31.2367,-0.70862 -46.85706,-0.85315 -4.79651,-0.0444 -9.60888,0.48337 -14.39612,0.93796 -5.04138,0.47868 -7.35327,-1.39125 -6.67114,-6.49838 0.88343,-6.61351 3.98474,-11.91506 10.55347,-14.61821 6.08581,-2.5044 11.85461,-2.82773 17.36633,1.56436 1.18543,0.94469 3.01563,1.08029 4.54883,1.58861 0.0149,-1.847 0.69446,-4.04726 -0.0676,-5.4814 -3.81421,-7.177829 -3.83923,-8.68671 1.79663,-14.723331 7.33497,-7.856339 15.27393,-14.858383 26.26038,-17.153137 11.1814,-2.335526 19.86646,1.4794 26.55164,11.012436 z"
   id="path108" />
<path
   fill="#b0c8d1"
   opacity="1"
   stroke="none"
   d="m 485.98744,310.20859 c 3.46912,4.66693 6.90918,8.93955 9.8175,13.54776 1.89881,3.00858 1.69776,6.20328 -0.96643,9.17044 -1.25561,1.3985 -1.6792,3.5441 -2.47985,5.35114 0.39685,0.27765 0.79382,0.5553 1.19067,0.83294 1.03552,-0.65118 2.24878,-1.12954 3.07776,-1.98181 5.05224,-5.19497 11.13623,-6.02328 17.45251,-3.42514 6.26477,2.577 9.92273,7.6019 10.61121,14.52368 0.0494,0.49619 0.0837,0.99897 0.0636,1.49619 -0.65576,16.19553 -1.82276,15.66208 -15.70899,14.0791 -1.97668,-0.22537 -3.98144,-0.28271 -5.97339,-0.28433 -30.80749,-0.0251 -61.61486,-0.0184 -92.42236,-0.0428 -7.78027,-0.006 -8.95996,-1.89929 -6.5918,-9.48275 2.49366,-7.98597 7.64344,-14.03452 14.00208,-18.98221 7.35242,-5.72086 11.26062,-4.3942 15.00781,1.66308 0.3125,0.50534 0.95691,0.80533 2.09265,1.72141 -2.65051,-21.40387 10.21387,-31.02936 27.21167,-36.39301 8.81897,-2.78286 16.99549,1.08362 23.61536,8.20627 z"
   id="path109" />
<path
   fill="#ecc985"
   opacity="1"
   stroke="none"
   d="m 463.49843,124.70139 c -2.10083,-0.58086 -3.81665,-1.02834 -6.83667,-1.81595 2.70996,-3.18257 4.73327,-5.67572 6.88281,-8.05504 3.00354,-3.32464 6.02173,-6.64493 9.20752,-9.79085 0.94665,-0.93481 2.45239,-1.73555 3.74573,-1.80712 4.12341,-0.22828 8.26733,-0.0847 12.40332,-0.0847 0.22241,0.41319 0.4447,0.82639 0.66711,1.23959 -2.82898,2.00902 -5.80835,3.84154 -8.44043,6.08196 -2.17627,1.85245 -3.9425,4.18666 -5.89038,6.30739 2.46374,1.02977 4.87756,2.2089 7.40381,3.0513 3.11816,1.03982 6.32995,1.7996 9.93774,3.9969 -7.94616,5.10185 -15.89221,10.20369 -23.83838,15.30554 -0.27075,-0.16226 -0.54138,-0.32452 -0.81213,-0.48678 1.24487,-2.15972 2.49646,-4.31565 3.73303,-6.48011 1.74463,-3.05346 2.62061,-5.64525 -2.49585,-5.95887 -1.7821,-0.10924 -3.5227,-0.89377 -5.66723,-1.5033 z"
   id="path110" />
<path
   fill="#ecc985"
   opacity="1"
   stroke="none"
   d="m 226.83668,345.4599 c 0.82483,-2.6539 1.61743,-5.31842 2.48426,-7.95855 0.79138,-2.40998 0.49792,-3.66837 -2.55738,-3.75635 -3.92712,-0.11301 -7.8374,-0.80835 -13.29187,-1.42722 3.40662,-5.03668 6.5199,-8.99685 8.92261,-13.34927 3.24719,-5.88236 7.69739,-8.99344 14.56006,-8.49554 1.58276,0.11486 3.21875,-0.50007 5.70581,0.23275 -3.34839,3.04755 -6.81751,5.97675 -9.98157,9.20508 -1.1477,1.17111 -1.56616,3.05704 -2.31738,4.61676 1.43371,0.50546 2.83105,1.2244 4.3081,1.47489 3.8595,0.65448 7.75367,1.10409 11.63404,1.63537 0.21948,0.46103 0.43896,0.92203 0.65832,1.38306 -6.50671,5.42987 -13.01355,10.85974 -19.84289,16.34451 -0.32251,0.0549 -0.28211,0.0945 -0.28211,0.0945 z"
   id="path111" />
<path
   fill="#ecc985"
   opacity="1"
   stroke="none"
   d="m 226.77748,345.39917 c -0.0926,0.002 -0.16638,0.0253 -0.0905,0.0547 0.14966,0.006 0.10926,-0.0335 0.0905,-0.0547 z"
   id="path112" />
<path
   fill="#ecc985"
   opacity="1"
   stroke="none"
   d="m 589.05238,347.077 c 2.32788,0.27454 4.22974,0.51184 7.66821,0.94092 -6.65234,5.71777 -12.20105,10.48697 -17.74963,15.25616 -0.34558,-0.1773 -0.69104,-0.35458 -1.03662,-0.53189 0.64355,-1.67377 1.28039,-3.35016 1.93213,-5.02072 1.05957,-2.71494 0.93786,-4.38763 -2.76575,-4.42761 -3.25256,-0.0351 -6.49731,-0.79703 -11.09961,-1.42179 4.63904,-6.53848 8.13037,-12.83468 13.02625,-17.72467 2.14441,-2.14169 7.15747,-1.41116 11.64428,-2.10485 -2.08715,6.08966 -9.75378,7.16958 -9.76171,13.75198 2.84558,0.45923 5.28088,0.85223 8.14245,1.28247 z"
   id="path113" />
</svg>
