<?xml version="1.0" encoding="UTF-8" standalone="no"?>
<svg
   version="1.1"
   width="710"
   height="300"
   id="svg23"
   sodipodi:docname="Password.svg"
   inkscape:version="1.4.2 (f4327f4, 2025-05-13)"
   xmlns:inkscape="http://www.inkscape.org/namespaces/inkscape"
   xmlns:sodipodi="http://sodipodi.sourceforge.net/DTD/sodipodi-0.dtd"
   xmlns="http://www.w3.org/2000/svg"
   xmlns:svg="http://www.w3.org/2000/svg">
  <defs
     id="defs23" />
  <sodipodi:namedview
     id="namedview23"
     pagecolor="#ffffff"
     bordercolor="#000000"
     borderopacity="0.25"
     inkscape:showpageshadow="2"
     inkscape:pageopacity="0.0"
     inkscape:pagecheckerboard="0"
     inkscape:deskcolor="#d1d1d1"
     inkscape:zoom="0.45464768"
     inkscape:cx="1321.9027"
     inkscape:cy="938.08903"
     inkscape:window-width="2560"
     inkscape:window-height="1494"
     inkscape:window-x="-11"
     inkscape:window-y="-11"
     inkscape:window-maximized="1"
     inkscape:current-layer="svg23" />
  <path
     d="m 105.28998,46.998661 c 1.0725,0.70125 2.145,1.4025 3.25,2.125 0.88688,0.5775 1.77375,1.155 2.6875,1.75 5.36468,5.21968 8.37083,10.980483 8.51563,18.480468 0.0212,1.652282 0.0366,3.304646 0.0469,4.957032 0.0206,0.812754 0.0413,1.625507 0.0625,2.46289 0.0934,14.666476 -7.92009,27.615429 -17.3125,38.349609 -0.72445,0.84563 -1.4489,1.69125 -2.19531,2.5625 -7.726628,8.83043 -16.10966,15.87562 -25.804686,22.4375 -1.814448,1.26805 -3.626993,2.53883 -5.4375,3.8125 -2.505171,1.75724 -5.016159,3.48994 -7.5625,5.1875 -0.06475,2.99391 0.05455,5.78036 0.300781,8.75391 0.830274,12.76226 0.885329,25.49525 0.884522,38.281 0.0022,3.94876 0.02056,7.89724 0.03931,11.84595 0.0029,2.52799 0.0049,5.05599 0.0059,7.58398 0.0072,1.17184 0.01437,2.34367 0.02177,3.55101 -0.03555,12.63035 -0.03555,12.63035 -3.767868,16.59353 -3.723312,2.44866 -7.126779,4.22151 -11.484375,5.39062 -0.33,-0.99 -0.66,-1.98 -1,-3 -1.069277,0.087 -1.069277,0.087 -2.160156,0.17578 -5.849748,0.27556 -9.778828,0.0255 -14.597657,-3.39844 -3.388144,-4.84781 -2.359485,-12.71474 -2.304687,-18.39062 0.0089,-1.89591 0.01771,-3.79183 0.02637,-5.68774 0.0094,-1.47463 0.0094,-1.47463 0.01892,-2.97904 0.07999,-14.09219 0.149634,-28.19415 -0.232788,-42.28244 -0.01418,-1.03101 -0.02836,-2.06202 -0.04297,-3.12427 -0.05759,-5.31368 -0.05759,-5.31368 -2.765625,-9.6726 -0.640664,-0.54141 -1.281328,-1.08282 -1.941406,-1.64063 -0.207031,-2.32422 -0.207031,-2.32422 0.1875,-4.6875 0.117305,-0.78762 0.234609,-1.57523 0.355469,-2.38672 0.457031,-1.92578 0.457031,-1.92578 1.457031,-2.92578 0.162206,-1.83142 0.162206,-1.83142 0.125,-4 0.0039,-1.08281 0.0039,-1.08281 0.0078,-2.1875 -0.109479,-2.31838 -0.341551,-4.53354 -0.635009,-6.83179 -0.582655,-5.17248 -0.624761,-10.28431 -0.595459,-15.48462 0.0014,-0.96389 0.0028,-1.92778 0.0043,-2.92088 0.0055,-3.04594 0.01809,-6.0918 0.03087,-9.13771 0.005,-2.078774 0.0096,-4.15755 0.01367,-6.236327 0.01096,-5.067087 0.02819,-10.134117 0.04883,-15.201172 -0.66,0 -1.32,0 -2,0 -1.677585,-5.067704 -0.11212,-9.262399 2,-14 15.868495,-22.630638 57.683145,-29.445336 81.749993,-18.125 z M 54.89472,74.392459 c -3.422897,4.374079 -1.509829,12.248416 -0.968017,17.428467 0.493431,3.858631 1.040961,7.705046 1.613281,11.552734 0.193478,1.34234 0.386191,2.68479 0.578125,4.02734 0.466482,3.24205 0.940566,6.48279 1.421875,9.72266 1.65,-0.66 3.3,-1.32 5,-2 0,-0.66 0,-1.32 0,-2 0.639375,-0.26812 1.27875,-0.53625 1.9375,-0.8125 2.393817,-1.07418 2.393817,-1.07418 3.0625,-4.1875 0.86625,-0.39832 0.86625,-0.39832 1.75,-0.80469 3.24524,-1.72403 5.09302,-4.4324 7.25,-7.320309 0.442068,-0.587491 0.884136,-1.174981 1.339599,-1.780274 5.068112,-6.85048 9.093102,-13.261657 8.660401,-22.094726 -0.900444,-3.867679 -2.225803,-7.451607 -4,-11 -9.86094,-0.493047 -19.836159,3.246552 -27.645264,9.268798 z"
     fill="#6e4946"
     id="path1" />
  <path
     d="m 596.91498,42.123661 c 3.15055,1.200207 4.18647,2.606154 5.65723,5.596923 5.84293,14.508568 5.79321,29.146373 6.15527,44.590577 0.0747,2.590866 0.15096,5.181686 0.22876,7.772459 0.34573,11.85697 0.60923,23.71508 0.81812,35.5752 -0.35179,48.6992 -0.35179,48.6992 13.76562,94.46484 3.22328,6.16185 4.95044,10.11612 3,17 -2.5166,3.12876 -5.08974,5.84992 -9,7 -3.125,-0.25 -3.125,-0.25 -7,-1 -1.22009,-0.17016 -1.22009,-0.17016 -2.46484,-0.34375 -5.94873,-0.93033 -9.35734,-2.25855 -13.53516,-6.65625 0,-0.66 0,-1.32 0,-2 -0.99,-0.33 -1.98,-0.66 -3,-1 -3.47992,-5.01519 -5.23904,-11.21536 -7,-17 -0.28101,-0.92168 -0.56203,-1.84336 -0.85156,-2.79297 -0.7244,-2.4 -1.44052,-4.80213 -2.14844,-7.20703 -1.2839,0.21012 -2.56781,0.42024 -3.89062,0.63672 -5.33675,0.58821 -9.73907,-0.37469 -14.85938,-1.82422 -0.82371,-0.20947 -1.64742,-0.41894 -2.49609,-0.63476 -8.17621,-2.21851 -13.46421,-6.81213 -17.88672,-14.0254 -6.34709,-11.82439 -6.93142,-26.85274 -3.32959,-39.66552 3.66751,-11.56465 8.28457,-20.37753 18.4624,-27.48682 6.19242,-2.82031 10.64489,-1.73866 17,0 0.29853,-3.33275 0.5883,-6.66621 0.875,-10 0.13644,-1.58349 0.13644,-1.58349 0.27564,-3.19897 0.52801,-6.32752 0.97412,-12.65294 1.32202,-18.99244 0.0391,-0.69435 0.0782,-1.388699 0.11853,-2.104091 0.19146,-3.406986 0.37243,-6.813539 0.53528,-10.222076 0.73628,-13.323831 2.64116,-25.531896 8.87353,-37.482422 0.66758,-1.332881 1.33456,-2.666054 2,-4 0.66,0 1.32,0 2,0 0.28875,-0.639375 0.5775,-1.27875 0.875,-1.9375 1.5106,-2.769425 2.37349,-3.0625 5.5,-3.0625 z m -22.375,115.999999 c -3.44143,8.11194 -4.28602,16.17742 -2,24.75 0.33,0.7425 0.66,1.485 1,2.25 2.28174,-1.81799 2.28174,-1.81799 4,-5 0.22028,-3.82392 -0.26487,-7.52124 -0.75,-11.3125 -0.17015,-1.54011 -0.17015,-1.54011 -0.34375,-3.11133 -0.28223,-2.52836 -0.58488,-5.05253 -0.90625,-7.57617 -0.33,0 -0.66,0 -1,0 z"
     fill="#6e4946"
     id="path2" />
  <path
     d="m 297.53998,133.12366 c 1.06735,0.16113 2.13469,0.32227 3.23438,0.48828 2.76562,0.51172 2.76562,0.51172 5.76562,2.51172 0.6507,3.36485 0.48885,6.61653 0,10 -1.97936,2.89291 -4.05339,4.03448 -7,5.9375 -3.02446,2.07932 -4.90042,4.07464 -7,7.0625 0,0.33 0,0.66 0,1 1.88719,-0.0619 1.88719,-0.0619 3.8125,-0.125 5.33919,0.0153 10.62344,0.39464 15.9375,0.875 0.81574,0.0617 1.63147,0.12343 2.47193,0.18701 5.37417,0.52868 8.56484,1.65041 12.77807,5.06299 2.3549,2.99715 2.35854,6.16121 2.25391,9.91406 -0.67181,5.5192 -3.43692,10.15329 -7.25391,14.08594 -2.1875,0.625 -2.1875,0.625 -4,1 -0.33,0.99 -0.66,1.98 -1,3 -2.10082,1.53476 -4.14114,2.87282 -6.375,4.1875 -0.99072,0.58721 -0.99072,0.58721 -2.00146,1.18628 -11.79635,6.78351 -30.8347,17.63539 -44.62354,14.62622 -0.96937,-0.14437 -1.93875,-0.28875 -2.9375,-0.4375 -3.46903,-0.63717 -6.73357,-1.38758 -10.0625,-2.5625 -0.33,-0.99 -0.66,-1.98 -1,-3 -0.66,0 -1.32,0 -2,0 0,-2.31 0,-4.62 0,-7 -0.45246,0.34031 -0.90492,0.68063 -1.37109,1.03125 -7.04134,5.00481 -14.68772,8.44896 -22.52051,12.00488 -1.95878,0.89547 -3.90636,1.81074 -5.85058,2.73731 -13.15172,6.22656 -13.15172,6.22656 -20.25782,6.22656 0,-0.66 0,-1.32 0,-2 -0.72445,0.0464 -1.4489,0.0928 -2.19531,0.14063 -8.89489,0.33207 -8.89489,0.33207 -12.49219,-1.76563 -2.3125,-2.375 -2.3125,-2.375 -2.875,-5.25 0.99554,-5.53076 3.08405,-9.42673 7.58204,-12.91406 3.38294,-2.06847 7.0412,-3.42641 10.72265,-4.875 5.23343,-2.14608 10.23397,-4.74385 15.25781,-7.33594 -4.23456,-1.41152 -8.5844,-2.36161 -12.93164,-3.36328 -5.61107,-1.35422 -10.23791,-3.41642 -15.06836,-6.63672 0,-0.66 0,-1.32 0,-2 -0.66,0 -1.32,0 -2,0 -2.67462,-5.20848 -1.69152,-8.91942 -0.0547,-14.25 1.5246,-3.97525 3.54532,-7.32673 6.05468,-10.75 0.72188,-0.99 1.44375,-1.98 2.1875,-3 0.59813,-0.66 1.19625,-1.32 1.8125,-2 0.66,0 1.32,0 2,0 0.22688,-0.5775 0.45375,-1.155 0.6875,-1.75 1.65302,-2.83374 3.70893,-4.28144 6.3125,-6.25 0.45633,-0.48726 0.91266,-0.97453 1.38282,-1.47656 3.27828,-3.08824 7.27159,-4.54142 11.61718,-5.52344 3.1616,0.19887 6.07306,0.73852 9.16407,1.42188 2.57151,0.52422 4.72797,0.67507 7.33593,0.57812 3.28651,0 4.81368,0.20912 7.5,2 0,0.66 0,1.32 0,2 0.66,0 1.32,0 2,0 1.89275,3.7855 1.10309,8.02637 0,12 -3.46765,4.39649 -8.751,5.65008 -13.91015,7.17578 -3.22281,1.27105 -4.88708,3.19511 -7.08985,5.82422 1.44633,-0.0174 1.44633,-0.0174 2.92188,-0.0352 1.26328,-0.009 2.52656,-0.018 3.82812,-0.0273 1.25297,-0.0116 2.50594,-0.0232 3.79688,-0.0352 2.82678,0.0799 4.77885,0.4007 7.45312,1.09766 3.22931,0.25218 6.45314,0.44008 9.6875,0.60547 5.10906,0.29281 5.10906,0.29281 7.3125,1.39453 0.0412,-1.2375 0.0825,-2.475 0.125,-3.75 0.9748,-8.8149 5.85057,-16.89992 11.875,-23.25 0.55688,-0.61875 1.11375,-1.2375 1.6875,-1.875 1.3125,-1.125 1.3125,-1.125 3.3125,-1.125 0,-0.66 0,-1.32 0,-2 8.60881,-4.97883 14.73701,-3.5133 24,-1 z m -32,45 c -0.26554,0.67547 -0.53109,1.35094 -0.80468,2.04688 -0.35321,0.89203 -0.70641,1.78406 -1.07032,2.70312 -0.34804,0.88172 -0.69609,1.76344 -1.05468,2.67188 -0.93499,2.25215 -1.94812,4.41462 -3.07032,6.57812 12.18501,-3.62293 12.18501,-3.62293 23,-10 -1.33804,-0.30744 -1.33804,-0.30744 -2.70312,-0.62109 -1.17047,-0.26942 -2.34094,-0.53883 -3.54688,-0.81641 -1.74023,-0.40025 -1.74023,-0.40025 -3.51562,-0.80859 -2.41787,-0.56359 -4.82881,-1.14061 -7.23438,-1.75391 z"
     fill="#6d4845"
     id="path3" />
  <path
     d="m 137.72748,142.99866 c 1.71413,0.15662 1.71413,0.15662 3.46289,0.31641 2.78473,0.25633 5.56744,0.52605 8.34961,0.80859 0,0.66 0,1.32 0,2 0.99,-0.33 1.98,-0.66 3,-1 0.99,0.495 0.99,0.495 2,1 1.77166,-0.0314 3.54278,-0.0989 5.3125,-0.1875 3.93314,-0.0464 5.35947,-0.009 8.8125,2.0625 2.82007,3.19608 3.08318,4.92944 2.9375,9.125 -0.8205,9.26157 -5.1419,19.84318 -10.79687,27.28125 -1.51169,2.05291 -1.67021,3.19409 -1.64063,5.71875 -0.0116,0.99 -0.0116,0.99 -0.0234,2 0.55109,2.76625 1.34501,4.05352 3.39843,6 3.0252,0.51547 3.0252,0.51547 6.375,0.4375 4.27224,0.2241 6.26545,0.34943 10,2.5625 1.98803,3.67021 2.05437,5.8631 1.32813,9.91797 -1.10756,3.2796 -2.7298,4.40145 -5.70313,6.08203 -1.01062,0.5775 -2.02125,1.155 -3.0625,1.75 -7.55457,3.01853 -16.3927,1.64728 -23.9375,-0.75 -1.2549,-0.36158 -1.2549,-0.36158 -2.53515,-0.73047 -7.08183,-2.05467 -7.08183,-2.05467 -10.02735,-3.70703 -4.2229,-0.97451 -7.69482,1.56616 -11.4375,3.4375 -11.13166,4.73688 -22.71594,0.94236 -33.562496,-2.91016 -4.943497,-2.16278 -8.166643,-5.1566 -10.4375,-10.08984 -3.311848,-11.33001 1.018365,-22.07375 6.405517,-31.91186 3.0852,-5.42595 6.392636,-10.45194 10.594483,-15.08814 0.625195,-0.70512 1.25039,-1.41023 1.894531,-2.13672 11.242835,-11.99679 23.445855,-13.60363 39.292965,-11.98828 z m -11.3125,25 c -2.09554,1.90262 -2.09554,1.90262 -1.875,4.125 -0.66,0 -1.32,0 -2,0 -1.43991,1.99488 -2.73056,3.96287 -4,6.0625 -0.35578,0.56139 -0.71156,1.12277 -1.07812,1.70117 -2.46548,4.0248 -3.8132,7.70347 -4.92188,12.23633 7.13065,-1.88932 10.18774,-5.88416 14,-12 2.94125,-6.77257 2.94125,-6.77257 4,-14 -2.22237,-0.22054 -2.22237,-0.22054 -4.125,1.875 z"
     fill="#6e4946"
     id="path4" />
  <path
     d="m 435.14936,135.62366 c 2.60608,0.64349 2.60608,0.64349 6.20312,0.375 3.1875,0.125 3.1875,0.125 6.0625,1.75 2.52126,2.81788 2.87125,4.6533 3.125,8.375 1.82532,-0.0928 1.82532,-0.0928 3.6875,-0.1875 5.37154,0.0189 7.97583,1.94864 11.875,5.5625 0.80438,0.86625 1.60875,1.7325 2.4375,2.625 0.70125,0.7425 1.4025,1.485 2.125,2.25 4.95054,7.26079 5.8258,15.12941 4.875,23.75 -1.6787,7.79783 -4.22434,14.59057 -9,21 -0.66,0 -1.32,0 -2,0 -0.495,1.485 -0.495,1.485 -1,3 -10.87054,8.98804 -22.79907,13.5292 -36.95117,12.2749 -9.31356,-1.24965 -20.69004,-3.88935 -27.04883,-11.2749 -5.45277,-8.57696 -3.61851,-17.57642 -2,-27 0.13407,-0.82113 0.26813,-1.64226 0.40625,-2.48828 2.51054,-13.20446 9.71086,-26.48384 18.59375,-36.51172 0.66,0 1.32,0 2,0 0.33,-0.99 0.66,-1.98 1,-3 5.78495,-2.2088 9.66309,-1.95921 15.60938,-0.5 z m 1.39062,29.5 c -2.72369,3.90596 -4.00693,7.80161 -5.25,12.375 -0.35578,1.26586 -0.71156,2.53172 -1.07812,3.83594 -0.69915,3.94287 -0.45854,6.88602 0.32812,10.78906 4.04952,-1.40176 6.42555,-2.41081 9.4375,-5.5 2.19127,-4.90843 2.35818,-9.20567 1.5625,-14.5 -1.07687,-2.69219 -2.30423,-4.61532 -4,-7 -0.33,0 -0.66,0 -1,0 z"
     fill="#6d4946"
     id="path5" />
  <path
     d="m 422.53998,121.12366 c 0.99,0.66 1.98,1.32 3,2 -0.0195,2.69141 -0.0195,2.69141 -1,6 -2.31975,2.06056 -4.96933,3.46165 -7.6875,4.9375 -8.51301,4.70191 -14.06821,9.6095 -17.3125,19.0625 -0.63113,2.69283 -1.14948,5.27614 -1.5625,8 -0.12439,0.78746 -0.24879,1.57491 -0.37695,2.38623 -0.79032,5.46366 -1.25666,10.92537 -1.58789,16.43408 -0.041,0.68238 -0.0821,1.36476 -0.1244,2.06781 -0.19959,3.41935 -0.37665,6.83843 -0.52623,10.26032 -0.40799,7.99195 -0.84272,15.54812 -5.50953,22.28906 -4.74032,3.20292 -9.33209,3.98947 -14.875,3.0625 -6.22501,-1.6772 -10.12087,-5.29146 -13.375,-10.75 -1.0625,-2.75 -1.0625,-2.75 -1.0625,-4.75 -0.99,0.80438 -1.98,1.60875 -3,2.4375 -5.12115,3.64469 -9.56987,3.64488 -15.6875,3.4375 -4.0501,-1.06984 -5.66737,-2.68528 -8.3125,-5.875 -1.22158,-2.44316 -1.13987,-4.05042 -1.16113,-6.78174 -0.0144,-1.49263 -0.0144,-1.49263 -0.0291,-3.01541 -0.004,-1.08014 -0.008,-2.16029 -0.0129,-3.27316 -0.006,-1.1102 -0.0114,-2.22039 -0.0173,-3.36423 -0.009,-2.35547 -0.016,-4.71095 -0.0198,-7.06644 -0.01,-3.58845 -0.0407,-7.17632 -0.0723,-10.76464 -0.007,-2.28906 -0.0118,-4.57813 -0.0156,-6.86719 -0.0124,-1.068 -0.0247,-2.136 -0.0374,-3.23636 0.0185,-6.24316 0.58888,-10.99535 3.36554,-16.63083 3.54862,-2.36574 4.57646,-2.10865 8.6875,-1.625 1.4908,0.16629 1.4908,0.16629 3.01172,0.33594 0.75926,0.0954 1.51852,0.19078 2.30078,0.28906 3.20956,6.13515 3.5314,11.58233 3.6875,18.4375 0.0512,1.52657 0.0512,1.52657 0.10352,3.08399 0.0819,2.49272 0.15125,4.98512 0.20898,7.47851 0.26813,-0.76312 0.53625,-1.52625 0.8125,-2.3125 1.84231,-4.16943 1.84231,-4.16943 4.1875,-5.6875 3.28516,-0.14453 3.28516,-0.14453 7.0625,0.1875 1.87366,0.14502 1.87366,0.14502 3.78516,0.29297 3.15234,0.51953 3.15234,0.51953 5.15234,2.51953 0.625,2.125 0.625,2.125 1,4 0.12528,-0.58378 0.25057,-1.16757 0.37964,-1.76904 6.546,-30.07299 6.546,-30.07299 20.19458,-39.84033 7.87582,-4.51497 17.3887,-6.74462 26.42578,-5.39063 z"
     fill="#6e4946"
     id="path6" />
  <path
     d="m 491.28217,136.651 c 3.36943,0.70537 6.63503,0.51965 10.0586,0.34766 2.19921,0.125 2.19921,0.125 5.19921,2.125 2.70461,-0.0183 2.70461,-0.0183 5.75,-0.4375 20.07235,-1.86772 20.07235,-1.86772 27.25,3.4375 1.5,2.25 1.5,2.25 2,5 -0.92392,4.23465 -1.7948,6.08672 -5.25781,8.71094 -3.41284,2.08845 -6.75322,3.91505 -10.5,5.33203 -2.40324,0.73991 -2.40324,0.73991 -3.24219,2.95703 -0.66,0 -1.32,0 -2,0 -0.48586,1.51871 -0.96331,3.04011 -1.4375,4.5625 -0.26683,0.84691 -0.53367,1.69383 -0.80859,2.56641 -2.25027,8.56966 -2.0434,17.37757 -2.18359,26.17968 -0.18205,6.54595 -0.54203,12.7603 -3.57032,18.69141 -2.375,1.9375 -2.375,1.9375 -5,3 -1.26843,0.58781 -1.26843,0.58781 -2.5625,1.1875 -2.4375,0.8125 -2.4375,0.8125 -6.4375,0.8125 0,-0.66 0,-1.32 0,-2 -0.72445,0.0464 -1.4489,0.0928 -2.19531,0.14063 -4.71237,0.17592 -8.02143,0.21665 -12.36719,-1.76563 -5.42093,-5.28194 -4.9698,-12.86641 -5.4375,-20 -0.0805,-1.12849 -0.16097,-2.25699 -0.24389,-3.41968 -0.25918,-3.65131 -0.50781,-7.30325 -0.75611,-10.95532 -0.26532,-3.79687 -0.5332,-7.59356 -0.80273,-11.39014 -0.1693,-2.39337 -0.33609,-4.78692 -0.5,-7.18066 -0.33779,-4.85318 -0.70631,-9.6707 -1.33398,-14.49561 -0.49836,-5.39615 0.78715,-8.41146 4.01171,-12.80859 4.24055,-2.93576 7.63887,-1.95502 12.36719,-0.59766 z"
     fill="#6d4946"
     id="path7" />
  <path
     d="m 670.76264,171.5885 c 4.22589,0.81428 8.46737,0.93298 12.76172,1.09375 3.39592,0.49708 5.21805,1.49047 8.01562,3.44141 0.72704,0.48598 1.45407,0.97195 2.20313,1.47266 3.94735,3.06598 6.28213,5.32886 6.98437,10.40234 0.15618,6.39352 -1.66661,11.84367 -5.1875,17.125 -0.66,0 -1.32,0 -2,0 0,0.66 0,1.32 0,2 -3.43726,2.71191 -7.18716,4.86049 -11,7 -0.74379,0.41766 -1.48757,0.83531 -2.2539,1.26563 -8.43423,3.56078 -19.36629,0.56208 -27.7461,-2.26563 -4.88028,-2.7927 -9.81627,-6.32972 -11.62109,-11.92578 -1.51383,-8.28706 -0.058,-16.05561 4.62109,-23.07422 0.66,0 1.32,0 2,0 0.22688,-0.59812 0.45375,-1.19625 0.6875,-1.8125 1.75427,-2.92377 3.181,-3.82597 6.3125,-5.1875 2.69303,-0.19642 5.29364,-0.0887 8,0 2.95949,-1.47974 5.1435,-0.28873 8.22266,0.46484 z"
     fill="#6d4945"
     id="path8" />
  <path
     d="m 213.53998,185.12366 c 1.98,0 3.96,0 6,0 -1.485,2.475 -1.485,2.475 -3,5 -0.66,-0.33 -1.32,-0.66 -2,-1 -0.625,-2.0625 -0.625,-2.0625 -1,-4 z"
     fill="#672625"
     id="path9" />
  <path
     d="m 672.53998,213.12366 c 2.31,0.33 4.62,0.66 7,1 -2.35953,2.35953 -3.77895,2.49141 -7,3 0,-1.32 0,-2.64 0,-4 z"
     fill="#5d3f30"
     id="path10" />
  <path
     d="m 150.53998,142.12366 c 3,1 3,1 3,1 z"
     fill="#000000"
     id="path11" />
  <path
     d=""
     fill="#000000"
     id="path12" />
  <path
     d=""
     fill="#000000"
     id="path13" />
  <path
     d=""
     fill="#000000"
     id="path14" />
  <path
     d=""
     fill="#000000"
     id="path15" />
  <path
     d=""
     fill="#000000"
     id="path16" />
  <path
     d=""
     fill="#ff0000"
     id="path17" />
  <path
     d=""
     fill="#000000"
     id="path18" />
  <path
     d=""
     fill="#000000"
     id="path19" />
  <path
     d=""
     fill="#000000"
     id="path20" />
  <path
     d=""
     fill="#000000"
     id="path21" />
  <path
     d=""
     fill="#000000"
     id="path22" />
  <path
     d=""
     fill="#000000"
     id="path23" />
</svg>
