<?xml version="1.0" encoding="UTF-8" standalone="no"?>
<svg
   version="1.1"
   width="600"
   height="1000"
   id="svg16"
   sodipodi:docname="Pulldown.svg"
   inkscape:version="1.4.2 (f4327f4, 2025-05-13)"
   xmlns:inkscape="http://www.inkscape.org/namespaces/inkscape"
   xmlns:sodipodi="http://sodipodi.sourceforge.net/DTD/sodipodi-0.dtd"
   xmlns="http://www.w3.org/2000/svg"
   xmlns:svg="http://www.w3.org/2000/svg">
  <defs
     id="defs16" />
  <sodipodi:namedview
     id="namedview16"
     pagecolor="#ffffff"
     bordercolor="#000000"
     borderopacity="0.25"
     inkscape:showpageshadow="2"
     inkscape:pageopacity="0.0"
     inkscape:pagecheckerboard="0"
     inkscape:deskcolor="#d1d1d1"
     inkscape:zoom="0.51398305"
     inkscape:cx="819.09316"
     inkscape:cy="1180"
     inkscape:window-width="2560"
     inkscape:window-height="1494"
     inkscape:window-x="-11"
     inkscape:window-y="-11"
     inkscape:window-maximized="1"
     inkscape:current-layer="svg16">
    <inkscape:page
       x="0"
       y="0"
       width="600"
       height="1000"
       id="page2"
       margin="0"
       bleed="0" />
  </sodipodi:namedview>
  <path
     d="m 329.55295,43.459677 c 0.72639,0.20391 1.45277,0.40783 2.20117,0.61792 1.5255,0.39404 3.05155,0.78593 4.57813,1.17578 0.77408,0.2019 1.54816,0.4038 2.3457,0.61182 3.58779,0.90598 7.19952,1.66765 10.82617,2.3999 1.22719,0.25395 2.45438,0.50789 3.71875,0.76953 0.91781,0.13793 1.83563,0.27586 2.78125,0.41797 0.33,-0.33 0.66,-0.66 1,-1 1.66617,-0.0406 3.33388,-0.0427 5,0 2.17248,4.31204 2.02549,7.28287 1.38501,12.02173 -0.13364,1.03021 -0.13364,1.03021 -0.26999,2.08124 -0.29601,2.26039 -0.61,4.51792 -0.92361,6.77594 -0.20839,1.57493 -0.4154,3.15004 -0.62111,4.72532 -0.5435,4.14113 -1.10125,8.2802 -1.66332,12.41884 -0.899,6.62719 -1.78248,13.25638 -2.65434,19.887193 -0.30732,2.31422 -0.62446,4.62695 -0.94244,6.93973 -0.18897,1.41918 -0.3776,2.8384 -0.56581,4.25768 -0.16814,1.23734 -0.33628,2.47468 -0.50951,3.74952 -0.30364,3.70089 -0.30364,3.70089 0.76512,7.14281 1.86477,0.76589 3.73966,1.51565 5.65625,2.14062 4.02556,1.47604 7.65303,3.69792 11.34375,5.85938 0,0.66 0,1.32 0,2 0.58524,0.27328 1.17047,0.54656 1.77344,0.82812 6.65519,3.50274 11.1995,9.12235 15.53906,15.10938 0.63059,0.859 0.63059,0.859 1.27393,1.73535 2.9624,4.21907 4.77543,8.45661 6.41357,13.32715 0.43506,1.11762 0.43506,1.11762 0.87891,2.25781 6.13004,16.74376 5.17004,36.38619 -1.87891,52.74219 -0.66,0 -1.32,0 -2,0 -0.0825,0.68062 -0.165,1.36125 -0.25,2.0625 -0.97332,3.81219 -2.70807,6.5782 -4.75,9.9375 -0.66,0 -1.32,0 -2,0 -0.33,1.32 -0.66,2.64 -1,4 -0.66,0 -1.32,0 -2,0 -0.22687,0.55687 -0.45375,1.11375 -0.6875,1.6875 -2.87208,5.06034 -7.76588,8.77624 -12.3125,12.3125 -0.66,0 -1.32,0 -2,0 0.56848,0.93199 1.13695,1.86398 1.72266,2.82422 3.75903,6.19548 7.45112,12.39203 10.83984,18.80078 2.97976,5.63306 6.23794,11.0193 9.64063,16.40234 1.76995,2.92812 3.26738,5.91368 4.79687,8.97266 1.39557,2.42156 2.85386,4.80354 4.3125,7.1875 2.71229,4.46898 5.34984,8.94916 7.8125,13.5625 2.53978,4.75321 5.38318,9.25108 8.35938,13.74219 1.51562,2.50781 1.51562,2.50781 2.4375,4.89062 1.43594,3.48581 3.49152,6.49729 5.57812,9.61719 4.23326,6.32959 4.23326,6.32959 5.46558,9.42676 1.02906,2.55989 2.24313,4.76753 3.67895,7.12011 0.51241,0.84563 1.02481,1.69125 1.55274,2.5625 0.53302,0.87141 1.06605,1.74282 1.61523,2.64063 3.0386,4.98797 6.06098,9.96865 8.8711,15.08984 2.13411,3.8859 4.52432,7.49817 7.08203,11.11719 1.23437,2.04297 1.23437,2.04297 1.71093,3.99219 0.70278,2.75343 2.07904,4.68613 3.64844,7.05078 3.83258,5.88659 7.37738,11.90991 10.875,18 0.36867,0.63551 0.73735,1.27102 1.11719,1.92578 1.95761,3.38941 3.83223,6.81993 5.69531,10.26172 4.48234,8.2402 9.12283,16.391 14.33985,24.1914 0.84765,1.6211 0.84765,1.6211 0.84765,4.6211 0.6735,0 1.347,-0.01 2.04091,-0.014 7.02435,-0.044 14.04865,-0.074 21.07311,-0.096 2.6198,-0.01 5.2396,-0.024 7.85937,-0.041 3.77062,-0.024 7.54109,-0.036 11.31177,-0.044 1.16694,-0.01 2.33384,-0.021 3.53614,-0.031 5.7912,-8e-4 10.72,0.2335 16.1787,2.2266 0.8615,9.3672 1.16,18.6545 1.168,28.0586 0,1.4019 0.01,2.8039 0.01,4.2058 0.01,2.9102 0.01,5.8203 0.01,8.7305 -1e-4,3.7174 0.014,7.4347 0.031,11.1522 0.011,2.8834 0.013,5.7668 0.013,8.6502 10e-4,1.371 0.01,2.7421 0.013,4.1131 0.01,1.9132 0.01,3.8265 9e-4,5.7397 0.001,1.0845 0,2.1689 0,3.2862 -0.2766,3.427 -0.7047,7.5211 -3.2473,10.0637 -2.3403,0.2434 -4.6526,0.4227 -7,0.5547 -1.0722,0.063 -1.0722,0.063 -2.166,0.1274 -7.2333,0.3926 -14.45811,0.4699 -21.70068,0.4483 -2.16039,-0.01 -4.32057,0 -6.48095,0.01 -1.40495,-7e-4 -2.8099,0 -4.21485,0 -1.23879,-0.001 -2.47758,0 -3.7539,0 -3.96143,-0.1392 -7.75962,-0.5837 -11.6836,-1.1294 0.008,1.887 0.008,1.887 0.0159,3.8122 0.1198,31.744 -0.22952,63.4535 -1.01587,95.1878 0.71213,-0.02 1.42425,-0.041 2.15796,-0.062 5.62352,-0.093 10.48311,0.1314 15.90454,1.8115 1.16918,0.3609 2.33836,0.7219 3.54297,1.0937 4.5413,1.5469 8.99255,3.2494 13.39453,5.1563 0,0.66 0,1.32 0,2 0.5775,0.1237 1.155,0.2475 1.75,0.375 2.27336,0.6315 4.17535,1.5136 6.24995,2.625 0,0.66 0,1.32 0,2 0.99,0.33 1.98,0.66 3,1 1.3868,2.0664 1.3868,2.0664 2.6875,4.5625 0.437,0.8263 0.874,1.6526 1.3243,2.5039 0.3261,0.6381 0.6522,1.2762 0.9882,1.9336 0.6742,-0.1869 1.3484,-0.3738 2.043,-0.5664 7.3229,-1.0738 16.6517,1.0655 22.6445,5.4414 8.029,7.0732 10.6337,14.869 12.3125,25.125 0.1947,1.0802 0.3893,2.1605 0.5899,3.2734 0.4677,4.249 0.3029,8.1152 -0.1524,12.3516 -0.083,0.7804 -0.1659,1.5607 -0.2514,2.3647 -0.9576,7.437 -3.5063,13.4608 -7.1861,20.0103 -0.6599,0 -1.32,0 -2,0 -0.1856,1.1137 -0.3712,2.2275 -0.5625,3.375 -0.4743,1.1962 -0.9487,2.3925 -1.4375,3.625 -4.7511,1.8296 -9.0481,2.2489 -14.1059,2.2429 -0.6727,0 -1.3453,0 -2.0383,0.01 -2.2047,0 -4.409,-0.01 -6.6136,-0.018 -1.5507,0 -3.1013,0 -4.652,0 -3.2463,0 -6.4924,-0.01 -9.73859,-0.023 -4.12496,-0.017 -8.24979,-0.021 -12.37478,-0.02 -3.20369,-3e-4 -6.40735,-0.01 -9.61102,-0.013 -1.51877,0 -3.03754,0 -4.55631,-0.01 -8.07882,-0.01 -16.0594,-0.2584 -24.11407,-0.9524 -5.8151,-0.3903 -11.62509,-0.2552 -17.44928,-0.1715 -1.99192,0.017 -3.98383,0.033 -5.97575,0.049 -4.84952,0.038 -9.69877,0.085 -14.54794,0.1554 -2.74627,0.039 -5.49225,0.068 -8.23875,0.084 -2.57214,0.016 -5.14425,0.048 -7.71597,0.096 -1.73848,0 -1.73848,0 -3.51207,0.011 -1.5267,0.018 -1.5267,0.018 -3.08425,0.036 -3.40372,-0.6043 -4.56029,-1.791 -6.67137,-4.4743 -0.75,-2.75 -0.75,-2.75 -1,-5 -0.99,-0.33 -1.98,-0.66 -3,-1 -4.79297,-9.9546 -5.1248,-17.7263 -1.65625,-28.1641 0.32485,-0.9088 0.32485,-0.9088 0.65625,-1.8359 0.66,0 1.32,0 2,0 0,-1.32 0,-2.64 0,-4 0.66,0 1.32,0 2,0 0.30938,-0.7838 0.61875,-1.5675 0.9375,-2.375 1.0625,-2.625 1.0625,-2.625 2.0625,-4.625 0.66,0 1.32,0 2,0 0.33,-1.32 0.66,-2.64 1,-4 0.66,0 1.32,0 2,0 0.33,-0.99 0.66,-1.98 1,-3 2.5625,-1.1875 2.5625,-1.1875 5,-2 0,-0.66 0,-1.32 0,-2 4.8406,-3.0624 8.29291,-4.5341 14,-5 1.58321,-5.4778 1.58321,-5.4778 3,-11 0.66,0 1.32,0 2,0 0.33,-1.32 0.66,-2.64 1,-4 0.66,0 1.32,0 2,0 0,-0.99 0,-1.98 0,-3 4.76139,-4.7516 12.87256,-12 20,-12 -0.0707,-0.595 -0.14147,-1.19 -0.21435,-1.803 -0.70746,-6.4 -0.94097,-12.6987 -0.91065,-19.1345 0.002,-1.0408 0.004,-2.0817 0.006,-3.1541 0.0461,-8.588 0.38408,-17.1518 0.76318,-25.7304 0.49858,-12.4706 0.40939,-24.9404 0.31885,-37.4185 -0.006,-1.2354 -0.006,-1.2354 -0.0128,-2.4958 -0.008,-1.5558 -0.0206,-3.1115 -0.0378,-4.6671 -0.0148,-3.148 0.084,-5.5854 1.08777,-8.5966 -0.99,0.33 -1.98,0.66 -3,1 -2.0677,0.08 -4.138,0.097 -6.2072,0.082 -1.2972,-0.01 -2.59439,-0.014 -3.9309,-0.021 -1.4464,-0.013 -2.8928,-0.026 -4.33919,-0.039 -1.54226,-0.01 -3.08452,-0.02 -4.62679,-0.03 -4.13531,-0.027 -8.27055,-0.059 -12.40581,-0.093 -3.8784,-0.031 -7.75682,-0.056 -11.63525,-0.082 -11.34749,-0.079 -22.69492,-0.167 -34.04236,-0.2538 -38.02219,-0.2784 -38.02219,-0.2784 -76.8125,-0.5625 0,72.27 0,144.54 0,219 3.3,-1.32 6.6,-2.64 10,-4 1.65,-0.33 3.3,-0.66 5,-1 1.05188,-0.3094 2.10375,-0.6187 3.1875,-0.9375 3.72562,-1.0383 7.4232,-1.8326 11.21875,-2.5586 1.67103,-0.3246 3.33833,-0.6695 5,-1.039 12.89313,-2.8257 24.65505,-2.3398 37.59375,-0.4649 0,0.66 0,1.32 0,2 0.70125,0.082 1.4025,0.165 2.125,0.25 3.58916,0.9363 5.97548,2.4574 8.875,4.75 0,0.99 0,1.98 0,3 0.66,0 1.32,0 2,0 0.0812,1.6033 0.13929,3.2078 0.1875,4.8125 0.0348,0.8933 0.0696,1.7867 0.10547,2.707 -0.29297,2.4805 -0.29297,2.4805 -1.41797,4.2383 -2.62839,1.7413 -4.94398,1.9282 -8.0625,2.3047 -26.91682,3.3526 -49.89963,20.336 -66.8125,40.9375 -3.62578,4.7037 -5.4155,9.3469 -7,15 -0.28875,1.0106 -0.5775,2.0213 -0.875,3.0625 -0.17554,4.1253 0.84479,7.3521 2.875,10.9375 2.5514,2.3433 2.5514,2.3433 5,4 0,0.66 0,1.32 0,2 0.56719,0.1354 1.13438,0.2707 1.71875,0.4102 2.29418,0.5932 4.52574,1.3018 6.78125,2.0273 8.98903,2.6615 17.4092,3.6644 26.75,3.5 21.64163,-0.3108 21.64163,-0.3108 28.67578,5.4649 2.07422,2.5976 2.07422,2.5976 2.38672,5.9726 -2.23751,6.1798 -6.50548,9.2343 -12.30078,12.1055 -4.92673,2.0922 -9.92811,3.8501 -15.01172,5.5195 -1.07701,0.3693 -1.07701,0.3693 -2.17578,0.7461 -28.69696,9.2859 -63.87649,7.7044 -91.05859,-5.7773 -1.25811,-0.6507 -2.51366,-1.3064 -3.76563,-1.9688 -0.87269,-0.455 -1.74539,-0.9101 -2.64453,-1.3789 -0.71543,-0.3906 -1.43086,-0.7812 -2.16797,-1.1836 -1.09248,-0.5897 -1.09248,-0.5897 -2.20703,-1.1914 -1.9847,-1.2487 -3.47247,-2.4527 -4.98047,-4.2461 0,-0.66 0,-1.32 0,-2 -0.99,-0.33 -1.98,-0.66 -3,-1 -6.83746,-8.2826 -10.78492,-18.6427 -10.35156,-29.457 1.32453,-9.5808 4.13994,-18.3721 9.35156,-26.543 0.77714,-1.3505 1.54845,-2.7045 2.3125,-4.0625 0.55688,-0.9694 1.11375,-1.9387 1.6875,-2.9375 0.66,0 1.32,0 2,0 0.43313,-0.8972 0.43313,-0.8972 0.875,-1.8125 1.125,-2.1875 1.125,-2.1875 3.125,-5.1875 0.66,0 1.32,0 2,0 0.34031,-0.8353 0.34031,-0.8353 0.6875,-1.6875 1.688,-2.9741 3.77927,-5.0326 6.3125,-7.3125 0.66,0 1.32,0 2,0 0,-0.66 0,-1.32 0,-2 2.00705,-1.7093 4.01529,-3.3019 6.125,-4.875 0.56977,-0.4344 1.13953,-0.8688 1.72656,-1.3164 3.62896,-2.7465 7.33898,-5.3191 11.14844,-7.8086 -0.0707,-0.608 -0.14137,-1.2159 -0.2142,-1.8424 -0.65661,-6.015 -0.92956,-11.927 -0.91519,-17.9747 -0.002,-0.9334 -0.004,-1.8668 -0.005,-2.8285 -0.004,-3.0908 -0.001,-6.1815 0.002,-9.2724 -0.001,-2.2163 -0.002,-4.4327 -0.004,-6.6491 -0.003,-5.9677 0.002,-11.9355 0.008,-17.9033 0.004,-3.7188 0.005,-7.4377 0.006,-11.1565 0.0141,-39.6367 0.28441,-79.2675 0.76635,-118.9012 0.0116,-0.9528 0.0232,-1.9057 0.0351,-2.8874 0.054,-4.4119 0.10953,-8.8238 0.16842,-13.2357 0.0103,-0.7938 0.0205,-1.5877 0.0311,-2.4056 0.0271,-2.0933 0.0552,-4.1865 0.0834,-6.2797 0.0534,-6.5543 0.038,-13.109 0.038,-19.6635 -51.48,0 -102.96,0 -156,0 -0.10312,13.035 -0.20625,26.07 -0.3125,39.5 -0.0683,6.1556 -0.0683,6.1556 -0.13794,12.4356 -0.0167,3.7041 -0.0167,3.7041 -0.0268,7.4083 -0.008,1.6397 -0.0251,3.2794 -0.0507,4.9189 -0.57919,11.8407 -0.57919,11.8407 4.31054,22.2069 2.34447,2.9472 2.90963,6.7425 3.77984,10.3428 0.40794,1.5804 0.8194,3.1598 1.23438,4.7383 0.19916,0.7588 0.39832,1.5175 0.60351,2.2993 1.0642,3.8157 2.46094,7.4944 3.90039,11.1812 0.69922,1.9687 0.69922,1.9687 0.69922,3.9687 0.72703,0.037 1.45406,0.075 2.20313,0.1133 13.4806,0.8814 24.0506,4.5444 35.79687,10.8867 0,0.66 0,1.32 0,2 0.99,0.33 1.98,0.66 3,1 3.51259,4.959 5.76515,9.8222 5,16 -1.66638,4.204 -3.72208,8.0978 -6,12 -0.66,0 -1.32,0 -2,0 -0.33,0.99 -0.66,1.98 -1,3 -2.10937,1.9375 -2.10937,1.9375 -4.75,4 -0.86109,0.6806 -1.72219,1.3613 -2.60937,2.0625 -2.47354,1.8149 -4.9833,3.4081 -7.64063,4.9375 0.92696,5.33 2.58849,10.4269 4.1836,15.586 3.05561,10.1251 4.92743,20.7031 -0.1836,30.414 -2.04218,3.2661 -4.15898,5.5595 -7.625,7.375 -6.75149,1.2503 -13.04942,1.5076 -19.375,-1.375 0,-0.66 0,-1.32 0,-2 -0.68062,-0.083 -1.36125,-0.165 -2.0625,-0.25 -3.81219,-0.9733 -6.5782,-2.7081 -9.9375,-4.75 0,-0.66 0,-1.32 0,-2 -0.99,-0.33 -1.98,-0.66 -3,-1 0,-0.66 0,-1.32 0,-2 -0.99,-0.33 -1.98,-0.66 -3,-1 0,-0.66 0,-1.32 0,-2 -2.27249,-0.8238 -2.27249,-0.8238 -5,-1 -2.36663,1.3838 -2.36663,1.3838 -4.5625,3.5 -8.39565,7.1002 -17.12837,13.0961 -28.437498,13.5 -5.11588,-0.8526 -7.65868,-3.1018 -11,-7 -3.4868,-5.8961 -2.40462,-12.8229 -0.84375,-19.25 1.95211,-6.3624 4.42579,-12.553 6.84375,-18.75 -2.26896,-1.3158 -4.54003,-2.6277 -6.8125,-3.9375 -0.96389,-0.5598 -0.96389,-0.5598 -1.94726,-1.1308 -2.7234,-1.5664 -5.25132,-2.9354 -8.24024,-3.9317 0,-0.66 0,-1.32 0,-2 -0.59812,-0.1237 -1.19625,-0.2475 -1.8125,-0.375 -2.1875,-0.625 -2.1875,-0.625 -5.1875,-2.625 0,-0.66 0,-1.32 0,-2 -0.5775,-0.2269 -1.155,-0.4537 -1.75,-0.6875 -3.30645,-1.9288 -5.68634,-4.5103 -6.84375,-8.2109 -1.17365,-6.0714 -1.01838,-11.6084 2.08203,-17.0586 6.44407,-8.7087 15.87906,-15.2194 26.69922,-16.8555 0.92813,-0.062 1.85625,-0.1237 2.8125,-0.1875 0.10184,-1.0119 0.20367,-2.0238 0.3086,-3.0664 0.71748,-4.0819 1.95213,-7.1525 3.7539,-10.8711 0.54785,-1.1434 1.09571,-2.2868 1.66016,-3.4648 0.42152,-0.8573 0.84305,-1.7145 1.27734,-2.5977 0.66,0 1.32,0 2,0 0.12246,-0.5723 0.24492,-1.1447 0.3711,-1.7344 0.65653,-2.3651 1.56614,-4.3377 2.6914,-6.5156 0.54334,-1.0596 0.54334,-1.0596 1.09766,-2.1406 0.27715,-0.5311 0.5543,-1.0622 0.83984,-1.6094 0.66,0 1.319998,0 1.999998,0 0.22688,-0.6806 0.45375,-1.3612 0.6875,-2.0625 1.3125,-2.9375 1.3125,-2.9375 3.87696,-5.959 3.36353,-4.669 2.96751,-9.006 2.71679,-14.5722 -0.0486,-2.151 -0.094,-4.3021 -0.13672,-6.4532 -0.0282,-1.1318 -0.0564,-2.2636 -0.0854,-3.4296 -0.1013,-6.0414 0.0356,-12.077 0.15967,-18.1172 0.0457,-2.474 0.0912,-4.948 0.13672,-7.4219 0.0481,-2.4948 0.0963,-4.9896 0.14453,-7.4844 0.0484,-2.5885 0.0966,-5.1771 0.14453,-7.7656 0.11617,-6.2448 0.23479,-12.4896 0.35547,-18.7344 -1.75643,0.016 -1.75643,0.016 -3.54834,0.032 -4.33477,0.036 -8.669518,0.059 -13.004388,0.078 -1.87795,0.01 -3.75589,0.024 -5.63379,0.041 -2.69568,0.024 -5.39115,0.036 -8.08692,0.044 -0.84275,0.01 -1.68551,0.021 -2.5538,0.031 -2.05897,4e-4 -4.11744,-0.104 -6.17276,-0.2266 -2.75771,-2.7577 -2.71875,-5.6049 -3.18359,-9.3203 -0.10036,-0.755 -0.20071,-1.51 -0.30411,-2.2878 -0.32789,-2.5043 -0.64045,-5.0102 -0.9498,-7.5169 -0.10722,-0.8556 -0.21445,-1.7112 -0.32492,-2.5927 -1.60463,-12.896 -2.9954,-25.8129 -4.07696,-38.7637 -0.14829,-1.757 -0.30358,-3.5134 -0.46601,-5.2691 -0.22405,-2.4595 -0.41869,-4.9196 -0.60476,-7.3823 -0.0704,-0.7254 -0.14077,-1.4508 -0.21329,-2.1982 -0.24128,-3.6715 -0.0102,-5.4595 1.99283,-8.5982 3.27336,-3.1814 5.2461,-3.1855 9.76733,-3.2036 2.36328,0.1328 2.36328,0.1328 5.51172,0.668 4.68,0.5648 9.09775,0.3335 13.78906,0.027 6.03465,-0.3684 12.015438,-0.6256 18.062498,-0.5625 0.30938,-0.7838 0.61875,-1.5675 0.9375,-2.375 1.0625,-2.625 1.0625,-2.625 2.0625,-4.625 0.66,0 1.32,0 2,0 0.34031,-0.7715 0.34031,-0.7715 0.6875,-1.5586 1.8178,-3.3813 4.05796,-6.4023 6.3125,-9.5039 3.56239,-4.92496 3.56239,-4.92496 7,-9.93752 0.66,0 1.32,0 2,0 0.12375,-0.59813 0.2475,-1.19625 0.375,-1.8125 0.625,-2.1875 0.625,-2.1875 2.625,-5.1875 0.66,0 1.32,0 2,0 0.33,-1.32 0.66,-2.64 1,-4 0.66,0 1.32,0 2,0 0.33,-1.32 0.66,-2.64 1,-4 0.66,0 1.32,0 2,0 0,-0.99 0,-1.98 0,-3 0.66,0 1.32,0 2,0 0.33,-1.32 0.66,-2.64 1,-4 0.66,0 1.32,0 2,0 0.23719,-0.51047 0.47438,-1.02094 0.71875,-1.54688 1.75021,-3.35099 3.75294,-6.51484 5.78125,-9.70312 0.40348,-0.64969 0.80696,-1.29938 1.22266,-1.96875 1.03758,-1.63 2.15188,-3.21064 3.27734,-4.78125 0.66,0 1.32,0 2,0 0.23719,-0.52078 0.47438,-1.04156 0.71875,-1.57813 1.70048,-3.21432 3.72346,-6.18052 5.78125,-9.17187 0.60522,-0.90299 0.60522,-0.90299 1.22266,-1.82422 1.03954,-1.513 2.15323,-2.9745 3.27734,-4.42578 0.66,0 1.32,0 2,0 0.33,-1.32 0.66,-2.64 1,-4 0.66,0 1.32,0 2,0 0.12375,-0.59813 0.2475,-1.19625 0.375,-1.8125 0.625,-2.1875 0.625,-2.1875 2.625,-5.1875 0.66,0 1.32,0 2,0 0.33,-1.32 0.66,-2.64 1,-4 0.66,0 1.32,0 2,0 0.30938,-0.78375 0.61875,-1.5675 0.9375,-2.375 1.0625,-2.625 1.0625,-2.625 2.0625,-4.625 0.66,0 1.32,0 2,0 0.33,-1.32 0.66,-2.64 1,-4 0.66,0 1.32,0 2,0 0.26813,-0.55172 0.53625,-1.10344 0.8125,-1.67188 1.31547,-2.579 2.72599,-5.07894 4.1875,-7.57812 0.51563,-0.89203 1.03125,-1.78406 1.5625,-2.70313 0.47438,-0.67546 0.94875,-1.35093 1.4375,-2.04687 0.66,0 1.32,0 2,0 0.34031,-0.7715 0.34031,-0.7715 0.6875,-1.55859 1.8178,-3.38132 4.05796,-6.40231 6.3125,-9.50391 3.56239,-4.92494 3.56239,-4.92494 7,-9.9375 0.66,0 1.32,0 2,0 0.2475,-0.70125 0.495,-1.4025 0.75,-2.125 1.4218,-3.27015 3.12246,-6.01612 5.25,-8.875 0.66,0 1.32,0 2,0 0.33,-1.32 0.66,-2.64 1,-4 0.66,0 1.32,0 2,0 0.30938,-0.78375 0.61875,-1.5675 0.9375,-2.375 1.0625,-2.625 1.0625,-2.625 2.0625,-4.625 0.66,0 1.32,0 2,0 0.37125,-0.80438 0.37125,-0.80438 0.75,-1.625 1.55653,-2.9574 3.28436,-5.67224 5.25,-8.375 0.66,0 1.32,0 2,0 0.12375,-0.5775 0.2475,-1.155 0.375,-1.75 0.63149,-2.27336 1.51358,-4.17535 2.625,-6.25 0.66,0 1.32,0 2,0 0.34031,-0.7715 0.34031,-0.7715 0.6875,-1.55859 1.8178,-3.38132 4.05796,-6.40231 6.3125,-9.50391 3.56239,-4.92494 3.56239,-4.92494 7,-9.9375 0.66,0 1.32,0 2,0 0.12375,-0.59813 0.2475,-1.19625 0.375,-1.8125 0.625,-2.1875 0.625,-2.1875 2.625,-5.1875 0.66,0 1.32,0 2,0 0.33,-1.32 0.66,-2.64 1,-4 0.66,0 1.32,0 2,0 0.33,-1.32 0.66,-2.64 1,-4 0.66,0 1.32,0 2,0 0,-0.99 0,-1.98 0,-3 0.66,0 1.32,0 2,0 -0.41085,-4.38243 -2.25726,-7.16376 -4.59375,-10.75 -3.41816,-5.46906 -6.29141,-10.87274 -7.40625,-17.25 -0.26039,-1.09313 -0.52078,-2.18625 -0.78906,-3.3125 -1.94434,-8.57692 -2.54792,-15.89866 -1.21094,-24.6875 0.2649,-1.82531 0.2649,-1.82531 0.53516,-3.6875 1.53095,-8.94738 4.28168,-16.28461 8.46484,-24.3125 0.66,0 1.32,0 2,0 0.11473,-0.58266 0.22945,-1.16531 0.34766,-1.76563 0.70058,-2.3996 1.63427,-3.96298 3.08984,-5.98437 0.43184,-0.61359 0.86367,-1.22719 1.3086,-1.85938 0.62068,-0.68835 0.62068,-0.68835 1.2539,-1.39062 0.66,0 1.32,0 2,0 0.33,-0.99 0.66,-1.98 1,-3 0.66,0 1.32,0 2,0 0.33,-0.99 0.66,-1.98 1,-3 4.43207,-4.56678 10.39158,-7.39999 16,-10.25 0.99592,-0.5118 0.99592,-0.5118 2.01196,-1.03394 5.8526,-2.89 11.37768,-4.71606 17.98804,-4.71606 -0.008,-1.39678 -0.008,-1.39678 -0.0159,-2.82178 -0.0937,-18.52081 -0.0621,-37.042273 0.27933,-55.560603 0.0327,-1.8687 0.0602,-3.73749 0.0827,-5.60633 0.033,-2.62274 0.085,-5.24444 0.14212,-7.86676 0.006,-0.78269 0.0128,-1.56537 0.0194,-2.37178 0.0829,-3.01239 0.14897,-5.24006 1.80655,-7.81157 2.5222,-1.43825 4.5395,-0.64715 7.23497,0.0455 z M 296.00412,256.4526 c -2.34287,2.67248 -2.34287,2.67248 -3,6 -0.66,0 -1.32,0 -2,0 -0.51562,0.94875 -1.03125,1.8975 -1.5625,2.875 -2.38528,4.21083 -5.19868,8.08099 -8.04687,11.98828 -1.57245,1.9912 -1.57245,1.9912 -1.39063,4.13672 -0.66,0 -1.32,0 -2,0 -1.44964,1.90374 -2.81184,3.87467 -4.125,5.875 -0.72445,1.09055 -1.4489,2.18109 -2.19531,3.30469 -1.85025,2.5596 -1.85025,2.5596 -1.67969,4.82031 -0.66,0 -1.32,0 -2,0 -0.33,1.32 -0.66,2.64 -1,4 -0.66,0 -1.32,0 -2,0 -2.29649,2.56147 -3,3.47968 -3,7 -0.66,0 -1.32,0 -2,0 -2.31592,3.22114 -2.31592,3.22114 -3,7 -0.66,0 -1.32,0 -2,0 -0.33,1.32 -0.66,2.64 -1,4 -0.66,0 -1.32,0 -2,0 -2.31592,3.22114 -2.31592,3.22114 -3,7 -0.66,0 -1.32,0 -2,0 -2.31592,3.22114 -2.31592,3.22114 -3,7 -0.66,0 -1.32,0 -2,0 -3.13979,5.42502 -3.13979,5.42502 -6,11 -0.66,0 -1.32,0 -2,0 -1.19542,1.68125 -2.30713,3.42248 -3.375,5.1875 -1.83121,3.01302 -3.62508,5.8126 -5.85156,8.55078 -1.97912,2.04501 -1.97912,2.04501 -1.77344,4.26172 -0.66,0 -1.32,0 -2,0 -2.04169,2.90549 -3,4.40142 -3,8 -0.66,0 -1.32,0 -2,0 -0.495,1.98 -0.495,1.98 -1,4 -0.66,0 -1.32,0 -2,0 -2.31592,3.22114 -2.31592,3.22114 -3,7 -0.66,0 -1.32,0 -2,0 -2.29648,2.56147 -3,3.47968 -3,7 -0.66,0 -1.32,0 -2,0 -2.31592,3.22114 -2.31592,3.22114 -3,7 -0.66,0 -1.32,0 -2,0 -0.33,1.32 -0.66,2.64 -1,4 -0.66,0 -1.32,0 -2,0 -0.33,1.32 -0.66,2.64 -1,4 -0.66,0 -1.32,0 -2,0 -1.79026,2.37264 -1.79026,2.37264 -3.5625,5.3125 -0.62004,0.98613 -1.24008,1.97227 -1.8789,2.98828 -1.65787,2.66282 -1.65787,2.66282 -2.5586,5.69922 -0.66,0 -1.32,0 -2,0 -2.31592,3.22114 -2.31592,3.22114 -3,7 -0.66,0 -1.32,0 -2,0 -0.51562,0.96937 -1.03125,1.93875 -1.5625,2.9375 -2.28597,4.04377 -5.10841,7.55788 -8.04687,11.14453 -1.58629,1.79299 -1.58629,1.79299 -1.39063,3.91797 -0.66,0 -1.32,0 -2,0 -2.31664,3.93829 -4.43358,7.6924 -6,12 -0.66,0 -1.32,0 -2,0 -3.92986,4.2075 -6.38332,8.4764 -8,14 -0.66,0.33 -1.32,0.66 -2,1 6.80494,1.2616 13.55966,1.1331 20.46265,1.1135 1.36062,-3e-4 2.72124,-1e-4 4.08186,5e-4 3.67717,3e-4 7.3543,-0.01 11.03146,-0.013 3.84903,-0.01 7.69806,-0.01 11.54709,-0.01 7.2813,0 14.56258,-0.011 21.84387,-0.021 8.29263,-0.011 16.58526,-0.017 24.87789,-0.022 17.05173,-0.01 34.10346,-0.028 51.15518,-0.05 0.0664,-1.164 0.13277,-2.3281 0.20117,-3.5273 0.0891,-1.5442 0.17834,-3.0883 0.26758,-4.6324 0.0435,-0.7652 0.087,-1.5304 0.13184,-2.3188 0.32319,-5.5675 0.8008,-11.10188 1.39941,-16.64653 0.76346,-7.4779 1.22752,-14.92627 1.5,-22.4375 0.28831,-7.85562 0.84512,-15.61532 1.69483,-23.42871 0.8253,-7.76128 1.39229,-15.53529 1.93017,-23.32129 0.0876,-1.24668 0.17515,-2.49337 0.26538,-3.77783 0.31094,-4.59865 0.61115,-9.15484 0.60181,-13.76514 0.007,-2.976 0.32079,-5.80241 0.72266,-8.74707 0.64264,-5.40309 0.92289,-10.8448 1.28515,-16.27246 0.0883,-1.29341 0.1766,-2.58683 0.26758,-3.91943 0.51564,-7.6439 0.96094,-15.28735 1.33569,-22.93921 0.28412,-5.30378 0.84815,-10.55389 1.45923,-15.82886 1.02086,-8.83805 1.14232,-17.55068 0.9375,-26.4375 -4.455,-1.98 -4.455,-1.98 -9,-4 z m 39.25,8.9375 c -1.17047,0.19465 -2.34094,0.3893 -3.54687,0.58984 -1.33805,0.23397 -1.33805,0.23397 -2.70313,0.47266 -0.82839,9.81732 -1.37732,19.63692 -1.8706,29.47559 -0.13192,2.57361 -0.27204,5.14667 -0.41455,7.71972 -0.0464,0.84676 -0.0928,1.69351 -0.14063,2.56592 -0.0885,1.61108 -0.17826,3.22209 -0.26953,4.83301 -0.18583,3.42809 -0.30427,6.81802 -0.30078,10.25342 -0.004,3.15234 -0.004,3.15234 -0.50391,6.33984 -0.56746,4.32693 -0.52909,8.49114 -0.4375,12.84766 -0.0625,2.96484 -0.0625,2.96484 -0.5625,5.92968 -0.53472,3.24593 -0.56259,6.24887 -0.5,9.53516 0.0614,3.22151 0.0602,6.16139 -0.5039,9.33643 -0.484,3.08642 -0.56127,5.88096 -0.4961,8.99951 0.0633,7.95855 -0.46287,15.85469 -1,23.78906 -0.56544,8.39428 -1.09503,16.74223 -1.0083,25.16162 0.01,2.59374 -0.1639,5.13386 -0.4292,7.71338 -0.48577,5.32959 -0.83408,10.65691 -1.125,16 -0.0438,0.7586 -0.0875,1.5172 -0.13257,2.2988 -0.3398,6.427 -0.30493,12.7369 -0.30493,19.2012 46.86,0 93.72,0 142,0 -2.475,-4.95 -2.475,-4.95 -5,-10 -0.50402,-1.0506 -1.00805,-2.1012 -1.52734,-3.1836 -2.13583,-4.0847 -4.69055,-7.86091 -7.24414,-11.69335 -2.16639,-3.30202 -3.78828,-6.46268 -5.22852,-10.12305 -1.38623,-2.40095 -2.79502,-4.76691 -4.25,-7.125 -2.73637,-4.48882 -5.40077,-8.98415 -7.875,-13.625 -2.53978,-4.75321 -5.38318,-9.25108 -8.35937,-13.74219 -1.51563,-2.50781 -1.51563,-2.50781 -2.48828,-4.95312 -1.24855,-3.10475 -2.91875,-5.73174 -4.71485,-8.55469 -2.77821,-4.41987 -5.37348,-8.87987 -7.8125,-13.5 -3.03353,-5.7393 -6.34607,-11.23178 -9.80078,-16.72266 -1.36765,-2.2354 -2.53135,-4.43913 -3.69922,-6.77734 -0.75077,-1.33434 -1.51315,-2.6622 -2.28515,-3.98438 -0.44417,-0.7632 -0.88833,-1.52641 -1.34595,-2.31274 -0.47236,-0.80945 -0.94472,-1.6189 -1.4314,-2.45288 -4.11823,-7.07358 -8.17607,-14.17585 -12.11938,-21.34863 -1.44011,-2.59308 -2.70914,-4.79239 -4.81812,-6.90137 -0.71941,-1.68346 -1.43637,-3.36806 -2.13428,-5.06055 -1.44299,-3.23269 -3.31513,-6.18549 -5.17822,-9.18945 -2.71743,-4.4467 -5.3601,-8.89927 -7.8125,-13.5 -2.5927,-4.85767 -5.51347,-9.447 -8.55469,-14.03516 -1.32031,-2.21484 -1.32031,-2.21484 -1.32031,-4.21484 -3.77371,-1.33575 -6.85831,-0.72409 -10.75,-0.0625 z"
     fill="#010100"
     id="path1" />
  <path
     d="m 87.985962,490.3216 c 1.0814,0 1.0814,0 2.18464,0.01 0.76262,0 1.52523,0 2.31095,0 2.5882,0 5.17633,0 7.764528,0.01 1.86115,-5e-4 3.7223,0 5.58345,0 5.13985,0 10.27969,0 15.41955,0.01 5.53309,0 11.06618,0 16.59928,0 9.59496,-5e-4 19.1899,0 28.78485,0.01 13.87287,0.01 27.74573,0.011 41.61859,0.012 22.50526,0 45.0105,0.01 67.51575,0.018 21.86784,0.01 43.73568,0.016 65.60352,0.02 0.67368,10e-5 1.34737,2e-4 2.04147,4e-4 6.76526,0 13.53051,0 20.29577,0 56.76527,0.011 113.53054,0.028 170.29581,0.051 1.1792,4.1713 1.0448,8.1515 0.91407,12.4492 -0.0212,0.8132 -0.0425,1.6265 -0.0644,2.4643 -0.0462,1.7139 -0.0951,3.4277 -0.14657,5.1414 -0.0781,2.6333 -0.14514,5.2666 -0.21094,7.9002 -0.0462,1.6647 -0.0931,3.3294 -0.14062,4.9941 -0.0199,0.7916 -0.0397,1.5833 -0.0602,2.3989 -0.1763,5.5368 -0.1763,5.5368 -1.29142,6.6519 -2.36421,0.1033 -4.69944,0.141 -7.0644,0.137 -0.75158,0 -1.50316,0.01 -2.27751,0.01 -2.55071,0.01 -5.10136,0.01 -7.65208,0.01 -1.83426,0 -3.66852,0.01 -5.50278,0.013 -5.06565,0.012 -10.13129,0.018 -15.19695,0.022 -5.4534,0.01 -10.90679,0.017 -16.36019,0.028 -13.18176,0.024 -26.36352,0.039 -39.5453,0.052 -3.72,0 -7.44001,0.01 -11.16001,0.012 -23.07662,0.025 -46.15323,0.047 -69.22986,0.06 -5.34869,0 -10.69738,0.01 -16.04607,0.01 -0.9968,6e-4 -0.9968,6e-4 -2.01373,0 -21.55569,0.012 -43.1113,0.043 -64.66696,0.085 -22.7743,0.044 -45.54855,0.07 -68.3229,0.075 -12.42087,0 -24.84161,0.015 -37.26245,0.048 -10.5745,0.028 -21.14884,0.039 -31.72337,0.028 -5.39987,-0.01 -10.7994,0 -16.19922,0.023 -4.93723,0.022 -9.8739,0.022 -14.81114,0 -1.79208,0 -3.58419,0 -5.37621,0.018 -2.42496,0.019 -4.847878,0.01 -7.272788,-0.012 -0.70576,0.013 -1.41153,0.026 -2.13868,0.039 -1.95252,-0.035 -1.95252,-0.035 -5.17732,-0.657 -3.12465,-3.7948 -3.52133,-7.2664 -3.94922,-12.0937 -0.0623,-0.6692 -0.12468,-1.3383 -0.18891,-2.0278 -0.19487,-2.1253 -0.37209,-4.2516 -0.54937,-6.3785 -0.12976,-1.4285 -0.26061,-2.8569 -0.39258,-4.2851 -1.10269,-12.2302 -1.10269,-12.2302 -0.91992,-16.2263 1.67888,-1.6789 3.74045,-1.1232 5.98184,-1.131 z"
     fill="#966860"
     id="path2" />
  <path
     d="m 492.25412,661.1401 c 0.74798,0 1.49596,0.01 2.2666,0.015 6.20348,0.1304 11.64465,1.1514 17.4834,3.2976 1.6919,0.6149 1.6919,0.6149 3.41797,1.2422 4.62684,1.7357 9.19842,3.4656 13.58203,5.7578 0,0.66 0,1.32 0,2 0.59812,0.2475 1.19625,0.495 1.8125,0.75 2.54609,1.4549 3.70485,2.7295 5.1875,5.25 0,1.32 0,2.64 0,4 -1.75781,1.5273 -1.75781,1.5273 -4.125,2.9375 -6.67407,4.1844 -11.60525,8.3759 -15.875,15.0625 -0.43313,0.66 -0.86625,1.32 -1.3125,2 -1.03176,3.0015 -0.80832,5.8587 -0.6875,9 3.9553,-2.0507 5.73924,-3.7342 7.75,-7.6875 4.51485,-7.9299 11.50353,-14.3519 20.25,-17.3125 7.0679,-1.7637 15.3699,-1.4585 21.8906,2.0039 6.8243,5.2216 8.6759,11.8516 9.793,19.9531 1.402,13.4831 -1.4628,24.52 -8.6836,36.043 -1.5619,1.5619 -3.07,1.126 -5.2419,1.127 -1.3741,0 -1.3741,0 -2.7759,0.01 -1.0138,0 -2.0276,0 -3.072,-0.01 -1.5933,0 -1.5933,0 -3.2187,0.01 -3.543,0 -7.086,0 -10.629,0 -2.4722,7e-4 -4.9443,0 -7.4165,0 -5.87758,0 -11.75513,0 -17.63271,-0.01 -5.93724,0 -11.87446,-10e-5 -17.81171,0.01 -5.12401,0 -10.24801,0 -15.37202,-10e-5 -2.42991,-7e-4 -4.85982,10e-5 -7.28974,0 -12.519,0.01 -25.03357,-0.085 -37.54763,-0.4571 -1.06282,-0.022 -2.12565,-0.044 -3.22067,-0.067 -0.97793,-0.035 -1.95586,-0.07 -2.96342,-0.1056 -0.859,-0.025 -1.71801,-0.051 -2.60305,-0.077 -2.6537,-0.5178 -3.59376,-1.2899 -5.20505,-3.4302 0,-0.66 0,-1.32 0,-2 -0.89719,-0.2785 -0.89719,-0.2785 -1.8125,-0.5625 -2.58369,-1.6979 -3.68687,-3.4407 -4.77344,-6.3243 -1.4945,-7.6275 2.58225,-15.8453 6.58594,-22.1132 5.45101,-7.1259 11.36051,-13.1202 20,-16 5.0316,-0.495 7.00123,-0.6408 11.3125,2.125 4.71886,5.048 6.05222,9.4071 6.375,16.25 0.0986,1.8678 0.0986,1.8678 0.19922,3.7734 0.0561,1.4115 0.0561,1.4115 0.11328,2.8516 1.98492,-0.2668 1.98492,-0.2668 4,-1 1.99384,-5.9816 1.7313,-11.9899 -0.6875,-17.8125 -2.85134,-5.6927 -6.74356,-9.1644 -12.3125,-12.1875 0.27129,-6.511 2.57479,-10.276 7,-15 9.22638,-8.4164 20.75806,-13.4104 33.25,-13.3125 z"
     fill="#97c6d9"
     id="path3" />
  <path
     d="m 365.12912,159.5151 c 9.70997,9.10592 14.70719,20.59561 15.27515,33.79932 0.25623,14.23868 -4.83712,26.38921 -14.46265,36.82568 -10.38467,9.89351 -21.91197,13.68904 -35.87109,13.61352 -12.52026,-0.32786 -23.63916,-4.83984 -32.81641,-13.42602 -10.30872,-11.02922 -14.94726,-23.69593 -14.53516,-38.71094 1.15889,-12.85883 6.76881,-24.44209 16.28516,-33.16406 20.79813,-15.96943 45.939,-15.7541 66.125,1.0625 z"
     fill="#a6796d"
     id="path4" />
  <path
     d="m 120.00412,644.4526 c 3,1 3,1 3.99219,2.9414 0.43699,1.2974 0.43699,1.2974 0.88281,2.6211 0.33902,0.9913 0.67805,1.9826 1.02734,3.0039 0.99632,3.1166 1.95685,6.2413 2.90699,9.3721 3.50377,13.7246 3.50377,13.7246 12.19067,24.0615 2.18361,0.6808 2.18361,0.6808 4.52734,0.9922 0.86899,0.1451 1.73798,0.2902 2.63331,0.4397 0.91636,0.1462 1.83272,0.2924 2.77685,0.4431 22.15263,3.8686 22.15263,3.8686 27.0625,10.125 0.12353,4.4471 -2.37033,7.0408 -5.1438,10.2163 -2.5488,2.4492 -5.34873,4.0054 -8.43188,5.6995 -7.1215,3.7692 -7.1215,3.7692 -11.70557,10.0373 -0.23817,7.5819 3.14452,14.3098 6.28125,21.0469 2.19514,6.1464 4.62503,15.0987 2.01562,21.3633 -0.33515,0.5401 -0.67031,1.0802 -1.01562,1.6367 -9.58738,-0.408 -17.58839,-7.2361 -24,-14 -1.36845,-2.0881 -2.58303,-4.166 -3.69922,-6.3984 -1.24616,-1.7911 -1.24616,-1.7911 -3.60156,-2.5703 -3.8257,-0.044 -5.26049,1.4459 -8.19922,3.8437 -1.05157,0.8356 -2.10502,1.6689 -3.16016,2.5 -0.54414,0.4331 -1.08829,0.8663 -1.64892,1.3125 -2.7995,2.173 -5.70827,4.1812 -8.62842,6.1875 -1.56041,1.079 -1.56041,1.079 -3.15234,2.1797 -1.44053,0.9629 -1.44053,0.9629 -2.91016,1.9453 -0.88816,0.6007 -1.776328,1.2014 -2.691408,1.8203 -1.14275,0.584 -1.14275,0.584 -2.30859,1.1797 -1.485,-0.495 -1.485,-0.495 -3,-1 1.55408,-8.3355 4.19939,-16.3988 7.999998,-24 0.72797,-3.9873 0.80755,-7.4955 -1.140628,-11.125 -4.80645,-5.9731 -11.18112,-9.3318 -17.85937,-12.875 -4.99477,-2.7039 -9.68955,-5.2457 -14,-9 0.6725,-5.1764 2.50716,-6.9904 6.41406,-10.2344 3.90399,-2.6655 8.08954,-4.482 12.4375,-6.3086 6.34462,-2.8964 6.34462,-2.8964 10.625,-8.1718 0.37899,-1.0635 0.75797,-2.127 1.14844,-3.2227 2.572698,-6.6579 5.841988,-12.8034 9.374998,-19 0.74758,-1.3312 0.74758,-1.3312 1.51025,-2.6892 3.05615,-5.3095 6.35484,-9.8507 10.48975,-14.3733 z"
     fill="#f4d287"
     id="path5" />
  <path
     d="m 375.00412,775.4526 c -2.65675,2.6567 -5.76999,3.6596 -9.1875,5.0625 -12.42135,5.2818 -23.61044,12.0661 -33.8125,20.9375 -1.28004,1.0983 -1.28004,1.0983 -2.58594,2.2188 -12.10657,10.6159 -24.08847,23.7986 -25.79297,40.4921 -0.23578,7.6213 0.20044,13.8098 4.37891,20.2891 0.36609,0.611 0.73219,1.222 1.10937,1.8516 5.58749,7.8293 16.84456,12.0874 25.89063,14.1484 4.92486,0.5739 9.86863,0.8773 14.81445,1.2109 0.99323,0.075 1.98645,0.1496 3.00977,0.2266 0.89807,0.061 1.79615,0.1212 2.72143,0.1836 2.5172,0.3886 4.25901,1.1155 6.45435,2.3789 -29.86967,10.2836 -60.10374,9.2767 -89,-4 -7.13623,-3.7468 -13.47694,-9.0293 -17.17578,-16.3164 -3.50854,-11.4236 0.19021,-22.5093 5.42578,-32.6406 15.74978,-27.3864 46.39422,-43.5458 75.75,-52.043 4.95759,-1.2785 9.94173,-2.2057 15,-3 0.71672,-0.1302 1.43344,-0.2604 2.17187,-0.3945 6.84685,-1.0973 13.91327,-0.6865 20.82813,-0.6055 z"
     fill="#f5f1d8"
     id="path6" />
  <path
     d="m 282.00412,243.4526 c 3.94139,1.66751 6.78928,4.22711 10,7 -2.20815,4.62947 -5.10303,8.71771 -8,12.9375 -0.58523,0.85465 -1.17047,1.7093 -1.77344,2.58984 -4.02921,5.84148 -8.24891,11.45565 -12.63281,17.03516 -3.82528,4.97287 -7.26114,10.22366 -10.77075,15.4209 -3.19727,4.71077 -6.4848,9.29687 -10.0105,13.7666 -3.42273,4.3637 -6.5884,8.80373 -9.625,13.4375 -5.25713,8.02092 -10.86509,15.76616 -16.51416,23.51416 -2.73594,3.75782 -5.45392,7.52857 -8.17334,11.29834 -3.25851,4.51405 -6.51867,9.02688 -9.78516,13.53516 -8.50847,11.74943 -16.90124,23.57679 -25.21484,35.46484 -8.83346,12.63143 -17.76708,25.18605 -26.81055,37.66797 -2.96156,4.08793 -5.91953,8.17853 -8.87695,12.26953 -0.55293,0.7637 -1.10585,1.5274 -1.67554,2.3142 -0.51312,0.7097 -1.02625,1.4194 -1.55493,2.1506 -0.45141,0.6239 -0.90283,1.2477 -1.36792,1.8904 -1.10111,1.5484 -2.1602,3.1264 -3.21411,4.7073 -2.06299,0.3406 -2.06299,0.3406 -4.57031,0.293 -0.8959,-0.01 -1.7918,-0.019 -2.71485,-0.029 -0.93714,-0.025 -1.87429,-0.05 -2.83984,-0.076 -0.94488,-0.014 -1.88977,-0.027 -2.86328,-0.041 -2.33781,-0.035 -4.67448,-0.085 -7.01172,-0.1465 0.60962,-3.1245 1.61179,-5.1677 3.48438,-7.7305 0.51626,-0.7115 1.03253,-1.4231 1.56445,-2.1562 0.56138,-0.7593 1.12277,-1.5185 1.70117,-2.3008 0.58201,-0.7967 1.16402,-1.5933 1.76367,-2.4141 4.45213,-6.0671 9.01584,-12.04566 13.6106,-18.0051 4.42607,-5.75754 8.69321,-11.6189 12.92822,-17.51782 8.65354,-12.05134 17.49497,-23.96364 26.41089,-35.82178 8.46186,-11.26619 16.80182,-22.62158 25.03662,-34.0542 8.37597,-11.62633 16.77425,-23.24301 25.5625,-34.5625 6.19101,-7.99167 12.04816,-16.22244 17.9375,-24.4375 6.68723,-9.32804 13.39214,-18.61806 20.4375,-27.67969 3.63604,-4.6869 7.17141,-9.45015 10.71704,-14.20556 3.74461,-5.0139 3.74461,-5.0139 4.84546,-6.11475 z"
     fill="#bc9472"
     id="path7" />
  <path
     d="m 364.00412,257.4526 c 1.31177,1.84399 1.31177,1.84399 2.64453,4.28516 0.75712,1.36632 0.75712,1.36632 1.52954,2.76025 0.54068,0.99564 1.08136,1.99128 1.63843,3.01709 1.17029,2.11416 2.34221,4.22741 3.51562,6.33984 0.60522,1.09297 1.21043,2.18593 1.83399,3.31201 2.89651,5.17817 5.89631,10.29437 8.90039,15.41065 4.33083,7.39478 8.63248,14.80419 12.875,22.25 4.43539,7.78418 8.89577,15.55346 13.375,23.3125 0.6281,1.08805 1.25619,2.1761 1.90332,3.29712 1.92772,3.33865 3.85587,6.67706 5.78418,10.01538 2.56305,4.43718 5.12566,8.87462 7.6875,13.3125 0.62552,1.08354 1.25103,2.16708 1.89551,3.28345 3.84529,6.66573 7.6697,13.34297 11.47949,20.02905 4.75473,8.34286 9.58657,16.63886 14.43677,24.92651 5.3267,9.11721 10.5644,18.2839 15.78491,27.46216 2.94266,5.16859 5.89881,10.32623 8.9502,15.43163 0.47405,0.7935 0.9481,1.587 1.43652,2.4046 0.85658,1.426 1.7188,2.8486 2.58789,4.267 2.74121,4.5573 2.74121,4.5573 2.74121,7.8831 -4.95,0 -9.9,0 -15,0 -2.23057,-3.8534 -4.46008,-7.7073 -6.6875,-11.5625 -0.33752,-0.5842 -0.67505,-1.1684 -1.0228,-1.7702 -4.7459,-8.2182 -9.44761,-16.4595 -14.1022,-24.7298 -3.98611,-7.07938 -8.03074,-14.11611 -12.17358,-21.10474 -4.03194,-6.82136 -7.96181,-13.70074 -11.88892,-20.58276 -0.34614,-0.60649 -0.69229,-1.21299 -1.04892,-1.83786 -2.91659,-5.11119 -5.83015,-10.22409 -8.7421,-15.33792 -1.48548,-2.60856 -2.97181,-5.21663 -4.45898,-7.82422 -0.47276,-0.82895 -0.94553,-1.6579 -1.43262,-2.51196 -3.81166,-6.66783 -7.68619,-13.298 -11.56738,-19.92554 -4.45041,-7.60073 -8.81093,-15.23893 -13.05395,-22.95703 -4.01139,-7.26541 -8.21333,-14.41657 -12.41187,-21.57495 -4.86199,-8.30401 -9.61528,-16.666 -14.32251,-25.0586 -0.50813,-0.90468 -1.01626,-1.80936 -1.5398,-2.74145 -0.44504,-0.79511 -0.89009,-1.59022 -1.34863,-2.40942 -1.0008,-1.7298 -2.0897,-3.40824 -3.19824,-5.07105 0,-0.99 0,-1.98 0,-3 1.59916,-0.69907 3.20455,-1.38389 4.8125,-2.0625 0.89332,-0.38285 1.78664,-0.7657 2.70703,-1.16016 2.48047,-0.77734 2.48047,-0.77734 5.48047,0.22266 z"
     fill="#bc9472"
     id="path8" />
  <path
     d="m 312.00412,261.4526 c 3.3,0.33 6.6,0.66 10,1 0.33469,17.27394 -0.64989,34.46343 -1.61503,51.70101 -0.37361,6.70983 -0.73345,13.42041 -1.09516,20.13089 -0.0946,1.75351 -0.18934,3.507 -0.2843,5.26049 -0.74099,13.69113 -1.43303,27.38415 -2.09145,41.07949 -0.0439,0.91223 -0.0879,1.82447 -0.13313,2.76435 -0.38647,8.03022 -0.77093,16.06053 -1.14848,24.09117 -0.9881,21.00964 -2.13959,41.9921 -3.63245,62.9726 -4.95,0 -9.9,0 -15,0 1.73765,-29.63101 3.77761,-59.23244 6.04104,-88.82729 1.16479,-15.23384 2.26161,-30.46904 3.22678,-45.71716 0.78873,-12.44926 1.64969,-24.89285 2.53711,-37.33543 0.26353,-3.70393 0.52324,-7.40811 0.78296,-11.11231 0.16969,-2.38804 0.3396,-4.77606 0.50977,-7.16406 0.0761,-1.09155 0.15212,-2.18311 0.23048,-3.30774 0.37619,-5.2198 0.84119,-10.36819 1.67186,-15.53601 z"
     fill="#bd9472"
     id="path9" />
  <path
     d="m 328.00412,51.452597 c 9.51415,1.36946 18.71403,3.57245 28,6 -2.62947,23.39419 -5.30011,46.746513 -9,70.000003 -6.6,-0.33 -13.2,-0.66 -20,-1 -0.16024,-25.01499 0.33262,-49.994483 1,-75.000003 z"
     fill="#bd9473"
     id="path10" />
  <path
     d="m 411,2269 c 5.75,2.75 5.75,2.75 8,5 -0.375,3.625 -0.375,3.625 -1,7 -1.875,0.625 -1.875,0.625 -4,1 -2.58926,-2.5893 -2.37398,-4.0271 -2.625,-7.625 -0.0748,-1.0029 -0.14953,-2.0058 -0.22656,-3.0391 -0.049,-0.7708 -0.098,-1.5417 -0.14844,-2.3359 z"
     fill="#643e3b"
     id="path11" />
  <path
     d="m 111.00412,893.4526 c 0.33,1.32 0.66,2.64 1,4 -3.75,3 -3.75,3 -6,3 1.293,-2.8844 2.65941,-4.8722 5,-7 z"
     fill="#000000"
     id="path12" />
  <path
     d="m -5.995878,612.4526 c -3.20337,2.8337 -5.78087,3.5206 -10,4 3.33935,-3.4911 5.15274,-4.1276 10,-4 z"
     fill="#000000"
     id="path13" />
</svg>
