<?xml version="1.0" encoding="UTF-8" standalone="no"?>
<svg
   version="1.1"
   width="1360"
   height="400"
   id="svg34"
   sodipodi:docname="ReEnterPassword.svg"
   inkscape:version="1.4.2 (f4327f4, 2025-05-13)"
   xmlns:inkscape="http://www.inkscape.org/namespaces/inkscape"
   xmlns:sodipodi="http://sodipodi.sourceforge.net/DTD/sodipodi-0.dtd"
   xmlns="http://www.w3.org/2000/svg"
   xmlns:svg="http://www.w3.org/2000/svg">
  <defs
     id="defs34" />
  <sodipodi:namedview
     id="namedview34"
     pagecolor="#ffffff"
     bordercolor="#000000"
     borderopacity="0.25"
     inkscape:showpageshadow="2"
     inkscape:pageopacity="0.0"
     inkscape:pagecheckerboard="0"
     inkscape:deskcolor="#d1d1d1"
     inkscape:zoom="0.45464768"
     inkscape:cx="1357.0948"
     inkscape:cy="1109.6505"
     inkscape:window-width="2560"
     inkscape:window-height="1494"
     inkscape:window-x="-11"
     inkscape:window-y="-11"
     inkscape:window-maximized="1"
     inkscape:current-layer="svg34" />
  <path
     d="m 114.82036,77.503423 c 2.66974,0.533948 5.06267,0.497888 7.78125,0.40625 10.32788,-0.143443 19.29666,3.980828 27.5625,10.0625 0.70348,1.31428 1.37859,2.644983 2,4 1.485,0.495 1.485,0.495 3,1 4.89076,8.243957 4.81053,15.862537 2.875,24.937497 -2.84604,10.39596 -9.06639,18.72241 -16.875,26.0625 -0.66,0 -1.32,0 -2,0 -0.495,1.485 -0.495,1.485 -1,3 -1.94606,1.67895 -3.87785,3.22352 -5.9375,4.75 -0.58685,0.44247 -1.17369,0.88494 -1.77832,1.34082 -7.89967,5.92368 -16.04257,11.4745 -24.28418,16.90918 4.68859,4.25621 9.51176,7.74989 14.9375,11 5.03749,3.07792 9.93652,6.18688 14.58203,9.84375 1.43978,1.12447 2.96044,2.1429 4.48047,3.15625 0,0.66 0,1.32 0,2 1.11629,0.38853 1.11629,0.38853 2.25513,0.78492 2.82501,1.25056 4.45774,2.52061 6.66284,4.65649 0.69674,0.6658 1.39348,1.3316 2.11133,2.01758 1.06831,1.04124 1.06831,1.04124 2.1582,2.10351 1.42913,1.37823 2.86004,2.75463 4.29297,4.12891 0.62801,0.61045 1.25603,1.2209 1.90308,1.84985 1.56854,1.54613 1.56854,1.54613 3.61645,2.45874 0,0.66 0,1.32 0,2 0.66,0 1.32,0 2,0 1.23407,1.4342 2.46215,2.87446 3.64453,4.35157 1.95903,2.38245 4.14844,4.49658 6.35547,6.64843 2.59446,2.58127 5.17181,5.17624 7.72656,7.79688 4.83372,4.93918 9.66452,9.6459 15.08594,13.95312 11.56766,9.30442 11.56766,9.30442 12.64453,14.42188 0.0636,3.16983 -0.4572,5.82864 -1.45703,8.82812 -0.99,0 -1.98,0 -3,0 -0.33,0.99 -0.66,1.98 -1,3 -5.58006,1.98613 -8.44661,2.31392 -14,0 -1.27875,-0.26812 -2.5575,-0.53625 -3.875,-0.8125 -9.44169,-2.38265 -16.51199,-9.71487 -23.67725,-15.93945 -1.74992,-1.50854 -3.53773,-2.96885 -5.32275,-4.43555 -3.08261,-2.64331 -5.66192,-5.62317 -8.28125,-8.71875 -2.62061,-2.97594 -5.47,-5.69598 -8.33984,-8.42968 -1.50391,-1.66407 -1.50391,-1.66407 -1.50391,-3.66407 -0.84885,-0.35384 -0.84885,-0.35384 -1.71484,-0.71484 -2.80818,-1.5793 -4.62898,-3.51202 -6.84766,-5.84766 -5.15923,-5.26529 -10.66763,-9.86281 -16.4375,-14.4375 -0.88172,-0.72574 -1.76344,-1.45148 -2.67187,-2.19922 -4.59385,-3.76556 -9.05847,-7.05139 -14.32813,-9.80078 0.181033,0.82033 0.362066,1.64066 0.548584,2.48584 2.456516,11.6363 4.000966,23.34842 5.513916,35.13916 0.38483,2.96818 0.77113,5.93616 1.15886,8.90396 0.24861,1.90614 0.49532,3.81253 0.74002,5.71918 0.65748,5.07323 1.42419,10.10354 2.30425,15.14249 0.79651,5.03403 0.61537,8.78159 -0.57813,13.73437 -0.42732,1.86012 -0.42732,1.86012 -0.86328,3.75782 -1.20029,4.53949 -1.69114,6.36019 -5.69922,8.80468 -0.69867,0.437 -1.397344,0.87399 -2.117187,1.32422 -2.007813,0.98828 -2.007813,0.98828 -5.007813,0.98828 0,-0.66 0,-1.32 0,-2 -1.03125,0.0825 -2.0625,0.165 -3.125,0.25 -4.574602,-0.29513 -6.396298,-1.32473 -9.875,-4.25 -1.6875,-2.375 -1.6875,-2.375 -3,-5 -0.483398,-0.87398 -0.966797,-1.74797 -1.464844,-2.64843 -14.366199,-31.36438 -11.497878,-77.93568 -13.054687,-111.48047 -0.0746,-1.60063 -0.0746,-1.60063 -0.150696,-3.2336 -0.366909,-8.36786 -0.551435,-16.56531 0.291321,-24.91093 0.06422,-0.64926 0.128433,-1.29851 0.194595,-1.96744 0.203139,-2.04515 0.412262,-4.08963 0.621811,-6.13413 0.136485,-1.35933 0.272555,-2.7187 0.408203,-4.07812 0.0666,-0.66534 0.133197,-1.33068 0.201813,-2.01618 0.195191,-1.95767 0.388067,-3.91557 0.580902,-5.87347 0.236534,-2.32804 0.489026,-4.65455 0.762695,-6.97852 0.10941,-0.97936 0.218819,-1.95873 0.331543,-2.96777 0.101917,-0.84514 0.203833,-1.69028 0.308838,-2.56103 0.158484,-2.4526 0.158484,-2.4526 -2.031494,-5.14991 -0.447287,-3.95104 -0.319422,-6.347264 1.4375,-9.937497 7.104568,-8.490825 14.018572,-12.68954 24.5625,-16.0625 1.216875,-0.4125 2.43375,-0.825 3.6875,-1.25 7.08145,-1.603348 12.93035,-2.102266 19.96875,-0.21875 z M 82.16411,109.97217 c 0.448434,8.19358 2.345164,15.74797 4.5625,23.625 0.329356,1.19496 0.658711,2.38992 0.998047,3.6211 0.805935,2.92005 1.619211,5.83784 2.439453,8.7539 3.918123,-1.49503 6.94333,-3.23409 10.3125,-5.75 0.96035,-0.71672 1.9207,-1.43343 2.91016,-2.17187 0.91652,-0.68578 1.83304,-1.37156 2.77734,-2.07813 1.11182,-0.78117 1.11182,-0.78117 2.24609,-1.57812 7.14697,-5.07115 13.1054,-11.39515 16.75391,-19.42188 0.60562,-5.01797 0.11445,-7.99571 -3,-12 -2.47089,-2.75599 -3.97292,-2.996326 -7.6875,-3.499997 -11.16352,0.388136 -22.711553,5.113977 -32.3125,10.499997 z"
     fill="#6e4946"
     id="path1" />
  <path
     d="m 738.16411,88.972173 c 1.36935,0.169881 2.74236,0.312064 4.11719,0.429688 1.15822,0.110214 1.15822,0.110214 2.33984,0.222656 1.60354,0.14766 3.20773,0.288362 4.8125,0.421875 8.63775,0.847965 14.92892,4.480989 20.73047,10.925778 5.57022,9.46459 6.24853,19.31247 3.875,29.9375 -3.40322,12.17005 -10.07925,21.40168 -17.875,31.0625 -0.82951,1.17563 -0.82951,1.17563 -1.67578,2.375 -0.43699,0.53625 -0.87399,1.0725 -1.32422,1.625 -0.66,0 -1.32,0 -2,0 0,0.66 0,1.32 0,2 -0.66,0 -1.32,0 -2,0 -0.495,1.485 -0.495,1.485 -1,3 -1.46777,1.39112 -1.46777,1.39112 -3.35937,2.82032 -0.69795,0.53149 -1.3959,1.06299 -2.115,1.61059 -0.75095,0.55905 -1.50191,1.1181 -2.27563,1.69409 -0.76192,0.57388 -1.52383,1.14775 -2.30884,1.73902 -18.87494,14.13598 -18.87494,14.13598 -21.94116,14.13598 0.10413,1.23193 0.10413,1.23193 0.21037,2.48874 0.73044,9.28222 0.98405,18.52336 1.02791,27.83158 0.004,0.74341 0.008,1.48683 0.0124,2.25277 0.0206,3.91444 0.035,7.82884 0.0445,11.74332 0.0112,4.03057 0.0458,8.06061 0.0852,12.09099 0.0261,3.11924 0.0345,6.23834 0.0381,9.35767 0.005,1.48718 0.0165,2.97434 0.035,4.46141 0.0243,2.06965 0.0234,4.13786 0.0165,6.20761 0.006,1.17466 0.0117,2.34933 0.0178,3.5596 -0.58704,3.61829 -1.60097,4.81656 -4.48775,7.00631 -0.66,0 -1.32,0 -2,0 0,0.66 0,1.32 0,2 -1.47747,0.36116 -2.95705,0.71375 -4.4375,1.0625 -0.82371,0.19723 -1.64742,0.39446 -2.49609,0.59766 -1.02287,0.16822 -1.02287,0.16822 -2.06641,0.33984 -0.33,-0.33 -0.66,-0.66 -1,-1 -2.48222,-0.28484 -4.96469,-0.44806 -7.45703,-0.62109 -4.27244,-0.6366 -5.93717,-1.60718 -8.64111,-5.05176 -2.13404,-3.73333 -2.36024,-5.64962 -2.25733,-9.90137 0.0272,-1.93673 0.0272,-1.93673 0.0549,-3.91259 0.0185,-0.68395 0.0371,-1.3679 0.0562,-2.07257 0.098,-3.6684 0.12711,-7.33761 0.16623,-11.00702 0.0149,-1.14684 0.0149,-1.14684 0.03,-2.31684 0.0992,-8.75317 -0.13032,-17.49306 -0.38942,-26.24176 -0.03,-1.12394 -0.03,-1.12394 -0.0606,-2.2706 -0.0572,-2.14173 -0.12025,-4.28321 -0.18545,-6.42471 -0.0367,-1.21961 -0.0733,-2.43923 -0.11109,-3.6958 -0.14534,-7.04072 -0.14534,-7.04072 -3.39282,-12.92139 -1.8125,-2.5625 -1.8125,-2.5625 -1.66406,-4.61328 1.33053,-5.42819 1.33053,-5.42819 2.85156,-6.94922 -0.0686,-2.16918 -0.20957,-4.33604 -0.375,-6.5 -1.23813,-17.89496 -2.01214,-35.5952 -0.625,-53.5 -0.66,0 -1.32,0 -2,0 -1.32969,-5.5847 -0.77989,-9.00546 2.15625,-13.94531 3.75517,-5.48671 8.13496,-8.75527 13.84375,-12.054687 0.87012,-0.504023 1.74023,-1.008047 2.63672,-1.527344 1.84272,-1.03308 3.70149,-2.037989 5.57422,-3.015625 1.78254,-0.931217 3.54182,-1.909397 5.26562,-2.945312 9.27174,-5.095148 21.37019,-5.103088 31.52344,-2.511719 z m -27.41797,29.949217 c -4.43333,5.74692 -0.93112,18.04712 -0.14453,24.80078 0.13471,1.20528 0.26941,2.41055 0.4082,3.65235 0.55891,4.91292 1.12066,9.75875 2.1543,14.59765 11.7761,-5.5265 22.11135,-19.08483 26.75,-31.0625 2.09967,-7.17744 1.68339,-11.92223 -1.875,-18.43359 -0.28875,-0.49629 -0.5775,-0.99258 -0.875,-1.50391 -9.92664,-0.74918 -17.92758,3.14643 -26.41797,7.94922 z"
     fill="#6d4946"
     id="path2" />
  <path
     d="m 1245.4141,87.722173 c 1.3613,0.12375 1.3613,0.12375 2.75,0.25 5.6659,9.915244 8.1314,20.536317 8.5864,31.854247 0.038,0.82319 0.076,1.64638 0.1152,2.49451 0.3479,7.91173 0.5381,15.82633 0.6828,23.74403 0.047,2.52603 0.1,5.0519 0.154,7.57779 0.1535,7.16752 0.3045,14.33504 0.4357,21.50301 -0.4142,52.19113 -0.4142,52.19113 15.2642,101.0061 2.5258,4.46148 3.3226,7.64573 2.4297,12.77344 -1.1127,3.40975 -2.7883,4.98102 -5.668,7.04687 -2.3434,0.92183 -4.5226,1.46566 -7,2 -0.33,-0.33 -0.66,-0.66 -1,-1 -1.684,-0.27229 -3.3725,-0.51753 -5.0625,-0.75 -5.3739,-0.92604 -9.8254,-2.57382 -13.9375,-6.25 0,-0.66 0,-1.32 0,-2 -0.66,0 -1.32,0 -2,0 -4.8862,-9.14561 -9.1254,-17.68955 -11,-28 -1.155,0.2475 -2.31,0.495 -3.5,0.75 -4.8396,0.54628 -9.0142,-0.2885 -13.6875,-1.4375 -0.6767,-0.16081 -1.3535,-0.32162 -2.0508,-0.4873 -8.3269,-2.19194 -13.8169,-6.99606 -18.7617,-13.8252 -6.6549,-12.20728 -7.4986,-28.47009 -3.9062,-41.82422 2.5116,-7.62782 6.2815,-14.39768 11.9062,-20.17578 0.758,-0.78117 0.758,-0.78117 1.5313,-1.57812 3.515,-3.25326 6.7831,-4.64093 11.4687,-5.42188 1.7482,0.10797 3.4939,0.26407 5.2344,0.46094 1.3414,0.14768 1.3414,0.14768 2.7099,0.29834 1.0176,0.11916 1.0176,0.11916 2.0557,0.24072 0.2969,-3.18708 0.5884,-6.37448 0.875,-9.5625 0.092,-1.01344 0.1834,-2.02689 0.2778,-3.07104 0.587,-6.71561 1.0324,-13.42705 1.391,-20.15859 2.1688,-40.2856 2.1688,-40.2856 14.4718,-54.543804 1.9844,-1.664063 1.9844,-1.664063 5.2344,-1.914063 z m -22.25,115.249997 c -1.6457,5.04826 -2.2717,9.32123 -2.25,14.6875 -0.01,1.28262 -0.01,2.56524 -0.016,3.88672 0.2423,3.12563 0.6062,4.82478 2.2656,7.42578 2.86,-3.36432 3.1768,-5.84047 2.8555,-10.08203 -0.2051,-1.91212 -0.4284,-3.82237 -0.668,-5.73047 -0.1089,-0.97904 -0.2178,-1.95808 -0.3301,-2.96679 -0.2703,-2.40913 -0.5565,-4.81524 -0.8574,-7.22071 -0.33,0 -0.66,0 -1,0 z"
     fill="#6e4946"
     id="path3" />
  <path
     d="m 1074.1641,165.97217 c 1.8711,1.52735 1.8711,1.52735 3,3 -0.6291,2.68327 -1.3607,4.50224 -3.5683,6.22119 -2.0355,1.24651 -4.0988,2.42586 -6.1817,3.59131 -8.5285,5.06472 -13.8048,9.88034 -16.6601,19.62891 -1.7313,7.50973 -2.7161,14.84854 -2.5899,22.55859 0.3403,-1.06476 0.6806,-2.12953 1.0313,-3.22656 4.4996,-13.65089 10.2853,-28.62471 21.9687,-37.77344 3.7826,-1.35005 7.0824,-1.51672 10.957,-0.47265 2.4154,0.55881 4.4493,0.39185 6.918,0.22265 3.6226,-0.0375 5.7974,0.19119 8.6875,2.4375 2.4292,2.80293 3.2292,4.16624 3.4375,7.8125 0.99,-0.12375 1.98,-0.2475 3,-0.375 6.0551,0.0244 9.773,4.2947 13.957,8.20313 5.7694,5.97581 8.0962,12.46683 8.3555,20.73437 -0.4932,11.2639 -4.8076,20.97914 -12.3125,29.4375 -9.4212,7.51738 -20.6498,13.48894 -33,13 -4.4228,-0.71529 -8.6829,-1.8144 -13,-3 -0.9023,-0.19465 -1.8047,-0.38929 -2.7344,-0.58984 -6.705,-1.59296 -12.0967,-4.83068 -16.2656,-10.41016 -0.8954,-2.65905 -1.4447,-5.23814 -2,-8 -0.3287,1.75377 -0.3287,1.75377 -0.6641,3.54297 -0.319,1.54844 -0.6394,3.0966 -0.9609,4.64453 -0.1405,0.76893 -0.281,1.53785 -0.4258,2.33008 -1.2451,5.80241 -2.9881,8.19209 -7.9492,11.48242 -6.0492,2.01641 -12.1843,0.31399 -17.8125,-2.3125 -3.7552,-2.89686 -5.8781,-5.32114 -6.9375,-10 -0.1237,-1.33031 -0.1237,-1.33031 -0.25,-2.6875 -0.6033,0.42153 -1.2066,0.84305 -1.8281,1.27735 -0.7992,0.54785 -1.5985,1.0957 -2.4219,1.66015 -0.7889,0.54528 -1.5778,1.09055 -2.3906,1.65235 -4.3274,2.58639 -6.98412,2.57317 -11.85939,1.34765 -1.40766,-0.32677 -1.40766,-0.32677 -2.84375,-0.66015 -3.7908,-1.82293 -4.84337,-3.46905 -6.65625,-7.27735 -0.6493,-3.76812 -0.74768,-7.49435 -0.8125,-11.3125 -0.0293,-1.08853 -0.0587,-2.17706 -0.0889,-3.29858 -0.16724,-7.98696 -0.0939,-15.96695 0.15137,-23.95142 0.026,-1.02714 0.052,-2.05428 0.0789,-3.11255 0.27853,-6.62079 0.74358,-13.39738 5.67114,-18.32495 2.49609,-0.26562 2.49609,-0.26562 5.4375,-0.25 0.96809,-0.005 1.93617,-0.0103 2.93359,-0.0156 2.62889,0.26562 2.62889,0.26562 5.62889,2.26562 1.0819,2.93837 1.1837,5.87395 1.3164,8.98438 0.042,0.93457 0.084,1.86914 0.127,2.83203 0.039,0.96809 0.079,1.93617 0.1191,2.93359 0.043,0.98356 0.086,1.96711 0.1309,2.98047 0.1058,2.42305 0.2079,4.84619 0.3066,7.26953 0.6768,-0.99 1.3535,-1.98 2.0508,-3 2.2834,-2.7365 2.6631,-2.96403 6.4297,-3.4375 1.2233,0.14438 2.4466,0.28875 3.707,0.4375 1.8466,0.18563 1.8466,0.18563 3.7305,0.375 3.082,0.625 3.082,0.625 5.082,2.625 0.625,2.125 0.625,2.125 1,4 0.3287,-1.84851 0.3287,-1.84851 0.6641,-3.73437 2.7099,-14.43433 6.3693,-27.84092 18.9492,-36.83985 8.2452,-4.92552 17.8621,-6.94697 27.3867,-5.42578 z m 13,44 c -4.0452,8.48322 -6.3371,15.56178 -6,25 3.638,-0.20788 4.9815,-0.98362 7.75,-3.4375 3.1054,-4.08808 3.5433,-8.53773 3.25,-13.5625 -0.6925,-2.72073 -1.5791,-4.52652 -3,-7 -0.66,-0.33 -1.32,-0.66 -2,-1 z"
     fill="#6e4946"
     id="path4" />
  <path
     d="m 941.47661,175.90967 c 3.40573,0.69385 6.05578,1.05062 9.5625,0.9375 3.125,0.125 3.125,0.125 6,1.75 2.59831,2.904 3.04595,4.50164 3.125,8.375 -1.2242,4.29142 -2.76937,5.9165 -6.5625,8.1875 -3.31463,1.84806 -3.31463,1.84806 -5.4375,4.8125 -0.66,0 -1.32,0 -2,0 0,1.32 0,2.64 0,4 1.12644,0.0595 1.12644,0.0595 2.27563,0.12012 3.43027,0.19153 6.85828,0.41045 10.28687,0.62988 1.18143,0.0619 2.36285,0.12375 3.58008,0.1875 6.68355,0.44932 11.4416,0.99874 16.85742,5.0625 2.63476,3.54047 3.21956,6.19672 2.9375,10.5 -1.49344,9.3029 -8.7183,14.42037 -15.90234,19.66407 -10.81518,7.48307 -31.95666,20.44354 -45.51172,18.47656 -0.83274,-0.21141 -1.66547,-0.42281 -2.52344,-0.64063 -0.96937,-0.13019 -1.93875,-0.26039 -2.9375,-0.39453 -4.51557,-0.61628 -8.29117,-1.21252 -12.375,-3.29297 -1.6875,-2.3125 -1.6875,-2.3125 -1.5,-6.0625 0.26813,-1.0725 0.53625,-2.145 0.8125,-3.25 -0.68062,0.4125 -1.36125,0.825 -2.0625,1.25 -7.84997,4.67658 -15.86439,8.86484 -24.0835,12.84961 -1.66036,0.80635 -3.31427,1.62595 -4.96728,2.44727 -5.76299,2.77145 -11.46249,4.89794 -17.88672,5.45312 -0.495,-0.495 -0.495,-0.495 -1,-1 -3.25997,-0.50013 -6.52749,-0.90148 -9.80078,-1.30468 -3.26465,-0.70954 -4.92228,-1.26732 -7.19922,-3.69532 -0.71882,-3.78482 0.29209,-7.42901 1.85547,-10.89843 4.07401,-5.82755 10.85695,-7.88362 17.19531,-10.45704 4.53399,-1.84406 8.75954,-4.11908 12.94922,-6.64453 -3.62652,-1.60442 -6.8877,-2.37089 -10.8125,-2.875 -7.69464,-1.2368 -14.29829,-3.6191 -19.23828,-9.95312 -2.08262,-4.76517 -0.61706,-9.46095 1.05078,-14.17188 2.05535,-3.891 4.41437,-7.44475 7,-11 0.66,-0.99 1.32,-1.98 2,-3 0.66,0 1.32,0 2,0 0.33,-0.99 0.66,-1.98 1,-3 6.24209,-6.70908 13.97474,-11.26437 23,-13 0.87592,0.46407 0.87592,0.46407 1.76953,0.9375 3.98734,1.8994 8.46636,1.42099 12.82031,1.52344 3.95688,0.62549 5.61302,1.72131 8.41016,4.53906 1.3686,3.84919 1.1094,6.21128 -0.4375,9.875 -0.51562,1.03125 -1.03125,2.0625 -1.5625,3.125 -0.99,0 -1.98,0 -3,0 -0.495,1.485 -0.495,1.485 -1,3 -2.41905,0.88699 -4.84705,1.3968 -7.35937,1.96094 -3.38245,1.33096 -5.22458,3.37098 -7.64063,6.03906 1.18078,0.0606 2.36156,0.12117 3.57813,0.1836 1.5573,0.0844 3.11459,0.16908 4.67187,0.2539 0.7773,0.0393 1.55461,0.0786 2.35547,0.11914 0.7541,0.0419 1.5082,0.0838 2.28516,0.12696 0.69125,0.0367 1.38251,0.0733 2.09472,0.11108 2.08387,0.21238 3.98852,0.68455 6.01465,1.20532 2.24707,0.21983 4.49771,0.40484 6.75,0.5625 1.17047,0.0838 2.34094,0.16758 3.54688,0.25391 1.33804,0.0909 1.33804,0.0909 2.70312,0.18359 0.0928,-1.91812 0.0928,-1.91812 0.1875,-3.875 1.21655,-10.36498 7.38719,-18.1452 14.8125,-25.125 5.7535,-4.41642 10.05444,-6.6332 17.3125,-5.0625 z m -23.3125,47.0625 c -0.92812,2.38219 -0.92812,2.38219 -1.875,4.8125 -1.18802,3.04925 -2.29771,5.44657 -4.125,8.1875 7.44302,-2.3969 14.71837,-5.15262 22,-8 0,-0.66 0,-1.32 0,-2 -5.28,-0.99 -10.56,-1.98 -16,-3 z"
     fill="#6d4845"
     id="path5" />
  <path
     d="m 331.15239,64.401861 c 2.71024,0.513223 5.32732,0.801683 8.07422,1.007812 4.00379,0.571971 4.5515,0.669297 6.9375,3.5625 1.08625,2.506722 1.03824,3.808815 0.5,6.5 -2.49255,4.154242 -6.15064,5.87183 -10.69141,7.085938 -1.58798,0.319166 -3.18157,0.611559 -4.77929,0.877685 -3.47658,0.615575 -6.91843,1.34816 -10.36914,2.094971 -1.25031,0.269978 -2.50062,0.539956 -3.78882,0.818115 -0.94754,0.205686 -1.89508,0.411372 -2.87134,0.623291 0.0479,0.572314 0.0958,1.144627 0.14513,1.734284 4.48298,53.730073 4.48298,53.730073 4.85487,79.265713 0.68127,-0.20786 1.36254,-0.41572 2.06445,-0.62988 0.89655,-0.27167 1.79309,-0.54334 2.7168,-0.82324 0.88752,-0.26974 1.77504,-0.53947 2.68945,-0.81738 7.60276,-2.19277 7.60276,-2.19277 10.5293,-0.7295 3.30975,0.23799 6.61836,0.38268 9.93359,0.52344 3.06641,0.47656 3.06641,0.47656 4.94532,1.80469 1.9652,2.93068 1.59046,5.26896 1.12109,8.67187 -5.81601,8.72401 -20.39603,11.61235 -30,14 -1.32,0 -2.64,0 -4,0 0.10768,7.73676 0.22035,15.47343 0.33934,23.21003 0.0551,3.59264 0.1085,7.18529 0.15797,10.77801 0.0478,3.46895 0.10019,6.93782 0.15563,10.40666 0.0302,1.96358 0.0558,3.92723 0.0813,5.89087 0.0299,1.8013 0.0299,1.8013 0.0604,3.63899 0.0233,1.58219 0.0233,1.58219 0.0471,3.19634 0.14961,2.72251 0.54852,5.22551 1.15822,7.8791 1.25813,-0.33 2.51625,-0.66 3.8125,-1 5.4557,-1.20384 10.62618,-1.22917 16.1875,-1 0.97969,0.018 1.95938,0.0361 2.96875,0.0547 4.62342,0.21129 7.34846,0.49887 11.28125,3.07031 1.75,2.875 1.75,2.875 1.5625,6.6875 -0.26812,1.05188 -0.53625,2.10375 -0.8125,3.1875 -1.32,0.33 -2.64,0.66 -4,1 0,0.66 0,1.32 0,2 -4.13317,2.02066 -7.8279,3.24535 -12.375,4 -7.56385,1.19903 -7.56385,1.19903 -14.625,4 -0.70567,1.31311 -1.37348,2.64734 -2,4 -5.49241,3.58201 -9.80902,3.17011 -16.125,1.84375 -5.05436,-1.48334 -8.2611,-3.29816 -11.11328,-7.79687 -7.46531,-15.9622 -5.13247,-36.81735 -5.28217,-54.07309 -0.0411,-4.7301 -0.0969,-9.45995 -0.15582,-14.18985 -0.0196,-1.58153 -0.0392,-3.16306 -0.0588,-4.74458 -0.01,-0.77682 -0.0193,-1.55364 -0.0292,-2.354 -0.0378,-3.08511 -0.0737,-6.17025 -0.10962,-9.25538 -0.3212,-27.45283 -1.35089,-54.70812 -3.40736,-82.09013 -0.061,-0.81714 -0.12202,-1.63427 -0.18488,-2.47617 -0.27298,-3.60952 -0.56616,-7.213805 -0.89862,-10.818511 -0.10393,-1.14928 -0.20786,-2.298559 -0.31494,-3.482666 -0.0952,-0.969375 -0.19046,-1.93875 -0.28857,-2.9375 -0.0549,-4.54209 1.20264,-8.048512 3.96826,-11.625 2.79115,-2.440886 5.74646,-4.238561 9,-6 0.67547,-0.390586 1.35094,-0.781172 2.04688,-1.183594 4.16199,-2.272446 8.15994,-3.500717 12.8125,-4.371093 2.37739,-0.436837 2.37739,-0.436837 5.45312,-1.695313 4.59147,-0.933858 8.11938,-0.223589 12.67578,0.679688 z"
     fill="#6e4845"
     id="path6" />
  <path
     d="m 260.28911,157.72217 c 0.84176,0.0619 1.68352,0.12375 2.55078,0.1875 5.59514,0.52048 10.7387,1.62746 15.32422,5.0625 0.495,1.485 0.495,1.485 1,3 0.99,0.33 1.98,0.66 3,1 2.94316,4.9569 2.66169,10.77496 1.53516,16.26563 -1.76475,5.973 -4.91983,10.71924 -8.53516,15.73437 -0.66,0.99 -1.32,1.98 -2,3 -0.66,0 -1.32,0 -2,0 -0.26168,0.59297 -0.52336,1.18594 -0.79297,1.79688 -5.7448,10.48566 -20.61606,17.15057 -31.45312,20.51172 -2.90295,0.72882 -5.79569,1.24266 -8.75391,1.6914 2.66427,5.83873 5.02336,10.76986 10,15 1.08281,0.99 1.08281,0.99 2.1875,2 6.95855,4.9483 14.82392,7.87247 22.83203,10.69141 3.18379,1.39786 5.44694,2.93454 7.98047,5.30859 0.94975,3.0392 1.22908,5.02643 0.5,8.125 -3.17393,3.96742 -8.35678,6.40983 -13.34766,7.14844 -9.09661,0.41713 -17.58151,-2.55793 -26.15234,-5.27344 -0.96551,-0.29906 -1.93102,-0.59812 -2.92578,-0.90625 -10.30823,-3.64415 -19.41996,-10.51326 -26.07422,-19.09375 -0.99,-0.66 -1.98,-1.32 -3,-2 -8.29547,-13.2641 -11.17156,-27.82514 -7.81763,-43.10376 3.50587,-14.46233 10.66048,-27.89995 22.81763,-36.89624 0.66,0 1.32,0 2,0 0,-0.66 0,-1.32 0,-2 14.26963,-7.67807 25.18907,-8.72783 41.125,-7.25 z m -23.625,30.5 c -1.71693,1.61894 -1.71693,1.61894 -1.5,3.75 -0.66,0 -1.32,0 -2,0 -0.99,2.31 -1.98,4.62 -3,7 5.19525,-1.36066 8.17556,-3.35767 12,-7 0,-0.66 0,-1.32 0,-2 0.99,-0.33 1.98,-0.66 3,-1 2.62116,-2.85243 4.42531,-5.12084 5,-9 -5.47031,0 -9.57568,4.71811 -13.5,8.25 z"
     fill="#6d4946"
     id="path7" />
  <path
     d="m 449.91411,98.409673 c 2.25,1.5625 2.25,1.5625 3.25,3.562497 0.11957,1.81718 0.17725,3.63858 0.20532,5.45948 0.0299,1.71154 0.0299,1.71154 0.0604,3.45767 0.0167,1.23648 0.0334,2.47296 0.0507,3.74692 0.0208,1.26234 0.0416,2.52468 0.063,3.82528 0.0544,3.35697 0.10462,6.71395 0.15285,10.07102 0.0502,3.42524 0.1059,6.8504 0.16113,10.27557 0.10726,6.72128 0.20901,13.44263 0.30664,20.16406 0.77344,-0.17128 1.54688,-0.34257 2.34375,-0.51904 2.90713,-0.52638 4.79252,-0.25925 7.65625,0.39404 0.825,0.18305 1.65,0.3661 2.5,0.55469 0.825,0.1882 1.65,0.37641 2.5,0.57031 1.33611,0.23397 1.33611,0.23397 2.69922,0.47266 2.63951,0.60498 3.60087,1.46956 5.30078,3.52734 -0.66,2.31 -1.32,4.62 -2,7 -0.66,0 -1.32,0 -2,0 0,0.66 0,1.32 0,2 -5.77123,4.78188 -11.64397,6.17076 -19,9 -0.33,15.51 -0.66,31.02 -1,47 1.32,-0.99 2.64,-1.98 4,-3 2.80329,-0.10704 5.29379,-0.0592 8.0625,0.1875 0.71994,0.0445 1.43988,0.0889 2.18164,0.13477 3.67137,0.27612 5.6386,0.59956 8.75586,2.67773 2.03036,6.49717 0.0461,11.12254 -3,17 -9.96753,17.78005 -9.96753,17.78005 -17.95312,20.71875 -1.67292,0.46244 -3.35915,0.8762 -5.04688,1.28125 -0.33,0.66 -0.66,1.32 -1,2 -0.70125,-0.30422 -1.4025,-0.60843 -2.125,-0.92187 -2.95277,-1.10729 -5.78559,-1.7134 -8.875,-2.32813 -6.55925,-1.61161 -6.55925,-1.61161 -9.125,-4.5 -6.09459,-10.56396 -5.03162,-23.78497 -4.9375,-35.64062 0.006,-1.66685 0.006,-1.66685 0.0115,-3.36737 0.0121,-3.49738 0.0307,-6.99467 0.051,-10.49201 0.0265,-4.65104 0.0465,-9.30204 0.0625,-13.95312 0.008,-1.06962 0.0166,-2.13924 0.0251,-3.24127 0.003,-0.97903 0.007,-1.95805 0.01,-2.96674 0.005,-0.86458 0.0105,-1.72916 0.0159,-2.61993 0.10533,-1.97182 0.10533,-1.97182 -1.11353,-2.96894 -1.76697,-0.29498 -3.5388,-0.56112 -5.3125,-0.8125 -3.42478,-0.61013 -5.47903,-1.05483 -8.4375,-2.9375 -1.25,-2.25 -1.25,-2.25 -1.3125,-5.1875 1.35566,-3.90748 2.77625,-5.54537 6.0625,-8.0625 3.61653,-1.3606 7.12268,-2 11,-2 -0.0111,-0.78625 -0.0222,-1.5725 -0.0336,-2.38258 -0.10041,-7.42942 -0.17642,-14.8585 -0.22541,-22.28842 -0.026,-3.81935 -0.0613,-7.63814 -0.11814,-11.45717 -0.0545,-3.6894 -0.0843,-7.37826 -0.0972,-11.06804 -0.009,-1.4038 -0.0272,-2.80757 -0.0543,-4.21114 -0.22905,-12.3613 -0.22905,-12.3613 2.87167,-16.947872 5.47506,-5.449905 15.65497,-4.459468 22.40698,-1.207275 z"
     fill="#6e4a47"
     id="path8" />
  <path
     d="m 806.26958,189.57764 c 2.85225,0.38877 5.46126,0.39287 8.33203,0.26953 3.58744,-0.0923 4.41131,0.0324 7.625,2 3.2914,3.60992 3.33613,6.33074 3.28125,11.07813 -0.91246,8.08773 -4.26526,15.64243 -8.65625,22.42187 -2.90437,4.53202 -3.43594,7.29235 -2.6875,12.625 0.66,0.99 1.32,1.98 2,3 3.53195,0.66833 7.0385,0.95235 10.61719,1.27735 3.77976,0.80745 5.03156,1.72652 7.38281,4.72265 1.23772,2.65225 0.99631,4.02167 0.5,6.9375 -2.71631,5.5458 -7.79461,8.1029 -13.5,10.0625 -9.99307,1.43954 -21.68672,-1.39746 -30.69922,-5.74218 -3.11307,-1.52663 -3.11307,-1.52663 -5.74219,-0.7461 -0.69996,0.38801 -1.39992,0.77602 -2.12109,1.17578 -0.7657,0.39059 -1.53141,0.78117 -2.32031,1.1836 -0.69867,0.37254 -1.39735,0.74507 -2.11719,1.1289 -11.13166,4.73688 -22.71594,0.94236 -33.5625,-2.91015 -4.98235,-2.17978 -7.86073,-5.32337 -10.4375,-10.08985 -3.23799,-9.71397 0.45044,-19.62296 4.64844,-28.47656 3.04967,-5.79305 6.2122,-11.43794 10.35156,-16.52344 0.66,0 1.32,0 2,0 0.26684,-0.59941 0.53367,-1.19883 0.80859,-1.8164 3.42456,-6.27649 10.83779,-10.36985 17.19141,-13.1836 11.98038,-2.78116 25.19941,-0.56352 37.10547,1.60547 z m -25.10547,22.39453 c -9.36956,10.77541 -9.36956,10.77541 -13,24 3.84242,-1.56543 6.19564,-3.98531 9,-7 0.72188,-0.68062 1.44375,-1.36125 2.1875,-2.0625 2.83708,-4.59802 3.17003,-9.6371 3.8125,-14.9375 -0.66,0 -1.32,0 -2,0 z"
     fill="#6e4946"
     id="path9" />
  <path
     d="m 362.20317,180.27686 c 0.74508,0.089 1.49016,0.17789 2.25782,0.26953 0.76828,0.0993 1.53656,0.19852 2.32812,0.30078 0.77602,0.0915 1.55203,0.18305 2.35156,0.27735 5.74424,0.70805 5.74424,0.70805 8.02344,1.84765 1.03125,-0.35062 2.0625,-0.70125 3.125,-1.0625 3.91639,-0.94751 5.85704,-0.67427 9.63672,0.5 2.6262,0.65999 5.09763,0.75667 7.80078,0.875 5.396,0.45527 8.73652,1.68618 12.4375,5.6875 11.53291,14.27434 9.05537,38.9722 9,56.125 -0.0656,11.44071 -0.0656,11.44071 0.25,22.875 0.0464,1.09313 0.0928,2.18625 0.14063,3.3125 0.90076,3.97261 3.20772,5.63627 6.35937,8 2.03545,2.74786 1.48973,5.39118 1.25,8.6875 -1.75368,3.50736 -5.41609,4.74079 -9,6 -3.3125,-0.125 -3.3125,-0.125 -7,-1 -1.30518,-0.12181 -1.30518,-0.12181 -2.63672,-0.24609 -5.04546,-0.55755 -8.69367,-1.35762 -12.36328,-5.00391 -6.94555,-9.62451 -6.38112,-22.5876 -6.125,-33.9375 0.037,-2.71347 0.062,-5.427 0.0859,-8.14062 0.0126,-1.30518 0.0251,-2.61035 0.0381,-3.95508 0.002,-7.59259 -0.49089,-15.14516 -0.99902,-22.7168 -0.1107,1.00902 -0.2214,2.01803 -0.33545,3.05762 -0.41352,3.75056 -0.83709,7.49993 -1.26367,11.24902 -0.18308,1.62144 -0.36344,3.24319 -0.54102,4.86524 -0.25602,2.3342 -0.52183,4.66711 -0.78955,7 -0.0772,0.72306 -0.15434,1.44612 -0.23385,2.1911 -0.42095,3.58325 -0.92468,6.54176 -2.83646,9.63702 -0.66,0 -1.32,0 -2,0 0,0.66 0,1.32 0,2 -5.86218,3.3219 -12.65657,1.63688 -18.9375,0.25 -3.73646,-1.52508 -4.27723,-2.71196 -6.0625,-6.25 -3.30911,-11.1023 -2.37726,-23.56816 -2.4563,-35.04126 -0.0217,-2.64931 -0.0611,-5.29794 -0.10229,-7.94702 -1.2e-4,-0.80118 -2.4e-4,-1.60235 -3.5e-4,-2.42781 -0.0921,-5.25858 -1.10103,-8.86821 -3.44106,-13.58391 -1.05316,-2.75443 -1.10854,-3.6382 -0.25,-6.5 3.04529,-6.09058 3.04529,-6.09058 6.09912,-7.12841 2.22285,-0.38402 3.95672,-0.33896 6.18994,-0.0669 z"
     fill="#6d4946"
     id="path10" />
  <path
     d="m 513.16411,164.22217 c 1.15242,0.16436 1.15242,0.16436 2.32813,0.33203 6.44692,1.0416 11.38635,3.00891 15.98437,7.85547 3.80849,5.78326 4.45276,10.73182 3.6875,17.5625 -1.87725,8.06711 -4.29801,14.78776 -11.36719,19.61719 -6.47566,4.01606 -12.00767,6.48574 -19.63281,7.38281 1.92013,7.40943 3.76365,13.65749 8.82813,19.51172 1.17187,1.48828 1.17187,1.48828 1.17187,3.48828 4.87142,0.56952 9.65356,1.0676 14.5625,0.9375 4.63805,-0.0661 9.00335,0.70653 13.4375,2.0625 1,1 1,1 1.375,4.25 -0.375,3.75 -0.375,3.75 -2.375,6.4375 -6.89473,5.31469 -13.25909,7.74999 -22,7.3125 -3.51938,-0.55091 -6.96929,-1.31649 -10.4375,-2.125 -0.90299,-0.1882 -1.80598,-0.3764 -2.73633,-0.57031 -6.49435,-1.50485 -10.78453,-4.00674 -15.82617,-8.30469 -0.99,-0.72187 -1.98,-1.44375 -3,-2.1875 -0.66,-0.59812 -1.32,-1.19625 -2,-1.8125 0,-0.99 0,-1.98 0,-3 -0.66,0 -1.32,0 -2,0 -10.00961,-19.32891 -9.70037,-38.61955 -3.35156,-59.3125 6.02176,-16.42931 16.7206,-22.14421 33.35156,-19.4375 z"
     fill="#6e4946"
     id="path11" />
  <path
     d="m 1139.4141,180.40967 c 3.618,0.32562 7.1217,0.62213 10.75,0.4375 3,0.125 3,0.125 5.3125,1.75 3.1643,1.61895 3.5906,1.32867 6.875,0.4375 5.2857,-1.3154 9.9713,-0.88468 15.3125,-0.25 1.2031,0.14224 1.2031,0.14224 2.4304,0.28736 5.7503,0.74048 5.7503,0.74048 8.0696,1.90014 0,0.66 0,1.32 0,2 0.66,0 1.32,0 2,0 1.2756,4.33715 1.1315,6.98296 -1,11 -3.9182,3.32844 -8.2575,5.79604 -13,7.75 -3.1018,0.90886 -3.1018,0.90886 -4,3.25 -0.66,0 -1.32,0 -2,0 -0.4847,1.68591 -0.9625,3.37383 -1.4375,5.0625 -0.2668,0.93973 -0.5337,1.87946 -0.8086,2.84766 -2.137,8.75863 -2.0428,17.6069 -2.1836,26.57422 -0.1705,6.16697 -0.3572,11.15537 -3.5703,16.51562 -0.99,0.33 -1.98,0.66 -3,1 -0.3919,0.495 -0.7837,0.99 -1.1875,1.5 -2.9293,2.4243 -6.0777,2.19387 -9.8125,2.5 0,-0.66 0,-1.32 0,-2 -0.7244,0.0464 -1.4489,0.0928 -2.1953,0.14063 -4.7124,0.17593 -8.0214,0.21665 -12.3672,-1.76563 -5.5752,-5.43222 -5.0009,-13.41819 -5.4726,-20.74609 -0.084,-1.19569 -0.1672,-2.39138 -0.2533,-3.62331 -0.2654,-3.8139 -0.5203,-7.62841 -0.7741,-11.4431 -0.2592,-3.81096 -0.5207,-7.62175 -0.7848,-11.43239 -0.1635,-2.36821 -0.3239,-4.73665 -0.4808,-7.10531 -0.4418,-6.5982 -0.4418,-6.5982 -1.2769,-13.15419 -0.4447,-3.23191 -0.07,-4.52335 1.5425,-7.30811 0.3803,-0.67933 0.7606,-1.35867 1.1524,-2.05859 0.4505,-0.74443 0.4505,-0.74443 0.9101,-1.50391 0.66,0 1.32,0 2,0 0,-0.66 0,-1.32 0,-2 3.4518,-1.15061 5.6417,-0.90234 9.25,-0.5625 z"
     fill="#6d4846"
     id="path12" />
  <path
     d="m 552.16411,166.90967 c 0.79406,0.0367 1.58813,0.0735 2.40625,0.11133 5.01058,0.35492 8.01271,1.15988 11.59375,4.95117 1.3125,2.25 1.3125,2.25 2,4 1.19496,-0.524 1.19496,-0.524 2.41406,-1.05859 1.05961,-0.45504 2.11922,-0.91008 3.21094,-1.37891 1.04414,-0.45246 2.08828,-0.90492 3.16406,-1.37109 5.38688,-1.99878 9.5156,-2.39708 15.14844,-1.31641 3.37235,0.63937 6.64105,1.19364 10.0625,1.4375 3,0.6875 3,0.6875 5.5,2.875 1.5,2.8125 1.5,2.8125 1.625,5.875 -1.53541,4.00912 -3.41294,4.8241 -7.125,6.9375 -3.53502,1.27525 -7.16972,2.14909 -10.81055,3.06641 -5.34845,1.43832 -9.36178,3.13296 -12.51757,7.96875 -0.30422,0.66902 -0.60844,1.33805 -0.92188,2.02734 -0.4718,1.00741 -0.4718,1.00741 -0.95312,2.03516 -1.39542,3.33122 -1.93325,5.94443 -1.92188,9.52734 -0.003,0.79664 -0.005,1.59328 -0.008,2.41407 0.10694,2.38423 0.32567,4.66705 0.61719,7.03125 0.66065,5.7221 0.81264,11.42366 0.89062,17.17968 0.0561,1.59328 0.0561,1.59328 0.11328,3.21875 0.0875,7.737 0.0875,7.737 -2.77344,11.6836 -3.38837,2.30604 -5.75285,2.99311 -9.71484,3.84765 -0.495,-0.495 -0.495,-0.495 -1,-1 -1.93721,-0.19049 -3.87477,-0.37739 -5.8125,-0.5625 -5.66538,-0.88816 -5.66538,-0.88816 -7.83594,-3.17187 -2.96022,-5.92046 -3.50608,-12.16889 -3.91406,-18.70313 -0.0446,-0.70447 -0.0893,-1.40894 -0.13525,-2.13476 -0.26133,-4.49194 -0.28577,-8.9269 -0.17725,-13.42774 0.0631,-7.91977 -1.43825,-15.30371 -3.125,-23 -0.26297,-1.26457 -0.52594,-2.52914 -0.79687,-3.83203 -0.99844,-6.14165 -0.99844,-6.14165 -4.20313,-11.16797 -0.15234,-1.98828 -0.15234,-1.98828 0.0625,-4.3125 0.0528,-0.75925 0.1057,-1.51851 0.16016,-2.30078 2.51813,-7.73154 7.77137,-8.08044 14.77734,-7.44922 z"
     fill="#6d4845"
     id="path13" />
  <path
     d="m 1323.4727,216.24561 c 2.8503,0.89488 2.8503,0.89488 6.5664,0.72656 7.1541,0 12.2867,5.20792 17.125,10 2.3878,4.77562 1.3616,10.85799 -0.1875,15.75 -5.2831,9.47323 -12.8108,14.17198 -22.9531,17.66016 -4.9236,1.01565 -9.0772,-0.17648 -13.8594,-1.41016 -1.729,-0.25139 -3.4581,-0.50143 -5.1875,-0.75 -6.3726,-1.28872 -10.9217,-4.68829 -14.75,-9.875 -2.9325,-6.55498 -2.8965,-12.73382 -0.4375,-19.4375 1.9935,-4.58074 4.4668,-8.74254 8.375,-11.9375 1.8438,-0.60547 1.8438,-0.60547 4,-1 0.8559,-0.2114 1.7119,-0.42281 2.5938,-0.64062 6.9639,-1.46019 11.9179,-1.12411 18.7148,0.91406 z"
     fill="#6d4945"
     id="path14" />
  <path
     d="m 1219.1641,256.97217 c 2.31,0 4.62,0 7,0 -0.33,0.66 -0.66,1.32 -1,2 0.66,0.66 1.32,1.32 2,2 -2.97,-0.33 -5.94,-0.66 -9,-1 0.33,-0.99 0.66,-1.98 1,-3 z"
     fill="#4c2e2b"
     id="path15" />
  <path
     d="m 847.16411,263.97217 c 3.63,0 7.26,0 11,0 0.33,0.66 0.66,1.32 1,2 -4.68966,1.11659 -7.53764,0.8062 -12,-1 0,-0.33 0,-0.66 0,-1 z"
     fill="#631a13"
     id="path16" />
  <path
     d="m 1089.1641,257.97217 c -2.5948,2.59482 -4.3988,2.69991 -8,3 -0.66,-0.66 -1.32,-1.32 -2,-2 6.2857,-2.42857 6.2857,-2.42857 10,-1 z"
     fill="#563532"
     id="path17" />
  <path
     d="m 1071.1641,179.97217 c 0,4.38969 -2.128,5.76906 -5,9 -0.33,-0.99 -0.66,-1.98 -1,-3 1.98,-1.98 3.96,-3.96 6,-6 z"
     fill="#523231"
     id="path18" />
  <path
     d="m 206.16411,271.97217 c -0.33,0.99 -0.66,1.98 -1,3 -1.84766,0.73047 -1.84766,0.73047 -4.0625,1.1875 -0.73348,0.15856 -1.46695,0.31711 -2.22266,0.48047 -0.84884,0.16436 -0.84884,0.16436 -1.71484,0.33203 0,-0.99 0,-1.98 0,-3 6.75,-2 6.75,-2 9,-2 z"
     fill="#482927"
     id="path19" />
  <path
     d=""
     fill="#000000"
     id="path20" />
  <path
     d=""
     fill="#000000"
     id="path21" />
  <path
     d=""
     fill="#000000"
     id="path22" />
  <path
     d=""
     fill="#ff0000"
     id="path23" />
  <path
     d=""
     fill="#ff0000"
     id="path24" />
  <path
     d=""
     fill="#000000"
     id="path25" />
  <path
     d=""
     fill="#000000"
     id="path26" />
  <path
     d=""
     fill="#000000"
     id="path27" />
  <path
     d=""
     fill="#000000"
     id="path28" />
  <path
     d=""
     fill="#000000"
     id="path29" />
  <path
     d=""
     fill="#000000"
     id="path30" />
  <path
     d=""
     fill="#000000"
     id="path31" />
  <path
     d=""
     fill="#000000"
     id="path32" />
  <path
     d=""
     fill="#000000"
     id="path33" />
  <path
     d=""
     fill="#000000"
     id="path34" />
</svg>
