<?xml version="1.0" encoding="UTF-8" standalone="no"?>
<svg
   version="1.1"
   id="Layer_1"
   x="0px"
   y="0px"
   width="775"
   viewBox="0 0 775 450"
   enable-background="new 0 0 1920 1334"
   xml:space="preserve"
   sodipodi:docname="file.svg"
   height="450"
   inkscape:version="1.4.2 (f4327f4, 2025-05-13)"
   xmlns:inkscape="http://www.inkscape.org/namespaces/inkscape"
   xmlns:sodipodi="http://sodipodi.sourceforge.net/DTD/sodipodi-0.dtd"
   xmlns="http://www.w3.org/2000/svg"
   xmlns:svg="http://www.w3.org/2000/svg"><defs
   id="defs41" /><sodipodi:namedview
   id="namedview41"
   pagecolor="#ffffff"
   bordercolor="#000000"
   borderopacity="0.25"
   inkscape:showpageshadow="2"
   inkscape:pageopacity="0.0"
   inkscape:pagecheckerboard="0"
   inkscape:deskcolor="#d1d1d1"
   inkscape:zoom="0.64296891"
   inkscape:cx="1010.9354"
   inkscape:cy="605.78357"
   inkscape:window-width="2560"
   inkscape:window-height="1494"
   inkscape:window-x="-11"
   inkscape:window-y="-11"
   inkscape:window-maximized="1"
   inkscape:current-layer="Layer_1" />

<path
   fill="#bce3f2"
   opacity="1"
   stroke="none"
   d="m 21.197892,273.75995 c -1.424255,-8.88593 -3.524292,-17.33545 -3.916199,-25.86347 -0.64209,-13.96936 -0.487976,-27.99896 -0.08435,-41.9862 0.394226,-13.66047 3.547668,-26.85132 8.241577,-39.70716 7.846679,-21.49072 19.842956,-40.49756 35.246948,-57.18799 13.397034,-14.515931 28.227356,-27.637452 45.930662,-36.804871 14.54615,-7.532471 29.01954,-15.648346 44.3924,-21.027496 18.4964,-6.472168 37.77026,-10.973664 56.97101,-15.10315 15.63861,-3.363403 31.64984,-5.032257 47.5246,-7.24707 12.60455,-1.758545 25.23394,-3.3815 37.88848,-4.72406 7.24909,-0.769104 14.59278,-0.617004 21.85523,-1.294556 35.49316,-3.311249 71.08423,-3.414978 106.65558,-2.741272 17.69678,0.335144 35.36133,2.405304 53.03869,3.713715 8.91773,0.660004 17.88392,0.977569 26.73511,2.151703 13.42664,1.781036 26.89563,3.599884 40.12293,6.443176 18.90185,4.063049 37.92675,8.057404 56.28857,13.975525 15.67639,5.052582 30.56738,12.607178 45.66712,19.365112 15.10815,6.761688 28.28393,16.555817 41.07531,26.937348 11.01917,8.943176 21.2699,18.660836 29.23731,30.408576 8.27417,12.19989 16.87756,24.35425 23.4834,37.46258 8.26355,16.39832 14.95459,33.61066 15.65734,52.50159 0.55249,14.85388 1.42115,29.78766 -2.19091,44.29553 -5.33423,21.42578 -14.89344,41.03485 -27.07801,59.48609 -8.27612,12.53253 -17.18481,24.48736 -28.15625,34.7127 -15.35302,14.30896 -31.97632,26.9524 -51.03894,36.047 -11.09009,5.29102 -22.01477,11.06586 -33.47387,15.40881 -12.36292,4.68567 -25.17518,8.27515 -37.94812,11.76972 -21.39893,5.85455 -43.13477,10.11877 -65.26233,12.14526 -14.99268,1.37299 -30.04236,2.25623 -44.98047,4.06818 -33.3125,4.04077 -66.75244,3.00665 -100.14276,2.66601 -17.51844,-0.17865 -35.01172,-2.44445 -52.52515,-3.63885 -7.9455,-0.54187 -15.95477,-0.37567 -23.86023,-1.22669 -14.62347,-1.57409 -29.21271,-3.51342 -43.77716,-5.57635 -13.58624,-1.92432 -27.14966,-4.04565 -40.66852,-6.3949 -7.46582,-1.29742 -14.89111,-2.97424 -22.21014,-4.94299 -23.31323,-6.27112 -45.9563,-14.47626 -67.04255,-26.2854 C 98.853532,377.72534 85.758195,368.54474 73.817521,357.51306 62.495194,347.05261 52.366715,335.80847 43.728654,323.14239 33.469498,308.09942 25.833451,291.83301 21.197892,273.75995 M 164.4482,396.8844 c -0.58655,0.13916 -1.17316,0.27832 -2.74286,0.65069 1.80512,0.68158 2.65643,1.10822 3.55823,1.3277 13.48938,3.28296 27.05572,6.27564 40.46399,9.86029 22.02191,5.88739 44.68548,7.28497 67.14758,10.07288 8.86322,1.10003 17.8169,1.46106 26.72492,2.21203 14.67694,1.23737 29.34961,3.5647 44.0252,3.57337 35.91687,0.0212 71.88013,2.11389 107.75647,-1.65753 13.16577,-1.38398 26.44727,-1.69367 39.59973,-3.17145 13.12195,-1.47437 26.24976,-3.2934 39.18897,-5.88861 13.44336,-2.69635 26.79175,-6.06909 39.94653,-9.9444 13.75183,-4.05103 27.73706,-7.94275 40.68225,-13.93152 14.76355,-6.82989 28.6742,-15.60028 42.58912,-24.12536 6.60156,-4.04444 12.62304,-9.17316 18.43811,-14.33881 18.94287,-16.82739 34.14758,-36.7262 44.93249,-59.56305 5.90039,-12.49408 10.02344,-25.90662 14.08081,-39.17023 4.30493,-14.07293 2.95154,-28.7406 1.42932,-43.03186 -0.9657,-9.06573 -3.8291,-18.17932 -7.3114,-26.66845 -5.25427,-12.80872 -10.85425,-25.66083 -18.02161,-37.45258 -8.99108,-14.79218 -20.09191,-28.05158 -32.96606,-40.01154 C 659.83535,92.494805 643.82412,82.353875 627.38381,72.822136 617.99086,67.376336 607.78579,63.080651 597.53188,59.431939 583.98781,54.61245 570.15114,50.499627 556.2372,46.859124 529.44863,39.850152 501.98598,36.61895 474.50356,33.974145 c -19.94153,-1.919098 -39.96961,-3.434601 -59.98828,-3.919343 -20.60193,-0.498901 -41.24384,0.304352 -61.85993,0.850586 -15.92321,0.421906 -31.83606,1.27771 -47.74817,2.050873 -4.12646,0.20047 -8.23742,0.775086 -12.34753,1.246674 -10.34143,1.186584 -20.68097,2.389404 -31.01617,3.62857 -12.96369,1.554261 -26.00415,2.672364 -38.85926,4.869049 -12.04242,2.05777 -23.96362,4.981354 -35.79577,8.069275 -11.63019,3.035218 -23.23023,6.331635 -34.56555,10.306183 -9.65131,3.384003 -19.29187,7.193085 -28.23707,12.092438 -10.25567,5.617126 -20.25055,11.996155 -29.419798,19.233704 -9.902161,7.816036 -19.729493,16.168156 -27.742371,25.819886 -9.140137,11.0094 -16.696167,23.43756 -24.111145,35.74878 -8.77533,14.56964 -12.474732,31.0954 -14.430664,47.70294 -1.548279,13.14557 -1.143128,26.55097 -1.109802,39.83973 0.01532,6.12494 1.215576,12.24688 1.87854,18.37024 0.206726,-0.0288 0.413452,-0.0576 0.620117,-0.0863 0.392883,-7.6015 0.785827,-15.203 1.178711,-22.8045 0.448303,-0.007 0.896606,-0.0132 1.344909,-0.0198 -1.571899,16.7204 3.202759,32.4643 8.390503,48.14465 -0.563415,0.14289 -1.12677,0.28571 -1.690185,0.42859 -1.066406,-1.3493 -2.132874,-2.69861 -3.19928,-4.04785 -0.539734,0.30457 -1.079407,0.60913 -1.619141,0.91376 3.612977,7.91504 6.741944,16.09686 10.929566,23.69525 12.659485,22.97113 29.852539,42.16504 50.841919,57.78412 7.502621,5.58295 15.593081,10.69482 24.079101,14.56665 14.75245,6.73114 30.02094,12.33124 45.08246,18.39654 0,0 0.006,-0.01 -0.66107,0.0296 M 34.599686,279.48773 c 0,0 0.100159,-0.18463 0.100159,-0.18463 0,0 -0.194519,0.0291 -0.100159,0.18463 z"
   id="path2" />
<path
   fill="#f2d4bc"
   opacity="1"
   stroke="none"
   d="m 165.09987,396.86383 c -15.05212,-6.07434 -30.32061,-11.67444 -45.07306,-18.40558 -8.48602,-3.87183 -16.57648,-8.9837 -24.079101,-14.56665 -20.98938,-15.61908 -38.182434,-34.81299 -50.841919,-57.78412 -4.187622,-7.59839 -7.316589,-15.78021 -10.929566,-23.69525 0.539734,-0.30463 1.079407,-0.60919 1.619141,-0.91376 1.066406,1.34924 2.132874,2.69855 3.19928,4.04785 0.563415,-0.14288 1.12677,-0.2857 1.690185,-0.42859 -5.187744,-15.68035 -9.962402,-31.42425 -8.390503,-48.14465 -0.448303,0.007 -0.896606,0.0132 -1.344909,0.0198 -0.392884,7.6015 -0.785828,15.203 -1.178711,22.8045 -0.206665,0.0288 -0.413391,0.0575 -0.620117,0.0863 -0.662964,-6.12336 -1.863221,-12.2453 -1.87854,-18.37024 -0.03333,-13.28876 -0.438477,-26.69416 1.109802,-39.83973 1.955932,-16.60754 5.655334,-33.1333 14.430664,-47.70294 7.414978,-12.31122 14.971008,-24.73938 24.111145,-35.74878 8.012878,-9.65173 17.84021,-18.00385 27.742371,-25.819886 9.169248,-7.237549 19.164128,-13.616578 29.419798,-19.233704 8.9452,-4.899353 18.58576,-8.708435 28.23707,-12.092438 11.33532,-3.974548 22.93536,-7.270965 34.56555,-10.306183 11.83215,-3.087921 23.75335,-6.011505 35.79577,-8.069275 12.85511,-2.196685 25.89557,-3.314788 38.85926,-4.869049 10.3352,-1.239166 20.67474,-2.441986 31.01617,-3.62857 4.11011,-0.471588 8.22107,-1.046204 12.34753,-1.246674 15.91211,-0.773163 31.82496,-1.628967 47.74817,-2.050873 20.61609,-0.546234 41.258,-1.349487 61.85993,-0.850586 20.01867,0.484742 40.04675,2.000245 59.98828,3.919343 27.48242,2.644805 54.94507,5.876007 81.73364,12.884979 13.91394,3.640503 27.75061,7.753326 41.29468,12.572815 10.25391,3.648712 20.45898,7.944397 29.85193,13.390197 16.44031,9.531739 32.45154,19.672669 46.58618,32.803834 12.87415,11.95996 23.97498,25.21936 32.96606,40.01154 7.16736,11.79175 12.76734,24.64386 18.02161,37.45258 3.4823,8.48913 6.3457,17.60272 7.3114,26.66845 1.52222,14.29126 2.87561,28.95893 -1.42932,43.03186 -4.05737,13.26361 -8.18042,26.67615 -14.08081,39.17023 -10.78491,22.83685 -25.98962,42.73566 -44.93249,59.56305 -5.81507,5.16565 -11.83655,10.29437 -18.43811,14.33881 -13.91492,8.52508 -27.82557,17.29547 -42.58912,24.12536 -12.94519,5.98877 -26.93042,9.88049 -40.68225,13.93152 -13.15478,3.87531 -26.50317,7.24805 -39.94653,9.9444 -12.93921,2.59521 -26.06702,4.41424 -39.18897,5.88861 -13.15246,1.47778 -26.43396,1.78747 -39.59973,3.17145 -35.87634,3.77142 -71.8396,1.67877 -107.75647,1.65753 -14.67559,-0.009 -29.34826,-2.336 -44.0252,-3.57337 -8.90802,-0.75097 -17.8617,-1.112 -26.72492,-2.21203 -22.4621,-2.78791 -45.12567,-4.18549 -67.14758,-10.07288 -13.40827,-3.58465 -26.97461,-6.57733 -40.46399,-9.86029 -0.9018,-0.21948 -1.75311,-0.64612 -3.55823,-1.3277 1.5697,-0.37237 2.15631,-0.51153 3.22852,-0.42236 1.08502,0.32019 1.68438,0.41217 2.28381,0.50409 0.0225,-0.19965 0.0449,-0.39923 0.0673,-0.59888 -0.72833,-0.0514 -1.45672,-0.10278 -2.18512,-0.15411 M 97.595353,105.82037 c -17.658936,13.33759 -32.432861,28.97846 -39.216553,50.65814 -3.852722,12.31281 -7.783325,24.66187 -10.521057,37.24652 -2.946533,13.54389 -4.885498,27.33826 -6.638489,41.10303 -2.44696,19.21369 3.960877,37.03003 9.831299,54.8241 4.11731,12.47992 12.311829,22.64862 19.483032,33.41473 11.258057,16.90204 26.518799,29.38312 43.075075,40.64569 14.02588,9.5412 30.07611,14.67639 45.37531,21.4303 4.94684,2.18396 10.31836,3.78528 15.65735,4.62756 13.71423,2.16352 27.53137,3.66529 41.28253,5.60779 6.70794,0.94757 13.33648,2.4549 20.04284,3.41657 14.23517,2.04113 28.51166,3.79419 42.74451,5.85034 10.96124,1.58343 21.82581,4.16858 32.83319,5.0227 17.03687,1.32203 34.15875,1.55017 51.24481,2.23511 1.6634,0.0668 3.32868,0.0859 4.99317,0.1236 13.22052,0.29907 26.44763,1.01098 39.65991,0.79962 20.26074,-0.3241 40.5105,-1.30805 60.76721,-1.94019 2.27002,-0.0709 4.65943,0.84778 6.81507,0.41626 12.97424,-2.59716 25.89123,-5.47851 38.83728,-8.21783 13.27783,-2.80951 26.61096,-5.37396 39.83923,-8.39777 13.70398,-3.13238 27.75708,-5.48584 40.85571,-10.34204 19.18665,-7.11334 37.19092,-17.09588 53.20569,-30.01629 9.38562,-7.57215 18.3291,-15.80756 26.7041,-24.48517 8.38574,-8.68872 15.90845,-18.22351 23.58777,-27.56958 1.50671,-1.83374 2.05432,-4.47888 2.948,-6.78717 1.12805,-2.91339 1.70642,-6.13996 3.30066,-8.75696 12.53479,-20.57526 17.59326,-42.88757 15.7677,-66.79108 -0.60413,-7.90851 -1.07691,-15.93152 -2.82288,-23.62701 C 713.4507,179.57525 705.44509,164.84356 695.37624,150.87079 683.07058,133.79345 667.59609,120.13141 651.77163,106.69092 638.12233,95.097954 622.22646,87.039055 606.8749,78.077935 592.47878,69.674523 577.959,61.718316 561.99355,56.66137 544.89821,51.246575 527.71889,46.31762 509.76796,44.504448 489.35573,42.442742 468.9999,39.783806 448.56728,37.973992 437.16359,36.963891 425.64846,37.274315 414.19436,36.74981 407.91469,36.462212 401.66738,35.49746 395.3882,35.155755 385.27413,34.60537 375.14248,33.945244 365.02449,34.034417 c -8.43139,0.07431 -16.85986,1.087921 -25.2785,1.814636 -8.08502,0.697968 -16.17737,1.387726 -24.22821,2.388916 -16.91223,2.103149 -33.80469,4.368195 -50.69495,6.64325 -12.78906,1.722717 -25.93145,2.22998 -38.26214,5.642639 -22.5235,6.233673 -44.69635,13.836334 -66.76587,21.579284 -22.2417,7.803345 -42.65802,19.280823 -62.199467,33.717228 M 234.65682,406.84613 c -6.20398,-0.99481 -12.39533,-2.07837 -18.61542,-2.95929 -6.05737,-0.85791 -12.15619,-1.42267 -18.21448,-2.27442 -5.97857,-0.84051 -11.92932,-1.87933 -17.89227,-2.83117 -0.0568,0.4729 -0.11365,0.9458 -0.17047,1.4187 32.05115,4.73456 63.61865,12.90484 96.32379,13.0379 -13.51251,-2.12201 -27.02496,-4.24396 -41.43115,-6.39172 z"
   id="path3" />
<path
   fill="#f2d4bc"
   opacity="1"
   stroke="none"
   d="m 34.552506,279.40997 c -0.04718,-0.0778 0.147339,-0.10687 0.147339,-0.10687 0,0 -0.100159,0.18463 -0.147339,0.10687 z"
   id="path4" />
<path
   fill="#b5cad3"
   opacity="1"
   stroke="none"
   d="m 97.87288,105.59417 c 19.26392,-14.210205 39.68024,-25.687683 61.92194,-33.491028 22.06952,-7.74295 44.24237,-15.345611 66.76587,-21.579284 12.33069,-3.412659 25.47308,-3.919922 38.26214,-5.642639 16.89026,-2.275055 33.78272,-4.540101 50.69495,-6.64325 8.05084,-1.00119 16.14319,-1.690948 24.22821,-2.388916 8.41864,-0.726715 16.84711,-1.740326 25.2785,-1.814636 10.11799,-0.08917 20.24964,0.570953 30.36371,1.121338 6.27918,0.341705 12.52649,1.306457 18.80616,1.594055 11.4541,0.524505 22.96923,0.214081 34.37292,1.224182 20.43262,1.809814 40.78845,4.46875 61.20068,6.530456 17.95093,1.813172 35.13025,6.742127 52.22559,12.156922 15.96545,5.056946 30.48523,13.013153 44.88135,21.416565 15.35156,8.96112 31.24743,17.020019 44.89673,28.612985 15.82446,13.44049 31.29895,27.10253 43.60461,44.17987 10.06885,13.97277 18.07446,28.70446 21.87158,45.44055 1.74597,7.69549 2.21875,15.7185 2.82288,23.62701 1.82556,23.90351 -3.23291,46.21582 -15.7677,66.79108 -1.59424,2.617 -2.17261,5.84357 -3.30066,8.75696 -0.89368,2.30829 -1.44129,4.95343 -2.948,6.78717 -7.67932,9.34607 -15.20203,18.88086 -23.58777,27.56958 -8.375,8.67761 -17.31848,16.91302 -26.7041,24.48517 -16.01477,12.92041 -34.01904,22.90295 -53.20569,30.01629 -13.09863,4.8562 -27.15173,7.20966 -40.85571,10.34204 -13.22827,3.02381 -26.5614,5.58826 -39.83923,8.39777 -12.94605,2.73932 -25.86304,5.62067 -38.83728,8.21783 -2.15564,0.43152 -4.54505,-0.48712 -6.81507,-0.41626 -20.25671,0.63214 -40.50647,1.61609 -60.76721,1.94019 -13.21228,0.21136 -26.43939,-0.50055 -39.65991,-0.79962 -1.66449,-0.0377 -3.32977,-0.0568 -4.99317,-0.1236 -17.08606,-0.68494 -34.20794,-0.91308 -51.24481,-2.23511 -11.00738,-0.85412 -21.87195,-3.43927 -32.83319,-5.0227 -14.23285,-2.05615 -28.50934,-3.80921 -42.74451,-5.85034 -6.70636,-0.96167 -13.3349,-2.469 -20.04284,-3.41657 -13.75116,-1.9425 -27.5683,-3.44427 -41.28253,-5.60779 -5.33899,-0.84228 -10.71051,-2.4436 -15.65735,-4.62756 -15.2992,-6.75391 -31.34943,-11.8891 -45.37531,-21.4303 C 97.052384,352.45001 81.791642,339.96893 70.533585,323.06689 63.362382,312.30078 55.167863,302.13208 51.050553,289.65216 c -5.870422,-17.79407 -12.278259,-35.61041 -9.831299,-54.8241 1.752991,-13.76477 3.691956,-27.55914 6.638489,-41.10303 2.737732,-12.58465 6.668335,-24.93371 10.521057,-37.24652 6.783692,-21.67968 21.557617,-37.32055 39.49408,-50.88434 m 30.23664,100.26014 c 0,0 -0.002,0.002 -0.0158,0.73303 1.72461,2.09265 3.06543,4.82562 5.25702,6.13946 4.06402,2.43641 8.49609,4.43341 13.00244,5.92646 16.47009,5.45691 34.18475,7.54565 48.88947,18.57098 0,0 0.14459,0.35535 0.0379,1.11823 1.65649,3.21887 0.25226,5.59948 -2.45972,7.08172 -9.03168,4.93604 -17.91724,10.26062 -27.3324,14.34455 -13.29553,5.76702 -26.99804,10.60083 -40.55755,15.75195 -6.3404,2.40863 -10.88459,6.8031 -14.2201,12.52295 -2.39783,4.112 0.42371,11.78888 4.90112,12.64453 7.0058,1.3388 14.09516,2.45251 21.19996,2.99573 5.92786,0.4533 11.63892,0.49102 17.61413,-2.45057 7.55274,-3.71813 16.46558,-4.59655 24.21357,-8.01165 14.4458,-6.36756 28.62036,-13.40155 42.62597,-20.69898 9.78608,-5.09894 18.52155,-11.73156 22.64899,-22.62262 0.68005,-1.79443 0.25745,-4.00665 0.33197,-6.70965 0.0129,-0.45557 0.0258,-0.9112 0.56152,-1.94922 -0.63214,-4.00134 -0.31598,-8.48786 -2.06982,-11.91516 -5.82397,-11.38117 -16.33472,-17.44409 -27.86951,-21.5069 -11.18493,-3.93951 -22.63812,-7.13318 -34.02606,-10.47516 -6.74628,-1.9798 -7.68225,-4.46954 -2.34436,-9.28143 5.51184,-4.96869 11.38147,-9.64899 17.57135,-13.73267 10.37872,-6.84741 20.93811,-13.59704 34.08966,-13.7818 0.94666,-0.0132 1.87036,-0.66497 2.83002,-0.92694 3.53851,-0.96606 7.07153,-2.59912 10.63635,-2.6806 6.47278,-0.14795 12.7497,-0.30414 18.95624,-2.69721 5.04382,-1.94464 8.78509,-9.26574 6.51373,-14.31652 -2.82452,-6.28083 -16.24621,-10.77619 -24.62701,-8.08301 -0.42145,-0.0607 -0.8429,-0.1214 -1.51435,-0.87445 -11.96081,-5.01978 -23.96179,-2.52893 -35.82843,0.17578 -5.89331,1.34326 -11.651,3.49756 -17.26989,5.77826 -8.50049,3.45019 -17.21723,6.65466 -25.11536,11.22064 -7.78235,4.49902 -14.8479,10.33069 -21.87469,16.01434 -5.50171,4.45008 -10.77717,9.32563 -13.07319,16.99128 -0.16485,0.29083 -0.3847,0.53149 -1.35235,0.82403 -0.27735,0.75678 -0.55463,1.51349 -1.05011,2.94837 -0.25452,0.91503 -0.5091,1.83007 -1.39252,3.06152 -3.51575,5.9801 -2.60272,13.7157 2.11176,17.87073 m 191.8753,51.39972 c 3.6499,-0.7262 8.25873,-3.2273 10.78015,-1.86493 9.80823,5.29944 20.66071,4.87524 30.98322,7.05206 8.00647,1.68842 15.88342,-0.65112 23.40991,-3.44769 1.60107,-0.59497 3.15064,-2.4516 3.86639,-4.09949 2.29847,-5.29193 1.26716,-7.93555 -4.00531,-10.45526 -4.03704,-1.92926 -8.21215,-3.60791 -12.42431,-5.12464 -10.94831,-3.9422 -16.68921,-17.08282 -12.43592,-27.81518 3.22913,-8.14777 6.16749,-16.44299 8.63855,-24.84802 1.71296,-5.82611 -0.38433,-8.17298 -5.69091,-10.62012 -4.1471,-1.91242 -8.04346,-2.4986 -12.62531,-2.62268 -7.96417,-0.21576 -15.95343,-1.74738 -23.80456,-3.35175 -10.97602,-2.24286 -21.61469,-2.07501 -32.26374,1.73773 -7.68658,2.75214 -13.68829,7.66169 -19.90228,12.74463 -11.80286,9.65448 -19.20074,21.51618 -21.0451,36.61377 -2.17707,17.82141 5.73602,30.48078 21.53509,35.13575 14.39172,4.24029 29.34747,5.66436 44.98413,0.96582 m 196.60822,-83.50428 c -5.29969,3.37622 -11.01807,6.24732 -15.81751,10.22681 -12.59338,10.44141 -21.71252,23.77618 -29.36535,38.065 -9.97107,18.61743 -1.68567,33.61945 13.0476,43.20697 11.2638,7.32978 23.9115,10.2287 37.15113,11.71448 10.25647,1.151 20.15112,1.32227 29.96606,-2.42206 4.56995,-1.74328 5.34815,-5.64239 5.22534,-9.22265 -0.0695,-2.02961 -2.69616,-4.88282 -4.82934,-5.75525 -5.79956,-2.37171 -11.97278,-3.81556 -17.95557,-5.75739 -7.72754,-2.50824 -15.06506,-5.7019 -18.32678,-13.97882 -2.02027,-5.12622 -0.20569,-7.03308 5.13244,-6.84619 7.27796,0.25488 14.69544,0.7663 21.83899,-0.28613 13.81116,-2.03461 27.19727,-5.08918 37.97937,-15.55463 14.39112,-13.96832 9.02979,-35.16602 -6.82165,-40.84546 -5.54529,-1.98694 -11.26013,-3.68652 -17.0354,-4.80725 -13.27283,-2.57562 -26.61377,-4.39655 -40.18933,2.26257 M 379.73087,203.7016 c 6.7987,15.22973 14.5263,29.87768 25.69366,42.48809 6.12354,6.91474 12.40796,13.16578 22.81946,11.48774 1.09875,-0.17707 2.44995,-0.0761 3.4165,0.41876 8.40857,4.30432 16.14002,0.18701 24.0033,-1.89252 0.93762,-0.24798 1.92297,-1.46783 2.30444,-2.46063 1.42102,-3.69849 3.29517,-7.40839 3.74768,-11.26111 1.88049,-16.01068 7.42786,-30.67639 15.49634,-44.45685 3.91895,-6.69342 8.34351,-13.08905 12.36926,-19.72259 1.59485,-2.62805 2.96851,-5.89386 -1.23132,-7.35504 -5.79297,-2.01532 -11.31824,-5.40747 -17.97913,-3.99549 -1.39392,0.29547 -3.04528,-0.93756 -4.61535,-1.09655 -3.81299,-0.38587 -7.93677,-1.58387 -11.41748,-0.60785 -8.70703,2.44159 -13.60511,9.51513 -17.8888,17.01025 -2.83154,4.95441 -5.90893,9.76831 -9.56579,15.77856 -1.57129,-3.9729 -2.62183,-6.70385 -3.72815,-9.41198 -2.78662,-6.8208 -2.42224,-16.00812 -12.8396,-17.14374 -0.41297,-0.045 -0.72168,-0.75848 -1.16175,-0.89661 -1.49108,-0.46783 -3.00012,-1.02032 -4.53784,-1.16577 -2.58569,-0.24451 -5.37268,0.35742 -7.76599,-0.38837 -6.21863,-1.93792 -11.90747,-2.36993 -18.04132,0.94367 -5.00824,2.70557 -8.58533,9.03949 -6.53351,14.43127 2.36218,6.20746 4.74408,12.40747 7.45539,19.29676 m 220.29425,65.87982 c 6.93298,1.35412 13.82544,2.98627 20.80774,4.0011 12.32055,1.79071 24.09021,0.71313 32.10461,-10.37146 6.23645,-8.62555 7.70947,-15.33142 -0.55615,-22.96363 -3.8678,-3.57147 -9.11792,-6.76422 -14.1847,-7.68219 -9.96081,-1.80468 -20.21972,-2.17645 -30.37805,-2.604 -6.77234,-0.28516 -16.72094,8.16205 -18.323,14.724 -2.42639,9.93823 1.20643,18.93823 10.52955,24.89618 m -222.38044,85.26935 c 5.88147,-3.90076 6.01978,-3.89179 10.39222,1.44006 0.62732,0.76514 1.04998,1.69482 1.64514,2.49011 2.20587,2.94794 4.96649,5.77472 8.73175,3.56623 3.96728,-2.32715 3.15405,-6.12207 1.08252,-9.62403 -0.16883,-0.28528 -0.29224,-0.5979 -0.43116,-0.90039 -3.55407,-7.74487 -3.44104,-7.60327 3.115,-12.82068 1.74658,-1.38995 4.00048,-4.44787 3.50317,-5.84167 -0.86572,-2.42688 -3.53284,-4.35663 -5.7605,-6.08881 -1.06225,-0.82611 -2.86633,-1.04748 -4.30517,-0.97351 -4.00367,0.20587 -6.10181,-1.30853 -7.72065,-5.22803 -2.08123,-5.03912 -8.40088,-5.92193 -10.0899,-1.59716 -2.27558,5.8269 -5.7984,4.45147 -9.81543,3.38531 -1.27307,-0.33801 -2.78925,-1.09247 -3.83038,-0.69751 -2.24347,0.85132 -5.41864,1.91437 -6.03058,3.65698 -0.62696,1.78534 0.90081,4.82776 2.31768,6.685 1.33204,1.74603 3.73011,2.69501 5.69416,3.93951 5.67297,3.59491 6.01965,8.32148 0.88202,12.99939 -0.72657,0.66156 -1.79084,0.97333 -2.45734,1.67609 -2.25476,2.37695 -3.7265,5.5849 -1.04535,7.88159 1.6239,1.39118 5.18341,1.41571 7.54303,0.79615 2.22174,-0.58326 4.01038,-2.81641 6.57977,-4.74463 M 597.92031,141.26355 c 1.03344,-2.38123 2.06689,-4.76245 3.17065,-7.30536 4.61536,0.52514 9.99683,2.99389 12.54798,-3.2406 2.33154,-5.69812 -3.17505,-7.10639 -6.3982,-9.77991 2.39832,-4.29211 6.44092,-8.69543 2.39453,-13.26605 -4.83703,-5.46381 -10.01403,-0.0388 -15.68005,1.17999 -0.96582,-2.45074 -1.63269,-4.98682 -2.92139,-7.15295 -1.07946,-1.814095 -2.86267,-4.433113 -4.37512,-4.460701 -1.95691,-0.03571 -4.87476,1.709839 -5.71997,3.480471 -1.28723,2.69647 -2.0321,6.26538 -1.40784,9.11334 0.87964,4.01355 -0.83654,4.65619 -3.88183,5.03626 -1.6388,0.20459 -3.25208,0.62292 -4.87134,0.97107 -4.05164,0.87121 -7.48865,2.36999 -6.73254,7.4942 0.6958,4.71619 4.26513,5.90784 8.10864,5.36792 6.60901,-0.92828 10.8186,1.15356 12.31872,7.87317 0.0696,0.31158 0.3208,0.58044 0.47547,0.87549 2.91003,5.55688 6.15014,6.67627 12.97229,3.81366 m 21.07422,166.17846 c -6.09815,-3.09362 -9.27332,-1.93805 -11.78894,4.8299 -1.18848,3.19733 -2.67164,4.38849 -5.88392,2.80456 -1.03247,-0.50903 -2.18664,-0.77539 -3.29113,-1.13403 -3.73145,-1.21179 -7.09607,-0.81006 -8.72559,3.15833 -1.60193,3.90142 0.39087,7.16644 4.87512,8.91253 1.94409,0.75696 3.88611,1.51947 6.02417,2.35578 -1.13916,3.11316 -2.6018,5.6889 -2.93603,8.40356 -0.37244,3.02625 -0.84839,7.27197 0.79968,8.97522 1.71838,1.77588 5.90588,1.29071 9.03357,1.50171 1.01465,0.0685 2.09143,-0.7851 3.13977,-1.21692 -0.0369,0.54572 -0.0736,1.09143 -0.11047,1.63715 2.79882,0.39538 5.9281,1.71747 8.28637,0.87695 1.719,-0.61261 3.48316,-4.12616 3.38453,-6.26117 -0.33899,-7.32782 2.01037,-10.98511 9.28491,-12.5199 3.89099,-0.82104 7.40503,-2.50763 6.78088,-7.0523 -0.57873,-4.21289 -4.13586,-5.69532 -8.1416,-5.79328 -2.76392,-0.0676 -5.53076,-0.0131 -7.83435,-0.0131 -0.92786,-3.518 -1.63477,-6.19781 -2.89697,-9.46503 M 76.129105,152.75799 c 3.2724,0.5094 6.541565,1.04132 9.818116,1.52228 3.819396,0.56055 6.118042,1.633 4.575317,6.50501 -0.552185,1.74359 1.289856,5.52972 3.000854,6.33172 1.597657,0.74884 5.851136,-0.5968 6.537108,-2.1087 2.6109,-5.7547 5.82343,-5.04071 10.01123,-2.22742 1.64313,1.10382 3.54065,1.82996 5.3263,2.72028 3.30963,1.6502 6.71527,2.83581 9.23004,-1.04944 1.96405,-3.0343 0.25537,-6.44251 -4.00757,-8.86884 -2.21313,-1.25976 -4.39386,-2.5766 -5.474,-3.21179 1.44061,-4.05994 4.01453,-7.51025 3.30164,-10.03107 -1.99225,-7.04455 -8.94825,-3.53131 -13.17591,-5.53857 -2.14227,-2.90576 -4.53894,-6.88037 -7.397519,-7.24622 -4.722046,-0.6043 -6.050476,3.92591 -6.859925,8.1261 -0.225524,1.17029 -1.970703,2.54749 -3.27301,2.90607 -2.685669,0.73926 -5.692749,0.43243 -8.285522,1.35175 -2.46167,0.87268 -5.289795,2.32055 -6.535706,4.37664 -0.685852,1.13184 1.554993,4.03717 3.208557,6.4422 M 285.24172,93.181756 c 1.52765,-0.443726 3.03021,-1.116089 4.58777,-1.286744 4.05932,-0.444885 5.61248,-2.802917 5.91546,-6.63208 0.1402,-1.772277 1.10144,-3.463867 1.43634,-5.239929 0.55933,-2.966919 2.03589,-6.471741 0.99793,-8.802032 -0.81793,-1.836335 -4.76294,-2.603577 -7.46124,-3.18158 -2.3852,-0.510925 -4.98529,0.0715 -7.45307,-0.186371 -1.05285,-0.110077 -2.07763,-1.042724 -2.99719,-1.754089 -1.68671,-1.30481 -3.5846,-4.092774 -4.86066,-3.814545 -2.84063,0.619416 -6.60748,2.138642 -7.70819,4.403473 -1.72125,3.541321 -3.35437,4.092133 -6.8125,3.354248 -4.54315,-0.969482 -7.83429,1.137573 -8.21258,4.978028 -0.4137,4.201477 1.80426,6.209838 5.94372,6.950256 5.00775,0.895813 10.34125,1.720581 9.81873,9.059387 -0.1305,1.832825 0.69647,4.13617 1.87927,5.563904 1.69141,2.041748 3.9472,4.429998 6.28424,4.842038 1.6084,0.28352 3.88507,-2.399899 5.6283,-4.011289 1.05908,-0.979004 1.67126,-2.441345 3.01367,-4.242675 M 206.2986,359.35168 c -2.29846,-3.6358 1.24286,-4.98669 2.88031,-6.89813 2.59021,-3.02387 2.94672,-6.21332 0.32959,-8.96075 -2.75561,-2.89277 -5.78741,-1.46497 -8.37378,0.85479 -1.31591,1.18018 -2.5838,2.41382 -4.53253,4.24158 -1.06817,-2.21729 -1.49334,-4.05292 -2.61743,-5.2088 -1.66974,-1.71716 -3.75268,-3.98804 -5.80695,-4.14935 -3.00195,-0.23578 -4.39617,2.3869 -4.19018,5.55169 0.14038,2.15705 -0.28546,4.39209 0.11395,6.48297 0.99018,5.18299 -1.96979,7.23536 -6.17053,8.49311 -0.63269,0.18945 -1.36841,0.11023 -1.94989,0.38275 -3.26849,1.53192 -5.97302,3.83044 -4.57373,7.71332 1.2027,3.33709 4.17456,4.31787 7.80975,3.53338 2.34552,-0.50604 4.82996,-0.3681 7.38794,-0.52722 0.29517,1.73383 0.37384,2.89148 0.69885,3.97528 0.99994,3.33472 1.62311,7.22205 6.39509,6.92371 4.32073,-0.27002 4.71417,-3.70996 5.64666,-7.03327 0.42823,-1.52618 2.50751,-2.75476 4.07019,-3.75604 2.0741,-1.3291 6.06476,-2.12183 6.21015,-3.47076 0.26391,-2.44904 -1.70185,-5.13831 -3.32746,-8.14826 m 250.84717,-9.03412 c -1.27954,3.39923 -2.64038,6.77069 -3.81494,10.20587 -1.11243,3.25324 0.30066,4.98139 3.58411,5.6214 5.86743,1.14356 11.7218,2.36426 17.55444,3.67328 3.61621,0.81153 7.18249,1.84528 10.8822,2.80823 -3.01013,10.71869 -10.62744,19.38806 -8.42163,31.94482 2.15784,-1.64801 3.45838,-2.333 4.344,-3.37188 3.44873,-4.04596 6.7677,-8.20252 10.13134,-12.32074 6.20386,-7.59564 12.49353,-15.12348 18.57825,-22.81342 4.44971,-5.62359 3.52209,-7.75928 -3.45703,-9.13482 -3.6355,-0.71656 -7.23096,-1.63611 -11.57227,-2.63068 3.33118,-5.68878 6.2887,-10.30219 8.79676,-15.14819 2.41381,-4.66358 1.24951,-6.40937 -3.94739,-6.42518 -10.81494,-0.0328 -21.63196,-0.0546 -32.44263,0.17896 -1.37048,0.0296 -3.35058,1.30609 -3.94543,2.53754 -2.2273,4.61267 -3.99683,9.44641 -6.26978,14.87481 M 81.723038,297.77319 c 0.710205,-2.80377 1.420411,-5.60748 2.170838,-8.56988 2.157409,-0.44831 4.737976,-0.39417 6.583252,-1.53223 1.888794,-1.16492 4.391906,-3.6557 4.19989,-5.27905 -0.234863,-1.98517 -2.831055,-4.9867 -4.694519,-5.21717 -4.027283,-0.49798 -4.795715,-2.19635 -4.935852,-5.77807 -0.153259,-3.91828 -2.880188,-6.47303 -6.705384,-5.25293 -3.355163,1.07031 -4.893798,-0.33545 -6.781616,-2.31037 -2.663818,-2.78686 -6.329223,-4.68927 -8.917053,-1.21655 -1.435852,1.92676 -1.001465,6.3764 0.217102,8.90479 2.187927,4.5401 2.048096,6.91345 -2.516296,9.13702 -1.036072,0.5047 -2.493958,0.51672 -3.184326,1.27649 -1.23761,1.36206 -2.866028,3.15942 -2.791382,4.70032 0.0741,1.53003 1.760193,3.57855 3.262024,4.27899 1.574218,0.73407 3.770752,0.17023 5.693481,0.11291 3.976563,-0.11847 8.255249,-1.69836 9.154541,4.92853 0.54303,4.0014 4.430481,4.69006 9.2453,1.8172 M 476.07583,89.112481 c -1.13294,2.921936 -0.30298,4.756408 2.88989,5.402343 2.28235,0.46167 4.54211,1.035218 6.80884,1.572571 5.71472,1.355042 11.42761,2.718018 17.4331,4.147215 -2.12378,4.81892 -4.14294,8.8299 -5.6665,13.021 -1.46668,4.03479 -4.3982,8.08881 -1.30567,13.50775 1.72937,-1.56604 3.04114,-2.52771 4.07483,-3.72869 5.09961,-5.92438 10.12683,-11.91102 15.17713,-17.87775 3.00756,-3.55328 6.20251,-6.968756 8.96289,-10.70484 2.98706,-4.042968 2.22509,-5.514587 -2.66248,-6.690979 -3.2865,-0.791015 -6.5227,-1.792236 -10.39905,-2.871338 2.9043,-4.626953 5.39405,-8.34143 7.61951,-12.207946 2.33606,-4.058899 1.29919,-5.784455 -3.32153,-5.907257 -9.12696,-0.242585 -18.25428,-0.500489 -27.38318,-0.621399 -0.99219,-0.01315 -2.55823,0.569732 -2.9065,1.318603 -3.2091,6.900726 -6.20849,13.899017 -9.32128,21.640717 M 374.57576,86.848992 c -7.65936,6.71e-4 -15.32238,-0.126404 -22.97522,0.09759 -1.76934,0.05182 -4.55133,0.850464 -5.08264,2.077942 -3.28796,7.595581 -6.21039,15.363156 -8.85821,23.207276 -0.39759,1.17773 0.88128,3.87861 2.07409,4.45973 3.83381,1.86772 7.93525,3.25664 12.03571,4.49047 6.32965,1.90442 6.67175,2.3504 4.51025,8.49664 -0.44037,1.25226 -1.08514,2.45416 -1.36163,3.73828 -0.69287,3.21814 -1.68256,6.46899 -1.69037,9.7088 -0.007,2.80786 1.78479,5.08838 4.94489,2.88806 9.52997,-6.63556 18.93206,-13.45581 28.34808,-20.25365 3.20776,-2.31586 3.55615,-4.68977 -0.22528,-6.84357 -2.31049,-1.31598 -4.59271,-2.68847 -6.95496,-3.90516 -3.40069,-1.75158 -4.3753,-3.81096 -2.22204,-7.48064 3.64245,-6.20735 6.81036,-12.693248 11.0343,-20.681834 -5.18665,0 -8.88916,0 -13.57697,6.1e-5 M 285.3926,300.95599 c -8.09229,0.6734 -16.19147,1.27857 -24.26978,2.091 -1.2644,0.12714 -3.15564,0.91602 -3.52923,1.87653 -2.27564,5.85016 -4.33411,11.79584 -6.18268,17.79669 -1.08777,3.53089 -0.36646,6.05457 4.24109,6.31397 5.12085,0.28839 10.19268,1.42224 15.31372,1.74328 4.37353,0.27423 5.07727,2.14026 3.55249,5.80872 -1.08118,2.60107 -2.30194,5.22131 -2.83081,7.95489 -0.6438,3.32709 -0.62671,6.78205 -0.89551,10.18164 0.67688,0.21875 1.3537,0.4375 2.03058,0.65625 1.68878,-2.29895 3.42547,-4.56451 5.05755,-6.90307 5.41401,-7.75745 10.92444,-15.453 16.12275,-23.3534 2.47198,-3.75689 1.58068,-5.255 -2.78919,-6.00384 -2.86127,-0.49036 -5.73028,-0.9353 -9.12616,-1.48663 1.90302,-3.85144 3.59625,-7.06403 5.08563,-10.36841 0.99091,-2.19867 2.5354,-4.65827 -1.78045,-6.30762 m 384.48059,-96.90716 c 4.13623,-2.4892 8.27246,-4.97846 12.92407,-7.77778 -4.82349,-3.98675 -8.72876,-7.21453 -12.59912,-10.41357 4.36902,-6.89264 8.38733,-13.23199 13.18921,-20.80762 -12.44006,-0.80041 -23.27796,-1.53009 -34.12317,-2.12573 -0.75586,-0.0415 -1.9071,0.72308 -2.29724,1.43091 -3.03992,5.51581 -5.9635,11.09668 -8.8711,16.68439 -1.73596,3.33557 -1.36169,5.92633 2.469,7.64563 4.5177,2.02752 8.89978,4.3576 13.52222,6.64648 -1.91492,4.71332 -3.91626,9.08044 -5.40259,13.61633 -0.48743,1.48767 -0.0183,3.63617 0.79492,5.02442 0.30774,0.52508 3.05554,0.1828 4.28992,-0.49494 5.23535,-2.87469 10.32006,-6.02386 16.10388,-9.42852 M 98.58632,215.89837 c -4.444641,-1.96838 -5.40503,-4.46222 -2.42627,-8.8778 3.08844,-4.57807 5.25995,-9.77478 7.89032,-14.81165 -0.86987,-0.51855 -1.42279,-1.13342 -1.98193,-1.13904 -9.981022,-0.10132 -19.963016,-0.15979 -29.944279,-0.11718 -0.859069,0.004 -2.208801,0.56945 -2.495788,1.23437 -2.885376,6.68701 -5.761292,13.39111 -8.182495,20.25183 -0.373902,1.05939 1.21051,3.7052 2.496093,4.29529 4.76825,2.18878 9.790284,3.82452 14.646363,5.64166 0.514953,6.86389 -7.479248,13.05908 -1.941162,20.70331 8.082031,-5.7121 15.363342,-10.91791 22.70813,-16.03265 7.701538,-5.36329 7.724428,-6.10089 -0.768982,-11.14814 z"
   id="path5" />
<path
   fill="#cce1e6"
   opacity="1"
   stroke="none"
   d="m 235.10366,406.85907 c 13.95935,2.13482 27.4718,4.25677 40.98431,6.37878 -32.70514,-0.13306 -64.27264,-8.30334 -96.32379,-13.0379 0.0568,-0.4729 0.11365,-0.9458 0.17047,-1.4187 5.96295,0.95184 11.9137,1.99066 17.89227,2.83117 6.05829,0.85175 12.15711,1.41651 18.21448,2.27442 6.22009,0.88092 12.41144,1.96448 19.06226,2.97223 z"
   id="path6" />
<path
   fill="#bce3f2"
   opacity="1"
   stroke="none"
   d="m 165.10457,396.85931 c 0.7237,0.0559 1.45209,0.10724 2.18042,0.15863 -0.0225,0.19965 -0.0449,0.39923 -0.0673,0.59888 -0.59943,-0.0919 -1.19879,-0.1839 -1.95007,-0.52374 -0.15192,-0.24799 -0.15833,-0.23829 -0.16303,-0.23377 z"
   id="path7" />
<path
   fill="#785755"
   opacity="1"
   stroke="none"
   d="m 195.38729,237.57959 c 0,0 -0.14459,-0.35535 -0.25153,-0.87067 -1.4342,-1.93329 -2.57056,-3.61822 -4.11981,-4.72546 -9.52313,-6.80603 -20.86054,-9.06708 -31.84332,-11.83826 -11.34339,-2.86212 -22.19483,-6.28247 -31.06519,-14.28894 0,0 0.002,-0.002 -0.0396,-0.39008 -0.50824,-6.19177 -0.97479,-11.99536 -1.44128,-17.79901 0.25457,-0.91504 0.50915,-1.83008 1.12396,-3.2384 0.70111,-1.18115 1.04193,-1.86914 1.38269,-2.55713 0.27478,-0.19049 0.49463,-0.43115 1.08319,-1.04077 9.15411,-11.24597 19.66144,-19.95697 31.578,-27.37726 10.10804,-6.29413 20.35974,-12.1637 31.80512,-15.1651 12.87854,-3.37738 25.68127,-7.69678 39.27447,-7.41302 3.44739,0.072 6.88703,0.51416 10.33026,0.78619 0.42145,0.0607 0.8429,0.1214 1.8465,0.47473 6.71704,2.1178 12.96277,3.65729 18.91022,5.96527 1.52362,0.59131 3.41943,4.15131 2.8963,5.42212 -2.52936,6.14459 -11.67059,11.85407 -18.96564,11.51758 -6.16711,-0.28442 -12.64526,-0.10101 -18.55041,1.49072 -13.22913,3.56561 -26.51941,7.30701 -36.97565,17.17963 -5.07074,4.78766 -10.98669,8.68957 -15.98059,13.54706 -5.80585,5.64715 -4.33997,9.52783 3.59955,11.75714 9.72729,2.73126 19.56366,5.23083 29.0133,8.74389 7.50086,2.7887 14.97089,6.25306 21.53131,10.76105 4.08246,2.80524 8.79615,8.02008 8.96601,12.32172 0.198,5.01568 1.90283,7.88 4.78998,10.98108 -0.0129,0.45556 -0.0258,0.91119 -0.32764,1.91967 -3.17853,5.65809 -5.34998,11.40381 -9.1665,15.68201 -3.5752,4.00751 -8.7403,6.71411 -13.46845,9.55591 -24.61176,14.79297 -50.86084,25.66907 -78.83496,32.24127 -2.08563,0.48999 -5.24201,0.65949 -6.43164,-0.51269 -1.10242,-1.08637 -0.23499,-4.17176 -0.23499,-6.85364 -5.37732,0.84375 -11.02343,1.97796 -16.72498,2.47284 -1.70776,0.14831 -3.98657,-1.09912 -5.23126,-2.42975 -1.00525,-1.07471 -1.72192,-4.12232 -1.06457,-4.76984 3.96637,-3.90692 7.83496,-8.55249 12.72528,-10.75445 11.70679,-5.271 24.16138,-8.86688 35.93634,-14.0047 10.32117,-4.50354 20.16583,-10.11469 30.1283,-15.41101 1.84759,-0.98224 3.48938,-2.60633 4.81036,-4.26532 2.02631,-2.54499 2.29364,-5.16864 -1.01318,-7.11438 z"
   id="path8" />
<path
   fill="#785754"
   opacity="1"
   stroke="none"
   d="m 319.60183,257.39032 c -15.25367,4.56225 -30.20942,3.13818 -44.60114,-1.10211 -15.79907,-4.65497 -23.71216,-17.31434 -21.53509,-35.13575 1.84436,-15.09759 9.24224,-26.95929 21.0451,-36.61377 6.21399,-5.08294 12.2157,-9.99249 19.90228,-12.74463 10.64905,-3.81274 21.28772,-3.98059 32.26374,-1.73773 7.85113,1.60437 15.84039,3.13599 23.80456,3.35175 4.58185,0.12408 8.47821,0.71026 12.62531,2.62268 5.30658,2.44714 7.40387,4.79401 5.69091,10.62012 -2.47106,8.40503 -5.40942,16.70025 -8.63855,24.84802 -4.25329,10.73236 1.48761,23.87298 12.43592,27.81518 4.21216,1.51673 8.38727,3.19538 12.42431,5.12464 5.27247,2.51971 6.30378,5.16333 4.00531,10.45526 -0.71575,1.64789 -2.26532,3.50452 -3.86639,4.09949 -7.52649,2.79657 -15.40344,5.13611 -23.40991,3.44769 -10.32251,-2.17682 -21.17499,-1.75262 -30.98322,-7.05206 -2.52142,-1.36237 -7.13025,1.13873 -11.16314,2.00122 m -16.88684,-45.28925 c -0.93885,4.76892 -4.26758,9.19196 -2.29926,15.40155 8.28967,-7.75567 11.75427,-16.6145 12.38513,-26.75909 -0.40753,-0.28644 -0.81512,-0.57288 -1.22272,-0.85938 -2.85394,3.83924 -5.70794,7.67847 -8.86315,12.21692 z"
   id="path9" />
<path
   fill="#785754"
   opacity="1"
   stroke="none"
   d="m 516.94204,173.59344 c 13.22656,-6.50281 26.5675,-4.68188 39.84033,-2.10626 5.77527,1.12073 11.49011,2.82031 17.0354,4.80725 15.85144,5.67944 21.21277,26.87714 6.82165,40.84546 -10.7821,10.46545 -24.16821,13.52002 -37.97937,15.55463 -7.14355,1.05243 -14.56103,0.54101 -21.83899,0.28613 -5.33813,-0.18689 -7.15271,1.71997 -5.13244,6.84619 3.26172,8.27692 10.59924,11.47058 18.32678,13.97882 5.98279,1.94183 12.15601,3.38568 17.95557,5.75739 2.13318,0.87243 4.75988,3.72564 4.82934,5.75525 0.12281,3.58026 -0.65539,7.47937 -5.22534,9.22265 -9.81494,3.74433 -19.70959,3.57306 -29.96606,2.42206 -13.23963,-1.48578 -25.88733,-4.3847 -37.15113,-11.71448 -14.73327,-9.58752 -23.01867,-24.58954 -13.0476,-43.20697 7.65283,-14.28882 16.77197,-27.62359 29.36535,-38.065 4.79944,-3.97949 10.51782,-6.85059 16.16651,-10.38312 m 24.71862,26.11939 c -4.12902,-0.3559 -6.16076,1.78198 -7.05908,5.2677 0.42713,0.47137 0.85425,0.94275 1.28137,1.41412 1.98206,-2.00629 3.96399,-4.01257 5.77771,-6.68182 z"
   id="path10" />
<path
   fill="#785755"
   opacity="1"
   stroke="none"
   d="m 379.56191,203.35858 c -2.5423,-6.54627 -4.9242,-12.74628 -7.28638,-18.95374 -2.05182,-5.39178 1.52527,-11.7257 6.53351,-14.43127 6.13385,-3.3136 11.82269,-2.88159 18.04132,-0.94367 2.39331,0.74579 5.1803,0.14386 7.76599,0.38837 1.53772,0.14545 3.04676,0.69794 4.53784,1.16577 0.44007,0.13813 0.74878,0.85163 1.16175,0.89661 10.41736,1.13562 10.05298,10.32294 12.8396,17.14374 1.10632,2.70813 2.15686,5.43908 3.72815,9.41198 3.65686,-6.01025 6.73425,-10.82415 9.56579,-15.77856 4.28369,-7.49512 9.18177,-14.56866 17.8888,-17.01025 3.48071,-0.97602 7.60449,0.22198 11.41748,0.60785 1.57007,0.15899 3.22143,1.39202 4.61535,1.09655 6.66089,-1.41198 12.18616,1.98017 17.97913,3.99549 4.19983,1.46118 2.82617,4.72699 1.23132,7.35504 -4.02575,6.63354 -8.45031,13.02917 -12.36926,19.72259 -8.06848,13.78046 -13.61585,28.44617 -15.49634,44.45685 -0.45251,3.85272 -2.32666,7.56262 -3.74768,11.26111 -0.38147,0.9928 -1.36682,2.21265 -2.30444,2.46063 -7.86328,2.07953 -15.59473,6.19684 -24.0033,1.89252 -0.96655,-0.49481 -2.31775,-0.59583 -3.4165,-0.41876 -10.4115,1.67804 -16.69592,-4.573 -22.81946,-11.48774 -11.16736,-12.61041 -18.89496,-27.25836 -25.86267,-42.83111 z"
   id="path11" />
<path
   fill="#795856"
   opacity="1"
   stroke="none"
   d="m 599.70668,269.38763 c -9.00463,-5.76416 -12.63745,-14.76416 -10.21106,-24.70239 1.60206,-6.56195 11.55066,-15.00916 18.323,-14.724 10.15833,0.42755 20.41724,0.79932 30.37805,2.604 5.06678,0.91797 10.3169,4.11072 14.1847,7.68219 8.26562,7.63221 6.7926,14.33808 0.55615,22.96363 -8.0144,11.08459 -19.78406,12.16217 -32.10461,10.37146 -6.9823,-1.01483 -13.87476,-2.64698 -21.12623,-4.19489 z"
   id="path12" />
<path
   fill="#fdfdfd"
   opacity="1"
   stroke="none"
   d="m 377.34963,355.06122 c -2.27429,1.71777 -4.06293,3.95092 -6.28467,4.53418 -2.35962,0.61956 -5.91913,0.59503 -7.54303,-0.79615 -2.68115,-2.29669 -1.20941,-5.50464 1.04535,-7.88159 0.6665,-0.70276 1.73077,-1.01453 2.45734,-1.67609 5.13763,-4.67791 4.79095,-9.40448 -0.88202,-12.99939 -1.96405,-1.2445 -4.36212,-2.19348 -5.69416,-3.93951 -1.41687,-1.85724 -2.94464,-4.89966 -2.31768,-6.685 0.61194,-1.74261 3.78711,-2.80566 6.03058,-3.65698 1.04113,-0.39496 2.55731,0.3595 3.83038,0.69751 4.01703,1.06616 7.53985,2.44159 9.81543,-3.38531 1.68902,-4.32477 8.00867,-3.44196 10.0899,1.59716 1.61884,3.9195 3.71698,5.4339 7.72065,5.22803 1.43884,-0.074 3.24292,0.1474 4.30517,0.97351 2.22766,1.73218 4.89478,3.66193 5.7605,6.08881 0.49731,1.3938 -1.75659,4.45172 -3.50317,5.84167 -6.55604,5.21741 -6.66907,5.07581 -3.115,12.82068 0.13892,0.30249 0.26233,0.61511 0.43116,0.90039 2.07153,3.50196 2.88476,7.29688 -1.08252,9.62403 -3.76526,2.20849 -6.52588,-0.61829 -8.73175,-3.56623 -0.59516,-0.79529 -1.01782,-1.72497 -1.64514,-2.49011 -4.37244,-5.33185 -4.51075,-5.34082 -10.68732,-1.22961 z"
   id="path13" />
<path
   fill="#fdfdfd"
   opacity="1"
   stroke="none"
   d="m 597.58706,141.48126 c -6.4889,2.6449 -9.72901,1.52551 -12.63904,-4.03137 -0.15467,-0.29505 -0.40589,-0.56391 -0.47547,-0.87549 -1.50012,-6.71961 -5.70971,-8.80145 -12.31872,-7.87317 -3.84351,0.53992 -7.41284,-0.65173 -8.10864,-5.36792 -0.75611,-5.12421 2.6809,-6.62299 6.73254,-7.4942 1.61926,-0.34815 3.23254,-0.76648 4.87134,-0.97107 3.04529,-0.38007 4.76147,-1.02271 3.88183,-5.03626 -0.62426,-2.84796 0.12061,-6.41687 1.40784,-9.11334 0.84521,-1.770632 3.76306,-3.516177 5.71997,-3.480471 1.51245,0.02759 3.29566,2.646606 4.37512,4.460701 1.2887,2.16613 1.95557,4.70221 2.92139,7.15295 5.66602,-1.21875 10.84302,-6.6438 15.68005,-1.17999 4.04639,4.57062 0.004,8.97394 -2.39453,13.26605 3.22315,2.67352 8.72974,4.08179 6.3982,9.77991 -2.55115,6.23449 -7.93262,3.76574 -12.54798,3.2406 -1.10376,2.54291 -2.13721,4.92413 -3.5039,7.52307 z"
   id="path14" />
<path
   fill="#fdfdfd"
   opacity="1"
   stroke="none"
   d="m 619.27211,307.73578 c 0.98462,2.97345 1.69153,5.65326 2.61939,9.17126 2.30359,0 5.07043,-0.0546 7.83435,0.0131 4.00574,0.098 7.56287,1.58039 8.1416,5.79328 0.62415,4.54467 -2.88989,6.23126 -6.78088,7.0523 -7.27454,1.53479 -9.6239,5.19208 -9.28491,12.5199 0.0986,2.13501 -1.66553,5.64856 -3.38453,6.26117 -2.35827,0.84052 -5.48755,-0.48157 -8.28637,-0.87695 0.0369,-0.54572 0.0736,-1.09143 0.11047,-1.63715 -1.04834,0.43182 -2.12512,1.2854 -3.13977,1.21692 -3.12769,-0.211 -7.31519,0.27417 -9.03357,-1.50171 -1.64807,-1.70325 -1.17212,-5.94897 -0.79968,-8.97522 0.33423,-2.71466 1.79687,-5.2904 2.93603,-8.40356 -2.13806,-0.83631 -4.08008,-1.59882 -6.02417,-2.35578 -4.48425,-1.74609 -6.47705,-5.01111 -4.87512,-8.91253 1.62952,-3.96839 4.99414,-4.37012 8.72559,-3.15833 1.10449,0.35864 2.25866,0.625 3.29113,1.13403 3.21228,1.58393 4.69544,0.39277 5.88392,-2.80456 2.51562,-6.76795 5.69079,-7.92352 12.06652,-4.53613 z"
   id="path15" />
<path
   fill="#fdfdfd"
   opacity="1"
   stroke="none"
   d="m 75.763016,152.60833 c -1.287475,-2.25537 -3.52832,-5.1607 -2.842468,-6.29254 1.245911,-2.05609 4.074036,-3.50396 6.535706,-4.37664 2.592773,-0.91932 5.599853,-0.61249 8.285522,-1.35175 1.302307,-0.35858 3.047486,-1.73578 3.27301,-2.90607 0.809449,-4.20019 2.137879,-8.7304 6.859925,-8.1261 2.858579,0.36585 5.255249,4.34046 7.397519,7.24622 4.22766,2.00726 11.18366,-1.50598 13.17591,5.53857 0.71289,2.52082 -1.86103,5.97113 -3.30164,10.03107 1.08014,0.63519 3.26087,1.95203 5.474,3.21179 4.26294,2.42633 5.97162,5.83454 4.00757,8.86884 -2.51477,3.88525 -5.92041,2.69964 -9.23004,1.04944 -1.78565,-0.89032 -3.68317,-1.61646 -5.3263,-2.72028 -4.1878,-2.81329 -7.40033,-3.52728 -10.01123,2.22742 -0.685972,1.5119 -4.939451,2.85754 -6.537108,2.1087 -1.710998,-0.802 -3.553039,-4.58813 -3.000854,-6.33172 1.542725,-4.87201 -0.755921,-5.94446 -4.575317,-6.50501 -3.276551,-0.48096 -6.545716,-1.01288 -10.184205,-1.67194 z"
   id="path16" />
<path
   fill="#fdfdfd"
   opacity="1"
   stroke="none"
   d="m 284.97695,93.459771 c -1.07764,1.523315 -1.68982,2.985656 -2.7489,3.96466 -1.74323,1.61139 -4.0199,4.294809 -5.6283,4.011289 -2.33704,-0.41204 -4.59283,-2.80029 -6.28424,-4.842038 -1.1828,-1.427734 -2.00977,-3.731079 -1.87927,-5.563904 0.52252,-7.338806 -4.81098,-8.163574 -9.81873,-9.059387 -4.13946,-0.740418 -6.35742,-2.748779 -5.94372,-6.950256 0.37829,-3.840455 3.66943,-5.94751 8.21258,-4.978028 3.45813,0.737885 5.09125,0.187073 6.8125,-3.354248 1.10071,-2.264831 4.86756,-3.784057 7.70819,-4.403473 1.27606,-0.278229 3.17395,2.509735 4.86066,3.814545 0.91956,0.711365 1.94434,1.644012 2.99719,1.754089 2.46778,0.257874 5.06787,-0.324554 7.45307,0.186371 2.6983,0.578003 6.64331,1.345245 7.46124,3.18158 1.03796,2.330291 -0.4386,5.835113 -0.99793,8.802032 -0.3349,1.776062 -1.29614,3.467652 -1.43634,5.239929 -0.30298,3.829163 -1.85614,6.187195 -5.91546,6.63208 -1.55756,0.170655 -3.06012,0.843018 -4.85254,1.564759 z"
   id="path17" />
<path
   fill="#fdfdfd"
   opacity="1"
   stroke="none"
   d="m 206.59383,359.56213 c 1.33038,2.7995 3.29614,5.48877 3.03223,7.93781 -0.14539,1.34893 -4.13605,2.14166 -6.21015,3.47076 -1.56268,1.00128 -3.64196,2.22986 -4.07019,3.75604 -0.93249,3.32331 -1.32593,6.76325 -5.64666,7.03327 -4.77198,0.29834 -5.39515,-3.58899 -6.39509,-6.92371 -0.32501,-1.0838 -0.40368,-2.24145 -0.69885,-3.97528 -2.55798,0.15912 -5.04242,0.0212 -7.38794,0.52722 -3.63519,0.78449 -6.60705,-0.19629 -7.80975,-3.53338 -1.39929,-3.88288 1.30524,-6.1814 4.57373,-7.71332 0.58148,-0.27252 1.3172,-0.1933 1.94989,-0.38275 4.20074,-1.25775 7.16071,-3.31012 6.17053,-8.49311 -0.39941,-2.09088 0.0264,-4.32592 -0.11395,-6.48297 -0.20599,-3.16479 1.18823,-5.78747 4.19018,-5.55169 2.05427,0.16131 4.13721,2.43219 5.80695,4.14935 1.12409,1.15588 1.54926,2.99151 2.61743,5.2088 1.94873,-1.82776 3.21662,-3.0614 4.53253,-4.24158 2.58637,-2.31976 5.61817,-3.74756 8.37378,-0.85479 2.61713,2.74743 2.26062,5.93688 -0.32959,8.96075 -1.63745,1.91144 -5.17877,3.26233 -2.58508,7.10858 z"
   id="path18" />
<path
   fill="#7f5f5a"
   opacity="1"
   stroke="none"
   d="m 457.31166,349.97882 c 2.10706,-5.08966 3.87659,-9.9234 6.10389,-14.53607 0.59485,-1.23145 2.57495,-2.50794 3.94543,-2.53754 10.81067,-0.23352 21.62769,-0.21179 32.44263,-0.17896 5.1969,0.0158 6.3612,1.7616 3.94739,6.42518 -2.50806,4.846 -5.46558,9.45941 -8.79676,15.14819 4.34131,0.99457 7.93677,1.91412 11.57227,2.63068 6.97912,1.37554 7.90674,3.51123 3.45703,9.13482 -6.08472,7.68994 -12.37439,15.21778 -18.57825,22.81342 -3.36364,4.11822 -6.68261,8.27478 -10.13134,12.32074 -0.88562,1.03888 -2.18616,1.72387 -4.344,3.37188 -2.20581,-12.55676 5.4115,-21.22613 8.42163,-31.94482 -3.69971,-0.96295 -7.26599,-1.9967 -10.8822,-2.80823 -5.83264,-1.30902 -11.68701,-2.52972 -17.55444,-3.67328 -3.28345,-0.64001 -4.69654,-2.36816 -3.58411,-5.6214 1.17456,-3.43518 2.5354,-6.80664 3.98083,-10.54461 m 33.43323,5.96277 c 0.41199,-1.344 0.61267,-2.80335 1.27271,-4.01197 2.84472,-5.2099 5.82422,-10.34625 8.49573,-15.05297 -10.36451,0 -20.62928,-0.0527 -30.89148,0.0821 -1.02051,0.0134 -2.51221,0.92962 -2.95923,1.83484 -2.79859,5.66595 -5.48218,11.39648 -7.9679,17.2066 -2.18115,5.09796 -1.08484,6.77869 4.30994,7.81097 6.19678,1.18567 12.38843,2.41749 18.53979,3.81598 8.50611,1.93366 9.18042,3.6258 5.46204,11.6587 -2.2041,4.76171 -4.11743,9.65808 -6.16162,14.49389 0.38122,0.21106 0.76245,0.42212 1.14355,0.63318 8.78809,-10.84753 17.57617,-21.69507 26.39771,-32.58398 -6.1676,-1.9162 -11.66712,-3.62482 -17.64124,-5.88733 z"
   id="path19" />
<path
   fill="#fdfdfd"
   opacity="1"
   stroke="none"
   d="m 81.435807,298.05804 c -4.527588,2.58801 -8.415039,1.89935 -8.958069,-2.10205 -0.899292,-6.62689 -5.177978,-5.047 -9.154541,-4.92853 -1.922729,0.0573 -4.119263,0.62116 -5.693481,-0.11291 -1.501831,-0.70044 -3.187928,-2.74896 -3.262024,-4.27899 -0.07465,-1.5409 1.553772,-3.33826 2.791382,-4.70032 0.690368,-0.75977 2.148254,-0.77179 3.184326,-1.27649 4.564392,-2.22357 4.704223,-4.59692 2.516296,-9.13702 -1.218567,-2.52839 -1.652954,-6.97803 -0.217102,-8.90479 2.58783,-3.47272 6.253235,-1.57031 8.917053,1.21655 1.887818,1.97492 3.426453,3.38068 6.781616,2.31037 3.825196,-1.2201 6.552125,1.33465 6.705384,5.25293 0.140137,3.58172 0.908569,5.28009 4.935852,5.77807 1.863464,0.23047 4.459656,3.232 4.694519,5.21717 0.192016,1.62335 -2.311096,4.11413 -4.19989,5.27905 -1.845276,1.13806 -4.425843,1.08392 -6.583252,1.53223 -0.750427,2.9624 -1.460633,5.76611 -2.458069,8.85473 z"
   id="path20" />
<path
   fill="#9e9ea3"
   opacity="1"
   stroke="none"
   d="m 195.33394,237.961 c 3.36017,1.56433 3.09284,4.18798 1.06653,6.73297 -1.32098,1.65899 -2.96277,3.28308 -4.81036,4.26532 -9.96247,5.29632 -19.80713,10.90747 -30.1283,15.41101 -11.77496,5.13782 -24.22955,8.7337 -35.93634,14.0047 -4.89032,2.20196 -8.75891,6.84753 -12.72528,10.75445 -0.65735,0.64752 0.0593,3.69513 1.06457,4.76984 1.24469,1.33063 3.5235,2.57806 5.23126,2.42975 5.70155,-0.49488 11.34766,-1.62909 16.72498,-2.47284 0,2.68188 -0.86743,5.76727 0.23499,6.85364 1.18963,1.17218 4.34601,1.00268 6.43164,0.51269 27.97412,-6.5722 54.2232,-17.4483 78.83496,-32.24127 4.72815,-2.8418 9.89325,-5.5484 13.46845,-9.55591 3.81652,-4.2782 5.98797,-10.02392 9.17279,-15.34009 0.20819,1.80817 0.63079,4.02039 -0.0493,5.81482 -4.12744,10.89106 -12.86291,17.52368 -22.64899,22.62262 -14.00561,7.29743 -28.18017,14.33142 -42.62597,20.69898 -7.74799,3.4151 -16.66083,4.29352 -24.21357,8.01165 -5.97521,2.94159 -11.68627,2.90387 -17.61413,2.45057 -7.1048,-0.54322 -14.19416,-1.65693 -21.19996,-2.99573 -4.47741,-0.85565 -7.29895,-8.53253 -4.90112,-12.64453 3.33551,-5.71985 7.8797,-10.11432 14.2201,-12.52295 13.55951,-5.15112 27.26202,-9.98493 40.55755,-15.75195 9.41516,-4.08393 18.30072,-9.40851 27.3324,-14.34455 2.71198,-1.48224 4.11621,-3.86285 2.51306,-7.46319 z"
   id="path21" />
<path
   fill="#9e9ea3"
   opacity="1"
   stroke="none"
   d="m 244.54665,241.53241 c -3.14862,-2.80982 -4.85345,-5.67414 -5.05145,-10.68982 -0.16986,-4.30164 -4.88355,-9.51648 -8.96601,-12.32172 -6.56042,-4.50799 -14.03045,-7.97235 -21.53131,-10.76105 -9.44964,-3.51306 -19.28601,-6.01263 -29.0133,-8.74389 -7.93952,-2.22931 -9.4054,-6.10999 -3.59955,-11.75714 4.9939,-4.85749 10.90985,-8.7594 15.98059,-13.54706 10.45624,-9.87262 23.74652,-13.61402 36.97565,-17.17963 5.90515,-1.59173 12.3833,-1.77514 18.55041,-1.49072 7.29505,0.33649 16.43628,-5.37299 18.96564,-11.51758 0.52313,-1.27081 -1.37268,-4.83081 -2.8963,-5.42212 -5.94745,-2.30798 -12.19318,-3.84747 -18.59174,-5.94134 7.48017,-3.00971 20.90186,1.48565 23.72638,7.76648 2.27136,5.05078 -1.46991,12.37188 -6.51373,14.31652 -6.20654,2.39307 -12.48346,2.54926 -18.95624,2.69721 -3.56482,0.0815 -7.09784,1.71454 -10.63635,2.6806 -0.95966,0.26197 -1.88336,0.9137 -2.83002,0.92694 -13.15155,0.18476 -23.71094,6.93439 -34.08966,13.7818 -6.18988,4.08368 -12.05951,8.76398 -17.57135,13.73267 -5.33789,4.81189 -4.40192,7.30163 2.34436,9.28143 11.38794,3.34198 22.84113,6.53565 34.02606,10.47516 11.53479,4.06281 22.04554,10.12573 27.86951,21.5069 1.75384,3.4273 1.43768,7.91382 1.80841,12.20636 z"
   id="path22" />
<path
   fill="#80605b"
   opacity="1"
   stroke="none"
   d="m 476.10195,88.726616 c 3.08667,-7.355835 6.08606,-14.354126 9.29516,-21.254852 0.34827,-0.748871 1.91431,-1.331756 2.9065,-1.318603 9.1289,0.12091 18.25622,0.378814 27.38318,0.621399 4.62072,0.122802 5.65759,1.848358 3.32153,5.907257 -2.22546,3.866516 -4.71521,7.580993 -7.61951,12.207946 3.87635,1.079102 7.11255,2.080323 10.39905,2.871338 4.88757,1.176392 5.64954,2.648011 2.66248,6.690979 -2.76038,3.736084 -5.95533,7.15156 -8.96289,10.70484 -5.0503,5.96673 -10.07752,11.95337 -15.17713,17.87775 -1.03369,1.20098 -2.34546,2.16265 -4.07483,3.72869 -3.09253,-5.41894 -0.16101,-9.47296 1.30567,-13.50775 1.52356,-4.1911 3.54272,-8.20208 5.6665,-13.021 -6.00549,-1.429197 -11.71838,-2.792173 -17.4331,-4.147215 -2.26673,-0.537353 -4.52649,-1.110901 -6.80884,-1.572571 -3.19287,-0.645935 -4.02283,-2.480407 -2.86377,-5.788208 m 20.25293,6.224976 c 0.79626,0.229492 1.59241,0.458984 2.38867,0.688538 8.35034,2.407165 8.69934,3.192505 5.21533,10.81397 -1.46655,3.20843 -2.74048,6.50488 -4.10205,9.76135 0.44031,0.23084 0.88074,0.46167 1.32105,0.69251 7.17846,-8.45282 14.35705,-16.90565 21.59582,-25.429512 -5.6178,-1.587281 -10.59607,-2.993897 -16.23828,-4.588074 3.6217,-6.105713 6.61865,-11.157959 10.1366,-17.088806 -9.5083,0 -18.07264,-0.03772 -26.63514,0.06421 -0.7716,0.0092 -1.88427,0.741088 -2.24206,1.441986 -2.56641,5.027008 -5.10327,10.077484 -7.38965,15.235748 -1.25976,2.842163 -0.75952,5.083679 2.98377,5.717651 4.07824,0.690735 8.0968,1.734253 12.96594,2.69043 m 3.44787,23.327827 c -0.15185,-0.0247 -0.30371,-0.0493 -0.45556,-0.074 0.0615,0.10126 0.12304,0.20252 0.45556,0.074 z"
   id="path23" />
<path
   fill="#fbfbf9"
   opacity="1"
   stroke="none"
   d="m 375.06838,86.848931 c 4.19519,0 7.8977,0 13.08435,0 -4.22394,7.988586 -7.39185,14.474489 -11.0343,20.681829 -2.15326,3.66968 -1.17865,5.72906 2.22204,7.48065 2.36225,1.21668 4.64447,2.58917 6.95496,3.90515 3.78143,2.15381 3.43304,4.52771 0.22528,6.84357 -9.41602,6.79785 -18.81811,13.6181 -28.34808,20.25366 -3.1601,2.20032 -4.95172,-0.0802 -4.94489,-2.88806 0.008,-3.23981 0.9975,-6.49066 1.69037,-9.7088 0.27649,-1.28412 0.92126,-2.48602 1.36163,-3.73828 2.1615,-6.14624 1.8194,-6.59223 -4.51025,-8.49665 -4.10046,-1.23382 -8.2019,-2.62274 -12.03571,-4.49047 -1.19281,-0.58112 -2.47168,-3.28199 -2.07409,-4.45972 2.64782,-7.84412 5.57025,-15.6117 8.85821,-23.207281 0.53131,-1.227478 3.3133,-2.026123 5.08264,-2.077942 7.65284,-0.223999 15.31586,-0.09692 23.46784,-0.09766 m -10.45325,3.118347 c -3.65741,3.05e-4 -7.32763,-0.175903 -10.9657,0.0893 -1.4212,0.103698 -3.48693,0.834106 -4.03216,1.904235 -2.93067,5.75177 -5.59943,11.648261 -8.09748,17.604311 -1.15759,2.76001 -0.65771,5.04627 2.89332,6.01117 4.61553,1.25409 9.06427,3.1355 13.69433,4.31836 3.48413,0.89014 4.08985,2.28485 2.85016,5.64728 -1.98254,5.37762 -3.36938,10.97479 -5.008,16.47919 0.36268,0.17889 0.72541,0.35784 1.08814,0.5368 9.33423,-6.61969 18.66852,-13.23938 28.60828,-20.28845 -2.23468,-1.1698 -3.69904,-1.87476 -5.10096,-2.68732 -1.42975,-0.8288 -2.83484,-1.71106 -4.18683,-2.66089 -5.24267,-3.68298 -5.39324,-5.01397 -2.21618,-10.61902 2.87402,-5.07031 5.43646,-10.3172 8.57959,-16.334778 -6.53156,0 -11.82068,0 -18.10651,-1.83e-4 z"
   id="path24" />
<path
   fill="#81625d"
   opacity="1"
   stroke="none"
   d="m 285.81569,300.97522 c 3.89276,1.63012 2.34827,4.08972 1.35736,6.28839 -1.48938,3.30438 -3.18261,6.51697 -5.08563,10.36841 3.39588,0.55133 6.26489,0.99627 9.12616,1.48663 4.36987,0.74884 5.26117,2.24695 2.78919,6.00384 -5.19831,7.9004 -10.70874,15.59595 -16.12275,23.3534 -1.63208,2.33856 -3.36877,4.60412 -5.05755,6.90307 -0.67688,-0.21875 -1.3537,-0.4375 -2.03058,-0.65625 0.2688,-3.39959 0.25171,-6.85455 0.89551,-10.18164 0.52887,-2.73358 1.74963,-5.35382 2.83081,-7.95489 1.52478,-3.66846 0.82104,-5.53449 -3.55249,-5.80872 -5.12104,-0.32104 -10.19287,-1.45489 -15.31372,-1.74328 -4.60755,-0.2594 -5.32886,-2.78308 -4.24109,-6.31397 1.84857,-6.00085 3.90704,-11.94653 6.18268,-17.79669 0.37359,-0.96051 2.26483,-1.74939 3.52923,-1.87653 8.07831,-0.81243 16.17749,-1.4176 24.69287,-2.07177 m -9.84466,44.76806 c 5.43365,-7.64685 10.86737,-15.2937 16.59387,-23.35266 -3.58197,-0.59637 -6.32446,-1.30328 -9.09802,-1.45941 -4.81031,-0.27081 -5.1742,-2.58185 -3.33869,-6.26117 1.67505,-3.35754 3.30115,-6.7395 5.31354,-10.85693 -8.82495,0.8631 -16.70965,1.63428 -24.59436,2.40539 -1.87952,4.75257 -3.59912,9.57679 -5.68774,14.2356 -1.74683,3.89648 -0.36371,5.48785 3.47754,6.00128 5.42047,0.72449 10.84143,1.46979 16.23187,2.3844 3.3659,0.57105 4.93255,2.15796 3.36401,5.95709 -1.44562,3.50135 -2.19769,7.28906 -3.69159,11.26612 6e-5,0.40759 1.2e-4,0.81524 1.9e-4,1.22284 0.28454,-0.39814 0.56909,-0.79627 1.42938,-1.54255 z"
   id="path25" />
<path
   fill="#fbfbf9"
   opacity="1"
   stroke="none"
   d="m 669.55117,204.22668 c -5.4618,3.22681 -10.54651,6.37598 -15.78186,9.25067 -1.23438,0.67774 -3.98218,1.02002 -4.28992,0.49494 -0.81323,-1.38825 -1.28235,-3.53675 -0.79492,-5.02442 1.48633,-4.53589 3.48767,-8.90301 5.40259,-13.61633 -4.62244,-2.28888 -9.00452,-4.61896 -13.52222,-6.64648 -3.83069,-1.7193 -4.20496,-4.31006 -2.469,-7.64563 2.9076,-5.58771 5.83118,-11.16858 8.8711,-16.68439 0.39014,-0.70783 1.54138,-1.47241 2.29724,-1.43091 10.84521,0.59564 21.68311,1.32532 34.12317,2.12573 -4.80188,7.57563 -8.82019,13.91498 -13.18921,20.80762 3.87036,3.19904 7.77563,6.42682 12.59912,10.41357 -4.65161,2.79932 -8.78784,5.28858 -13.24609,7.95563 m 0.70642,-37.34283 c -5.56531,-0.56775 -11.12293,-1.25434 -16.70154,-1.6203 -1.40918,-0.0925 -3.63696,0.39862 -4.20776,1.37237 -3.40296,5.80591 -6.43067,11.83185 -9.79786,18.1872 6.45105,3.16809 12.29798,6.03943 18.21753,8.94647 -2.39465,5.86914 -4.57531,11.21381 -6.75598,16.55853 0.37036,0.28925 0.74085,0.57849 1.11121,0.86774 8.57165,-5.00946 17.14331,-10.01892 26.30566,-15.37354 -1.86365,-1.11053 -3.0697,-1.62481 -4.0282,-2.43261 -8.49292,-7.1579 -8.91174,-5.9104 -3.14624,-14.81342 2.09497,-3.23486 4.19556,-6.46606 6.49854,-10.01489 -2.81348,-0.66113 -4.71655,-1.1084 -7.49536,-1.67755 z"
   id="path26" />
<path
   fill="#fbfbf9"
   opacity="1"
   stroke="none"
   d="m 98.940934,215.99249 c 8.138796,4.95313 8.115906,5.69073 0.414368,11.05402 -7.344788,5.11474 -14.626099,10.32055 -22.70813,16.03265 -5.538086,-7.64423 2.456115,-13.83942 1.941162,-20.70331 -4.856079,-1.81714 -9.878113,-3.45288 -14.646363,-5.64166 -1.285583,-0.59009 -2.869995,-3.2359 -2.496093,-4.29529 2.421203,-6.86072 5.297119,-13.56482 8.182495,-20.25183 0.286987,-0.66492 1.636719,-1.23071 2.495788,-1.23437 9.981263,-0.0426 19.963257,0.0159 29.944279,0.11718 0.55914,0.006 1.11206,0.62049 1.98193,1.13904 -2.63037,5.03687 -4.80188,10.23358 -7.89032,14.81165 -2.97876,4.41558 -2.018371,6.90942 2.780884,8.97192 m -25.882141,1.39478 c 2.914367,1.09545 5.828735,2.19091 9.08966,3.41668 -1.658386,5.8371 -3.300903,11.61823 -5.360534,18.86743 9.226684,-6.55767 17.268921,-12.27356 25.834041,-18.36108 -2.12481,-1.18909 -3.274227,-1.81622 -4.408565,-2.46973 -8.490662,-4.89148 -8.791077,-6.24627 -3.691284,-14.70202 1.823852,-3.02411 3.384704,-6.20679 5.584959,-10.27808 -9.663084,0 -17.94641,-0.0772 -26.223997,0.10486 -0.955811,0.021 -2.235291,1.30145 -2.752381,2.3114 -1.587036,3.09979 -2.933655,6.32831 -4.270263,9.54962 -3.703736,8.92646 -4.164124,8.20539 6.198364,11.56092 z"
   id="path27" />
<path
   fill="#9e9ea3"
   opacity="1"
   stroke="none"
   d="m 243.0793,131.31549 c -3.31823,0.0742 -6.75787,-0.36804 -10.20526,-0.44 -13.5932,-0.28376 -26.39593,4.03564 -39.27447,7.41302 -11.44538,3.0014 -21.69708,8.87097 -31.80512,15.1651 -11.91656,7.42029 -22.42389,16.13129 -31.47735,27.15265 1.77166,-7.12225 7.04712,-11.9978 12.54883,-16.44788 7.02679,-5.68365 14.09234,-11.51532 21.87469,-16.01434 7.89813,-4.56598 16.61487,-7.77045 25.11536,-11.22064 5.61889,-2.2807 11.37658,-4.435 17.26989,-5.77826 11.86664,-2.70471 23.86762,-5.19556 35.95343,0.17035 z"
   id="path28" />
<path
   fill="#9e9ea3"
   opacity="1"
   stroke="none"
   d="m 128.10061,206.2218 c 8.87719,7.64093 19.72863,11.06128 31.07202,13.9234 10.98278,2.77118 22.32019,5.03223 31.84332,11.83826 1.54925,1.10724 2.68561,2.79217 4.02179,4.56048 -14.49976,-10.34503 -32.21442,-12.43377 -48.68451,-17.89068 -4.50635,-1.49305 -8.93842,-3.49005 -13.00244,-5.92646 -2.19159,-1.31384 -3.53241,-4.04681 -5.25018,-6.505 z"
   id="path29" />
<path
   fill="#9e9ea3"
   opacity="1"
   stroke="none"
   d="m 126.31215,187.82538 c 0.78095,5.64544 1.2475,11.44903 1.75452,17.64172 -4.67163,-3.76782 -5.58466,-11.50342 -1.75452,-17.64172 z"
   id="path30" />
<path
   fill="#9e9ea3"
   opacity="1"
   stroke="none"
   d="m 128.78682,181.92267 c 0.006,0.63696 -0.33514,1.32495 -0.92718,2.16705 0.0261,-0.60254 0.3034,-1.35925 0.92718,-2.16705 z"
   id="path31" />
<path
   fill="#a8b2b9"
   opacity="1"
   stroke="none"
   d="m 302.86562,211.75146 c 3.00458,-4.18884 5.85858,-8.02807 8.71252,-11.86731 0.4076,0.2865 0.81519,0.57294 1.22272,0.85938 -0.63086,10.14459 -4.09546,19.00342 -12.38513,26.75909 -1.96832,-6.20959 1.36041,-10.63263 2.44989,-15.75116 z"
   id="path32" />
<path
   fill="#9e9ea3"
   opacity="1"
   stroke="none"
   d="m 541.74477,200.04431 c -1.89783,2.33777 -3.87976,4.34405 -5.86182,6.35034 -0.42712,-0.47137 -0.85424,-0.94275 -1.28137,-1.41412 0.89832,-3.48572 2.93006,-5.6236 7.14319,-4.93622 z"
   id="path33" />
<path
   fill="#f2d18e"
   opacity="1"
   stroke="none"
   d="m 490.98232,356.21856 c 5.73669,1.98554 11.23621,3.69416 17.40381,5.61036 -8.82154,10.88891 -17.60962,21.73645 -26.39771,32.58398 -0.3811,-0.21106 -0.76233,-0.42212 -1.14355,-0.63318 2.04419,-4.83581 3.95752,-9.73218 6.16162,-14.49389 3.71838,-8.0329 3.04407,-9.72504 -5.46204,-11.6587 -6.15136,-1.39849 -12.34301,-2.63031 -18.53979,-3.81598 -5.39478,-1.03228 -6.49109,-2.71301 -4.30994,-7.81097 2.48572,-5.81012 5.16931,-11.54065 7.9679,-17.2066 0.44702,-0.90522 1.93872,-1.82141 2.95923,-1.83484 10.2622,-0.13477 20.52697,-0.0821 30.89148,-0.0821 -2.67151,4.70672 -5.65101,9.84307 -8.49573,15.05297 -0.66004,1.20862 -0.86072,2.66797 -1.03528,4.28894 z"
   id="path34" />
<path
   fill="#f2d18e"
   opacity="1"
   stroke="none"
   d="m 495.94252,94.918389 c -4.45678,-0.922974 -8.47534,-1.966492 -12.55358,-2.657227 -3.74329,-0.633972 -4.24353,-2.875488 -2.98377,-5.717651 2.28638,-5.158264 4.82324,-10.20874 7.38965,-15.235748 0.35779,-0.700898 1.47046,-1.432831 2.24206,-1.441986 8.5625,-0.101929 17.12684,-0.06421 26.63514,-0.06421 -3.51795,5.930847 -6.5149,10.983093 -10.1366,17.088806 5.64221,1.594177 10.62048,3.000793 16.23828,4.588074 -7.23877,8.523863 -14.41736,16.976693 -21.59582,25.429513 -0.44031,-0.23084 -0.88074,-0.46167 -1.32105,-0.69251 1.36157,-3.25647 2.6355,-6.55292 4.10205,-9.76135 3.48401,-7.621466 3.13501,-8.406806 -5.21533,-10.813971 -0.79626,-0.229554 -1.59241,-0.459046 -2.80103,-0.72174 z"
   id="path35" />
<path
   fill="#f2d18e"
   opacity="1"
   stroke="none"
   d="m 499.66726,118.39428 c -0.19703,0.0137 -0.25855,-0.0876 -0.32007,-0.18884 0.15185,0.0247 0.30371,0.0493 0.32007,0.18884 z"
   id="path36" />
<path
   fill="#f5d28a"
   opacity="1"
   stroke="none"
   d="m 365.11348,89.967339 c 5.78748,1.22e-4 11.0766,1.22e-4 17.60816,1.22e-4 -3.14313,6.017578 -5.70557,11.264469 -8.57959,16.334779 -3.17706,5.60505 -3.02649,6.93604 2.21618,10.61902 1.35199,0.94983 2.75708,1.83209 4.18683,2.66089 1.40192,0.81256 2.86628,1.51752 5.10096,2.68732 -9.93976,7.04907 -19.27405,13.66876 -28.60828,20.28845 -0.36273,-0.17896 -0.72546,-0.35791 -1.08814,-0.5368 1.63862,-5.5044 3.02546,-11.10157 5.008,-16.47919 1.23969,-3.36243 0.63397,-4.75714 -2.85016,-5.64728 -4.63006,-1.18286 -9.0788,-3.06427 -13.69433,-4.31836 -3.55103,-0.9649 -4.05091,-3.25116 -2.89332,-6.01117 2.49805,-5.95605 5.16681,-11.852542 8.09748,-17.604312 0.54523,-1.070129 2.61096,-1.800537 4.03216,-1.904235 3.63807,-0.265198 7.30829,-0.08899 11.46405,-0.08923 z"
   id="path37" />
<path
   fill="#f2d18e"
   opacity="1"
   stroke="none"
   d="m 274.97768,345.74743 c 1.05768,-3.6615 1.80975,-7.44921 3.25537,-10.95056 1.56854,-3.79913 0.002,-5.38604 -3.36401,-5.95709 -5.39044,-0.91461 -10.8114,-1.65991 -16.23187,-2.3844 -3.84125,-0.51343 -5.22437,-2.1048 -3.47754,-6.00128 2.08862,-4.65881 3.80822,-9.48303 5.68774,-14.23554 7.88471,-0.77117 15.76941,-1.54235 24.59436,-2.40545 -2.01239,4.11743 -3.63849,7.49939 -5.31354,10.85693 -1.83551,3.67932 -1.47162,5.99036 3.33869,6.26117 2.77356,0.15613 5.51605,0.86304 9.09802,1.45941 -5.7265,8.05896 -11.16022,15.70581 -16.98676,23.44147 -0.39282,0.0887 -0.60046,-0.0847 -0.60046,-0.0847 z"
   id="path38" />
<path
   fill="#f2d18e"
   opacity="1"
   stroke="none"
   d="m 275.2903,346.00616 c -0.17956,0.4834 -0.46411,0.88153 -0.74865,1.27967 -7e-5,-0.4076 -1.3e-4,-0.81525 0.21789,-1.38062 0.21814,-0.15778 0.42578,0.0156 0.53076,0.10095 z"
   id="path39" />
<path
   fill="#f5d28a"
   opacity="1"
   stroke="none"
   d="m 670.69545,166.94482 c 2.34095,0.50818 4.24402,0.95545 7.0575,1.61658 -2.30298,3.54883 -4.40357,6.78003 -6.49854,10.01489 -5.7655,8.90302 -5.34668,7.65552 3.14624,14.81342 0.9585,0.8078 2.16455,1.32208 4.0282,2.43261 -9.16235,5.35462 -17.73401,10.36408 -26.30566,15.37354 -0.37036,-0.28925 -0.74085,-0.57849 -1.11121,-0.86774 2.18067,-5.34472 4.36133,-10.68939 6.75598,-16.55853 -5.91955,-2.90704 -11.76648,-5.77838 -18.21753,-8.94647 3.36719,-6.35535 6.3949,-12.38129 9.79786,-18.1872 0.5708,-0.97375 2.79858,-1.46484 4.20776,-1.37237 5.57861,0.36596 11.13623,1.05255 17.1394,1.68127 z"
   id="path40" />
<path
   fill="#f5d28a"
   opacity="1"
   stroke="none"
   d="m 72.70546,217.22339 c -10.009155,-3.19165 -9.548767,-2.47058 -5.845031,-11.39704 1.336608,-3.22131 2.683227,-6.44983 4.270263,-9.54962 0.51709,-1.00995 1.79657,-2.2904 2.752381,-2.3114 8.277587,-0.18201 16.560913,-0.10486 26.223997,-0.10486 -2.200255,4.07129 -3.761107,7.25397 -5.584959,10.27808 -5.099793,8.45575 -4.799378,9.81054 3.691284,14.70202 1.134338,0.65351 2.283755,1.28064 4.408565,2.46973 -8.56512,6.08752 -16.607357,11.80341 -25.834041,18.36108 2.059631,-7.2492 3.702148,-13.03033 5.360534,-18.86743 -3.260925,-1.22577 -6.175293,-2.32123 -9.442993,-3.58056 z"
   id="path41" />
</svg>
