<?xml version="1.0" encoding="UTF-8" standalone="no"?>
<svg
   version="1.1"
   width="770"
   height="300"
   id="svg65"
   sodipodi:docname="SignUp.svg"
   inkscape:version="1.4.2 (f4327f4, 2025-05-13)"
   xmlns:inkscape="http://www.inkscape.org/namespaces/inkscape"
   xmlns:sodipodi="http://sodipodi.sourceforge.net/DTD/sodipodi-0.dtd"
   xmlns="http://www.w3.org/2000/svg"
   xmlns:svg="http://www.w3.org/2000/svg">
  <defs
     id="defs65" />
  <sodipodi:namedview
     id="namedview65"
     pagecolor="#ffffff"
     bordercolor="#000000"
     borderopacity="0.25"
     inkscape:showpageshadow="2"
     inkscape:pageopacity="0.0"
     inkscape:pagecheckerboard="0"
     inkscape:deskcolor="#d1d1d1"
     inkscape:zoom="0.45464768"
     inkscape:cx="1418.681"
     inkscape:cy="1122.8475"
     inkscape:window-width="2560"
     inkscape:window-height="1494"
     inkscape:window-x="-11"
     inkscape:window-y="-11"
     inkscape:window-maximized="1"
     inkscape:current-layer="svg65" />
  <path
     d="m 601.73207,14.627009 c 0.69868,0.08314 1.39735,0.166289 2.11719,0.251953 3.88689,0.502363 7.39515,1.108369 10.88281,2.935547 2.28865,3.432967 2.09488,4.949494 1.49219,8.925781 -0.70124,2.955245 -1.98516,5.45331 -3.49219,8.074219 -0.66,0 -1.32,0 -2,0 -0.66,1.98 -1.32,3.96 -2,6 -0.66,0 -1.32,0 -2,0 -0.4357,0.87785 -0.8714,1.7557 -1.32031,2.66016 -1.01522,2.01863 -2.04696,4.02923 -3.10937,6.02343 -7.00473,13.34684 -10.67279,27.83752 -14.57032,42.31641 0.69996,-0.92941 1.39993,-1.85883 2.1211,-2.81641 2.61352,-3.13089 5.11504,-4.60699 8.9414,-6.12109 1.02223,-0.42152 2.04446,-0.84305 3.09766,-1.27734 2.85536,-0.78945 4.12231,-0.83437 6.83984,0.21484 0.33,-0.66 0.66,-1.32 1,-2 2.60453,0.14087 5.20851,0.28748 7.8125,0.4375 0.73799,0.0393 1.47598,0.0786 2.23633,0.11914 3.18189,0.18717 5.9128,0.43057 8.95117,1.44336 1.54106,0.0433 3.08386,0.0402 4.625,0 1.45785,-0.0377 2.91741,-0.0465 4.375,0 0.33,0.33 0.66,0.66 1,1 1.62415,0.19478 3.24937,0.38059 4.875,0.5625 9.95923,1.75903 16.89074,8.37848 22.78516,16.26172 4.36914,7.095071 5.42875,15.463631 3.87891,23.593751 -1.68446,6.39103 -4.60637,11.31795 -8.53907,16.58203 -0.51562,0.74508 -1.03125,1.49016 -1.5625,2.25781 -0.47437,0.57492 -0.94875,1.14985 -1.4375,1.74219 -0.66,0 -1.32,0 -2,0 0,0.66 0,1.32 0,2 -0.66,0 -1.32,0 -2,0 0,0.66 0,1.32 0,2 -1.98304,1.73249 -3.97226,3.34266 -6.0625,4.9375 -0.62398,0.48219 -1.24797,0.96438 -1.89087,1.46118 -2.00801,1.54395 -4.02523,3.07494 -6.04663,4.60132 -0.66741,0.50402 -1.33482,1.00805 -2.02246,1.52734 -1.96611,1.47771 -3.93861,2.94628 -5.91504,4.41016 -0.60142,0.44787 -1.20285,0.89574 -1.82251,1.35718 -10.51438,7.70532 -10.51438,7.70532 -14.23999,7.70532 0.004,1.06853 0.009,2.13706 0.0135,3.23798 0.0405,10.06458 0.0705,20.12915 0.0902,30.19379 0.0104,5.17447 0.0246,10.34888 0.0472,15.52331 0.0217,4.99259 0.0337,9.98512 0.0389,14.97776 0.004,1.90581 0.0109,3.81161 0.0217,5.71739 0.0145,2.66712 0.0165,5.33398 0.0156,8.00114 0.007,0.78978 0.0144,1.57956 0.0218,2.39328 -0.0257,6.80466 -0.0257,6.80466 -2.24884,9.95535 -3.96478,3.12377 -8.97921,4.65476 -14,5 -0.66,-0.66 -1.32,-1.32 -2,-2 -2.49756,-0.31306 -2.49756,-0.31306 -5.3125,-0.375 -3.44555,-0.28412 -5.59088,-0.57965 -8.75,-2.0625 -4.57965,-6.05696 -4.22242,-14.75645 -4.08862,-22.07837 0.008,-0.89455 0.0157,-1.7891 0.0238,-2.71075 0.0284,-2.93639 0.0718,-5.87234 0.1156,-8.80854 0.0237,-2.0814 0.0466,-4.16282 0.0687,-6.24424 0.0485,-4.36848 0.10372,-8.7368 0.16451,-13.10512 0.0764,-5.49493 0.14136,-10.98991 0.20177,-16.48504 0.23137,-20.9378 0.51664,-41.86986 1.25607,-62.79671 0.2726,-7.78204 0.37408,-15.54694 0.32072,-23.33373 -0.36351,1.34191 -0.36351,1.34191 -0.73437,2.71094 -3.43979,12.4097 -7.46863,23.90027 -15.26563,34.28906 -0.33,0.72188 -0.66,1.44375 -1,2.1875 -1,1.8125 -1,1.8125 -4,2.8125 -0.66,0.99 -1.32,1.98 -2,3 -2.36921,2.93331 -4.29624,3.49949 -8,4 0,0.66 0,1.32 0,2 -12.52372,6.42829 -24.91785,11.06527 -38.9375,7.1875 -1.01062,-0.39187 -2.02125,-0.78375 -3.0625,-1.1875 -0.73863,-0.24363 -1.47726,-0.48727 -2.23828,-0.73828 -7.96378,-2.81148 -15.8323,-7.39821 -20.19922,-14.88672 -0.51562,-1.11375 -1.03125,-2.2275 -1.5625,-3.375 -0.53625,-0.9075 -1.0725,-1.815 -1.625,-2.75 -3.35651,-7.93358 -3.71363,-16.54734 -3.625,-25.0625 0.009,-1.00297 0.0179,-2.00594 0.0271,-3.03931 0.3288,-21.695351 4.00775,-42.665021 7.91718,-63.951811 0.73548,-4.00732 1.44883,-8.01586 2.11114,-12.03598 0.1292,-0.77196 0.25839,-1.54392 0.3915,-2.33928 0.24092,-1.44719 0.47585,-2.89541 0.70346,-4.344756 0.93636,-5.573065 2.48284,-9.153865 6.09962,-13.476364 3.21317,-1.917839 5.30105,-2 9,-2 0.66,-0.66 1.32,-1.32 2,-2 0,0.99 0,1.98 0,3 0.97582,0.03738 1.95164,0.07477 2.95703,0.113281 1.27231,0.06574 2.54461,0.131485 3.85547,0.199219 1.26457,0.05801 2.52914,0.116016 3.83203,0.175781 3.35547,0.511719 3.35547,0.511719 5.24219,1.867188 6.84298,10.108393 -1.00293,33.365381 -2.88672,44.394531 -0.5567,3.28069 -1.11116,6.5617 -1.66089,9.84357 -0.33959,2.02542 -0.68321,4.05018 -1.03173,6.07409 -1.76192,10.46586 -2.48809,20.788501 -2.49488,31.394841 -0.0184,1.5169 -0.0184,1.5169 -0.0371,3.06445 -0.0171,8.85992 0.71011,17.07527 5.22461,24.87305 5.28375,-0.13548 8.74468,-2.20892 12.69922,-5.49219 12.57686,-13.70856 15.71533,-36.035131 20.1897,-53.412111 1.83317,-7.10771 3.79449,-14.12755 6.11108,-21.0957 0.3661,-1.12148 0.73219,-2.24297 1.10938,-3.39844 5.38552,-15.84181 12.85076,-32.61166 26.89062,-42.60156 4.39021,-1.385562 8.52163,-0.794806 13,-0.1875 z m 17,90.187501 c -0.94252,4.04179 -1.19295,7.90634 -1.3164,12.05078 -0.0208,0.65881 -0.0416,1.31761 -0.063,1.99639 -0.065,2.08834 -0.12413,4.17681 -0.18312,6.26533 -0.0432,1.42254 -0.0869,2.84506 -0.13086,4.26758 -0.10662,3.47318 -0.20803,6.9465 -0.30664,10.41992 4.27237,-0.7994 5.3347,-2.60779 8,-6 0.78375,-0.4125 1.5675,-0.825 2.375,-1.25 4.07842,-2.71894 6.44582,-6.39889 8.625,-10.75 0.80564,-5.28137 -0.27964,-8.46608 -3,-13 -0.4125,-0.71285 -0.825,-1.4257 -1.25,-2.16016 -1.64444,-2.10859 -1.64444,-2.10859 -4.44922,-2.23046 -0.98613,0.0464 -1.97226,0.0928 -2.98828,0.14062 -0.99386,0.0361 -1.98773,0.0722 -3.01172,0.10938 -0.75925,0.0464 -1.51851,0.0928 -2.30078,0.14062 z"
     fill="#6c4744"
     id="path1" />
  <path
     d="m 381.73207,71.814509 c 3.33737,0.39645 6.67321,0.76336 10.01953,1.07422 5.53599,0.60824 8.78981,2.29843 13.16797,5.55078 5.34325,7.0015 4.12295,16.67666 3.16651,24.960451 -1.54988,10.57126 -4.43752,20.97424 -7.16651,31.28955 -1.14583,4.59657 -1.8621,8.40274 -1.1875,13.125 2.3207,2.42416 2.3207,2.42416 5,4 1.77583,3.55166 1.15648,7.28643 0,11 -2.03209,2.28337 -4.29354,3.6208 -7,5 -0.84562,0.45375 -1.69125,0.9075 -2.5625,1.375 -7.19327,1.84443 -19.19017,-2.03267 -25.67578,-5.60937 -3.54776,-2.8523 -5.5389,-5.8132 -6.05371,-10.32422 -0.0132,-7.80915 1.19541,-14.87175 3.04199,-22.44141 0.55126,-2.36026 1.10072,-4.72094 1.64844,-7.08203 0.27167,-1.15967 0.54334,-2.31935 0.82324,-3.51416 1.14607,-5.01205 2.16323,-10.04647 3.15332,-15.09131 0.16726,-0.84885 0.33452,-1.6977 0.50684,-2.57227 0.37532,-1.9129 0.7472,-3.826481 1.11816,-5.740231 -0.66,0 -1.32,0 -2,0 -0.27586,0.58652 -0.55172,1.17305 -0.83593,1.77734 -1.11173,2.122731 -2.35741,3.869621 -3.78907,5.785161 -9.57196,14.2641 -14.21348,31.7314 -16.78515,48.51953 -0.72268,2.34991 -1.67384,3.40332 -3.58985,4.91797 -0.66,0 -1.32,0 -2,0 -0.33,0.99 -0.66,1.98 -1,3 -2.28515,0.94922 -2.28515,0.94922 -5.0625,1.6875 -0.9191,0.25137 -1.8382,0.50273 -2.78515,0.76172 -0.71028,0.18176 -1.42055,0.36351 -2.15235,0.55078 -0.33,-0.99 -0.66,-1.98 -1,-3 -0.71543,0.18434 -1.43086,0.36867 -2.16797,0.55859 -3.05984,0.47692 -5.14037,0.18485 -8.14453,-0.49609 -0.883,-0.19465 -1.76601,-0.3893 -2.67578,-0.58984 -0.66387,-0.15598 -1.32773,-0.31196 -2.01172,-0.47266 -0.33,-0.99 -0.66,-1.98 -1,-3 -0.66,0 -1.32,0 -2,0 -2.06641,-7.30421 -0.92007,-14.95228 0,-22.375 0.7335,-5.79541 0.7335,-5.79541 1,-11.625 -1.51078,6.12153 -2.44477,12.09371 -2.9375,18.375 -0.0793,0.9477 -0.15871,1.89541 -0.24048,2.87183 -0.56577,6.96441 -1.0432,13.93388 -1.50952,20.90551 -5.41189,80.84889 -5.41189,80.84889 -22.3125,103.84766 -0.66,0 -1.32,0 -2,0 -0.22429,0.56074 -0.44859,1.12148 -0.67968,1.69922 -6.83767,11.91535 -23.00478,17.72382 -35.50782,21.17578 -21.74007,4.70451 -45.73295,0.70901 -64.8125,-10.875 -2.82812,-2.05859 -2.82812,-2.05859 -5,-4 0,-0.66 0,-1.32 0,-2 -0.59425,-0.26297 -1.18851,-0.52594 -1.80078,-0.79687 -4.39082,-2.40209 -7.56119,-6.28904 -9.13672,-11.01563 -0.21748,-11.09143 -0.21748,-11.09143 2.625,-16.25 3.00819,-2.52037 4.36558,-2.79654 8.3125,-2.9375 0.85723,-0.0812 1.71446,-0.16242 2.59766,-0.24609 7.37927,-0.16528 11.23265,2.08396 16.40234,6.99609 2.92515,2.84915 5.61003,5.74686 8.11328,8.97656 3.00817,3.62475 6.69904,5.26144 10.88672,7.27344 0.66774,0.36996 1.33547,0.73992 2.02344,1.12109 7.55191,3.48661 15.51545,0.39945 22.97656,-2.12109 2.01683,-0.96561 4.02114,-1.9588 6,-3 0.92813,-0.33 1.85625,-0.66 2.8125,-1 0.72188,-0.33 1.44375,-0.66 2.1875,-1 0.33,-0.99 0.66,-1.98 1,-3 0.62004,-0.61875 1.24008,-1.2375 1.87891,-1.875 21.33694,-21.37623 17.29648,-73.11799 19.12109,-101.125 -0.64646,0.0145 -1.29293,0.029 -1.95898,0.0439 -13.56024,0.17591 -28.80951,-3.23939 -38.92383,-12.82911 -4.14127,-4.35084 -5.78131,-7.03072 -6.11719,-13.21484 1.46648,-8.36084 4.48866,-15.85451 9,-23 0.55688,-1.01062 1.11375,-2.02125 1.6875,-3.0625 0.43313,-0.63937 0.86625,-1.27875 1.3125,-1.9375 0.66,0 1.32,0 2,0 0.37125,-0.835311 0.37125,-0.835311 0.75,-1.687501 1.47925,-2.73661 3.18468,-4.98901 5.25,-7.3125 0.66,0 1.32,0 2,0 0.34612,-0.87785 0.34612,-0.87785 0.69922,-1.77344 1.63186,-2.79327 3.44664,-4.03648 6.11328,-5.85156 0.85207,-0.59039 1.70414,-1.18078 2.58203,-1.78906 4.5868,-2.79197 7.67157,-3.89178 13.04297,-3.27344 1.56621,0.16049 1.56621,0.16049 3.16407,0.32422 1.12148,0.11988 2.24296,0.23976 3.39843,0.36328 9.0202,1.06054 9.0202,1.06054 18,0.375 3.84021,-0.48003 5.75306,0.64515 9,2.625 0.33,-0.66 0.66,-1.32 1,-2 2.00241,0.31856 4.00212,0.65421 6,1 0.70125,0.10313 1.4025,0.20625 2.125,0.3125 3.27608,1.20123 5.33917,3.61584 6.875,6.6875 0.65356,-1.49853 0.65356,-1.49853 1.32032,-3.02734 0.60037,-1.30394 1.202,-2.60729 1.80468,-3.91016 0.2836,-0.65936 0.56719,-1.31871 0.85938,-1.99805 0.89844,-1.90429 0.89844,-1.90429 3.01562,-5.06445 3.62907,-1.21127 6.32619,-1.23064 9.9375,-0.0625 6.39983,1.73555 10.54401,1.40278 16.5625,-1.4375 7.56467,-3.38545 16.53474,-4.15509 24.5,-1.5 z m -103.3125,34.062501 c -5.20712,5.69151 -9.29319,10.55095 -12.3125,17.6875 -0.45375,1.0725 -0.9075,2.145 -1.375,3.25 1.81077,2.20063 1.81077,2.20063 4.3125,2.375 4.66718,-0.65123 6.94489,-3.40946 9.73047,-7.03125 2.21683,-3.78764 3.0031,-6.94545 3.70703,-11.21875 0.18756,-1.03254 0.18756,-1.03254 0.37891,-2.08594 0.30288,-1.67747 0.58878,-3.358 0.87109,-5.03906 -3.14329,-0.33281 -3.14329,-0.33281 -5.3125,2.0625 z"
     fill="#6b4643"
     id="path2" />
  <path
     d="m 156.34926,31.244197 c 4.07861,0.976192 8.25068,0.975412 12.42969,1.128906 3.23744,0.483904 4.64037,1.161227 6.95312,3.441406 1.42006,4.56447 1.09365,7.72168 -1,12 -4.47658,4.38134 -8.3558,6.0338 -14.3125,7.6875 -16.22445,4.99802 -29.5017,14.89071 -42.6875,25.3125 -0.8167,0.64099 -0.8167,0.64099 -1.6499,1.29492 -5.22653,4.11798 -10.23399,8.34144 -14.84619,13.14258 -1.436244,1.4922 -2.929724,2.89766 -4.441414,4.3125 -2.40036,2.109861 -2.40036,2.109861 -2.0625,5.250001 11.486214,4.87451 22.816674,8.24615 35.171884,9.96118 1.9527,0.28456 3.89263,0.65426 5.82812,1.03882 0.33,0.66 0.66,1.32 1,2 1.94907,0.18563 1.94907,0.18563 3.9375,0.375 11.10046,1.10479 18.68669,6.37111 26.0625,14.625 3.94739,5.83033 3.80575,13.21522 3,20 -2.89782,10.15963 -12.43036,16.72543 -21,22 -1.98058,1.03343 -3.97781,2.0251 -5.98462,3.00659 -1.78811,0.88139 -3.55227,1.81102 -5.31225,2.74732 -20.57521,10.77638 -42.891764,18.24274 -64.752934,25.9707 -6.62429,2.34689 -12.22693,4.8756 -17.93848,8.98242 -2.90875,1.86951 -5.64763,2.57721 -9.01172,3.29297 -0.33,-0.33 -0.66,-0.66 -1,-1 -2.22145,-0.28388 -4.44317,-0.44765 -6.67578,-0.62109 -2.44476,-0.39856 -4.17888,-1.16633 -6.32422,-2.37891 0,-0.66 0,-1.32 0,-2 -0.66,0 -1.32,0 -2,0 -1.69684,-5.37333 -0.20539,-8.92757 1.79688,-13.92578 1.20312,-2.07422 1.20312,-2.07422 4.20312,-3.07422 0.66884,-1.33224 1.33534,-2.66567 2,-4 8.52928,-6.78182 21.33958,-9.91096 31.59766,-13.21875 1.99309,-0.64816 3.97816,-1.32094 5.96094,-2 11.27853,-3.8541 11.27853,-3.8541 16.8164,-4.96875 1.19625,-0.26812 2.3925,-0.53625 3.625,-0.8125 0.33,-0.66 0.66,-1.32 1,-2 1.96875,-0.89453 1.96875,-0.89453 4.500004,-1.8125 4.22715,-1.62629 8.08166,-3.50168 12,-5.76172 4.13894,-2.36049 8.36899,-4.55254 12.58203,-6.77734 2.88404,-1.54394 2.88404,-1.54394 5.17969,-3.35938 1.73828,-1.28906 1.73828,-1.28906 3.73828,-1.28906 -1.1923,-5.36337 -1.1923,-5.36337 -4.77905,-9.20215 -6.00778,-2.52973 -11.95946,-4.04119 -18.34595,-5.29785 -2.03958,-0.42326 -4.07865,-0.84904 -6.11718,-1.27734 -0.98453,-0.20609 -1.96905,-0.41218 -2.9834,-0.62452 -13.303634,-2.86817 -27.789744,-6.12231 -38.774424,-14.59814 -0.33,-0.99 -0.66,-1.98 -1,-3 -0.99,-0.33 -1.98,-0.66 -3,-1 -2.52106,-3.90765 -2.23452,-7.81083 -1.66015,-12.25391 3.60534,-14.997351 16.97742,-25.647081 28.84375,-34.332031 2.05658,-1.54095 2.05658,-1.54095 4.5664,-4.16406 2.04796,-2.04795 3.59692,-3.16911 6.25,-4.25 0,-0.66 0,-1.32 0,-2 0.63938,-0.28875 1.27875,-0.5775 1.9375,-0.875 2.214564,-0.95323 2.214564,-0.95323 3.062504,-3.125 5.42308,-3 5.42308,-3 8,-3 0,-0.66 0,-1.32 0,-2 0.48727,-0.26812 0.97453,-0.53625 1.47657,-0.8125 3.65118,-2.01811 7.2879,-4.04935 10.88671,-6.16016 6.68695,-3.922 13.28543,-7.48419 20.63672,-10.02734 1.19625,-0.45375 2.3925,-0.9075 3.625,-1.375 3.50037,-0.648216 5.62953,-0.237077 8.99219,0.804688 z"
     fill="#6b4542"
     id="path3" />
  <path
     d="m 198.10707,92.439509 c 0.94618,-0.0374 1.89235,-0.0748 2.86719,-0.11328 4.40394,-0.0557 7.05869,0.0826 10.92188,2.32422 4.93293,8.501431 1.01673,20.252561 -0.66407,29.351561 -0.24175,1.34685 -0.48264,2.69385 -0.72265,4.04102 -0.58401,3.25878 -1.17662,6.51574 -1.77735,9.77148 1.01707,-0.17016 2.03414,-0.34031 3.08203,-0.51562 3.67151,-0.45391 6.92416,-0.49577 10.60547,-0.23438 1.64549,0.10055 1.64549,0.10055 3.32422,0.20313 3.20717,0.58693 4.6808,1.27722 6.98828,3.54687 1.58417,4.75251 1.85951,9.15206 -0.25,13.6875 -0.5775,0.76313 -1.155,1.52625 -1.75,2.3125 -0.77343,1.17563 -0.77343,1.17563 -1.5625,2.375 -6.55294,7.05701 -14.93194,11.85894 -24.4375,13.625 -5.58201,-0.58201 -5.58201,-0.58201 -7,-2 -2.96625,-0.50044 -5.94103,-0.90088 -8.92187,-1.30469 -6.14186,-1.38737 -9.43592,-4.67497 -13.07813,-9.69531 -5.96875,-14.59952 -0.71893,-33.14471 2,-48 0.13842,-0.79825 0.27683,-1.5965 0.41944,-2.41895 2.06625,-11.900541 2.06625,-11.900541 6.58056,-15.581051 4.42117,-1.47372 8.74247,-1.30614 13.375,-1.375 z"
     fill="#6c4643"
     id="path4" />
  <path
     d="m 696.73207,125.81451 c 0.69159,0.0425 1.38317,0.0851 2.09571,0.12891 19.00603,1.27909 19.00603,1.27909 25.90429,6.87109 1.67006,2.2387 2.73852,4.47702 4,7 1.99666,1.67067 3.99651,3.33753 6,5 3.00942,4.51412 3.75466,8.66572 3,14 -1.69695,5.2695 -3.83604,8.39124 -8,12 -0.54269,0.495 -1.08539,0.99 -1.64453,1.5 -6.03339,5.08075 -13.58817,8.16566 -21.51172,8.625 -2.01892,-0.20531 -3.87485,-0.63099 -5.84375,-1.125 -0.99773,-0.17789 -1.99547,-0.35578 -3.02343,-0.53906 -10.79928,-2.08937 -19.39127,-6.30814 -26.46094,-14.92969 -3.60221,-6.01607 -3.15498,-11.77456 -1.61328,-18.42187 2.33296,-7.94156 4.87205,-14.57402 12.22265,-18.98438 4.90128,-1.76613 9.74377,-1.45913 14.875,-1.125 z"
     fill="#6c4643"
     id="path5" />
  <path
     d="m 194.91957,45.564509 c 3.8125,0.25 3.8125,0.25 6.99219,1.21094 4.99452,1.35843 9.91105,1.71607 15.06055,2.07422 6.81268,0.61669 12.89098,2.64506 17.69726,7.71484 3.37423,5.31696 3.46617,9.92532 2.4375,15.9375 -1.12787,4.3334 -2.83925,6.46853 -6.375,9.3125 -0.56718,0.49242 -1.13437,0.98484 -1.71875,1.49219 -5.6247,4.63346 -11.92935,8.90538 -19.50293,8.34277 -9.48942,-1.34036 -21.0845,-3.21604 -27.65332,-10.83496 -1.65305,-2.33372 -2.89411,-4.45031 -4.125,-7 -0.79277,-0.62648 -0.79277,-0.62648 -1.60156,-1.26562 -1.39844,-1.73438 -1.39844,-1.73438 -1.28906,-4.36329 0.2114,-0.96808 0.42281,-1.93617 0.64062,-2.93359 0.2011,-0.97066 0.40219,-1.94133 0.60938,-2.94141 0.64062,-2.49609 0.64062,-2.49609 1.64062,-4.49609 0.66,0 1.32,0 2,0 0.165,-0.72187 0.33,-1.44375 0.5,-2.1875 1.91272,-3.58634 4.15168,-4.73909 7.625,-6.69922 5.4517,-3.23694 5.4517,-3.23694 7.0625,-3.36328 z"
     fill="#6b4542"
     id="path6" />
  <path
     d="m 837,1309 c 0,0.66 0,1.32 0,2 0.84563,-0.165 1.69125,-0.33 2.5625,-0.5 9.11597,-1.326 9.11597,-1.326 13.4375,1.375 2.87684,4.4951 1.9952,8.0505 1,13.125 -1.65,0.33 -3.3,0.66 -5,1 -0.33,0.99 -0.66,1.98 -1,3 -1.84766,0.9492 -1.84766,0.9492 -4.0625,1.6875 -0.73348,0.2514 -1.46695,0.5027 -2.22266,0.7617 -0.56589,0.1818 -1.13179,0.3635 -1.71484,0.5508 -0.33,-0.99 -0.66,-1.98 -1,-3 -0.73605,0.035 -1.47211,0.07 -2.23047,0.1055 -9.76782,0.2709 -9.76782,0.2709 -13.76953,-3.1055 -0.54785,-0.4396 -1.0957,-0.8791 -1.66016,-1.332 C 820,1323 820,1323 820.00391,1320.9141 c 1.17006,-4.7949 2.2324,-8.473 5.99609,-11.9141 3.8557,-1.4205 7.03431,-0.83 11,0 z m -2,13 c -0.66,0.66 -1.32,1.32 -2,2 0.99,0 1.98,0 3,0 -0.33,-0.66 -0.66,-1.32 -1,-2 z"
     fill="#69403e"
     id="path7" />
  <path
     d="m 698.73207,176.81451 c 3.3,0 6.6,0 10,0 0.33,0.99 0.66,1.98 1,3 -4.51718,1.36884 -7.58774,0.47075 -12,-1 0.33,-0.66 0.66,-1.32 1,-2 z"
     fill="#583432"
     id="path8" />
  <path
     d="m 194.73207,92.814509 c -1.69179,2.0422 -2.63727,2.91793 -5.26172,3.51172 -0.8005,0.058 -1.60101,0.11601 -2.42578,0.17578 -0.80824,0.0657 -1.61648,0.13148 -2.44922,0.19922 -0.61488,0.0374 -1.22976,0.0748 -1.86328,0.11328 0,-0.66 0,-1.32 0,-2 4.12058,-1.99785 7.45195,-2.17835 12,-2 z"
     fill="#412322"
     id="path9" />
  <path
     d="m 609.73207,265.81451 c -2.96687,1.64826 -5.65626,2.44271 -9,3 -0.33,-0.99 -0.66,-1.98 -1,-3 3.28301,-1.6415 6.42545,-0.51889 10,0 z"
     fill="#5c2f2d"
     id="path10" />
  <path
     d="m 38.732066,190.81451 c 0.33,0.66 0.66,1.32 1,2 -2.31,2.64 -4.62,5.28 -7,8 -0.33,-0.66 -0.66,-1.32 -1,-2 0.66,-0.99 1.32,-1.98 2,-3 0.66,0 1.32,0 2,0 0.30938,-0.63937 0.61875,-1.27875 0.9375,-1.9375 1.0625,-2.0625 1.0625,-2.0625 2.0625,-3.0625 z"
     fill="#732c2a"
     id="path11" />
  <path
     d="m 397.73207,166.81451 c -2.91765,1.9451 -4.62537,2.45276 -8,3 -0.33,-0.99 -0.66,-1.98 -1,-3 3.32535,-1.10845 5.62183,-0.84454 9,0 z"
     fill="#482c2a"
     id="path12" />
  <path
     d="m 254.73207,86.814509 c 0.66,0 1.32,0 2,0 -1.39332,3.3672 -2.97893,4.98595 -6,7 -0.66,-0.33 -1.32,-0.66 -2,-1 0.99,-0.33 1.98,-0.66 3,-1 1.15009,-1.96673 1.15009,-1.96673 2,-4 0.33,-0.33 0.66,-0.66 1,-1 z"
     fill="#572826"
     id="path13" />
  <path
     d="m 202.73207,44.814509 c 0.66,0 1.32,0 2,0 0,0.66 0,1.32 0,2 -0.66,0 -1.32,0 -2,0 0,-0.66 0,-1.32 0,-2 z"
     fill="#000000"
     id="path14" />
  <path
     d="m 198.73207,44.814509 c 0.99,0 1.98,0 3,0 -0.33,0.66 -0.66,1.32 -1,2 -0.66,-0.66 -1.32,-1.32 -2,-2 z"
     fill="#000000"
     id="path15" />
  <path
     d="m 616.73207,78.814509 c 3,1 3,1 3,1 z"
     fill="#000000"
     id="path16" />
  <path
     d=""
     fill="#000000"
     id="path17" />
  <path
     d=""
     fill="#000000"
     id="path18" />
  <path
     d="m 630.73207,79.814509 c 2,1 2,1 2,1 z"
     fill="#000000"
     id="path19" />
  <path
     d="m 381.73207,68.814509 c 2,1 2,1 2,1 z"
     fill="#000000"
     id="path20" />
  <path
     d=""
     fill="#000000"
     id="path21" />
  <path
     d=""
     fill="#000000"
     id="path22" />
  <path
     d=""
     fill="#000000"
     id="path23" />
  <path
     d=""
     fill="#000000"
     id="path24" />
  <path
     d=""
     fill="#000000"
     id="path25" />
  <path
     d=""
     fill="#000000"
     id="path26" />
  <path
     d=""
     fill="#000000"
     id="path27" />
  <path
     d=""
     fill="#000000"
     id="path28" />
  <path
     d=""
     fill="#000000"
     id="path29" />
  <path
     d=""
     fill="#000000"
     id="path30" />
  <path
     d=""
     fill="#000000"
     id="path31" />
  <path
     d=""
     fill="#000000"
     id="path32" />
  <path
     d=""
     fill="#000000"
     id="path33" />
  <path
     d=""
     fill="#000000"
     id="path34" />
  <path
     d=""
     fill="#000000"
     id="path35" />
  <path
     d=""
     fill="#000000"
     id="path36" />
  <path
     d=""
     fill="#ffffff"
     id="path37" />
  <path
     d=""
     fill="#ffffff"
     id="path38" />
  <path
     d=""
     fill="#ffffff"
     id="path39" />
  <path
     d=""
     fill="#ffffff"
     id="path40" />
  <path
     d=""
     fill="#000000"
     id="path41" />
  <path
     d=""
     fill="#ffffff"
     id="path42" />
  <path
     d=""
     fill="#ffffff"
     id="path43" />
  <path
     d=""
     fill="#000000"
     id="path44" />
  <path
     d=""
     fill="#ffffff"
     id="path45" />
  <path
     d=""
     fill="#000000"
     id="path46" />
  <path
     d=""
     fill="#000000"
     id="path47" />
  <path
     d=""
     fill="#ffffff"
     id="path48" />
  <path
     d=""
     fill="#ffffff"
     id="path49" />
  <path
     d=""
     fill="#000000"
     id="path50" />
  <path
     d=""
     fill="#000000"
     id="path51" />
  <path
     d=""
     fill="#000000"
     id="path52" />
  <path
     d=""
     fill="#000000"
     id="path53" />
  <path
     d=""
     fill="#000000"
     id="path54" />
  <path
     d=""
     fill="#7f7f7f"
     id="path55" />
  <path
     d=""
     fill="#000000"
     id="path56" />
  <path
     d=""
     fill="#000000"
     id="path57" />
  <path
     d=""
     fill="#000000"
     id="path58" />
  <path
     d=""
     fill="#000000"
     id="path59" />
  <path
     d=""
     fill="#000000"
     id="path60" />
  <path
     d=""
     fill="#000000"
     id="path61" />
  <path
     d=""
     fill="#7f0000"
     id="path62" />
  <path
     d=""
     fill="#ff0000"
     id="path63" />
  <path
     d=""
     fill="#000000"
     id="path64" />
  <path
     d=""
     fill="#000000"
     id="path65" />
</svg>
