<?xml version="1.0" encoding="UTF-8" standalone="no"?>
<svg
   version="1.1"
   width="800"
   height="500"
   id="svg49"
   sodipodi:docname="SignUpButton.svg"
   inkscape:version="1.4.2 (f4327f4, 2025-05-13)"
   xmlns:inkscape="http://www.inkscape.org/namespaces/inkscape"
   xmlns:sodipodi="http://sodipodi.sourceforge.net/DTD/sodipodi-0.dtd"
   xmlns="http://www.w3.org/2000/svg"
   xmlns:svg="http://www.w3.org/2000/svg">
  <defs
     id="defs49" />
  <sodipodi:namedview
     id="namedview49"
     pagecolor="#ffffff"
     bordercolor="#000000"
     borderopacity="0.25"
     inkscape:showpageshadow="2"
     inkscape:pageopacity="0.0"
     inkscape:pagecheckerboard="0"
     inkscape:deskcolor="#d1d1d1"
     showguides="false"
     inkscape:zoom="0.32148446"
     inkscape:cx="1664.1551"
     inkscape:cy="1556.8404"
     inkscape:window-width="2560"
     inkscape:window-height="1494"
     inkscape:window-x="-11"
     inkscape:window-y="-11"
     inkscape:window-maximized="1"
     inkscape:current-layer="svg49" />
  <path
     d="m 563.01116,46.189271 c 2.61782,0.581026 5.23851,1.12661 7.86816,1.650879 9.32452,1.894462 18.4259,4.459131 27.55469,7.136719 1.7899,0.523762 1.7899,0.523762 3.61597,1.058105 1.11544,0.334028 2.23088,0.668057 3.38012,1.012207 1.00088,0.299224 2.00176,0.598447 3.03296,0.906738 2.53345,0.89795 2.53345,0.89795 5.53345,2.89795 1.50661,0.503124 3.03013,0.956857 4.5625,1.375 8.86446,2.574793 17.11465,6.335572 25.45703,10.257812 2.63413,1.208317 5.27947,2.318742 7.98047,3.367188 0,0.66 0,1.32 0,2 0.54527,0.146953 1.09055,0.293906 1.65234,0.445312 5.41854,1.611667 9.62762,3.838533 14.23828,7.089844 2.26375,1.624015 2.26375,1.624015 5.48438,3.339844 12.79813,7.165773 25.40896,17.643031 35.625,28.125001 0,0.66 0,1.32 0,2 0.54269,0.1998 1.08539,0.39961 1.64453,0.60547 3.33791,1.97617 5.57947,4.76976 8.04297,7.70703 0.78467,0.92691 0.78467,0.92691 1.5852,1.87256 13.7028,16.42331 13.7028,16.42331 14.7273,22.81494 0.66,0 1.32,0 2,0 7.47756,13.35772 14.77847,26.58208 20,41 0.24186,0.66354 0.48372,1.32709 0.73291,2.01074 3.94616,10.96835 6.57279,21.3359 6.60303,33.02832 0.007,0.92453 0.0133,1.84906 0.0202,2.8016 0.01,1.94453 0.0148,3.8891 0.0145,5.83365 0.004,2.92297 0.0407,5.8444 0.0786,8.76709 0.0696,11.51017 -0.94094,21.56243 -4.44922,32.5586 -0.2728,0.88494 -0.5456,1.76988 -0.82666,2.68164 -0.67861,2.10563 -1.40795,4.18046 -2.17334,6.25586 -0.23461,0.66322 -0.46922,1.32644 -0.71094,2.00976 -3.10101,8.61114 -7.05803,16.73064 -11.35156,24.80274 -0.43377,0.82371 -0.86754,1.64742 -1.31445,2.49609 -4.84273,9.15475 -4.84273,9.15475 -6.62305,11.75391 -0.66,0 -1.32,0 -2,0 -0.22172,0.8366 -0.44344,1.6732 -0.67188,2.53515 -1.6147,4.21247 -3.85024,7.34216 -6.57812,10.90235 -0.52723,0.69375 -1.05445,1.38751 -1.59766,2.10229 -48.00865,62.04163 -127.35703,87.65715 -202.41112,97.4561 -9.89164,1.23365 -19.80981,2.15954 -29.74122,3.00411 -0.81938,0.0707 -1.63876,0.14139 -2.48297,0.21423 -22.14196,1.90447 -44.28839,3.47214 -66.51703,3.78577 -0.7484,0.011 -1.4968,0.0219 -2.26788,0.0332 -59.5994,0.82703 -120.05639,-1.76807 -178.93183,-11.42139 -3.89536,-0.62712 -7.79716,-1.19708 -11.70264,-1.75634 -32.09597,-4.69848 -63.69581,-12.92905 -93.09765,-26.85547 -0.68772,-0.32428 -1.37543,-0.64856 -2.08399,-0.98267 -15.21717,-7.26899 -29.72157,-15.46913 -42.916011,-26.01733 -1.059792,-0.83086 -2.11969,-1.66159 -3.179687,-2.49219 -5.745373,-4.57583 -5.745373,-4.57583 -7.820313,-6.50781 0,-0.66 0,-1.32 0,-2 -0.556875,-0.22688 -1.11375,-0.45375 -1.6875,-0.6875 -2.984547,-1.69394 -4.93904,-3.82865 -7.3125,-6.3125 -1.144831,-1.12602 -2.290725,-2.25096 -3.4375,-3.375 -9.041141,-9.06093 -9.041141,-9.06093 -10.5625,-13.625 -0.592968,-0.59168 -1.185937,-1.18336 -1.796875,-1.79297 -2.588055,-2.59265 -4.505126,-5.44141 -6.453125,-8.51953 -0.38696,-0.60739 -0.77392,-1.21478 -1.172607,-1.84058 -9.859682,-15.70841 -17.166085,-31.78341 -21.202393,-49.90942 -0.216562,-0.94166 -0.433125,-1.88332 -0.65625,-2.85352 -2.047689,-9.08188 -2.887223,-17.73618 -2.957031,-27.0293 -0.0081,-1.0463 -0.01614,-2.09261 -0.02446,-3.17062 -0.01378,-2.21378 -0.02453,-4.42758 -0.03242,-6.64139 -0.01143,-2.22012 -0.03173,-4.44021 -0.06152,-6.66015 -0.236751,-17.69419 0.824236,-34.78474 6.676682,-51.61795 0.791961,-2.28801 1.453139,-4.6011 2.101882,-6.93332 1.50865,-5.07063 3.537017,-9.76967 5.828125,-14.53125 0.394051,-0.82661 0.788101,-1.65323 1.194092,-2.50489 2.60777,-5.35148 5.484274,-10.25014 9.079346,-15.01074 1.326855,-1.78318 2.379574,-3.52334 3.414062,-5.48437 2.694964,-4.90743 6.258009,-9.40729 10.0625,-13.5 0.66,0 1.32,0 2,0 0.66,-1.65 1.32,-3.3 2,-5 0.66,0 1.32,0 2,0 0.66,-1.32 1.32,-2.64 2,-4 0.66,0 1.32,0 2,0 0.20625,-0.55688 0.4125,-1.11375 0.625,-1.6875 1.549634,-2.6062 3.454283,-4.16836 5.8125,-6.03906 1.74746,-1.38024 1.74746,-1.38024 3.875,-3.58594 2.344019,-2.34402 4.729288,-4.58995 7.1875,-6.8125 1.098282,-0.993869 1.098282,-0.993869 2.21875,-2.007814 2.319859,-1.898788 4.69828,-3.3536 7.281253,-4.867187 1.26376,-0.940114 2.51441,-1.89815 3.75,-2.875 3.40717,-2.583879 6.87592,-4.700148 10.64453,-6.710938 2.57543,-1.397762 5.09687,-2.874128 7.62109,-4.361816 17.16579,-10.052246 17.16579,-10.052246 24.98438,-10.052246 0,-0.66 0,-1.32 0,-2 2.35275,-0.899675 4.70714,-1.79469 7.0625,-2.6875 0.63744,-0.244278 1.27488,-0.488555 1.93164,-0.740235 12.22362,-4.62041 24.59705,-8.464142 37.25586,-11.697265 0.67619,-0.173752 1.35239,-0.347504 2.04907,-0.52652 9.05598,-2.315735 18.06493,-4.368264 27.34058,-5.586029 4.00182,-0.548461 7.98037,-1.192298 11.96191,-1.872315 17.28098,-2.939952 34.4833,-5.144496 51.95068,-6.720947 3.94859,-0.356765 7.89542,-0.729484 11.84229,-1.104736 23.39029,-2.191902 46.86518,-4.05033 70.35547,-4.689453 1.29615,-0.03722 2.5923,-0.07444 3.92773,-0.112793 62.89747,-1.689606 127.75187,0.300802 189.33692,14.075195 z"
     fill="#c8a085"
     id="path1" />
  <path
     d="m 563.01116,46.189271 c 2.61782,0.581026 5.23851,1.12661 7.86816,1.650879 9.32452,1.894462 18.4259,4.459131 27.55469,7.136719 1.7899,0.523762 1.7899,0.523762 3.61597,1.058105 1.11544,0.334028 2.23088,0.668057 3.38012,1.012207 1.00088,0.299224 2.00176,0.598447 3.03296,0.906738 2.53345,0.89795 2.53345,0.89795 5.53345,2.89795 1.50661,0.503124 3.03013,0.956857 4.5625,1.375 8.86446,2.574793 17.11465,6.335572 25.45703,10.257812 2.63413,1.208317 5.27947,2.318742 7.98047,3.367188 0,0.66 0,1.32 0,2 0.54527,0.146953 1.09055,0.293906 1.65234,0.445312 5.41854,1.611667 9.62762,3.838533 14.23828,7.089844 2.26375,1.624015 2.26375,1.624015 5.48438,3.339844 12.79813,7.165773 25.40896,17.643031 35.625,28.125001 0,0.66 0,1.32 0,2 0.54269,0.1998 1.08539,0.39961 1.64453,0.60547 3.33791,1.97617 5.57947,4.76976 8.04297,7.70703 0.78467,0.92691 0.78467,0.92691 1.5852,1.87256 13.7028,16.42331 13.7028,16.42331 14.7273,22.81494 0.66,0 1.32,0 2,0 7.47756,13.35772 14.77847,26.58208 20,41 0.24186,0.66354 0.48372,1.32709 0.73291,2.01074 3.94616,10.96835 6.57279,21.3359 6.60303,33.02832 0.007,0.92453 0.0133,1.84906 0.0202,2.8016 0.01,1.94453 0.0148,3.8891 0.0145,5.83365 0.004,2.92297 0.0407,5.8444 0.0786,8.76709 0.0696,11.51017 -0.94094,21.56243 -4.44922,32.5586 -0.2728,0.88494 -0.5456,1.76988 -0.82666,2.68164 -0.67861,2.10563 -1.40795,4.18046 -2.17334,6.25586 -0.23461,0.66322 -0.46922,1.32644 -0.71094,2.00976 -3.10101,8.61114 -7.05803,16.73064 -11.35156,24.80274 -0.43377,0.82371 -0.86754,1.64742 -1.31445,2.49609 -4.84273,9.15475 -4.84273,9.15475 -6.62305,11.75391 -0.66,0 -1.32,0 -2,0 -0.22172,0.8366 -0.44344,1.6732 -0.67188,2.53515 -1.6147,4.21247 -3.85024,7.34216 -6.57812,10.90235 -0.52723,0.69375 -1.05445,1.38751 -1.59766,2.10229 -48.00865,62.04163 -127.35703,87.65715 -202.41112,97.4561 -9.89164,1.23365 -19.80981,2.15954 -29.74122,3.00411 -0.81938,0.0707 -1.63876,0.14139 -2.48297,0.21423 -22.14196,1.90447 -44.28839,3.47214 -66.51703,3.78577 -0.7484,0.011 -1.4968,0.0219 -2.26788,0.0332 -59.5994,0.82703 -120.05639,-1.76807 -178.93183,-11.42139 -3.89536,-0.62712 -7.79716,-1.19708 -11.70264,-1.75634 -32.09597,-4.69848 -63.69581,-12.92905 -93.09765,-26.85547 -0.68772,-0.32428 -1.37543,-0.64856 -2.08399,-0.98267 -15.21717,-7.26899 -29.72157,-15.46913 -42.916011,-26.01733 -1.059792,-0.83086 -2.11969,-1.66159 -3.179687,-2.49219 -5.745373,-4.57583 -5.745373,-4.57583 -7.820313,-6.50781 0,-0.66 0,-1.32 0,-2 -0.556875,-0.22688 -1.11375,-0.45375 -1.6875,-0.6875 -2.984547,-1.69394 -4.93904,-3.82865 -7.3125,-6.3125 -1.144831,-1.12602 -2.290725,-2.25096 -3.4375,-3.375 -9.041141,-9.06093 -9.041141,-9.06093 -10.5625,-13.625 -0.592968,-0.59168 -1.185937,-1.18336 -1.796875,-1.79297 -2.588055,-2.59265 -4.505126,-5.44141 -6.453125,-8.51953 -0.38696,-0.60739 -0.77392,-1.21478 -1.172607,-1.84058 -9.859682,-15.70841 -17.166085,-31.78341 -21.202393,-49.90942 -0.216562,-0.94166 -0.433125,-1.88332 -0.65625,-2.85352 -2.047689,-9.08188 -2.887223,-17.73618 -2.957031,-27.0293 -0.0081,-1.0463 -0.01614,-2.09261 -0.02446,-3.17062 -0.01378,-2.21378 -0.02453,-4.42758 -0.03242,-6.64139 -0.01143,-2.22012 -0.03173,-4.44021 -0.06152,-6.66015 -0.236751,-17.69419 0.824236,-34.78474 6.676682,-51.61795 0.791961,-2.28801 1.453139,-4.6011 2.101882,-6.93332 1.50865,-5.07063 3.537017,-9.76967 5.828125,-14.53125 0.394051,-0.82661 0.788101,-1.65323 1.194092,-2.50489 2.60777,-5.35148 5.484274,-10.25014 9.079346,-15.01074 1.326855,-1.78318 2.379574,-3.52334 3.414062,-5.48437 2.694964,-4.90743 6.258009,-9.40729 10.0625,-13.5 0.66,0 1.32,0 2,0 0.66,-1.65 1.32,-3.3 2,-5 0.66,0 1.32,0 2,0 0.66,-1.32 1.32,-2.64 2,-4 0.66,0 1.32,0 2,0 0.20625,-0.55688 0.4125,-1.11375 0.625,-1.6875 1.549634,-2.6062 3.454283,-4.16836 5.8125,-6.03906 1.74746,-1.38024 1.74746,-1.38024 3.875,-3.58594 2.344019,-2.34402 4.729288,-4.58995 7.1875,-6.8125 1.098282,-0.993869 1.098282,-0.993869 2.21875,-2.007814 2.319859,-1.898788 4.69828,-3.3536 7.281253,-4.867187 1.26376,-0.940114 2.51441,-1.89815 3.75,-2.875 3.40717,-2.583879 6.87592,-4.700148 10.64453,-6.710938 2.57543,-1.397762 5.09687,-2.874128 7.62109,-4.361816 17.16579,-10.052246 17.16579,-10.052246 24.98438,-10.052246 0,-0.66 0,-1.32 0,-2 2.35275,-0.899675 4.70714,-1.79469 7.0625,-2.6875 0.63744,-0.244278 1.27488,-0.488555 1.93164,-0.740235 12.22362,-4.62041 24.59705,-8.464142 37.25586,-11.697265 0.67619,-0.173752 1.35239,-0.347504 2.04907,-0.52652 9.05598,-2.315735 18.06493,-4.368264 27.34058,-5.586029 4.00182,-0.548461 7.98037,-1.192298 11.96191,-1.872315 17.28098,-2.939952 34.4833,-5.144496 51.95068,-6.720947 3.94859,-0.356765 7.89542,-0.729484 11.84229,-1.104736 23.39029,-2.191902 46.86518,-4.05033 70.35547,-4.689453 1.29615,-0.03722 2.5923,-0.07444 3.92773,-0.112793 62.89747,-1.689606 127.75187,0.300802 189.33692,14.075195 z m -221.07715,6.975098 c -1.83158,0.08801 -1.83158,0.08801 -3.70017,0.177795 -14.64454,0.723497 -29.13585,1.919749 -43.67654,3.815124 -5.50907,0.713192 -11.02653,1.223384 -16.56079,1.694581 -7.07579,0.63769 -14.00538,1.579801 -20.98609,2.898925 -4.34944,0.821853 -8.67726,1.458527 -13.07641,1.976075 -10.76658,1.371758 -21.34619,3.788593 -31.9375,6.125 -1.17949,0.257812 -2.35899,0.515625 -3.57422,0.78125 -11.96268,2.802971 -23.59291,7.114081 -35.11328,11.34375 -0.63454,0.229211 -1.26908,0.458422 -1.92285,0.69458 -4.44177,1.66242 -8.31697,3.787596 -12.38965,6.18042 -2.32672,1.015295 -4.66035,2.014881 -7,3 -11.2319,5.262692 -23.14186,11.661731 -32.15235,20.261721 -2.34114,2.20256 -4.83624,4.17007 -7.34765,6.17578 -8.60616,7.02955 -15.627466,14.84361 -22.500001,23.5625 -0.546562,0.69093 -1.093125,1.38187 -1.65625,2.09375 -6.153156,7.98601 -11.257434,16.47346 -15.78125,25.46875 -0.531496,1.05477 -0.531496,1.05477 -1.07373,2.13086 -1.853127,3.48677 -1.853127,3.48677 -2.48877,7.30664 -1.206562,0.21656 -1.206562,0.21656 -2.4375,0.4375 -2.483537,0.30385 -2.483537,0.30385 -3.5625,1.5625 0.19336,1.25039 0.386719,2.50078 0.585938,3.78906 0.7536,6.12815 -0.606905,11.62243 -1.960938,17.58594 -1.589812,7.18036 -2.919328,14.08734 -3.248291,21.44897 -0.376709,2.17603 -0.376709,2.17603 -2.939209,4.36353 -1.206562,0.40218 -1.206562,0.40218 -2.4375,0.8125 0.33,1.32 0.66,2.64 1,4 1.65,0.33 3.3,0.66 5,1 -0.02618,0.68699 -0.05237,1.37398 -0.07935,2.08178 -0.720206,21.99817 0.09512,47.58993 12.079345,66.91822 0.61875,1.51593 0.61875,1.51593 1.25,3.0625 6.941027,16.41887 19.211218,31.68406 31.914066,44.04297 1.83593,1.89453 1.83593,1.89453 3.21094,4.45703 1.46462,2.63763 1.46462,2.63763 4.3164,3.76562 3.74384,1.89181 6.65409,4.20382 9.8711,6.85938 11.23723,9.01626 23.50886,15.59903 36.4375,21.8125 0.73396,0.35658 1.46792,0.71317 2.22412,1.08056 2.23439,1.08456 4.47294,2.15995 6.71338,3.23194 1.00982,0.48823 1.00982,0.48823 2.04004,0.98632 4.8957,2.31434 9.86285,4.07104 15.02246,5.70118 1.49101,0.48788 2.9819,0.97616 4.47265,1.46484 14.05802,4.53519 28.07175,8.22205 42.61329,10.82422 2.857,0.51894 5.69161,1.07603 8.53369,1.66577 5.10605,1.02297 10.21902,1.79609 15.38037,2.47876 0.94222,0.12612 1.88445,0.25224 2.85522,0.38219 93.4277,12.35433 200.69509,21.17993 292.68726,-5.15758 2.37267,-0.63548 4.72603,-1.11271 7.14502,-1.5332 6.57292,-1.25843 12.89335,-3.38166 19.2456,-5.45166 2.00067,-0.65177 4.00424,-1.29382 6.00829,-1.93506 7.86281,-2.54049 15.48554,-5.43672 23.0586,-8.73828 1.32786,-0.56572 2.656,-1.13079 3.98437,-1.69532 7.23129,-3.09225 14.24083,-6.29043 21.01563,-10.30468 0.9307,-0.52207 1.8614,-1.04414 2.82031,-1.58203 13.80217,-7.81888 26.02882,-17.64301 37.74219,-28.29297 0.51296,-0.46447 1.02593,-0.92893 1.55444,-1.40747 2.32435,-2.14035 4.11857,-4.0708 5.88306,-6.71753 0.825,-0.26813 1.65,-0.53625 2.5,-0.8125 0.825,-0.39188 1.65,-0.78375 2.5,-1.1875 0.3068,-0.92039 0.61359,-1.84078 0.9297,-2.78907 1.12411,-3.37237 2.37792,-5.11905 4.6953,-7.77343 4.10024,-4.92178 7.35173,-10.06364 10.61328,-15.55469 1.76172,-2.88281 1.76172,-2.88281 3.40625,-5.07031 1.58447,-2.11871 2.4945,-4.3555 3.48437,-6.79688 0.95079,-2.20001 2.05751,-4.27515 3.1836,-6.39062 3.66502,-7.24145 6.12532,-14.94235 8.6875,-22.625 0.5008,-1.4676 0.5008,-1.4676 1.01172,-2.96485 3.36403,-10.38747 3.17036,-21.01912 3.17578,-31.84765 0.0122,-1.27682 0.0245,-2.55364 0.0371,-3.86914 0.0171,-11.23344 -1.14068,-21.86113 -4.59961,-32.56836 -0.32762,-1.01429 -0.32762,-1.01429 -0.66187,-2.04908 -1.67222,-5.0727 -3.65415,-9.89291 -5.96313,-14.70092 -0.58565,-1.35317 -1.16887,-2.70739 -1.75,-4.0625 -1.99298,-4.46049 -4.10509,-8.86103 -6.25,-13.25 -0.49838,-1.04136 -0.49838,-1.04136 -1.00684,-2.10376 -1.91315,-3.87099 -3.79089,-6.61892 -6.99316,-9.58374 -1.09641,-1.49657 -2.15782,-3.01926 -3.1875,-4.5625 -10.38588,-14.9994 -23.11671,-28.57962 -37.8125,-39.4375 -0.81082,-0.62778 -1.62163,-1.25555 -2.45703,-1.90235 -15.50768,-11.741193 -33.36212,-21.244628 -51.54297,-28.097651 -1.56293,-0.644806 -3.12541,-1.290677 -4.6875,-1.9375 C 580.48789,73.60564 563.81961,68.562128 547.10928,65.280579 544.712,64.794142 542.32595,64.264575 539.9379,63.734681 475.33233,49.691195 407.65759,49.935973 341.93401,53.164369 Z"
     fill="#966a61"
     id="path2" />
  <path
     d="m 531.00408,62.191956 c 2.76045,0.608754 5.5182,1.1261 8.30493,1.597413 14.5266,2.604623 28.62889,6.625534 42.6875,11.0625 0.82838,0.261035 1.65677,0.52207 2.51025,0.791015 2.41674,0.767642 4.82903,1.547646 7.23975,2.333985 0.71406,0.229292 1.42812,0.458583 2.16382,0.694824 4.27668,1.421021 8.23084,3.159144 12.23266,5.229492 2.53024,1.297781 5.12779,2.426854 7.72852,3.575684 5.66129,2.595586 11.11835,5.476703 16.5625,8.5 0.75716,0.41975 1.51432,0.839501 2.29443,1.271972 24.66381,13.844329 48.36634,34.078319 63.26807,58.353029 1.62645,3.28296 1.62645,3.28296 4,4.25 1.34168,2.46123 2.5961,4.91529 3.8125,7.4375 0.72117,1.47404 1.44253,2.948 2.16406,4.42187 0.52255,1.07411 0.52255,1.07411 1.05567,2.16992 1.18136,2.40564 2.4191,4.78036 3.65527,7.15821 9.19161,18.47576 12.48975,36.15285 12.5,56.5625 0.0122,1.26843 0.0245,2.53687 0.0371,3.84375 0.0336,21.96102 -6.17658,41.02226 -16.22461,60.40625 -0.43828,0.90621 -0.87656,1.81242 -1.32813,2.74609 -1.93347,3.76304 -4.06362,7.3504 -6.29687,10.94141 -0.43442,0.70044 -0.86883,1.40089 -1.31641,2.12256 -3.36265,5.31811 -7.04671,10.06595 -11.24609,14.76025 -2.02017,2.70807 -2.7832,5.2375 -3.8125,8.42969 -1.66667,0.66666 -3.33333,1.33333 -5,2 -1.81947,1.86828 -3.45249,3.85494 -5.125,5.85547 -2.98694,3.41631 -6.38021,6.26275 -9.875,9.14453 -0.78504,0.64968 -1.57008,1.29937 -2.37891,1.96875 -14.09299,11.46848 -29.32062,20.14644 -45.62109,28.03125 -0.66,0.32033 -1.32,0.64066 -2,0.9707 -10.07364,4.86692 -20.19627,8.9978 -30.95313,12.11523 -2.48181,0.74455 -4.94339,1.5243 -7.40625,2.32813 -9.47454,3.08252 -18.83049,5.75486 -28.64062,7.58594 -1.28391,0.24363 -2.56781,0.48726 -3.89063,0.73828 -2.54423,0.48086 -5.0896,0.95233 -7.63672,1.41797 -2.59103,0.47607 -5.16888,0.98932 -7.7478,1.52856 -9.26698,1.92522 -18.51631,3.37398 -27.91235,4.50269 -0.71163,0.0872 -1.42327,0.17442 -2.15647,0.26428 -11.58061,1.40312 -22.99089,2.05848 -34.65603,1.54822 0,-0.33 0,-0.66 0,-1 4.33857,-0.53354 8.67737,-1.06514 13.01642,-1.59473 1.5314,-0.18693 3.06277,-0.37411 4.59411,-0.56152 8.49791,-1.03866 16.99139,-2.03253 25.51447,-2.84375 23.03276,-2.29142 45.76183,-7.49213 67.9375,-14 1.09345,-0.32001 2.18689,-0.64002 3.31348,-0.96973 7.69481,-2.31148 15.16281,-5.05503 22.62402,-8.03027 1.02279,-0.40517 2.04558,-0.81034 3.09936,-1.22779 25.3818,-10.14769 49.91761,-24.54856 69.22876,-44.05346 1.32113,-1.33128 1.32113,-1.33128 2.66895,-2.68946 0.66097,-0.66966 1.32193,-1.33933 2.00293,-2.02929 -0.78261,0.007 -1.56522,0.0133 -2.37154,0.0202 -7.37183,0.0601 -14.74355,0.10578 -22.11557,0.13525 -3.79013,0.0157 -7.58005,0.0369 -11.37007,0.0709 -3.65693,0.0326 -7.31366,0.0505 -10.97072,0.0583 -1.39589,0.006 -2.79176,0.0164 -4.18757,0.0326 -1.95348,0.0217 -3.90715,0.023 -5.86075,0.0234 -1.11253,0.007 -2.22506,0.0133 -3.37129,0.0202 -3.10876,-0.40746 -3.8315,-0.98638 -5.75249,-3.36076 -0.70125,-0.35063 -1.4025,-0.70125 -2.125,-1.0625 -1.875,-0.9375 -1.875,-0.9375 -2.875,-2.9375 -1.15226,-7.80975 1.41993,-12.6343 5.77734,-19.03125 4.33004,-5.78353 8.15513,-9.12686 15.22266,-10.96875 2.79913,-0.22033 5.56958,-0.19095 8.375,-0.125 0.73605,0.009 1.47211,0.018 2.23047,0.0273 1.79832,0.0234 3.59647,0.0592 5.39453,0.0977 0.2823,-0.93586 0.56461,-1.87172 0.85547,-2.83594 1.37866,-3.81132 3.12567,-5.49623 6.14453,-8.16406 0.7425,-0.68063 1.485,-1.36125 2.25,-2.0625 14.67128,-10.33659 36.70677,-13.54515 54.23047,-11.53907 2.76953,0.53907 2.76953,0.53907 6.51953,1.60157 12.55063,-21.06713 11.49527,-51.61725 5.68896,-74.54346 -3.25793,-11.61633 -8.43778,-22.4308 -13.98974,-33.10107 -1.39737,-2.75941 -2.57695,-5.47974 -3.69922,-8.35547 -6.98862,0.11894 -13.97713,0.24372 -20.96558,0.37231 -2.37107,0.043 -4.74216,0.0847 -7.11328,0.125 -12.67552,0.21647 -25.27821,0.54478 -37.92114,1.50269 -3.56324,0.21415 -7.11901,0.35517 -10.6875,0.4375 -0.85272,0.0458 -1.70543,0.0915 -2.58399,0.13867 -2.3878,0.0431 -4.41281,0.01 -6.72851,-0.57617 -5.16717,-5.69591 -5.43615,-11.5613 -5.32813,-18.96094 0.50762,-4.7015 1.97986,-7.71297 5.32813,-11.03906 8.20172,-6 8.20172,-6 12,-6 0.12375,-1.485 0.12375,-1.485 0.25,-3 0.91475,-6.36459 4.22696,-12.47696 8.75,-17 2.59098,-1.51971 5.24632,-2.80362 8,-4 -12.05478,-13.093089 -34.11976,-20.022918 -50.46484,-26.054779 -2.04119,-0.761125 -4.04589,-1.619751 -6.03515,-2.507812 -15.1488,-6.221827 -32.01217,-10.090916 -48.08789,-13 -1.80701,-0.32775 -3.61281,-0.662193 -5.41797,-1 -17.18126,-3.202098 -34.25666,-5.551164 -51.65698,-7.12793 -1.84598,-0.171241 -3.69154,-0.348214 -5.53452,-0.549179 -6.58145,-0.706887 -13.14219,-1.053789 -19.75577,-1.295548 -1.68684,-0.06474 -1.68684,-0.06474 -3.40776,-0.130783 -32.87498,-1.241374 -65.44593,-1.557214 -98.32661,-0.45906 -1.2101,0.03912 -2.4202,0.07823 -3.66696,0.11853 -12.95089,0.428172 -25.79917,1.017619 -38.66825,2.571899 -3.99209,0.471088 -7.96055,0.657813 -11.97729,0.809571 -9.93285,0.459341 -19.69684,2.127997 -29.51172,3.648437 -5.25751,0.809316 -10.5118,1.478345 -15.80078,2.039063 -6.15684,0.669688 -12.13062,1.776285 -18.16797,3.15625 -3.11552,0.691569 -6.23468,1.294367 -9.37573,1.856933 -18.18727,3.259587 -37.71844,7.407446 -54.38599,15.584473 -2.81725,1.36872 -5.66951,2.60116 -8.55102,3.826416 -12.0289,5.133476 -23.31845,11.254539 -34.20679,18.513429 -0.90106,0.6007 -1.80211,1.2014 -2.73047,1.82031 -4.54668,3.10276 -8.40112,6.24651 -12.26953,10.17969 -1.88928,1.71558 -3.78546,3.42357 -5.6875,5.125 -13.18,12.02332 -23.895818,25.67197 -32.093751,41.54297 -0.885612,1.69458 -1.839469,3.35403 -2.832031,4.98828 -1.286057,2.17361 -1.930522,3.88028 -2.386719,6.34375 2.764335,1.17274 5.301636,2.0638 8.25,2.6875 4.363693,1.52729 7.199129,3.73905 10.734375,6.65625 4.419327,3.63138 7.101036,3.74668 12.578126,3.46875 8.3737,-0.18811 14.26798,1.3169 20.5625,7.16015 5.22203,5.63263 6.02678,9.29587 6.125,16.96485 0.0258,1.20527 0.0516,2.41054 0.0781,3.65234 -0.36071,3.7488 -1.12713,5.40114 -3.32812,8.41016 -0.52844,0.85481 -1.05687,1.70962 -1.60132,2.59033 -3.24854,3.26342 -6.13441,3.23199 -10.51196,3.33545 -0.79887,0.0374 -1.59774,0.0748 -2.42081,0.11336 -2.59245,0.11484 -5.18463,0.19484 -7.77841,0.27336 -1.77228,0.0705 -3.5445,0.14261 -5.316651,0.21631 -12.788319,0.5042 -25.573786,0.71702 -38.37085,0.47119 1.440525,30.54245 1.440525,30.54245 9,60 0.607149,1.61261 0.607149,1.61261 1.226563,3.25781 2.647467,6.67845 5.931287,12.68503 9.773437,18.74219 0.470508,0.79019 0.941016,1.58039 1.425782,2.39453 1.811915,2.99888 3.709018,5.92969 5.636718,8.85547 0.692227,1.05703 1.384454,2.11406 2.097657,3.20312 1.589708,2.61479 1.589708,2.61479 3.839843,3.54688 0.495,1.485 0.495,1.485 1,3 3.689872,4.01544 7.828191,7.50145 12.000001,11 -0.10313,-0.68063 -0.20625,-1.36125 -0.3125,-2.0625 0.54538,-5.12657 3.49693,-8.43097 7.33203,-11.61328 8.03677,-5.67219 15.19776,-7.79007 24.98047,-7.32422 0.10055,-0.61746 0.20109,-1.23493 0.30469,-1.8711 1.79853,-8.09338 5.80966,-12.62393 12.69531,-17.1289 9.37701,-4.45408 18.21645,-5.07608 28.10156,-2.05078 10.28986,3.92056 19.19375,9.93645 23.86328,20.16406 1.21393,3.06 2.03516,5.57618 2.03516,8.88672 1.91812,0.34031 1.91812,0.34031 3.875,0.6875 7.93662,1.7776 14.74595,5.11844 20.125,11.3125 0.7541,0.67289 0.7541,0.67289 1.52344,1.35937 4.11459,4.57177 5.03493,12.30423 4.84375,18.27344 -0.59366,3.82722 -1.9528,7.30562 -3.39454,10.88672 -1.30256,3.32181 -1.97265,5.90378 -1.97265,9.48047 -4.31568,1.20871 -7.41822,0.70306 -11.75,-0.3125 -1.14985,-0.26426 -2.29969,-0.52852 -3.48438,-0.80078 -1.86398,-0.43893 -1.86398,-0.43893 -3.76562,-0.88672 -15.06523,-3.48244 -30.35111,-5.35424 -45.6875,-7.1875 -0.7462,-0.0905 -1.49239,-0.18108 -2.2612,-0.27436 -2.16625,-0.26152 -4.3332,-0.51614 -6.50052,-0.76861 -1.89238,-0.22273 -1.89238,-0.22273 -3.823,-0.44995 -3.945,-0.33821 -7.77099,-0.37352 -11.72778,-0.31958 1.21236,0.59748 1.21236,0.59748 2.44922,1.20703 1.06863,0.5298 2.13726,1.05961 3.23828,1.60547 1.05574,0.52207 2.11148,1.04414 3.19922,1.58203 3.11328,1.60547 3.11328,1.60547 5.57031,3.11719 12.27815,7.18582 28.41466,13.18365 42.39844,16 2.10808,0.47998 4.0512,1.12587 6.08203,1.86328 10.63612,3.66955 22.02813,5.61825 33.13672,7.19531 2.74516,0.40316 5.45284,0.89898 8.17578,1.42969 5.42877,1.01295 10.87875,1.63749 16.36377,2.25 4.19511,0.47362 8.34722,1.04498 12.51123,1.75 6.73045,1.07188 13.48035,1.61741 20.26831,2.17529 12.88919,1.07019 25.74584,2.46057 38.60669,3.82471 0,0.33 0,0.66 0,1 -14.94566,0.40072 -29.26449,-0.64515 -44.07227,-2.62842 -4.2589,-0.54053 -8.52755,-0.92386 -12.80273,-1.30908 -8.05583,-0.76205 -16.05578,-1.83339 -24.0625,-3 -1.10134,-0.15783 -2.20269,-0.31566 -3.3374,-0.47827 -6.69943,-1.00225 -13.2568,-2.31805 -19.84009,-3.91504 -2.66292,-0.61768 -5.31177,-1.11132 -8.01001,-1.54419 -29.65462,-5.20257 -59.19976,-16.45436 -84.875,-32.125 -0.95004,-0.56203 -1.90008,-1.12407 -2.87891,-1.70313 -6.29184,-3.8306 -11.7791,-8.21469 -17.29687,-13.0625 -2.81958,-2.2307 -5.61679,-3.64429 -8.82422,-5.23437 -0.9546,-1.38252 -1.90073,-2.77376 -2.75781,-4.21875 -1.57531,-2.25894 -3.43838,-4.00451 -5.429691,-5.90625 -12.006384,-11.75051 -24.64913,-28.76191 -30.105468,-44.84375 -0.776372,-2.23046 -1.708617,-4.36311 -2.644532,-6.53125 -6.102554,-15.19794 -8.417158,-31.4796 -8.1875,-47.75 0.009,-1.23364 0.01805,-2.46727 0.02734,-3.73828 0.02329,-3.00412 0.05599,-6.00781 0.09766,-9.01172 -1.65,-0.33 -3.3,-0.66 -5,-1 -0.33,-1.32 -0.66,-2.64 -1,-4 0.803086,-0.34161 1.606172,-0.68321 2.433594,-1.03516 2.892028,-1.78523 2.892028,-1.78523 3.351563,-5.27344 0.112803,-1.37478 0.20379,-2.75146 0.277343,-4.1289 0.629061,-7.70579 1.946754,-15.0814 3.705323,-22.60913 1.174928,-5.35792 1.204906,-9.54451 0.232177,-14.95337 3,-2 3,-2 6,-2 0.237832,-0.81791 0.237832,-0.81791 0.480469,-1.65235 1.838584,-5.94238 4.290513,-11.04399 7.519531,-16.34765 0.639375,-1.06348 1.27875,-2.12696 1.9375,-3.22266 4.935603,-8.0353 10.486183,-15.24862 16.745606,-22.29297 1.233564,-1.39044 2.449728,-2.79627 3.664551,-4.20312 15.115074,-17.27438 33.940064,-30.59251 54.652344,-40.281251 1.18078,-0.573633 2.36156,-1.147266 3.57812,-1.738282 16.81659,-8.118042 34.1486,-14.20899 52.23438,-18.824218 0.76941,-0.198033 1.53882,-0.396065 2.33154,-0.600098 14.1381,-3.519267 28.59266,-5.684593 42.98096,-7.899902 0.85362,-0.132009 1.70724,-0.264017 2.58673,-0.400025 11.37222,-1.749735 22.70397,-3.293612 34.18671,-4.1156 3.49696,-0.254129 6.95789,-0.652798 10.43458,-1.104828 12.98663,-1.659042 26.03519,-2.28669 39.10448,-2.942047 1.29316,-0.06504 2.58632,-0.130075 3.91867,-0.197083 61.09101,-3.005665 125.64216,-4.368496 185.6514,9.16217 z"
     fill="#f1d1b7"
     id="path3" />
  <path
     d="m 504.99651,141.85187 c 2,2 2,2 2.26562,4.13672 -0.0328,5.35703 -0.64116,9.71916 -2.26562,14.86328 -0.30926,1.68436 -0.59906,3.37235 -0.875,5.0625 -0.75168,4.36689 -1.84144,8.50947 -3.125,12.75 -1.79237,6.04343 -2.84017,11.97541 -3.60547,18.22656 -0.39453,2.96094 -0.39453,2.96094 -0.90649,4.82031 -1.00581,4.41165 -0.71563,9.01099 -0.73804,13.51563 -0.0206,1.02867 -0.0412,2.05734 -0.0625,3.11718 -0.0292,5.67219 0.24561,9.55238 3.3125,14.50782 0,0.66 0,1.32 0,2 8.64723,-3.50008 12.30765,-9.82059 15.84375,-18.10547 2.84543,-7.12319 5.30206,-14.27751 7.44531,-21.64063 0.78645,-2.4933 1.81648,-4.83679 2.89844,-7.21484 1.10534,-2.77399 1.90721,-5.61241 2.75,-8.47656 1.34442,-4.4729 2.83584,-8.53441 5.04687,-12.64063 1.87325,-3.54475 3.4165,-7.24728 5.01563,-10.92187 0.66,0 1.32,0 2,0 0.20625,-0.68063 0.4125,-1.36125 0.625,-2.0625 2.5165,-5.37617 6.72221,-10.55381 12.05469,-13.35157 7.51226,-1.89703 16.189,-0.24507 23.32031,2.41407 0.76966,4.53246 0.8236,6.79979 -1.82813,10.66406 -1.59937,1.88006 -3.21591,3.74562 -4.84765,5.59766 -6.20407,7.30933 -9.57074,16.29138 -12.4961,25.3164 -1.43857,4.20716 -3.13738,8.31088 -4.82812,12.42188 0.96937,-0.47438 1.93875,-0.94875 2.9375,-1.4375 4.30966,-1.83833 8.41342,-2.30949 13.0625,-2.5625 1.0132,-0.0619 1.0132,-0.0619 2.04687,-0.125 13.0231,-0.39168 26.53571,1.2907 36.4375,10.41406 5.10835,5.56122 6.66279,8.95469 6.70313,16.58594 0.0142,1.21429 0.0284,2.42859 0.043,3.67968 -0.22,3.28876 -0.81332,5.49898 -2.23047,8.44532 -0.66,0 -1.32,0 -2,0 -0.18563,0.68062 -0.37125,1.36125 -0.5625,2.0625 -3.62976,7.41733 -11.00735,12.03515 -17.50781,16.79297 -2.45394,1.79628 -4.84955,3.64358 -7.24219,5.51953 -4.52814,3.39845 -9.17435,5.31862 -14.6875,6.625 0.025,1.52488 0.025,1.52488 0.0505,3.08056 0.13281,12.08817 -0.46999,24.07961 -1.27735,36.13819 -0.21362,3.20009 -0.41684,6.40072 -0.61889,9.60156 -0.13287,2.04691 -0.26631,4.09379 -0.4004,6.14062 -0.0605,0.95096 -0.12092,1.90192 -0.18321,2.88169 -0.09,1.32386 -0.09,1.32386 -0.18178,2.67447 -0.0511,0.77177 -0.10214,1.54355 -0.15477,2.33871 -0.23188,2.12344 -0.66533,4.08771 -1.23414,6.1442 -2.73292,0.76797 -5.16778,1.12805 -8.00391,1.13281 -0.74056,10e-4 -1.48113,0.003 -2.24414,0.004 -0.76377,-0.004 -1.52754,-0.008 -2.31445,-0.0117 -1.15146,0.006 -1.15146,0.006 -2.32617,0.0117 -3.2906,-0.006 -5.96892,-0.0892 -9.11133,-1.13672 -2.79503,-8.11973 -1.85973,-16.21269 -1.25,-24.625 0.1553,-2.33822 0.30607,-4.6767 0.45665,-7.01522 0.1052,-1.62948 0.21188,-3.25886 0.31998,-4.88815 0.37789,-5.7474 0.68724,-11.4954 0.95384,-17.24898 0.0376,-0.80759 0.0752,-1.61518 0.11401,-2.44725 0.0564,-1.21201 0.0564,-1.21201 0.11401,-2.4485 0.90817,-19.49739 2.39992,-38.90113 4.29151,-58.3269 -0.25032,0.80534 -0.50064,1.61068 -0.75855,2.44043 -0.34136,1.06637 -0.68272,2.13275 -1.03442,3.23144 -0.33282,1.05284 -0.66564,2.10569 -1.00855,3.19043 -1.91098,5.00305 -4.87131,8.98399 -8.19848,13.1377 -0.58137,0.73347 -1.16274,1.46695 -1.76172,2.22265 -7.21344,8.67233 -15.98707,13.95188 -27.23828,15.77735 -9.44646,0.79872 -20.91296,0.068 -29.0625,-5.1875 -6.95855,-5.92441 -9.6423,-13.98705 -10.9375,-22.8125 -1.28074,-16.96547 1.326,-34.27373 6.02734,-50.5586 0.98437,-3.48283 1.78629,-6.96342 2.53516,-10.5039 0.36351,-1.70157 0.36351,-1.70157 0.73437,-3.4375 0.48813,-2.42977 0.93307,-4.86845 1.34375,-7.3125 1.88852,-10.54057 1.88852,-10.54057 4.85938,-13.5625 7.20558,-3.34545 16.10258,-2.25881 23.5,0.375 z"
     fill="#704b47"
     id="path4" />
  <path
     d="m 409.37151,179.91437 c 3.29973,3.39997 3.26714,7.54938 3.3125,12.0625 -0.14806,6.49836 -1.30492,12.14248 -3.67188,18.22656 -1.22334,3.1901 -1.9064,6.3586 -2.57812,9.69922 -0.4375,1.94922 -0.4375,1.94922 -1.5625,5.01172 -1.16613,3.91485 -1.20991,6.85158 -0.875,10.9375 0.51562,0.495 1.03125,0.99 1.5625,1.5 1.4375,1.5 1.4375,1.5 1.41406,3.44922 -0.26167,2.0262 -0.61399,4.04018 -0.97656,6.05078 -1.65,0 -3.3,0 -5,0 0,0.66 0,1.32 0,2 -7.53261,0.27784 -14.351,0.37978 -20.875,-3.875 -3.09184,-3.09184 -4.08231,-4.941 -4.24219,-9.375 0.48628,-7.5295 1.49159,-13.97613 4.14063,-21.11328 0.83478,-2.25392 1.48906,-4.42657 2.03906,-6.76172 1.13318,-4.68382 2.52206,-9.27011 3.9375,-13.875 -3.12198,1.30895 -3.12198,1.30895 -5,4 -0.66,0 -1.32,0 -2,0 -0.99,3.3 -1.98,6.6 -3,10 -0.66,0 -1.32,0 -2,0 -0.40219,1.51593 -0.40219,1.51593 -0.8125,3.0625 -0.71674,2.53382 -1.53208,4.70156 -2.625,7.125 -1.44721,3.2144 -2.25406,6.44654 -3.0625,9.875 -2.59996,10.70806 -2.59996,10.70806 -6.625,13.3125 -3.93516,0.85547 -7.86934,1.16013 -11.875,0.625 -0.66,-0.66 -1.32,-1.32 -2,-2 -0.7425,0.20625 -1.485,0.4125 -2.25,0.625 -3.95207,0.53892 -5.60484,-1.37473 -8.75,-3.625 -0.0396,0.67764 -0.0793,1.35528 -0.12012,2.05346 -0.88122,14.43662 -2.31794,28.45401 -5.37915,42.59693 -0.53428,2.50703 -1.02423,5.02072 -1.51245,7.53711 -2.11251,10.58929 -4.94543,23.10108 -12.98828,30.8125 -1.17575,2.09989 -1.17575,2.09989 -2,4 -0.66,0 -1.32,0 -2,0 0,0.66 0,1.32 0,2 -14.84377,12.85186 -31.89379,14.06192 -50.94531,12.72265 -8.68357,-0.79758 -16.20214,-2.82139 -24.05469,-6.72265 -0.76828,-0.38157 -1.53656,-0.76313 -2.32813,-1.15625 -0.82757,-0.41766 -0.82757,-0.41766 -1.67187,-0.84375 0,-0.66 0,-1.32 0,-2 -0.86625,-0.34032 -0.86625,-0.34032 -1.75,-0.6875 -2.8474,-1.66099 -4.37067,-3.62775 -6.25,-6.3125 0,-0.66 0,-1.32 0,-2 -0.66,0 -1.32,0 -2,0 -3.3055,-10.32967 -3.3055,-10.32967 -0.625,-15.8125 1.625,-2.1875 1.625,-2.1875 3.625,-3.1875 5.93716,-0.84589 11.60878,-1.4225 16.90234,1.72656 3.96583,3.55641 7.33894,7.5374 10.78516,11.58594 3.78294,4.39734 7.00673,7.09866 12.8125,8.13281 8.47541,0.55379 14.8643,-2.60887 21.3125,-7.94531 15.25322,-15.88877 16.53433,-44.49955 17.99316,-65.20752 0.40812,-4.81436 1.25488,-9.5552 2.19434,-14.29248 -1.14598,-0.0374 -2.29195,-0.0748 -3.47266,-0.11328 -1.52998,-0.0657 -3.05992,-0.13216 -4.58984,-0.19922 -1.12825,-0.0338 -1.12825,-0.0338 -2.2793,-0.0684 -5.20656,-0.24793 -8.98288,-1.30321 -13.6582,-3.61914 0,-0.66 0,-1.32 0,-2 -0.9075,-0.14438 -1.815,-0.28875 -2.75,-0.4375 -4.12587,-1.98359 -4.96554,-3.75635 -6.54688,-7.9375 -1.80293,-6.73094 -1.76761,-12.45934 1.67188,-18.625 10.40418,-15.42092 10.40418,-15.42092 18.625,-18 0,-0.66 0,-1.32 0,-2 5.78738,-2.97212 10.4203,-3.4425 16.875,-3.3125 1.37406,0.0158 1.37406,0.0158 2.77588,0.032 11.07906,0.21213 22.20103,0.49492 32.34912,5.28052 0,0.66 0,1.32 0,2 0.66,0 1.32,0 2,0 0.40219,-0.89719 0.40219,-0.89719 0.8125,-1.8125 1.24273,-2.28925 2.15087,-3.57125 4.1875,-5.1875 2.55273,-0.52417 2.55273,-0.52417 5.59375,-0.73047 1.11375,-0.0806 2.2275,-0.16114 3.375,-0.24414 1.16531,-0.0703 2.33062,-0.14051 3.53125,-0.21289 1.70156,-0.12279 1.70156,-0.12279 3.4375,-0.24805 30.4109,-2.07506 30.4109,-2.07506 39.4375,3.49805 z"
     fill="#6f4a47"
     id="path5" />
  <path
     d="m 456.66057,289.85968 c 5.36671,4.5435 9.89798,9.28139 12.33594,15.99219 0,1.32 0,2.64 0,4 1.54687,0.18562 1.54687,0.18562 3.125,0.375 12.3652,1.99438 21.63973,8.52819 29.22265,18.375 5.38869,8.52354 7.00873,18.92022 4.92579,28.64062 -2.05507,7.85269 -4.45817,14.7941 -10.27344,20.60938 -2.625,0.125 -2.625,0.125 -5,0 0,-0.99 0,-1.98 0,-3 -3.88626,-0.71868 -7.57239,-1.12834 -11.52275,-1.14476 -1.07251,-0.007 -2.14502,-0.0138 -3.25003,-0.0209 -1.16126,-0.003 -2.32252,-0.005 -3.51897,-0.008 -1.23476,-0.007 -2.46952,-0.0134 -3.7417,-0.0203 -2.67639,-0.014 -5.35272,-0.0264 -8.02912,-0.036 -4.23137,-0.0155 -8.46266,-0.0394 -12.69398,-0.0649 -12.02877,-0.0711 -24.05759,-0.13109 -36.08647,-0.18211 -6.65057,-0.0283 -13.30106,-0.0636 -19.95155,-0.10665 -4.20738,-0.0268 -8.41468,-0.0447 -12.62213,-0.056 -3.22663,-0.0112 -6.45317,-0.0354 -9.67974,-0.0575 -1.75099,-8.9e-4 -1.75099,-8.9e-4 -3.53737,-0.002 -1.06405,-0.01 -2.1281,-0.0194 -3.22439,-0.0294 -1.38898,-0.006 -1.38898,-0.006 -2.80601,-0.0128 -2.33579,-0.25892 -2.33579,-0.25892 -5.33579,-2.25892 -1.05772,-1.63065 -2.05273,-3.30281 -3,-5 -0.5182,-0.74121 -1.03641,-1.48243 -1.57031,-2.2461 -3.24637,-6.25323 -2.22449,-15.0521 -0.30469,-21.6914 2.26408,-5.71866 5.81622,-9.87475 11.125,-12.9375 3.34078,-2.58151 3.40571,-4.34993 4.09375,-8.37891 3.26312,-13.65463 13.32223,-25.70937 24.70312,-33.57422 19.27392,-11.56435 48.58459,-10.75461 66.61719,2.83594 z"
     fill="#fdfdfd"
     id="path6" />
  <path
     d="m 399.10198,66.742494 c 1.50646,-0.02891 3.01297,-0.05493 4.51953,-0.07813 0.70504,-0.01346 1.41007,-0.02691 2.13647,-0.04077 12.69969,-0.01335 23.00806,5.795928 32.23853,14.228272 3.26103,3.720922 5.87125,7.53458 8,12 1.0016,-0.03481 2.0032,-0.06961 3.03515,-0.105469 15.11259,-0.377767 15.11259,-0.377767 20.63672,4.617187 6.40778,6.789186 6.76399,14.458526 6.65625,23.472656 -0.37916,6.58711 -1.58528,15.27279 -6.32812,20.01563 -1.90724,-0.0175 -1.90724,-0.0175 -4.27954,-0.36451 -6.42397,-0.77993 -12.78268,-0.79711 -19.24781,-0.80346 -1.28945,-0.004 -2.57891,-0.008 -3.90744,-0.0123 -3.45461,-0.009 -6.90918,-0.0102 -10.3638,-0.008 -2.15156,9.8e-4 -4.30312,-1e-5 -6.45468,-0.001 -15.87599,-0.003 -31.71513,0.0718 -47.55923,1.1897 -12.00834,0.81454 -23.99414,1.39516 -36.02963,1.57422 -1.87208,0.0334 -3.74397,0.0809 -5.6153,0.14355 -14.50768,0.46836 -14.50768,0.46836 -19.46274,-2.41992 -4.01725,-3.88688 -6.37447,-7.655 -7.07983,-13.29785 0.0531,-6.69418 1.885,-12.60672 6.375,-17.6875 4.06518,-3.58124 7.44209,-6.53551 12.625,-8.3125 0,-0.66 0,-1.320004 0,-2.000004 3.24752,-1.484647 6.49842,-2.961751 9.75,-4.4375 0.92039,-0.420879 1.84078,-0.841758 2.78906,-1.275391 0.88945,-0.402832 1.77891,-0.805664 2.69531,-1.220703 0.81695,-0.371814 1.63389,-0.743628 2.47559,-1.126709 2.29004,-0.939697 2.29004,-0.939697 4.46777,-1.425781 2.91073,-0.820885 4.02102,-3.164162 5.82227,-5.513916 12.27243,-11.060819 25.72738,-16.650833 42.10547,-17.109375 z"
     fill="#fdfdfd"
     id="path7" />
  <path
     d="m 235.99651,139.85187 c -0.23691,4.02743 -0.52771,6.40135 -3.0586,9.60937 -3.44597,2.80071 -6.5604,3.64568 -10.8164,4.45313 -4.36935,0.86313 -8.09145,1.75701 -11.94531,4.05859 -3.17969,1.87891 -3.17969,1.87891 -6.17969,1.87891 0,0.66 0,1.32 0,2 -0.74766,0.39832 -1.49531,0.79664 -2.26563,1.20703 -0.98484,0.5298 -1.96968,1.05961 -2.98437,1.60547 -0.97453,0.52207 -1.94906,1.04414 -2.95313,1.58203 -2.7748,1.51302 -2.7748,1.51302 -5.03125,3.30469 -1.76562,1.30078 -1.76562,1.30078 -3.76562,1.30078 0,0.66 0,1.32 0,2 -1.50391,1.29687 -1.50391,1.29687 -3.5625,2.75 -7.59314,4.92452 -7.59314,4.92452 -12.375,12.125 -0.0206,0.70125 -0.0413,1.4025 -0.0625,2.125 5.38968,3.4265 10.29487,5.05971 16.5,6.4375 30.31764,7.21051 30.31764,7.21051 37,16.75 2.44651,4.5872 3.15618,8.66768 2.5,13.8125 -3.00009,7.12521 -8.31761,12.48758 -15.5,15.4375 -0.825,0.18562 -1.65,0.37125 -2.5,0.5625 0,0.66 0,1.32 0,2 -1.17563,0.43312 -2.35125,0.86625 -3.5625,1.3125 -3.86842,1.44895 -7.64841,3.04317 -11.4375,4.6875 -1.66667,0.66666 -3.33333,1.33333 -5,2 -1.02867,0.46019 -2.05735,0.92039 -3.11719,1.39453 -4.08096,1.75096 -8.24949,3.04782 -12.50781,4.29297 -1.10602,0.33741 -1.10602,0.33741 -2.23438,0.68164 -3.81378,1.12431 -7.11883,1.92494 -11.14062,1.63086 0,0.66 0,1.32 0,2 -0.81082,0.14695 -1.62164,0.2939 -2.45703,0.44531 -5.96958,1.2092 -11.02282,2.56993 -16.29297,5.67969 -6.8795,4.02971 -13.4505,4.8631 -21.25,2.875 -2.4375,-1.75 -2.4375,-1.75 -4,-4 -0.34861,-2.95349 -0.26812,-4.52928 1.21484,-7.13282 3.74387,-4.32964 6.65305,-6.69872 12.19922,-8.15625 3.13645,-0.86228 6.06973,-2.05711 9.08594,-3.27343 4.47208,-1.74406 8.75502,-3.06405 13.45703,-3.98047 2.78982,-0.62411 5.36544,-1.62673 8.01953,-2.67578 2.11305,-0.81585 4.24305,-1.52298 6.39844,-2.21875 4.19509,-1.37663 8.26639,-2.99229 12.35156,-4.66407 2.27344,-0.89843 2.27344,-0.89843 5.33594,-1.83593 3.58343,-1.29614 6.70617,-3.11005 9.98437,-5.03907 1.95313,-1.02343 1.95313,-1.02343 3.95313,-1.02343 0.33,-2.97 0.66,-5.94 1,-9 -1.32,-0.43313 -2.64,-0.86625 -4,-1.3125 -3.03674,-1.00592 -6.02527,-2.07451 -9,-3.25 -2.77465,-1.0638 -5.46198,-1.7924 -8.375,-2.375 -4.28017,-0.88251 -8.11996,-2.36667 -12.14063,-4.0586 -2.38739,-0.96471 -4.77404,-1.74847 -7.23437,-2.5039 -6.649,-2.18902 -11.26777,-5.69732 -15.25,-11.5 -1.16406,-3.42751 -1.46587,-5.63549 -0.28516,-9.09375 5.24452,-10.60102 15.40921,-18.76808 25.28516,-24.90625 0.66,0 1.32,0 2,0 0,-0.66 0,-1.32 0,-2 2.21696,-1.68393 4.42334,-3.2306 6.75,-4.75 1.01695,-0.67108 1.01695,-0.67108 2.05444,-1.35572 5.84198,-3.79122 11.8878,-6.94699 18.19556,-9.89428 1.00031,-0.51176 2.00062,-1.02352 3.03125,-1.55078 11.12971,-5.43306 24.86497,-6.67817 35.96875,-0.44922 z"
     fill="#714b48"
     id="path8" />
  <path
     d="m 184.99651,316.85187 c 6.26149,5.02697 12.29535,11.16063 13.29785,19.46826 0.0586,2.62645 0.004,5.21978 -0.11035,7.84424 -0.0523,1.76681 -0.10066,3.53374 -0.14453,5.30078 -0.0307,0.77126 -0.0614,1.54252 -0.093,2.33716 -0.0451,2.25229 -0.0451,2.25229 1.05005,5.04956 2.98683,-1.04163 3.85506,-1.70208 5.26562,-4.60157 0.32485,-0.99773 0.64969,-1.99546 0.98438,-3.02343 0.33515,-1.00289 0.67031,-2.00578 1.01562,-3.03907 0.36352,-1.15629 0.36352,-1.15629 0.73438,-2.33593 7.24416,1.25766 13.35127,4.15588 18,10 2.95858,5.35307 3.51082,10.02881 2,16 -0.49882,1.59085 -1.01746,3.17561 -1.55469,4.7539 -0.40581,1.19798 -0.40581,1.19798 -0.81982,2.42017 -0.20641,0.60255 -0.41283,1.20511 -0.62549,1.82593 -1.62615,-0.34612 -1.62615,-0.34612 -3.28516,-0.69922 -21.55657,-4.49915 -43.23302,-8.06708 -65.15234,-10.17578 -0.67809,-0.0675 -1.35618,-0.13505 -2.05481,-0.20462 -7.04642,-0.69031 -13.51972,-1.11365 -20.50769,0.0796 -4.95104,0 -6.21093,-1.32002 -10.0625,-4.3125 -1.56428,-1.20077 -1.56428,-1.20077 -3.16016,-2.42578 -0.91652,-0.74637 -1.83304,-1.49274 -2.77734,-2.26172 -0.61746,-0.49243 -1.23492,-0.98485 -1.8711,-1.49219 -2.09244,-2.79475 -1.2119,-5.72008 -0.75781,-9.00391 1.15459,-4.59685 3.62581,-7.28955 7.63281,-9.71875 5.57898,-2.88709 10.20664,-3.94609 16.4961,-3.91015 0.67676,-0.004 1.35351,-0.008 2.05078,-0.0117 3.08996,0.006 5.49601,0.15231 8.44922,1.13672 1.1875,2.0625 1.1875,2.0625 2,4 1.65,-0.33 3.3,-0.66 5,-1 0.33381,-3.37437 0.33381,-3.37437 0,-7 -2.50846,-2.69428 -5.57272,-3.76237 -9,-5 1.80068,-6.12233 5.76106,-9.62922 11.0625,-12.875 8.67326,-3.20451 19.16358,-1.94173 26.9375,2.875 z"
     fill="#fdfdfd"
     id="path9" />
  <path
     d="m 456.66057,289.85968 c 5.36671,4.5435 9.89798,9.28139 12.33594,15.99219 0,1.32 0,2.64 0,4 1.54687,0.18562 1.54687,0.18562 3.125,0.375 12.3652,1.99438 21.63973,8.52819 29.22265,18.375 5.38869,8.52354 7.00873,18.92022 4.92579,28.64062 -2.05507,7.85269 -4.45817,14.7941 -10.27344,20.60938 -2.625,0.125 -2.625,0.125 -5,0 0,-0.99 0,-1.98 0,-3 -3.88626,-0.71868 -7.57239,-1.12834 -11.52275,-1.14476 -1.07251,-0.007 -2.14502,-0.0138 -3.25003,-0.0209 -1.16126,-0.003 -2.32252,-0.005 -3.51897,-0.008 -1.23476,-0.007 -2.46952,-0.0134 -3.7417,-0.0203 -2.67639,-0.014 -5.35272,-0.0264 -8.02912,-0.036 -4.23137,-0.0155 -8.46266,-0.0394 -12.69398,-0.0649 -12.02877,-0.0711 -24.05759,-0.13109 -36.08647,-0.18211 -6.65057,-0.0283 -13.30106,-0.0636 -19.95155,-0.10665 -4.20738,-0.0268 -8.41468,-0.0447 -12.62213,-0.056 -3.22663,-0.0112 -6.45317,-0.0354 -9.67974,-0.0575 -1.75099,-8.9e-4 -1.75099,-8.9e-4 -3.53737,-0.002 -1.06405,-0.01 -2.1281,-0.0194 -3.22439,-0.0294 -1.38898,-0.006 -1.38898,-0.006 -2.80601,-0.0128 -2.33579,-0.25892 -2.33579,-0.25892 -5.33579,-2.25892 -1.05772,-1.63065 -2.05273,-3.30281 -3,-5 -0.5182,-0.74121 -1.03641,-1.48243 -1.57031,-2.2461 -3.24637,-6.25323 -2.22449,-15.0521 -0.30469,-21.6914 2.26408,-5.71866 5.81622,-9.87475 11.125,-12.9375 3.34078,-2.58151 3.40571,-4.34993 4.09375,-8.37891 3.26312,-13.65463 13.32223,-25.70937 24.70312,-33.57422 19.27392,-11.56435 48.58459,-10.75461 66.61719,2.83594 z m -72.53906,12.86719 c -3.29259,4.05848 -5.78648,8.46548 -8.125,13.125 -0.37512,0.66515 -0.75024,1.33031 -1.13672,2.01562 -1.12923,2.23503 -1.12923,2.23503 -0.86328,5.98438 0.70125,-0.0348 1.4025,-0.0696 2.125,-0.10547 6.4083,-0.18285 11.07498,0.31286 16.875,3.10547 1.47832,2.95664 1.06033,5.74229 1,9 -1.8125,0.6875 -1.8125,0.6875 -4,1 -1.95817,-1.52302 -2.89113,-2.78226 -4,-5 -8.94172,-0.4438 -15.58267,0.14815 -22.8125,5.6875 -4.98413,4.63137 -6.29566,9.85273 -6.75,16.5 0.1392,3.93394 0.43883,4.661 3.0625,7.875 6.32633,4.20794 15.54669,3.09265 22.83789,3.11108 1.10998,0.007 2.21996,0.0134 3.36357,0.0203 2.39912,0.014 4.79825,0.0259 7.19739,0.036 3.80024,0.0165 7.60039,0.0397 11.40059,0.0649 10.80102,0.0706 21.60207,0.13097 32.4032,0.18211 6.61637,0.0314 13.23263,0.0731 19.84892,0.1202 2.51651,0.016 5.03304,0.0283 7.54959,0.0369 3.52044,0.0122 7.04061,0.0363 10.56096,0.0631 1.551,8.8e-4 1.551,8.8e-4 3.13334,0.002 5.74113,0.0577 10.69639,0.65938 16.20455,2.3012 3.87128,-9.92602 6.77111,-18.09939 3.08203,-28.61719 -3.53227,-7.93254 -10.15515,-15.85609 -18.30859,-19.33203 -10.85982,-3.34285 -19.28859,-2.48497 -29.77344,1.94922 -4.01513,2.20803 -6.8006,4.72061 -10,8 -4.54054,4 -4.54054,4 -8,4 -0.29783,-4.92701 0.81299,-7.10085 3.84375,-10.875 7.23757,-7.13269 16.28,-11.22496 26.15625,-13.125 -1.92712,-5.17279 -3.77551,-8.27843 -8,-12 -0.76313,-0.68063 -1.52625,-1.36125 -2.3125,-2.0625 -19.50554,-14.06214 -50.32337,-10.59378 -66.5625,6.9375 z"
     fill="#f1d1b7"
     id="path10" />
  <path
     d="m 399.10198,66.742494 c 1.50646,-0.02891 3.01297,-0.05493 4.51953,-0.07813 0.70504,-0.01346 1.41007,-0.02691 2.13647,-0.04077 12.69969,-0.01335 23.00806,5.795928 32.23853,14.228272 3.26103,3.720922 5.87125,7.53458 8,12 1.0016,-0.03481 2.0032,-0.06961 3.03515,-0.105469 15.11259,-0.377767 15.11259,-0.377767 20.63672,4.617187 6.40778,6.789186 6.76399,14.458526 6.65625,23.472656 -0.37916,6.58711 -1.58528,15.27279 -6.32812,20.01563 -1.90724,-0.0175 -1.90724,-0.0175 -4.27954,-0.36451 -6.42397,-0.77993 -12.78268,-0.79711 -19.24781,-0.80346 -1.28945,-0.004 -2.57891,-0.008 -3.90744,-0.0123 -3.45461,-0.009 -6.90918,-0.0102 -10.3638,-0.008 -2.15156,9.8e-4 -4.30312,-1e-5 -6.45468,-0.001 -15.87599,-0.003 -31.71513,0.0718 -47.55923,1.1897 -12.00834,0.81454 -23.99414,1.39516 -36.02963,1.57422 -1.87208,0.0334 -3.74397,0.0809 -5.6153,0.14355 -14.50768,0.46836 -14.50768,0.46836 -19.46274,-2.41992 -4.01725,-3.88688 -6.37447,-7.655 -7.07983,-13.29785 0.0531,-6.69418 1.885,-12.60672 6.375,-17.6875 4.06518,-3.58124 7.44209,-6.53551 12.625,-8.3125 0,-0.66 0,-1.320004 0,-2.000004 3.24752,-1.484647 6.49842,-2.961751 9.75,-4.4375 0.92039,-0.420879 1.84078,-0.841758 2.78906,-1.275391 0.88945,-0.402832 1.77891,-0.805664 2.69531,-1.220703 0.81695,-0.371814 1.63389,-0.743628 2.47559,-1.126709 2.29004,-0.939697 2.29004,-0.939697 4.46777,-1.425781 2.91073,-0.820885 4.02102,-3.164162 5.82227,-5.513916 12.27243,-11.060819 25.72738,-16.650833 42.10547,-17.109375 z m -35.10547,22.109375 c 0.6876,2.975356 0.6876,2.975356 2.5,4.1875 2.35093,2.840708 2.47081,6.192715 2.5,9.812501 -0.495,1.485 -0.495,1.485 -1,3 -1.8125,-0.125 -1.8125,-0.125 -4,-1 -0.43313,-0.99 -0.86625,-1.98 -1.3125,-3 -1.4131,-3.313554 -1.4131,-3.313554 -4.875,-4.000001 -13.47464,0 -25.00426,8.244891 -34.83985,16.753901 -3.7051,3.75742 -4.64349,6.79436 -4.67187,12.03516 1.12379,3.55344 2.71174,5.00097 5.69922,7.21094 3.1559,0.70354 6.21903,0.55588 9.4375,0.4375 1.55642,-0.0261 1.55642,-0.0261 3.14429,-0.0527 6.91932,-0.15176 13.82723,-0.49599 20.73852,-0.84961 3.58062,-0.18059 7.16137,-0.35842 10.74219,-0.53515 0.92846,-0.0467 1.85691,-0.0934 2.81351,-0.14157 20.49763,-1.00354 40.98256,-1.02693 61.49899,-0.98343 1.21684,0.003 1.21684,0.003 2.45827,0.005 10.05567,0.0228 20.11119,0.0631 30.16673,0.11982 0.49509,-1.43626 0.98598,-2.87396 1.4751,-4.31226 0.27381,-0.80046 0.54763,-1.60092 0.82974,-2.42564 2.22288,-7.23341 1.11872,-14.65109 -2.30484,-21.2621 -3.02649,-2.76708 -4.82978,-2.98379 -8.9375,-3.375 -7.10768,0.33213 -11.33356,4.29485 -16.23047,9.04687 -0.60457,0.43828 -1.20914,0.87657 -1.83203,1.32813 -1.485,-0.495 -1.485,-0.495 -3,-1 0.75,-6.75 0.75,-6.75 3,-9 0.41558,-3.484128 0.31245,-5.435323 -1.39844,-8.527345 -7.1602,-8.730914 -15.13933,-15.686756 -26.60156,-17.472656 -17.77842,-1.296779 -32.2011,2.555027 -46,14 z"
     fill="#f2d1b7"
     id="path11" />
  <path
     d="m 191.57463,311.49249 c 7.54869,5.54904 11.61032,11.48076 14.42188,20.35938 0,0.99 0,1.98 0,3 1.27875,0.22687 2.5575,0.45375 3.875,0.6875 7.93662,1.7776 14.74595,5.11844 20.125,11.3125 0.50273,0.44859 1.00547,0.89718 1.52344,1.35937 4.11459,4.57177 5.03493,12.30423 4.84375,18.27344 -0.59366,3.82722 -1.9528,7.30562 -3.39454,10.88672 -1.30256,3.32181 -1.97265,5.90378 -1.97265,9.48047 -4.31568,1.20871 -7.41822,0.70306 -11.75,-0.3125 -1.14985,-0.26426 -2.29969,-0.52852 -3.48438,-0.80078 -1.24265,-0.29262 -2.48531,-0.58524 -3.76562,-0.88672 -15.06523,-3.48244 -30.35111,-5.35424 -45.6875,-7.1875 -0.7462,-0.0905 -1.49239,-0.18108 -2.2612,-0.27436 -2.16625,-0.26152 -4.3332,-0.51614 -6.50052,-0.76861 -1.26159,-0.14849 -2.52318,-0.29697 -3.823,-0.44995 -3.945,-0.33821 -7.77099,-0.37352 -11.72778,-0.31958 0.80824,0.39832 1.61648,0.79664 2.44922,1.20703 1.06863,0.5298 2.13726,1.05961 3.23828,1.60547 1.05574,0.52207 2.11148,1.04414 3.19922,1.58203 3.11328,1.60547 3.11328,1.60547 5.57031,3.11719 12.27815,7.18582 28.41466,13.18365 42.39844,16 2.10808,0.47998 4.0512,1.12587 6.08203,1.86328 10.63612,3.66955 22.02813,5.61825 33.13672,7.19531 2.74516,0.40316 5.45284,0.89898 8.17578,1.42969 5.42877,1.01295 10.87875,1.63749 16.36377,2.25 4.19511,0.47362 8.34722,1.04498 12.51123,1.75 6.73045,1.07188 13.48035,1.61741 20.26831,2.17529 12.88919,1.07019 25.74584,2.46057 38.60669,3.82471 0,0.33 0,0.66 0,1 -14.94566,0.40072 -29.26449,-0.64515 -44.07227,-2.62842 -4.2589,-0.54053 -8.52755,-0.92386 -12.80273,-1.30908 -8.05583,-0.76205 -16.05578,-1.83339 -24.0625,-3 -1.10134,-0.15783 -2.20269,-0.31566 -3.3374,-0.47827 -6.69943,-1.00225 -13.2568,-2.31805 -19.84009,-3.91504 -2.66292,-0.61768 -5.31177,-1.11132 -8.01001,-1.54419 -29.65462,-5.20257 -59.19976,-16.45436 -84.875,-32.125 -0.95004,-0.56203 -1.90008,-1.12407 -2.87891,-1.70313 -6.29184,-3.8306 -11.7791,-8.21469 -17.29687,-13.0625 -2.82003,-2.23105 -5.61331,-3.64936 -8.82422,-5.23437 -3,-4.1 -3,-4.1 -3,-7 0.66,0 1.32,0 2,0 -0.15469,-1.26844 -0.15469,-1.26844 -0.3125,-2.5625 0.42475,-4.67225 2.08968,-7.102 5.3125,-10.4375 8.26013,-6.83818 16.38023,-9.50571 27,-9 0.15082,-0.92619 0.15082,-0.92619 0.30469,-1.8711 1.79853,-8.09338 5.80966,-12.62393 12.69531,-17.1289 13.69767,-6.5064 27.00948,-4.3576 39.57812,3.64062 z m -43.32812,11.55469 c -1.4398,1.71282 -1.4398,1.71282 -1.25,3.80469 0.5659,0.27714 1.1318,0.55429 1.71484,0.83984 0.73348,0.36223 1.46696,0.72445 2.22266,1.09766 0.7309,0.35964 1.4618,0.71929 2.21484,1.08984 1.84766,0.97266 1.84766,0.97266 2.84766,1.97266 0.0409,2.33297 0.0424,4.66705 0,7 -1.65,0.33 -3.3,0.66 -5,1 -0.26813,-0.63938 -0.53625,-1.27875 -0.8125,-1.9375 -1.07418,-2.39382 -1.07418,-2.39382 -4.1875,-3.0625 -8.66749,-0.63396 -16.47114,-0.81974 -24,4 -0.89332,0.56074 -0.89332,0.56074 -1.80469,1.13281 -4.14331,2.99349 -5.31552,5.94038 -6.19531,10.86719 -0.39066,2.47888 -0.39066,2.47888 0,5 2.59745,3.10987 5.83506,5.4822 9,8 0.64195,0.55945 1.2839,1.1189 1.94531,1.69531 1.90571,1.6471 1.90571,1.6471 5.05469,3.30469 2.00978,-0.63657 4.00899,-1.30695 6,-2 5.01372,-0.14267 10.01231,0.5095 15,1 0.99967,0.0944 1.99933,0.18884 3.0293,0.28613 23.58184,2.25487 46.79199,5.84504 69.9707,10.71387 3.17689,-8.05812 5.46221,-14.63614 2.23828,-22.96875 -2.21997,-4.4212 -4.99275,-6.65376 -9.23828,-9.03125 -1.54688,-0.86625 -1.54688,-0.86625 -3.125,-1.75 -2.96388,-1.51582 -2.96388,-1.51582 -6.875,-1.25 -0.36352,1.15629 -0.36352,1.15629 -0.73438,2.33593 -0.33515,1.00289 -0.67031,2.00579 -1.01562,3.03907 -0.32485,0.99773 -0.64969,1.99547 -0.98438,3.02343 -1.41056,2.89949 -2.27879,3.55994 -5.26562,4.60157 -0.85796,-5.255 -0.94299,-10.10876 -0.75,-15.4375 0.0369,-9.30598 -2.84337,-14.12572 -8.9375,-20.875 -6.20985,-5.80436 -12.50222,-7.87545 -20.9375,-8.1875 -9.4175,0.35371 -14.1412,3.61626 -20.125,10.69531 z"
     fill="#f1d1b7"
     id="path12" />
  <path
     d="m 697.37151,288.66437 c 1.19762,-0.0199 1.19762,-0.0199 2.41943,-0.0403 3.92118,-0.005 5.87028,0.004 9.20557,2.22779 -0.57953,4.90228 -2.75793,8.55628 -5.1875,12.75 -0.4042,0.70866 -0.8084,1.41732 -1.22486,2.14746 -2.62418,4.55882 -5.37249,8.99834 -8.39624,13.30566 -1.23864,1.86812 -2.22939,3.77442 -3.1914,5.79688 -0.66,0 -1.32,0 -2,0 -0.26813,0.76312 -0.53625,1.52625 -0.8125,2.3125 -1.76266,3.98916 -1.76266,3.98916 -4.1875,5.6875 -2.85029,0.33383 -5.49227,0.48884 -8.34766,0.51172 -1.25457,0.0271 -1.25457,0.0271 -2.53448,0.0547 -2.72674,0.0549 -5.45327,0.0885 -8.18036,0.12111 -1.8668,0.0321 -3.73358,0.0651 -5.60034,0.0991 -5.44554,0.0935 -10.89113,0.15715 -16.33716,0.21338 -0.75434,0.009 -1.50869,0.0172 -2.28589,0.0261 -4.34221,0.0494 -8.68416,0.0827 -13.02661,0.0989 -1.04616,0.005 -2.09231,0.01 -3.17017,0.0144 -1.4259,-0.003 -1.4259,-0.003 -2.88061,-0.007 -0.80736,-10e-4 -1.61471,-0.002 -2.44654,-0.003 -2.18118,-0.12886 -4.09451,-0.52687 -6.19018,-1.12939 -0.61184,-4.94952 1.2253,-7.26883 4.1875,-11.125 1.16596,-1.55075 1.16596,-1.55075 2.35547,-3.13282 3.43059,-3.82874 5.7316,-5.5233 10.875,-6.17578 9.52527,-0.01 16.61575,1.12275 24.58203,6.4336 2.62531,0.16713 2.62531,0.16713 5,0 0.50169,-2.83074 0.50169,-2.83074 0,-6 -3.08933,-2.52763 -6.38366,-4.33092 -10,-6 1.7752,-5.05249 3.57344,-7.16085 8.1875,-9.875 12.67579,-6.07969 25.3088,-8.14212 39.1875,-8.3125 z"
     fill="#fdfdfc"
     id="path13" />
  <path
     d="m 651.99651,112.85187 c 16.79034,12.19086 30.7326,26.55938 42,44 0,0.33 0,0.66 0,1 -52.18007,1.209 -52.18007,1.209 -76,1 -0.0863,-1.925 -0.148,-3.8511 -0.19922,-5.77735 -0.037,-1.07242 -0.074,-2.14484 -0.11206,-3.24975 0.3529,-3.37044 0.98184,-4.35509 3.49878,-6.5354 1.24652,-0.84934 2.51645,-1.66585 3.8125,-2.4375 0.825,-0.59813 1.65,-1.19625 2.5,-1.8125 3.19272,-1.51655 5.98118,-1.98833 9.5,-2.1875 0.66,0.66 1.32,1.32 2,2 2.57061,0.64767 2.57061,0.64767 5,1 -0.33,-2.97 -0.66,-5.94 -1,-9 -2.64,-0.99 -5.28,-1.98 -8,-3 0.73839,-1.4435 1.49126,-2.87959 2.25,-4.3125 0.41765,-0.80051 0.83531,-1.60102 1.26562,-2.42578 3.18209,-4.8485 7.03611,-5.82256 12.48438,-7.26172 0.33,-0.33 0.66,-0.66 1,-1 z"
     fill="#fdfdfd"
     id="path14" />
  <path
     d="m 247.94573,185.77765 c 4.84592,-0.0775 9.3112,-0.0195 14.05078,1.07422 1.2916,5.40124 0.65605,8.74441 -1.09766,13.95703 -1.8429,6.21482 -2.78647,12.66432 -3.90234,19.04297 1.23105,-0.0181 2.46211,-0.0361 3.73047,-0.0547 5.66815,0.002 10.45931,0.84788 15.26953,4.05469 0.67538,4.38994 0.40133,6.39192 -2.0625,10.125 -0.94878,0.98842 -1.92977,1.94675 -2.9375,2.875 -0.74444,0.69996 -0.74444,0.69996 -1.50391,1.41406 -6.61164,5.44863 -14.41791,5.91571 -22.67578,5.35596 -10.04769,-0.97763 -10.04769,-0.97763 -13.75781,-5.20752 -4.72947,-7.04099 -4.02399,-17.58651 -2.46094,-25.67578 0.50831,-1.77394 1.04409,-3.54027 1.60938,-5.29688 0.84401,-2.77021 1.33147,-5.48184 1.78906,-8.33984 0.81569,-4.55484 1.5138,-8.30638 4,-12.25 3.4631,-1.10525 6.33435,-0.98325 9.94922,-1.07422 z"
     fill="#704b47"
     id="path15" />
  <path
     d="m 652.07463,234.76202 c 3.54474,2.12513 4.57509,4.31885 5.92188,8.08985 0.86625,0.92812 1.7325,1.85625 2.625,2.8125 2.60578,3.49723 3.08208,5.02293 2.80078,9.23437 -1.0653,4.88672 -4.6796,8.81117 -8.42578,11.95313 -0.99,0 -1.98,0 -3,0 0,0.66 0,1.32 0,2 -10.56772,2.85614 -21.82323,2.2165 -32,-2 -4.67554,-3.94924 -8.46587,-9.06804 -10,-15 0.42763,-5.23028 1.77921,-10.24118 4,-15 0.66,0 1.32,0 2,0 0.20625,-0.59813 0.4125,-1.19625 0.625,-1.8125 6.31291,-10.04327 26.53942,-4.18128 35.45312,-0.27735 z"
     fill="#704b47"
     id="path16" />
  <path
     d="m 71.996509,187.85187 c 7.211638,0.85852 12.941529,3.75631 18,9 1.805758,2.9022 3.055372,6.03091 4.365235,9.17968 0.890937,2.07936 0.890937,2.07936 2.634765,4.82032 2.54767,1.11738 2.54767,1.11738 5.000001,1 0.495,-0.495 0.495,-0.495 1,-1 -0.09,-2.02409 -0.24641,-4.04545 -0.4375,-6.0625 -0.15275,-1.65709 -0.15275,-1.65709 -0.30859,-3.34766 -0.0838,-0.85465 -0.16758,-1.7093 -0.25391,-2.58984 6.3708,-0.45506 10.65905,0.39424 16,4 3.45609,3.67906 4.13973,7.05183 4.125,12 0.004,1.29937 0.004,1.29937 0.008,2.625 -0.13281,2.375 -0.13281,2.375 -1.13281,5.375 -19.32752,3.61951 -39.402776,3.2125 -59.000001,3 -0.386043,-11.32396 0.05158,-23.28287 4,-34 1.65,-0.33 3.3,-0.66 5,-1 0.33,-0.99 0.66,-1.98 1,-3 z"
     fill="#fdfdfd"
     id="path17" />
  <path
     d="m 531.00408,62.191956 c 2.76045,0.608754 5.5182,1.1261 8.30493,1.597413 14.5266,2.604623 28.62889,6.625534 42.6875,11.0625 0.82838,0.261035 1.65677,0.52207 2.51025,0.791015 2.41674,0.767642 4.82903,1.547646 7.23975,2.333985 0.71406,0.229292 1.42812,0.458583 2.16382,0.694824 4.27668,1.421021 8.23084,3.159144 12.23266,5.229492 2.53024,1.297781 5.12779,2.426854 7.72852,3.575684 10.38367,4.754118 20.37506,10.436047 30.125,16.375001 -0.33,0.99 -0.66,1.98 -1,3 -0.75281,-0.48469 -1.50563,-0.96938 -2.28125,-1.46875 -8.63728,-5.450714 -17.50522,-10.13282 -26.71875,-14.531251 -0.99129,-0.474375 -1.98258,-0.94875 -3.00391,-1.4375 -5.92352,-2.759139 -11.96037,-5.137952 -18.07422,-7.441407 -2.16604,-0.831089 -4.30338,-1.737838 -6.42187,-2.683593 -15.1488,-6.221827 -32.01217,-10.090916 -48.08789,-13 -1.80701,-0.32775 -3.61281,-0.662193 -5.41797,-1 -17.18126,-3.202098 -34.25666,-5.551164 -51.65698,-7.12793 -1.84598,-0.171241 -3.69154,-0.348214 -5.53452,-0.549179 -6.58145,-0.706887 -13.14219,-1.053789 -19.75577,-1.295548 -1.68684,-0.06474 -1.68684,-0.06474 -3.40776,-0.130783 -32.87498,-1.241374 -65.44593,-1.557214 -98.32661,-0.45906 -1.2101,0.03912 -2.4202,0.07823 -3.66696,0.11853 -12.95089,0.428172 -25.79917,1.017619 -38.66825,2.571899 -3.99209,0.471088 -7.96055,0.657813 -11.97729,0.809571 -9.93285,0.459341 -19.69684,2.127997 -29.51172,3.648437 -5.25751,0.809316 -10.5118,1.478345 -15.80078,2.039063 -6.15684,0.669688 -12.13062,1.776285 -18.16797,3.15625 -3.11552,0.691569 -6.23468,1.294367 -9.37573,1.856933 -18.18727,3.259587 -37.71844,7.407446 -54.38599,15.584473 -2.81725,1.36872 -5.66951,2.60116 -8.55102,3.826416 -12.0289,5.133476 -23.31845,11.254539 -34.20679,18.513429 -0.90106,0.6007 -1.80211,1.2014 -2.73047,1.82031 -4.54668,3.10276 -8.40112,6.24651 -12.26953,10.17969 -1.88928,1.71558 -3.78546,3.42357 -5.6875,5.125 -13.18,12.02332 -23.895818,25.67197 -32.093751,41.54297 -1.310639,2.50785 -2.754296,4.91144 -4.21875,7.33203 -0.680964,1.32608 -1.353305,2.65686 -2,4 -1,-3 -1,-3 0.117188,-5.86328 6.837503,-13.41671 14.550761,-25.38129 24.565918,-36.65235 1.233564,-1.39044 2.449728,-2.79627 3.664551,-4.20312 15.115074,-17.27438 33.940064,-30.59251 54.652344,-40.281251 1.18078,-0.573633 2.36156,-1.147266 3.57812,-1.738282 16.81659,-8.118042 34.1486,-14.20899 52.23438,-18.824218 0.76941,-0.198033 1.53882,-0.396065 2.33154,-0.600098 14.1381,-3.519267 28.59266,-5.684593 42.98096,-7.899902 0.85362,-0.132009 1.70724,-0.264017 2.58673,-0.400025 11.37222,-1.749735 22.70397,-3.293612 34.18671,-4.1156 3.49696,-0.254129 6.95789,-0.652798 10.43458,-1.104828 12.98663,-1.659042 26.03519,-2.28669 39.10448,-2.942047 1.29316,-0.06504 2.58632,-0.130075 3.91867,-0.197083 61.09101,-3.005665 125.64216,-4.368496 185.6514,9.16217 z"
     fill="#e9c7ad"
     id="path18" />
  <path
     d="m 273.99651,153.85187 c 0,0.66 0,1.32 0,2 1.98,0.33 3.96,0.66 6,1 1.58833,4.16936 2.30443,7.53507 2,12 -0.33,0.66 -0.66,1.32 -1,2 -0.66,0 -1.32,0 -2,0 -0.26813,0.5775 -0.53625,1.155 -0.8125,1.75 -2.12945,4.03474 -3.91539,6.49662 -8.1875,8.25 -3.44822,0.41418 -6.90439,0.32438 -10.375,0.3125 -1.39992,0.0242 -1.39992,0.0242 -2.82813,0.0488 -5.38986,0.004 -9.11517,-0.40214 -13.79687,-3.36132 -0.78375,-0.47438 -1.5675,-0.94875 -2.375,-1.4375 -0.53625,-0.51563 -1.0725,-1.03125 -1.625,-1.5625 0,-1.32 0,-2.64 0,-4 -0.66,0 -1.32,0 -2,0 -2.11647,-2.66519 -2.97304,-4.39341 -3.125,-7.8125 1.91265,-5.41918 5.67215,-9.67806 10.5625,-12.6875 8.56098,-1.67044 22.0066,-1.04117 29.5625,3.5 z"
     fill="#704b47"
     id="path19" />
  <path
     d="m 672.99651,344.85187 c 0.99,0.33 1.98,0.66 3,1 -18.40093,17.60088 -38.07169,30.9092 -61,42 -0.66,0.32033 -1.32,0.64066 -2,0.9707 -10.07364,4.86692 -20.19627,8.9978 -30.95313,12.11523 -2.48181,0.74455 -4.94339,1.5243 -7.40625,2.32813 -9.47454,3.08252 -18.83049,5.75486 -28.64062,7.58594 -1.28391,0.24363 -2.56781,0.48726 -3.89063,0.73828 -2.54423,0.48086 -5.0896,0.95233 -7.63672,1.41797 -2.59103,0.47607 -5.16888,0.98932 -7.7478,1.52856 -9.26698,1.92522 -18.51631,3.37398 -27.91235,4.50269 -0.71163,0.0872 -1.42327,0.17442 -2.15647,0.26428 -11.58061,1.40312 -22.99089,2.05848 -34.65603,1.54822 0,-0.33 0,-0.66 0,-1 4.33857,-0.53354 8.67737,-1.06514 13.01642,-1.59473 1.5314,-0.18693 3.06277,-0.37411 4.59411,-0.56152 8.49791,-1.03866 16.99139,-2.03253 25.51447,-2.84375 23.03276,-2.29142 45.76183,-7.49213 67.9375,-14 1.09345,-0.32001 2.18689,-0.64002 3.31348,-0.96973 7.69481,-2.31148 15.16281,-5.05503 22.62402,-8.03027 1.02279,-0.40517 2.04558,-0.81034 3.09936,-1.22779 25.97089,-10.38321 51.60375,-25.28985 70.90064,-45.77221 z"
     fill="#e8c7ad"
     id="path20" />
  <path
     d="m 140.99651,375.85187 c 5.29317,2.11726 10.19282,4.69712 15.15625,7.5 12.9317,6.82112 28.31847,13.11542 42.69922,16.01172 2.10808,0.47998 4.0512,1.12587 6.08203,1.86328 10.63612,3.66955 22.02813,5.61825 33.13672,7.19531 2.74516,0.40316 5.45284,0.89898 8.17578,1.42969 5.42877,1.01295 10.87875,1.63749 16.36377,2.25 4.19511,0.47362 8.34722,1.04498 12.51123,1.75 6.73045,1.07188 13.48035,1.61741 20.26831,2.17529 12.88919,1.07019 25.74584,2.46057 38.60669,3.82471 0,0.33 0,0.66 0,1 -14.94566,0.40072 -29.26449,-0.64515 -44.07227,-2.62842 -4.2589,-0.54053 -8.52755,-0.92386 -12.80273,-1.30908 -8.05583,-0.76205 -16.05578,-1.83339 -24.0625,-3 -1.10134,-0.15783 -2.20269,-0.31566 -3.3374,-0.47827 -6.69943,-1.00225 -13.2568,-2.31805 -19.84009,-3.91504 -2.66292,-0.61768 -5.31177,-1.11132 -8.01001,-1.54419 -28.39322,-4.98127 -56.9977,-15.5752 -81.875,-30.125 0.33,-0.66 0.66,-1.32 1,-2 z"
     fill="#e7c6ac"
     id="path21" />
  <path
     d="m 572.99651,208.85187 c 7.94594,1.13513 7.94594,1.13513 12,6 2.42609,3.63914 2.71644,4.70133 2,9 -3.58009,6.00565 -8.05846,10.38847 -14,14 -0.66,0 -1.32,0 -2,0 0.66,-9.57 1.32,-19.14 2,-29 z"
     fill="#c59d82"
     id="path22" />
  <path
     d="m 58.996509,248.85187 c 0.33,0.99 0.66,1.98 1,3 0.66,0 1.32,0 2,0 0.0647,0.73935 0.12939,1.47871 0.196045,2.24048 1.829308,20.34265 1.829308,20.34265 7.803955,39.75952 0.605215,1.58941 0.605215,1.58941 1.222657,3.21093 2.62631,6.70512 5.926873,12.71879 9.777343,18.78907 0.705762,1.18529 0.705762,1.18529 1.425782,2.39453 1.811915,2.99888 3.709018,5.92969 5.636718,8.85547 0.692227,1.05703 1.384454,2.11406 2.097657,3.20312 1.589708,2.61479 1.589708,2.61479 3.839843,3.54688 0.33,0.99 0.66,1.98 1,3 3.689872,4.01544 7.828191,7.50145 12.000001,11 -0.99,0.66 -1.98,1.32 -3,2 -13.717456,-12.84188 -28.171679,-30.92706 -34.292969,-48.96875 -0.776372,-2.23046 -1.708617,-4.36311 -2.644532,-6.53125 -5.745063,-14.30763 -8.552612,-30.14316 -8.0625,-45.5 z"
     fill="#e8c6ac"
     id="path23" />
  <path
     d="m 699.99651,162.85187 c 4.71246,6.11497 8.7438,12.57714 11.23047,19.90625 0.89384,2.43198 2.01116,4.70134 3.14453,7.03125 2.19541,4.77669 3.86483,9.59977 5.375,14.625 0.2106,0.68376 0.4212,1.36753 0.63818,2.07202 2.9532,10.18864 2.79403,20.58298 2.79932,31.11548 0.0122,1.26843 0.0245,2.53687 0.0371,3.84375 0.0177,11.53343 -0.94421,22.75036 -4.66211,33.71875 -0.41121,1.25425 -0.82242,2.50851 -1.2461,3.80078 -0.43441,0.95261 -0.86882,1.90523 -1.3164,2.88672 -1.485,0.495 -1.485,0.495 -3,1 0.4125,-1.13438 0.825,-2.26875 1.25,-3.4375 1.5595,-4.67107 2.74412,-9.39891 3.875,-14.1875 0.17048,-0.716 0.34096,-1.43199 0.5166,-2.16968 7.29438,-31.47241 -0.3976,-60.89636 -14.94238,-88.84985 -1.69922,-3.35547 -1.69922,-3.35547 -2.80469,-6.24219 -0.69771,-2.28544 -0.69771,-2.28544 -2.89453,-3.11328 0.66,0 1.32,0 2,0 0,-0.66 0,-1.32 0,-2 z"
     fill="#eccbb1"
     id="path24" />
  <path
     d="m 313.99651,197.85187 c 0.0924,5.7048 -0.714,9.22517 -4.5625,13.5625 -1.12754,1.16384 -2.26749,2.31636 -3.4375,3.4375 -1.32,-0.66 -2.64,-1.32 -4,-2 0.33,-1.65 0.66,-3.3 1,-5 0.66,0 1.32,0 2,0 0.22687,-0.72188 0.45375,-1.44375 0.6875,-2.1875 1.62121,-3.47403 4.11353,-7.8125 8.3125,-7.8125 z"
     fill="#be967d"
     id="path25" />
  <path
     d="m 25.996509,224.85187 c 1.98,0.99 1.98,0.99 4,2 0,8.91 0,17.82 0,27 -1.32,0 -2.64,0 -4,0 0,-9.57 0,-19.14 0,-29 z"
     fill="#8e685a"
     id="path26" />
  <path
     d="m 676.99651,132.85187 c 4.53898,3.53401 7.96712,7.19487 11.375,11.8125 0.44988,0.59748 0.89976,1.19496 1.36328,1.81054 1.09358,1.45424 2.17858,2.91493 3.26172,4.37696 -0.99,0.33 -1.98,0.66 -3,1 -1.41702,-1.72888 -2.8336,-3.45812 -4.25,-5.1875 -0.78891,-0.96293 -1.57781,-1.92586 -2.39063,-2.91797 -1.16789,-1.4328 -1.16789,-1.4328 -2.35937,-2.89453 -0.75797,-0.88301 -1.51594,-1.76602 -2.29688,-2.67578 -1.70312,-2.32422 -1.70312,-2.32422 -1.70312,-5.32422 z"
     fill="#e7cab4"
     id="path27" />
  <path
     d="m 720.99651,258.85187 c 1.64877,4.97531 -0.19265,8.87614 -1.75,13.6875 -0.39832,1.31967 -0.39832,1.31967 -0.80469,2.66601 -0.26555,0.83596 -0.53109,1.67192 -0.80469,2.53321 -0.24202,0.7653 -0.48404,1.5306 -0.73339,2.31909 -0.90723,1.79419 -0.90723,1.79419 -3.90723,2.79419 0.43312,-1.2375 0.86625,-2.475 1.3125,-3.75 1.89803,-5.66698 3.30141,-11.44022 4.6875,-17.25 0.66,0 1.32,0 2,0 0,-0.99 0,-1.98 0,-3 z"
     fill="#e7c5ab"
     id="path28" />
  <path
     d="m 339.99651,209.85187 c 0.66,0.33 1.32,0.66 2,1 -0.21656,1.11117 -0.43313,2.22234 -0.65625,3.36718 -1.50914,7.97788 -2.73219,15.47569 -2.34375,23.63282 -0.99,-0.66 -1.98,-1.32 -3,-2 0.27828,-3.58451 0.57494,-7.16726 0.875,-10.75 0.0786,-1.01578 0.15726,-2.03157 0.23828,-3.07813 0.0838,-0.97969 0.16758,-1.95937 0.25391,-2.96875 0.10997,-1.3511 0.10997,-1.3511 0.22216,-2.72949 0.41676,-2.51043 1.1514,-4.27779 2.41065,-6.47363 z"
     fill="#9b7565"
     id="path29" />
  <path
     d="m 147.99651,67.851869 c 1.32,0.33 2.64,0.66 4,1 -1,3 -1,3 -4.375,4.75 -3.625,1.25 -3.625,1.25 -6.625,0.25 0,-0.99 0,-1.98 0,-3 3.465,-0.495 3.465,-0.495 7,-1 0,-0.66 0,-1.32 0,-2 z"
     fill="#8f6960"
     id="path30" />
  <path
     d="m 699.99651,162.85187 c 2.27138,2.93301 4.2687,5.95068 6.1875,9.125 0.5298,0.86882 1.05961,1.73765 1.60547,2.63281 1.20703,2.24219 1.20703,2.24219 1.20703,4.24219 -3.65353,-1.43643 -4.93978,-3.05835 -6.75,-6.5 -0.64195,-1.1911 -0.64195,-1.1911 -1.29688,-2.40625 -0.95312,-2.09375 -0.95312,-2.09375 -0.95312,-4.09375 -0.66,-0.33 -1.32,-0.66 -2,-1 0.66,0 1.32,0 2,0 0,-0.66 0,-1.32 0,-2 z"
     fill="#e2c1a7"
     id="path31" />
  <path
     d="m 231.99651,407.85187 c 9.41002,0.96355 9.41002,0.96355 14,2 0,0.66 0,1.32 0,2 1.32,0.33 2.64,0.66 4,1 -10.55809,-0.96356 -10.55809,-0.96356 -15,-2 0,-0.66 0,-1.32 0,-2 -0.99,-0.33 -1.98,-0.66 -3,-1 z"
     fill="#e1bfa6"
     id="path32" />
  <path
     d="m 178.99651,80.851869 c 0,0.66 0,1.32 0,2 -1.40692,0.727507 -2.82606,1.431403 -4.25,2.125 -0.78891,0.394453 -1.57781,0.788906 -2.39063,1.195312 -2.35937,0.679688 -2.35937,0.679688 -4.65625,-0.203125 -0.56203,-0.368672 -1.12406,-0.737344 -1.70312,-1.117187 1.6015,-0.673051 3.20631,-1.338223 4.8125,-2 0.89332,-0.37125 1.78664,-0.7425 2.70703,-1.125 2.48047,-0.875 2.48047,-0.875 5.48047,-0.875 z"
     fill="#e3c1a8"
     id="path33" />
  <path
     d="m 272.99651,208.85187 c 0.33,0 0.66,0 1,0 0.13277,0.75925 0.26555,1.51851 0.40234,2.30078 0.1766,0.99386 0.35321,1.98773 0.53516,3.01172 0.26103,1.4792 0.26103,1.4792 0.52734,2.98828 0.49263,2.78111 0.49263,2.78111 1.53516,5.69922 -1.32,0 -2.64,0 -4,0 -0.66,-0.66 -1.32,-1.32 -2,-2 0.99,0 1.98,0 3,0 -0.33,-0.99 -0.66,-1.98 -1,-3 -0.0674,-1.56119 -0.0851,-3.12503 -0.0625,-4.6875 0.009,-0.80825 0.0181,-1.61649 0.0273,-2.44922 0.0174,-0.92233 0.0174,-0.92233 0.0352,-1.86328 z"
     fill="#9e7867"
     id="path34" />
  <path
     d="m 91.996509,100.85187 c 0.99,0.99 1.98,1.98 3,3 -0.99,0.33 -1.98,0.66 -3,1 -0.33,0.99 -0.66,1.98 -1,3 -1.32,-0.66 -2.64,-1.32 -4,-2 1.65,-1.65 3.3,-3.3 5,-5 z"
     fill="#89665d"
     id="path35" />
  <path
     d="m 508.99651,58.851869 c 3.63,0.33 7.26,0.66 11,1 0,0.66 0,1.32 0,2 -1.25813,0.02063 -2.51625,0.04125 -3.8125,0.0625 -0.7077,0.0116 -1.41539,0.0232 -2.14453,0.03516 -2.04297,-0.09766 -2.04297,-0.09766 -5.04297,-1.097656 0,-0.66 0,-1.32 0,-2 z"
     fill="#e3c0a8"
     id="path36" />
  <path
     d="m 241.99651,151.85187 c 0.99,0.33 1.98,0.66 3,1 -1.11879,1.17263 -2.24523,2.33795 -3.375,3.5 -0.62649,0.64968 -1.25297,1.29937 -1.89844,1.96875 -1.72656,1.53125 -1.72656,1.53125 -3.72656,1.53125 1.44254,-3.36592 3.33265,-5.51047 6,-8 z"
     fill="#825c53"
     id="path37" />
  <path
     d="m 550.99651,141.85187 c 0.66,0.33 1.32,0.66 2,1 -3.3,3.3 -6.6,6.6 -10,10 0,-4.3225 2.14915,-5.88396 5,-9 0.99,-0.66 1.98,-1.32 3,-2 z"
     fill="#7f5a52"
     id="path38" />
  <path
     d="m 552.99651,44.851869 c 1.48008,0.113622 2.9591,0.241229 4.4375,0.375 0.82371,0.06961 1.64742,0.139218 2.49609,0.210937 1.02287,0.204961 1.02287,0.204961 2.06641,0.414063 0.33,0.66 0.66,1.32 1,2 -3.0932,0.853295 -5.79336,1 -9,1 -0.33,-1.32 -0.66,-2.64 -1,-4 z"
     fill="#9c7269"
     id="path39" />
  <path
     d="m 51.996509,328.85187 c 0.66,0 1.32,0 2,0 0.66,1.32 1.32,2.64 2,4 -0.99,0.99 -1.98,1.98 -3,3 -0.99,-1.32 -1.98,-2.64 -3,-4 0.66,-0.99 1.32,-1.98 2,-3 z"
     fill="#866157"
     id="path40" />
  <path
     d="m 92.996509,138.85187 c 0,3.60574 -0.817074,4.41336 -3,7.1875 -0.556875,0.71543 -1.11375,1.43086 -1.6875,2.16797 -0.433125,0.54269 -0.86625,1.08539 -1.3125,1.64453 -0.33,-0.99 -0.66,-1.98 -1,-3 1.433594,-2.04297 1.433594,-2.04297 3.4375,-4.1875 0.658711,-0.71543 1.317422,-1.43086 1.996094,-2.16797 0.516914,-0.5427 1.033828,-1.08539 1.566406,-1.64453 z"
     fill="#eac9af"
     id="path41" />
  <path
     d="m 382.99651,193.85187 c 0.99,0 1.98,0 3,0 -1.11666,3.34998 -1.74695,3.7934 -4.5625,5.6875 -0.64067,0.43699 -1.28133,0.87398 -1.94141,1.32422 -0.49371,0.32613 -0.98742,0.65226 -1.49609,0.98828 0.33,-1.32 0.66,-2.64 1,-4 0.66,0 1.32,0 2,0 0.66,-1.32 1.32,-2.64 2,-4 z"
     fill="#b28b75"
     id="path42" />
  <path
     d="m 617.99651,61.851869 c 2.64,0.99 5.28,1.98 8,3 -0.33,0.99 -0.66,1.98 -1,3 -0.66,0 -1.32,0 -2,0 -0.33,-0.66 -0.66,-1.32 -1,-2 -2.0167,-1.133506 -2.0167,-1.133506 -4,-2 0,-0.66 0,-1.32 0,-2 z m -1,3 c 0.66,0 1.32,0 2,0 0,0.66 0,1.32 0,2 -0.66,0 -1.32,0 -2,0 0,-0.66 0,-1.32 0,-2 z"
     fill="#81625a"
     id="path43" />
  <path
     d="m 173.99651,58.851869 c -1,2 -2,4 -3,6 -0.99,0 -1.98,0 -3,0 0,-1.32 0,-2.64 0,-4 3.75,-2 3.75,-2 6,-2 z"
     fill="#7c5e54"
     id="path44" />
  <path
     d="m 573.99651,403.85187 c -1.43333,0.39063 -2.87193,0.76198 -4.3125,1.125 -1.20076,0.31324 -1.20076,0.31324 -2.42578,0.63281 -2.26172,0.24219 -2.26172,0.24219 -5.26172,-1.75781 8.03571,-2.41072 8.03571,-2.41072 12,0 z"
     fill="#e2c0a7"
     id="path45" />
  <path
     d="m 739.99651,161.85187 c 0.99,0.33 1.98,0.66 3,1 0.33,1.65 0.66,3.3 1,5 -0.99,0.495 -0.99,0.495 -2,1 -0.66,-0.33 -1.32,-0.66 -2,-1 0,-1.98 0,-3.96 0,-6 z"
     fill="#9a7467"
     id="path46" />
  <path
     d="m 217.99651,429.85187 c 0,0.66 0,1.32 0,2 -2.97,-0.33 -5.94,-0.66 -9,-1 4.17908,-2.08954 4.8041,-2.16553 9,-1 z"
     fill="#695348"
     id="path47" />
  <path
     d="m 658.99651,115.85187 c 2.31,1.65 4.62,3.3 7,5 -0.66,0.66 -1.32,1.32 -2,2 -1.98,-1.65 -3.96,-3.3 -6,-5 0.33,-0.66 0.66,-1.32 1,-2 z"
     fill="#e8cbb4"
     id="path48" />
  <path
     d="m 143.99651,69.851869 c 0.66,0.33 1.32,0.66 2,1 0,0.99 0,1.98 0,3 -1.65,0.33 -3.3,0.66 -5,1 0,-0.99 0,-1.98 0,-3 0.99,-0.66 1.98,-1.32 3,-2 z"
     fill="#86645b"
     id="path49" />
</svg>
