<?xml version="1.0" encoding="UTF-8" standalone="no"?>
<svg
   version="1.1"
   width="800"
   height="300"
   id="svg33"
   sodipodi:docname="Username.svg"
   inkscape:version="1.4.2 (f4327f4, 2025-05-13)"
   xmlns:inkscape="http://www.inkscape.org/namespaces/inkscape"
   xmlns:sodipodi="http://sodipodi.sourceforge.net/DTD/sodipodi-0.dtd"
   xmlns="http://www.w3.org/2000/svg"
   xmlns:svg="http://www.w3.org/2000/svg">
  <defs
     id="defs33" />
  <sodipodi:namedview
     id="namedview33"
     pagecolor="#ffffff"
     bordercolor="#000000"
     borderopacity="0.25"
     inkscape:showpageshadow="2"
     inkscape:pageopacity="0.0"
     inkscape:pagecheckerboard="0"
     inkscape:deskcolor="#d1d1d1"
     inkscape:zoom="0.32148446"
     inkscape:cx="867.84912"
     inkscape:cy="1171.1297"
     inkscape:window-width="2560"
     inkscape:window-height="1494"
     inkscape:window-x="-11"
     inkscape:window-y="-11"
     inkscape:window-maximized="1"
     inkscape:current-layer="svg33" />
  <path
     d="m 72.054142,37.880813 c 0.707051,0.06639 1.414101,0.132774 2.142578,0.201172 3.333764,0.397548 5.54787,0.932148 8.283203,2.916016 2.348207,3.410057 1.773318,5.575227 1.257813,9.566406 -1.143228,5.560514 -2.773186,10.961848 -4.375977,16.404541 -8.395439,28.636054 -11.558372,58.921142 -11.55542,88.691892 -0.0022,2.46347 -0.02045,4.9265 -0.03931,7.3899 -0.06713,18.67021 0.783933,40.45896 13.84961,55.08007 2.392508,2.16572 2.392508,2.16572 5.375,4.0625 2.480512,-0.26259 2.480512,-0.26259 5,-1 0.721875,-0.0825 1.44375,-0.165 2.1875,-0.25 2.044182,-0.6109 2.044182,-0.6109 2.875,-2.9375 0.464062,-1.39218 0.464062,-1.39218 0.9375,-2.8125 0.461484,-0.84304 0.922969,-1.68609 1.398437,-2.55468 2.027404,-4.3614 3.088684,-8.70917 4.164064,-13.38282 0.21761,-0.9286 0.43522,-1.85721 0.65943,-2.81396 1.48701,-6.52306 2.59502,-12.97746 3.32104,-19.63135 0.37607,-2.97642 0.86342,-5.86774 1.42188,-8.8125 1.08239,-5.82859 1.77435,-11.66299 2.41015,-17.55469 8.54735,-76.256709 8.54735,-76.256709 18.625,-96.249997 0.32871,-0.702539 0.65742,-1.405078 0.9961,-2.128906 1.50184,-2.985002 2.96508,-4.841516 5.6289,-6.871094 4.67461,-1.385068 8.67401,-1.308443 13.375,0 2.7727,2.206844 4.42746,3.854912 6,7 1.01932,20.812966 -2.37763,41.288149 -5.51074,61.791997 -1.87565,12.29844 -3.55627,24.59251 -4.92676,36.958 -8.01063,71.26463 -8.01063,71.26463 -25.75,86 -11.14235,8.1207 -22.433205,10.71814 -36.015138,8.96582 -10.719739,-1.72608 -19.600218,-4.93104 -28.797363,-10.71582 0,-0.66 0,-1.32 0,-2 -0.639375,-0.26812 -1.27875,-0.53625 -1.9375,-0.8125 -2.0625,-1.1875 -2.0625,-1.1875 -3.0625,-4.1875 -0.66,0 -1.32,0 -2,0 0,-0.66 0,-1.32 0,-2 -0.66,0 -1.32,0 -2,0 -8.676634,-16.59511 -13.055275,-33.2299 -13.238281,-51.98437 -0.01469,-1.26161 -0.01469,-1.26161 -0.02968,-2.54871 C 31.755024,66.300159 31.755024,66.300159 56.991642,40.193313 c 0.66,0 1.32,0 2,0 0,-0.66 0,-1.32 0,-2 4.457021,-1.212379 8.541009,-0.863699 13.0625,-0.3125 z"
     fill="#6e4947"
     id="path1" />
  <path
     d="m 301.74164,136.13081 c 3.50945,0.80545 6.47308,1.10271 10.0625,0.875 3.71564,-0.11199 4.06576,0.0931 7.25,2.5625 1.9375,2.625 1.9375,2.625 1.9375,4.625 0.66387,-0.20496 1.32774,-0.40992 2.01172,-0.62109 0.88301,-0.26941 1.76602,-0.53883 2.67578,-0.81641 0.87012,-0.26683 1.74024,-0.53367 2.63672,-0.80859 2.54703,-0.71763 5.07862,-1.25462 7.67578,-1.75391 0.78375,-0.22687 1.5675,-0.45375 2.375,-0.6875 2.90422,-0.34574 4.79538,0.3047 7.53125,1.22266 2.63711,0.58548 5.0232,0.45216 7.71875,0.33984 3.86592,-0.085 5.08468,-0.0492 8.5,2 1.875,2.125 1.875,2.125 2.875,4.125 0.72188,-0.51562 1.44375,-1.03125 2.1875,-1.5625 3.52916,-1.83617 6.43379,-1.32714 10.3125,-0.875 5.16461,0.61949 5.16461,0.61949 9.875,-1.4375 0.86625,-0.70125 1.7325,-1.4025 2.625,-2.125 2.32598,-0.3813 4.65912,-0.7246 7,-1 0.33,-0.66 0.66,-1.32 1,-2 1.155,0.33 2.31,0.66 3.5,1 3.55936,0.90079 6.75633,1.03284 10.4375,0.96094 8.95573,0.16962 15.54875,3.89032 22.04297,9.85938 7.84059,8.25853 9.60979,16.58806 9.57373,27.66796 -0.27887,8.74541 -1.97391,17.18912 -3.69116,25.74781 -3.26855,14.40267 -3.26855,14.40267 -1.86304,28.76391 1.96673,1.15009 1.96673,1.15009 4,2 1,1 1,1 1.5,4.6875 -0.0422,2.61181 -0.24532,3.94605 -1.74609,6.10547 -4.26868,3.99265 -8.91389,5.90783 -14.75391,6.20703 -2.5625,-0.8125 -2.5625,-0.8125 -5,-2 -1.94906,-0.18562 -1.94906,-0.18562 -3.9375,-0.375 -4.2,-0.45084 -6.73189,-1.97565 -10.0625,-4.625 -1.11375,-0.83531 -1.11375,-0.83531 -2.25,-1.6875 -4.99049,-6.59457 -3.82599,-15.36085 -3.0625,-23.125 0.096,-1.06226 0.19191,-2.12453 0.29077,-3.21899 0.62267,-6.37 1.58674,-12.43495 3.35767,-18.59741 2.22651,-7.94995 3.83632,-20.17948 0.65234,-27.78907 -0.32613,-0.52207 -0.65226,-1.04414 -0.98828,-1.58203 -5.10152,13.11821 -7.93667,26.50826 -10.55102,40.29248 -0.14074,0.72608 -0.28148,1.45215 -0.42649,2.20023 -0.38577,1.99544 -0.76052,3.99301 -1.13455,5.99069 -0.88628,3.51002 -2.14515,6.35519 -3.88794,9.5166 -0.99,0 -1.98,0 -3,0 0,0.66 0,1.32 0,2 -6.625,3 -6.625,3 -10,3 -0.66,-0.66 -1.32,-1.32 -2,-2 -2.99033,-0.26944 -5.95549,-0.31481 -8.95703,-0.36328 -4.07922,-0.85354 -5.42736,-2.43339 -8.04297,-5.63672 -0.59936,-3.08911 -0.59936,-3.08911 -0.55859,-6.58203 0.009,-1.96562 0.009,-1.96562 0.0176,-3.97095 0.0334,-1.41986 0.068,-2.8397 0.10351,-4.25952 0.0188,-1.45953 0.0364,-2.91909 0.0527,-4.37866 0.2256,-15.29485 1.22495,-30.56012 2.38476,-45.80884 -0.50716,0.2699 -1.01433,0.5398 -1.53686,0.81787 -4.13056,2.14149 -7.95647,3.7863 -12.52564,4.80713 -1.01707,0.2359 -2.03414,0.4718 -3.08203,0.71485 -0.9423,0.21785 -1.88461,0.4357 -2.85547,0.66015 -2.34453,0.63441 -4.67058,1.31177 -7,2 0,0.66 0,1.32 0,2 -0.66,0 -1.32,0 -2,0 0.19336,0.64325 0.38672,1.28649 0.58594,1.94922 4.66018,16.1722 8.22097,36.03305 0.0312,51.69531 -4.38354,6.38473 -9.88143,10.18529 -17.37891,12.0625 -2.9862,0.39087 -4.56211,-0.36894 -7.23828,-1.70703 -1.6017,-0.13697 -3.20673,-0.23696 -4.8125,-0.3125 -5.23434,-0.42377 -9.25765,-2.16381 -13.1875,-5.6875 0,-0.66 0,-1.32 0,-2 -0.63422,-0.24621 -1.26844,-0.49242 -1.92187,-0.74609 -2.07813,-1.25391 -2.07813,-1.25391 -2.90625,-3.10156 -2.97298,-15.60815 0.15947,-30.52432 6.52343,-44.88282 2.47105,-6.1924 2.42825,-10.07419 0.49219,-16.45703 -0.35707,-1.21043 -0.71414,-2.42086 -1.08203,-3.66797 -0.99661,-3.24921 -0.99661,-3.24921 -3.10547,-6.14453 0.21919,-5.69887 1.7264,-9.45332 5,-14 3.57699,-1.15059 6.14721,-0.96319 9.75,-0.0625 z"
     fill="#6d4946"
     id="path2" />
  <path
     d="m 556.99164,153.19331 c 0,0.66 0,1.32 0,2 11.71238,0.26494 11.71238,0.26494 23.375,-0.5625 3.625,-0.4375 3.625,-0.4375 5.41797,0.0117 4.15983,1.03812 8.52654,0.90067 12.79688,1.07422 3.41015,0.47656 3.41015,0.47656 6.10156,2.14063 0.76183,0.44086 1.52367,0.88171 2.30859,1.33593 2.12221,-0.62851 2.12221,-0.62851 4,-2 5.95456,-2.734 10.04753,-3.25879 16.39453,-1.58593 2.78838,0.62707 5.31538,0.67115 8.16797,0.71093 5.58803,0.46699 8.62948,2.57635 12.5586,6.48438 12.86618,16.37028 6.73352,43.7296 4.94628,62.85351 -2.46193,19.201 -2.46193,19.201 0.34668,37.88086 3.19641,3.33812 7.94935,3.84342 12.33594,4.70703 3.25,0.94922 3.25,0.94922 5.15625,2.8711 1.56132,2.9665 1.63357,4.77174 1.09375,8.07812 -3.80112,5.50508 -9.69575,7.52436 -16,9 -3.1573,0.18026 -5.92225,-0.32043 -9,-1 -1.02222,-0.17789 -2.04445,-0.35578 -3.09765,-0.53906 -8.95521,-1.73867 -17.52781,-4.43036 -22.90235,-12.27344 -4.28228,-7.13188 -4.27863,-15.69622 -4.125,-23.75 0.009,-0.9133 0.0181,-1.8266 0.0274,-2.76757 0.0233,-2.2236 0.056,-4.44661 0.0976,-6.66993 -2.28179,-0.19493 -2.28179,-0.19493 -4.6875,1.9375 -3.62346,2.25612 -6.07254,2.89943 -10.3125,3.0625 -0.99,-0.99 -0.99,-0.99 -2,-2 -1.98706,0 -3.97452,0.004 -5.96094,0.0547 -2.69709,-0.0723 -4.6814,-0.76869 -7.03906,-2.05469 -0.33,-0.66 -0.66,-1.32 -1,-2 -0.99,-0.66 -1.98,-1.32 -3,-2 -0.26649,-3.05075 -0.34757,-5.89626 -0.29297,-8.94531 0.004,-0.88501 0.008,-1.77002 0.0129,-2.68185 0.0168,-2.83292 0.0545,-5.66513 0.0926,-8.49784 0.015,-1.91796 0.0287,-3.83592 0.041,-5.7539 0.0331,-4.70731 0.0849,-9.41408 0.14648,-14.1211 -2.26852,12.09749 -4.44101,24.16471 -5.9602,36.38355 -0.10853,0.82605 -0.21705,1.65209 -0.32886,2.50317 -0.0897,0.72405 -0.1795,1.4481 -0.27197,2.19409 -0.43897,1.91919 -0.43897,1.91919 -2.43897,4.91919 -0.99,0 -1.98,0 -3,0 -0.33,0.99 -0.66,1.98 -1,3 -2.0664,0.94922 -2.0664,0.94922 -4.5625,1.6875 -0.82629,0.25137 -1.65258,0.50274 -2.5039,0.76172 -0.63809,0.18176 -1.27618,0.36352 -1.9336,0.55078 -0.33,-0.99 -0.66,-1.98 -1,-3 -0.99,0.30938 -0.99,0.30938 -2,0.625 -5.12561,0.64071 -9.2415,-0.53584 -13.60986,-3.24145 -2.39014,-2.38355 -2.39014,-2.38355 -2.88184,-5.57105 0.0617,-1.25812 0.12343,-2.51625 0.18701,-3.8125 0.0397,-1.04428 0.0397,-1.04428 0.0803,-2.10966 0.0927,-2.29851 0.22096,-4.59358 0.34941,-6.89034 0.0717,-1.6025 0.14074,-3.20513 0.20728,-4.80786 0.10487,-2.49995 0.21248,-4.99959 0.33015,-7.49898 0.27837,-5.92191 0.4579,-11.84021 0.57585,-17.76738 0.0171,-0.81155 0.0343,-1.62311 0.0519,-2.45925 0.0664,-3.15146 0.13254,-6.30288 0.18714,-9.45456 0.39517,-21.78574 0.39517,-21.78574 5.52264,-28.01197 5.06897,-3 5.06897,-3 8,-3 z m 62,62 c 1,3 1,3 1,3 z m -1,6 c 0,1.65 0,3.3 0,5 0.33,0 0.66,0 1,0 0,-1.65 0,-3.3 0,-5 -0.33,0 -0.66,0 -1,0 z m -1,13 c 0,1.65 0,3.3 0,5 0.33,0 0.66,0 1,0 0,-1.65 0,-3.3 0,-5 -0.33,0 -0.66,0 -1,0 z"
     fill="#6e4946"
     id="path3" />
  <path
     d="m 189.99164,125.19331 c 0.495,0.99 0.495,0.99 1,2 1.09699,-0.0464 2.19399,-0.0928 3.32422,-0.14062 1.4544,-0.0375 2.90883,-0.0739 4.36328,-0.10938 0.72123,-0.0335 1.44246,-0.067 2.18555,-0.10156 3.8944,-0.0711 5.70137,0.0826 9.08789,2.22266 2.42697,2.53391 2.95778,3.63385 3.03906,7.1289 -0.74468,4.24468 -1.39105,6.40627 -4.5,9.4375 -2.5,1.5625 -2.5,1.5625 -4.5,1.5625 0,0.66 0,1.32 0,2 -1.39539,1.15716 -2.79442,2.31021 -4.21094,3.44141 -3.92311,3.41774 -7.26574,7.51622 -10.37109,11.67969 -1.41797,1.8789 -1.41797,1.8789 -3.41797,3.8789 1.26715,-0.0206 2.5343,-0.0412 3.83985,-0.0625 15.32183,0.0714 15.32183,0.0714 20.78515,5 1.82232,1.98439 3.17396,3.66041 4.375,6.0625 0.70963,-1.48886 0.70963,-1.48886 1.4336,-3.00781 5.53749,-11.44492 11.24618,-23.13954 20.5664,-31.99219 0.55688,-0.59812 1.11375,-1.19625 1.6875,-1.8125 1.3125,-1.1875 1.3125,-1.1875 3.3125,-1.1875 0.66,-1.32 1.32,-2.64 2,-4 0.99,0 1.98,0 3,0 0,-0.66 0,-1.32 0,-2 6.77027,-1.64127 12.74755,-0.99086 19.44531,0.51563 2.47646,0.46954 4.79078,0.58723 7.30469,0.67187 3.75319,0.34604 5.28724,1.41197 7.75,4.25 4.06887,5.41386 3.96913,9.89731 3.5,16.5625 -2.03461,11.51702 -10.34535,19.03889 -19.42969,25.625 -13.61498,9.375 -13.61498,9.375 -19.57031,9.375 0.17474,1.77447 0.39115,3.54486 0.625,5.3125 0.11602,0.98614 0.23203,1.97227 0.35156,2.98828 0.81807,2.9204 0.81807,2.9204 3.63672,4.53125 4.95201,1.70779 9.63271,1.53502 14.82813,1.56641 4.40078,0.74393 5.85262,2.12172 8.55859,5.60156 0.57137,3.99958 0.15975,6.6164 -2,10 -8.13734,6.23529 -16.88921,7.25685 -26.74609,6.31592 -10.87321,-1.52404 -21.8083,-4.84333 -29.25391,-13.31592 -2.66592,-3.79381 -3.85855,-7.52201 -5,-12 -0.54785,0.52207 -1.0957,1.04414 -1.66015,1.58203 -21.94699,20.3768 -21.94699,20.3768 -35.33985,23.41797 -3.01953,-0.33593 -3.01953,-0.33593 -6,-1 -0.86883,-0.14179 -1.73765,-0.28359 -2.63281,-0.42968 -0.82242,-0.14696 -1.64484,-0.29391 -2.49219,-0.44532 -0.82758,-0.14179 -1.65515,-0.28359 -2.50781,-0.42968 -2.75284,-0.80859 -4.34406,-1.65367 -6.36719,-3.69532 -0.81879,-4.3082 0.10401,-8.45509 2.28906,-12.22265 3.73461,-4.59303 8.07669,-7.46311 13.20313,-10.33203 6.71631,-3.73768 6.71631,-3.73768 11.50781,-9.44532 -0.53238,0.16243 -1.06476,0.32485 -1.61328,0.49219 -2.90349,0.61777 -5.60703,0.64004 -8.57422,0.63281 -1.59908,0.004 -1.59908,0.004 -3.23047,0.008 -2.58203,-0.13282 -2.58203,-0.13282 -3.58203,-1.13282 -2.99742,-0.53962 -6.00554,-0.96548 -9.01953,-1.40234 -2.6925,-0.53991 -4.62194,-1.2328 -6.98047,-2.59766 0,-0.66 0,-1.32 0,-2 -0.66,0 -1.32,0 -2,0 0,-0.66 0,-1.32 0,-2 -0.66,-0.33 -1.32,-0.66 -2,-1 2.67017,-13.6319 8.59008,-22.04694 18,-32 1.18544,-1.29649 2.3689,-2.5948 3.55078,-3.89453 1.2535,-1.36886 2.50741,-2.73735 3.76172,-4.10547 0.59877,-0.65959 1.19754,-1.31919 1.81445,-1.99878 0.57299,-0.61915 1.14598,-1.2383 1.73633,-1.87622 0.5083,-0.55429 1.01659,-1.10859 1.54029,-1.67968 1.59643,-1.44532 1.59643,-1.44532 3.72998,-2.45313 2.22042,-0.90536 2.22042,-0.90536 2.86645,-3.99219 0.66,0 1.32,0 2,0 0,-0.66 0,-1.32 0,-2 2.31,-0.66 4.62,-1.32 7,-2 z"
     fill="#6d4946"
     id="path4" />
  <path
     d="m 490.36664,148.56831 c 5.49874,0.64643 10.99531,0.95805 16.52344,1.2461 2.88351,0.35226 4.6472,0.88573 7.10156,2.3789 0.33,-0.66 0.66,-1.32 1,-2 0.55688,0.33129 1.11375,0.66258 1.6875,1.00391 3.35473,1.44502 6.28721,0.99767 9.875,0.77344 3.22894,0.29495 4.31912,0.73072 6.4375,3.22265 1.96846,6.54702 0.52729,12.1193 -1.6875,18.375 -0.27674,0.8271 -0.55349,1.65419 -0.83862,2.50635 -1.79895,5.33365 -3.68517,10.64072 -5.71216,15.89209 -2.60452,7.61322 -2.95284,15.99372 0.17578,23.48438 1.18216,1.93839 2.39821,3.0447 4.1875,4.42968 2.875,2.3125 2.875,2.3125 3.875,4.75 0,4.50895 -1.00328,7.47518 -4.0625,10.8125 -4.77437,2.84431 -9.51364,4.3436 -15,3 -0.96937,-0.4125 -1.93875,-0.825 -2.9375,-1.25 -1.33004,-0.30631 -2.66372,-0.59713 -4,-0.875 -5.36476,-1.30272 -9.19926,-4.2128 -13,-8.125 -1.62566,0.47691 -3.25051,0.9566 -4.875,1.4375 -0.90492,0.26684 -1.80984,0.53368 -2.74219,0.8086 -2.36556,0.68004 -2.36556,0.68004 -4.38281,1.7539 -10.81036,1.14089 -24.02142,-0.62986 -33,-7.125 -1.8125,-1.50781 -1.8125,-1.50781 -3,-2.875 0,-0.66 0,-1.32 0,-2 -0.66,0 -1.32,0 -2,0 -4.60356,-7.80603 -4.48031,-15.28844 -2.4375,-23.875 0.17983,-0.78085 0.35965,-1.5617 0.54492,-2.36621 1.62236,-6.55725 4.18206,-12.10323 7.89258,-17.75879 0.39703,-0.65871 0.79406,-1.31742 1.20313,-1.99609 1.04687,-1.69141 1.04687,-1.69141 2.79687,-4.00391 0.66,0 1.32,0 2,0 0.39252,-0.88172 0.39252,-0.88172 0.79297,-1.78125 2.89235,-5.31668 8.34094,-9.74297 13.20703,-13.21875 0.66,0 1.32,0 2,0 0.33,-0.66 0.66,-1.32 1,-2 1.92578,-1.03515 1.92578,-1.03515 4.3125,-2.0625 0.77988,-0.3416 1.55977,-0.6832 2.36328,-1.03515 3.83269,-1.48799 6.60509,-2.04435 10.69922,-1.52735 z m -2.375,28.625 c 0,0.66 0,1.32 0,2 -0.66,0 -1.32,0 -2,0 -1.3606,1.48637 -1.3606,1.48637 -2.625,3.375 -0.44601,0.62649 -0.89203,1.25297 -1.35156,1.89844 -1.19341,1.67879 -1.19341,1.67879 -1.02344,3.72656 -0.66,0 -1.32,0 -2,0 -0.86772,2.07773 -1.71873,4.16244 -2.5625,6.25 -0.47566,1.16016 -0.95133,2.32032 -1.4414,3.51563 -0.9538,3.09704 -1.20593,4.30759 0.004,7.23437 0.66,0 1.32,0 2,0 0,-0.66 0,-1.32 0,-2 0.99,-0.33 1.98,-0.66 3,-1 6.96531,-7.4038 16,-19.32411 16,-30 -3.52914,0 -5.51088,2.72733 -8,5 z"
     fill="#6d4946"
     id="path5" />
  <path
     d="m 715.39008,146.65816 c 2.94176,0.60513 5.79199,0.79789 8.78906,0.97265 5.88298,0.44104 9.68583,1.4966 14,5.6875 3.59413,5.70104 5.3325,10.53969 4.25,17.3125 -0.43574,1.86485 -0.91484,3.72012 -1.4375,5.5625 -0.23719,0.83661 -0.47437,1.67321 -0.71875,2.53516 -4.90122,14.31793 -17.2518,23.93463 -30.21875,30.77734 -6.14286,2.92092 -12.51358,4.89183 -19.0625,6.6875 0.10793,2.90429 0.10793,2.90429 1,6 3.74703,3.21679 8.12661,3.81252 12.875,4.5625 12.76856,2.11201 12.76856,2.11201 17.125,4.5625 1.40567,2.63562 1.45005,4.96915 0.9375,7.87891 -1.64792,3.50869 -4.43308,4.5258 -7.90625,5.94531 -1.00031,0.34676 -2.00062,0.69352 -3.03125,1.05078 -0.97969,0.3777 -1.95937,0.75539 -2.96875,1.14453 -12.32653,3.75481 -27.14808,0.38859 -38.55469,-5.20703 -6.34976,-3.53874 -11.06426,-7.37312 -13.78906,-14.25 -3.72819,-18.09867 4.03766,-37.71921 13.25,-52.875 0.68063,-0.92812 1.36125,-1.85625 2.0625,-2.8125 0.50145,-0.68449 1.00289,-1.36898 1.51953,-2.07422 10.71887,-14.25149 10.71887,-14.25149 15.65625,-15.45703 0.602,-0.15468 1.20399,-0.30937 1.82422,-0.46875 0.33,-0.99 0.66,-1.98 1,-3 3.83436,-2.22927 7.75735,-3.73623 12,-5 1.14469,-0.37125 1.14469,-0.37125 2.3125,-0.75 3.30838,-0.30775 5.88507,0.4066 9.08594,1.21485 z"
     fill="#6e4946"
     id="path6" />
  <path
     d="m 755.86664,209.06831 c 4.53084,0.776 8.84656,1.20139 13.4375,1.3125 5.4461,0.40395 8.39013,2.04174 12.19531,5.91797 3.60246,4.5738 4.05903,9.2262 3.49219,14.89453 -1.85391,6.72043 -4.11254,11.16036 -10,15 -0.66,0 -1.32,0 -2,0 -0.33,0.99 -0.66,1.98 -1,3 -2.29297,0.98438 -2.29297,0.98438 -5.1875,1.75 -0.9423,0.26297 -1.88461,0.52594 -2.85547,0.79688 -3.32092,0.50888 -5.68292,0.16342 -8.95703,-0.54688 -1.06219,-0.20238 -2.12437,-0.40476 -3.21875,-0.61328 -11.30679,-2.40942 -11.30679,-2.40942 -15.78125,-6.38672 -0.495,-1.485 -0.495,-1.485 -1,-3 -0.99,-0.33 -1.98,-0.66 -3,-1 -0.59681,-9.64839 0.43875,-17.52155 6.3125,-25.4375 3.1777,-3.0299 5.58516,-4.09185 9.6875,-5.5625 2.86073,-1.43036 4.74273,-0.67333 7.875,-0.125 z"
     fill="#6d4845"
     id="path7" />
  <path
     d="m 87.991642,243.19331 c 4.548056,-0.17835 7.879425,0.002 12,2 0,0.33 0,0.66 0,1 -4.62,0 -9.24,0 -14,0 0.66,-0.33 1.32,-0.66 2,-1 0,-0.66 0,-1.32 0,-2 z"
     fill="#5a3730"
     id="path8" />
  <path
     d="m 424.99164,247.19331 c 1.98,0 3.96,0 6,0 0.33,0.99 0.66,1.98 1,3 -1.65,0.33 -3.3,0.66 -5,1 -0.66,-1.32 -1.32,-2.64 -2,-4 z"
     fill="#523333"
     id="path9" />
  <path
     d="m 647.99164,284.19331 c 2.97,0.495 2.97,0.495 6,1 0,0.99 0,1.98 0,3 -1.32,0 -2.64,0 -4,0 -0.66,-1.32 -1.32,-2.64 -2,-4 z"
     fill="#68392f"
     id="path10" />
  <path
     d="m 695.99164,211.19331 c 0.33,0.66 0.66,1.32 1,2 0.66,0.33 1.32,0.66 2,1 -2.64,0.33 -5.28,0.66 -8,1 0.33,-0.99 0.66,-1.98 1,-3 2.0625,-0.6875 2.0625,-0.6875 4,-1 z"
     fill="#633936"
     id="path11" />
  <path
     d="m 554.99164,154.19331 c 0,0.66 0,1.32 0,2 -3,2 -3,2 -6,2 0,0.66 0,1.32 0,2 -0.66,-0.33 -1.32,-0.66 -2,-1 4.83871,-5 4.83871,-5 8,-5 z"
     fill="#6d2c28"
     id="path12" />
  <path
     d="m 691.99164,151.19331 c 0.66,0 1.32,0 2,0 -1.36983,3.16116 -1.98906,3.99271 -5,6 -0.99,-0.33 -1.98,-0.66 -3,-1 0.80438,-0.26812 1.60875,-0.53625 2.4375,-0.8125 0.84563,-0.39187 1.69125,-0.78375 2.5625,-1.1875 0.33,-0.99 0.66,-1.98 1,-3 z"
     fill="#532b2a"
     id="path13" />
  <path
     d=""
     fill="#000000"
     id="path14" />
  <path
     d=""
     fill="#000000"
     id="path15" />
  <path
     d=""
     fill="#000000"
     id="path16" />
  <path
     d=""
     fill="#000000"
     id="path17" />
  <path
     d=""
     fill="#000000"
     id="path18" />
  <path
     d=""
     fill="#000000"
     id="path19" />
  <path
     d=""
     fill="#000000"
     id="path20" />
  <path
     d=""
     fill="#000000"
     id="path21" />
  <path
     d=""
     fill="#000000"
     id="path22" />
  <path
     d=""
     fill="#000000"
     id="path23" />
  <path
     d=""
     fill="#ff0000"
     id="path24" />
  <path
     d=""
     fill="#ff0000"
     id="path25" />
  <path
     d=""
     fill="#000000"
     id="path26" />
  <path
     d=""
     fill="#000000"
     id="path27" />
  <path
     d=""
     fill="#000000"
     id="path28" />
  <path
     d=""
     fill="#000000"
     id="path29" />
  <path
     d=""
     fill="#000000"
     id="path30" />
  <path
     d=""
     fill="#000000"
     id="path31" />
  <path
     d=""
     fill="#000000"
     id="path32" />
  <path
     d=""
     fill="#7f0000"
     id="path33" />
</svg>
